<?xml version="1.0" encoding="utf-8"?>
<!-- Generated by IcoMoon.io -->
<!DOCTYPE svg PUBLIC "-//W3C//DTD SVG 1.1//EN" "http://www.w3.org/Graphics/SVG/1.1/DTD/svg11.dtd">
<svg version="1.1" xmlns="http://www.w3.org/2000/svg" xmlns:xlink="http://www.w3.org/1999/xlink" width="80" height="80" viewBox="0 0 80 80">
<path d="M19.766 52.563c0.016 0.047 0.438 1.188 0.672 1.766 1.313 3.109 3.203 5.922 5.609 8.328s5.203 4.297 8.328 5.609c3.234 1.359 6.656 2.063 10.188 2.063s6.969-0.688 10.188-2.063c3.125-1.313 5.922-3.203 8.328-5.609s4.297-5.203 5.609-8.328c1.359-3.234 2.063-6.656 2.063-10.188s-0.688-6.969-2.063-10.188c-1.313-3.125-3.203-5.922-5.609-8.328s-5.203-4.297-8.328-5.609c-3.234-1.359-6.656-2.063-10.188-2.063-3.578 0-7.156 0.719-10.328 2.063-2.547 1.078-6.859 3.844-9.375 6.453l-0.016 0.016v-21.563h36.203c1.312-0.016 1.312-1.859 1.312-2.453 0-0.609 0-2.438-1.328-2.453h-39.141c-1.063 0-1.719 0.891-1.719 1.703v30.328c0 0.984 1.219 1.688 2.359 1.922 2.219 0.469 2.719-0.234 3.266-0.984l0.078-0.094c0.828-1.234 3.406-3.828 3.438-3.859 4.031-4.031 9.422-6.25 15.188-6.25 5.734 0 11.109 2.219 15.141 6.25 4.047 4.047 6.281 9.406 6.281 15.094 0 5.703-2.219 11.078-6.25 15.094-3.969 3.969-9.531 6.25-15.234 6.25-3.859 0-7.594-1.031-10.797-2.984l0.016-18.438c0-2.453 1.063-5.141 2.859-7.156 2.047-2.313 4.859-3.578 7.938-3.578 2.969 0 5.75 1.125 7.828 3.172 2.047 2.031 3.188 4.75 3.188 7.641 0 6.156-4.844 10.984-11.031 10.984-1.188 0-3.359-0.531-3.453-0.547-1.25-0.375-1.781 1.359-1.953 1.937-0.672 2.203 0.344 2.641 0.547 2.703 1.984 0.625 3.297 0.734 5.016 0.734 8.734 0 15.844-7.109 15.844-15.844 0-8.672-7.109-15.719-15.828-15.719-4.281 0-8.297 1.641-11.313 4.594-2.875 2.828-4.516 6.594-4.516 10.344v0.094c-0.016 0.469-0.016 11.531-0.031 15.156l-0.016-0.016c-1.641-1.813-3.266-4.594-4.344-7.438-0.422-1.109-1.375-0.922-2.672-0.516-0.625 0.172-2.344 0.703-1.953 1.969v0zM38.375 48.234c0 0.531 0.484 1 0.781 1.266l0.094 0.094c0.5 0.484 0.969 0.734 1.406 0.734 0.359 0 0.578-0.172 0.656-0.25 0.219-0.203 2.687-2.719 2.938-2.953l2.766 2.75c0.25 0.281 0.531 0.438 0.859 0.438 0.438 0 0.922-0.266 1.422-0.781 1.188-1.219 0.594-1.875 0.313-2.188l-2.797-2.797 2.922-2.938c0.641-0.688 0.078-1.422-0.484-1.984-0.813-0.813-1.609-1.031-2.109-0.563l-2.906 2.906-2.938-2.938c-0.156-0.156-0.359-0.234-0.563-0.234-0.391 0-0.859 0.266-1.375 0.781-0.906 0.906-1.094 1.531-0.625 2.031l2.938 2.922-2.922 2.922c-0.266 0.25-0.391 0.516-0.375 0.781zM44.766 8.578c-4.688 0-9.688 0.953-13.344 2.531-0.391 0.156-0.625 0.469-0.672 0.906-0.047 0.422 0.063 0.969 0.344 1.688 0.234 0.578 0.828 2.125 2 1.672 3.75-1.438 7.906-2.219 11.672-2.219 4.281 0 8.438 0.844 12.344 2.484 3.109 1.313 6.031 3.219 9.219 5.969 0.234 0.203 0.484 0.297 0.734 0.297 0.625 0 1.219-0.609 1.734-1.188 0.844-0.953 1.438-1.75 0.594-2.547-3.047-2.875-6.375-5.031-10.5-6.781-4.469-1.859-9.234-2.813-14.125-2.813zM70.031 66.5v0c-0.563-0.563-1.047-0.891-1.469-1.016s-0.813-0.031-1.109 0.266l-0.281 0.281c-2.906 2.906-6.297 5.188-10.063 6.781-3.906 1.656-8.047 2.484-12.313 2.484-4.281 0-8.422-0.844-12.313-2.484-3.766-1.594-7.156-3.875-10.063-6.781-3.031-3.031-5.313-6.422-6.781-10.062-1.438-3.563-1.906-6.234-2.063-7.109-0.016-0.078-0.031-0.141-0.031-0.188-0.203-1.031-1.156-1.109-2.516-0.891-0.562 0.094-2.297 0.359-2.141 1.594v0.031c0.453 2.891 1.266 5.719 2.406 8.406 1.828 4.328 4.453 8.219 7.797 11.563s7.234 5.953 11.563 7.797c4.484 1.891 9.25 2.859 14.156 2.859s9.672-0.969 14.156-2.859c4.328-1.828 8.219-4.453 11.563-7.797 0 0 0.188-0.188 0.297-0.297 0.344-0.422 0.672-1.125-0.797-2.578z"></path>
</svg>
