<?xml version="1.0" encoding="utf-8"?>
<!-- Generated by IcoMoon.io -->
<!DOCTYPE svg PUBLIC "-//W3C//DTD SVG 1.1//EN" "http://www.w3.org/Graphics/SVG/1.1/DTD/svg11.dtd">
<svg version="1.1" xmlns="http://www.w3.org/2000/svg" xmlns:xlink="http://www.w3.org/1999/xlink" width="80" height="80" viewBox="0 0 80 80">
<path d="M73.281 36.719v6.563h-13.906l10.781 10.781-4.688 4.844-15.469-15.625h-6.719v6.719l15.625 15.469-4.844 4.688-10.781-10.781v13.906h-6.563v-13.906l-10.781 10.781-4.844-4.688 15.625-15.469v-6.719h-6.719l-15.469 15.625-4.688-4.844 10.781-10.781h-13.906v-6.563h13.906l-10.781-10.781 4.688-4.844 15.469 15.625h6.719v-6.719l-15.625-15.469 4.844-4.688 10.781 10.781v-13.906h6.563v13.906l10.781-10.781 4.844 4.688-15.625 15.469v6.719h6.719l15.469-15.625 4.688 4.844-10.781 10.781h13.906z"></path>
</svg>
