<?xml version="1.0" encoding="utf-8"?>
<!-- Generated by IcoMoon.io -->
<!DOCTYPE svg PUBLIC "-//W3C//DTD SVG 1.1//EN" "http://www.w3.org/Graphics/SVG/1.1/DTD/svg11.dtd">
<svg version="1.1" xmlns="http://www.w3.org/2000/svg" xmlns:xlink="http://www.w3.org/1999/xlink" width="80" height="80" viewBox="0 0 80 80">
<path d="M40 66.719c12.969 0 23.281-10.469 23.281-23.438s-10.313-23.281-23.281-23.281-23.281 10.313-23.281 23.281 10.313 23.438 23.281 23.438zM40 13.281c16.719 0 30 13.281 30 30s-13.281 30-30 30-30-13.281-30-30 13.281-30 30-30zM41.719 26.719v17.656l13.281 7.969-2.656 4.063-15.625-9.688v-20h5zM26.406 11.406l-15.469 12.656-4.219-5 15.313-12.656zM73.281 19.063l-4.219 5-15.469-13.125 4.375-5z"></path>
</svg>
