<?xml version="1.0" encoding="utf-8"?>
<!-- Generated by IcoMoon.io -->
<!DOCTYPE svg PUBLIC "-//W3C//DTD SVG 1.1//EN" "http://www.w3.org/Graphics/SVG/1.1/DTD/svg11.dtd">
<svg version="1.1" xmlns="http://www.w3.org/2000/svg" xmlns:xlink="http://www.w3.org/1999/xlink" width="80" height="80" viewBox="0 0 80 80">
<path d="M42.813 60h6.875c-1.563 7.656-8.281 13.281-16.406 13.281-9.219 0-16.563-7.344-16.563-16.563 0-8.125 5.625-14.844 13.281-16.406v6.875c-3.906 1.406-6.719 5.156-6.719 9.531 0 5.469 4.531 10 10 10 4.375 0 8.125-2.813 9.531-6.719zM33.281 30.313c0-4.686 5.212-8.83 10-6.094h0.156v0.156c0.781 0.313 1.406 0.781 2.031 1.406l4.375 4.844c3.281 3.594 8.281 6.094 13.438 6.094v6.563c-5.781 0-12.188-2.813-16.563-6.406v11.406h10c3.594 0 6.563 3.125 6.563 6.719v18.281h-6.563v-16.563h-16.719c-3.594 0-6.719-3.125-6.719-6.719v-19.688zM33.281 13.281c0-3.75 2.969-6.563 6.719-6.563s6.719 2.813 6.719 6.563-2.969 6.719-6.719 6.719-6.719-2.969-6.719-6.719z"></path>
</svg>
