<?xml version="1.0" encoding="utf-8"?>
<!-- Generated by IcoMoon.io -->
<!DOCTYPE svg PUBLIC "-//W3C//DTD SVG 1.1//EN" "http://www.w3.org/Graphics/SVG/1.1/DTD/svg11.dtd">
<svg version="1.1" xmlns="http://www.w3.org/2000/svg" xmlns:xlink="http://www.w3.org/1999/xlink" width="80" height="80" viewBox="0 0 80 80">
<path d="M53.281 45c2.813 0 5-2.188 5-5s-2.188-5-5-5-5 2.188-5 5 2.188 5 5 5zM40 53.281v-26.563h33.281v26.563h-33.281zM70 60v3.281c0 3.594-3.125 6.719-6.719 6.719h-46.563c-3.75 0-6.719-3.125-6.719-6.719v-46.563c0-3.594 2.969-6.719 6.719-6.719h46.563c3.594 0 6.719 3.125 6.719 6.719v3.281h-30c-3.75 0-6.719 3.125-6.719 6.719v26.563c0 3.594 2.969 6.719 6.719 6.719h30z"></path>
</svg>
