<?xml version="1.0" encoding="utf-8"?>
<!-- Generated by IcoMoon.io -->
<!DOCTYPE svg PUBLIC "-//W3C//DTD SVG 1.1//EN" "http://www.w3.org/Graphics/SVG/1.1/DTD/svg11.dtd">
<svg version="1.1" xmlns="http://www.w3.org/2000/svg" xmlns:xlink="http://www.w3.org/1999/xlink" width="80" height="80" viewBox="0 0 80 80">
<path d="M40 64.063c8.281 0 15.625-4.375 20-10.781-0.156-6.563-13.438-10.313-20-10.313-6.719 0-19.844 3.75-20 10.313 4.375 6.406 11.719 10.781 20 10.781zM40 16.719c-5.469 0-10 4.531-10 10s4.531 10 10 10 10-4.531 10-10-4.531-10-10-10zM40 6.719c18.438 0 33.281 14.844 33.281 33.281s-14.844 33.281-33.281 33.281-33.281-14.844-33.281-33.281 14.844-33.281 33.281-33.281z"></path>
</svg>
