<?xml version="1.0" encoding="utf-8"?>
<!-- Generated by IcoMoon.io -->
<!DOCTYPE svg PUBLIC "-//W3C//DTD SVG 1.1//EN" "http://www.w3.org/Graphics/SVG/1.1/DTD/svg11.dtd">
<svg version="1.1" xmlns="http://www.w3.org/2000/svg" xmlns:xlink="http://www.w3.org/1999/xlink" width="80" height="80" viewBox="0 0 80 80">
<path d="M50 30c1.875 0 3.281-1.406 3.281-3.281s-1.406-3.438-3.281-3.438-3.281 1.563-3.281 3.438 1.406 3.281 3.281 3.281zM30 30c1.875 0 3.281-1.406 3.281-3.281s-1.406-3.438-3.281-3.438-3.281 1.563-3.281 3.438 1.406 3.281 3.281 3.281zM53.75 14.531c5.781 4.219 9.531 11.094 9.531 18.75v3.438h-46.563v-3.438c0-7.656 3.75-14.531 9.531-18.75l-7.031-7.031 2.813-2.656 7.656 7.656c3.125-1.563 6.563-2.5 10.313-2.5s7.188 0.938 10.313 2.5l7.656-7.656 2.813 2.656zM16.719 53.281v-13.281h46.563v13.281c0 12.969-10.313 23.438-23.281 23.438s-23.281-10.469-23.281-23.438z"></path>
</svg>
