<?xml version="1.0" encoding="utf-8"?>
<!-- Generated by IcoMoon.io -->
<!DOCTYPE svg PUBLIC "-//W3C//DTD SVG 1.1//EN" "http://www.w3.org/Graphics/SVG/1.1/DTD/svg11.dtd">
<svg version="1.1" xmlns="http://www.w3.org/2000/svg" xmlns:xlink="http://www.w3.org/1999/xlink" width="80" height="80" viewBox="0 0 80 80">
<path d="M32.656 46.719c0-5.938 4.688-10.781 10.625-10.781s10.781 4.844 10.781 10.781-4.844 10.625-10.781 10.625-10.625-4.688-10.625-10.625zM43.281 63.281c9.219 0 16.719-7.344 16.719-16.563s-7.5-16.719-16.719-16.719-16.563 7.5-16.563 16.719 7.344 16.563 16.563 16.563zM20 33.281v-10h10v-10h23.281l6.094 6.719h10.625c3.594 0 6.719 3.125 6.719 6.719v40c0 3.594-3.125 6.563-6.719 6.563h-53.281c-3.594 0-6.719-2.969-6.719-6.563v-33.438h10zM10 13.281v-10h6.719v10h10v6.719h-10v10h-6.719v-10h-10v-6.719h10z"></path>
</svg>
