<?xml version="1.0" encoding="utf-8"?>
<!-- Generated by IcoMoon.io -->
<!DOCTYPE svg PUBLIC "-//W3C//DTD SVG 1.1//EN" "http://www.w3.org/Graphics/SVG/1.1/DTD/svg11.dtd">
<svg version="1.1" xmlns="http://www.w3.org/2000/svg" xmlns:xlink="http://www.w3.org/1999/xlink" width="80" height="80" viewBox="0 0 80 80">
<path d="M23.906 49.219c0 0.469 0.313 0.781 0.781 0.781h38.594v6.719h-40c-3.594 0-6.563-3.125-6.563-6.719 0-1.094 0.313-2.188 0.781-3.125l4.531-8.281-12.031-25.313h-6.719v-6.563h10.938c2.11 4.401 4.193 8.828 6.25 13.281 2.661 5.568 5.281 11.177 7.969 16.719h23.438c4.28-7.803 8.635-15.531 12.813-23.438l5.781 3.281-12.813 23.281c-1.094 2.031-3.281 3.438-5.781 3.438h-24.844l-2.969 5.469zM56.719 60c3.594 0 6.563 3.125 6.563 6.719s-2.969 6.563-6.563 6.563-6.719-2.969-6.719-6.563 3.125-6.719 6.719-6.719zM23.281 60c3.594 0 6.719 3.125 6.719 6.719s-3.125 6.563-6.719 6.563-6.563-2.969-6.563-6.563 2.969-6.719 6.563-6.719zM36.719 30v-10h-10v-6.719h10v-10h6.563v10h10v6.719h-10v10h-6.563z"></path>
</svg>
