<?xml version="1.0" encoding="utf-8"?>
<!-- Generated by IcoMoon.io -->
<!DOCTYPE svg PUBLIC "-//W3C//DTD SVG 1.1//EN" "http://www.w3.org/Graphics/SVG/1.1/DTD/svg11.dtd">
<svg version="1.1" xmlns="http://www.w3.org/2000/svg" xmlns:xlink="http://www.w3.org/1999/xlink" width="80" height="80" viewBox="0 0 80 80">
<path d="M53.281 43.438v-6.719h-10v-10h-6.563v10h-10v6.719h10v10h6.563v-10h10zM62.969 56.094l7.031 7.031v3.594h-60v-3.594l7.031-7.031v-19.375c0-10.781 7.5-20 17.656-22.344v-2.344c0-2.969 2.344-5.313 5.313-5.313s5.313 2.344 5.313 5.313v2.344c10.156 2.344 17.656 11.563 17.656 22.344v19.375zM33.438 70h13.125c0 3.594-2.969 6.719-6.563 6.719s-6.563-3.125-6.563-6.719z"></path>
</svg>
