<?xml version="1.0" encoding="utf-8"?>
<!-- Generated by IcoMoon.io -->
<!DOCTYPE svg PUBLIC "-//W3C//DTD SVG 1.1//EN" "http://www.w3.org/Graphics/SVG/1.1/DTD/svg11.dtd">
<svg version="1.1" xmlns="http://www.w3.org/2000/svg" xmlns:xlink="http://www.w3.org/1999/xlink" width="80" height="80" viewBox="0 0 80 80">
<path d="M15 0v80h60v-80h-60zM45 20.026c5.509 0 9.974 4.466 9.974 9.974s-4.466 9.974-9.974 9.974-9.974-4.466-9.974-9.974 4.466-9.974 9.974-9.974v0zM60 60h-30v-5c0-5.523 4.477-10 10-10v0h10c5.523 0 10 4.477 10 10v5z"></path>
<path d="M5 5h7.5v15h-7.5v-15z"></path>
<path d="M5 25h7.5v15h-7.5v-15z"></path>
<path d="M5 45h7.5v15h-7.5v-15z"></path>
<path d="M5 65h7.5v15h-7.5v-15z"></path>
</svg>
