<?xml version="1.0" encoding="utf-8"?>
<!-- Generated by IcoMoon.io -->
<!DOCTYPE svg PUBLIC "-//W3C//DTD SVG 1.1//EN" "http://www.w3.org/Graphics/SVG/1.1/DTD/svg11.dtd">
<svg version="1.1" xmlns="http://www.w3.org/2000/svg" xmlns:xlink="http://www.w3.org/1999/xlink" width="80" height="80" viewBox="0 0 80 80">
<path d="M70 20h-15v-10c0-2.75-2.25-5-5-5h-20c-2.75 0-5 2.25-5 5v10h-15c-5.5 0-10 4.5-10 10v40c0 5.5 4.5 10 10 10h60c5.5 0 10-4.5 10-10v-40c0-5.5-4.5-10-10-10zM30 10h20v10h-20v-10zM60 55h-15v15h-10v-15h-15v-10h15v-15h10v15h15v10z"></path>
</svg>
