<?xml version="1.0" encoding="utf-8"?>
<!-- Generated by IcoMoon.io -->
<!DOCTYPE svg PUBLIC "-//W3C//DTD SVG 1.1//EN" "http://www.w3.org/Graphics/SVG/1.1/DTD/svg11.dtd">
<svg version="1.1" xmlns="http://www.w3.org/2000/svg" xmlns:xlink="http://www.w3.org/1999/xlink" width="80" height="80" viewBox="0 0 80 80">
<path d="M76.094 57.5c1.406 2.5 0.156 5.625-2.344 6.875l-12.344 5.625-11.406-23.281h-23.281c-5.469 0-10-4.531-10-10v-26.719h20v20h11.719c2.5 0 4.844 1.406 5.938 3.75l11.25 23.281 3.75-1.719c2.5-1.094 5.469-0.156 6.719 2.188zM13.281 40c0 5.469 4.531 10 10 10h20v6.719h-20c-9.219 0-16.563-7.5-16.563-16.719v-30h6.563v30z"></path>
</svg>
