<?xml version="1.0" encoding="utf-8"?>
<!-- Generated by IcoMoon.io -->
<!DOCTYPE svg PUBLIC "-//W3C//DTD SVG 1.1//EN" "http://www.w3.org/Graphics/SVG/1.1/DTD/svg11.dtd">
<svg version="1.1" xmlns="http://www.w3.org/2000/svg" xmlns:xlink="http://www.w3.org/1999/xlink" width="80" height="80" viewBox="0 0 80 80">
<path d="M16.719 40c0 5.469 4.531 10 10 10h13.281v6.719h-13.281c-9.219 0-16.719-7.5-16.719-16.719v-30h6.719v30zM66.563 64.063c0.625 3.125-1.719 5.938-4.844 5.938h-15v-10l3.281-13.281h-20c-5.469 0-10-4.531-10-10v-26.719h20v20h16.719c3.594 0 6.563 3.125 6.563 6.719l-6.563 23.281h4.688c2.5 0 4.688 1.719 5.156 4.063z"></path>
</svg>
