<?xml version="1.0" encoding="utf-8"?>
<!-- Generated by IcoMoon.io -->
<!DOCTYPE svg PUBLIC "-//W3C//DTD SVG 1.1//EN" "http://www.w3.org/Graphics/SVG/1.1/DTD/svg11.dtd">
<svg version="1.1" xmlns="http://www.w3.org/2000/svg" xmlns:xlink="http://www.w3.org/1999/xlink" width="80" height="80" viewBox="0 0 80 80">
<path d="M66.719 66.875l-4.844 4.844-11.719-11.719h-16.875c-5.469 0-10-4.531-10-10v-19.219c0-4.063 3.438-7.5 7.5-7.5h0.156c2.318 0 4.281 1.312 5.469 2.5l4.688 5.156c3.594 3.906 10.156 6.719 15.625 6.719v7.344c-6.406 0-13.75-3.438-18.438-7.344v12.344h11.563zM20 53.281c0 5.469 4.531 10 10 10h20v6.719h-20c-9.219 0-16.719-7.5-16.719-16.719v-30h6.719v30zM25.313 17.969c-2.656-2.656-2.656-6.719 0-9.375s6.719-2.656 9.375 0 2.656 6.719 0 9.375-6.719 2.656-9.375 0z"></path>
</svg>
