<?xml version="1.0" encoding="utf-8"?>
<!-- Generated by IcoMoon.io -->
<!DOCTYPE svg PUBLIC "-//W3C//DTD SVG 1.1//EN" "http://www.w3.org/Graphics/SVG/1.1/DTD/svg11.dtd">
<svg version="1.1" xmlns="http://www.w3.org/2000/svg" xmlns:xlink="http://www.w3.org/1999/xlink" width="80" height="80" viewBox="0 0 80 80">
<path d="M54.063 50l19.219 15-5 5-12.656-10h-22.813c-4.844 0-8.906-3.438-9.844-8.125l-4.531-19.688c-0.625-4.063 2.031-7.969 6.094-8.75h0.156c2.372-0.339 4.424 0.32 5.781 1.406l5.469 4.219c4.219 3.281 10.156 5.313 15.625 4.219v7.188c-6.25 1.094-11.875-1.094-17.188-4.063l3.438 13.594h16.25zM53.281 63.281v6.719h-23.438c-8.281 0-15.313-5.938-16.563-14.063l-6.563-32.656h6.563l6.563 31.563c0.781 4.844 5 8.438 10 8.438h23.438zM17.813 18.75c-2.969-2.188-3.594-6.25-1.563-9.219s6.25-3.75 9.219-1.719c2.969 2.188 3.75 6.406 1.719 9.375-2.188 2.969-6.406 3.594-9.375 1.563z"></path>
</svg>
