<?xml version="1.0" encoding="utf-8"?>
<!-- Generated by IcoMoon.io -->
<!DOCTYPE svg PUBLIC "-//W3C//DTD SVG 1.1//EN" "http://www.w3.org/Graphics/SVG/1.1/DTD/svg11.dtd">
<svg version="1.1" xmlns="http://www.w3.org/2000/svg" xmlns:xlink="http://www.w3.org/1999/xlink" width="80" height="80" viewBox="0 0 80 80">
<path d="M50 36.719h16.719l-13.438-13.438h-3.281v13.438zM58.281 58.281c2.813 0 5-2.188 5-5s-2.188-5-5-5-5 2.188-5 5 2.188 5 5 5zM43.281 36.719v-13.438h-13.281v13.438h13.281zM20 58.281c2.813 0 5-2.188 5-5s-2.188-5-5-5-5 2.188-5 5 2.188 5 5 5zM10 36.719h13.281v-13.438h-13.281v13.438zM56.719 16.719l20 20v16.563h-8.438c0 5.469-4.531 10-10 10s-10-4.531-10-10h-18.281c0 5.469-4.531 10-10 10s-10-4.531-10-10h-6.719v-30c0-3.75 3.125-6.563 6.719-6.563h46.719z"></path>
</svg>
