<?xml version="1.0" encoding="utf-8"?>
<!-- Generated by IcoMoon.io -->
<!DOCTYPE svg PUBLIC "-//W3C//DTD SVG 1.1//EN" "http://www.w3.org/Graphics/SVG/1.1/DTD/svg11.dtd">
<svg version="1.1" xmlns="http://www.w3.org/2000/svg" xmlns:xlink="http://www.w3.org/1999/xlink" width="80" height="80" viewBox="0 0 80 80">
<path d="M40 10c-19.33 0-35 15.67-35 35s15.67 35 35 35 35-15.67 35-35-15.67-35-35-35zM40 73.125c-15.533 0-28.125-12.592-28.125-28.125s12.592-28.125 28.125-28.125c15.533 0 28.125 12.592 28.125 28.125s-12.592 28.125-28.125 28.125zM73.030 22.435c1.253-2.192 1.97-4.73 1.97-7.435 0-8.284-6.716-15-15-15-4.83 0-9.125 2.283-11.869 5.828 10.303 2.128 19.157 8.219 24.899 16.608v0zM31.869 5.828c-2.743-3.545-7.039-5.828-11.869-5.828-8.284 0-15 6.716-15 15 0 2.706 0.717 5.244 1.97 7.435 5.742-8.389 14.595-14.48 24.899-16.608z"></path>
<path d="M40 45v-20h-5v25h20v-5z"></path>
</svg>
