<?xml version="1.0" encoding="utf-8"?>
<!-- Generated by IcoMoon.io -->
<!DOCTYPE svg PUBLIC "-//W3C//DTD SVG 1.1//EN" "http://www.w3.org/Graphics/SVG/1.1/DTD/svg11.dtd">
<svg version="1.1" xmlns="http://www.w3.org/2000/svg" xmlns:xlink="http://www.w3.org/1999/xlink" width="80" height="80" viewBox="0 0 80 80">
<path d="M26.719 10.938l-2.813 2.344-4.844-4.688 2.969-2.344zM54.844 61.25l-32.813-32.813c-3.281 4.063-5.313 9.219-5.313 14.844 0 12.969 10.313 23.438 23.281 23.438 5.625 0 10.781-2.188 14.844-5.469zM9.688 7.656c20.512 20.478 41.043 40.936 61.563 61.406l-4.219 4.219-7.344-7.344c-5.313 4.531-12.188 7.344-19.688 7.344-16.563 0-30-13.438-30-30 0-7.5 2.813-14.219 7.344-19.531l-2.656-2.656-3.75 3.125-4.688-4.844 3.75-2.969-4.531-4.531zM73.281 19.063l-4.219 5.156-15.313-12.969 4.219-5zM40 20c-2.813 0-5.469 0.469-7.969 1.406l-5.156-5c3.906-1.875 8.438-3.125 13.125-3.125 16.563 0 30 13.438 30 30 0 4.688-1.094 9.219-2.969 13.125l-5.156-5c0.938-2.5 1.406-5.313 1.406-8.125 0-12.969-10.313-23.281-23.281-23.281z"></path>
</svg>
