<?xml version="1.0" encoding="utf-8"?>
<!-- Generated by IcoMoon.io -->
<!DOCTYPE svg PUBLIC "-//W3C//DTD SVG 1.1//EN" "http://www.w3.org/Graphics/SVG/1.1/DTD/svg11.dtd">
<svg version="1.1" xmlns="http://www.w3.org/2000/svg" xmlns:xlink="http://www.w3.org/1999/xlink" width="80" height="80" viewBox="0 0 80 80">
<path d="M62.031 22.031c10 0 17.969 8.125 17.969 17.969s-7.969 17.969-17.969 17.969c-4.844 0-9.375-1.875-12.813-5.313l-4.219-3.75 5-4.375 3.906 3.281c2.344 2.344 5.156 3.438 8.125 3.438 6.25 0 11.25-5 11.25-11.25s-5-11.25-11.25-11.25c-2.969 0-5.781 1.094-7.969 3.281-4.708 4.146-9.449 8.26-14.063 12.5l-9.375 8.281c-3.281 3.281-7.813 5.156-12.656 5.156-10 0-17.969-8.125-17.969-17.969s7.969-17.969 17.969-17.969c4.844 0 9.375 1.875 12.813 5.313l4.219 3.75-5.156 4.375-3.75-3.281c-2.344-2.344-5.156-3.438-8.125-3.438-6.25 0-11.25 5-11.25 11.25s5 11.25 11.25 11.25c2.969 0 5.781-1.094 7.969-3.281 4.708-4.146 9.449-8.26 14.063-12.5l9.375-8.281c3.281-3.281 7.813-5.156 12.656-5.156z"></path>
</svg>
