<?xml version="1.0" encoding="utf-8"?>
<!-- Generated by IcoMoon.io -->
<!DOCTYPE svg PUBLIC "-//W3C//DTD SVG 1.1//EN" "http://www.w3.org/Graphics/SVG/1.1/DTD/svg11.dtd">
<svg version="1.1" xmlns="http://www.w3.org/2000/svg" xmlns:xlink="http://www.w3.org/1999/xlink" width="80" height="80" viewBox="0 0 80 80">
<path d="M72.313 69.156c-8.766 6.469-21.453 9.906-32.391 9.906-15.328 0-29.125-5.656-39.563-15.094-0.813-0.734-0.094-1.75 0.891-1.172 11.266 6.563 25.203 10.5 39.594 10.5 9.703 0 20.375-2.016 30.203-6.188 1.469-0.625 2.719 0.984 1.266 2.047z"></path>
<path d="M75.953 65c-1.125-1.438-7.406-0.688-10.234-0.344-0.859 0.094-0.984-0.641-0.219-1.188 5.016-3.516 13.234-2.5 14.188-1.328 0.969 1.188-0.25 9.422-4.953 13.359-0.719 0.609-1.406 0.281-1.094-0.516 1.078-2.641 3.438-8.547 2.313-9.984z"></path>
<path d="M55.266 59.188l0.016 0.016c1.938-1.703 5.422-4.75 7.391-6.391 0.781-0.625 0.641-1.672 0.031-2.547-1.766-2.438-3.641-4.422-3.641-8.922v-15c0-6.359 0.438-12.188-4.234-16.563-3.688-3.531-9.813-4.781-14.5-4.781-9.156 0-19.375 3.422-21.516 14.734-0.234 1.203 0.656 1.844 1.437 2.016l9.328 1.016c0.875-0.047 1.5-0.906 1.672-1.781 0.797-3.891 4.063-5.781 7.734-5.781 1.984 0 4.234 0.719 5.406 2.5 1.344 1.984 1.172 4.688 1.172 6.984v1.25c-5.578 0.625-12.875 1.031-18.094 3.328-6.031 2.609-10.266 7.922-10.266 15.734 0 10 6.297 15 14.406 15 6.844 0 10.578-1.609 15.859-7.016 1.75 2.531 2.313 3.766 5.516 6.422 0.734 0.391 1.641 0.359 2.281-0.219zM45.563 35.719c0 3.75 0.094 6.875-1.797 10.203-1.531 2.719-3.953 4.375-6.656 4.375-3.688 0-5.844-2.813-5.844-6.969 0-8.203 7.359-9.688 14.313-9.688v2.078z"></path>
</svg>
