<?xml version="1.0" encoding="utf-8"?>
<!-- Generated by IcoMoon.io -->
<!DOCTYPE svg PUBLIC "-//W3C//DTD SVG 1.1//EN" "http://www.w3.org/Graphics/SVG/1.1/DTD/svg11.dtd">
<svg version="1.1" xmlns="http://www.w3.org/2000/svg" xmlns:xlink="http://www.w3.org/1999/xlink" width="80" height="80" viewBox="0 0 80 80">
<path d="M70 30c-2.75 0-5 2.25-5 5v20c0 2.75 2.25 5 5 5s5-2.25 5-5v-20c0-2.75-2.25-5-5-5zM10 30c-2.75 0-5 2.25-5 5v20c0 2.75 2.25 5 5 5s5-2.25 5-5v-20c0-2.75-2.25-5-5-5zM17.5 57.5c0 4.142 3.358 7.5 7.5 7.5v0 10c0 2.75 2.25 5 5 5s5-2.25 5-5v-10h10v10c0 2.75 2.25 5 5 5s5-2.25 5-5v-10c4.142 0 7.5-3.358 7.5-7.5v-27.5h-45v27.5z"></path>
<path d="M62.361 25c-0.759-6.866-4.61-12.796-10.127-16.379l2.502-5.004c0.617-1.235 0.117-2.737-1.118-3.354s-2.737-0.117-3.354 1.118l-2.511 5.022-0.652-0.259c-2.232-0.742-4.619-1.145-7.1-1.145s-4.868 0.403-7.101 1.145l-0.652 0.259-2.511-5.022c-0.617-1.235-2.119-1.735-3.354-1.118s-1.735 2.119-1.118 3.354l2.502 5.004c-5.517 3.582-9.367 9.513-10.127 16.378v2.5h44.861v-2.5h-0.139zM32.5 20c-1.381 0-2.5-1.119-2.5-2.5 0-1.379 1.116-2.497 2.495-2.5 0.002 0 0.005 0 0.007 0 0.001 0 0.003-0 0.004-0 1.378 0.003 2.494 1.121 2.494 2.5 0 1.381-1.119 2.5-2.5 2.5zM47.5 20c-1.381 0-2.5-1.119-2.5-2.5 0-1.379 1.116-2.496 2.494-2.5 0.001 0 0.003 0 0.004 0 0.002 0 0.005-0 0.007-0 1.378 0.003 2.495 1.121 2.495 2.5 0 1.381-1.119 2.5-2.5 2.5z"></path>
</svg>
