<?xml version="1.0" encoding="utf-8"?>
<!-- Generated by IcoMoon.io -->
<!DOCTYPE svg PUBLIC "-//W3C//DTD SVG 1.1//EN" "http://www.w3.org/Graphics/SVG/1.1/DTD/svg11.dtd">
<svg version="1.1" xmlns="http://www.w3.org/2000/svg" xmlns:xlink="http://www.w3.org/1999/xlink" width="80" height="80" viewBox="0 0 80 80">
<path d="M50 16.719v-3.438h-3.281v3.438h3.281zM33.281 16.719v-3.438h-3.281v3.438h3.281zM51.719 7.188c5 3.594 8.281 9.531 8.281 16.094h-40c0-6.563 3.125-12.5 8.125-16.094l-4.375-4.375c-0.625-0.625-0.625-1.719 0-2.344s1.719-0.625 2.344 0l5 5c2.656-1.406 5.781-2.188 8.906-2.188s6.094 0.781 8.75 2.188l5-5c0.625-0.625 1.719-0.625 2.344 0s0.625 1.719 0 2.344zM68.281 26.719c2.813 0 5 2.188 5 5v23.281c0 2.813-2.188 5-5 5s-5-2.188-5-5v-23.281c0-2.813 2.188-5 5-5zM11.719 26.719c2.813 0 5 2.188 5 5v23.281c0 2.813-2.188 5-5 5s-5-2.188-5-5v-23.281c0-2.813 2.188-5 5-5zM20 60v-33.281h40v33.281c0 1.875-1.406 3.281-3.281 3.281h-3.438v11.719c0 2.813-2.188 5-5 5s-5-2.188-5-5v-11.719h-6.563v11.719c0 2.813-2.188 5-5 5s-5-2.188-5-5v-11.719h-3.438c-1.875 0-3.281-1.406-3.281-3.281z"></path>
</svg>
