<?xml version="1.0" encoding="utf-8"?>
<!-- Generated by IcoMoon.io -->
<!DOCTYPE svg PUBLIC "-//W3C//DTD SVG 1.1//EN" "http://www.w3.org/Graphics/SVG/1.1/DTD/svg11.dtd">
<svg version="1.1" xmlns="http://www.w3.org/2000/svg" xmlns:xlink="http://www.w3.org/1999/xlink" width="80" height="80" viewBox="0 0 80 80">
<path d="M40 80c22.091 0 40-17.909 40-40s-17.909-40-40-40-40 17.909-40 40 17.909 40 40 40zM40 7.5c17.949 0 32.5 14.551 32.5 32.5s-14.551 32.5-32.5 32.5-32.5-14.551-32.5-32.5 14.551-32.5 32.5-32.5zM55.008 60.995c-3.060-5.090-8.636-8.495-15.008-8.495s-11.947 3.406-15.008 8.495l-6.432-3.859c4.372-7.271 12.337-12.136 21.44-12.136s17.068 4.865 21.44 12.136l-6.432 3.859zM59.925 21.894c0.335 1.339-0.48 2.697-1.819 3.032-1.377 0.348-3.010 0.947-4.448 1.668 0.832 0.893 1.342 2.090 1.342 3.407 0 2.761-2.239 5-5 5s-5-2.239-5-5c0-0.091 0.003-0.182 0.008-0.272 0.159-3.707 3.532-6.168 6.374-7.589 2.714-1.357 5.399-2.036 5.512-2.064 1.34-0.335 2.697 0.48 3.032 1.819zM20.075 21.894c0.335-1.34 1.692-2.154 3.032-1.819 0.113 0.028 2.797 0.707 5.512 2.064 2.842 1.421 6.216 3.882 6.374 7.589 0.005 0.090 0.008 0.181 0.008 0.272 0 2.761-2.239 5-5 5s-5-2.239-5-5c0-1.317 0.51-2.514 1.342-3.407-1.439-0.721-3.071-1.32-4.448-1.668-1.339-0.335-2.154-1.692-1.819-3.032z"></path>
</svg>
