<?xml version="1.0" encoding="utf-8"?>
<!-- Generated by IcoMoon.io -->
<!DOCTYPE svg PUBLIC "-//W3C//DTD SVG 1.1//EN" "http://www.w3.org/Graphics/SVG/1.1/DTD/svg11.dtd">
<svg version="1.1" xmlns="http://www.w3.org/2000/svg" xmlns:xlink="http://www.w3.org/1999/xlink" width="80" height="80" viewBox="0 0 80 80">
<path d="M11.465 18.535l41.464 41.465h-17.929c-2.761 0-5 2.239-5 5s2.239 5 5 5h30c2.022 0 3.845-1.218 4.619-3.087 0.257-0.619 0.378-1.269 0.378-1.913h0.003v-30c0-2.761-2.239-5-5-5s-5 2.239-5 5v17.929l-41.465-41.464c-0.976-0.976-2.256-1.465-3.535-1.465s-2.559 0.488-3.535 1.465c-1.953 1.952-1.953 5.118 0 7.071z"></path>
</svg>
