<?xml version="1.0" encoding="utf-8"?>
<!-- Generated by IcoMoon.io -->
<!DOCTYPE svg PUBLIC "-//W3C//DTD SVG 1.1//EN" "http://www.w3.org/Graphics/SVG/1.1/DTD/svg11.dtd">
<svg version="1.1" xmlns="http://www.w3.org/2000/svg" xmlns:xlink="http://www.w3.org/1999/xlink" width="80" height="80" viewBox="0 0 80 80">
<path d="M61.464 11.464l-41.464 41.464v-17.929c0-2.761-2.239-5-5-5s-5 2.239-5 5v30c0 2.022 1.218 3.845 3.087 4.619 0.619 0.256 1.269 0.378 1.913 0.378v0.003l30-0c2.761 0 5-2.239 5-5s-2.239-5-5-5h-17.929l41.464-41.465c0.976-0.976 1.465-2.256 1.465-3.536s-0.488-2.559-1.465-3.535c-1.953-1.953-5.119-1.953-7.071 0v0z"></path>
</svg>
