<?xml version="1.0" encoding="utf-8"?>
<!-- Generated by IcoMoon.io -->
<!DOCTYPE svg PUBLIC "-//W3C//DTD SVG 1.1//EN" "http://www.w3.org/Graphics/SVG/1.1/DTD/svg11.dtd">
<svg version="1.1" xmlns="http://www.w3.org/2000/svg" xmlns:xlink="http://www.w3.org/1999/xlink" width="80" height="80" viewBox="0 0 80 80">
<path d="M68.535 61.465l-41.464-41.465h17.929c2.761 0 5-2.239 5-5s-2.239-5-5-5h-30c-2.022 0-3.845 1.218-4.619 3.087-0.256 0.619-0.378 1.269-0.378 1.913h-0.003v30c0 2.761 2.239 5 5 5s5-2.239 5-5v-17.929l41.465 41.464c0.976 0.976 2.256 1.465 3.535 1.465s2.559-0.488 3.535-1.465c1.953-1.953 1.953-5.118 0-7.071z"></path>
</svg>
