<?xml version="1.0" encoding="utf-8"?>
<!-- Generated by IcoMoon.io -->
<!DOCTYPE svg PUBLIC "-//W3C//DTD SVG 1.1//EN" "http://www.w3.org/Graphics/SVG/1.1/DTD/svg11.dtd">
<svg version="1.1" xmlns="http://www.w3.org/2000/svg" xmlns:xlink="http://www.w3.org/1999/xlink" width="80" height="80" viewBox="0 0 80 80">
<path d="M35 50l-7.5-10-5.781 7.5-4.219-5-5.781 7.5h23.281zM40 30v20c0 3.594-3.125 6.719-6.719 6.719h-20c-3.594 0-6.563-3.125-6.563-6.719v-20c0-3.594 2.969-6.719 6.563-6.719h20c3.594 0 6.719 3.125 6.719 6.719zM46.719 56.719v-6.719h26.563v6.719h-26.563zM73.281 23.281v6.719h-26.563v-6.719h26.563zM73.281 43.281h-26.563v-6.563h26.563v6.563z"></path>
</svg>
