<?xml version="1.0" encoding="utf-8"?>
<!-- Generated by IcoMoon.io -->
<!DOCTYPE svg PUBLIC "-//W3C//DTD SVG 1.1//EN" "http://www.w3.org/Graphics/SVG/1.1/DTD/svg11.dtd">
<svg version="1.1" xmlns="http://www.w3.org/2000/svg" xmlns:xlink="http://www.w3.org/1999/xlink" width="80" height="80" viewBox="0 0 80 80">
<path d="M60 63.281v-4.688c0-6.719-13.281-10.313-20-10.313s-20 3.594-20 10.313v4.688h40zM40 23.281c-5.469 0-10 4.531-10 10s4.531 10 10 10 10-4.531 10-10-4.531-10-10-10zM40 10c-1.875 0-3.281 1.406-3.281 3.281s1.406 3.438 3.281 3.438 3.281-1.563 3.281-3.438-1.406-3.281-3.281-3.281zM63.281 10c3.594 0 6.719 3.125 6.719 6.719v46.563c0 3.594-3.125 6.719-6.719 6.719h-46.563c-3.594 0-6.719-3.125-6.719-6.719v-46.563c0-3.594 3.125-6.719 6.719-6.719h13.906c1.406-3.906 5-6.719 9.375-6.719s7.969 2.813 9.375 6.719h13.906z"></path>
</svg>
