<?xml version="1.0" encoding="utf-8"?>
<!-- Generated by IcoMoon.io -->
<!DOCTYPE svg PUBLIC "-//W3C//DTD SVG 1.1//EN" "http://www.w3.org/Graphics/SVG/1.1/DTD/svg11.dtd">
<svg version="1.1" xmlns="http://www.w3.org/2000/svg" xmlns:xlink="http://www.w3.org/1999/xlink" width="80" height="80" viewBox="0 0 80 80">
<path d="M55 20h5v38.281c0 10.156-8.125 18.438-18.281 18.438s-18.438-8.281-18.438-18.438v-41.563c0-7.344 6.094-13.438 13.438-13.438s13.281 6.094 13.281 13.438v35c0 4.531-3.75 8.281-8.281 8.281s-8.438-3.75-8.438-8.281v-31.719h5v31.719c0 1.875 1.563 3.281 3.438 3.281s3.281-1.406 3.281-3.281v-35c0-4.531-3.75-8.438-8.281-8.438s-8.438 3.906-8.438 8.438v41.563c0 7.344 6.094 13.438 13.438 13.438s13.281-6.094 13.281-13.438v-38.281z"></path>
</svg>
