<?xml version="1.0" encoding="utf-8"?>
<!-- Generated by IcoMoon.io -->
<!DOCTYPE svg PUBLIC "-//W3C//DTD SVG 1.1//EN" "http://www.w3.org/Graphics/SVG/1.1/DTD/svg11.dtd">
<svg version="1.1" xmlns="http://www.w3.org/2000/svg" xmlns:xlink="http://www.w3.org/1999/xlink" width="80" height="80" viewBox="0 0 80 80">
<path d="M39.375 36.406c7.5 2.031 15.625 5 15.625 14.531 0 6.875-5.156 10.625-11.719 11.875v7.188h-10v-7.188c-6.406-1.406-11.719-5.469-12.188-12.813h7.344c0.313 3.906 2.969 7.031 9.844 7.031 7.344 0 9.063-3.594 9.063-5.938 0-3.125-1.719-6.094-10-8.125-9.375-2.188-15.625-6.094-15.625-13.75 0-6.406 5.156-10.625 11.563-12.031v-7.188h10v7.344c7.031 1.719 10.625 6.875 10.781 12.656h-7.344c-0.156-4.219-2.5-7.031-8.438-7.031-5.625 0-8.906 2.656-8.906 6.25 0 3.125 2.5 5.156 10 7.188z"></path>
</svg>
