<?xml version="1.0" encoding="utf-8"?>
<!-- Generated by IcoMoon.io -->
<!DOCTYPE svg PUBLIC "-//W3C//DTD SVG 1.1//EN" "http://www.w3.org/Graphics/SVG/1.1/DTD/svg11.dtd">
<svg version="1.1" xmlns="http://www.w3.org/2000/svg" xmlns:xlink="http://www.w3.org/1999/xlink" width="80" height="80" viewBox="0 0 80 80">
<path d="M52.018 25.551l-5.074-5.072-25.376 25.37c-4.204 4.203-4.204 11.019 0 15.222s11.020 4.203 15.225 0l30.451-30.446c7.009-7.005 7.009-18.364 0-25.369-7.005-7.008-18.368-7.008-25.374 0l-31.971 31.967c-0.023 0.024-0.048 0.045-0.068 0.066-9.774 9.773-9.774 25.614 0 35.383 9.77 9.77 25.615 9.77 35.39 0 0.021-0.021 0.040-0.044 0.064-0.068l0.003 0.003 21.823-21.82-5.077-5.072-21.823 21.817c-0.023 0.021-0.044 0.045-0.066 0.066-6.959 6.958-18.28 6.958-25.24 0-6.958-6.956-6.958-18.275 0-25.233 0.024-0.024 0.047-0.045 0.069-0.066l-0.004-0.005 31.975-31.966c4.196-4.198 11.027-4.198 15.225 0 4.196 4.198 4.196 11.027 0 15.222l-30.451 30.445c-1.401 1.4-3.676 1.4-5.076 0-1.398-1.397-1.398-3.674 0-5.072l25.375-25.374z"></path>
</svg>
