<?xml version="1.0" encoding="utf-8"?>
<!-- Generated by IcoMoon.io -->
<!DOCTYPE svg PUBLIC "-//W3C//DTD SVG 1.1//EN" "http://www.w3.org/Graphics/SVG/1.1/DTD/svg11.dtd">
<svg version="1.1" xmlns="http://www.w3.org/2000/svg" xmlns:xlink="http://www.w3.org/1999/xlink" width="80" height="80" viewBox="0 0 80 80">
<path d="M6.719 41.719c0-10.156 8.125-18.438 18.281-18.438h35c7.344 0 13.281 6.094 13.281 13.438s-5.938 13.281-13.281 13.281h-28.281c-4.531 0-8.438-3.75-8.438-8.281s3.906-8.438 8.438-8.438h25v6.719h-25.313c-1.875 0-1.875 3.281 0 3.281h28.594c3.594 0 6.719-2.969 6.719-6.563s-3.125-6.719-6.719-6.719h-35c-6.406 0-11.719 5.313-11.719 11.719s5.313 11.563 11.719 11.563h31.719v6.719h-31.719c-10.156 0-18.281-8.125-18.281-18.281z"></path>
</svg>
