<?xml version="1.0" encoding="utf-8"?>
<!-- Generated by IcoMoon.io -->
<!DOCTYPE svg PUBLIC "-//W3C//DTD SVG 1.1//EN" "http://www.w3.org/Graphics/SVG/1.1/DTD/svg11.dtd">
<svg version="1.1" xmlns="http://www.w3.org/2000/svg" xmlns:xlink="http://www.w3.org/1999/xlink" width="80" height="80" viewBox="0 0 80 80">
<path d="M62.5 25.781c2.656 4.063 4.219 9.063 4.219 14.219 0 14.688-12.031 26.719-26.719 26.719v10l-13.281-13.438 13.281-13.281v10c11.094 0 20-8.906 20-20 0-3.438-0.938-6.563-2.344-9.375zM40 20c-11.094 0-20 8.906-20 20 0 3.438 0.781 6.563 2.344 9.375l-4.844 4.844c-2.656-4.063-4.219-9.063-4.219-14.219 0-14.688 12.031-26.719 26.719-26.719v-10l13.281 13.438-13.281 13.281v-10z"></path>
</svg>
