<?xml version="1.0" encoding="utf-8"?>
<!-- Generated by IcoMoon.io -->
<!DOCTYPE svg PUBLIC "-//W3C//DTD SVG 1.1//EN" "http://www.w3.org/Graphics/SVG/1.1/DTD/svg11.dtd">
<svg version="1.1" xmlns="http://www.w3.org/2000/svg" xmlns:xlink="http://www.w3.org/1999/xlink" width="80" height="80" viewBox="0 0 80 80">
<path d="M20 40c0-1.875 1.406-3.281 3.281-3.281s3.438 1.406 3.438 3.281-1.563 3.281-3.438 3.281-3.281-1.406-3.281-3.281zM60 40c0 1.875-1.406 3.281-3.281 3.281s-3.438-1.406-3.438-3.281 1.563-3.281 3.438-3.281 3.281 1.406 3.281 3.281zM36.719 10h3.281c16.563 0 30 13.438 30 30s-13.438 30-30 30-30-13.438-30-30c0-9.844 4.688-18.438 12.031-23.906v-0.156l22.656 22.656-4.688 4.688-18.125-17.969c-3.281 4.063-5.156 9.063-5.156 14.688 0 12.969 10.313 23.281 23.281 23.281s23.281-10.313 23.281-23.281c0-11.719-8.75-21.563-20-23.125v6.406h-6.563v-13.281zM36.719 56.719c0-1.875 1.406-3.438 3.281-3.438s3.281 1.563 3.281 3.438-1.406 3.281-3.281 3.281-3.281-1.406-3.281-3.281z"></path>
</svg>
