<?xml version="1.0" encoding="utf-8"?>
<!-- Generated by IcoMoon.io -->
<!DOCTYPE svg PUBLIC "-//W3C//DTD SVG 1.1//EN" "http://www.w3.org/Graphics/SVG/1.1/DTD/svg11.dtd">
<svg version="1.1" xmlns="http://www.w3.org/2000/svg" xmlns:xlink="http://www.w3.org/1999/xlink" width="80" height="80" viewBox="0 0 80 80">
<path d="M40 80c22.091 0 40-17.909 40-40s-17.909-40-40-40-40 17.909-40 40 17.909 40 40 40zM40 7.5c17.949 0 32.5 14.551 32.5 32.5s-14.551 32.5-32.5 32.5-32.5-14.551-32.5-32.5 14.551-32.5 32.5-32.5z"></path>
<path d="M30 32.5c0 1.381-1.119 2.5-2.5 2.5s-2.5-1.119-2.5-2.5c0-1.381 1.119-2.5 2.5-2.5s2.5 1.119 2.5 2.5z"></path>
<path d="M27.5 25c4.142 0 7.5 3.358 7.5 7.5s-3.358 7.5-7.5 7.5-7.5-3.358-7.5-7.5 3.358-7.5 7.5-7.5zM27.5 20c-6.892 0-12.5 5.608-12.5 12.5s5.608 12.5 12.5 12.5 12.5-5.608 12.5-12.5-5.608-12.5-12.5-12.5v0z"></path>
<path d="M55 32.5c0 1.381-1.119 2.5-2.5 2.5s-2.5-1.119-2.5-2.5c0-1.381 1.119-2.5 2.5-2.5s2.5 1.119 2.5 2.5z"></path>
<path d="M52.5 25c4.142 0 7.5 3.358 7.5 7.5s-3.358 7.5-7.5 7.5-7.5-3.358-7.5-7.5 3.358-7.5 7.5-7.5zM52.5 20c-6.893 0-12.5 5.608-12.5 12.5s5.607 12.5 12.5 12.5 12.5-5.608 12.5-12.5-5.607-12.5-12.5-12.5v0z"></path>
<path d="M30 55h20v5h-20v-5z"></path>
</svg>
