<?xml version="1.0" encoding="utf-8"?>
<!-- Generated by IcoMoon.io -->
<!DOCTYPE svg PUBLIC "-//W3C//DTD SVG 1.1//EN" "http://www.w3.org/Graphics/SVG/1.1/DTD/svg11.dtd">
<svg version="1.1" xmlns="http://www.w3.org/2000/svg" xmlns:xlink="http://www.w3.org/1999/xlink" width="80" height="80" viewBox="0 0 80 80">
<path d="M0 10h10v50h-10zM15 10h5v50h-5zM25 10h5v50h-5zM40 10h5v50h-5zM60 10h5v50h-5zM75 10h5v50h-5zM50 10h2.5v50h-2.5zM35 10h2.5v50h-2.5zM67.5 10h2.5v50h-2.5zM0 65h5v5h-5zM15 65h5v5h-5zM25 65h5v5h-5zM50 65h5v5h-5zM75 65h5v5h-5zM60 65h10v5h-10zM35 65h10v5h-10z"></path>
</svg>
