<?xml version="1.0" encoding="utf-8"?>
<!-- Generated by IcoMoon.io -->
<!DOCTYPE svg PUBLIC "-//W3C//DTD SVG 1.1//EN" "http://www.w3.org/Graphics/SVG/1.1/DTD/svg11.dtd">
<svg version="1.1" xmlns="http://www.w3.org/2000/svg" xmlns:xlink="http://www.w3.org/1999/xlink" width="80" height="80" viewBox="0 0 80 80">
<path d="M40 8.328c-14.594 0-25.844 12.219-32.219 24.188-3.594 6.734-6.109 14.109-7.266 21.656-0.125 0.859-0.25 1.719-0.344 2.594-0.047 0.469-0.094 0.938-0.125 1.406-0.047 0.594-0.016 0.781 0.297 1.281 0.937 1.516 2.047 2.922 3.297 4.188 2.563 2.625 5.672 4.641 8.969 6.203 7.516 3.547 16 4.828 24.25 5.109 8.516 0.281 17.266-0.422 25.406-3.078 6.953-2.266 13.656-6.219 17.516-12.609 0.422-0.688 0.125-1.703 0.047-2.5-0.094-0.953-0.219-1.891-0.375-2.828-0.281-1.844-0.656-3.656-1.109-5.469-0.906-3.688-2.141-7.313-3.641-10.797-5.438-12.625-15.5-26.094-29.813-28.875-1.609-0.313-3.25-0.469-4.891-0.469zM40.5 69.547c-8.922 0-18.641-0.797-26.672-5.094-3.125-1.672-6.313-4.094-7.813-7.422-0.438-0.969-0.281-1.344-0.078-2.484 0.141-0.734 0.203-1.453 0.531-2.141 0.453-0.953 0.922-1.891 1.406-2.828 1.641-3.172 3.406-6.312 5.453-9.266 1.016-1.453 2.094-2.891 3.344-4.141 0.875-0.875 1.938-1.813 3.172-2.109 3.781-0.906 6.672 3.469 8.969 5.672 1.109 1.063 2.594 2.266 4.25 2.063 1.141-0.141 2.156-1.031 2.969-1.766 2.766-2.484 4.984-5.563 7.281-8.453 1.141-1.422 2.266-2.859 3.5-4.219 0.828-0.922 1.734-1.969 2.844-2.563 1.984-1.078 4.516 1.141 5.891 2.281 2.344 1.953 4.422 4.234 6.406 6.547 1.891 2.203 3.719 4.438 5.328 6.859 2.484 3.75 4.641 7.75 6.609 11.797 0.422 0.875 0.563 1.469 0.719 2.438 0.094 0.531 0.297 1.141 0.219 1.688-0.109 0.766-0.641 1.594-1.031 2.219-0.938 1.484-2.203 2.766-3.594 3.844-5.828 4.516-13.719 6.016-20.891 6.688-2.938 0.281-5.875 0.391-8.812 0.391z"></path>
</svg>
