<?xml version="1.0" encoding="utf-8"?>
<!-- Generated by IcoMoon.io -->
<!DOCTYPE svg PUBLIC "-//W3C//DTD SVG 1.1//EN" "http://www.w3.org/Graphics/SVG/1.1/DTD/svg11.dtd">
<svg version="1.1" xmlns="http://www.w3.org/2000/svg" xmlns:xlink="http://www.w3.org/1999/xlink" width="80" height="80" viewBox="0 0 80 80">
<path d="M47.656 42.344c1.406-1.406 2.344-3.438 2.344-5.625 0-5.469-4.531-10-10-10s-10 4.531-10 10h5c0-2.813 2.188-5 5-5s5 2.188 5 5c0 1.406-0.469 2.5-1.406 3.438l-3.125 3.125c-1.563 1.563-3.125 3.906-3.125 6.719h5.313c0-1.563 1.25-3.75 2.813-5.313 0.938-0.938 2.188-2.344 2.188-2.344zM43.125 59.844v-6.406h-6.25v6.406h6.25zM52.188 13.281c2.5 0 4.531 2.031 4.531 4.531v51.094c0 2.5-2.031 4.375-4.531 4.375h-24.375c-2.5 0-4.531-1.875-4.531-4.375v-51.094c0-2.5 2.031-4.531 4.531-4.531h5.469v-6.563h13.438v6.563h5.469z"></path>
</svg>
