<?xml version="1.0" encoding="utf-8"?>
<!-- Generated by IcoMoon.io -->
<!DOCTYPE svg PUBLIC "-//W3C//DTD SVG 1.1//EN" "http://www.w3.org/Graphics/SVG/1.1/DTD/svg11.dtd">
<svg version="1.1" xmlns="http://www.w3.org/2000/svg" xmlns:xlink="http://www.w3.org/1999/xlink" width="80" height="80" viewBox="0 0 80 80">
<path d="M31.578 35.047c1.016-0.734 1.5-1.953 1.5-3.641 0-0.938-0.156-1.703-0.484-2.297-0.344-0.594-0.781-1.063-1.359-1.391-0.563-0.344-1.203-0.578-1.938-0.703-0.719-0.141-1.484-0.203-2.266-0.203h-8.234v9.344h8.906c1.563 0.016 2.859-0.359 3.875-1.109z"></path>
<path d="M32.969 43.484c-1.156-0.875-2.688-1.312-4.594-1.312h-9.578v11.016h9.391c0.875 0 1.688-0.078 2.469-0.25s1.484-0.438 2.078-0.844c0.594-0.391 1.078-0.922 1.437-1.594s0.531-1.547 0.531-2.594c0-2.062-0.578-3.531-1.734-4.422z"></path>
<path d="M72.5 0h-65c-4.125 0-7.5 3.375-7.5 7.5v65c0 4.125 3.375 7.5 7.5 7.5h65c4.125 0 7.5-3.375 7.5-7.5v-65c0-4.125-3.375-7.5-7.5-7.5zM52.438 21.047h16.203v3.953h-16.203v-3.953zM42.313 53.625c-0.781 1.484-1.844 2.688-3.156 3.625-1.328 0.938-2.844 1.625-4.547 2.078-1.688 0.453-3.438 0.672-5.219 0.672h-19.391v-39.984h18.844c1.906 0 3.641 0.172 5.219 0.5 1.563 0.328 2.906 0.891 4.031 1.656 1.109 0.766 1.984 1.781 2.609 3.047 0.609 1.25 0.922 2.828 0.922 4.688 0 2.016-0.453 3.687-1.375 5.031s-2.266 2.438-4.078 3.297c2.469 0.703 4.281 1.953 5.484 3.719 1.219 1.781 1.813 3.922 1.813 6.422 0.016 2.047-0.375 3.797-1.156 5.25zM74.953 47.438h-20.891c0 2.281 0.781 4.453 1.969 5.625 1.188 1.156 2.906 1.75 5.141 1.75 1.609 0 2.984-0.406 4.156-1.219 1.156-0.813 1.859-1.672 2.125-2.563h7c-1.125 3.484-2.828 5.969-5.156 7.469-2.297 1.5-5.109 2.25-8.375 2.25-2.281 0-4.328-0.375-6.172-1.094-1.844-0.734-3.375-1.766-4.672-3.109-1.266-1.344-2.234-2.953-2.938-4.828-0.687-1.859-1.047-3.937-1.047-6.172 0-2.172 0.359-4.188 1.063-6.063 0.719-1.875 1.719-3.5 3.031-4.844 1.312-1.359 2.875-2.438 4.688-3.234 1.813-0.781 3.812-1.172 6.031-1.172 2.453 0 4.594 0.469 6.438 1.438 1.828 0.953 3.328 2.234 4.516 3.844s2.016 3.438 2.547 5.5c0.516 2.031 0.688 4.172 0.547 6.422z"></path>
<path d="M60.672 36.234c-1.266 0-2.328 0.219-3.156 0.656s-1.5 0.969-2.016 1.594c-0.516 0.641-0.859 1.313-1.063 2.047-0.203 0.703-0.328 1.344-0.359 1.906h12.938c-0.188-2.031-0.891-3.531-1.828-4.578-0.969-1.063-2.562-1.625-4.516-1.625z"></path>
</svg>
