<?xml version="1.0" encoding="utf-8"?>
<!-- Generated by IcoMoon.io -->
<!DOCTYPE svg PUBLIC "-//W3C//DTD SVG 1.1//EN" "http://www.w3.org/Graphics/SVG/1.1/DTD/svg11.dtd">
<svg version="1.1" xmlns="http://www.w3.org/2000/svg" xmlns:xlink="http://www.w3.org/1999/xlink" width="80" height="80" viewBox="0 0 80 80">
<path d="M23.203 16.031c2.359 0 4.484 0.203 6.422 0.625 1.938 0.406 3.578 1.094 4.969 2.031 1.375 0.938 2.438 2.188 3.219 3.75 0.75 1.547 1.125 3.484 1.125 5.781 0 2.484-0.563 4.547-1.688 6.203-1.141 1.656-2.797 3-5.016 4.063 3.031 0.875 5.266 2.406 6.766 4.578 1.5 2.188 2.219 4.813 2.219 7.906 0 2.5-0.484 4.641-1.438 6.453-0.969 1.828-2.281 3.313-3.891 4.453-1.625 1.156-3.5 2-5.594 2.547-2.078 0.547-4.219 0.828-6.437 0.828h-23.859v-49.219h23.203zM21.797 35.906c1.922 0 3.516-0.453 4.766-1.375 1.25-0.906 1.844-2.406 1.844-4.469 0-1.141-0.203-2.094-0.609-2.828-0.422-0.734-0.969-1.313-1.672-1.719-0.688-0.422-1.469-0.703-2.391-0.859-0.891-0.172-1.828-0.25-2.781-0.25h-10.125v11.5h10.969zM22.391 56.859c1.063 0 2.078-0.094 3.031-0.313 0.969-0.219 1.828-0.547 2.547-1.047 0.719-0.484 1.328-1.125 1.766-1.969 0.438-0.828 0.641-1.891 0.641-3.187 0-2.531-0.719-4.344-2.141-5.438-1.422-1.078-3.313-1.609-5.656-1.609h-11.75v13.547h11.563z"></path>
<path d="M56.656 56.688c1.469 1.438 3.578 2.156 6.328 2.156 1.969 0 3.688-0.5 5.109-1.5s2.281-2.063 2.609-3.156h8.625c-1.391 4.297-3.484 7.344-6.359 9.188-2.828 1.844-6.297 2.781-10.313 2.781-2.813 0-5.328-0.453-7.594-1.344-2.266-0.906-4.156-2.172-5.75-3.828-1.547-1.656-2.766-3.625-3.625-5.938-0.844-2.297-1.281-4.844-1.281-7.594 0-2.672 0.438-5.156 1.312-7.453 0.891-2.313 2.109-4.297 3.734-5.969s3.531-3 5.781-3.969c2.234-0.969 4.703-1.453 7.438-1.453 3.016 0 5.656 0.578 7.922 1.766 2.25 1.172 4.109 2.75 5.563 4.719s2.484 4.234 3.125 6.766c0.641 2.531 0.859 5.172 0.688 7.938h-25.734c0 2.797 0.938 5.469 2.422 6.891zM67.891 37.969c-1.156-1.281-3.141-1.984-5.531-1.984-1.563 0-2.859 0.266-3.891 0.797-1.016 0.531-1.844 1.188-2.484 1.969-0.625 0.781-1.063 1.625-1.313 2.516-0.25 0.859-0.406 1.656-0.453 2.344h15.938c-0.234-2.5-1.094-4.344-2.266-5.641z"></path>
<path d="M52.219 20h19.953v4.859h-19.953v-4.859z"></path>
</svg>
