<?xml version="1.0" encoding="utf-8"?>
<!-- Generated by IcoMoon.io -->
<!DOCTYPE svg PUBLIC "-//W3C//DTD SVG 1.1//EN" "http://www.w3.org/Graphics/SVG/1.1/DTD/svg11.dtd">
<svg version="1.1" xmlns="http://www.w3.org/2000/svg" xmlns:xlink="http://www.w3.org/1999/xlink" width="80" height="80" viewBox="0 0 80 80">
<path d="M80.117 62.5c0-22.5-20-17.5-20-35 0-1.45-0.14-2.689-0.394-3.744-1.315-8.83-7.2-15.916-14.826-18.075 0.068-0.308 0.103-0.627 0.103-0.954 0-2.6-2.25-4.727-5-4.727s-5 2.127-5 4.727c0 0.327 0.036 0.646 0.103 0.954-8.552 2.422-14.915 11.039-15.098 21.363-0.003 0.15-0.005 0.302-0.005 0.457 0 17.5-20 12.5-20 35 0 5.955 13.327 10.937 31.17 12.194 1.682 3.157 5.004 5.306 8.83 5.306s7.149-2.15 8.83-5.306c17.842-1.257 31.17-6.239 31.17-12.194 0-0.018-0.002-0.036-0.002-0.053l0.119 0.053zM64.55 66.726c-4.237 1.13-9.231 1.943-14.591 2.394-0.446-5.111-4.733-9.121-9.959-9.121s-9.514 4.010-9.959 9.121c-5.36-0.451-10.355-1.264-14.591-2.394-5.83-1.556-8.618-3.296-9.638-4.226 1.020-0.93 3.808-2.67 9.638-4.226 6.779-1.809 15.498-2.805 24.55-2.805s17.771 0.996 24.55 2.805c5.83 1.556 8.618 3.296 9.638 4.226-1.020 0.93-3.808 2.67-9.638 4.226z"></path>
</svg>
