<?xml version="1.0" encoding="utf-8"?>
<!-- Generated by IcoMoon.io -->
<!DOCTYPE svg PUBLIC "-//W3C//DTD SVG 1.1//EN" "http://www.w3.org/Graphics/SVG/1.1/DTD/svg11.dtd">
<svg version="1.1" xmlns="http://www.w3.org/2000/svg" xmlns:xlink="http://www.w3.org/1999/xlink" width="80" height="80" viewBox="0 0 80 80">
<path d="M10 25v50c0 2.75 2.25 5 5 5h45c2.75 0 5-2.25 5-5v-50h-55zM25 70h-5v-35h5v35zM35 70h-5v-35h5v35zM45 70h-5v-35h5v35zM55 70h-5v-35h5v35z"></path>
<path d="M66.25 10h-16.25v-6.25c0-2.063-1.688-3.75-3.75-3.75h-17.5c-2.063 0-3.75 1.688-3.75 3.75v6.25h-16.25c-2.063 0-3.75 1.688-3.75 3.75v6.25h65v-6.25c0-2.063-1.688-3.75-3.75-3.75zM45 10h-15v-4.937h15v4.937z"></path>
</svg>
