<?xml version="1.0" encoding="utf-8"?>
<!-- Generated by IcoMoon.io -->
<!DOCTYPE svg PUBLIC "-//W3C//DTD SVG 1.1//EN" "http://www.w3.org/Graphics/SVG/1.1/DTD/svg11.dtd">
<svg version="1.1" xmlns="http://www.w3.org/2000/svg" xmlns:xlink="http://www.w3.org/1999/xlink" width="80" height="80" viewBox="0 0 80 80">
<path d="M5 0h30v5h-30zM45 0h30v5h-30zM74.375 25h-4.375v-20h-20v20h-20v-20h-20v20h-4.375c-3.094 0-5.625 2.531-5.625 5.625v43.75c0 3.094 2.531 5.625 5.625 5.625h23.75c3.094 0 5.625-2.531 5.625-5.625v-29.375h10v29.375c0 3.094 2.531 5.625 5.625 5.625h23.75c3.094 0 5.625-2.531 5.625-5.625v-43.75c0-3.094-2.531-5.625-5.625-5.625zM27.188 75h-19.375c-1.547 0-2.813-1.125-2.813-2.5s1.266-2.5 2.813-2.5h19.375c1.547 0 2.813 1.125 2.813 2.5s-1.266 2.5-2.813 2.5zM42.5 40h-5c-1.375 0-2.5-1.125-2.5-2.5s1.125-2.5 2.5-2.5h5c1.375 0 2.5 1.125 2.5 2.5s-1.125 2.5-2.5 2.5zM72.188 75h-19.375c-1.547 0-2.813-1.125-2.813-2.5s1.266-2.5 2.813-2.5h19.375c1.547 0 2.813 1.125 2.813 2.5s-1.266 2.5-2.813 2.5z"></path>
</svg>
