<?xml version="1.0" encoding="utf-8"?>
<!-- Generated by IcoMoon.io -->
<!DOCTYPE svg PUBLIC "-//W3C//DTD SVG 1.1//EN" "http://www.w3.org/Graphics/SVG/1.1/DTD/svg11.dtd">
<svg version="1.1" xmlns="http://www.w3.org/2000/svg" xmlns:xlink="http://www.w3.org/1999/xlink" width="80" height="80" viewBox="0 0 80 80">
<path d="M68.284 11.716c-7.555-7.555-17.6-11.716-28.284-11.716s-20.729 4.161-28.284 11.716c-7.555 7.555-11.716 17.6-11.716 28.284s4.161 20.729 11.716 28.284c7.555 7.555 17.6 11.716 28.284 11.716s20.729-4.161 28.284-11.716c7.555-7.555 11.716-17.6 11.716-28.284s-4.161-20.729-11.716-28.284zM70 40c0 6.47-2.059 12.468-5.556 17.373l-41.818-41.818c4.906-3.497 10.903-5.556 17.373-5.556 16.542 0 30 13.458 30 30zM10 40c0-6.47 2.059-12.468 5.556-17.373l41.818 41.818c-4.906 3.497-10.904 5.555-17.374 5.555-16.542 0-30-13.458-30-30z"></path>
</svg>
