<?xml version="1.0" encoding="utf-8"?>
<!-- Generated by IcoMoon.io -->
<!DOCTYPE svg PUBLIC "-//W3C//DTD SVG 1.1//EN" "http://www.w3.org/Graphics/SVG/1.1/DTD/svg11.dtd">
<svg version="1.1" xmlns="http://www.w3.org/2000/svg" xmlns:xlink="http://www.w3.org/1999/xlink" width="80" height="80" viewBox="0 0 80 80">
<path d="M74.828 30h-4.485c-2.747 0-5.155-2.324-5.343-5v0c0-14.271-11.505-25-25.874-25h-13.111c-14.36 0-26.004 11.563-26.015 25.833v28.344c0 14.27 11.654 25.823 26.014 25.823h28.002c14.371 0 25.984-11.553 25.984-25.823v-18.311c0-2.852-2.3-5.866-5.172-5.866zM25 20h15c2.75 0 5 2.25 5 5s-2.25 5-5 5h-15c-2.75 0-5-2.25-5-5s2.25-5 5-5zM55 60h-30c-2.75 0-5-2.25-5-5s2.25-5 5-5h30c2.75 0 5 2.25 5 5s-2.25 5-5 5z"></path>
</svg>
