<?xml version="1.0" encoding="utf-8"?>
<!-- Generated by IcoMoon.io -->
<!DOCTYPE svg PUBLIC "-//W3C//DTD SVG 1.1//EN" "http://www.w3.org/Graphics/SVG/1.1/DTD/svg11.dtd">
<svg version="1.1" xmlns="http://www.w3.org/2000/svg" xmlns:xlink="http://www.w3.org/1999/xlink" width="80" height="80" viewBox="0 0 80 80">
<path d="M72.5 0h-65c-4.125 0-7.5 3.375-7.5 7.5v65c0 4.125 3.375 7.5 7.5 7.5h65c4.125 0 7.5-3.375 7.5-7.5v-65c0-4.125-3.375-7.5-7.5-7.5zM70 50.625c0 10.703-8.703 19.375-19.484 19.375h-21c-10.781 0-19.516-8.672-19.516-19.375v-21.25c0-10.703 8.734-19.375 19.516-19.375h9.828c10.781 0 19.406 8.047 19.406 18.75 0.141 2 1.953 3.75 4 3.75h3.359c2.156 0 3.875 2.266 3.875 4.406v13.719z"></path>
<path d="M55 50c0 2.75-2.25 5-5 5h-20c-2.75 0-5-2.25-5-5v0c0-2.75 2.25-5 5-5h20c2.75 0 5 2.25 5 5v0z"></path>
<path d="M45 30c0 2.75-2.25 5-5 5h-10c-2.75 0-5-2.25-5-5v0c0-2.75 2.25-5 5-5h10c2.75 0 5 2.25 5 5v0z"></path>
</svg>
