<?xml version="1.0" encoding="utf-8"?>
<!-- Generated by IcoMoon.io -->
<!DOCTYPE svg PUBLIC "-//W3C//DTD SVG 1.1//EN" "http://www.w3.org/Graphics/SVG/1.1/DTD/svg11.dtd">
<svg version="1.1" xmlns="http://www.w3.org/2000/svg" xmlns:xlink="http://www.w3.org/1999/xlink" width="80" height="80" viewBox="0 0 80 80">
<path d="M30 0v7.5c5.741 0 11.306 1.123 16.54 3.337 5.060 2.14 9.606 5.206 13.512 9.111s6.971 8.452 9.111 13.512c2.214 5.235 3.337 10.8 3.337 16.54h7.5c0-27.614-22.386-50-50-50z"></path>
<path d="M30 15v7.5c7.345 0 14.251 2.86 19.445 8.055s8.055 12.1 8.055 19.445h7.5c0-19.33-15.67-35-35-35z"></path>
<path d="M37.5 30l-5 5-17.5 5-15 32.5 1.982 1.982 18.188-18.188c-0.11-0.413-0.17-0.847-0.17-1.295 0-2.761 2.239-5 5-5s5 2.239 5 5-2.239 5-5 5c-0.448 0-0.881-0.060-1.294-0.17l-18.188 18.188 1.982 1.982 32.5-15 5-17.5 5-5-12.5-12.5z"></path>
</svg>
