<?xml version="1.0" encoding="utf-8"?>
<!-- Generated by IcoMoon.io -->
<!DOCTYPE svg PUBLIC "-//W3C//DTD SVG 1.1//EN" "http://www.w3.org/Graphics/SVG/1.1/DTD/svg11.dtd">
<svg version="1.1" xmlns="http://www.w3.org/2000/svg" xmlns:xlink="http://www.w3.org/1999/xlink" width="80" height="80" viewBox="0 0 80 80">
<path d="M42.969 54.375l-6.25-6.406v12.656zM36.719 19.375v12.656l6.25-6.406zM52.344 25.625l-14.375 14.375 14.375 14.375-19.063 18.906h-3.281v-25.313l-15.313 15.313-4.688-4.688 18.594-18.594-18.594-18.594 4.688-4.688 15.313 15.313v-25.313h3.281zM65.156 22.344c3.125 5 4.844 11.094 4.844 17.344 0 6.563-1.875 12.5-5.156 17.656l-3.906-3.906c2.031-4.063 3.281-8.594 3.281-13.438s-1.25-9.375-3.281-13.438zM47.5 40l7.656-7.656c0.938 2.344 1.563 5 1.563 7.656s-0.625 5.469-1.563 7.813z"></path>
</svg>
