<?xml version="1.0" encoding="utf-8"?>
<!-- Generated by IcoMoon.io -->
<!DOCTYPE svg PUBLIC "-//W3C//DTD SVG 1.1//EN" "http://www.w3.org/Graphics/SVG/1.1/DTD/svg11.dtd">
<svg version="1.1" xmlns="http://www.w3.org/2000/svg" xmlns:xlink="http://www.w3.org/1999/xlink" width="80" height="80" viewBox="0 0 80 80">
<path d="M10 45c0.938 0 1.719 0.781 1.719 1.719s-0.781 1.563-1.719 1.563-1.719-0.625-1.719-1.563 0.781-1.719 1.719-1.719zM20 56.719c1.875 0 3.281 1.406 3.281 3.281s-1.406 3.281-3.281 3.281-3.281-1.406-3.281-3.281 1.406-3.281 3.281-3.281zM33.281 68.281c0.938 0 1.719 0.781 1.719 1.719s-0.781 1.719-1.719 1.719-1.563-0.781-1.563-1.719 0.625-1.719 1.563-1.719zM10 31.719c0.938 0 1.719 0.625 1.719 1.563s-0.781 1.719-1.719 1.719-1.719-0.781-1.719-1.719 0.781-1.563 1.719-1.563zM20 43.281c1.875 0 3.281 1.563 3.281 3.438s-1.406 3.281-3.281 3.281-3.281-1.406-3.281-3.281 1.406-3.438 3.281-3.438zM70 45c0.938 0 1.719 0.781 1.719 1.719s-0.781 1.563-1.719 1.563-1.719-0.625-1.719-1.563 0.781-1.719 1.719-1.719zM33.281 56.719c1.875 0 3.438 1.406 3.438 3.281s-1.563 3.281-3.438 3.281-3.281-1.406-3.281-3.281 1.406-3.281 3.281-3.281zM8.281 17.5l4.219-4.219 54.219 54.219-4.375 4.219-12.5-12.656c0.156 0.313 0.156 0.625 0.156 0.938 0 1.875-1.406 3.281-3.281 3.281s-3.438-1.406-3.438-3.281 1.563-3.281 3.438-3.281c0.313 0 0.625 0 0.938 0.156l-9.375-9.375c-0.313 2.344-2.5 4.219-5 4.219-2.813 0-5-2.188-5-5 0-2.5 1.875-4.688 4.219-5l-9.375-9.375c0.156 0.313 0.156 0.625 0.156 0.938 0 1.875-1.406 3.438-3.281 3.438s-3.281-1.563-3.281-3.438 1.406-3.281 3.281-3.281l0.938 0.156zM46.719 68.281c0.938 0 1.563 0.781 1.563 1.719s-0.625 1.719-1.563 1.719-1.719-0.781-1.719-1.719 0.781-1.719 1.719-1.719zM60 23.281c-1.875 0-3.281-1.406-3.281-3.281s1.406-3.281 3.281-3.281 3.281 1.406 3.281 3.281-1.406 3.281-3.281 3.281zM60 36.719c-1.875 0-3.281-1.563-3.281-3.438s1.406-3.281 3.281-3.281 3.281 1.406 3.281 3.281-1.406 3.438-3.281 3.438zM60 50c-1.875 0-3.281-1.406-3.281-3.281s1.406-3.438 3.281-3.438 3.281 1.563 3.281 3.438-1.406 3.281-3.281 3.281zM33.281 23.281c-1.875 0-3.281-1.406-3.281-3.281s1.406-3.281 3.281-3.281 3.438 1.406 3.438 3.281-1.563 3.281-3.438 3.281zM70 35c-0.938 0-1.719-0.781-1.719-1.719s0.781-1.563 1.719-1.563 1.719 0.625 1.719 1.563-0.781 1.719-1.719 1.719zM33.281 11.719c-0.938 0-1.563-0.781-1.563-1.719s0.625-1.719 1.563-1.719 1.719 0.781 1.719 1.719-0.781 1.719-1.719 1.719zM46.719 11.719c-0.938 0-1.719-0.781-1.719-1.719s0.781-1.719 1.719-1.719 1.563 0.781 1.563 1.719-0.625 1.719-1.563 1.719zM45.938 38.281c-2.188-0.313-3.906-2.031-4.219-4.219v-0.781c0-2.813 2.188-5 5-5s5 2.188 5 5-2.188 5-5 5h-0.781zM46.719 23.281c-1.875 0-3.438-1.406-3.438-3.281s1.563-3.281 3.438-3.281 3.281 1.406 3.281 3.281-1.406 3.281-3.281 3.281z"></path>
</svg>
