<?xml version="1.0" encoding="utf-8"?>
<!-- Generated by IcoMoon.io -->
<!DOCTYPE svg PUBLIC "-//W3C//DTD SVG 1.1//EN" "http://www.w3.org/Graphics/SVG/1.1/DTD/svg11.dtd">
<svg version="1.1" xmlns="http://www.w3.org/2000/svg" xmlns:xlink="http://www.w3.org/1999/xlink" width="80" height="80" viewBox="0 0 80 80">
<path d="M46.719 28.281c2.813 0 5 2.188 5 5s-2.188 5-5 5-5-2.188-5-5 2.188-5 5-5zM46.719 41.719c2.813 0 5 2.188 5 5s-2.188 5-5 5-5-2.188-5-5 2.188-5 5-5zM33.281 56.719c1.875 0 3.438 1.406 3.438 3.281s-1.563 3.281-3.438 3.281-3.281-1.406-3.281-3.281 1.406-3.281 3.281-3.281zM33.281 28.281c2.813 0 5 2.188 5 5s-2.188 5-5 5-5-2.188-5-5 2.188-5 5-5zM46.719 68.281c0.938 0 1.563 0.781 1.563 1.719s-0.625 1.719-1.563 1.719-1.719-0.781-1.719-1.719 0.781-1.719 1.719-1.719zM46.719 56.719c1.875 0 3.281 1.406 3.281 3.281s-1.406 3.281-3.281 3.281-3.438-1.406-3.438-3.281 1.563-3.281 3.438-3.281zM70 45c0.938 0 1.719 0.781 1.719 1.719s-0.781 1.563-1.719 1.563-1.719-0.625-1.719-1.563 0.781-1.719 1.719-1.719zM60 16.719c1.875 0 3.281 1.406 3.281 3.281s-1.406 3.281-3.281 3.281-3.281-1.406-3.281-3.281 1.406-3.281 3.281-3.281zM60 30c1.875 0 3.281 1.406 3.281 3.281s-1.406 3.438-3.281 3.438-3.281-1.563-3.281-3.438 1.406-3.281 3.281-3.281zM60 56.719c1.875 0 3.281 1.406 3.281 3.281s-1.406 3.281-3.281 3.281-3.281-1.406-3.281-3.281 1.406-3.281 3.281-3.281zM60 43.281c1.875 0 3.281 1.563 3.281 3.438s-1.406 3.281-3.281 3.281-3.281-1.406-3.281-3.281 1.406-3.438 3.281-3.438zM33.281 41.719c2.813 0 5 2.188 5 5s-2.188 5-5 5-5-2.188-5-5 2.188-5 5-5zM33.281 23.281c-1.875 0-3.281-1.406-3.281-3.281s1.406-3.281 3.281-3.281 3.438 1.406 3.438 3.281-1.563 3.281-3.438 3.281zM33.281 11.719c-0.938 0-1.563-0.781-1.563-1.719s0.625-1.719 1.563-1.719 1.719 0.781 1.719 1.719-0.781 1.719-1.719 1.719zM33.281 68.281c0.938 0 1.719 0.781 1.719 1.719s-0.781 1.719-1.719 1.719-1.563-0.781-1.563-1.719 0.625-1.719 1.563-1.719zM10 45c0.938 0 1.719 0.781 1.719 1.719s-0.781 1.563-1.719 1.563-1.719-0.625-1.719-1.563 0.781-1.719 1.719-1.719zM46.719 11.719c-0.938 0-1.719-0.781-1.719-1.719s0.781-1.719 1.719-1.719 1.563 0.781 1.563 1.719-0.625 1.719-1.563 1.719zM46.719 23.281c-1.875 0-3.438-1.406-3.438-3.281s1.563-3.281 3.438-3.281 3.281 1.406 3.281 3.281-1.406 3.281-3.281 3.281zM70 35c-0.938 0-1.719-0.781-1.719-1.719s0.781-1.563 1.719-1.563 1.719 0.625 1.719 1.563-0.781 1.719-1.719 1.719zM20 16.719c1.875 0 3.281 1.406 3.281 3.281s-1.406 3.281-3.281 3.281-3.281-1.406-3.281-3.281 1.406-3.281 3.281-3.281zM10 31.719c0.938 0 1.719 0.625 1.719 1.563s-0.781 1.719-1.719 1.719-1.719-0.781-1.719-1.719 0.781-1.563 1.719-1.563zM20 30c1.875 0 3.281 1.406 3.281 3.281s-1.406 3.438-3.281 3.438-3.281-1.563-3.281-3.438 1.406-3.281 3.281-3.281zM20 56.719c1.875 0 3.281 1.406 3.281 3.281s-1.406 3.281-3.281 3.281-3.281-1.406-3.281-3.281 1.406-3.281 3.281-3.281zM20 43.281c1.875 0 3.281 1.563 3.281 3.438s-1.406 3.281-3.281 3.281-3.281-1.406-3.281-3.281 1.406-3.438 3.281-3.438z"></path>
</svg>
