<?xml version="1.0" encoding="utf-8"?>
<!-- Generated by IcoMoon.io -->
<!DOCTYPE svg PUBLIC "-//W3C//DTD SVG 1.1//EN" "http://www.w3.org/Graphics/SVG/1.1/DTD/svg11.dtd">
<svg version="1.1" xmlns="http://www.w3.org/2000/svg" xmlns:xlink="http://www.w3.org/1999/xlink" width="80" height="80" viewBox="0 0 80 80">
<path d="M43.281 56.719c-1.875 0-3.281-1.563-3.281-3.438s1.406-3.281 3.281-3.281 3.438 1.406 3.438 3.281-1.563 3.438-3.438 3.438zM43.281 43.281c-1.875 0-3.281-1.406-3.281-3.281s1.406-3.281 3.281-3.281 3.438 1.406 3.438 3.281-1.563 3.281-3.438 3.281zM43.281 30c-1.875 0-3.281-1.406-3.281-3.281s1.406-3.438 3.281-3.438 3.438 1.563 3.438 3.438-1.563 3.281-3.438 3.281zM56.719 41.719c-0.938 0-1.719-0.781-1.719-1.719s0.781-1.719 1.719-1.719 1.563 0.781 1.563 1.719-0.625 1.719-1.563 1.719zM56.719 28.281c-0.938 0-1.719-0.625-1.719-1.563s0.781-1.719 1.719-1.719 1.563 0.781 1.563 1.719-0.625 1.563-1.563 1.563zM10 10h60v6.719h-60v-6.719zM56.719 55c-0.938 0-1.719-0.781-1.719-1.719s0.781-1.563 1.719-1.563 1.563 0.625 1.563 1.563-0.625 1.719-1.563 1.719zM30 56.719c-1.875 0-3.281-1.563-3.281-3.438s1.406-3.281 3.281-3.281 3.281 1.406 3.281 3.281-1.406 3.438-3.281 3.438zM16.719 45c-2.813 0-5-2.188-5-5s2.188-5 5-5 5 2.188 5 5-2.188 5-5 5zM16.719 31.719c-2.813 0-5-2.188-5-5s2.188-5 5-5 5 2.188 5 5-2.188 5-5 5zM10 70v-6.719h60v6.719h-60zM30 30c-1.875 0-3.281-1.406-3.281-3.281s1.406-3.438 3.281-3.438 3.281 1.563 3.281 3.438-1.406 3.281-3.281 3.281zM30 43.281c-1.875 0-3.281-1.406-3.281-3.281s1.406-3.281 3.281-3.281 3.281 1.406 3.281 3.281-1.406 3.281-3.281 3.281zM16.719 58.281c-2.813 0-5-2.188-5-5s2.188-5 5-5 5 2.188 5 5-2.188 5-5 5z"></path>
</svg>
