<?xml version="1.0" encoding="utf-8"?>
<!-- Generated by IcoMoon.io -->
<!DOCTYPE svg PUBLIC "-//W3C//DTD SVG 1.1//EN" "http://www.w3.org/Graphics/SVG/1.1/DTD/svg11.dtd">
<svg version="1.1" xmlns="http://www.w3.org/2000/svg" xmlns:xlink="http://www.w3.org/1999/xlink" width="80" height="80" viewBox="0 0 80 80">
<path d="M46.719 43.281c1.875 0 3.281 1.563 3.281 3.438s-1.406 3.281-3.281 3.281-3.438-1.406-3.438-3.281 1.563-3.438 3.438-3.438zM46.719 55c0.938 0 1.563 0.781 1.563 1.719s-0.625 1.563-1.563 1.563-1.719-0.625-1.719-1.563 0.781-1.719 1.719-1.719zM40 66.719c14.688 0 26.719-12.031 26.719-26.719s-12.031-26.719-26.719-26.719-26.719 12.031-26.719 26.719 12.031 26.719 26.719 26.719zM40 6.719c18.438 0 33.281 14.844 33.281 33.281s-14.844 33.281-33.281 33.281-33.281-14.844-33.281-33.281 14.844-33.281 33.281-33.281zM56.719 31.719c0.938 0 1.563 0.625 1.563 1.563s-0.625 1.719-1.563 1.719-1.719-0.781-1.719-1.719 0.781-1.563 1.719-1.563zM56.719 45c0.938 0 1.563 0.781 1.563 1.719s-0.625 1.563-1.563 1.563-1.719-0.625-1.719-1.563 0.781-1.719 1.719-1.719zM46.719 25c-0.938 0-1.719-0.781-1.719-1.719s0.781-1.563 1.719-1.563 1.563 0.625 1.563 1.563-0.625 1.719-1.563 1.719zM46.719 30c1.875 0 3.281 1.406 3.281 3.281s-1.406 3.438-3.281 3.438-3.438-1.563-3.438-3.438 1.563-3.281 3.438-3.281zM33.281 25c-0.938 0-1.563-0.781-1.563-1.719s0.625-1.563 1.563-1.563 1.719 0.625 1.719 1.563-0.781 1.719-1.719 1.719zM23.281 45c0.938 0 1.719 0.781 1.719 1.719s-0.781 1.563-1.719 1.563-1.563-0.625-1.563-1.563 0.625-1.719 1.563-1.719zM33.281 55c0.938 0 1.719 0.781 1.719 1.719s-0.781 1.563-1.719 1.563-1.563-0.625-1.563-1.563 0.625-1.719 1.563-1.719zM23.281 31.719c0.938 0 1.719 0.625 1.719 1.563s-0.781 1.719-1.719 1.719-1.563-0.781-1.563-1.719 0.625-1.563 1.563-1.563zM33.281 43.281c1.875 0 3.438 1.563 3.438 3.438s-1.563 3.281-3.438 3.281-3.281-1.406-3.281-3.281 1.406-3.438 3.281-3.438zM33.281 30c1.875 0 3.438 1.406 3.438 3.281s-1.563 3.438-3.438 3.438-3.281-1.563-3.281-3.438 1.406-3.281 3.281-3.281z"></path>
</svg>
