<?xml version="1.0" encoding="utf-8"?>
<!-- Generated by IcoMoon.io -->
<!DOCTYPE svg PUBLIC "-//W3C//DTD SVG 1.1//EN" "http://www.w3.org/Graphics/SVG/1.1/DTD/svg11.dtd">
<svg version="1.1" xmlns="http://www.w3.org/2000/svg" xmlns:xlink="http://www.w3.org/1999/xlink" width="80" height="80" viewBox="0 0 80 80">
<path d="M55.303 37.863c2.93-3.48 4.697-7.969 4.697-12.863 0-11.028-8.972-20-20-20h-25v70h30c11.028 0 20-8.972 20-20 0-7.262-3.89-13.633-9.697-17.137zM30 15h7.93c4.372 0 7.93 4.486 7.93 10s-3.557 10-7.93 10h-7.93v-20zM42.422 65h-12.422v-20h12.422c4.566 0 8.281 4.486 8.281 10s-3.715 10-8.281 10z"></path>
</svg>
