<?xml version="1.0" encoding="utf-8"?>
<!-- Generated by IcoMoon.io -->
<!DOCTYPE svg PUBLIC "-//W3C//DTD SVG 1.1//EN" "http://www.w3.org/Graphics/SVG/1.1/DTD/svg11.dtd">
<svg version="1.1" xmlns="http://www.w3.org/2000/svg" xmlns:xlink="http://www.w3.org/1999/xlink" width="80" height="80" viewBox="0 0 80 80">
<path d="M70 10v65h-52.5c-4.143 0-7.5-3.358-7.5-7.5s3.357-7.5 7.5-7.5h47.5v-60h-50c-5.5 0-10 4.5-10 10v60c0 5.5 4.5 10 10 10h60v-70h-5z"></path>
<path d="M17.504 65v0c-0.001 0-0.003 0-0.004 0-1.381 0-2.5 1.119-2.5 2.5s1.119 2.5 2.5 2.5c0.001 0 0.003-0 0.004-0v0h47.491v-5h-47.491z"></path>
</svg>
