<?xml version="1.0" encoding="utf-8"?>
<!-- Generated by IcoMoon.io -->
<!DOCTYPE svg PUBLIC "-//W3C//DTD SVG 1.1//EN" "http://www.w3.org/Graphics/SVG/1.1/DTD/svg11.dtd">
<svg version="1.1" xmlns="http://www.w3.org/2000/svg" xmlns:xlink="http://www.w3.org/1999/xlink" width="80" height="80" viewBox="0 0 80 80">
<path d="M36.719 30v-6.719h6.563v6.719h-6.563zM36.719 16.719v-6.719h6.563v6.719h-6.563zM36.719 43.281v-6.563h6.563v6.563h-6.563zM50 16.719v-6.719h6.719v6.719h-6.719zM50 70v-6.719h6.719v6.719h-6.719zM63.281 10h6.719v60h-6.719v-60zM50 43.281v-6.563h6.719v6.563h-6.719zM36.719 56.719v-6.719h6.563v6.719h-6.563zM10 30v-6.719h6.719v6.719h-6.719zM10 56.719v-6.719h6.719v6.719h-6.719zM10 43.281v-6.563h6.719v6.563h-6.719zM36.719 70v-6.719h6.563v6.719h-6.563zM10 70v-6.719h6.719v6.719h-6.719zM23.281 43.281v-6.563h6.719v6.563h-6.719zM23.281 16.719v-6.719h6.719v6.719h-6.719zM10 16.719v-6.719h6.719v6.719h-6.719zM23.281 70v-6.719h6.719v6.719h-6.719z"></path>
</svg>
