<?xml version="1.0" encoding="utf-8"?>
<!-- Generated by IcoMoon.io -->
<!DOCTYPE svg PUBLIC "-//W3C//DTD SVG 1.1//EN" "http://www.w3.org/Graphics/SVG/1.1/DTD/svg11.dtd">
<svg version="1.1" xmlns="http://www.w3.org/2000/svg" xmlns:xlink="http://www.w3.org/1999/xlink" width="80" height="80" viewBox="0 0 80 80">
<path d="M63.281 56.719v-6.719h6.719v6.719h-6.719zM63.281 70v-6.719h6.719v6.719h-6.719zM43.281 10v26.719h26.719v6.563h-26.719v26.719h-6.563v-26.719h-26.719v-6.563h26.719v-26.719h6.563zM50 70v-6.719h6.719v6.719h-6.719zM63.281 10h6.719v6.719h-6.719v-6.719zM63.281 30v-6.719h6.719v6.719h-6.719zM56.719 10v6.719h-6.719v-6.719h6.719zM16.719 10v6.719h-6.719v-6.719h6.719zM30 10v6.719h-6.719v-6.719h6.719zM10 56.719v-6.719h6.719v6.719h-6.719zM16.719 23.281v6.719h-6.719v-6.719h6.719zM23.281 70v-6.719h6.719v6.719h-6.719zM10 70v-6.719h6.719v6.719h-6.719z"></path>
</svg>
