<?xml version="1.0" encoding="utf-8"?>
<!-- Generated by IcoMoon.io -->
<!DOCTYPE svg PUBLIC "-//W3C//DTD SVG 1.1//EN" "http://www.w3.org/Graphics/SVG/1.1/DTD/svg11.dtd">
<svg version="1.1" xmlns="http://www.w3.org/2000/svg" xmlns:xlink="http://www.w3.org/1999/xlink" width="80" height="80" viewBox="0 0 80 80">
<path d="M75 20h-20v-5c0-2.75-2.25-5-5-5h-20c-2.75 0-5 2.25-5 5v5h-20c-2.75 0-5 2.25-5 5v45c0 2.75 2.25 5 5 5h70c2.75 0 5-2.25 5-5v-45c0-2.75-2.25-5-5-5zM30 15.009c0.003-0.003 0.006-0.006 0.009-0.009h19.982c0.003 0.003 0.006 0.006 0.009 0.009v4.991h-20v-4.991zM75 40h-10v7.5c0 1.375-1.125 2.5-2.5 2.5h-5c-1.375 0-2.5-1.125-2.5-2.5v-7.5h-30v7.5c0 1.375-1.125 2.5-2.5 2.5h-5c-1.375 0-2.5-1.125-2.5-2.5v-7.5h-10v-5h70v5z"></path>
</svg>
