<?xml version="1.0" encoding="utf-8"?>
<!-- Generated by IcoMoon.io -->
<!DOCTYPE svg PUBLIC "-//W3C//DTD SVG 1.1//EN" "http://www.w3.org/Graphics/SVG/1.1/DTD/svg11.dtd">
<svg version="1.1" xmlns="http://www.w3.org/2000/svg" xmlns:xlink="http://www.w3.org/1999/xlink" width="80" height="80" viewBox="0 0 80 80">
<path d="M40 60c11.094 0 20-8.906 20-20s-8.906-20-20-20c-2.969 0-5.781 0.781-8.281 1.875 6.875 3.125 11.563 10 11.563 18.125s-4.688 15-11.563 18.125c2.5 1.094 5.313 1.875 8.281 1.875zM66.719 28.906l10.938 11.094-10.938 11.094v15.625h-15.625l-11.094 10.938-11.094-10.938h-15.625v-15.625l-10.938-11.094 10.938-11.094v-15.625h15.625l11.094-10.938 11.094 10.938h15.625v15.625z"></path>
</svg>
