<?xml version="1.0" encoding="utf-8"?>
<!-- Generated by IcoMoon.io -->
<!DOCTYPE svg PUBLIC "-//W3C//DTD SVG 1.1//EN" "http://www.w3.org/Graphics/SVG/1.1/DTD/svg11.dtd">
<svg version="1.1" xmlns="http://www.w3.org/2000/svg" xmlns:xlink="http://www.w3.org/1999/xlink" width="80" height="80" viewBox="0 0 80 80">
<path d="M40 15c-4.292 0-8.437 0.677-12.32 2.011-3.649 1.254-6.899 3.027-9.658 5.269-5.173 4.203-8.022 9.608-8.022 15.22 0 3.148 0.874 6.201 2.598 9.074 1.778 2.962 4.452 5.671 7.733 7.832 2.372 1.562 3.967 4.058 4.389 6.867 0.141 0.936 0.229 1.882 0.263 2.822 0.584-0.484 1.152-1.004 1.709-1.561 1.887-1.887 4.436-2.929 7.070-2.929 0.419 0 0.841 0.026 1.262 0.080 1.639 0.208 3.312 0.314 4.975 0.314 4.292 0 8.437-0.677 12.32-2.011 3.649-1.254 6.899-3.027 9.658-5.269 5.173-4.203 8.022-9.608 8.022-15.22s-2.849-11.017-8.022-15.22c-2.76-2.242-6.009-4.015-9.658-5.269-3.883-1.334-8.028-2.011-12.32-2.011zM40 5v0c22.091 0 40 14.551 40 32.5s-17.909 32.5-40 32.5c-2.122 0-4.204-0.135-6.236-0.394-8.592 8.592-18.848 10.133-28.764 10.359v-2.103c5.354-2.623 10-7.402 10-12.862 0-0.762-0.059-1.51-0.169-2.242-9.047-5.958-14.831-15.059-14.831-25.258 0-17.949 17.909-32.5 40-32.5z"></path>
</svg>
