<?xml version="1.0" encoding="utf-8"?>
<!-- Generated by IcoMoon.io -->
<!DOCTYPE svg PUBLIC "-//W3C//DTD SVG 1.1//EN" "http://www.w3.org/Graphics/SVG/1.1/DTD/svg11.dtd">
<svg version="1.1" xmlns="http://www.w3.org/2000/svg" xmlns:xlink="http://www.w3.org/1999/xlink" width="90" height="80" viewBox="0 0 90 80">
<path d="M85 70.404c0 3.555 2.033 6.633 5 8.139v1.245c-0.83 0.114-1.677 0.174-2.539 0.174-5.313 0-10.105-2.229-13.494-5.802-2.049 0.545-4.219 0.84-6.467 0.84-12.426 0-22.5-8.954-22.5-20s10.074-20 22.5-20c12.426 0 22.5 8.954 22.5 20 0 4.324-1.544 8.328-4.168 11.599-0.533 1.158-0.832 2.446-0.832 3.805zM18.022 17.28c-5.173 4.203-8.022 9.608-8.022 15.22 0 3.148 0.874 6.201 2.598 9.074 1.778 2.962 4.452 5.671 7.733 7.832 2.372 1.562 3.967 4.058 4.389 6.867 0.141 0.936 0.229 1.882 0.263 2.822 0.584-0.484 1.152-1.004 1.709-1.561 1.887-1.887 4.436-2.929 7.070-2.929 0.419 0 0.841 0.026 1.262 0.080 1.637 0.208 3.308 0.314 4.968 0.314v10c-2.119-0-4.2-0.136-6.23-0.394-8.592 8.592-18.848 10.133-28.764 10.359v-2.103c5.354-2.623 10-7.402 10-12.862 0-0.762-0.059-1.51-0.169-2.242-9.047-5.958-14.831-15.059-14.831-25.258 0-17.949 17.909-32.5 40-32.5 21.755 0 39.453 14.11 39.987 31.681-3.211-1.431-6.706-2.299-10.333-2.545-0.901-4.38-3.547-8.501-7.676-11.856-2.76-2.242-6.009-4.015-9.658-5.269-3.883-1.334-8.028-2.011-12.32-2.011s-8.437 0.677-12.32 2.011c-3.649 1.254-6.899 3.027-9.658 5.269z"></path>
</svg>
