<?xml version="1.0" encoding="utf-8"?>
<!-- Generated by IcoMoon.io -->
<!DOCTYPE svg PUBLIC "-//W3C//DTD SVG 1.1//EN" "http://www.w3.org/Graphics/SVG/1.1/DTD/svg11.dtd">
<svg version="1.1" xmlns="http://www.w3.org/2000/svg" xmlns:xlink="http://www.w3.org/1999/xlink" width="90" height="80" viewBox="0 0 90 80">
<path d="M37.5 0v0c20.711 0 37.5 13.587 37.5 30.347s-16.789 30.347-37.5 30.347c-1.989 0-3.941-0.127-5.846-0.368-8.055 8.023-17.357 9.462-26.654 9.673v-1.964c5.020-2.45 9.063-6.911 9.063-12.010 0-0.711-0.056-1.41-0.159-2.093-8.481-5.564-13.904-14.062-13.904-23.585 0-16.76 16.789-30.347 37.5-30.347zM77.813 68.022c0 4.37 2.837 8.195 7.188 10.295v1.683c-8.057-0.181-15.452-1.414-22.433-8.291-1.652 0.207-3.343 0.316-5.067 0.316-7.459 0-14.329-2.012-19.814-5.394 11.303-0.040 21.973-3.66 30.065-10.209 4.079-3.301 7.296-7.174 9.564-11.512 2.404-4.599 3.622-9.499 3.622-14.563 0-0.816-0.035-1.628-0.098-2.435 5.67 4.682 9.161 11.064 9.161 18.1 0 8.163-4.7 15.447-12.050 20.216-0.089 0.586-0.138 1.184-0.138 1.794z"></path>
</svg>
