<?xml version="1.0" encoding="utf-8"?>
<!-- Generated by IcoMoon.io -->
<!DOCTYPE svg PUBLIC "-//W3C//DTD SVG 1.1//EN" "http://www.w3.org/Graphics/SVG/1.1/DTD/svg11.dtd">
<svg version="1.1" xmlns="http://www.w3.org/2000/svg" xmlns:xlink="http://www.w3.org/1999/xlink" width="90" height="80" viewBox="0 0 90 80">
<path d="M37.5 10c-3.958 0-7.78 0.621-11.358 1.846-3.353 1.148-6.337 2.768-8.867 4.816-4.691 3.796-7.274 8.656-7.274 13.685 0 2.812 0.786 5.543 2.338 8.117 1.616 2.683 4.055 5.14 7.052 7.106 2.378 1.56 3.979 4.059 4.403 6.871 0.070 0.468 0.127 0.938 0.17 1.409 0.213-0.197 0.424-0.4 0.634-0.609 1.886-1.878 4.429-2.915 7.056-2.915 0.418 0 0.837 0.026 1.257 0.080 1.512 0.192 3.057 0.289 4.59 0.289 3.958 0 7.78-0.621 11.358-1.846 3.354-1.148 6.337-2.768 8.867-4.816 4.691-3.796 7.274-8.656 7.274-13.685s-2.583-9.889-7.274-13.685c-2.53-2.048-5.514-3.668-8.867-4.816-3.578-1.225-7.4-1.846-11.358-1.846zM37.5 0v0c20.711 0 37.5 13.587 37.5 30.347s-16.789 30.347-37.5 30.347c-1.989 0-3.941-0.127-5.846-0.368-8.055 8.023-17.357 9.462-26.654 9.673v-1.964c5.020-2.45 9.063-6.911 9.063-12.010 0-0.711-0.056-1.41-0.159-2.093-8.481-5.564-13.904-14.062-13.904-23.585 0-16.76 16.789-30.347 37.5-30.347zM77.813 68.022c0 4.37 2.837 8.195 7.188 10.295v1.683c-8.057-0.181-15.452-1.414-22.433-8.291-1.652 0.207-3.343 0.316-5.067 0.316-7.459 0-14.329-2.012-19.814-5.394 11.303-0.040 21.973-3.66 30.065-10.209 4.079-3.301 7.296-7.174 9.564-11.512 2.404-4.599 3.622-9.499 3.622-14.563 0-0.816-0.035-1.628-0.098-2.435 5.67 4.682 9.161 11.064 9.161 18.1 0 8.163-4.7 15.447-12.050 20.216-0.089 0.586-0.138 1.184-0.138 1.794z"></path>
</svg>
