<?xml version="1.0" encoding="utf-8"?>
<!-- Generated by IcoMoon.io -->
<!DOCTYPE svg PUBLIC "-//W3C//DTD SVG 1.1//EN" "http://www.w3.org/Graphics/SVG/1.1/DTD/svg11.dtd">
<svg version="1.1" xmlns="http://www.w3.org/2000/svg" xmlns:xlink="http://www.w3.org/1999/xlink" width="90" height="80" viewBox="0 0 90 80">
<path d="M85 70.404c0 3.555 2.033 6.633 5 8.139v1.245c-0.83 0.114-1.677 0.174-2.539 0.174-5.313 0-10.105-2.229-13.494-5.802-2.049 0.545-4.219 0.84-6.467 0.84-12.426 0-22.5-8.954-22.5-20s10.074-20 22.5-20c12.426 0 22.5 8.954 22.5 20 0 4.324-1.544 8.328-4.168 11.599-0.533 1.158-0.832 2.446-0.832 3.805zM40 0c21.755 0 39.453 14.11 39.987 31.681-3.842-1.713-8.093-2.619-12.487-2.619-7.466 0-14.517 2.613-19.855 7.358-5.535 4.92-8.583 11.518-8.583 18.58 0 3.49 0.746 6.866 2.167 9.983-0.408 0.010-0.818 0.017-1.229 0.017-2.122 0-4.204-0.135-6.236-0.394-8.592 8.592-18.848 10.133-28.764 10.359v-2.103c5.354-2.623 10-7.402 10-12.862 0-0.762-0.059-1.51-0.169-2.242-9.047-5.958-14.831-15.059-14.831-25.258 0-17.949 17.909-32.5 40-32.5z"></path>
</svg>
