<?xml version="1.0" encoding="utf-8"?>
<!-- Generated by IcoMoon.io -->
<!DOCTYPE svg PUBLIC "-//W3C//DTD SVG 1.1//EN" "http://www.w3.org/Graphics/SVG/1.1/DTD/svg11.dtd">
<svg version="1.1" xmlns="http://www.w3.org/2000/svg" xmlns:xlink="http://www.w3.org/1999/xlink" width="80" height="80" viewBox="0 0 80 80">
<path d="M34.688 29.375c0-8.906 7.031-16.094 15.938-16.094s16.094 7.188 16.094 16.094-7.188 15.938-16.094 15.938-15.938-7.031-15.938-15.938zM42.656 60c0-3.75 2.969-6.719 6.719-6.719s6.563 2.969 6.563 6.719-2.813 6.719-6.563 6.719-6.719-2.969-6.719-6.719zM13.281 47.969c0-5.938 4.844-10.625 10.781-10.625s10.625 4.688 10.625 10.625-4.688 10.625-10.625 10.625-10.781-4.688-10.781-10.625z"></path>
</svg>
