<?xml version="1.0" encoding="utf-8"?>
<!-- Generated by IcoMoon.io -->
<!DOCTYPE svg PUBLIC "-//W3C//DTD SVG 1.1//EN" "http://www.w3.org/Graphics/SVG/1.1/DTD/svg11.dtd">
<svg version="1.1" xmlns="http://www.w3.org/2000/svg" xmlns:xlink="http://www.w3.org/1999/xlink" width="80" height="80" viewBox="0 0 80 80">
<path d="M80 45v-5h-15.101c-0.458-5.679-2.483-10.861-5.599-15.020h12.652l5.473-21.894-4.851-1.213-4.527 18.106h-13.647c-0.070-0.054-0.14-0.107-0.211-0.161 0.524-1.524 0.81-3.158 0.81-4.859 0-8.263-6.715-14.961-15-14.961s-15 6.698-15 14.961c0 1.701 0.285 3.335 0.81 4.859-0.070 0.053-0.141 0.106-0.211 0.161h-13.647l-4.527-18.106-4.851 1.213 5.473 21.894h12.652c-3.116 4.158-5.141 9.341-5.599 15.019h-15.101v5h15.107c0.297 3.567 1.212 6.938 2.628 9.98h-9.687l-5.473 21.894 4.851 1.213 4.527-18.106h8.778c4.585 6.096 11.515 9.98 19.27 9.98s14.685-3.884 19.27-9.98h8.778l4.527 18.106 4.851-1.213-5.473-21.894h-9.687c1.416-3.042 2.331-6.413 2.628-9.98h15.107z"></path>
</svg>
