<?xml version="1.0" encoding="utf-8"?>
<!-- Generated by IcoMoon.io -->
<!DOCTYPE svg PUBLIC "-//W3C//DTD SVG 1.1//EN" "http://www.w3.org/Graphics/SVG/1.1/DTD/svg11.dtd">
<svg version="1.1" xmlns="http://www.w3.org/2000/svg" xmlns:xlink="http://www.w3.org/1999/xlink" width="80" height="80" viewBox="0 0 80 80">
<path d="M46.719 40v-6.719h-13.438v6.719h13.438zM46.719 53.281v-6.563h-13.438v6.563h13.438zM66.719 26.719v6.563h-7.031c0.156 1.094 0.313 2.344 0.313 3.438v3.281h6.719v6.719h-6.719v3.281c0 1.094-0.156 2.188-0.313 3.281h7.031v6.719h-9.375c-3.438 5.938-10 10-17.344 10s-13.906-4.063-17.344-10h-9.375v-6.719h7.031c-0.156-1.094-0.313-2.188-0.313-3.281v-3.281h-6.719v-6.719h6.719v-3.281c0-1.094 0.156-2.344 0.313-3.438h-7.031v-6.563h9.375c1.563-2.656 3.594-4.844 6.094-6.563l-5.469-5.469 4.688-4.688 7.344 7.188c1.563-0.313 3.125-0.469 4.688-0.469s3.125 0.156 4.688 0.469l7.344-7.188 4.688 4.688-5.469 5.469c2.5 1.719 4.531 3.906 6.094 6.563h9.375z"></path>
</svg>
