<?xml version="1.0" encoding="utf-8"?>
<!-- Generated by IcoMoon.io -->
<!DOCTYPE svg PUBLIC "-//W3C//DTD SVG 1.1//EN" "http://www.w3.org/Graphics/SVG/1.1/DTD/svg11.dtd">
<svg version="1.1" xmlns="http://www.w3.org/2000/svg" xmlns:xlink="http://www.w3.org/1999/xlink" width="80" height="80" viewBox="0 0 80 80">
<path d="M80 33.536c0-15.697-4.593-28.433-10.272-28.533 0.023-0 0.045-0.002 0.068-0.002h-6.48c0 0-15.219 11.432-37.127 15.918-0.669 3.538-1.096 7.756-1.096 12.617s0.427 9.079 1.096 12.617c21.908 4.486 37.127 15.918 37.127 15.918h6.48c-0.023 0-0.045-0.002-0.068-0.002 5.679-0.101 10.272-12.836 10.272-28.533zM67.564 57.754c-0.733 0-1.526-0.761-1.933-1.215-0.987-1.099-1.937-2.809-2.749-4.947-1.817-4.784-2.818-11.196-2.818-18.057s1.001-13.273 2.818-18.056c0.812-2.138 1.763-3.849 2.749-4.947 0.407-0.454 1.2-1.215 1.933-1.215s1.526 0.761 1.933 1.215c0.987 1.099 1.937 2.809 2.749 4.947 1.817 4.784 2.818 11.196 2.818 18.056s-1.001 13.273-2.818 18.057c-0.812 2.138-1.763 3.849-2.749 4.947-0.407 0.454-1.2 1.215-1.933 1.215zM19.673 33.536c0-4.059 0.298-8.002 0.863-11.648-3.701 0.512-6.949 0.807-10.964 0.807-5.239 0-5.239 0-5.239 0l-4.333 7.397v6.888l4.333 7.397c0 0 0 0 5.239 0 4.015 0 7.263 0.295 10.964 0.807-0.565-3.646-0.863-7.59-0.863-11.648zM28.762 50.17l-10-1.915 6.394 25.121c0.331 1.3 1.621 1.956 2.866 1.457l9.262-3.707c1.246-0.498 1.744-1.872 1.109-3.053l-9.631-17.903zM67.564 42.87c-0.283 0-0.588-0.293-0.745-0.468-0.38-0.423-0.747-1.083-1.060-1.907-0.7-1.844-1.086-4.315-1.086-6.959s0.386-5.115 1.086-6.959c0.313-0.824 0.679-1.483 1.060-1.907 0.157-0.175 0.463-0.468 0.745-0.468s0.588 0.293 0.745 0.468c0.38 0.423 0.747 1.083 1.059 1.907 0.7 1.844 1.086 4.315 1.086 6.959s-0.386 5.115-1.086 6.959c-0.313 0.824-0.679 1.483-1.059 1.907-0.157 0.175-0.462 0.468-0.745 0.468z"></path>
</svg>
