<?xml version="1.0" encoding="utf-8"?>
<!-- Generated by IcoMoon.io -->
<!DOCTYPE svg PUBLIC "-//W3C//DTD SVG 1.1//EN" "http://www.w3.org/Graphics/SVG/1.1/DTD/svg11.dtd">
<svg version="1.1" xmlns="http://www.w3.org/2000/svg" xmlns:xlink="http://www.w3.org/1999/xlink" width="80" height="80" viewBox="0 0 80 80">
<path d="M46.719 23.281v-6.563h-13.438v6.563h13.438zM66.719 23.281c3.594 0 6.563 3.125 6.563 6.719v10c0 3.594-2.969 6.719-6.563 6.719h-20v-6.719h-13.438v6.719h-20c-3.75 0-6.563-2.969-6.563-6.719v-10c0-3.594 2.969-6.719 6.563-6.719h13.281v-6.563l6.719-6.719h13.281l6.719 6.719v6.563h13.438zM33.281 53.281h13.438v-3.281h23.281v13.281c0 3.75-2.969 6.719-6.719 6.719h-46.563c-3.75 0-6.719-2.969-6.719-6.719v-13.281h23.281v3.281z"></path>
</svg>
