<?xml version="1.0" encoding="utf-8"?>
<!-- Generated by IcoMoon.io -->
<!DOCTYPE svg PUBLIC "-//W3C//DTD SVG 1.1//EN" "http://www.w3.org/Graphics/SVG/1.1/DTD/svg11.dtd">
<svg version="1.1" xmlns="http://www.w3.org/2000/svg" xmlns:xlink="http://www.w3.org/1999/xlink" width="80" height="80" viewBox="0 0 80 80">
<path d="M20 40h10l-13.281 13.281-13.438-13.281h10c0-14.688 12.031-26.719 26.719-26.719 5.156 0 10.156 1.563 14.219 4.219l-4.844 4.844c-2.813-1.563-5.938-2.344-9.375-2.344-11.094 0-20 8.906-20 20zM63.281 26.719l13.438 13.281h-10c0 14.688-12.031 26.719-26.719 26.719-5.156 0-10.156-1.563-14.219-4.219l4.844-4.844c2.813 1.563 5.938 2.344 9.375 2.344 11.094 0 20-8.906 20-20h-10z"></path>
</svg>
