<?xml version="1.0" encoding="utf-8"?>
<!-- Generated by IcoMoon.io -->
<!DOCTYPE svg PUBLIC "-//W3C//DTD SVG 1.1//EN" "http://www.w3.org/Graphics/SVG/1.1/DTD/svg11.dtd">
<svg version="1.1" xmlns="http://www.w3.org/2000/svg" xmlns:xlink="http://www.w3.org/1999/xlink" width="80" height="80" viewBox="0 0 80 80">
<path d="M60 30c5.469 0 10 4.531 10 10v5.156c0 3.594-2.969 6.563-6.563 6.563-1.719 0-3.281-0.625-4.531-1.875l-7.188-7.188-7.188 7.188c-2.5 2.5-6.719 2.5-9.219 0l-7.031-7.188-7.188 7.188c-1.25 1.25-2.813 1.875-4.531 1.875-3.594 0-6.563-2.969-6.563-6.563v-5.156c0-5.469 4.531-10 10-10h16.719v-6.719h6.563v6.719h16.719zM55.313 53.281c2.188 2.188 5 3.438 8.125 3.438 2.5 0 4.688-0.781 6.563-2.031v15.313c0 1.875-1.406 3.281-3.281 3.281h-53.438c-1.875 0-3.281-1.406-3.281-3.281v-15.313c1.875 1.25 4.063 2.031 6.563 2.031 3.125 0 5.938-1.25 8.125-3.438l3.594-3.594 3.594 3.594c4.375 4.375 11.875 4.375 16.25 0l3.594-3.594zM40 20c-3.594 0-6.719-3.125-6.719-6.719 0-1.25 0.469-2.5 1.094-3.438l5.625-9.844 5.625 9.844c0.625 0.938 1.094 2.188 1.094 3.438 0 3.594-2.969 6.719-6.719 6.719z"></path>
</svg>
