<?xml version="1.0" encoding="utf-8"?>
<!-- Generated by IcoMoon.io -->
<!DOCTYPE svg PUBLIC "-//W3C//DTD SVG 1.1//EN" "http://www.w3.org/Graphics/SVG/1.1/DTD/svg11.dtd">
<svg version="1.1" xmlns="http://www.w3.org/2000/svg" xmlns:xlink="http://www.w3.org/1999/xlink" width="80" height="80" viewBox="0 0 80 80">
<path d="M30 5h-25c-2.75 0-5 2.25-5 5v25c0 2.75 2.25 5 5 5h25c2.75 0 5-2.25 5-5v-25c0-2.75-2.25-5-5-5zM30 25h-25v-5h25v5zM70 5h-25c-2.75 0-5 2.25-5 5v65c0 2.75 2.25 5 5 5h25c2.75 0 5-2.25 5-5v-65c0-2.75-2.25-5-5-5zM70 50h-25v-5h25v5zM70 35h-25v-5h25v5zM30 45h-25c-2.75 0-5 2.25-5 5v25c0 2.75 2.25 5 5 5h25c2.75 0 5-2.25 5-5v-25c0-2.75-2.25-5-5-5zM30 65h-10v10h-5v-10h-10v-5h10v-10h5v10h10v5z"></path>
</svg>
