<?xml version="1.0" encoding="utf-8"?>
<!-- Generated by IcoMoon.io -->
<!DOCTYPE svg PUBLIC "-//W3C//DTD SVG 1.1//EN" "http://www.w3.org/Graphics/SVG/1.1/DTD/svg11.dtd">
<svg version="1.1" xmlns="http://www.w3.org/2000/svg" xmlns:xlink="http://www.w3.org/1999/xlink" width="80" height="80" viewBox="0 0 80 80">
<path d="M40 30c-5.313 0-10.469 0.781-15.313 2.344v10.313c0 1.25-0.781 2.656-1.875 3.125-3.281 1.563-6.25 3.594-8.906 6.094-0.625 0.625-1.406 0.938-2.344 0.938s-1.719-0.313-2.344-0.938l-8.281-8.281c-0.625-0.625-0.938-1.406-0.938-2.344s0.313-1.719 0.938-2.344c10.156-9.688 23.906-15.625 39.063-15.625s28.906 5.938 39.063 15.625c0.625 0.625 0.938 1.406 0.938 2.344s-0.313 1.719-0.938 2.344l-8.281 8.281c-0.625 0.625-1.406 0.938-2.344 0.938s-1.719-0.313-2.344-0.938c-2.656-2.5-5.625-4.531-8.906-6.094-1.094-0.469-1.875-1.563-1.875-2.969v-10.313c-4.844-1.563-10-2.5-15.313-2.5z"></path>
</svg>
