<?xml version="1.0" encoding="utf-8"?>
<!-- Generated by IcoMoon.io -->
<!DOCTYPE svg PUBLIC "-//W3C//DTD SVG 1.1//EN" "http://www.w3.org/Graphics/SVG/1.1/DTD/svg11.dtd">
<svg version="1.1" xmlns="http://www.w3.org/2000/svg" xmlns:xlink="http://www.w3.org/1999/xlink" width="80" height="80" viewBox="0 0 80 80">
<path d="M23.75 47.5c0 8.975 7.275 16.25 16.25 16.25s16.25-7.275 16.25-16.25-7.275-16.25-16.25-16.25-16.25 7.275-16.25 16.25zM75 20h-17.5c-1.25-5-2.5-10-7.5-10h-20c-5 0-6.25 5-7.5 10h-17.5c-2.75 0-5 2.25-5 5v45c0 2.75 2.25 5 5 5h70c2.75 0 5-2.25 5-5v-45c0-2.75-2.25-5-5-5zM40 69.688c-12.254 0-22.188-9.933-22.188-22.188s9.934-22.188 22.188-22.188c12.254 0 22.188 9.934 22.188 22.188s-9.933 22.188-22.188 22.188zM75 35h-10v-5h10v5z"></path>
</svg>
