<?xml version="1.0" encoding="utf-8"?>
<!-- Generated by IcoMoon.io -->
<!DOCTYPE svg PUBLIC "-//W3C//DTD SVG 1.1//EN" "http://www.w3.org/Graphics/SVG/1.1/DTD/svg11.dtd">
<svg version="1.1" xmlns="http://www.w3.org/2000/svg" xmlns:xlink="http://www.w3.org/1999/xlink" width="80" height="80" viewBox="0 0 80 80">
<path d="M66.719 30v-6.719h-6.719v6.719h6.719zM66.719 60v-6.719h-6.719v6.719h6.719zM53.281 30v-6.719h-6.563v6.719h6.563zM53.281 60v-6.719h-6.563v6.719h6.563zM40 30v-6.719h-6.719v6.719h6.719zM40 60v-6.719h-6.719v6.719h6.719zM46.719 16.719h26.563v50h-26.563c0 3.594-3.125 6.563-6.719 6.563h-26.719c-3.594 0-6.563-2.969-6.563-6.563v-50c0-3.594 2.969-6.719 6.563-6.719h3.438v-3.281c0-1.875 1.406-3.438 3.281-3.438h13.281c1.875 0 3.438 1.563 3.438 3.438v3.281h3.281c3.594 0 6.719 3.125 6.719 6.719z"></path>
</svg>
