<?xml version="1.0" encoding="utf-8"?>
<!-- Generated by IcoMoon.io -->
<!DOCTYPE svg PUBLIC "-//W3C//DTD SVG 1.1//EN" "http://www.w3.org/Graphics/SVG/1.1/DTD/svg11.dtd">
<svg version="1.1" xmlns="http://www.w3.org/2000/svg" xmlns:xlink="http://www.w3.org/1999/xlink" width="80" height="80" viewBox="0 0 80 80">
<path d="M23.281 6.719v35c0-5.625 11.094-8.438 16.719-8.438s16.719 2.813 16.719 8.438v-35h-33.438zM56.719 0c3.594 0 6.563 3.125 6.563 6.719v46.563c0 3.594-2.969 6.719-6.563 6.719h-23.438l10 10-10 10v-6.719h-16.563v-6.563h16.563v-6.719h-10c-3.594 0-6.563-3.125-6.563-6.719v-46.563c0-3.594 2.969-6.719 6.563-6.719h33.438zM40 26.719c-3.594 0-6.563-3.125-6.563-6.719s2.969-6.719 6.563-6.719 6.719 3.125 6.719 6.719-3.125 6.719-6.719 6.719zM46.719 66.719h16.563v6.563h-16.563v-6.563z"></path>
</svg>
