<?xml version="1.0" encoding="utf-8"?>
<!-- Generated by IcoMoon.io -->
<!DOCTYPE svg PUBLIC "-//W3C//DTD SVG 1.1//EN" "http://www.w3.org/Graphics/SVG/1.1/DTD/svg11.dtd">
<svg version="1.1" xmlns="http://www.w3.org/2000/svg" xmlns:xlink="http://www.w3.org/1999/xlink" width="80" height="80" viewBox="0 0 80 80">
<path d="M32.813 72.5c5.368-9.268 10.664-18.607 16.094-27.813l12.188 21.094c-5.781 4.688-13.125 7.5-21.094 7.5-2.5 0-4.844-0.313-7.188-0.781zM8.125 50h32.344l-12.344 21.094c-9.531-3.594-16.875-11.406-20-21.094zM15.469 17.5c5.625 9.74 11.218 19.511 16.875 29.219h-25c-0.469-2.188-0.625-4.375-0.625-6.719 0-8.75 3.281-16.563 8.75-22.5zM72.656 33.281c0.469 2.188 0.625 4.375 0.625 6.719 0 8.75-3.281 16.563-8.75 22.5l-15.938-27.5-0.938-1.719h25zM71.875 30h-32.344l12.344-21.094c9.531 3.594 16.875 11.406 20 21.094zM31.406 35l-0.313 0.313-12.188-21.094c5.781-4.688 13.125-7.5 21.094-7.5 2.5 0 4.844 0.313 7.188 0.781z"></path>
</svg>
