<?xml version="1.0" encoding="utf-8"?>
<!-- Generated by IcoMoon.io -->
<!DOCTYPE svg PUBLIC "-//W3C//DTD SVG 1.1//EN" "http://www.w3.org/Graphics/SVG/1.1/DTD/svg11.dtd">
<svg version="1.1" xmlns="http://www.w3.org/2000/svg" xmlns:xlink="http://www.w3.org/1999/xlink" width="80" height="80" viewBox="0 0 80 80">
<path d="M66.719 46.719v-20h-10v6.563h-6.719v-6.563h-20v6.563h-6.719v-6.563h-10v20h53.438zM66.719 63.281v-6.563h-53.438v6.563h53.438zM30 13.281v6.719h20v-6.719h-20zM66.719 20c3.75 0 6.563 2.969 6.563 6.719v36.563c0 3.75-2.813 6.719-6.563 6.719h-53.438c-3.75 0-6.563-2.969-6.563-6.719v-36.563c0-3.75 2.813-6.719 6.563-6.719h10v-6.719c0-3.75 2.969-6.563 6.719-6.563h20c3.75 0 6.719 2.813 6.719 6.563v6.719h10z"></path>
</svg>
