<?xml version="1.0" encoding="utf-8"?>
<!-- Generated by IcoMoon.io -->
<!DOCTYPE svg PUBLIC "-//W3C//DTD SVG 1.1//EN" "http://www.w3.org/Graphics/SVG/1.1/DTD/svg11.dtd">
<svg version="1.1" xmlns="http://www.w3.org/2000/svg" xmlns:xlink="http://www.w3.org/1999/xlink" width="80" height="80" viewBox="0 0 80 80">
<path d="M3.281 33.281c20.156 0 36.719 16.406 36.719 36.719h-6.719c0-16.563-13.438-30-30-30v-6.719zM3.281 46.719c12.969 0 23.438 10.313 23.438 23.281h-6.719c0-9.219-7.5-16.719-16.719-16.719v-6.563zM3.281 60c5.469 0 10 4.531 10 10h-10v-10zM70 10c3.594 0 6.719 3.125 6.719 6.719v46.563c0 3.594-3.125 6.719-6.719 6.719h-23.281v-6.719h23.281v-46.563h-60v10h-6.719v-10c0-3.594 3.125-6.719 6.719-6.719h60z"></path>
</svg>
