<?xml version="1.0" encoding="utf-8"?>
<!-- Generated by IcoMoon.io -->
<!DOCTYPE svg PUBLIC "-//W3C//DTD SVG 1.1//EN" "http://www.w3.org/Graphics/SVG/1.1/DTD/svg11.dtd">
<svg version="1.1" xmlns="http://www.w3.org/2000/svg" xmlns:xlink="http://www.w3.org/1999/xlink" width="80" height="80" viewBox="0 0 80 80">
<path d="M40 46.719c3.594 0 6.719-3.125 6.719-6.719s-3.125-6.719-6.719-6.719-6.719 3.125-6.719 6.719 3.125 6.719 6.719 6.719zM40 26.719c7.344 0 13.281 5.938 13.281 13.281s-5.938 13.281-13.281 13.281-13.281-5.938-13.281-13.281 5.938-13.281 13.281-13.281zM63.281 63.281v-13.281h6.719v13.281c0 3.594-3.125 6.719-6.719 6.719h-13.281v-6.719h13.281zM63.281 10c3.594 0 6.719 3.125 6.719 6.719v13.281h-6.719v-13.281h-13.281v-6.719h13.281zM16.719 16.719v13.281h-6.719v-13.281c0-3.594 3.125-6.719 6.719-6.719h13.281v6.719h-13.281zM16.719 50v13.281h13.281v6.719h-13.281c-3.594 0-6.719-3.125-6.719-6.719v-13.281h6.719z"></path>
</svg>
