<?xml version="1.0" encoding="utf-8"?>
<!-- Generated by IcoMoon.io -->
<!DOCTYPE svg PUBLIC "-//W3C//DTD SVG 1.1//EN" "http://www.w3.org/Graphics/SVG/1.1/DTD/svg11.dtd">
<svg version="1.1" xmlns="http://www.w3.org/2000/svg" xmlns:xlink="http://www.w3.org/1999/xlink" width="80" height="80" viewBox="0 0 80 80">
<path d="M25 46.719h30c-2.5 5.938-8.281 10-15 10s-12.5-4.063-15-10zM40 63.281c10.625 0 19.567-7.002 22.344-16.719 0.313 0 0.625 0.156 0.938 0.156 3.594 0 6.719-3.125 6.719-6.719s-3.125-6.719-6.719-6.719c-0.313 0-0.625 0.156-0.938 0.156-2.776-9.715-11.718-16.719-22.344-16.719s-19.567 7.002-22.344 16.719c-0.313 0-0.625-0.156-0.938-0.156-3.594 0-6.719 3.125-6.719 6.719s3.125 6.719 6.719 6.719c0.313 0 0.625-0.156 0.938-0.156 2.776 9.715 11.718 16.719 22.344 16.719zM76.406 42.188c-0.781 5-4.375 9.219-9.219 10.625-4.417 9.235-14.818 17.188-27.188 17.188-12.326 0-22.738-7.82-27.031-17.188-4.844-1.406-8.594-5.625-9.375-10.625-0.156-0.625-0.313-1.406-0.313-2.188s0.156-1.563 0.313-2.188c0.781-5 4.531-9.219 9.375-10.625 1.719-3.75 4.063-7.031 7.188-9.688 5.313-4.688 12.188-7.5 19.844-7.5 12.546 0 22.673 7.679 27.031 17.188 4.844 1.406 8.594 5.625 9.375 10.625 0.156 0.625 0.313 1.406 0.313 2.188s-0.156 1.563-0.313 2.188zM27.5 35c0-2.344 1.875-4.219 4.219-4.219s4.063 1.875 4.063 4.219-1.719 4.219-4.063 4.219-4.219-1.875-4.219-4.219zM44.219 35c0-2.344 1.719-4.219 4.063-4.219s4.219 1.875 4.219 4.219-1.875 4.219-4.219 4.219-4.063-1.875-4.063-4.219z"></path>
</svg>
