<?xml version="1.0" encoding="utf-8"?>
<!-- Generated by IcoMoon.io -->
<!DOCTYPE svg PUBLIC "-//W3C//DTD SVG 1.1//EN" "http://www.w3.org/Graphics/SVG/1.1/DTD/svg11.dtd">
<svg version="1.1" xmlns="http://www.w3.org/2000/svg" xmlns:xlink="http://www.w3.org/1999/xlink" width="80" height="80" viewBox="0 0 80 80">
<path d="M56.719 66.719c2.813 0 5-2.188 5-5s-2.188-5-5-5-5 2.188-5 5 2.188 5 5 5zM26.719 66.719c2.813 0 5-2.188 5-5s-2.188-5-5-5-5 2.188-5 5 2.188 5 5 5zM64.375 52.969c2.344 2.188 3.906 5.313 3.906 8.75 0 6.406-5.156 11.563-11.563 11.563-5.938 0-10.781-4.375-11.563-10h-7.031c-0.781 5.625-5.469 10-11.406 10-6.406 0-11.719-5.156-11.719-11.563 0-4.375 2.5-8.281 6.094-10.313-0.781-1.094-7.031-14.688-7.031-14.688h-7.344v-6.719h11.563l3.125 6.719h48.594c0 6.094-2.188 11.719-5.625 16.25zM43.281 6.719c14.688 0 26.719 11.875 26.719 26.563h-26.719v-26.563z"></path>
</svg>
