<?xml version="1.0" encoding="utf-8"?>
<!-- Generated by IcoMoon.io -->
<!DOCTYPE svg PUBLIC "-//W3C//DTD SVG 1.1//EN" "http://www.w3.org/Graphics/SVG/1.1/DTD/svg11.dtd">
<svg version="1.1" xmlns="http://www.w3.org/2000/svg" xmlns:xlink="http://www.w3.org/1999/xlink" width="80" height="80" viewBox="0 0 80 80">
<path d="M20.178 34.886l-11.448-19.828c7.33-9.177 18.612-15.058 31.27-15.058 14.643 0 27.446 7.87 34.417 19.609h-32.638c-0.586-0.051-1.179-0.078-1.778-0.078-9.521 0-17.545 6.535-19.822 15.355zM54.321 25.391h22.927c1.777 4.526 2.753 9.453 2.753 14.609 0 21.94-17.664 39.75-39.546 39.994l16.359-28.334c2.303-3.311 3.656-7.33 3.656-11.66 0-5.716-2.357-10.892-6.148-14.609zM25.469 40c0-8.012 6.519-14.531 14.531-14.531s14.531 6.519 14.531 14.531c0 8.012-6.519 14.531-14.531 14.531s-14.531-6.519-14.531-14.531zM45.483 59.722l-11.451 19.834c-19.26-2.882-34.032-19.493-34.032-39.556 0-7.126 1.866-13.816 5.132-19.611l16.33 28.285c3.271 6.962 10.35 11.795 18.537 11.795 1.898 0 3.737-0.261 5.483-0.747z"></path>
</svg>
