<?xml version="1.0" encoding="utf-8"?>
<!-- Generated by IcoMoon.io -->
<!DOCTYPE svg PUBLIC "-//W3C//DTD SVG 1.1//EN" "http://www.w3.org/Graphics/SVG/1.1/DTD/svg11.dtd">
<svg version="1.1" xmlns="http://www.w3.org/2000/svg" xmlns:xlink="http://www.w3.org/1999/xlink" width="80" height="80" viewBox="0 0 80 80">
<path d="M72.5 10h-22.5c0-5.523-4.477-10-10-10s-10 4.477-10 10h-22.5c-1.381 0-2.5 1.119-2.5 2.5v65c0 1.381 1.119 2.5 2.5 2.5h65c1.381 0 2.5-1.119 2.5-2.5v-65c0-1.381-1.119-2.5-2.5-2.5zM40 5c2.761 0 5 2.239 5 5s-2.239 5-5 5c-2.761 0-5-2.239-5-5s2.239-5 5-5zM70 75h-60v-60h10v7.5c0 1.381 1.119 2.5 2.5 2.5h35c1.381 0 2.5-1.119 2.5-2.5v-7.5h10v60z"></path>
<path d="M35 67.071l-16.035-18.535 4.571-4.571 11.465 8.964 21.464-18.964 4.571 4.571z"></path>
</svg>
