<?xml version="1.0" encoding="utf-8"?>
<!-- Generated by IcoMoon.io -->
<!DOCTYPE svg PUBLIC "-//W3C//DTD SVG 1.1//EN" "http://www.w3.org/Graphics/SVG/1.1/DTD/svg11.dtd">
<svg version="1.1" xmlns="http://www.w3.org/2000/svg" xmlns:xlink="http://www.w3.org/1999/xlink" width="80" height="80" viewBox="0 0 80 80">
<path d="M60 36.719v-3.438c0-1.875-1.406-3.281-3.281-3.281h-10c-1.875 0-3.438 1.406-3.438 3.281v13.438c0 1.875 1.563 3.281 3.438 3.281h10c1.875 0 3.281-1.406 3.281-3.281v-3.438h-5v1.719h-6.719v-10h6.719v1.719h5zM36.719 36.719v-3.438c0-1.875-1.563-3.281-3.438-3.281h-10c-1.875 0-3.281 1.406-3.281 3.281v13.438c0 1.875 1.406 3.281 3.281 3.281h10c1.875 0 3.438-1.406 3.438-3.281v-3.438h-5v1.719h-6.719v-10h6.719v1.719h5zM63.281 13.281c3.594 0 6.719 3.125 6.719 6.719v40c0 3.594-3.125 6.719-6.719 6.719h-46.563c-3.75 0-6.719-3.125-6.719-6.719v-40c0-3.594 2.969-6.719 6.719-6.719h46.563z"></path>
</svg>
