<?xml version="1.0" encoding="utf-8"?>
<!-- Generated by IcoMoon.io -->
<!DOCTYPE svg PUBLIC "-//W3C//DTD SVG 1.1//EN" "http://www.w3.org/Graphics/SVG/1.1/DTD/svg11.dtd">
<svg version="1.1" xmlns="http://www.w3.org/2000/svg" xmlns:xlink="http://www.w3.org/1999/xlink" width="80" height="80" viewBox="0 0 80 80">
<path d="M25.781 33.281h-5.781c-7.344 0-13.281 6.094-13.281 13.438s5.938 13.281 13.281 13.281h32.5zM10 17.5l4.219-4.219 55.781 55.781-4.219 4.219-6.719-6.563h-39.063c-11.094 0-20-8.906-20-20 0-10.781 8.594-19.531 19.219-20zM64.531 33.438c8.594 0.625 15.469 7.813 15.469 16.563 0 5.625-2.813 10.625-7.031 13.594l-4.844-4.844c3.125-1.719 5.156-5 5.156-8.75 0-5.469-4.531-10-10-10h-5v-1.719c0-10.156-8.125-18.281-18.281-18.281-3.125 0-5.938 0.625-8.438 2.031l-5-4.844c3.906-2.5 8.438-3.906 13.438-3.906 12.188 0 22.188 8.594 24.531 20.156z"></path>
</svg>
