<?xml version="1.0" encoding="utf-8"?>
<!-- Generated by IcoMoon.io -->
<!DOCTYPE svg PUBLIC "-//W3C//DTD SVG 1.1//EN" "http://www.w3.org/Graphics/SVG/1.1/DTD/svg11.dtd">
<svg version="1.1" xmlns="http://www.w3.org/2000/svg" xmlns:xlink="http://www.w3.org/1999/xlink" width="80" height="80" viewBox="0 0 80 80">
<path d="M55 53.281c4.531 0 8.281-3.75 8.281-8.281s-3.75-8.281-8.281-8.281h-1.719c0-7.344-5.938-13.438-13.281-13.438-6.25 0-11.406 4.375-12.813 10.156l-0.469-0.156c-5.469 0-10 4.531-10 10s4.531 10 10 10h28.281zM40 6.719c18.438 0 33.281 14.844 33.281 33.281s-14.844 33.281-33.281 33.281-33.281-14.844-33.281-33.281 14.844-33.281 33.281-33.281z"></path>
</svg>
