<?xml version="1.0" encoding="utf-8"?>
<!-- Generated by IcoMoon.io -->
<!DOCTYPE svg PUBLIC "-//W3C//DTD SVG 1.1//EN" "http://www.w3.org/Graphics/SVG/1.1/DTD/svg11.dtd">
<svg version="1.1" xmlns="http://www.w3.org/2000/svg" xmlns:xlink="http://www.w3.org/1999/xlink" width="80" height="80" viewBox="0 0 80 80">
<path d="M63.281 60c5.469 0 10-4.531 10-10s-4.531-10-10-10h-5v-1.719c0-10.156-8.125-18.281-18.281-18.281-8.438 0-15.469 5.625-17.656 13.281h-2.344c-7.344 0-13.281 6.094-13.281 13.438s5.938 13.281 13.281 13.281h43.281zM64.531 33.438c8.594 0.625 15.469 7.813 15.469 16.563 0 9.219-7.5 16.719-16.719 16.719h-43.281c-11.094 0-20-8.906-20-20 0-10.313 7.813-18.75 17.813-19.844 4.219-7.969 12.5-13.594 22.188-13.594 12.188 0 22.188 8.594 24.531 20.156z"></path>
</svg>
