<?xml version="1.0" encoding="utf-8"?>
<!-- Generated by IcoMoon.io -->
<!DOCTYPE svg PUBLIC "-//W3C//DTD SVG 1.1//EN" "http://www.w3.org/Graphics/SVG/1.1/DTD/svg11.dtd">
<svg version="1.1" xmlns="http://www.w3.org/2000/svg" xmlns:xlink="http://www.w3.org/1999/xlink" width="80" height="80" viewBox="0 0 80 80">
<path d="M80 51.37c0-6.413-4.428-11.789-10.39-13.241-0.253-10.055-8.473-18.13-18.583-18.13-5.921 0-11.193 2.773-14.598 7.088-1.91-2.469-4.898-4.059-8.258-4.059-5.766 0-10.441 4.678-10.441 10.447 0 0.503 0.037 0.997 0.107 1.481-0.877-0.158-1.779-0.245-2.701-0.245-8.359-0-15.135 6.78-15.135 15.144s6.776 15.144 15.135 15.144l51.27-0.001c7.511-0.014 13.594-6.11 13.594-13.629z"></path>
</svg>
