<?xml version="1.0" encoding="utf-8"?>
<!-- Generated by IcoMoon.io -->
<!DOCTYPE svg PUBLIC "-//W3C//DTD SVG 1.1//EN" "http://www.w3.org/Graphics/SVG/1.1/DTD/svg11.dtd">
<svg version="1.1" xmlns="http://www.w3.org/2000/svg" xmlns:xlink="http://www.w3.org/1999/xlink" width="80" height="80" viewBox="0 0 80 80">
<path d="M61.471 30.685c-4.612 0-8.757 1.922-11.707 5.054-1.25 1.327-3.419 2.899-5.766 4.282 1.102-4.208 4.584-9.508 7.002-11.832 3.097-2.982 4.999-7.174 4.999-11.836 0-8.976-7.147-16.258-15.999-16.353-8.853 0.095-16 7.377-16 16.353 0 4.662 1.902 8.854 4.999 11.836 2.418 2.325 5.9 7.624 7.002 11.833-2.347-1.383-4.516-2.955-5.766-4.282-2.951-3.133-7.095-5.054-11.707-5.054-8.936 0-16.178 7.318-16.178 16.354 0 9.034 7.242 16.355 16.178 16.355 4.613 0 8.756-1.981 11.707-5.113 1.313-1.396 3.628-3.136 6.117-4.581-0.235 11.538-5.745 20.013-11.353 23.352v2.949h30.001v-2.948c-5.609-3.339-11.119-11.814-11.353-23.352 2.488 1.445 4.804 3.185 6.117 4.581 2.95 3.132 7.094 5.113 11.707 5.113 8.936 0 16.178-7.32 16.178-16.355-0-9.036-7.242-16.354-16.178-16.354z"></path>
</svg>
