<?xml version="1.0" encoding="utf-8"?>
<!-- Generated by IcoMoon.io -->
<!DOCTYPE svg PUBLIC "-//W3C//DTD SVG 1.1//EN" "http://www.w3.org/Graphics/SVG/1.1/DTD/svg11.dtd">
<svg version="1.1" xmlns="http://www.w3.org/2000/svg" xmlns:xlink="http://www.w3.org/1999/xlink" width="80" height="80" viewBox="0 0 80 80">
<path d="M73.887 28.753l-35-23.333c-0.84-0.56-1.934-0.56-2.773 0l-35 23.333c-0.695 0.464-1.113 1.244-1.113 2.080v23.333c0 0.836 0.418 1.617 1.113 2.080l35 23.333c0.42 0.28 0.903 0.42 1.387 0.42s0.967-0.14 1.387-0.42l35-23.333c0.695-0.464 1.113-1.244 1.113-2.080v-23.333c0-0.836-0.418-1.616-1.113-2.080zM37.5 51.162l-12.993-8.662 12.993-8.662 12.993 8.662-12.993 8.662zM40 29.495v-17.324l27.993 18.662-12.993 8.662-15-10zM35 29.495l-15 10-12.993-8.662 27.993-18.662v17.324zM15.493 42.5l-10.493 6.995v-13.991l10.493 6.995zM20 45.505l15 10v17.324l-27.993-18.662 12.993-8.662zM40 55.505l15-10 12.993 8.662-27.993 18.662v-17.324zM59.507 42.5l10.493-6.995v13.991l-10.493-6.996z"></path>
</svg>
