<?xml version="1.0" encoding="utf-8"?>
<!-- Generated by IcoMoon.io -->
<!DOCTYPE svg PUBLIC "-//W3C//DTD SVG 1.1//EN" "http://www.w3.org/Graphics/SVG/1.1/DTD/svg11.dtd">
<svg version="1.1" xmlns="http://www.w3.org/2000/svg" xmlns:xlink="http://www.w3.org/1999/xlink" width="80" height="80" viewBox="0 0 80 80">
<path d="M72.952 47.676c-4.197-7.27-1.673-16.586 5.637-20.819l-7.861-13.617c-2.246 1.317-4.858 2.072-7.644 2.072-8.401 0-15.212-6.855-15.212-15.312h-15.723c0.021 2.61-0.631 5.256-2.028 7.676-4.197 7.27-13.528 9.742-20.849 5.528l-7.861 13.617c2.263 1.287 4.223 3.171 5.616 5.584 4.19 7.258 1.681 16.556-5.602 20.799l7.861 13.617c2.238-1.304 4.837-2.051 7.609-2.051 8.375 0 15.167 6.812 15.211 15.231h15.723c-0.007-2.584 0.646-5.201 2.029-7.595 4.19-7.258 13.498-9.734 20.814-5.548l7.861-13.616c-2.248-1.286-4.195-3.164-5.581-5.565zM40 56.198c-8.946 0-16.198-7.252-16.198-16.198s7.252-16.198 16.198-16.198c8.946 0 16.198 7.252 16.198 16.198s-7.252 16.198-16.198 16.198z"></path>
</svg>
