<?xml version="1.0" encoding="utf-8"?>
<!-- Generated by IcoMoon.io -->
<!DOCTYPE svg PUBLIC "-//W3C//DTD SVG 1.1//EN" "http://www.w3.org/Graphics/SVG/1.1/DTD/svg11.dtd">
<svg version="1.1" xmlns="http://www.w3.org/2000/svg" xmlns:xlink="http://www.w3.org/1999/xlink" width="80" height="80" viewBox="0 0 80 80">
<path d="M28.416 56.41l3.226-4.517-3.535-3.536-4.517 3.226c-0.838-0.468-1.735-0.842-2.677-1.109l-0.913-5.475h-5l-0.913 5.475c-0.942 0.267-1.839 0.64-2.677 1.109l-4.517-3.226-3.536 3.536 3.226 4.517c-0.468 0.837-0.842 1.735-1.109 2.677l-5.475 0.913v5l5.475 0.913c0.267 0.942 0.64 1.839 1.109 2.677l-3.226 4.517 3.535 3.536 4.517-3.226c0.838 0.468 1.735 0.842 2.677 1.109l0.913 5.475h5l0.912-5.475c0.942-0.267 1.839-0.64 2.677-1.109l4.517 3.226 3.535-3.536-3.226-4.517c0.468-0.838 0.842-1.735 1.109-2.677l5.476-0.912v-5l-5.475-0.913c-0.267-0.942-0.64-1.839-1.109-2.677zM17.5 67.5c-2.762 0-5-2.239-5-5s2.238-5 5-5 5 2.239 5 5-2.238 5-5 5zM80 30v-5l-5.264-0.957c-0.097-0.629-0.221-1.248-0.369-1.859l4.497-2.898-1.913-4.619-5.23 1.13c-0.329-0.54-0.682-1.064-1.054-1.573l3.047-4.402-3.536-3.535-4.402 3.047c-0.509-0.372-1.033-0.725-1.573-1.054l1.13-5.23-4.619-1.914-2.898 4.497c-0.61-0.148-1.23-0.272-1.859-0.369l-0.957-5.264h-5l-0.957 5.264c-0.629 0.097-1.248 0.221-1.859 0.369l-2.898-4.497-4.619 1.913 1.13 5.23c-0.54 0.329-1.064 0.682-1.573 1.054l-4.402-3.047-3.535 3.535 3.047 4.402c-0.372 0.509-0.725 1.033-1.054 1.573l-5.23-1.13-1.913 4.619 4.497 2.898c-0.148 0.61-0.272 1.23-0.369 1.859l-5.264 0.957v5l5.264 0.957c0.097 0.629 0.221 1.248 0.369 1.859l-4.497 2.898 1.913 4.619 5.23-1.13c0.329 0.54 0.682 1.064 1.054 1.573l-3.047 4.402 3.535 3.536 4.402-3.047c0.509 0.372 1.033 0.725 1.573 1.054l-1.13 5.23 4.619 1.913 2.899-4.497c0.61 0.148 1.23 0.272 1.858 0.369l0.957 5.264h5l0.957-5.264c0.628-0.097 1.248-0.221 1.859-0.369l2.898 4.497 4.619-1.913-1.13-5.23c0.54-0.329 1.064-0.682 1.573-1.054l4.402 3.047 3.536-3.536-3.047-4.402c0.372-0.509 0.725-1.033 1.054-1.573l5.23 1.13 1.913-4.62-4.497-2.898c0.148-0.61 0.272-1.23 0.369-1.859l5.264-0.957zM52.5 38.375c-6.006 0-10.875-4.869-10.875-10.875s4.869-10.875 10.875-10.875 10.875 4.869 10.875 10.875c0 6.006-4.869 10.875-10.875 10.875z"></path>
</svg>
