<?xml version="1.0" encoding="utf-8"?>
<!-- Generated by IcoMoon.io -->
<!DOCTYPE svg PUBLIC "-//W3C//DTD SVG 1.1//EN" "http://www.w3.org/Graphics/SVG/1.1/DTD/svg11.dtd">
<svg version="1.1" xmlns="http://www.w3.org/2000/svg" xmlns:xlink="http://www.w3.org/1999/xlink" width="80" height="80" viewBox="0 0 80 80">
<path d="M37.5 5c-20.711 0-37.5 16.789-37.5 37.5s16.789 37.5 37.5 37.5c20.711 0 37.5-16.789 37.5-37.5s-16.789-37.5-37.5-37.5zM37.5 72.5c-16.569 0-30-13.431-30-30s13.431-30 30-30c16.568 0 30 13.431 30 30s-13.432 30-30 30z"></path>
<path d="M52.408 50.339c-1.193-0.694-2.724-0.29-3.418 0.904-1.348 2.317-3.835 3.757-6.49 3.757h-10c-3.259 0-6.038-2.090-7.070-5h12.070c1.381 0 2.5-1.119 2.5-2.5s-1.119-2.5-2.5-2.5h-12.5v-5h12.5c1.381 0 2.5-1.119 2.5-2.5s-1.119-2.5-2.5-2.5h-12.070c1.032-2.91 3.811-5 7.070-5h10c2.655 0 5.142 1.44 6.49 3.757 0.694 1.193 2.225 1.598 3.418 0.904s1.598-2.225 0.904-3.418c-2.24-3.851-6.383-6.243-10.812-6.243h-10c-6.037 0-11.087 4.301-12.248 10h-2.752c-1.381 0-2.5 1.119-2.5 2.5s1.119 2.5 2.5 2.5h2.5v5h-2.5c-1.381 0-2.5 1.119-2.5 2.5s1.119 2.5 2.5 2.5h2.752c1.161 5.699 6.212 10 12.248 10h10c4.429 0 8.572-2.392 10.812-6.243 0.694-1.193 0.29-2.724-0.904-3.418z"></path>
</svg>
