<?xml version="1.0" encoding="utf-8"?>
<!-- Generated by IcoMoon.io -->
<!DOCTYPE svg PUBLIC "-//W3C//DTD SVG 1.1//EN" "http://www.w3.org/Graphics/SVG/1.1/DTD/svg11.dtd">
<svg version="1.1" xmlns="http://www.w3.org/2000/svg" xmlns:xlink="http://www.w3.org/1999/xlink" width="80" height="80" viewBox="0 0 80 80">
<path d="M37.5 5c-20.711 0-37.5 16.789-37.5 37.5s16.789 37.5 37.5 37.5c20.711 0 37.5-16.789 37.5-37.5s-16.789-37.5-37.5-37.5zM37.5 72.5c-16.569 0-30-13.431-30-30s13.431-30 30-30c16.568 0 30 13.431 30 30s-13.432 30-30 30z"></path>
<path d="M47.5 55h-17.5v-10h7.5c1.381 0 2.5-1.119 2.5-2.5s-1.119-2.5-2.5-2.5h-7.5v-2.5c0-4.135 3.365-7.5 7.5-7.5 2.67 0 5.16 1.438 6.498 3.752 0.691 1.195 2.221 1.604 3.416 0.912s1.604-2.221 0.912-3.416c-2.23-3.854-6.378-6.249-10.826-6.249-6.892 0-12.5 5.608-12.5 12.5v2.5h-2.5c-1.381 0-2.5 1.119-2.5 2.5s1.119 2.5 2.5 2.5h2.5v15h22.5c1.381 0 2.5-1.119 2.5-2.5s-1.119-2.5-2.5-2.5z"></path>
</svg>
