<?xml version="1.0" encoding="utf-8"?>
<!-- Generated by IcoMoon.io -->
<!DOCTYPE svg PUBLIC "-//W3C//DTD SVG 1.1//EN" "http://www.w3.org/Graphics/SVG/1.1/DTD/svg11.dtd">
<svg version="1.1" xmlns="http://www.w3.org/2000/svg" xmlns:xlink="http://www.w3.org/1999/xlink" width="80" height="80" viewBox="0 0 80 80">
<path d="M37.5 5c-20.711 0-37.5 16.789-37.5 37.5s16.789 37.5 37.5 37.5c20.711 0 37.5-16.789 37.5-37.5s-16.789-37.5-37.5-37.5zM37.5 72.5c-16.569 0-30-13.431-30-30s13.431-30 30-30c16.568 0 30 13.431 30 30s-13.432 30-30 30z"></path>
<path d="M47.5 45c1.381 0 2.5-1.119 2.5-2.5s-1.119-2.5-2.5-2.5h-5.329l7.409-11.113c0.766-1.149 0.455-2.701-0.693-3.467s-2.701-0.455-3.467 0.693l-7.92 11.88-7.92-11.88c-0.766-1.149-2.318-1.459-3.467-0.693s-1.459 2.318-0.693 3.467l7.409 11.113h-5.329c-1.381 0-2.5 1.119-2.5 2.5s1.119 2.5 2.5 2.5h7.5v5h-7.5c-1.381 0-2.5 1.119-2.5 2.5s1.119 2.5 2.5 2.5h7.5v7.5c0 1.381 1.119 2.5 2.5 2.5s2.5-1.119 2.5-2.5v-7.5h7.5c1.381 0 2.5-1.119 2.5-2.5s-1.119-2.5-2.5-2.5h-7.5v-5h7.5z"></path>
</svg>
