<?xml version="1.0" encoding="utf-8"?>
<!-- Generated by IcoMoon.io -->
<!DOCTYPE svg PUBLIC "-//W3C//DTD SVG 1.1//EN" "http://www.w3.org/Graphics/SVG/1.1/DTD/svg11.dtd">
<svg version="1.1" xmlns="http://www.w3.org/2000/svg" xmlns:xlink="http://www.w3.org/1999/xlink" width="80" height="80" viewBox="0 0 80 80">
<path d="M37.5 5c-20.711 0-37.5 16.789-37.5 37.5s16.789 37.5 37.5 37.5c20.711 0 37.5-16.789 37.5-37.5s-16.789-37.5-37.5-37.5zM37.5 72.5c-16.569 0-30-13.431-30-30s13.431-30 30-30c16.569 0 30 13.431 30 30s-13.431 30-30 30zM40 40v-10h10v-5h-10v-5h-5v5h-10v20h10v10h-10v5h10v5h5v-5h10l-0-20h-10zM35 40h-5v-10h5v10zM45 55h-5v-10h5v10z"></path>
</svg>
