<?xml version="1.0" encoding="utf-8"?>
<!-- Generated by IcoMoon.io -->
<!DOCTYPE svg PUBLIC "-//W3C//DTD SVG 1.1//EN" "http://www.w3.org/Graphics/SVG/1.1/DTD/svg11.dtd">
<svg version="1.1" xmlns="http://www.w3.org/2000/svg" xmlns:xlink="http://www.w3.org/1999/xlink" width="80" height="80" viewBox="0 0 80 80">
<path d="M57.5 70c-6.893 0-12.5-5.608-12.5-12.5v-7.5h-10v7.5c0 6.892-5.608 12.5-12.5 12.5s-12.5-5.608-12.5-12.5 5.608-12.5 12.5-12.5h7.5v-10h-7.5c-6.892 0-12.5-5.608-12.5-12.5s5.608-12.5 12.5-12.5 12.5 5.608 12.5 12.5v7.5h10v-7.5c0-6.892 5.607-12.5 12.5-12.5s12.5 5.608 12.5 12.5-5.608 12.5-12.5 12.5h-7.5v10h7.5c6.892 0 12.5 5.607 12.5 12.5s-5.607 12.5-12.5 12.5zM50 50v7.5c0 4.135 3.365 7.5 7.5 7.5s7.5-3.365 7.5-7.5-3.365-7.5-7.5-7.5h-7.5zM22.5 50c-4.135 0-7.5 3.365-7.5 7.5s3.365 7.5 7.5 7.5 7.5-3.365 7.5-7.5v-7.5h-7.5zM35 45h10v-10h-10v10zM50 30h7.5c4.135 0 7.5-3.365 7.5-7.5s-3.365-7.5-7.5-7.5-7.5 3.365-7.5 7.5v7.5zM22.5 15c-4.135 0-7.5 3.365-7.5 7.5s3.365 7.5 7.5 7.5h7.5v-7.5c0-4.135-3.364-7.5-7.5-7.5z"></path>
</svg>
