<?xml version="1.0" encoding="utf-8"?>
<!-- Generated by IcoMoon.io -->
<!DOCTYPE svg PUBLIC "-//W3C//DTD SVG 1.1//EN" "http://www.w3.org/Graphics/SVG/1.1/DTD/svg11.dtd">
<svg version="1.1" xmlns="http://www.w3.org/2000/svg" xmlns:xlink="http://www.w3.org/1999/xlink" width="80" height="80" viewBox="0 0 80 80">
<path d="M42.501 80c-0.179 0-0.361-0.020-0.542-0.060-1.144-0.254-1.959-1.269-1.959-2.441v-37.5h-37.5c-1.172 0-2.187-0.814-2.441-1.959s0.321-2.311 1.383-2.807l75-35c0.953-0.444 2.082-0.246 2.825 0.498s0.942 1.872 0.498 2.825l-35 75c-0.417 0.894-1.31 1.443-2.265 1.443zM13.769 35h28.731c1.381 0 2.5 1.119 2.5 2.5v28.731l27.327-58.558-58.558 27.327z"></path>
</svg>
