<?xml version="1.0" encoding="utf-8"?>
<!-- Generated by IcoMoon.io -->
<!DOCTYPE svg PUBLIC "-//W3C//DTD SVG 1.1//EN" "http://www.w3.org/Graphics/SVG/1.1/DTD/svg11.dtd">
<svg version="1.1" xmlns="http://www.w3.org/2000/svg" xmlns:xlink="http://www.w3.org/1999/xlink" width="80" height="80" viewBox="0 0 80 80">
<path d="M40 0c-22.091 0-40 17.909-40 40s17.909 40 40 40 40-17.909 40-40-17.909-40-40-40zM7.5 40c0-17.949 14.551-32.5 32.5-32.5 8.56 0 16.346 3.311 22.151 8.721l-32.151 13.779-13.779 32.151c-5.41-5.805-8.721-13.591-8.721-22.151zM45.716 45.716l-20.006 8.574 8.574-20.006 11.432 11.432zM40 72.5c-8.56 0-16.346-3.311-22.151-8.721l32.151-13.779 13.779-32.151c5.41 5.805 8.721 13.59 8.721 22.151 0 17.949-14.551 32.5-32.5 32.5z"></path>
</svg>
