<?xml version="1.0" encoding="utf-8"?>
<!-- Generated by IcoMoon.io -->
<!DOCTYPE svg PUBLIC "-//W3C//DTD SVG 1.1//EN" "http://www.w3.org/Graphics/SVG/1.1/DTD/svg11.dtd">
<svg version="1.1" xmlns="http://www.w3.org/2000/svg" xmlns:xlink="http://www.w3.org/1999/xlink" width="80" height="80" viewBox="0 0 80 80">
<path d="M43.281 28.281v-6.563h-6.563v6.563h6.563zM43.281 43.281v-6.563h-6.563v6.563h6.563zM43.281 58.281v-6.563h-6.563v6.563h6.563zM73.281 33.281c-3.594 0-6.563 3.125-6.563 6.719s2.969 6.719 6.563 6.719v13.281c0 3.594-2.969 6.719-6.563 6.719h-53.438c-3.594 0-6.563-3.125-6.563-6.719v-13.281c3.75 0 6.563-3.125 6.563-6.719s-2.969-6.719-6.563-6.719v-13.281c0-3.75 2.969-6.719 6.563-6.719h53.438c3.594 0 6.563 2.969 6.563 6.719v13.281z"></path>
</svg>
