<?xml version="1.0" encoding="utf-8"?>
<!-- Generated by IcoMoon.io -->
<!DOCTYPE svg PUBLIC "-//W3C//DTD SVG 1.1//EN" "http://www.w3.org/Graphics/SVG/1.1/DTD/svg11.dtd">
<svg version="1.1" xmlns="http://www.w3.org/2000/svg" xmlns:xlink="http://www.w3.org/1999/xlink" width="80" height="80" viewBox="0 0 80 80">
<path d="M40 80c22.091 0 40-17.909 40-40s-17.909-40-40-40-40 17.909-40 40 17.909 40 40 40zM40 7.5c17.949 0 32.5 14.551 32.5 32.5s-14.551 32.5-32.5 32.5-32.5-14.551-32.5-32.5 14.551-32.5 32.5-32.5zM20 25c0-2.761 2.239-5 5-5s5 2.239 5 5c0 2.761-2.239 5-5 5s-5-2.239-5-5zM50 25c0-2.761 2.239-5 5-5s5 2.239 5 5c0 2.761-2.239 5-5 5s-5-2.239-5-5zM56.727 50h5.068c0.722 5.665-2.535 11.291-8.122 13.325-6.477 2.358-13.664-0.993-16.022-7.47-1.415-3.886-5.727-5.897-9.613-4.482-3.56 1.296-5.543 5.023-4.765 8.627h-5.067c-0.722-5.665 2.535-11.291 8.122-13.325 6.477-2.358 13.664 0.993 16.022 7.47 1.414 3.887 5.727 5.897 9.613 4.482 3.56-1.296 5.543-5.023 4.765-8.627z"></path>
</svg>
