<?xml version="1.0" encoding="utf-8"?>
<!-- Generated by IcoMoon.io -->
<!DOCTYPE svg PUBLIC "-//W3C//DTD SVG 1.1//EN" "http://www.w3.org/Graphics/SVG/1.1/DTD/svg11.dtd">
<svg version="1.1" xmlns="http://www.w3.org/2000/svg" xmlns:xlink="http://www.w3.org/1999/xlink" width="100" height="80" viewBox="0 0 100 80">
<path d="M50 45c8.271 0 15.771 3.365 21.203 8.797l-7.068 7.068c-3.621-3.622-8.622-5.865-14.135-5.865s-10.514 2.243-14.135 5.865l-7.068-7.068c5.432-5.432 12.932-8.797 21.203-8.797zM14.645 39.645c9.444-9.444 22-14.645 35.355-14.645s25.912 5.201 35.355 14.645l-7.071 7.071c-7.555-7.555-17.6-11.716-28.284-11.716s-20.729 4.161-28.284 11.716l-7.071-7.071zM77.249 10.503c8.336 3.526 15.822 8.572 22.249 15v0l-7.071 7.071c-11.332-11.332-26.4-17.574-42.426-17.574s-31.094 6.241-42.426 17.574l-7.071-7.071c6.427-6.427 13.913-11.474 22.249-15 8.633-3.651 17.801-5.503 27.249-5.503s18.615 1.852 27.249 5.503zM45 70c0-2.761 2.239-5 5-5s5 2.239 5 5c0 2.761-2.239 5-5 5s-5-2.239-5-5z"></path>
</svg>
