<?xml version="1.0" encoding="utf-8"?>
<!-- Generated by IcoMoon.io -->
<!DOCTYPE svg PUBLIC "-//W3C//DTD SVG 1.1//EN" "http://www.w3.org/Graphics/SVG/1.1/DTD/svg11.dtd">
<svg version="1.1" xmlns="http://www.w3.org/2000/svg" xmlns:xlink="http://www.w3.org/1999/xlink" width="80" height="80" viewBox="0 0 80 80">
<path d="M63.281 10h10v3.281l-23.281 23.438-6.719-6.719zM40 41.719c0.938 0 1.719-0.781 1.719-1.719s-0.781-1.719-1.719-1.719-1.719 0.781-1.719 1.719 0.781 1.719 1.719 1.719zM20 66.719c3.594 0 6.719-2.969 6.719-6.719s-3.125-6.719-6.719-6.719-6.719 2.969-6.719 6.719 3.125 6.719 6.719 6.719zM20 26.719c3.594 0 6.719-2.969 6.719-6.719s-3.125-6.719-6.719-6.719-6.719 2.969-6.719 6.719 3.125 6.719 6.719 6.719zM32.188 25.469l41.094 41.25v3.281h-10l-23.281-23.281-7.813 7.813c0.781 1.719 1.094 3.438 1.094 5.469 0 7.344-5.938 13.281-13.281 13.281s-13.281-5.938-13.281-13.281 5.938-13.281 13.281-13.281c2.031 0 3.75 0.313 5.469 1.094l7.813-7.813-7.813-7.813c-1.719 0.781-3.438 1.094-5.469 1.094-7.344 0-13.281-5.938-13.281-13.281s5.938-13.281 13.281-13.281 13.281 5.938 13.281 13.281c0 2.031-0.313 3.75-1.094 5.469z"></path>
</svg>
