<?xml version="1.0" encoding="utf-8"?>
<!-- Generated by IcoMoon.io -->
<!DOCTYPE svg PUBLIC "-//W3C//DTD SVG 1.1//EN" "http://www.w3.org/Graphics/SVG/1.1/DTD/svg11.dtd">
<svg version="1.1" xmlns="http://www.w3.org/2000/svg" xmlns:xlink="http://www.w3.org/1999/xlink" width="80" height="80" viewBox="0 0 80 80">
<path d="M59.531 46.719c-0.781-2.031-1.25-4.375-1.25-6.719s0.469-4.688 1.25-6.719h5.469l5-6.563-6.563-6.719c-4.375 3.281-7.656 7.813-9.219 13.281-0.625 2.188-0.938 4.375-0.938 6.719s0.313 4.531 0.938 6.719c1.563 5.313 4.844 10 9.219 13.281l6.563-6.719-5-6.563h-5.469zM46.719 60v-3.281c0-6.719-13.281-10.313-20-10.313s-20 3.594-20 10.313v3.281h40zM26.719 20c-5.469 0-10 4.531-10 10s4.531 10 10 10 10-4.531 10-10-4.531-10-10-10zM73.281 10c3.594 0 6.719 3.125 6.719 6.719v46.563c0 3.594-3.125 6.719-6.719 6.719h-66.563c-3.594 0-6.719-3.125-6.719-6.719v-46.563c0-3.594 3.125-6.719 6.719-6.719h66.563z"></path>
</svg>
