<?xml version="1.0" encoding="utf-8"?>
<!-- Generated by IcoMoon.io -->
<!DOCTYPE svg PUBLIC "-//W3C//DTD SVG 1.1//EN" "http://www.w3.org/Graphics/SVG/1.1/DTD/svg11.dtd">
<svg version="1.1" xmlns="http://www.w3.org/2000/svg" xmlns:xlink="http://www.w3.org/1999/xlink" width="80" height="80" viewBox="0 0 80 80">
<path d="M63.281 66.719v-53.438h-6.563v10h-33.438v-10h-6.563v53.438h46.563zM40 6.719c-1.875 0-3.281 1.406-3.281 3.281s1.406 3.281 3.281 3.281 3.281-1.406 3.281-3.281-1.406-3.281-3.281-3.281zM63.281 6.719c3.594 0 6.719 2.969 6.719 6.563v53.438c0 3.594-3.125 6.563-6.719 6.563h-46.563c-3.594 0-6.719-2.969-6.719-6.563v-53.438c0-3.594 3.125-6.563 6.719-6.563h13.906c1.406-3.906 5-6.719 9.375-6.719s7.969 2.813 9.375 6.719h13.906z"></path>
</svg>
