<?xml version="1.0" encoding="utf-8"?>
<!-- Generated by IcoMoon.io -->
<!DOCTYPE svg PUBLIC "-//W3C//DTD SVG 1.1//EN" "http://www.w3.org/Graphics/SVG/1.1/DTD/svg11.dtd">
<svg version="1.1" xmlns="http://www.w3.org/2000/svg" xmlns:xlink="http://www.w3.org/1999/xlink" width="80" height="80" viewBox="0 0 80 80">
<path d="M56.719 56.719v-5c0-5.625-11.094-8.438-16.719-8.438s-16.719 2.813-16.719 8.438v5h33.438zM40 22.5c-4.063 0-7.5 3.438-7.5 7.5s3.438 7.5 7.5 7.5 7.5-3.438 7.5-7.5-3.438-7.5-7.5-7.5zM66.719 13.281c3.594 0 6.563 3.125 6.563 6.719v40c0 3.594-2.969 6.719-6.563 6.719h-53.438c-3.594 0-6.563-3.125-6.563-6.719v-40c0-3.594 2.969-6.719 6.563-6.719h53.438zM13.281 80v-6.719h53.438v6.719h-53.438zM66.719 0v6.719h-53.438v-6.719h53.438z"></path>
</svg>
