<?xml version="1.0" encoding="utf-8"?>
<!-- Generated by IcoMoon.io -->
<!DOCTYPE svg PUBLIC "-//W3C//DTD SVG 1.1//EN" "http://www.w3.org/Graphics/SVG/1.1/DTD/svg11.dtd">
<svg version="1.1" xmlns="http://www.w3.org/2000/svg" xmlns:xlink="http://www.w3.org/1999/xlink" width="80" height="80" viewBox="0 0 80 80">
<path d="M73.281 40v-20h-26.563v20h26.563zM46.719 60v-3.281c0-6.719-13.281-10.313-20-10.313s-20 3.594-20 10.313v3.281h40zM26.719 20c-5.469 0-10 4.531-10 10s4.531 10 10 10 10-4.531 10-10-4.531-10-10-10zM73.281 10c3.594 0 6.719 3.125 6.719 6.719v46.563c0 3.594-3.125 6.719-6.719 6.719h-66.563c-3.594 0-6.719-3.125-6.719-6.719v-46.563c0-3.594 3.125-6.719 6.719-6.719h66.563zM70 26.719l-10 6.563-10-6.563v-3.438l10 6.719 10-6.719v3.438z"></path>
</svg>
