<?xml version="1.0" encoding="utf-8"?>
<!-- Generated by IcoMoon.io -->
<!DOCTYPE svg PUBLIC "-//W3C//DTD SVG 1.1//EN" "http://www.w3.org/Graphics/SVG/1.1/DTD/svg11.dtd">
<svg version="1.1" xmlns="http://www.w3.org/2000/svg" xmlns:xlink="http://www.w3.org/1999/xlink" width="80" height="80" viewBox="0 0 80 80">
<path d="M50 63.281c12.813 0 23.281-10.469 23.281-23.281s-10.469-23.281-23.281-23.281-23.281 10.469-23.281 23.281 10.469 23.281 23.281 23.281zM50 10c16.563 0 30 13.438 30 30s-13.438 30-30 30-30-13.438-30-30 13.438-30 30-30zM6.719 40c0 9.375 5.313 17.344 13.281 21.094v7.188c-11.563-4.063-20-15.313-20-28.281s8.438-24.219 20-28.281v7.188c-7.969 3.75-13.281 11.719-13.281 21.094zM53.281 26.719v10h10v6.563h-10v10h-6.563v-10h-10v-6.563h10v-10h6.563z"></path>
</svg>
