<?xml version="1.0" encoding="utf-8"?>
<!-- Generated by IcoMoon.io -->
<!DOCTYPE svg PUBLIC "-//W3C//DTD SVG 1.1//EN" "http://www.w3.org/Graphics/SVG/1.1/DTD/svg11.dtd">
<svg version="1.1" xmlns="http://www.w3.org/2000/svg" xmlns:xlink="http://www.w3.org/1999/xlink" width="80" height="80" viewBox="0 0 80 80">
<path d="M40 66.719c14.688 0 26.719-12.031 26.719-26.719s-12.031-26.719-26.719-26.719-26.719 12.031-26.719 26.719 12.031 26.719 26.719 26.719zM40 6.719c18.438 0 33.281 14.844 33.281 33.281s-14.844 33.281-33.281 33.281-33.281-14.844-33.281-33.281 14.844-33.281 33.281-33.281zM39.531 30.469c-4.806 0-6.25 4.254-6.25 9.063v0.938c0 4.808 1.446 9.063 6.25 9.063 2.934 0 5.469-1.791 5.469-4.688h5.938c0 3.050-1.651 5.344-3.438 6.875-2.015 1.727-4.36 2.813-7.969 2.813-8.529 0-12.813-5.636-12.813-14.063v-0.938c0-4.040 1.134-7.725 3.125-10 2.062-2.357 5.366-4.219 9.688-4.219 3.459 0 6.348 1.192 8.125 2.969 1.719 1.719 3.281 4.373 3.281 7.656h-5.938c0-0.781-0.156-1.406-0.469-2.031s-0.625-1.406-1.094-1.875c-0.846-0.846-2.293-1.563-3.906-1.563z"></path>
</svg>
