<?xml version="1.0" encoding="utf-8"?>
<!-- Generated by IcoMoon.io -->
<!DOCTYPE svg PUBLIC "-//W3C//DTD SVG 1.1//EN" "http://www.w3.org/Graphics/SVG/1.1/DTD/svg11.dtd">
<svg version="1.1" xmlns="http://www.w3.org/2000/svg" xmlns:xlink="http://www.w3.org/1999/xlink" width="80" height="80" viewBox="0 0 80 80">
<path d="M72.5 10h-65c-4.125 0-7.5 3.375-7.5 7.5v45c0 4.125 3.375 7.5 7.5 7.5h65c4.125 0 7.5-3.375 7.5-7.5v-45c0-4.125-3.375-7.5-7.5-7.5zM7.5 15h65c1.355 0 2.5 1.145 2.5 2.5v7.5h-70v-7.5c0-1.355 1.145-2.5 2.5-2.5zM72.5 65h-65c-1.355 0-2.5-1.145-2.5-2.5v-22.5h70v22.5c0 1.355-1.145 2.5-2.5 2.5zM10 50h5v10h-5zM20 50h5v10h-5zM30 50h5v10h-5z"></path>
</svg>
