<?xml version="1.0" encoding="utf-8"?>
<!-- Generated by IcoMoon.io -->
<!DOCTYPE svg PUBLIC "-//W3C//DTD SVG 1.1//EN" "http://www.w3.org/Graphics/SVG/1.1/DTD/svg11.dtd">
<svg version="1.1" xmlns="http://www.w3.org/2000/svg" xmlns:xlink="http://www.w3.org/1999/xlink" width="80" height="80" viewBox="0 0 80 80">
<path d="M26.719 53.281h40v6.719h-6.719v6.719h-6.719v-6.719h-26.563c-3.75 0-6.719-3.125-6.719-6.719v-26.563h-6.719v-6.719h6.719v-6.719h6.719v40zM53.281 46.719v-20h-20v-6.719h20c3.594 0 6.719 2.969 6.719 6.719v20h-6.719zM40.156 0c20.938 0 38.125 16.25 39.844 36.719h-5c-1.25-12.5-8.906-23.125-19.844-28.281l-4.531 4.375-12.656-12.656c0.781 0 1.406-0.156 2.188-0.156zM24.844 71.563l4.531-4.375 12.656 12.656c-0.781 0-1.406 0.156-2.188 0.156-20.938 0-38.125-16.25-39.844-36.719h5c1.25 12.5 8.906 23.125 19.844 28.281z"></path>
</svg>
