<?xml version="1.0" encoding="utf-8"?>
<!-- Generated by IcoMoon.io -->
<!DOCTYPE svg PUBLIC "-//W3C//DTD SVG 1.1//EN" "http://www.w3.org/Graphics/SVG/1.1/DTD/svg11.dtd">
<svg version="1.1" xmlns="http://www.w3.org/2000/svg" xmlns:xlink="http://www.w3.org/1999/xlink" width="80" height="80" viewBox="0 0 80 80">
<path d="M40 0c-22.091 0-40 17.909-40 40s17.909 40 40 40 40-17.909 40-40-17.909-40-40-40zM25 57.5c0 1.381-1.119 2.5-2.5 2.5s-2.5-1.119-2.5-2.5v-5c0-1.381 1.119-2.5 2.5-2.5s2.5 1.119 2.5 2.5v5zM25 42.5c0 1.381-1.119 2.5-2.5 2.5s-2.5-1.119-2.5-2.5v-5c0-1.381 1.119-2.5 2.5-2.5s2.5 1.119 2.5 2.5v5zM27.5 30h-10c-1.381 0-2.5-1.119-2.5-2.5s1.119-2.5 2.5-2.5h10c1.381 0 2.5 1.119 2.5 2.5s-1.119 2.5-2.5 2.5zM49.268 66.143c-0.488 0.488-1.128 0.732-1.768 0.732s-1.28-0.244-1.768-0.732c-0.358-0.358-2.298-1.143-5.732-1.143s-5.374 0.785-5.732 1.143c-0.976 0.976-2.559 0.976-3.535 0s-0.976-2.559 0-3.535c2.353-2.353 7.265-2.607 9.268-2.607s6.915 0.254 9.268 2.607c0.976 0.976 0.976 2.559 0 3.535zM60 57.5c0 1.381-1.119 2.5-2.5 2.5s-2.5-1.119-2.5-2.5v-5c0-1.381 1.119-2.5 2.5-2.5s2.5 1.119 2.5 2.5v5zM60 42.5c0 1.381-1.119 2.5-2.5 2.5s-2.5-1.119-2.5-2.5v-5c0-1.381 1.119-2.5 2.5-2.5s2.5 1.119 2.5 2.5v5zM62.5 30h-10c-1.381 0-2.5-1.119-2.5-2.5s1.119-2.5 2.5-2.5h10c1.381 0 2.5 1.119 2.5 2.5s-1.119 2.5-2.5 2.5z"></path>
</svg>
