<?xml version="1.0" encoding="utf-8"?>
<!-- Generated by IcoMoon.io -->
<!DOCTYPE svg PUBLIC "-//W3C//DTD SVG 1.1//EN" "http://www.w3.org/Graphics/SVG/1.1/DTD/svg11.dtd">
<svg version="1.1" xmlns="http://www.w3.org/2000/svg" xmlns:xlink="http://www.w3.org/1999/xlink" width="80" height="80" viewBox="0 0 80 80">
<path d="M40 0c20.938 0 38.125 16.094 39.844 36.563h-5c-1.094-12.5-8.906-22.969-19.844-28.125l-4.531 4.375-12.656-12.656zM55.156 39.375c0-5.459-2.136-8.906-7.344-8.906h-3.125v19.219h2.969c4.007 0 6.292-2.18 7.188-5.313 0.313-1.094 0.313-2.344 0.313-3.75v-1.25zM47.813 26.719c5.966 0 9.521 3.021 11.25 7.344 0.625 1.563 0.781 3.438 0.781 5.313v1.25c0 4.126-1.183 7.12-3.281 9.219-2.096 2.096-4.774 3.438-8.906 3.438h-7.656v-26.563h7.813zM32.344 39.688c2.391 0.956 4.375 2.851 4.375 6.094 0 1.25-0.313 2.188-0.781 3.125s-0.938 1.875-1.719 2.5c-1.465 1.172-3.679 1.875-6.25 1.875-4.859 0-8.438-2.46-8.438-7.344h4.219c0 2.414 1.813 3.906 4.219 3.906 2.792 0 4.375-1.334 4.375-4.219 0-2.944-1.937-4.219-4.844-4.219h-2.5v-3.438h2.5c2.704 0 4.531-1.255 4.531-3.906 0-2.582-1.381-3.906-4.063-3.906-2.257 0-3.906 1.341-3.906 3.594h-4.375c0-2.327 1.18-3.836 2.344-5 1.551-1.241 3.265-2.031 5.938-2.031 4.007 0 6.31 1.527 7.656 4.219 0.469 0.938 0.625 1.875 0.625 3.125 0 2.842-1.927 4.636-3.906 5.625zM25 71.563l4.531-4.375 12.656 12.656-2.188 0.156c-20.938 0-38.125-16.25-39.844-36.719h5c1.25 12.5 8.906 23.125 19.844 28.281z"></path>
</svg>
