<?xml version="1.0" encoding="utf-8"?>
<!-- Generated by IcoMoon.io -->
<!DOCTYPE svg PUBLIC "-//W3C//DTD SVG 1.1//EN" "http://www.w3.org/Graphics/SVG/1.1/DTD/svg11.dtd">
<svg version="1.1" xmlns="http://www.w3.org/2000/svg" xmlns:xlink="http://www.w3.org/1999/xlink" width="80" height="80" viewBox="0 0 80 80">
<path d="M40 63.281c7.344 0 13.906-3.438 18.125-8.75l8.75 5.156c-6.094 8.281-15.781 13.594-26.875 13.594-18.438 0-33.281-14.844-33.281-33.281 0-17.344 13.125-31.406 30-33.125v10c-11.25 1.563-20 11.406-20 23.125 0 12.969 10.313 23.281 23.281 23.281zM43.281 6.875c16.875 1.719 30 15.781 30 33.125 0 4.844-0.938 9.531-2.813 13.594l-8.75-5.156c0.938-2.656 1.563-5.469 1.563-8.438 0-11.719-8.75-21.563-20-23.125v-10z"></path>
</svg>
