<?xml version="1.0" encoding="utf-8"?>
<!-- Generated by IcoMoon.io -->
<!DOCTYPE svg PUBLIC "-//W3C//DTD SVG 1.1//EN" "http://www.w3.org/Graphics/SVG/1.1/DTD/svg11.dtd">
<svg version="1.1" xmlns="http://www.w3.org/2000/svg" xmlns:xlink="http://www.w3.org/1999/xlink" width="80" height="80" viewBox="0 0 80 80">
<path d="M40 0c-22.091 0-40 5.596-40 12.5v10c0 6.904 17.909 12.5 40 12.5s40-5.596 40-12.5v-10c0-6.904-17.909-12.5-40-12.5z"></path>
<path d="M40 42.5c-22.091 0-40-5.596-40-12.5v15c0 6.904 17.909 12.5 40 12.5s40-5.596 40-12.5v-15c0 6.904-17.909 12.5-40 12.5z"></path>
<path d="M40 65c-22.091 0-40-5.596-40-12.5v15c0 6.904 17.909 12.5 40 12.5s40-5.596 40-12.5v-15c0 6.904-17.909 12.5-40 12.5z"></path>
</svg>
