<?xml version="1.0" encoding="utf-8"?>
<!-- Generated by IcoMoon.io -->
<!DOCTYPE svg PUBLIC "-//W3C//DTD SVG 1.1//EN" "http://www.w3.org/Graphics/SVG/1.1/DTD/svg11.dtd">
<svg version="1.1" xmlns="http://www.w3.org/2000/svg" xmlns:xlink="http://www.w3.org/1999/xlink" width="80" height="80" viewBox="0 0 80 80">
<path d="M56.719 63.281v-6.563h6.563v13.281c0 3.594-2.969 6.719-6.563 6.719h-33.438c-3.594 0-6.563-3.125-6.563-6.719v-13.281h6.563v6.563h33.438zM33.281 50.625l-4.688 4.688-15.313-15.313 15.313-15.313 4.688 4.688-10.469 10.625zM51.406 55.313l-4.688-4.688 10.469-10.625-10.469-10.625 4.688-4.688 15.313 15.313zM23.281 16.719v6.563h-6.563v-13.281c0-3.594 2.969-6.719 6.563-6.719l33.438 0.156c3.594 0 6.563 2.969 6.563 6.563v13.281h-6.563v-6.563h-33.438z"></path>
</svg>
