<?xml version="1.0" encoding="utf-8"?>
<!-- Generated by IcoMoon.io -->
<!DOCTYPE svg PUBLIC "-//W3C//DTD SVG 1.1//EN" "http://www.w3.org/Graphics/SVG/1.1/DTD/svg11.dtd">
<svg version="1.1" xmlns="http://www.w3.org/2000/svg" xmlns:xlink="http://www.w3.org/1999/xlink" width="80" height="80" viewBox="0 0 80 80">
<path d="M40 36.719h13.281v20h-13.281v-20zM20 23.281h16.719v16.719h-16.719v-16.719zM40 23.281h13.281v10h-13.281v-10zM20 43.281h16.719v13.438h-16.719v-13.438zM60 63.281v-46.563h-46.719v46.563h46.719zM73.281 30h-6.563v6.719h6.563v6.563h-6.563v6.719h6.563v6.719h-6.563v6.563c0 3.594-3.125 6.719-6.719 6.719h-46.719c-3.594 0-6.563-3.125-6.563-6.719v-46.563c0-3.594 2.969-6.719 6.563-6.719h46.719c3.594 0 6.719 3.125 6.719 6.719v6.563h6.563v6.719z"></path>
</svg>
