<?xml version="1.0" encoding="utf-8"?>
<!-- Generated by IcoMoon.io -->
<!DOCTYPE svg PUBLIC "-//W3C//DTD SVG 1.1//EN" "http://www.w3.org/Graphics/SVG/1.1/DTD/svg11.dtd">
<svg version="1.1" xmlns="http://www.w3.org/2000/svg" xmlns:xlink="http://www.w3.org/1999/xlink" width="80" height="80" viewBox="0 0 80 80">
<path d="M70 60v-26.719h-13.281v26.719h13.281zM73.281 26.719c1.719 0 3.438 1.563 3.438 3.281v33.281c0 1.719-1.719 3.438-3.438 3.438h-20c-1.719 0-3.281-1.719-3.281-3.438v-33.281c0-1.719 1.563-3.281 3.281-3.281h20zM36.719 58.281c2.813 0 5-2.188 5-5s-2.188-5-5-5-5 2.188-5 5 2.188 5 5 5zM43.281 40v5.938c2.031 1.875 3.438 4.375 3.438 7.344s-1.406 5.625-3.438 7.5v5.938h-13.281v-5.938c-2.031-1.875-3.281-4.531-3.281-7.5s1.25-5.469 3.281-7.344v-5.938h13.281zM10 20v40h13.281v6.719h-13.281c-3.594 0-6.719-3.125-6.719-6.719v-40c0-3.594 3.125-6.719 6.719-6.719h60v6.719h-60z"></path>
</svg>
