<?xml version="1.0" encoding="utf-8"?>
<!-- Generated by IcoMoon.io -->
<!DOCTYPE svg PUBLIC "-//W3C//DTD SVG 1.1//EN" "http://www.w3.org/Graphics/SVG/1.1/DTD/svg11.dtd">
<svg version="1.1" xmlns="http://www.w3.org/2000/svg" xmlns:xlink="http://www.w3.org/1999/xlink" width="80" height="80" viewBox="0 0 80 80">
<path d="M40 3.281c3.594 0 6.719 3.125 6.719 6.719s-3.125 6.719-6.719 6.719-6.719-3.125-6.719-6.719 3.125-6.719 6.719-6.719zM40 23.281c3.594 0 6.719 3.125 6.719 6.719s-3.125 6.719-6.719 6.719-6.719-3.125-6.719-6.719 3.125-6.719 6.719-6.719zM60 23.281c3.594 0 6.719 3.125 6.719 6.719s-3.125 6.719-6.719 6.719-6.719-3.125-6.719-6.719 3.125-6.719 6.719-6.719zM60 43.281c3.594 0 6.719 3.125 6.719 6.719s-3.125 6.719-6.719 6.719-6.719-3.125-6.719-6.719 3.125-6.719 6.719-6.719zM40 43.281c3.594 0 6.719 3.125 6.719 6.719s-3.125 6.719-6.719 6.719-6.719-3.125-6.719-6.719 3.125-6.719 6.719-6.719zM60 16.719c-3.594 0-6.719-3.125-6.719-6.719s3.125-6.719 6.719-6.719 6.719 3.125 6.719 6.719-3.125 6.719-6.719 6.719zM20 43.281c3.594 0 6.719 3.125 6.719 6.719s-3.125 6.719-6.719 6.719-6.719-3.125-6.719-6.719 3.125-6.719 6.719-6.719zM20 23.281c3.594 0 6.719 3.125 6.719 6.719s-3.125 6.719-6.719 6.719-6.719-3.125-6.719-6.719 3.125-6.719 6.719-6.719zM20 3.281c3.594 0 6.719 3.125 6.719 6.719s-3.125 6.719-6.719 6.719-6.719-3.125-6.719-6.719 3.125-6.719 6.719-6.719zM40 63.281c3.594 0 6.719 3.125 6.719 6.719s-3.125 6.719-6.719 6.719-6.719-3.125-6.719-6.719 3.125-6.719 6.719-6.719z"></path>
</svg>
