<?xml version="1.0" encoding="utf-8"?>
<!-- Generated by IcoMoon.io -->
<!DOCTYPE svg PUBLIC "-//W3C//DTD SVG 1.1//EN" "http://www.w3.org/Graphics/SVG/1.1/DTD/svg11.dtd">
<svg version="1.1" xmlns="http://www.w3.org/2000/svg" xmlns:xlink="http://www.w3.org/1999/xlink" width="80" height="80" viewBox="0 0 80 80">
<path d="M67.5 15h-40c-6.875 0-12.5 5.625-12.5 12.5v40c0 6.875 5.625 12.5 12.5 12.5h40c6.875 0 12.5-5.625 12.5-12.5v-40c0-6.875-5.625-12.5-12.5-12.5zM32.5 70c-4.142 0-7.5-3.358-7.5-7.5s3.358-7.5 7.5-7.5 7.5 3.358 7.5 7.5-3.358 7.5-7.5 7.5zM32.5 40c-4.142 0-7.5-3.358-7.5-7.5s3.358-7.5 7.5-7.5 7.5 3.358 7.5 7.5-3.358 7.5-7.5 7.5zM47.5 55c-4.142 0-7.5-3.358-7.5-7.5s3.358-7.5 7.5-7.5 7.5 3.358 7.5 7.5-3.358 7.5-7.5 7.5zM62.5 70c-4.142 0-7.5-3.358-7.5-7.5s3.358-7.5 7.5-7.5 7.5 3.358 7.5 7.5-3.358 7.5-7.5 7.5zM62.5 40c-4.142 0-7.5-3.358-7.5-7.5s3.358-7.5 7.5-7.5 7.5 3.358 7.5 7.5-3.358 7.5-7.5 7.5zM64.747 10c-1.166-5.688-6.227-10-12.247-10h-40c-6.875 0-12.5 5.625-12.5 12.5v40c0 6.019 4.312 11.080 10 12.247v-49.747c0-2.75 2.25-5 5-5h49.747z"></path>
</svg>
