<?xml version="1.0" encoding="utf-8"?>
<!-- Generated by IcoMoon.io -->
<!DOCTYPE svg PUBLIC "-//W3C//DTD SVG 1.1//EN" "http://www.w3.org/Graphics/SVG/1.1/DTD/svg11.dtd">
<svg version="1.1" xmlns="http://www.w3.org/2000/svg" xmlns:xlink="http://www.w3.org/1999/xlink" width="80" height="80" viewBox="0 0 80 80">
<path d="M20 20v13.281l20-6.563 20 6.563v-13.281h-40zM13.125 63.281l-6.25-22.188c-0.747-2.242 0.623-3.697 2.188-4.219l4.219-1.406v-15.469c0-3.594 3.125-6.719 6.719-6.719h10v-10h20v10h10c3.594 0 6.719 3.125 6.719 6.719v15.469l4.219 1.406c1.566 0.522 2.935 1.975 2.188 4.219l-6.25 22.188h-0.156c-5.313 0-10.156-2.813-13.438-6.563-3.281 3.75-7.969 6.563-13.281 6.563s-10-2.813-13.281-6.563c-3.281 3.75-8.125 6.563-13.438 6.563h-0.156zM66.719 70h6.563v6.719h-6.563c-4.531 0-9.219-1.094-13.438-3.281-8.438 4.375-18.125 4.375-26.563 0-4.219 2.188-8.906 3.281-13.438 3.281h-6.563v-6.719h6.563c4.688 0 9.375-1.563 13.438-4.375 8.125 5.625 18.438 5.625 26.563 0 4.063 2.813 8.75 4.375 13.438 4.375z"></path>
</svg>
