<?xml version="1.0" encoding="utf-8"?>
<!-- Generated by IcoMoon.io -->
<!DOCTYPE svg PUBLIC "-//W3C//DTD SVG 1.1//EN" "http://www.w3.org/Graphics/SVG/1.1/DTD/svg11.dtd">
<svg version="1.1" xmlns="http://www.w3.org/2000/svg" xmlns:xlink="http://www.w3.org/1999/xlink" width="80" height="80" viewBox="0 0 80 80">
<path d="M63.281 68.281c6.406 0 11.719-5.156 11.719-11.563s-5.313-11.719-11.719-11.719-11.563 5.313-11.563 11.719 5.156 11.563 11.563 11.563zM63.281 40c9.375 0 16.719 7.344 16.719 16.719s-7.344 16.563-16.719 16.563-16.563-7.188-16.563-16.563 7.188-16.719 16.563-16.719zM35.938 35l7.344 7.656v20.625h-6.563v-16.563l-10.781-9.375c-1.406-0.938-1.875-2.656-1.875-4.688 0-1.719 0.469-3.281 1.875-4.688l9.375-9.375c0.938-1.406 2.656-1.875 4.688-1.875s3.594 0.469 5.313 1.875l6.406 6.406c2.969 2.969 6.875 5 11.875 5v6.719c-7.031 0-12.5-2.656-16.875-7.031l-2.656-2.656zM16.719 68.281c6.406 0 11.563-5.156 11.563-11.563s-5.156-11.719-11.563-11.719-11.719 5.313-11.719 11.719 5.313 11.563 11.719 11.563zM16.719 40c9.375 0 16.563 7.344 16.563 16.719s-7.188 16.563-16.563 16.563-16.719-7.188-16.719-16.563 7.344-16.719 16.719-16.719zM51.719 18.281c-3.594 0-6.719-2.969-6.719-6.563s3.125-6.719 6.719-6.719 6.563 3.125 6.563 6.719-2.969 6.563-6.563 6.563z"></path>
</svg>
