<?xml version="1.0" encoding="utf-8"?>
<!-- Generated by IcoMoon.io -->
<!DOCTYPE svg PUBLIC "-//W3C//DTD SVG 1.1//EN" "http://www.w3.org/Graphics/SVG/1.1/DTD/svg11.dtd">
<svg version="1.1" xmlns="http://www.w3.org/2000/svg" xmlns:xlink="http://www.w3.org/1999/xlink" width="80" height="80" viewBox="0 0 80 80">
<path d="M32.969 64.531l-23.281-4.531 1.25-6.719 16.406 3.281 5.313-27.031-6.094 2.344v11.406h-6.563v-15.625l17.344-7.344c0.938 0 1.719-0.313 2.656-0.313 2.344 0 4.219 1.25 5.625 3.281l3.281 5.313c2.656 4.688 7.969 7.969 14.375 7.969v6.719c-7.344 0-13.906-3.281-18.281-8.281l-2.031 10 7.031 6.563v25h-6.719v-20l-7.031-6.563zM45 18.281c-3.594 0-6.719-3.125-6.719-6.719s3.125-6.563 6.719-6.563 6.563 2.969 6.563 6.563-2.969 6.719-6.563 6.719z"></path>
</svg>
