<?xml version="1.0" encoding="utf-8"?>
<!-- Generated by IcoMoon.io -->
<!DOCTYPE svg PUBLIC "-//W3C//DTD SVG 1.1//EN" "http://www.w3.org/Graphics/SVG/1.1/DTD/svg11.dtd">
<svg version="1.1" xmlns="http://www.w3.org/2000/svg" xmlns:xlink="http://www.w3.org/1999/xlink" width="80" height="80" viewBox="0 0 80 80">
<path d="M60 36.719v-16.719h-40v16.719h40zM55 56.719c2.813 0 5-2.188 5-5s-2.188-5-5-5-5 2.188-5 5 2.188 5 5 5zM25 56.719c2.813 0 5-2.188 5-5s-2.188-5-5-5-5 2.188-5 5 2.188 5 5 5zM13.281 53.281v-33.281c0-11.719 12.031-13.281 26.719-13.281s26.719 1.563 26.719 13.281v33.281c0 2.969-1.406 5.625-3.438 7.5v5.938c0 1.875-1.406 3.281-3.281 3.281h-3.281c-1.875 0-3.438-1.406-3.438-3.281v-3.438h-26.563v3.438c0 1.875-1.563 3.281-3.438 3.281h-3.281c-1.875 0-3.281-1.406-3.281-3.281v-5.938c-2.031-1.875-3.438-4.531-3.438-7.5z"></path>
</svg>
