<?xml version="1.0" encoding="utf-8"?>
<!-- Generated by IcoMoon.io -->
<!DOCTYPE svg PUBLIC "-//W3C//DTD SVG 1.1//EN" "http://www.w3.org/Graphics/SVG/1.1/DTD/svg11.dtd">
<svg version="1.1" xmlns="http://www.w3.org/2000/svg" xmlns:xlink="http://www.w3.org/1999/xlink" width="80" height="80" viewBox="0 0 80 80">
<path d="M60 33.281v-16.563h-40v16.563h40zM40 56.719c3.594 0 6.719-3.125 6.719-6.719s-3.125-6.719-6.719-6.719-6.719 3.125-6.719 6.719 3.125 6.719 6.719 6.719zM13.281 51.719v-35c0-11.719 12.031-13.438 26.719-13.438s26.719 1.719 26.719 13.438v35c0 6.406-5.313 11.563-11.719 11.563l5 5v1.719h-40v-1.719l5-5c-6.406 0-11.719-5.156-11.719-11.563z"></path>
</svg>
