<?xml version="1.0" encoding="utf-8"?>
<!-- Generated by IcoMoon.io -->
<!DOCTYPE svg PUBLIC "-//W3C//DTD SVG 1.1//EN" "http://www.w3.org/Graphics/SVG/1.1/DTD/svg11.dtd">
<svg version="1.1" xmlns="http://www.w3.org/2000/svg" xmlns:xlink="http://www.w3.org/1999/xlink" width="80" height="80" viewBox="0 0 80 80">
<path d="M16.719 36.719h46.563l-5-15h-36.563zM58.281 53.281c2.813 0 5-2.188 5-5s-2.188-5-5-5-5 2.188-5 5 2.188 5 5 5zM21.719 53.281c2.813 0 5-2.188 5-5s-2.188-5-5-5-5 2.188-5 5 2.188 5 5 5zM63.125 20l6.875 20v26.719c0 1.875-1.406 3.281-3.281 3.281h-3.438c-1.875 0-3.281-1.406-3.281-3.281v-3.438h-40v3.438c0 1.875-1.406 3.281-3.281 3.281h-3.438c-1.875 0-3.281-1.406-3.281-3.281v-26.719l6.875-20c0.625-2.031 2.656-3.281 4.844-3.281h36.563c2.188 0 4.219 1.25 4.844 3.281z"></path>
</svg>
