<?xml version="1.0" encoding="utf-8"?>
<!-- Generated by IcoMoon.io -->
<!DOCTYPE svg PUBLIC "-//W3C//DTD SVG 1.1//EN" "http://www.w3.org/Graphics/SVG/1.1/DTD/svg11.dtd">
<svg version="1.1" xmlns="http://www.w3.org/2000/svg" xmlns:xlink="http://www.w3.org/1999/xlink" width="80" height="80" viewBox="0 0 80 80">
<path d="M32.656 29.688l-9.375 47.031h7.031l6.094-26.719 6.875 6.719v20h6.719v-25l-7.031-6.719 2.031-10c4.375 5 10.938 8.281 18.281 8.281v-6.563c-6.406 0-11.563-3.438-14.219-8.125l-3.438-5.313c-1.406-2.031-3.281-3.281-5.625-3.281-0.938 0-1.719 0.313-2.656 0.313l-17.344 7.344v15.625h6.719v-11.25l5.938-2.344zM45 18.281c-3.594 0-6.719-2.969-6.719-6.563s3.125-6.719 6.719-6.719 6.719 3.125 6.719 6.719-3.125 6.563-6.719 6.563z"></path>
</svg>
