<?xml version="1.0" encoding="utf-8"?>
<!-- Generated by IcoMoon.io -->
<!DOCTYPE svg PUBLIC "-//W3C//DTD SVG 1.1//EN" "http://www.w3.org/Graphics/SVG/1.1/DTD/svg11.dtd">
<svg version="1.1" xmlns="http://www.w3.org/2000/svg" xmlns:xlink="http://www.w3.org/1999/xlink" width="80" height="80" viewBox="0 0 80 80">
<path d="M23.281 30c3.594 0 6.719-3.125 6.719-6.719s-3.125-6.563-6.719-6.563-6.563 2.969-6.563 6.563 2.969 6.719 6.563 6.719zM66.719 10c1.875 0 3.281 1.406 3.281 3.281v20c0 1.875-1.406 3.438-3.281 3.438h-53.438c-1.875 0-3.281-1.563-3.281-3.438v-20c0-1.875 1.406-3.281 3.281-3.281h53.438zM23.281 63.281c3.594 0 6.719-2.969 6.719-6.563s-3.125-6.719-6.719-6.719-6.563 3.125-6.563 6.719 2.969 6.563 6.563 6.563zM66.719 43.281c1.875 0 3.281 1.563 3.281 3.438v20c0 1.875-1.406 3.281-3.281 3.281h-53.438c-1.875 0-3.281-1.406-3.281-3.281v-20c0-1.875 1.406-3.438 3.281-3.438h53.438z"></path>
</svg>
