<?xml version="1.0" encoding="utf-8"?>
<!-- Generated by IcoMoon.io -->
<!DOCTYPE svg PUBLIC "-//W3C//DTD SVG 1.1//EN" "http://www.w3.org/Graphics/SVG/1.1/DTD/svg11.dtd">
<svg version="1.1" xmlns="http://www.w3.org/2000/svg" xmlns:xlink="http://www.w3.org/1999/xlink" width="80" height="80" viewBox="0 0 80 80">
<path d="M23.281 43.281h11.563l-6.719-6.563h-4.844v6.563zM7.5 7.5l65 65-4.375 4.219-9.219-9.375c-5.313 3.75-11.875 5.938-18.906 5.938-18.438 0-33.281-14.844-33.281-33.281 0-7.031 2.188-13.594 5.938-18.906l-9.375-9.219zM56.719 36.719h-11.563l-24.063-24.063c5.313-3.75 11.875-5.938 18.906-5.938 18.438 0 33.281 14.844 33.281 33.281 0 7.031-2.188 13.594-5.938 18.906l-15.469-15.625h4.844v-6.563z"></path>
</svg>
