<?xml version="1.0" encoding="utf-8"?>
<!-- Generated by IcoMoon.io -->
<!DOCTYPE svg PUBLIC "-//W3C//DTD SVG 1.1//EN" "http://www.w3.org/Graphics/SVG/1.1/DTD/svg11.dtd">
<svg version="1.1" xmlns="http://www.w3.org/2000/svg" xmlns:xlink="http://www.w3.org/1999/xlink" width="80" height="80" viewBox="0 0 80 80">
<path d="M40 66.719c14.688 0 26.719-12.031 26.719-26.719 0-5.938-2.188-11.719-5.781-16.406l-37.344 37.344c4.688 3.594 10.469 5.781 16.406 5.781zM13.281 40c0 5.938 2.188 11.719 5.781 16.406l37.344-37.344c-4.688-3.594-10.469-5.781-16.406-5.781-14.688 0-26.719 12.031-26.719 26.719zM40 6.719c18.281 0 33.281 15 33.281 33.281s-15 33.281-33.281 33.281-33.281-15-33.281-33.281 15-33.281 33.281-33.281z"></path>
</svg>
