<?xml version="1.0" encoding="utf-8"?>
<!-- Generated by IcoMoon.io -->
<!DOCTYPE svg PUBLIC "-//W3C//DTD SVG 1.1//EN" "http://www.w3.org/Graphics/SVG/1.1/DTD/svg11.dtd">
<svg version="1.1" xmlns="http://www.w3.org/2000/svg" xmlns:xlink="http://www.w3.org/1999/xlink" width="80" height="80" viewBox="0 0 80 80">
<path d="M60 50v6.719h-6.719v-6.719h6.719zM60 36.719v6.563h-6.719v-6.563h6.719zM66.719 63.281v-33.281h-26.719v6.719h6.719v6.563h-6.719v6.719h6.719v6.719h-6.719v6.563h26.719zM33.281 23.281v-6.563h-6.563v6.563h6.563zM33.281 36.719v-6.719h-6.563v6.719h6.563zM33.281 50v-6.719h-6.563v6.719h6.563zM33.281 63.281v-6.563h-6.563v6.563h6.563zM20 23.281v-6.563h-6.719v6.563h6.719zM20 36.719v-6.719h-6.719v6.719h6.719zM20 50v-6.719h-6.719v6.719h6.719zM20 63.281v-6.563h-6.719v6.563h6.719zM40 23.281h33.281v46.719h-66.563v-60h33.281v13.281z"></path>
</svg>
