<?xml version="1.0" encoding="utf-8"?>
<!-- Generated by IcoMoon.io -->
<!DOCTYPE svg PUBLIC "-//W3C//DTD SVG 1.1//EN" "http://www.w3.org/Graphics/SVG/1.1/DTD/svg11.dtd">
<svg version="1.1" xmlns="http://www.w3.org/2000/svg" xmlns:xlink="http://www.w3.org/1999/xlink" width="80" height="80" viewBox="0 0 80 80">
<path d="M79.452 50.938l-20-25c-0.475-0.593-1.193-0.938-1.952-0.938h-35c-0.759 0-1.478 0.345-1.952 0.938l-20 25c-0.355 0.443-0.548 0.994-0.548 1.562v22.5c0 2.761 2.239 5 5 5h70c2.762 0 5-2.239 5-5v-22.5c0-0.568-0.193-1.118-0.548-1.562zM75 55h-17.5l-10 10h-15l-10-10h-17.5v-1.623l18.702-23.377h32.597l18.702 23.377v1.623z"></path>
</svg>
