<?xml version="1.0" encoding="utf-8"?>
<!-- Generated by IcoMoon.io -->
<!DOCTYPE svg PUBLIC "-//W3C//DTD SVG 1.1//EN" "http://www.w3.org/Graphics/SVG/1.1/DTD/svg11.dtd">
<svg version="1.1" xmlns="http://www.w3.org/2000/svg" xmlns:xlink="http://www.w3.org/1999/xlink" width="80" height="80" viewBox="0 0 80 80">
<path d="M40 80c-22.063 0-40-17.938-40-40s17.938-40 40-40c22.063 0 40 17.938 40 40s-17.938 40-40 40v0zM73.734 45.469c-1.172-0.375-10.578-3.172-21.281-1.453 4.469 12.281 6.281 22.281 6.641 24.359 7.656-5.187 13.125-13.391 14.641-22.906v0zM53.344 71.5c-0.516-3-2.484-13.438-7.281-25.906-0.078 0.031-0.156 0.047-0.219 0.078-19.281 6.719-26.203 20.078-26.813 21.328 5.797 4.516 13.078 7.219 20.969 7.219 4.734 0 9.25-0.969 13.344-2.719v0zM14.609 62.891c0.781-1.328 10.156-16.844 27.766-22.547 0.438-0.141 0.891-0.281 1.344-0.406-0.859-1.938-1.797-3.891-2.766-5.797-17.047 5.109-33.609 4.891-35.109 4.875-0.016 0.344-0.016 0.688-0.016 1.047 0 8.766 3.328 16.781 8.781 22.828v0zM6.563 33.047c1.531 0.016 15.609 0.078 31.594-4.156-5.656-10.063-11.766-18.531-12.672-19.766-9.563 4.516-16.719 13.328-18.922 23.922v0zM32 6.828c0.938 1.266 7.156 9.719 12.75 20 12.156-4.547 17.297-11.469 17.906-12.344-6.031-5.359-13.969-8.609-22.656-8.609-2.75 0.016-5.438 0.344-8 0.953v0zM66.453 18.453c-0.719 0.969-6.453 8.313-19.078 13.469 0.797 1.625 1.563 3.281 2.266 4.953 0.25 0.594 0.5 1.172 0.734 1.766 11.375-1.422 22.672 0.859 23.797 1.094-0.078-8.062-2.969-15.469-7.719-21.281v0z"></path>
</svg>
