<?xml version="1.0" encoding="utf-8"?>
<!-- Generated by IcoMoon.io -->
<!DOCTYPE svg PUBLIC "-//W3C//DTD SVG 1.1//EN" "http://www.w3.org/Graphics/SVG/1.1/DTD/svg11.dtd">
<svg version="1.1" xmlns="http://www.w3.org/2000/svg" xmlns:xlink="http://www.w3.org/1999/xlink" width="80" height="80" viewBox="0 0 80 80">
<path d="M67.549 36.966c-5.137-14.331-16.024-27.199-27.549-36.966-11.525 9.767-22.412 22.635-27.549 36.966-3.177 8.862-3.491 18.481 0.983 26.984 5.144 9.777 15.518 16.050 26.566 16.050s21.422-6.273 26.566-16.050c4.474-8.503 4.16-18.122 0.983-26.984zM57.716 59.293c-3.422 6.504-10.376 10.707-17.716 10.707-4.306 0-8.478-1.448-11.884-3.957 1.035 0.135 2.081 0.207 3.134 0.207 9.174 0 17.865-5.251 22.141-13.378 3.506-6.663 3.201-13.582 1.866-19.089 1.137 2.199 2.102 4.39 2.879 6.557 1.766 4.927 3.127 12.214-0.419 18.953z"></path>
</svg>
