<?xml version="1.0" encoding="utf-8"?>
<!-- Generated by IcoMoon.io -->
<!DOCTYPE svg PUBLIC "-//W3C//DTD SVG 1.1//EN" "http://www.w3.org/Graphics/SVG/1.1/DTD/svg11.dtd">
<svg version="1.1" xmlns="http://www.w3.org/2000/svg" xmlns:xlink="http://www.w3.org/1999/xlink" width="80" height="80" viewBox="0 0 80 80">
<path d="M23.281 40v6.719h-6.563v-6.719h6.563zM23.281 26.719v6.563h-6.563v-6.563h6.563zM63.281 40v6.719h-36.563v-6.719h36.563zM63.281 26.719v6.563h-36.563v-6.563h36.563zM70 56.719v-40h-60v40h60zM70 10c3.594 0 6.719 3.125 6.719 6.719l-0.156 40c0 3.594-2.969 6.563-6.563 6.563h-16.719v6.719h-26.563v-6.719h-16.719c-3.594 0-6.719-2.969-6.719-6.563v-40c0-3.594 3.125-6.719 6.719-6.719h60z"></path>
</svg>
