<?xml version="1.0" encoding="utf-8"?>
<!-- Generated by IcoMoon.io -->
<!DOCTYPE svg PUBLIC "-//W3C//DTD SVG 1.1//EN" "http://www.w3.org/Graphics/SVG/1.1/DTD/svg11.dtd">
<svg version="1.1" xmlns="http://www.w3.org/2000/svg" xmlns:xlink="http://www.w3.org/1999/xlink" width="80" height="80" viewBox="0 0 80 80">
<path d="M40 0c-22.091 0-40 17.909-40 40s17.909 40 40 40 40-17.909 40-40-17.909-40-40-40zM40 75c-4.919 0-9.599-1.017-13.846-2.848l18.215-20.491c0.407-0.458 0.631-1.049 0.631-1.661v-7.5c0-1.381-1.119-2.5-2.5-2.5-8.827 0-18.141-9.177-18.232-9.268-0.469-0.469-1.105-0.732-1.768-0.732h-10c-1.381 0-2.5 1.119-2.5 2.5v15c0 0.947 0.535 1.813 1.382 2.236l8.618 4.309v14.679c-9.067-6.325-15-16.831-15-28.724 0-5.368 1.21-10.454 3.37-15h9.13c0.663 0 1.299-0.263 1.768-0.732l10-10c0.469-0.469 0.732-1.105 0.732-1.768v-6.048c3.169-0.943 6.525-1.452 10-1.452 5.5 0 10.703 1.27 15.335 3.531-0.324 0.274-0.639 0.56-0.941 0.862-2.833 2.833-4.393 6.6-4.393 10.607s1.56 7.773 4.393 10.607c2.846 2.846 6.658 4.396 10.596 4.395 0.247 0 0.495-0.006 0.744-0.018 1.079 4.047 3.027 14.583-0.657 29.089-0.035 0.136-0.054 0.273-0.066 0.408-6.353 6.491-15.211 10.52-25.011 10.52z"></path>
</svg>
