<?xml version="1.0" encoding="utf-8"?>
<!-- Generated by IcoMoon.io -->
<!DOCTYPE svg PUBLIC "-//W3C//DTD SVG 1.1//EN" "http://www.w3.org/Graphics/SVG/1.1/DTD/svg11.dtd">
<svg version="1.1" xmlns="http://www.w3.org/2000/svg" xmlns:xlink="http://www.w3.org/1999/xlink" width="80" height="80" viewBox="0 0 80 80">
<path d="M1.203 35.516c2.344-18.5 14.969-35.281 37.594-35.516 13.656 0.266 24.891 6.453 31.578 18.25 3.359 6.156 4.406 12.625 4.625 19.766v8.391h-50.203c0.234 20.703 30.469 20 43.484 10.875v16.859c-7.625 4.578-24.922 8.672-38.313 3.406-11.406-4.281-19.531-16.219-19.484-27.703-0.375-14.891 7.406-24.75 19.484-30.359-2.563 3.172-4.516 6.672-5.531 12.734h28.344c0 0 1.656-16.938-16.047-16.938-16.688 0.578-28.719 10.281-35.531 20.234v0z"></path>
</svg>
