<?xml version="1.0" encoding="utf-8"?>
<!-- Generated by IcoMoon.io -->
<!DOCTYPE svg PUBLIC "-//W3C//DTD SVG 1.1//EN" "http://www.w3.org/Graphics/SVG/1.1/DTD/svg11.dtd">
<svg version="1.1" xmlns="http://www.w3.org/2000/svg" xmlns:xlink="http://www.w3.org/1999/xlink" width="80" height="80" viewBox="0 0 80 80">
<path d="M40 0c-22.091 0-40 17.909-40 40s17.909 40 40 40 40-17.909 40-40-17.909-40-40-40zM64.425 46.062c-2.875 11.15-12.919 18.938-24.424 18.938s-21.551-7.788-24.426-18.939c-0.487-1.887 0.653-3.819 2.54-4.307 0.29-0.075 0.588-0.113 0.886-0.113 1.611 0 3.018 1.092 3.421 2.654 2.071 8.027 9.3 13.634 17.579 13.634s15.508-5.606 17.578-13.634c0.403-1.563 1.809-2.655 3.419-2.655 0.299 0 0.598 0.038 0.889 0.114 0.913 0.236 1.682 0.814 2.162 1.628s0.614 1.765 0.377 2.679z"></path>
</svg>
