<?xml version="1.0" encoding="utf-8"?>
<!-- Generated by IcoMoon.io -->
<!DOCTYPE svg PUBLIC "-//W3C//DTD SVG 1.1//EN" "http://www.w3.org/Graphics/SVG/1.1/DTD/svg11.dtd">
<svg version="1.1" xmlns="http://www.w3.org/2000/svg" xmlns:xlink="http://www.w3.org/1999/xlink" width="80" height="80" viewBox="0 0 80 80">
<path d="M72.5 10h-65c-4.125 0-7.5 3.375-7.5 7.5v50c0 4.125 3.375 7.5 7.5 7.5h65c4.125 0 7.5-3.375 7.5-7.5v-50c0-4.125-3.375-7.5-7.5-7.5zM31.152 42.998l-21.152 16.476v-39.191l21.152 22.715zM13.78 20h52.441l-26.22 19.688-26.22-19.688zM31.976 43.883l8.024 8.617 8.024-8.617 16.45 21.117h-48.947l16.449-21.117zM48.848 42.998l21.152-22.715v39.191l-21.152-16.476z"></path>
</svg>
