<?xml version="1.0" encoding="utf-8"?>
<!-- Generated by IcoMoon.io -->
<!DOCTYPE svg PUBLIC "-//W3C//DTD SVG 1.1//EN" "http://www.w3.org/Graphics/SVG/1.1/DTD/svg11.dtd">
<svg version="1.1" xmlns="http://www.w3.org/2000/svg" xmlns:xlink="http://www.w3.org/1999/xlink" width="80" height="80" viewBox="0 0 80 80">
<path d="M70 35h1.25c2.063 0 3.75-1.688 3.75-3.75v-12.5c0-2.063-1.688-3.75-3.75-3.75h-1.25v-15h-10v15h-1.25c-2.063 0-3.75 1.688-3.75 3.75v12.5c0 2.063 1.688 3.75 3.75 3.75h1.25v45h10v-45zM60 20h10v10h-10v-10zM46.25 65c2.063 0 3.75-1.688 3.75-3.75v-12.5c0-2.063-1.688-3.75-3.75-3.75h-1.25v-45h-10v45h-1.25c-2.063 0-3.75 1.688-3.75 3.75v12.5c0 2.063 1.688 3.75 3.75 3.75h1.25v15h10v-15h1.25zM35 50h10v10h-10v-10zM21.25 35c2.063 0 3.75-1.688 3.75-3.75v-12.5c0-2.063-1.688-3.75-3.75-3.75h-1.25v-15h-10v15h-1.25c-2.063 0-3.75 1.688-3.75 3.75v12.5c0 2.063 1.688 3.75 3.75 3.75h1.25v45h10v-45h1.25zM10 20h10v10h-10v-10z"></path>
</svg>
