<?xml version="1.0" encoding="utf-8"?>
<!-- Generated by IcoMoon.io -->
<!DOCTYPE svg PUBLIC "-//W3C//DTD SVG 1.1//EN" "http://www.w3.org/Graphics/SVG/1.1/DTD/svg11.dtd">
<svg version="1.1" xmlns="http://www.w3.org/2000/svg" xmlns:xlink="http://www.w3.org/1999/xlink" width="80" height="80" viewBox="0 0 80 80">
<path d="M35 10v-1.25c0-2.063-1.688-3.75-3.75-3.75h-12.5c-2.063 0-3.75 1.688-3.75 3.75v1.25h-15v10h15v1.25c0 2.063 1.688 3.75 3.75 3.75h12.5c2.063 0 3.75-1.688 3.75-3.75v-1.25h45v-10h-45zM20 20v-10h10v10h-10zM65 33.75c0-2.063-1.688-3.75-3.75-3.75h-12.5c-2.063 0-3.75 1.688-3.75 3.75v1.25h-45v10h45v1.25c0 2.063 1.688 3.75 3.75 3.75h12.5c2.063 0 3.75-1.688 3.75-3.75v-1.25h15v-10h-15v-1.25zM50 45v-10h10v10h-10zM35 58.75c0-2.063-1.688-3.75-3.75-3.75h-12.5c-2.063 0-3.75 1.688-3.75 3.75v1.25h-15v10h15v1.25c0 2.063 1.688 3.75 3.75 3.75h12.5c2.063 0 3.75-1.688 3.75-3.75v-1.25h45v-10h-45v-1.25zM20 70v-10h10v10h-10z"></path>
</svg>
