<?xml version="1.0" encoding="utf-8"?>
<!-- Generated by IcoMoon.io -->
<!DOCTYPE svg PUBLIC "-//W3C//DTD SVG 1.1//EN" "http://www.w3.org/Graphics/SVG/1.1/DTD/svg11.dtd">
<svg version="1.1" xmlns="http://www.w3.org/2000/svg" xmlns:xlink="http://www.w3.org/1999/xlink" width="80" height="80" viewBox="0 0 80 80">
<path d="M50 61.719c5.469 0 10.313-2.031 14.063-5.313l5.938 5.938c-5.313 4.844-12.344 7.656-20 7.656-13.125 0-24.219-8.438-28.281-20h-11.719v-6.719h10.156c-0.156-1.094-0.156-2.188-0.156-3.281s0-2.188 0.156-3.281h-10.156v-6.719h11.719c4.063-11.563 15.156-20 28.281-20 7.656 0 14.688 2.813 20 7.656l-5.938 5.938c-3.75-3.281-8.75-5.313-14.063-5.313-8.281 0-15.625 4.844-19.219 11.719h19.219v6.719h-21.406c-0.156 1.094-0.313 2.188-0.313 3.281s0.156 2.188 0.313 3.281h21.406v6.719h-19.219c3.594 6.875 10.781 11.719 19.219 11.719z"></path>
</svg>
