<?xml version="1.0" encoding="utf-8"?>
<!-- Generated by IcoMoon.io -->
<!DOCTYPE svg PUBLIC "-//W3C//DTD SVG 1.1//EN" "http://www.w3.org/Graphics/SVG/1.1/DTD/svg11.dtd">
<svg version="1.1" xmlns="http://www.w3.org/2000/svg" xmlns:xlink="http://www.w3.org/1999/xlink" width="80" height="80" viewBox="0 0 80 80">
<path d="M80 5c0-3.556-0.744-6.938-2.082-10-2.623 6.003-7.535 10.776-13.632 13.217-6.734-5.153-15.151-8.217-24.285-8.217s-17.552 3.064-24.285 8.217c-6.098-2.441-11.009-7.214-13.632-13.217-1.338 3.063-2.082 6.444-2.082 10 0 5.748 1.941 11.041 5.202 15.264-3.31 5.824-5.202 12.559-5.202 19.736 0 22.091 17.909 40 40 40s40-17.909 40-40c0-7.178-1.892-13.913-5.202-19.736 3.261-4.223 5.202-9.516 5.202-15.264zM45.007 29.728c0.159-3.707 3.532-6.168 6.374-7.589 2.714-1.357 5.399-2.036 5.512-2.064 1.34-0.335 2.697 0.48 3.032 1.819s-0.48 2.697-1.819 3.032c-1.377 0.348-3.010 0.947-4.448 1.668 0.832 0.893 1.342 2.090 1.342 3.407 0 2.761-2.239 5-5 5s-5-2.239-5-5c0-0.091 0.003-0.182 0.008-0.272zM20.075 21.894c0.335-1.34 1.692-2.154 3.032-1.819 0.113 0.028 2.797 0.707 5.512 2.064 2.842 1.421 6.216 3.882 6.374 7.589 0.005 0.090 0.008 0.181 0.008 0.272 0 2.761-2.239 5-5 5s-5-2.239-5-5c0-1.317 0.51-2.514 1.342-3.407-1.439-0.721-3.071-1.32-4.448-1.668-1.339-0.335-2.154-1.692-1.819-3.032zM40 65c-9.102 0-17.067-4.865-21.44-12.136l6.432-3.859c3.060 5.090 8.636 8.495 15.008 8.495s11.947-3.406 15.008-8.495l6.432 3.859c-4.372 7.271-12.337 12.136-21.44 12.136z"></path>
</svg>
