<?xml version="1.0" encoding="utf-8"?>
<!-- Generated by IcoMoon.io -->
<!DOCTYPE svg PUBLIC "-//W3C//DTD SVG 1.1//EN" "http://www.w3.org/Graphics/SVG/1.1/DTD/svg11.dtd">
<svg version="1.1" xmlns="http://www.w3.org/2000/svg" xmlns:xlink="http://www.w3.org/1999/xlink" width="80" height="80" viewBox="0 0 80 80">
<path d="M6.719 36.719h26.563v6.563h-26.563v-6.563zM54.844 16.719c8.075 0 13.438 3.662 13.438 11.719 0 1.25-0.156 2.656-0.625 3.906s-0.938 2.656-1.719 3.906c-1.712 2.739-3.923 5.486-6.25 7.813l-9.531 10.313h19.844v5.625h-28.75v-5l13.906-15.156c2.113-2.113 3.474-3.967 4.844-6.25 0.793-1.322 1.094-2.426 1.094-4.375 0-0.938 0-2.031-0.313-2.813-0.931-2.328-2.68-4.063-5.938-4.063-4.756 0-7.188 2.886-7.188 7.656h-7.188c0-4.011 1.616-7.241 3.75-9.375 2.452-2.452 5.757-3.906 10.625-3.906z"></path>
</svg>
