<?xml version="1.0" encoding="utf-8"?>
<!-- Generated by IcoMoon.io -->
<!DOCTYPE svg PUBLIC "-//W3C//DTD SVG 1.1//EN" "http://www.w3.org/Graphics/SVG/1.1/DTD/svg11.dtd">
<svg version="1.1" xmlns="http://www.w3.org/2000/svg" xmlns:xlink="http://www.w3.org/1999/xlink" width="80" height="80" viewBox="0 0 80 80">
<path d="M26.719 23.281v13.438h13.281v6.563h-13.281v13.438h-6.719v-13.438h-13.281v-6.563h13.281v-13.438h6.719zM53.438 54.375h19.844v5.625h-28.75v-5l13.906-15.156c2.113-2.113 3.474-3.967 4.844-6.25 0.754-1.257 1.25-2.608 1.25-4.375 0-2.186-0.779-3.591-1.719-4.844-0.998-1.331-2.35-2.031-4.688-2.031-2.406 0-4.271 0.99-5.469 2.188-1.093 1.093-1.719 3.392-1.719 5.469h-7.188c0-4.011 1.616-7.241 3.75-9.375 1.25-1.25 2.656-2.344 4.531-2.969s3.906-0.938 6.25-0.938c2.188 0 3.906 0.313 5.625 0.781 1.563 0.625 3.125 1.25 4.219 2.344 2.094 1.795 3.594 4.843 3.594 8.594 0 3.16-1.15 5.652-2.5 7.813-0.781 1.25-1.563 2.656-2.656 3.906s-2.344 2.656-3.594 3.906z"></path>
</svg>
