<?xml version="1.0" encoding="utf-8"?>
<!-- Generated by IcoMoon.io -->
<!DOCTYPE svg PUBLIC "-//W3C//DTD SVG 1.1//EN" "http://www.w3.org/Graphics/SVG/1.1/DTD/svg11.dtd">
<svg version="1.1" xmlns="http://www.w3.org/2000/svg" xmlns:xlink="http://www.w3.org/1999/xlink" width="80" height="80" viewBox="0 0 80 80">
<path d="M46.719 33.75c0-4.032-0.226-6.666-1.719-8.906-0.625-0.938-1.406-1.406-2.188-1.875s-1.719-0.625-2.813-0.625-2.031 0.156-2.813 0.625-1.563 0.938-2.188 1.875c-1.49 2.235-1.719 4.879-1.719 8.906v8.906c0 5.362 0.728 9.187 3.906 11.094 0.781 0.469 1.719 0.625 2.813 0.625 2.62 0 3.876-0.97 5-2.656 1.386-2.079 1.875-5.376 1.875-9.063v-8.906h-0.156zM26.25 34.844c0-10.708 3.34-18.125 13.75-18.125 7.267 0 11.226 3.737 12.813 9.688 0.625 2.344 1.094 5 1.094 8.438v6.875h-0.156c0 6.209-1.201 10.785-3.75 14.063-1.25 1.406-2.656 2.656-4.375 3.281s-3.594 0.938-5.625 0.938-3.906-0.313-5.625-0.938-3.125-1.875-4.375-3.281c-2.726-3.067-3.75-8.009-3.75-14.063v-6.875z"></path>
</svg>
