<?xml version="1.0" encoding="utf-8"?>
<!-- Generated by IcoMoon.io -->
<!DOCTYPE svg PUBLIC "-//W3C//DTD SVG 1.1//EN" "http://www.w3.org/Graphics/SVG/1.1/DTD/svg11.dtd">
<svg version="1.1" xmlns="http://www.w3.org/2000/svg" xmlns:xlink="http://www.w3.org/1999/xlink" width="80" height="80" viewBox="0 0 80 80">
<path d="M68.281 36.719c4.531 0 8.438 3.75 8.438 8.281s-3.906 8.281-8.438 8.281h-5v13.438c0 3.594-2.969 6.563-6.563 6.563h-12.656v-5c0-5-4.063-8.906-9.063-8.906s-9.063 3.906-9.063 8.906v5h-12.656c-3.594 0-6.563-2.969-6.563-6.563v-12.656h5c5 0 8.906-4.063 8.906-9.063s-3.906-9.063-8.906-9.063h-5v-12.656c0-3.594 2.969-6.563 6.563-6.563h13.438v-5c0-4.531 3.75-8.438 8.281-8.438s8.281 3.906 8.281 8.438v5h13.438c3.594 0 6.563 2.969 6.563 6.563v13.438h5z"></path>
</svg>
