<?xml version="1.0" encoding="utf-8"?>
<!-- Generated by IcoMoon.io -->
<!DOCTYPE svg PUBLIC "-//W3C//DTD SVG 1.1//EN" "http://www.w3.org/Graphics/SVG/1.1/DTD/svg11.dtd">
<svg version="1.1" xmlns="http://www.w3.org/2000/svg" xmlns:xlink="http://www.w3.org/1999/xlink" width="80" height="80" viewBox="0 0 80 80">
<path d="M73.902 1.098c-1.465-1.464-3.839-1.464-5.303 0l-15.794 15.794c-4.058-1.231-8.355-1.892-12.804-1.892-17.447 0-32.569 10.16-40 25 3.213 6.416 7.863 11.956 13.517 16.179l-12.419 12.419c-1.465 1.465-1.465 3.839 0 5.303 0.732 0.732 1.692 1.098 2.652 1.098s1.919-0.366 2.652-1.098l67.5-67.5c1.464-1.465 1.464-3.839 0-5.303zM32.5 25c3.3 0 6.1 2.132 7.103 5.093l-9.51 9.51c-2.961-1.003-5.093-3.803-5.093-7.103 0-4.142 3.358-7.5 7.5-7.5zM8.603 40c2.992-4.728 6.975-8.744 11.675-11.742 0.306-0.195 0.615-0.385 0.927-0.57-0.778 2.135-1.204 4.439-1.204 6.843 0 4.288 1.35 8.261 3.648 11.517l-4.76 4.76c-4.097-2.878-7.594-6.553-10.286-10.808z"></path>
<path d="M60 34.531c0-2.122-0.332-4.167-0.945-6.086l-25.141 25.141c1.919 0.613 3.964 0.945 6.087 0.945 11.045 0 20-8.955 20-20z"></path>
<path d="M64.846 22.654l-5.419 5.419c0.099 0.061 0.198 0.122 0.296 0.185 4.7 2.998 8.683 7.014 11.675 11.742-2.992 4.728-6.975 8.744-11.675 11.742-5.906 3.767-12.726 5.758-19.722 5.758-3.021 0-6.008-0.372-8.903-1.097l-6.007 6.007c4.665 1.677 9.684 2.59 14.911 2.59 17.446 0 32.568-10.16 40-25-3.517-7.025-8.759-13-15.154-17.346z"></path>
</svg>
