<?xml version="1.0" encoding="utf-8"?>
<!-- Generated by IcoMoon.io -->
<!DOCTYPE svg PUBLIC "-//W3C//DTD SVG 1.1//EN" "http://www.w3.org/Graphics/SVG/1.1/DTD/svg11.dtd">
<svg version="1.1" xmlns="http://www.w3.org/2000/svg" xmlns:xlink="http://www.w3.org/1999/xlink" width="80" height="80" viewBox="0 0 80 80">
<path d="M40 15c-17.447 0-32.569 10.16-40 25 7.431 14.84 22.553 25 40 25s32.568-10.16 40-25c-7.431-14.84-22.554-25-40-25zM59.723 28.258c4.7 2.998 8.683 7.014 11.675 11.742-2.992 4.728-6.975 8.744-11.675 11.742-5.906 3.767-12.726 5.758-19.722 5.758s-13.817-1.991-19.723-5.758c-4.7-2.998-8.683-7.013-11.674-11.742 2.992-4.728 6.975-8.744 11.675-11.742 0.306-0.195 0.615-0.385 0.927-0.57-0.778 2.135-1.204 4.439-1.204 6.843 0 11.045 8.954 20 20 20s20-8.955 20-20c0-2.404-0.426-4.708-1.204-6.844 0.311 0.186 0.62 0.375 0.926 0.57v0zM40 32.5c0 4.142-3.358 7.5-7.5 7.5s-7.5-3.358-7.5-7.5 3.358-7.5 7.5-7.5 7.5 3.358 7.5 7.5z"></path>
</svg>
