<?xml version="1.0" encoding="utf-8"?>
<!-- Generated by IcoMoon.io -->
<!DOCTYPE svg PUBLIC "-//W3C//DTD SVG 1.1//EN" "http://www.w3.org/Graphics/SVG/1.1/DTD/svg11.dtd">
<svg version="1.1" xmlns="http://www.w3.org/2000/svg" xmlns:xlink="http://www.w3.org/1999/xlink" width="80" height="80" viewBox="0 0 80 80">
<path d="M77.071 2.929c-3.905-3.905-10.237-3.905-14.142 0l-13.447 13.447-9.482-9.482-10.607 10.607 8.315 8.315-36.884 36.884c-0.629 0.629-0.896 1.481-0.805 2.301h-0.019v12.5c0 1.381 1.119 2.5 2.5 2.5h12.5c0 0 0.208 0 0.313 0 0.72 0 1.44-0.275 1.989-0.824l36.884-36.884 8.315 8.315 10.607-10.607-9.482-9.482 13.447-13.447c3.905-3.905 3.905-10.237 0-14.142zM13.523 75h-8.523v-8.523l36.685-36.685 8.523 8.522-36.685 36.685z"></path>
</svg>
