<?xml version="1.0" encoding="utf-8"?>
<!-- Generated by IcoMoon.io -->
<!DOCTYPE svg PUBLIC "-//W3C//DTD SVG 1.1//EN" "http://www.w3.org/Graphics/SVG/1.1/DTD/svg11.dtd">
<svg version="1.1" xmlns="http://www.w3.org/2000/svg" xmlns:xlink="http://www.w3.org/1999/xlink" width="80" height="80" viewBox="0 0 80 80">
<path d="M40 66.719c14.688 0 26.719-12.031 26.719-26.719 0-2.656-0.469-5.156-1.094-7.5-2.344 0.625-4.844 0.781-7.5 0.781-11.25 0-21.094-5.469-27.188-14.063-3.281 7.969-9.688 14.531-17.5 17.969-0.156 0.938-0.156 1.875-0.156 2.813 0 14.688 12.031 26.719 26.719 26.719zM40 6.719c18.438 0 33.281 14.844 33.281 33.281s-14.844 33.281-33.281 33.281-33.281-14.844-33.281-33.281 14.844-33.281 33.281-33.281zM50 39.219c2.344 0 4.219 1.719 4.219 4.063s-1.875 4.219-4.219 4.219-4.219-1.875-4.219-4.219 1.875-4.063 4.219-4.063zM30 39.219c2.344 0 4.219 1.719 4.219 4.063s-1.875 4.219-4.219 4.219-4.219-1.875-4.219-4.219 1.875-4.063 4.219-4.063z"></path>
</svg>
