<?xml version="1.0" encoding="utf-8"?>
<!-- Generated by IcoMoon.io -->
<!DOCTYPE svg PUBLIC "-//W3C//DTD SVG 1.1//EN" "http://www.w3.org/Graphics/SVG/1.1/DTD/svg11.dtd">
<svg version="1.1" xmlns="http://www.w3.org/2000/svg" xmlns:xlink="http://www.w3.org/1999/xlink" width="80" height="80" viewBox="0 0 80 80">
<path d="M40.313 61.875c15.938-14.375 26.406-23.906 26.406-33.594 0-6.719-5-11.563-11.719-11.563-5.156 0-10.156 3.281-11.875 7.813h-6.25c-1.719-4.531-6.719-7.813-11.875-7.813-6.719 0-11.719 4.844-11.719 11.563 0 9.688 10.469 19.219 26.406 33.594l0.313 0.313zM55 10c10.313 0 18.281 7.969 18.281 18.281 0 12.656-11.25 22.813-28.438 38.438l-4.844 4.375-4.844-4.219c-17.188-15.625-28.438-25.938-28.438-38.594 0-10.313 7.969-18.281 18.281-18.281 5.781 0 11.406 2.813 15 7.031 3.594-4.219 9.219-7.031 15-7.031z"></path>
</svg>
