<?xml version="1.0" encoding="utf-8"?>
<!-- Generated by IcoMoon.io -->
<!DOCTYPE svg PUBLIC "-//W3C//DTD SVG 1.1//EN" "http://www.w3.org/Graphics/SVG/1.1/DTD/svg11.dtd">
<svg version="1.1" xmlns="http://www.w3.org/2000/svg" xmlns:xlink="http://www.w3.org/1999/xlink" width="80" height="80" viewBox="0 0 80 80">
<path d="M30 40c0-5.523 4.477-10 10-10s10 4.477 10 10c0 5.523-4.477 10-10 10s-10-4.477-10-10zM51.902 18.010c7.801 4.231 13.098 12.492 13.098 21.99s-5.297 17.759-13.098 21.99c3.443-5.479 5.598-13.302 5.598-21.99s-2.155-16.512-5.598-21.99zM22.5 40c0 8.688 2.155 16.512 5.598 21.99-7.801-4.231-13.098-12.492-13.098-21.99s5.297-17.759 13.098-21.99c-3.443 5.479-5.598 13.302-5.598 21.99zM7.5 40c0 13.43 4.25 25.483 10.988 33.728-11.117-7.105-18.488-19.556-18.488-33.728s7.371-26.623 18.488-33.728c-6.738 8.245-10.988 20.299-10.988 33.728zM61.512 6.272c11.117 7.105 18.488 19.556 18.488 33.728s-7.371 26.623-18.488 33.728c6.738-8.245 10.988-20.298 10.988-33.728s-4.25-25.483-10.988-33.728z"></path>
</svg>
