<?xml version="1.0" encoding="utf-8"?>
<!-- Generated by IcoMoon.io -->
<!DOCTYPE svg PUBLIC "-//W3C//DTD SVG 1.1//EN" "http://www.w3.org/Graphics/SVG/1.1/DTD/svg11.dtd">
<svg version="1.1" xmlns="http://www.w3.org/2000/svg" xmlns:xlink="http://www.w3.org/1999/xlink" width="80" height="80" viewBox="0 0 80 80">
<path d="M70 38.281v-3.281c0-2.813-2.188-5-5-5h-11.719v20h5v-6.719h3.906l2.813 6.719h5l-2.969-7.031c1.719-0.781 2.969-2.656 2.969-4.688zM42.031 50l5.938-20h-5l-3.438 11.406-3.281-11.406h-5l5.781 20h5zM26.719 45v-10c0-2.813-2.188-5-5-5h-11.719v20h11.719c2.813 0 5-2.188 5-5zM70 10c3.75 0 6.719 2.969 6.719 6.719v46.563c0 3.594-2.969 6.719-6.719 6.719h-60c-3.75 0-6.719-3.125-6.719-6.719v-46.563c0-3.75 2.969-6.719 6.719-6.719h60zM15 35h6.719v10h-6.719v-10zM58.281 35h6.719v3.281h-6.719v-3.281z"></path>
</svg>
