<?xml version="1.0" encoding="utf-8"?>
<!-- Generated by IcoMoon.io -->
<!DOCTYPE svg PUBLIC "-//W3C//DTD SVG 1.1//EN" "http://www.w3.org/Graphics/SVG/1.1/DTD/svg11.dtd">
<svg version="1.1" xmlns="http://www.w3.org/2000/svg" xmlns:xlink="http://www.w3.org/1999/xlink" width="80" height="80" viewBox="0 0 80 80">
<path d="M66.719 50v-20h-4.219v11.719l-8.281-11.719h-4.219v20h4.219v-11.719l8.438 11.719h4.063zM41.719 50v-20h-5v20h5zM30 38.281v-3.281c0-2.813-2.188-5-5-5h-11.719v20h5v-6.719h6.719c2.813 0 5-2.188 5-5zM66.719 13.281c3.75 0 6.563 2.969 6.563 6.719v40c0 3.75-2.813 6.719-6.563 6.719h-53.438c-3.75 0-6.563-2.969-6.563-6.719v-40c0-3.75 2.813-6.719 6.563-6.719h53.438zM18.281 35h6.719v3.281h-6.719v-3.281z"></path>
</svg>
