<?xml version="1.0" encoding="utf-8"?>
<!-- Generated by IcoMoon.io -->
<!DOCTYPE svg PUBLIC "-//W3C//DTD SVG 1.1//EN" "http://www.w3.org/Graphics/SVG/1.1/DTD/svg11.dtd">
<svg version="1.1" xmlns="http://www.w3.org/2000/svg" xmlns:xlink="http://www.w3.org/1999/xlink" width="80" height="80" viewBox="0 0 80 80">
<path d="M71.704 27.897c-1.735-2.367-4.154-5.133-6.811-7.789s-5.423-5.075-7.789-6.811c-4.029-2.955-5.984-3.296-7.103-3.296h-28.75c-3.446 0-6.25 2.804-6.25 6.25v57.5c0 3.446 2.804 6.25 6.25 6.25h47.5c3.446 0 6.25-2.804 6.25-6.25v-38.75c0-1.12-0.342-3.074-3.296-7.103zM61.357 23.643c2.398 2.398 4.281 4.562 5.67 6.357h-12.028v-12.027c1.795 1.389 3.959 3.272 6.357 5.67v0zM70 73.75c0 0.678-0.572 1.25-1.25 1.25h-47.5c-0.678 0-1.25-0.572-1.25-1.25v-57.5c0-0.678 0.572-1.25 1.25-1.25 0 0 28.747-0 28.75 0v17.5c0 1.381 1.119 2.5 2.5 2.5h17.5v38.75z"></path>
<path d="M47.103 3.297c-4.029-2.955-5.984-3.297-7.103-3.297h-28.75c-3.446 0-6.25 2.804-6.25 6.25v57.5c0 3.018 2.151 5.544 5 6.124v-63.624c0-0.678 0.572-1.25 1.25-1.25h38.037c-0.754-0.619-1.487-1.192-2.184-1.703z"></path>
</svg>
