<?xml version="1.0" encoding="utf-8"?>
<!-- Generated by IcoMoon.io -->
<!DOCTYPE svg PUBLIC "-//W3C//DTD SVG 1.1//EN" "http://www.w3.org/Graphics/SVG/1.1/DTD/svg11.dtd">
<svg version="1.1" xmlns="http://www.w3.org/2000/svg" xmlns:xlink="http://www.w3.org/1999/xlink" width="80" height="80" viewBox="0 0 80 80">
<path d="M65.782 46.053c-1.066-1.050-3.431-1.607-7.029-1.654-2.436-0.027-5.367 0.188-8.451 0.619-1.381-0.797-2.804-1.664-3.921-2.708-3.005-2.806-5.513-6.701-7.076-10.984 0.102-0.4 0.189-0.752 0.269-1.11 0 0 1.693-9.614 1.245-12.865-0.062-0.446-0.1-0.575-0.219-0.922l-0.147-0.378c-0.46-1.062-1.363-2.187-2.778-2.126l-0.853-0.027c-1.578 0-2.864 0.807-3.202 2.014-1.026 3.784 0.033 9.445 1.952 16.776l-0.491 1.194c-1.374 3.35-3.096 6.723-4.615 9.7l-0.197 0.387c-1.598 3.128-3.049 5.783-4.364 8.033l-1.357 0.718c-0.099 0.052-2.425 1.283-2.971 1.613-4.629 2.764-7.697 5.902-8.206 8.392-0.162 0.795-0.041 1.811 0.782 2.282l1.313 0.661c0.57 0.285 1.17 0.43 1.785 0.43 3.297 0 7.125-4.107 12.398-13.31 6.088-1.982 13.020-3.63 19.095-4.538 4.63 2.607 10.324 4.417 13.917 4.417 0.638 0 1.188-0.061 1.635-0.179 0.689-0.183 1.27-0.576 1.624-1.109 0.697-1.049 0.839-2.495 0.649-3.975-0.056-0.439-0.407-0.982-0.787-1.353zM16.535 63.597c0.601-1.644 2.981-4.894 6.5-7.778 0.221-0.179 0.766-0.69 1.265-1.164-3.68 5.869-6.144 8.208-7.766 8.942zM37.378 15.6c1.060 0 1.663 2.671 1.713 5.176s-0.536 4.262-1.262 5.563c-0.602-1.926-0.893-4.961-0.893-6.946 0 0-0.044-3.794 0.442-3.794v0zM31.16 49.804c0.738-1.322 1.506-2.715 2.291-4.194 1.913-3.618 3.122-6.45 4.022-8.777 1.79 3.257 4.019 6.025 6.639 8.243 0.327 0.277 0.673 0.555 1.037 0.832-5.329 1.054-9.935 2.337-13.99 3.895v0zM64.758 49.504c-0.324 0.203-1.254 0.32-1.852 0.32-1.93 0-4.318-0.882-7.666-2.318 1.287-0.095 2.466-0.144 3.524-0.144 1.936 0 2.509-0.008 4.402 0.474s1.917 1.464 1.592 1.667v0z"></path>
<path d="M71.704 17.897c-1.735-2.367-4.154-5.133-6.811-7.789s-5.423-5.075-7.789-6.811c-4.029-2.955-5.984-3.296-7.103-3.296h-38.75c-3.446 0-6.25 2.804-6.25 6.25v67.5c0 3.446 2.804 6.25 6.25 6.25h57.5c3.446 0 6.25-2.804 6.25-6.25v-48.75c0-1.12-0.342-3.074-3.296-7.103v0zM61.357 13.643c2.398 2.398 4.281 4.562 5.67 6.357h-12.028v-12.027c1.795 1.389 3.959 3.272 6.357 5.67v0zM70 73.75c0 0.678-0.572 1.25-1.25 1.25h-57.5c-0.678 0-1.25-0.572-1.25-1.25v-67.5c0-0.678 0.572-1.25 1.25-1.25 0 0 38.747-0 38.75 0v17.5c0 1.381 1.119 2.5 2.5 2.5h17.5v48.75z"></path>
</svg>
