<?xml version="1.0" encoding="utf-8"?>
<!-- Generated by IcoMoon.io -->
<!DOCTYPE svg PUBLIC "-//W3C//DTD SVG 1.1//EN" "http://www.w3.org/Graphics/SVG/1.1/DTD/svg11.dtd">
<svg version="1.1" xmlns="http://www.w3.org/2000/svg" xmlns:xlink="http://www.w3.org/1999/xlink" width="80" height="80" viewBox="0 0 80 80">
<path d="M71.704 17.897c-1.735-2.367-4.154-5.133-6.811-7.789s-5.423-5.075-7.789-6.811c-4.029-2.955-5.984-3.296-7.103-3.296h-38.75c-3.446 0-6.25 2.804-6.25 6.25v67.5c0 3.446 2.804 6.25 6.25 6.25h57.5c3.446 0 6.25-2.804 6.25-6.25v-48.75c0-1.12-0.342-3.074-3.296-7.103v0zM61.357 13.643c2.398 2.398 4.281 4.562 5.67 6.357h-12.028v-12.027c1.795 1.389 3.959 3.272 6.357 5.67v0zM70 73.75c0 0.678-0.572 1.25-1.25 1.25h-57.5c-0.678 0-1.25-0.572-1.25-1.25v-67.5c0-0.678 0.572-1.25 1.25-1.25 0 0 38.747-0 38.75 0v17.5c0 1.381 1.119 2.5 2.5 2.5h17.5v48.75z"></path>
<path d="M59.085 30.567c-0.579-0.475-1.341-0.665-2.075-0.518l-25 5c-1.169 0.234-2.010 1.26-2.010 2.452v18.506c-1.471-0.639-3.178-1.006-5-1.006-5.523 0-10 3.358-10 7.5s4.477 7.5 10 7.5 10-3.358 10-7.5v-17.95l20-4v10.456c-1.471-0.639-3.178-1.006-5-1.006-5.523 0-10 3.358-10 7.5s4.477 7.5 10 7.5 10-3.358 10-7.5v-25c0-0.749-0.336-1.458-0.915-1.933z"></path>
</svg>
