<?xml version="1.0" encoding="utf-8"?>
<!-- Generated by IcoMoon.io -->
<!DOCTYPE svg PUBLIC "-//W3C//DTD SVG 1.1//EN" "http://www.w3.org/Graphics/SVG/1.1/DTD/svg11.dtd">
<svg version="1.1" xmlns="http://www.w3.org/2000/svg" xmlns:xlink="http://www.w3.org/1999/xlink" width="80" height="80" viewBox="0 0 80 80">
<path d="M53.923 36.85c-4.74-2.238-10.779-2.689-15.221 0.473 5.402-0.516 11.325 0.378 15.243 4.463 3.75-4.303 9.697-5.11 15.075-4.667-4.491-2.98-10.408-2.58-15.096-0.269v0zM52.004 47.324c-5.342-0.123-10.503 1.81-14.93 4.696-8.373-3.562-18.964-2.9-26.094 3.045 2.057-0.073 4.063-0.582 6.098-0.843 7.436-0.741 15.358 1.105 20.977 6.236 2.326-3.402 5.597-6.113 9.348-7.806 4.928-2.384 10.481-2.632 15.845-2.697-3.257-2.238-7.392-2.653-11.245-2.631z"></path>
<path d="M71.704 17.897c-1.735-2.367-4.154-5.133-6.811-7.789s-5.423-5.075-7.789-6.811c-4.029-2.955-5.984-3.296-7.103-3.296h-38.75c-3.446 0-6.25 2.804-6.25 6.25v67.5c0 3.446 2.804 6.25 6.25 6.25h57.5c3.446 0 6.25-2.804 6.25-6.25v-48.75c0-1.12-0.342-3.074-3.296-7.103v0zM61.357 13.643c2.398 2.398 4.281 4.562 5.67 6.357h-12.028v-12.027c1.795 1.389 3.959 3.272 6.357 5.67v0zM70 73.75c0 0.678-0.572 1.25-1.25 1.25h-57.5c-0.678 0-1.25-0.572-1.25-1.25v-67.5c0-0.678 0.572-1.25 1.25-1.25 0 0 38.747-0 38.75 0v17.5c0 1.381 1.119 2.5 2.5 2.5h17.5v48.75z"></path>
</svg>
