<?xml version="1.0" encoding="utf-8"?>
<!-- Generated by IcoMoon.io -->
<!DOCTYPE svg PUBLIC "-//W3C//DTD SVG 1.1//EN" "http://www.w3.org/Graphics/SVG/1.1/DTD/svg11.dtd">
<svg version="1.1" xmlns="http://www.w3.org/2000/svg" xmlns:xlink="http://www.w3.org/1999/xlink" width="80" height="80" viewBox="0 0 80 80">
<path d="M49.983 37.179h3.454l-3.985 17.67-5.182-24.845h-8.324l-6.025 24.845-4.517-24.845h-8.703l8.835 39.991h8.503l5.96-23.649 5.332 23.649h7.839l10.127-39.991h-13.316v7.174z"></path>
<path d="M71.704 17.897c-1.735-2.367-4.154-5.133-6.811-7.789s-5.423-5.075-7.789-6.811c-4.029-2.955-5.984-3.296-7.103-3.296h-38.75c-3.446 0-6.25 2.804-6.25 6.25v67.5c0 3.446 2.804 6.25 6.25 6.25h57.5c3.446 0 6.25-2.804 6.25-6.25v-48.75c0-1.12-0.342-3.074-3.296-7.103v0zM61.357 13.643c2.398 2.398 4.281 4.562 5.67 6.357h-12.028v-12.027c1.795 1.389 3.959 3.272 6.357 5.67v0zM70 73.75c0 0.678-0.572 1.25-1.25 1.25h-57.5c-0.678 0-1.25-0.572-1.25-1.25v-67.5c0-0.678 0.572-1.25 1.25-1.25 0 0 38.747-0 38.75 0v17.5c0 1.381 1.119 2.5 2.5 2.5h17.5v48.75z"></path>
</svg>
