<?xml version="1.0" encoding="utf-8"?>
<!-- Generated by IcoMoon.io -->
<!DOCTYPE svg PUBLIC "-//W3C//DTD SVG 1.1//EN" "http://www.w3.org/Graphics/SVG/1.1/DTD/svg11.dtd">
<svg version="1.1" xmlns="http://www.w3.org/2000/svg" xmlns:xlink="http://www.w3.org/1999/xlink" width="80" height="80" viewBox="0 0 80 80">
<path d="M56.719 43.281c0 3.75-3.125 6.719-6.719 6.719h-13.281v-6.719h13.281v-6.563h-13.281v-20h20v6.563h-13.438v6.719h6.719c3.594 0 6.719 2.969 6.719 6.719v6.563zM10 16.719v53.281h53.281v6.719h-53.281c-3.594 0-6.719-3.125-6.719-6.719v-53.281h6.719zM70 56.719v-46.719h-46.719v46.719h46.719zM70 3.281c3.594 0 6.719 3.125 6.719 6.719v46.719c0 3.594-3.125 6.563-6.719 6.563h-46.719c-3.594 0-6.563-2.969-6.563-6.563v-46.719c0-3.594 2.969-6.719 6.563-6.719h46.719z"></path>
</svg>
