<?xml version="1.0" encoding="utf-8"?>
<!-- Generated by IcoMoon.io -->
<!DOCTYPE svg PUBLIC "-//W3C//DTD SVG 1.1//EN" "http://www.w3.org/Graphics/SVG/1.1/DTD/svg11.dtd">
<svg version="1.1" xmlns="http://www.w3.org/2000/svg" xmlns:xlink="http://www.w3.org/1999/xlink" width="80" height="80" viewBox="0 0 80 80">
<path d="M18.906 65.781l4.688-4.688c3.75 2.813 8.281 4.688 13.125 5.313v6.719c-6.719-0.625-12.813-3.281-17.813-7.344zM43.281 66.406c4.844-0.625 9.375-2.5 12.969-5.313l4.844 4.688c-5 4.063-11.094 6.719-17.813 7.344v-6.719zM61.094 56.406c2.813-3.75 4.688-8.125 5.313-12.969h6.719c-0.625 6.719-3.281 12.656-7.344 17.656zM50 40c0 5.469-4.531 10-10 10s-10-4.531-10-10 4.531-10 10-10 10 4.531 10 10zM13.594 43.281c0.625 4.844 2.5 9.375 5.313 12.969l-4.688 4.844c-4.063-5-6.719-11.094-7.344-17.813h6.719zM18.906 23.594c-2.813 3.75-4.688 8.281-5.313 13.125h-6.719c0.625-6.719 3.281-12.813 7.344-17.813zM66.406 36.719c-0.625-4.844-2.5-9.375-5.313-13.125l4.688-4.688c4.063 5 6.719 11.094 7.344 17.813h-6.719zM61.094 14.219l-4.688 4.688c-3.75-2.813-8.281-4.688-13.125-5.313v-6.719c6.719 0.625 12.813 3.281 17.813 7.344zM36.719 13.594c-4.844 0.625-9.375 2.5-13.125 5.313l-4.688-4.688c5-4.063 11.094-6.719 17.813-7.344v6.719z"></path>
</svg>
