<?xml version="1.0" encoding="utf-8"?>
<!-- Generated by IcoMoon.io -->
<!DOCTYPE svg PUBLIC "-//W3C//DTD SVG 1.1//EN" "http://www.w3.org/Graphics/SVG/1.1/DTD/svg11.dtd">
<svg version="1.1" xmlns="http://www.w3.org/2000/svg" xmlns:xlink="http://www.w3.org/1999/xlink" width="80" height="80" viewBox="0 0 80 80">
<path d="M40 53.281c7.344 0 13.281-5.938 13.281-13.281s-5.938-13.281-13.281-13.281-13.281 5.938-13.281 13.281 5.938 13.281 13.281 13.281zM7.656 58.594c0-7.69 4.9-15.956 12.813-18.594-0.938-0.313-1.875-0.938-2.813-1.406-6.406-3.75-10-10.313-10-17.188 5.938-3.438 13.594-3.75 20 0 0.938 0.469 1.875 1.094 2.656 1.719-0.156-1.094-0.313-2.031-0.313-3.125 0-7.344 4.063-13.906 10-17.344 5.938 3.438 10 10 10 17.344 0 1.094-0.156 2.031-0.313 3.125 0.781-0.625 1.719-1.25 2.656-1.719 6.406-3.75 14.063-3.438 20 0 0 6.875-3.594 13.438-10 17.188-0.938 0.469-1.875 1.094-2.813 1.406 0.938 0.313 1.875 0.938 2.813 1.406 6.406 3.75 10 10.313 10 17.188-5.938 3.438-13.594 3.75-20 0-0.938-0.469-1.875-1.094-2.656-1.719 0.156 1.094 0.313 2.031 0.313 3.125 0 7.344-4.063 13.906-10 17.344-5.938-3.438-10-10-10-17.344 0-1.094 0.156-2.031 0.313-3.125-0.781 0.625-1.719 1.25-2.656 1.719-6.406 3.75-14.063 3.438-20 0z"></path>
</svg>
