<?xml version="1.0" encoding="utf-8"?>
<!-- Generated by IcoMoon.io -->
<!DOCTYPE svg PUBLIC "-//W3C//DTD SVG 1.1//EN" "http://www.w3.org/Graphics/SVG/1.1/DTD/svg11.dtd">
<svg version="1.1" xmlns="http://www.w3.org/2000/svg" xmlns:xlink="http://www.w3.org/1999/xlink" width="80" height="80" viewBox="0 0 80 80">
<path d="M40 0c-22.091 0-40 5.596-40 12.5v7.5l30 30v25c0 2.761 4.477 5 10 5s10-2.239 10-5v-25l30-30v-7.5c0-6.904-17.909-12.5-40-12.5zM7.374 10.846c1.871-1.067 4.499-2.080 7.6-2.929 6.871-1.881 15.758-2.917 25.026-2.917s18.156 1.036 25.026 2.917c3.101 0.849 5.729 1.862 7.6 2.929 1.234 0.704 1.9 1.299 2.211 1.654-0.31 0.356-0.977 0.951-2.211 1.654-1.871 1.067-4.499 2.080-7.6 2.929-6.87 1.881-15.758 2.917-25.026 2.917s-18.156-1.036-25.026-2.917c-3.101-0.849-5.729-1.862-7.6-2.929-1.234-0.704-1.9-1.299-2.211-1.654 0.31-0.356 0.977-0.951 2.211-1.654z"></path>
</svg>
