<?xml version="1.0" encoding="utf-8"?>
<!-- Generated by IcoMoon.io -->
<!DOCTYPE svg PUBLIC "-//W3C//DTD SVG 1.1//EN" "http://www.w3.org/Graphics/SVG/1.1/DTD/svg11.dtd">
<svg version="1.1" xmlns="http://www.w3.org/2000/svg" xmlns:xlink="http://www.w3.org/1999/xlink" width="80" height="80" viewBox="0 0 80 80">
<path d="M30 43.281c0-5.469 4.531-10 10-10s10 4.531 10 10-4.531 10-10 10-10-4.531-10-10zM66.719 65.313l-12.813-12.813c1.719-2.656 2.813-5.781 2.813-9.219 0-9.219-7.5-16.563-16.719-16.563s-16.719 7.344-16.719 16.563 7.5 16.719 16.719 16.719c3.438 0 6.563-1.094 9.219-2.813l14.688 14.844c-1.094 0.781-2.344 1.25-3.906 1.25h-40c-3.594 0-6.719-2.969-6.719-6.563l0.156-53.438c0-3.594 2.969-6.563 6.563-6.563h26.719l20 20v38.594z"></path>
</svg>
