<?xml version="1.0" encoding="utf-8"?>
<!-- Generated by IcoMoon.io -->
<!DOCTYPE svg PUBLIC "-//W3C//DTD SVG 1.1//EN" "http://www.w3.org/Graphics/SVG/1.1/DTD/svg11.dtd">
<svg version="1.1" xmlns="http://www.w3.org/2000/svg" xmlns:xlink="http://www.w3.org/1999/xlink" width="80" height="80" viewBox="0 0 80 80">
<path d="M44.471 60.801c-0-0.003-0-0.007-0-0.010 0 0.003 0 0.007 0 0.010z"></path>
<path d="M44.578 63.636c-0.001-0.018-0.002-0.036-0.003-0.055 0.001 0.018 0.002 0.036 0.003 0.055z"></path>
<path d="M44.517 62.212c-0-0.014-0.001-0.028-0.002-0.042 0.001 0.014 0.001 0.028 0.002 0.042z"></path>
<path d="M75 0h-70c-2.75 0-5 2.25-5 5v70c0 2.75 2.25 5 5 5h38.581c0.003 0 0.007 0 0.010 0s0.007-0 0.010-0h31.399c2.75 0 5-2.25 5-5v-70c0-2.75-2.25-5-5-5zM15 17.5c0-1.381 1.119-2.5 2.5-2.5s2.5 1.119 2.5 2.5v5c0 1.381-1.119 2.5-2.5 2.5s-2.5-1.119-2.5-2.5v-5zM75 75h-29.301c-0.523-3.288-0.852-6.678-1.046-9.969 0 0.009 0.001 0.018 0.001 0.027-1.539 0.168-3.092 0.255-4.654 0.255-10.441 0-20.499-3.801-28.319-10.704-1.165-1.028-1.275-2.805-0.248-3.97s2.805-1.275 3.97-0.247c6.792 5.994 15.527 9.296 24.597 9.296 1.491 0 2.973-0.091 4.439-0.267-0.171-9.234 0.537-16.556 0.549-16.672 0.070-0.703-0.16-1.402-0.634-1.926s-1.147-0.822-1.853-0.822h-7.435c0.108-2.704 0.397-7.329 1.169-12.515 1.474-9.903 4.062-17.638 7.512-22.485h31.255v70z"></path>
<path d="M62.5 25c-1.381 0-2.5-1.119-2.5-2.5v-5c0-1.381 1.119-2.5 2.5-2.5s2.5 1.119 2.5 2.5v5c0 1.381-1.119 2.5-2.5 2.5z"></path>
<path d="M42.226 65.252c-0.285 0.015-0.57 0.026-0.856 0.035 0.286-0.009 0.571-0.021 0.856-0.035z"></path>
<path d="M40 65.313c0.367 0 0.732-0.006 1.098-0.015-0.365 0.010-0.731 0.015-1.098 0.015z"></path>
<path d="M42.115 59.625c0.061-0.003 0.122-0.007 0.184-0.010-0.061 0.004-0.122 0.007-0.184 0.010z"></path>
<path d="M41.022 59.672c0.084-0.002 0.168-0.006 0.251-0.009-0.084 0.003-0.167 0.006-0.251 0.009z"></path>
<path d="M68.566 50.639c-1.028-1.165-2.805-1.275-3.97-0.247-5.675 5.009-12.708 8.136-20.158 9.029 0.034 1.819 0.101 3.711 0.215 5.637 8.746-0.954 17.015-4.579 23.665-10.449 1.165-1.028 1.275-2.805 0.248-3.97z"></path>
<path d="M44.648 65.058c-0.36 0.039-0.72 0.073-1.082 0.103 0.361-0.030 0.722-0.064 1.082-0.103z"></path>
<path d="M43.398 65.175c-0.305 0.024-0.611 0.045-0.917 0.063 0.306-0.018 0.612-0.039 0.917-0.063z"></path>
</svg>
