<?xml version="1.0" encoding="utf-8"?>
<!-- Generated by IcoMoon.io -->
<!DOCTYPE svg PUBLIC "-//W3C//DTD SVG 1.1//EN" "http://www.w3.org/Graphics/SVG/1.1/DTD/svg11.dtd">
<svg version="1.1" xmlns="http://www.w3.org/2000/svg" xmlns:xlink="http://www.w3.org/1999/xlink" width="80" height="80" viewBox="0 0 80 80">
<path d="M55.469 50.469l16.094 16.25-4.844 4.844-16.25-16.094c-3.906 2.813-8.594 4.531-13.75 4.531-6.406 0-12.344-2.656-16.563-6.875l-6.875 6.875v-20h20l-8.438 8.438c2.969 2.969 7.344 4.844 11.875 4.844 8.125 0 14.688-5.625 16.25-13.281h6.719c-0.469 3.906-2.031 7.5-4.219 10.469zM36.719 20c-8.125 0-14.844 5.625-16.406 13.281h-6.719c1.563-11.25 11.406-20 23.125-20 6.406 0 12.188 2.656 16.406 6.875l6.875-6.875v20h-20l8.438-8.438c-2.969-2.969-7.188-4.844-11.719-4.844z"></path>
</svg>
