<?xml version="1.0" encoding="utf-8"?>
<!-- Generated by IcoMoon.io -->
<!DOCTYPE svg PUBLIC "-//W3C//DTD SVG 1.1//EN" "http://www.w3.org/Graphics/SVG/1.1/DTD/svg11.dtd">
<svg version="1.1" xmlns="http://www.w3.org/2000/svg" xmlns:xlink="http://www.w3.org/1999/xlink" width="80" height="80" viewBox="0 0 80 80">
<path d="M49.688 73.281h-0.469c-5.313-1.406-8.75-3.438-12.344-7.031-4.688-4.688-7.188-10.781-7.188-17.344 0-5.469 4.531-9.844 10.156-9.844s10.313 4.375 10.313 9.844c0 3.594 2.969 6.406 6.875 6.406s7.031-2.813 7.031-6.406c0-12.5-10.938-22.813-24.219-22.813-9.531 0-18.125 5.313-22.031 13.438-1.25 2.656-1.875 5.938-1.875 9.375 0 2.656 0.156 6.719 2.188 12.031 0.715 2.146-2.417 2.864-3.125 1.094-1.563-4.375-2.5-8.594-2.5-13.125 0-4.063 0.781-7.656 2.344-10.781 4.375-9.375 14.219-15.469 25-15.469 15.156 0 27.5 11.875 27.5 26.25 0 5.469-4.688 9.688-10.313 9.688s-10.156-4.219-10.156-9.688c0-3.594-3.125-6.563-7.031-6.563s-6.875 2.969-6.875 6.563c0 5.625 2.188 10.938 6.25 15 3.125 3.125 6.25 4.844 10.938 6.094 0.938 0.156 1.25 1.094 1.094 2.031-0.156 0.781-0.938 1.25-1.563 1.25zM41.406 48.906c0 7.618 6.295 14.219 15 14.219 1.557 0 5.121-1.15 5.469 0.938 0.156 0.938-0.469 1.875-1.406 2.031-1.875 0.313-3.594 0.313-4.063 0.313-3.906 0-7.5-0.938-10.313-2.969-5-3.438-7.969-8.75-7.969-14.531 0-0.938 0.781-1.719 1.719-1.719s1.563 0.781 1.563 1.719zM32.5 72.656c-0.469 0-0.781-0.156-1.094-0.469-2.969-2.969-4.531-4.844-6.719-8.906-2.344-4.063-3.594-9.063-3.594-14.375 0-9.844 8.438-17.969 18.906-17.969s18.906 8.125 18.906 17.969c0 0.938-0.781 1.563-1.719 1.563s-1.719-0.625-1.719-1.563c0-8.125-6.875-14.688-15.469-14.688s-15.469 6.563-15.469 14.688c0 4.844 0.938 9.219 2.969 12.813 2.188 3.906 3.75 5.469 6.25 8.125 0.625 0.625 0.625 1.719 0 2.344-0.313 0.313-0.781 0.469-1.25 0.469zM11.719 32.344c-1.377 0-2.171-1.226-1.406-2.5 3.281-4.688 7.5-8.438 12.5-10.938 10.469-5.469 23.906-5.469 34.375 0 5 2.5 9.219 6.094 12.5 10.781 0.469 0.781 0.313 1.875-0.469 2.344s-1.875 0.313-2.344-0.469c-2.969-4.219-6.719-7.344-11.25-9.688-9.531-4.844-21.719-5-31.25 0-4.531 2.344-8.438 5.625-11.406 9.844-0.313 0.469-0.781 0.625-1.25 0.625zM59.375 14.844c-0.313 0-0.625 0-0.781-0.156-6.406-3.281-12.031-4.688-18.594-4.688s-12.969 1.563-18.594 4.688c-1.827 1.096-3.381-1.878-1.563-2.969 6.25-3.438 12.969-5 20.156-5 7.031 0 13.281 1.563 20.156 5 1.423 0.854 0.813 3.125-0.781 3.125z"></path>
</svg>
