<?xml version="1.0" encoding="utf-8"?>
<!-- Generated by IcoMoon.io -->
<!DOCTYPE svg PUBLIC "-//W3C//DTD SVG 1.1//EN" "http://www.w3.org/Graphics/SVG/1.1/DTD/svg11.dtd">
<svg version="1.1" xmlns="http://www.w3.org/2000/svg" xmlns:xlink="http://www.w3.org/1999/xlink" width="80" height="80" viewBox="0 0 80 80">
<path d="M79.885 26.105l-0.927 5.944c0 0-1.325-11.004-2.948-15.118-2.488-6.304-3.595-6.253-3.602-6.244 1.666 4.235 1.364 6.51 1.364 6.51s-2.953-8.047-10.759-10.607c-8.647-2.835-13.326-2.060-13.866-1.913-0.082-0.001-0.161-0.001-0.237-0.001 0.064 0.005 0.126 0.011 0.19 0.017-0.003 0.002-0.007 0.003-0.006 0.004 0.035 0.043 9.555 1.664 11.243 3.984 0 0-4.044 0-8.068 1.16-0.182 0.052 14.807 1.872 17.871 16.85 0 0-1.643-3.428-3.675-4.010 1.336 4.065 0.993 11.779-0.279 15.613-0.164 0.493-0.331-2.131-2.838-3.262 0.803 5.754-0.048 14.879-4.040 17.393-0.311 0.196 2.502-9.009 0.566-5.45-11.149 17.094-24.328 7.888-30.254 3.837 3.036 0.661 8.801-0.103 11.353-2.001 0.003-0.002 0.006-0.004 0.009-0.007 2.771-1.895 4.412-3.278 5.885-2.951 1.475 0.329 2.456-1.15 1.311-2.463-1.147-1.315-3.931-3.123-7.697-2.138-2.656 0.696-5.948 3.635-10.972 0.659-3.857-2.285-4.22-4.183-4.254-5.498 0.095-0.466 0.215-0.901 0.358-1.299 0.444-1.24 1.79-1.614 2.539-1.909 1.27 0.218 2.364 0.614 3.513 1.204 0.015-0.382 0.020-0.89-0.001-1.466 0.11-0.219 0.042-0.879-0.135-1.686-0.102-0.805-0.267-1.639-0.527-2.398 0.001-0 0.002-0.001 0.002-0.001 0.004-0.001 0.008-0.003 0.012-0.005 0.006-0.003 0.011-0.009 0.016-0.015 0.001-0.002 0.002-0.003 0.003-0.004 0.006-0.010 0.012-0.021 0.015-0.036 0.080-0.361 0.939-1.057 2.009-1.805 0.959-0.67 2.086-1.383 2.974-1.934 0.786-0.488 1.384-0.85 1.511-0.945 0.048-0.036 0.106-0.079 0.169-0.128 0.012-0.009 0.023-0.018 0.035-0.028 0.007-0.006 0.015-0.012 0.022-0.018 0.423-0.337 1.053-0.973 1.186-2.311 0-0.003 0.001-0.006 0.001-0.010 0.004-0.039 0.007-0.079 0.010-0.12 0.002-0.028 0.004-0.057 0.006-0.086 0.001-0.022 0.002-0.044 0.003-0.067 0.002-0.053 0.004-0.107 0.005-0.161 0-0.003 0-0.006 0-0.009 0.002-0.13-0-0.265-0.008-0.406-0.004-0.079-0.010-0.151-0.023-0.216-0.001-0.003-0.001-0.007-0.002-0.011-0.001-0.006-0.003-0.013-0.005-0.019-0.003-0.011-0.006-0.023-0.010-0.034-0-0.001-0.001-0.002-0.001-0.004-0.004-0.013-0.009-0.025-0.014-0.036-0-0-0-0.001-0-0.001-0.137-0.321-0.65-0.442-2.769-0.478-0.002-0-0.004-0-0.006-0v0c-0.865-0.015-1.995-0.015-3.477-0.009-2.598 0.010-4.033-2.539-4.492-3.526 0.628-3.473 2.443-5.949 5.426-7.627 0.056-0.032 0.045-0.058-0.021-0.076 0.583-0.353-7.050-0.010-10.561 4.456-3.116-0.775-5.832-0.722-8.173-0.173-0.45-0.013-1.010-0.069-1.675-0.207-1.557-1.411-3.785-4.016-3.904-7.126 0 0-0.007 0.006-0.020 0.016-0.002-0.030-0.004-0.059-0.006-0.089 0 0-4.743 3.646-4.033 13.585-0.002 0.159-0.005 0.311-0.009 0.459-1.284 1.741-1.921 3.205-1.968 3.528-1.138 2.316-2.292 5.801-3.231 11.092 0 0 0.657-2.083 1.975-4.443-0.97 2.97-1.732 7.59-1.284 14.52 0 0 0.118-1.536 0.537-3.75 0.327 4.298 1.759 9.603 5.38 15.843 6.949 11.978 17.63 18.027 29.437 18.954 2.097 0.173 4.223 0.177 6.361 0.015 0.197-0.014 0.393-0.028 0.59-0.045 2.419-0.17 4.854-0.535 7.284-1.122 33.217-8.031 29.605-48.14 29.605-48.14z"></path>
</svg>
