<?xml version="1.0" encoding="utf-8"?>
<!-- Generated by IcoMoon.io -->
<!DOCTYPE svg PUBLIC "-//W3C//DTD SVG 1.1//EN" "http://www.w3.org/Graphics/SVG/1.1/DTD/svg11.dtd">
<svg version="1.1" xmlns="http://www.w3.org/2000/svg" xmlns:xlink="http://www.w3.org/1999/xlink" width="80" height="80" viewBox="0 0 80 80">
<path d="M25.079 80c-5.332-11.094-2.492-17.451 1.605-23.441 4.488-6.559 5.644-13.052 5.644-13.052s3.528 4.586 2.117 11.758c6.232-6.938 7.408-17.991 6.467-22.224 14.087 9.845 20.108 31.161 11.994 46.958 43.154-24.417 10.734-60.951 5.090-65.066 1.881 4.115 2.238 11.082-1.563 14.463-6.434-24.397-22.342-29.397-22.342-29.397 1.881 12.582-6.82 26.339-15.211 36.62-0.295-5.017-0.608-8.479-3.246-13.28-0.592 9.114-7.557 16.543-9.443 25.674-2.555 12.366 1.914 21.42 18.887 30.986z"></path>
</svg>
