<?xml version="1.0" encoding="utf-8"?>
<!-- Generated by IcoMoon.io -->
<!DOCTYPE svg PUBLIC "-//W3C//DTD SVG 1.1//EN" "http://www.w3.org/Graphics/SVG/1.1/DTD/svg11.dtd">
<svg version="1.1" xmlns="http://www.w3.org/2000/svg" xmlns:xlink="http://www.w3.org/1999/xlink" width="80" height="80" viewBox="0 0 80 80">
<path d="M0 0h10v80h-10v-80z"></path>
<path d="M65 50.235c6.455 0 12.076-1.561 15-3.867v-40c-2.924 2.306-8.545 3.867-15 3.867s-12.076-1.561-15-3.867v40c2.924 2.306 8.545 3.867 15 3.867z"></path>
<path d="M47.5 2.541c-3.665-1.558-9.025-2.541-15-2.541-7.531 0-14.089 1.561-17.5 3.867v40c3.411-2.306 9.969-3.867 17.5-3.867 5.975 0 11.335 0.983 15 2.541v-40z"></path>
</svg>
