<?xml version="1.0" encoding="utf-8"?>
<!-- Generated by IcoMoon.io -->
<!DOCTYPE svg PUBLIC "-//W3C//DTD SVG 1.1//EN" "http://www.w3.org/Graphics/SVG/1.1/DTD/svg11.dtd">
<svg version="1.1" xmlns="http://www.w3.org/2000/svg" xmlns:xlink="http://www.w3.org/1999/xlink" width="80" height="80" viewBox="0 0 80 80">
<path d="M36.719 76.719v-20h6.563v20h-6.563zM18.75 56.563l7.188-7.188 4.688 4.688-7.188 7.188zM49.375 54.063l4.688-4.688 7.188 7.188-4.688 4.688zM40 30c5.469 0 10 4.531 10 10s-4.531 10-10 10-10-4.531-10-10 4.531-10 10-10zM56.719 36.719h20v6.563h-20v-6.563zM61.25 23.438l-7.188 7.188-4.688-4.688 7.188-7.188zM43.281 3.281v20h-6.563v-20h6.563zM30.625 25.938l-4.688 4.688-7.188-7.188 4.688-4.688zM23.281 36.719v6.563h-20v-6.563h20z"></path>
</svg>
