<?xml version="1.0" encoding="utf-8"?>
<!-- Generated by IcoMoon.io -->
<!DOCTYPE svg PUBLIC "-//W3C//DTD SVG 1.1//EN" "http://www.w3.org/Graphics/SVG/1.1/DTD/svg11.dtd">
<svg version="1.1" xmlns="http://www.w3.org/2000/svg" xmlns:xlink="http://www.w3.org/1999/xlink" width="80" height="80" viewBox="0 0 80 80">
<path d="M28.716 0c-19.012 0-28.716 10.95-28.716 31.395v0 42.893l18.624-18.643v-21.789c0-8.47 2.245-13.86 9.775-15.070v0c2.631-0.514 8.105-0.334 11.586-0.334v0 12.937c0 0.118 0.016 0.329 0.046 0.436v0c0.146 0.524 0.62 0.908 1.181 0.909v0c0.317 0.001 0.615-0.164 0.921-0.466v0l32.275-32.264-45.693-0.005zM61.376 24.355v21.788c0 8.47-2.245 13.86-9.775 15.070v0c-2.631 0.514-8.106 0.334-11.587 0.334v0-12.937c0-0.117-0.016-0.328-0.046-0.436v0c-0.146-0.524-0.619-0.908-1.181-0.909v0c-0.318-0.001-0.615 0.165-0.921 0.466v0l-32.275 32.263 45.693 0.005c19.012 0 28.716-10.951 28.716-31.395v0-42.893l-18.624 18.643z"></path>
</svg>
