<?xml version="1.0" encoding="utf-8"?>
<!-- Generated by IcoMoon.io -->
<!DOCTYPE svg PUBLIC "-//W3C//DTD SVG 1.1//EN" "http://www.w3.org/Graphics/SVG/1.1/DTD/svg11.dtd">
<svg version="1.1" xmlns="http://www.w3.org/2000/svg" xmlns:xlink="http://www.w3.org/1999/xlink" width="80" height="80" viewBox="0 0 80 80">
<path d="M62.468 1.266c-7.072 0-11.611-1.266-18.894-1.266-23.538 0-34.515 13.405-34.515 27.021 0 8.022 3.8 10.661 11.294 10.661-0.528-1.161-1.478-2.428-1.478-8.128 0-15.938 6.016-20.583 13.722-20.899 0 0-6.322 61.982-24.67 69.417v1.927h24.734l8.44-40h15.457l3.443-10h-16.79l4.058-19.234c4.644 0.95 9.183 1.9 13.088 1.9 4.855 0 9.289-1.478 11.716-12.666-2.955 0.95-6.122 1.266-9.605 1.266z"></path>
</svg>
