<?xml version="1.0" encoding="utf-8"?>
<!-- Generated by IcoMoon.io -->
<!DOCTYPE svg PUBLIC "-//W3C//DTD SVG 1.1//EN" "http://www.w3.org/Graphics/SVG/1.1/DTD/svg11.dtd">
<svg version="1.1" xmlns="http://www.w3.org/2000/svg" xmlns:xlink="http://www.w3.org/1999/xlink" width="80" height="80" viewBox="0 0 80 80">
<path d="M0 66.719h80v13.281h-80v-13.281zM63.281 38.281c0 0 6.719 7.344 6.719 11.719 0 3.594-3.125 6.719-6.719 6.719s-6.563-3.125-6.563-6.719c0-4.375 6.563-11.719 6.563-11.719zM17.344 33.281h32.031l-16.094-15.938zM55.156 29.844c2.031 2.031 2.031 5.156 0 7.031l-18.281 18.281c-0.938 0.938-2.344 1.563-3.594 1.563s-2.5-0.625-3.438-1.563l-18.438-18.281c-2.031-1.875-2.031-5 0-7.031l17.188-17.188-7.969-7.969 4.844-4.688z"></path>
</svg>
