<?xml version="1.0" encoding="utf-8"?>
<!-- Generated by IcoMoon.io -->
<!DOCTYPE svg PUBLIC "-//W3C//DTD SVG 1.1//EN" "http://www.w3.org/Graphics/SVG/1.1/DTD/svg11.dtd">
<svg version="1.1" xmlns="http://www.w3.org/2000/svg" xmlns:xlink="http://www.w3.org/1999/xlink" width="80" height="80" viewBox="0 0 80 80">
<path d="M45 51.719c2.813 0 5-2.188 5-5s-2.188-5-5-5h-11.719v10h11.719zM33.281 21.719v10h10c2.813 0 5-2.188 5-5s-2.188-5-5-5h-10zM52.031 35.938c4.375 2.031 7.188 6.406 7.188 11.406 0 7.031-5.313 12.656-12.344 12.656h-23.594v-46.719h20.938c7.5 0 13.281 5.938 13.281 13.438 0 3.438-2.188 7.031-5.469 9.219z"></path>
</svg>
