<?xml version="1.0" encoding="utf-8"?>
<!-- Generated by IcoMoon.io -->
<!DOCTYPE svg PUBLIC "-//W3C//DTD SVG 1.1//EN" "http://www.w3.org/Graphics/SVG/1.1/DTD/svg11.dtd">
<svg version="1.1" xmlns="http://www.w3.org/2000/svg" xmlns:xlink="http://www.w3.org/1999/xlink" width="80" height="80" viewBox="0 0 80 80">
<path d="M23.281 16.719h46.719v6.563h-46.719v-6.563zM23.281 43.281v-6.563h46.719v6.563h-46.719zM23.281 63.281v-6.563h46.719v6.563h-46.719zM13.281 55c2.813 0 5 2.344 5 5s-2.344 5-5 5-5-2.344-5-5 2.188-5 5-5zM13.281 15c2.813 0 5 2.188 5 5s-2.188 5-5 5-5-2.188-5-5 2.188-5 5-5zM13.281 35c2.813 0 5 2.188 5 5s-2.188 5-5 5-5-2.188-5-5 2.188-5 5-5z"></path>
</svg>
