<?xml version="1.0" encoding="utf-8"?>
<!-- Generated by IcoMoon.io -->
<!DOCTYPE svg PUBLIC "-//W3C//DTD SVG 1.1//EN" "http://www.w3.org/Graphics/SVG/1.1/DTD/svg11.dtd">
<svg version="1.1" xmlns="http://www.w3.org/2000/svg" xmlns:xlink="http://www.w3.org/1999/xlink" width="80" height="80" viewBox="0 0 80 80">
<path d="M35.625 42.5h8.75l-4.375-12.813zM45.781 46.719h-11.719l-2.344 6.563h-5.469l11.406-30h4.688l11.25 30h-5.313zM63.281 16.719h6.719v-6.719h-6.719v6.719zM70 70v-6.719h-6.719v6.719h6.719zM56.719 63.281v-6.563h6.563v-33.438h-6.563v-6.563h-33.438v6.563h-6.563v33.438h6.563v6.563h33.438zM16.719 70v-6.719h-6.719v6.719h6.719zM10 10v6.719h6.719v-6.719h-6.719zM76.719 23.281h-6.719v33.438h6.719v20h-20v-6.719h-33.438v6.719h-20v-20h6.719v-33.438h-6.719v-20h20v6.719h33.438v-6.719h20v20z"></path>
</svg>
