<?xml version="1.0" encoding="utf-8"?>
<!-- Generated by IcoMoon.io -->
<!DOCTYPE svg PUBLIC "-//W3C//DTD SVG 1.1//EN" "http://www.w3.org/Graphics/SVG/1.1/DTD/svg11.dtd">
<svg version="1.1" xmlns="http://www.w3.org/2000/svg" xmlns:xlink="http://www.w3.org/1999/xlink" width="80" height="80" viewBox="0 0 80 80">
<path d="M44.063 50.625c0 0.51 0.988 1.094 1.563 1.094 0.313 0 0.781 0 1.094-0.313l0.625-0.781s0.313-0.625 0.313-0.938v-6.719c0 0-0.313-0.625-0.313-0.938 0-0.43-1.283-1.094-1.719-1.094-0.313 0-0.625 0.156-0.938 0.469l-0.625 0.625s-0.469 0.625-0.469 0.938v6.719s0.469 0.625 0.469 0.938zM50.313 47.344c0 0.938 0 2.031-0.313 2.656l-0.938 2.031s-1.094 0.938-1.719 0.938-1.406 0.313-2.031 0.313-1.406 0-2.031-0.313-0.938-0.625-1.563-0.938c-1.054-0.527-1.406-3.085-1.406-4.688v-2.344c0-0.938 0-2.031 0.313-2.656l1.094-2.031s0.938-0.938 1.563-0.938 1.406-0.313 2.031-0.313 1.406 0 2.031 0.313 1.094 0.625 1.719 0.938 0.625 1.094 0.938 2.031 0.313 1.719 0.313 2.656v2.344zM36.406 53.281h-3.125v-10.938l-3.281 0.938v-2.344l5.938-1.875h0.469v14.219zM13.281 43.281c0-14.688 12.031-26.563 26.719-26.563v-13.438l16.719 16.719-16.719 16.719v-13.438c-10.938 0-20 9.063-20 20s9.063 20 20 20 20-9.063 20-20h6.719c0 14.688-12.031 26.719-26.719 26.719s-26.719-12.031-26.719-26.719z"></path>
</svg>
