<?xml version="1.0" encoding="utf-8"?>
<!-- Generated by IcoMoon.io -->
<!DOCTYPE svg PUBLIC "-//W3C//DTD SVG 1.1//EN" "http://www.w3.org/Graphics/SVG/1.1/DTD/svg11.dtd">
<svg version="1.1" xmlns="http://www.w3.org/2000/svg" xmlns:xlink="http://www.w3.org/1999/xlink" width="80" height="80" viewBox="0 0 80 80">
<path d="M66.528 7.038c-0.942-1.282-2.438-2.038-4.028-2.038h-47.5c-2.761 0-5 2.239-5 5v60c0 2.022 1.218 3.845 3.087 4.619 0.619 0.256 1.268 0.381 1.912 0.381 1.301 0 2.58-0.508 3.537-1.465l18.536-18.535h12.929c2.187 0 4.12-1.421 4.772-3.509l12.5-40c0.475-1.518 0.198-3.172-0.744-4.453zM52.574 25h-17.574c-2.761 0-5 2.239-5 5s2.239 5 5 5h14.449l-3.125 10h-11.324c-1.326 0-2.598 0.527-3.535 1.465l-11.465 11.464v-42.929h35.699l-3.125 10z"></path>
</svg>
