<?xml version="1.0" encoding="utf-8"?>
<!-- Generated by IcoMoon.io -->
<!DOCTYPE svg PUBLIC "-//W3C//DTD SVG 1.1//EN" "http://www.w3.org/Graphics/SVG/1.1/DTD/svg11.dtd">
<svg version="1.1" xmlns="http://www.w3.org/2000/svg" xmlns:xlink="http://www.w3.org/1999/xlink" width="80" height="80" viewBox="0 0 80 80">
<path d="M28.618 22.139c-2.714-1.357-5.399-2.036-5.512-2.064-1.34-0.335-2.697 0.48-3.032 1.819s0.48 2.697 1.819 3.032c1.377 0.348 3.010 0.947 4.448 1.668-0.832 0.893-1.342 2.090-1.342 3.407 0 2.761 2.239 5 5 5s5-2.239 5-5c0-0.091-0.003-0.182-0.008-0.272-0.159-3.707-3.532-6.168-6.374-7.589z"></path>
<path d="M40 0c-22.091 0-40 17.909-40 40s17.909 40 40 40 40-17.909 40-40-17.909-40-40-40zM18.476 64.349c0.836 0.416 1.778 0.651 2.774 0.651h37.5c0.996 0 1.937-0.235 2.774-0.651-5.733 5.071-13.268 8.151-21.524 8.151s-15.791-3.080-21.524-8.151zM20 58.75v-7.5c0-0.678 0.572-1.25 1.25-1.25h8.75v10h-8.75c-0.678 0-1.25-0.572-1.25-1.25zM35 60v-10h10v10h-10zM50 60v-10h8.75c0.678 0 1.25 0.572 1.25 1.25v7.5c0 0.678-0.572 1.25-1.25 1.25h-8.75zM64.349 61.524c0.416-0.836 0.651-1.778 0.651-2.774v-7.5c0-3.446-2.804-6.25-6.25-6.25h-37.5c-3.446 0-6.25 2.804-6.25 6.25v7.5c0 0.996 0.235 1.937 0.651 2.774-5.071-5.733-8.151-13.268-8.151-21.524 0-17.949 14.551-32.5 32.5-32.5s32.5 14.551 32.5 32.5c0 8.256-3.080 15.791-8.151 21.524z"></path>
<path d="M56.893 20.075c-0.113 0.028-2.797 0.707-5.512 2.064-2.842 1.421-6.215 3.882-6.374 7.589-0.005 0.090-0.008 0.181-0.008 0.272 0 2.761 2.239 5 5 5s5-2.239 5-5c0-1.317-0.51-2.514-1.342-3.407 1.439-0.721 3.071-1.32 4.448-1.668 1.339-0.335 2.154-1.692 1.819-3.032s-1.692-2.154-3.032-1.819z"></path>
</svg>
