<?xml version="1.0" encoding="utf-8"?>
<!-- Generated by IcoMoon.io -->
<!DOCTYPE svg PUBLIC "-//W3C//DTD SVG 1.1//EN" "http://www.w3.org/Graphics/SVG/1.1/DTD/svg11.dtd">
<svg version="1.1" xmlns="http://www.w3.org/2000/svg" xmlns:xlink="http://www.w3.org/1999/xlink" width="80" height="80" viewBox="0 0 80 80">
<path d="M70 66.719v-43.438c0-1.875-1.406-3.281-3.281-3.281h-29.375l3.906 13.438h6.406v-3.438h3.594v3.438h12.031v3.438h-4.219c-1.094 4.219-3.438 8.281-6.406 11.719l9.063 8.906-2.344 2.5-9.063-8.906-2.969 2.969 2.656 9.219-6.719 6.719h23.438c1.875 0 3.281-1.406 3.281-3.281zM46.563 40.469c0.781 1.563 2.031 3.594 3.75 5.625 4.063-4.844 5.156-9.219 5.156-9.219h-13.281l1.094 3.594h3.281zM44.063 42.969l2.031 7.344 1.875-1.719c-1.563-1.719-2.813-3.594-3.906-5.625zM37.031 35.313c0-0.769-0.022-1.763-0.313-2.344h-13.125v5.156h7.344c-0.469 2.031-2.5 5-7.031 5-4.375 0-7.969-3.75-7.969-8.125s3.594-8.125 7.969-8.125c2.5 0 4.063 1.094 5 2.031l0.313 0.156 4.063-3.906-0.313-0.156c-2.5-2.344-5.625-3.594-9.063-3.594-7.5 0-13.594 6.094-13.594 13.594s6.094 13.594 13.594 13.594c7.656 0 13.125-5.469 13.125-13.281zM66.719 16.719c3.594 0 6.563 2.969 6.563 6.563v43.438c0 3.594-2.969 6.563-6.563 6.563h-26.719l-3.281-10h-23.438c-3.594 0-6.563-2.969-6.563-6.563v-43.438c0-3.594 2.969-6.563 6.563-6.563h20l2.969 10h30.469z"></path>
</svg>
