<?xml version="1.0" encoding="utf-8"?>
<!-- Generated by IcoMoon.io -->
<!DOCTYPE svg PUBLIC "-//W3C//DTD SVG 1.1//EN" "http://www.w3.org/Graphics/SVG/1.1/DTD/svg11.dtd">
<svg version="1.1" xmlns="http://www.w3.org/2000/svg" xmlns:xlink="http://www.w3.org/1999/xlink" width="80" height="80" viewBox="0 0 80 80">
<path d="M46.25 61.875c2.344 0 6.25-2.813 7.188-11.719-7.188 1.875-9.688 7.188-9.688 9.219 0 1.563 1.406 2.5 2.5 2.5zM15.313 22.969l-5.781-5.625c0.781-0.938 1.563-1.875 2.813-3.125 0.781-0.781 4.688-4.219 9.063-4.219 2.969 0 8.438 2.344 8.438 9.531 0 4.531-1.719 7.188-4.375 10.938-1.563 2.188-5 8.125-6.094 11.719-1.25 3.594-0.469 6.406 1.094 6.406 1.406 0 2.969-1.875 3.75-2.813 0.781-0.781 5.781-6.563 7.656-9.063 2.5-3.125 8.906-9.375 16.406-9.375 9.844 0 12.969 8.438 13.438 13.906h8.281v8.281h-8.125c-1.406 15.938-10.313 20.469-15.781 20.469-5.938 0-10.625-4.688-10.625-10.313s5.313-15.781 17.969-17.969c-0.313-2.656-0.469-5.938-5.938-5.938-4.219 0-9.531 6.406-13.594 11.406-3.75 4.531-6.563 8.125-10.156 9.219-7.778 2.456-13.281-4.413-13.281-11.406 0-8.125 8.75-19.688 9.531-21.094 0.938-1.563 2.656-4.375 0.938-5-1.094-0.469-3.281 1.719-5.625 4.063z"></path>
</svg>
