<?xml version="1.0" encoding="utf-8"?>
<!-- Generated by IcoMoon.io -->
<!DOCTYPE svg PUBLIC "-//W3C//DTD SVG 1.1//EN" "http://www.w3.org/Graphics/SVG/1.1/DTD/svg11.dtd">
<svg version="1.1" xmlns="http://www.w3.org/2000/svg" xmlns:xlink="http://www.w3.org/1999/xlink" width="80" height="80" viewBox="0 0 80 80">
<path d="M60.275 25c1.416-1.006 2.774-2.126 4.019-3.371 2.61-2.61 4.355-5.82 4.915-9.041 0.614-3.53-0.287-6.808-2.471-8.992-1.742-1.742-4.102-2.663-6.825-2.663-3.877 0-7.963 1.861-11.208 5.106-5.193 5.193-8.221 12.362-9.85 17.478-1.206-5.141-3.61-12.082-8.283-16.755-2.507-2.507-5.712-3.795-8.738-3.795-2.473 0-4.827 0.86-6.583 2.616-3.905 3.905-3.377 10.765 1.179 15.321 1.624 1.624 3.523 2.974 5.525 4.095h-16.955v20h5v35h60v-35h5v-20h-14.725zM52.682 10.017c2.166-2.166 4.869-3.459 7.23-3.459 0.836 0 2.008 0.176 2.848 1.015 2.034 2.033 0.892 6.743-2.444 10.078-3.433 3.433-8.052 5.794-12.065 7.348h-3.959c1.451-4.496 4.067-10.661 8.389-14.983zM18.276 12.57c-0.055-0.713-0.004-2.051 0.953-3.007 0.8-0.8 1.858-0.968 2.605-0.968v0c1.661 0 3.396 0.783 4.76 2.147 2.646 2.646 4.825 6.857 6.302 12.178 0.040 0.144 0.079 0.287 0.117 0.429-0.142-0.038-0.285-0.077-0.429-0.117-5.321-1.477-9.531-3.656-12.178-6.302-1.237-1.236-2.013-2.825-2.131-4.358zM35 75h-20v-32.5h20v32.5zM35 40h-25v-10h25v10zM65 75h-20v-32.5h20v32.5zM70 40h-25v-10h25v10z"></path>
</svg>
