<?xml version="1.0" encoding="utf-8"?>
<!-- Generated by IcoMoon.io -->
<!DOCTYPE svg PUBLIC "-//W3C//DTD SVG 1.1//EN" "http://www.w3.org/Graphics/SVG/1.1/DTD/svg11.dtd">
<svg version="1.1" xmlns="http://www.w3.org/2000/svg" xmlns:xlink="http://www.w3.org/1999/xlink" width="80" height="80" viewBox="0 0 80 80">
<path d="M78.492 36.437l-34.929-34.928c-2.011-2.012-5.273-2.012-7.287 0l-8.116 8.115 6.107 6.107c0.979-0.468 2.075-0.731 3.233-0.731 4.142 0 7.5 3.358 7.5 7.5 0 1.158-0.263 2.254-0.731 3.233l9.998 9.998c0.979-0.468 2.075-0.731 3.233-0.731 4.142 0 7.5 3.358 7.5 7.5s-3.358 7.5-7.5 7.5-7.5-3.358-7.5-7.5c0-1.158 0.263-2.254 0.731-3.233l-9.998-9.998c-0.238 0.114-0.483 0.214-0.733 0.303v20.857c2.913 1.030 5 3.806 5 7.072 0 4.142-3.358 7.5-7.5 7.5s-7.5-3.358-7.5-7.5c0-3.265 2.087-6.042 5-7.072v-20.857c-2.913-1.030-5-3.806-5-7.072 0-1.158 0.263-2.254 0.731-3.233l-6.107-6.107-23.117 23.115c-2.012 2.014-2.012 5.276 0 7.288l34.931 34.928c2.011 2.012 5.272 2.012 7.287 0l34.766-34.766c2.012-2.013 2.012-5.277-0-7.288z"></path>
</svg>
