<?xml version="1.0" encoding="utf-8"?>
<!-- Generated by IcoMoon.io -->
<!DOCTYPE svg PUBLIC "-//W3C//DTD SVG 1.1//EN" "http://www.w3.org/Graphics/SVG/1.1/DTD/svg11.dtd">
<svg version="1.1" xmlns="http://www.w3.org/2000/svg" xmlns:xlink="http://www.w3.org/1999/xlink" width="80" height="80" viewBox="0 0 80 80">
<path d="M40.001 0.988c-22.089 0-40.001 17.908-40.001 40 0 17.673 11.461 32.667 27.354 37.956 1.999 0.37 2.734-0.868 2.734-1.924 0-0.953-0.038-4.105-0.054-7.447-11.129 2.42-13.477-4.72-13.477-4.72-1.819-4.623-4.441-5.853-4.441-5.853-3.629-2.483 0.274-2.432 0.274-2.432 4.016 0.282 6.131 4.122 6.131 4.122 3.568 6.115 9.358 4.347 11.641 3.325 0.358-2.585 1.395-4.35 2.54-5.349-8.885-1.011-18.225-4.441-18.225-19.768 0-4.367 1.563-7.935 4.122-10.737-0.415-1.008-1.785-5.076 0.387-10.586 0 0 3.36-1.074 11.003 4.101 3.19-0.887 6.612-1.331 10.012-1.346 3.399 0.015 6.823 0.46 10.020 1.346 7.635-5.175 10.989-4.101 10.989-4.101 2.178 5.51 0.809 9.578 0.393 10.586 2.564 2.801 4.117 6.37 4.117 10.737 0 15.364-9.358 18.746-18.265 19.736 1.435 1.241 2.713 3.675 2.713 7.407 0 5.352-0.047 9.66-0.047 10.977 0 1.065 0.72 2.312 2.748 1.919 15.885-5.295 27.331-20.283 27.331-37.951 0-22.092-17.909-40-39.999-40z"></path>
</svg>
