<?xml version="1.0" encoding="utf-8"?>
<!-- Generated by IcoMoon.io -->
<!DOCTYPE svg PUBLIC "-//W3C//DTD SVG 1.1//EN" "http://www.w3.org/Graphics/SVG/1.1/DTD/svg11.dtd">
<svg version="1.1" xmlns="http://www.w3.org/2000/svg" xmlns:xlink="http://www.w3.org/1999/xlink" width="80" height="80" viewBox="0 0 80 80">
<path d="M69.466 14.045c0.591-0.752 0.701-1.777 0.283-2.637s-1.292-1.407-2.249-1.407h-55c-0.957 0-1.83 0.546-2.248 1.407s-0.309 1.885 0.283 2.637l24.466 31.138v29.817h-7.5c-1.381 0-2.5 1.119-2.5 2.5s1.119 2.5 2.5 2.5h25c1.381 0 2.5-1.119 2.5-2.5s-1.119-2.5-2.5-2.5h-7.5v-29.817l24.466-31.138zM62.356 15l-7.857 10h-28.998l-7.857-10h44.713z"></path>
</svg>
