<?xml version="1.0" encoding="utf-8"?>
<!-- Generated by IcoMoon.io -->
<!DOCTYPE svg PUBLIC "-//W3C//DTD SVG 1.1//EN" "http://www.w3.org/Graphics/SVG/1.1/DTD/svg11.dtd">
<svg version="1.1" xmlns="http://www.w3.org/2000/svg" xmlns:xlink="http://www.w3.org/1999/xlink" width="80" height="80" viewBox="0 0 80 80">
<path d="M60.764 1.317c-0.436-0.811-1.282-1.317-2.202-1.317h-37.124c-0.921 0-1.767 0.506-2.202 1.317-2.771 5.158-4.236 11.186-4.236 17.433 0 8.235 2.529 16.002 7.121 21.87 3.549 4.535 8.006 7.542 12.879 8.763v25.616h-7.5c-1.381 0-2.5 1.119-2.5 2.5s1.119 2.5 2.5 2.5h25c1.381 0 2.5-1.119 2.5-2.5s-1.119-2.5-2.5-2.5h-7.5v-25.616c4.873-1.221 9.33-4.228 12.879-8.763 4.592-5.868 7.121-13.635 7.121-21.87 0-6.247-1.465-12.275-4.236-17.433zM22.977 5h34.047c1.951 4.133 2.977 8.855 2.977 13.75 0 0.419-0.008 0.836-0.023 1.25h-39.954c-0.015-0.414-0.023-0.831-0.023-1.25-0-4.896 1.025-9.617 2.976-13.75z"></path>
</svg>
