<?xml version="1.0" encoding="utf-8"?>
<!-- Generated by IcoMoon.io -->
<!DOCTYPE svg PUBLIC "-//W3C//DTD SVG 1.1//EN" "http://www.w3.org/Graphics/SVG/1.1/DTD/svg11.dtd">
<svg version="1.1" xmlns="http://www.w3.org/2000/svg" xmlns:xlink="http://www.w3.org/1999/xlink" width="80" height="80" viewBox="0 0 80 80">
<path d="M79.844 30.313c0.156 0.156 0.156 0.625 0 0.781l-3.906 5c-0.156 0.156-0.469 0.313-0.625 0.313l-2.344-0.469-1.094 3.438c-0.469 0.781-1.563 0.781-2.031 0l-2.188-4.688-3.594-0.781-7.344 17.5 2.656 21.25c0 0.469-0.313 0.625-0.625 0.625h-3.125c-0.313 0-0.469-0.156-0.625-0.469l-3.125-12.656-1.563-2.656-3.906 15.313c0 0.313-0.313 0.469-0.625 0.469h-3.281c-0.313 0-0.625-0.313-0.625-0.625l3.594-21.094h-21.094l-5.469 10.313 1.25 10.625c0.156 0.469-0.156 0.781-0.625 0.781h-3.125c-0.156 0-0.469 0-0.625-0.313l-4.375-15.938-5.313 6.094 0.938 9.375c0.156 0.469-0.156 0.781-0.625 0.781h-3.438c-0.313 0-0.625-0.156-0.625-0.313l-2.031-8.75 3.281-12.813v-22.5s-3.594-1.406-3.594-4.688h42.813c0 0 7.5 0.156 14.844-5.156 0 0-1.25-3.438 0.938-5.625 0 0 4.375 3.125 5.625 3.906 1.563 0.938 2.656-0.781 2.188-2.188-0.313-0.938-1.406-4.375-7.031-6.563-0.715-0.239-2.377-0.37-2.031-1.406 0-0.313 0.313-0.469 0.625-0.469 6.875 0.938 10.938 6.563 12.031 9.063 0.156 0.313 3.125 2.344 2.813 5.938 0 0.469 0 0.781 0.313 1.094z"></path>
</svg>
