<?xml version="1.0" encoding="utf-8"?>
<!-- Generated by IcoMoon.io -->
<!DOCTYPE svg PUBLIC "-//W3C//DTD SVG 1.1//EN" "http://www.w3.org/Graphics/SVG/1.1/DTD/svg11.dtd">
<svg version="1.1" xmlns="http://www.w3.org/2000/svg" xmlns:xlink="http://www.w3.org/1999/xlink" width="80" height="80" viewBox="0 0 80 80">
<path d="M40 0c-22.094 0-40 17.906-40 40s17.906 40 40 40 40-17.906 40-40-17.906-40-40-40zM40.594 70c-16.578 0-30-13.422-30-30s13.422-30 30-30c8.094 0 14.875 2.953 20.094 7.844l-8.141 7.844c-2.234-2.141-6.125-4.625-11.953-4.625-10.25 0-18.594 8.484-18.594 18.938s8.359 18.938 18.594 18.938c11.875 0 16.328-8.531 17.016-12.938h-17.016v-10.281h28.328c0.25 1.5 0.469 3 0.469 4.969 0.016 17.141-11.469 29.313-28.797 29.313z"></path>
</svg>
