<?xml version="1.0" encoding="utf-8"?>
<!-- Generated by IcoMoon.io -->
<!DOCTYPE svg PUBLIC "-//W3C//DTD SVG 1.1//EN" "http://www.w3.org/Graphics/SVG/1.1/DTD/svg11.dtd">
<svg version="1.1" xmlns="http://www.w3.org/2000/svg" xmlns:xlink="http://www.w3.org/1999/xlink" width="80" height="80" viewBox="0 0 80 80">
<path d="M72.5 0h-65c-4.125 0-7.5 3.375-7.5 7.5v65c0 4.125 3.375 7.5 7.5 7.5h65c4.125 0 7.5-3.375 7.5-7.5v-65c0-4.125-3.375-7.5-7.5-7.5zM30 60c-11.063 0-20-8.938-20-20s8.938-20 20-20c5.406 0 9.922 1.969 13.406 5.234l-5.438 5.219c-1.484-1.422-4.078-3.078-7.969-3.078-6.828 0-12.406 5.656-12.406 12.625s5.578 12.625 12.406 12.625c7.922 0 10.891-5.687 11.344-8.625h-11.344v-6.859h18.891c0.172 1 0.313 2 0.313 3.313 0 11.437-7.656 19.547-19.203 19.547zM70 40h-5v5h-5v-5h-5v-5h5v-5h5v5h5v5z"></path>
</svg>
