<?xml version="1.0" encoding="utf-8"?>
<!-- Generated by IcoMoon.io -->
<!DOCTYPE svg PUBLIC "-//W3C//DTD SVG 1.1//EN" "http://www.w3.org/Graphics/SVG/1.1/DTD/svg11.dtd">
<svg version="1.1" xmlns="http://www.w3.org/2000/svg" xmlns:xlink="http://www.w3.org/1999/xlink" width="80" height="80" viewBox="0 0 80 80">
<path d="M40.797 34.281v13.719h22.688c-0.922 5.891-6.859 17.25-22.688 17.25-13.656 0-24.797-11.312-24.797-25.25s11.141-25.25 24.797-25.25c7.766 0 12.969 3.313 15.938 6.172l10.859-10.453c-6.969-6.531-16-10.469-26.797-10.469-22.109 0-40 17.891-40 40s17.891 40 40 40c23.078 0 38.406-16.234 38.406-39.078 0-2.625-0.281-4.625-0.625-6.625l-37.781-0.016z"></path>
</svg>
