<?xml version="1.0" encoding="utf-8"?>
<!-- Generated by IcoMoon.io -->
<!DOCTYPE svg PUBLIC "-//W3C//DTD SVG 1.1//EN" "http://www.w3.org/Graphics/SVG/1.1/DTD/svg11.dtd">
<svg version="1.1" xmlns="http://www.w3.org/2000/svg" xmlns:xlink="http://www.w3.org/1999/xlink" width="80" height="80" viewBox="0 0 80 80">
<path d="M25.453 35.734v8.734h14.438c-0.578 3.75-4.359 10.984-14.438 10.984-8.688 0-15.781-7.203-15.781-16.078s7.094-16.078 15.781-16.078c4.953 0 8.25 2.109 10.141 3.922l6.906-6.656c-4.438-4.141-10.188-6.656-17.047-6.656-14.078 0.016-25.453 11.391-25.453 25.469s11.375 25.453 25.453 25.453c14.688 0 24.438-10.328 24.438-24.875 0-1.672-0.188-2.953-0.406-4.219h-24.031z"></path>
<path d="M80 35h-7.5v-7.5h-7.5v7.5h-7.5v7.5h7.5v7.5h7.5v-7.5h7.5z"></path>
</svg>
