<?xml version="1.0" encoding="utf-8"?>
<!-- Generated by IcoMoon.io -->
<!DOCTYPE svg PUBLIC "-//W3C//DTD SVG 1.1//EN" "http://www.w3.org/Graphics/SVG/1.1/DTD/svg11.dtd">
<svg version="1.1" xmlns="http://www.w3.org/2000/svg" xmlns:xlink="http://www.w3.org/1999/xlink" width="80" height="80" viewBox="0 0 80 80">
<path d="M63.281 36.719v-20h-46.563v20h6.563v6.563h6.719v6.719h6.719v-6.719h6.563v6.719h6.719v-6.719h6.719v-6.563h6.563zM56.719 60v-6.719h-6.719v6.719h6.719zM43.281 60v-6.719h-6.563v6.719h6.563zM30 60v-6.719h-6.719v6.719h6.719zM63.281 10c3.594 0 6.719 3.125 6.719 6.719v46.563c0 3.594-3.125 6.719-6.719 6.719h-46.563c-3.594 0-6.719-3.125-6.719-6.719v-46.563c0-3.594 3.125-6.719 6.719-6.719h46.563zM23.281 30h6.719v6.719h-6.719v-6.719zM50 30h6.719v6.719h-6.719v-6.719zM36.719 30h6.563v6.719h6.719v6.563h-6.719v-6.563h-6.563v6.563h-6.719v-6.563h6.719v-6.719zM56.719 43.281v6.719h6.563v-6.719h-6.563zM23.281 43.281h-6.563v6.719h6.563v-6.719z"></path>
</svg>
