<?xml version="1.0" encoding="utf-8"?>
<!-- Generated by IcoMoon.io -->
<!DOCTYPE svg PUBLIC "-//W3C//DTD SVG 1.1//EN" "http://www.w3.org/Graphics/SVG/1.1/DTD/svg11.dtd">
<svg version="1.1" xmlns="http://www.w3.org/2000/svg" xmlns:xlink="http://www.w3.org/1999/xlink" width="80" height="80" viewBox="0 0 80 80">
<path d="M33.281 13.281c3.594 0 6.719 3.125 6.719 6.719s-3.125 6.719-6.719 6.719-6.563-3.125-6.563-6.719 2.969-6.719 6.563-6.719zM46.719 26.719c3.594 0 6.563 2.969 6.563 6.563s-2.969 6.719-6.563 6.719-6.719-3.125-6.719-6.719 3.125-6.563 6.719-6.563zM60 40c3.594 0 6.719 3.125 6.719 6.719s-3.125 6.563-6.719 6.563-6.719-2.969-6.719-6.563 3.125-6.719 6.719-6.719zM46.719 53.281c3.594 0 6.563 3.125 6.563 6.719s-2.969 6.719-6.563 6.719-6.719-3.125-6.719-6.719 3.125-6.719 6.719-6.719zM60 26.719c-3.594 0-6.719-3.125-6.719-6.719s3.125-6.719 6.719-6.719 6.719 3.125 6.719 6.719-3.125 6.719-6.719 6.719zM20 53.281c3.594 0 6.719 3.125 6.719 6.719s-3.125 6.719-6.719 6.719-6.719-3.125-6.719-6.719 3.125-6.719 6.719-6.719zM20 26.719c3.594 0 6.719 2.969 6.719 6.563s-3.125 6.719-6.719 6.719-6.719-3.125-6.719-6.719 3.125-6.563 6.719-6.563zM33.281 40c3.594 0 6.719 3.125 6.719 6.719s-3.125 6.563-6.719 6.563-6.563-2.969-6.563-6.563 2.969-6.719 6.563-6.719z"></path>
</svg>
