<?xml version="1.0" encoding="utf-8"?>
<!-- Generated by IcoMoon.io -->
<!DOCTYPE svg PUBLIC "-//W3C//DTD SVG 1.1//EN" "http://www.w3.org/Graphics/SVG/1.1/DTD/svg11.dtd">
<svg version="1.1" xmlns="http://www.w3.org/2000/svg" xmlns:xlink="http://www.w3.org/1999/xlink" width="80" height="80" viewBox="0 0 80 80">
<path d="M66.719 26.719v-13.438h-13.438v13.438h13.438zM66.719 46.719v-13.438h-13.438v13.438h13.438zM66.719 66.719v-13.438h-13.438v13.438h13.438zM46.719 26.719v-13.438h-13.438v13.438h13.438zM46.719 46.719v-13.438h-13.438v13.438h13.438zM46.719 66.719v-13.438h-13.438v13.438h13.438zM26.719 26.719v-13.438h-13.438v13.438h13.438zM26.719 46.719v-13.438h-13.438v13.438h13.438zM26.719 66.719v-13.438h-13.438v13.438h13.438zM66.719 6.719c3.594 0 6.563 2.969 6.563 6.563v53.438c0 3.594-2.969 6.563-6.563 6.563h-53.438c-3.594 0-6.563-2.969-6.563-6.563v-53.438c0-3.594 2.969-6.563 6.563-6.563h53.438z"></path>
</svg>
