<?xml version="1.0" encoding="utf-8"?>
<!-- Generated by IcoMoon.io -->
<!DOCTYPE svg PUBLIC "-//W3C//DTD SVG 1.1//EN" "http://www.w3.org/Graphics/SVG/1.1/DTD/svg11.dtd">
<svg version="1.1" xmlns="http://www.w3.org/2000/svg" xmlns:xlink="http://www.w3.org/1999/xlink" width="80" height="80" viewBox="0 0 80 80">
<path d="M53.281 66.719h4.844l-4.844-4.844v4.844zM46.719 66.719v-11.563l-1.875-1.875h-11.563v13.438h13.438zM26.719 46.719v-11.563l-1.875-1.875h-11.563v13.438h13.438zM26.719 66.719v-13.438h-13.438v13.438h13.438zM13.281 21.875v4.844h4.844zM33.281 41.875v4.844h4.844zM4.219 4.219l71.563 71.563-4.219 4.219-6.719-6.719h-51.563c-3.594 0-6.563-2.969-6.563-6.563v-51.563l-6.719-6.719zM53.281 13.281v13.438h13.438v-13.438h-13.438zM26.719 13.281h-4.844l-6.719-6.563h51.563c3.594 0 6.563 2.969 6.563 6.563v51.563l-6.563-6.719v-4.844h-4.844l-6.719-6.563h11.563v-13.438h-13.438v11.563l-6.563-6.719v-4.844h-4.844l-6.719-6.563h11.563v-13.438h-13.438v11.563l-6.563-6.719v-4.844z"></path>
</svg>
