<?xml version="1.0" encoding="utf-8"?>
<!-- Generated by IcoMoon.io -->
<!DOCTYPE svg PUBLIC "-//W3C//DTD SVG 1.1//EN" "http://www.w3.org/Graphics/SVG/1.1/DTD/svg11.dtd">
<svg version="1.1" xmlns="http://www.w3.org/2000/svg" xmlns:xlink="http://www.w3.org/1999/xlink" width="80" height="80" viewBox="0 0 80 80">
<path d="M40 0c-22.091 0-40 17.909-40 40s17.908 40 40 40c22.091 0 40-17.909 40-40s-17.909-40-40-40zM55 18.438c4.997 0 9.063 4.065 9.063 9.063 0 0.498-0.043 1.006-0.127 1.509-0.126 0.753-0.778 1.304-1.541 1.304s-1.415-0.551-1.541-1.304c-0.481-2.866-2.943-4.165-5.854-4.165s-5.372 1.299-5.853 4.165c-0.126 0.753-0.778 1.304-1.541 1.304-0 0 0 0-0 0-0.763 0-1.415-0.551-1.541-1.304-0.085-0.503-0.127-1.010-0.127-1.509 0-4.997 4.065-9.063 9.063-9.063zM25 18.438c4.997 0 9.063 4.065 9.063 9.063 0 0.498-0.043 1.006-0.127 1.509-0.126 0.753-0.778 1.304-1.541 1.304s-1.415-0.551-1.541-1.304c-0.481-2.866-2.943-4.165-5.854-4.165s-5.372 1.299-5.853 4.165c-0.126 0.753-0.778 1.304-1.541 1.304 0 0 0 0 0 0-0.763 0-1.415-0.551-1.541-1.304-0.085-0.503-0.127-1.010-0.127-1.509 0-4.997 4.065-9.063 9.063-9.063zM15 45h15v19.363c-8.601-2.235-15-10.088-15-19.363zM35 65v-20h10v20h-10zM50 64.363v-19.363h15c0 9.275-6.399 17.128-15 19.363z"></path>
</svg>
