<?xml version="1.0" encoding="utf-8"?>
<!-- Generated by IcoMoon.io -->
<!DOCTYPE svg PUBLIC "-//W3C//DTD SVG 1.1//EN" "http://www.w3.org/Graphics/SVG/1.1/DTD/svg11.dtd">
<svg version="1.1" xmlns="http://www.w3.org/2000/svg" xmlns:xlink="http://www.w3.org/1999/xlink" width="80" height="80" viewBox="0 0 80 80">
<path d="M40 80c22.091 0 40-17.909 40-40s-17.909-40-40-40-40 17.909-40 40 17.909 40 40 40zM40 7.5c17.949 0 32.5 14.551 32.5 32.5s-14.551 32.5-32.5 32.5-32.5-14.551-32.5-32.5 14.551-32.5 32.5-32.5zM15 40v5c0 11 9 20 20 20h10c11 0 20-9 20-20v-5h-50zM30 59.14c-2.073-0.739-3.978-1.939-5.589-3.55-2.844-2.844-4.411-6.605-4.411-10.589h10v14.14zM45 60h-10v-15h10v15zM55.589 55.589c-1.611 1.611-3.516 2.812-5.589 3.55v-14.14h10c0 3.985-1.566 7.745-4.411 10.589zM17.606 30c0 0 0 0 0 0 0.763 0 1.415-0.551 1.541-1.304 0.481-2.866 2.943-4.946 5.853-4.946s5.372 2.080 5.853 4.946c0.126 0.753 0.778 1.304 1.541 1.304s1.415-0.551 1.541-1.304c0.085-0.503 0.127-1.010 0.127-1.509 0-4.997-4.065-9.063-9.063-9.063s-9.063 4.065-9.063 9.063c0 0.498 0.043 1.006 0.127 1.509 0.127 0.753 0.778 1.304 1.541 1.304zM47.606 30c0 0 0 0 0 0 0.763 0 1.415-0.551 1.541-1.304 0.481-2.866 2.943-4.946 5.853-4.946s5.372 2.080 5.853 4.946c0.126 0.753 0.778 1.304 1.541 1.304s1.415-0.551 1.541-1.304c0.085-0.503 0.127-1.010 0.127-1.509 0-4.997-4.065-9.063-9.062-9.063s-9.063 4.065-9.063 9.063c0 0.498 0.042 1.006 0.127 1.509 0.127 0.753 0.778 1.304 1.541 1.304z"></path>
</svg>
