<?xml version="1.0" encoding="utf-8"?>
<!-- Generated by IcoMoon.io -->
<!DOCTYPE svg PUBLIC "-//W3C//DTD SVG 1.1//EN" "http://www.w3.org/Graphics/SVG/1.1/DTD/svg11.dtd">
<svg version="1.1" xmlns="http://www.w3.org/2000/svg" xmlns:xlink="http://www.w3.org/1999/xlink" width="80" height="80" viewBox="0 0 80 80">
<path d="M43.281 43.281c6.719 0 20 3.281 20 10v6.719h-40v-6.719c0-6.719 13.281-10 20-10zM65.469 43.906c6.719 1.094 14.531 4.219 14.531 9.375v6.719h-10v-6.719c0-3.906-1.719-6.875-4.531-9.375zM43.281 36.719c-5.469 0-10-4.531-10-10s4.531-10 10-10 10 4.531 10 10-4.531 10-10 10zM60 36.719c-1.094 0-2.031-0.156-2.969-0.469 1.875-2.656 2.969-5.938 2.969-9.531s-1.094-6.875-2.969-9.531c0.938-0.313 1.875-0.469 2.969-0.469 5.469 0 10 4.531 10 10s-4.531 10-10 10zM26.719 33.281v6.719h-10v10h-6.719v-10h-10v-6.719h10v-10h6.719v10h10z"></path>
</svg>
