<?xml version="1.0" encoding="utf-8"?>
<!-- Generated by IcoMoon.io -->
<!DOCTYPE svg PUBLIC "-//W3C//DTD SVG 1.1//EN" "http://www.w3.org/Graphics/SVG/1.1/DTD/svg11.dtd">
<svg version="1.1" xmlns="http://www.w3.org/2000/svg" xmlns:xlink="http://www.w3.org/1999/xlink" width="80" height="80" viewBox="0 0 80 80">
<path d="M53.281 58.281c4.531 0 8.438-3.75 8.438-8.281s-3.906-8.281-8.438-8.281-8.281 3.75-8.281 8.281 3.75 8.281 8.281 8.281zM31.719 26.719c0 4.531 3.75 8.281 8.281 8.281s8.281-3.75 8.281-8.281-3.75-8.438-8.281-8.438-8.281 3.906-8.281 8.438zM26.719 58.281c4.531 0 8.281-3.75 8.281-8.281s-3.75-8.281-8.281-8.281-8.438 3.75-8.438 8.281 3.906 8.281 8.438 8.281zM40 6.719c18.438 0 33.281 14.844 33.281 33.281s-14.844 33.281-33.281 33.281-33.281-14.844-33.281-33.281 14.844-33.281 33.281-33.281z"></path>
</svg>
