<?xml version="1.0" encoding="utf-8"?>
<!-- Generated by IcoMoon.io -->
<!DOCTYPE svg PUBLIC "-//W3C//DTD SVG 1.1//EN" "http://www.w3.org/Graphics/SVG/1.1/DTD/svg11.dtd">
<svg version="1.1" xmlns="http://www.w3.org/2000/svg" xmlns:xlink="http://www.w3.org/1999/xlink" width="80" height="80" viewBox="0 0 80 80">
<path d="M78.92 71.543l-42.862-39.020 1.995-2c1.632-1.637 2.515-3.752 2.65-5.907 0.078-0.035 0.156-0.071 0.231-0.113l8.046-5.031c1.089-1.281 1.009-3.302-0.178-4.492l-13.994-14.032c-1.187-1.19-3.203-1.27-4.48-0.178l-5.018 8.068c-0.041 0.075-0.077 0.154-0.112 0.232-2.149 0.136-4.258 1.020-5.89 2.657l-7.612 7.633c-1.633 1.637-2.514 3.752-2.65 5.907-0.078 0.035-0.157 0.072-0.232 0.113l-8.046 5.032c-1.089 1.28-1.009 3.302 0.178 4.492l13.994 14.032c1.187 1.19 3.203 1.27 4.48 0.179l5.018-8.068c0.041-0.075 0.077-0.153 0.113-0.232 2.149-0.136 4.258-1.020 5.89-2.657l2.21-2.217 38.916 42.978c1.128 1.246 2.867 1.447 3.865 0.446l3.934-3.944c0.997-1.001 0.797-2.745-0.446-3.876z"></path>
</svg>
