<?xml version="1.0" encoding="utf-8"?>
<!-- Generated by IcoMoon.io -->
<!DOCTYPE svg PUBLIC "-//W3C//DTD SVG 1.1//EN" "http://www.w3.org/Graphics/SVG/1.1/DTD/svg11.dtd">
<svg version="1.1" xmlns="http://www.w3.org/2000/svg" xmlns:xlink="http://www.w3.org/1999/xlink" width="80" height="80" viewBox="0 0 80 80">
<path d="M40 80c22.091 0 40-17.909 40-40s-17.909-40-40-40-40 17.909-40 40 17.909 40 40 40zM40 7.5c17.949 0 32.5 14.551 32.5 32.5s-14.551 32.5-32.5 32.5-32.5-14.551-32.5-32.5 14.551-32.5 32.5-32.5zM40 46.778c9.059 0 17.674-2.407 25-6.634-1.139 13.94-11.963 24.856-25 24.856s-23.861-10.928-25-24.867c7.326 4.227 15.941 6.646 25 6.646zM20 27.5c0-4.142 2.239-7.5 5-7.5s5 3.358 5 7.5c0 4.142-2.239 7.5-5 7.5s-5-3.358-5-7.5zM50 27.5c0-4.142 2.239-7.5 5-7.5s5 3.358 5 7.5c0 4.142-2.239 7.5-5 7.5s-5-3.358-5-7.5z"></path>
</svg>
