<?xml version="1.0" encoding="utf-8"?>
<!-- Generated by IcoMoon.io -->
<!DOCTYPE svg PUBLIC "-//W3C//DTD SVG 1.1//EN" "http://www.w3.org/Graphics/SVG/1.1/DTD/svg11.dtd">
<svg version="1.1" xmlns="http://www.w3.org/2000/svg" xmlns:xlink="http://www.w3.org/1999/xlink" width="80" height="80" viewBox="0 0 80 80">
<path d="M40 0c-22.091 0-40 17.909-40 40s17.909 40 40 40 40-17.909 40-40-17.909-40-40-40zM55 20c2.762 0 5 3.358 5 7.5s-2.238 7.5-5 7.5-5-3.358-5-7.5 2.238-7.5 5-7.5zM25 20c2.761 0 5 3.358 5 7.5s-2.239 7.5-5 7.5-5-3.358-5-7.5 2.239-7.5 5-7.5zM40 70c-13.037 0-23.861-10.928-25-24.867 7.326 4.228 15.941 6.646 25 6.646s17.674-2.407 25-6.634c-1.139 13.94-11.963 24.856-25 24.856z"></path>
</svg>
