<?xml version="1.0" encoding="utf-8"?>
<!-- Generated by IcoMoon.io -->
<!DOCTYPE svg PUBLIC "-//W3C//DTD SVG 1.1//EN" "http://www.w3.org/Graphics/SVG/1.1/DTD/svg11.dtd">
<svg version="1.1" xmlns="http://www.w3.org/2000/svg" xmlns:xlink="http://www.w3.org/1999/xlink" width="80" height="80" viewBox="0 0 80 80">
<path d="M48.281 45v-10h6.719v10h-6.719zM43.281 30v20h13.438c1.875 0 3.281-1.406 3.281-3.281v-13.438c0-1.875-1.406-3.281-3.281-3.281h-13.438zM36.719 50v-20h-5v8.281h-6.719v-8.281h-5v20h5v-6.719h6.719v6.719h5zM63.281 10c3.594 0 6.719 3.125 6.719 6.719v46.563c0 3.594-3.125 6.719-6.719 6.719h-46.563c-3.75 0-6.719-3.125-6.719-6.719v-46.563c0-3.594 2.969-6.719 6.719-6.719h46.563z"></path>
</svg>
