<?xml version="1.0" encoding="utf-8"?>
<!-- Generated by IcoMoon.io -->
<!DOCTYPE svg PUBLIC "-//W3C//DTD SVG 1.1//EN" "http://www.w3.org/Graphics/SVG/1.1/DTD/svg11.dtd">
<svg version="1.1" xmlns="http://www.w3.org/2000/svg" xmlns:xlink="http://www.w3.org/1999/xlink" width="80" height="80" viewBox="0 0 80 80">
<path d="M8.281 8.281c21.16 21.236 42.471 42.32 63.75 63.438l-3.75 3.594-25.313-25.313h-11.25v-11.406l-5-5v16.406h-5v-8.281h-6.719v8.281h-5v-20h5v6.719h6.719v-6.719h1.25l-18.281-18.281zM43.281 35h-1.25l-5-5h6.25c2.656 0 5 2.344 5 5v6.406l-5-5v-1.406zM58.281 35v3.281h6.719v-3.281h-6.719zM58.281 50h-1.25l-3.75-3.594v-16.406h11.719c2.656 0 5 2.344 5 5v3.281c0 2.031-1.25 4.063-2.969 4.688l2.969 7.031h-5l-2.969-6.719h-3.75v6.719z"></path>
</svg>
