<?xml version="1.0" encoding="utf-8"?>
<!-- Generated by IcoMoon.io -->
<!DOCTYPE svg PUBLIC "-//W3C//DTD SVG 1.1//EN" "http://www.w3.org/Graphics/SVG/1.1/DTD/svg11.dtd">
<svg version="1.1" xmlns="http://www.w3.org/2000/svg" xmlns:xlink="http://www.w3.org/1999/xlink" width="80" height="80" viewBox="0 0 80 80">
<path d="M56.719 53.281c7.344 0 13.281-5.938 13.281-13.281s-5.938-13.281-13.281-13.281-13.438 5.938-13.438 13.281 6.094 13.281 13.438 13.281zM56.719 20c11.094 0 20 8.906 20 20s-8.906 20-20 20-20-8.906-20-20 8.906-20 20-20zM16.719 26.719c7.344 0 13.281 5.938 13.281 13.281s-5.938 13.281-13.281 13.281-13.438-5.938-13.438-13.281 6.094-13.281 13.438-13.281z"></path>
</svg>
