<?xml version="1.0" encoding="utf-8"?>
<!-- Generated by IcoMoon.io -->
<!DOCTYPE svg PUBLIC "-//W3C//DTD SVG 1.1//EN" "http://www.w3.org/Graphics/SVG/1.1/DTD/svg11.dtd">
<svg version="1.1" xmlns="http://www.w3.org/2000/svg" xmlns:xlink="http://www.w3.org/1999/xlink" width="80" height="80" viewBox="0 0 80 80">
<path d="M22.5 45h-5v35h5c1.375 0 2.5-1.125 2.5-2.5v-30c0-1.375-1.125-2.5-2.5-2.5z"></path>
<path d="M57.5 45c-1.375 0-2.5 1.125-2.5 2.5v30c0 1.375 1.125 2.5 2.5 2.5h5v-35h-5z"></path>
<path d="M80 40c0-22.091-17.909-40-40-40s-40 17.909-40 40c0 4.798 0.846 9.398 2.395 13.66-1.522 2.594-2.395 5.615-2.395 8.84 0 8.816 6.519 16.108 15 17.322v-34.642c-2.493 0.357-4.817 1.238-6.856 2.53-0.421-2.087-0.644-4.247-0.644-6.459 0-17.949 14.551-32.5 32.5-32.5s32.5 14.551 32.5 32.5c0 2.212-0.221 4.372-0.642 6.461-2.039-1.293-4.364-2.176-6.858-2.533v34.644c8.48-1.213 15-8.506 15-17.321 0-3.225-0.873-6.245-2.394-8.839 1.549-4.263 2.394-8.863 2.394-13.661z"></path>
</svg>
