<?xml version="1.0" encoding="utf-8"?>
<!-- Generated by IcoMoon.io -->
<!DOCTYPE svg PUBLIC "-//W3C//DTD SVG 1.1//EN" "http://www.w3.org/Graphics/SVG/1.1/DTD/svg11.dtd">
<svg version="1.1" xmlns="http://www.w3.org/2000/svg" xmlns:xlink="http://www.w3.org/1999/xlink" width="80" height="80" viewBox="0 0 80 80">
<path d="M55.469 67.813l12.188-12.188-12.188-12.031-12.031 12.188zM46.719 36.719c-1.875 0-3.438 1.406-3.438 3.281s1.563 3.281 3.438 3.281 3.281-1.406 3.281-3.281-1.406-3.281-3.281-3.281zM40 50c1.875 0 3.281-1.406 3.281-3.281s-1.406-3.438-3.281-3.438-3.281 1.563-3.281 3.438 1.406 3.281 3.281 3.281zM33.281 43.281c1.875 0 3.438-1.406 3.438-3.281s-1.563-3.281-3.438-3.281-3.281 1.406-3.281 3.281 1.406 3.281 3.281 3.281zM24.375 36.563l12.031-12.188-12.031-12.031-12.188 12.188zM40 30c-1.875 0-3.281 1.406-3.281 3.281s1.406 3.438 3.281 3.438 3.281-1.563 3.281-3.438-1.406-3.281-3.281-3.281zM59.063 40l13.281 13.281c1.25 1.25 1.25 3.438 0 4.688l-14.375 14.531c-0.625 0.625-1.406 0.938-2.344 0.938s-1.875-0.313-2.5-0.938l-13.125-13.281-13.281 13.281c-1.25 1.25-3.438 1.25-4.688 0l-14.531-14.531c-1.25-1.25-1.25-3.438 0-4.688l13.281-13.281-13.281-13.125c-1.25-1.25-1.25-3.594 0-4.844l14.531-14.375c0.625-0.625 1.563-0.938 2.344-0.938 0.938 0 1.719 0.313 2.344 0.938l13.281 13.281 13.125-13.281c1.25-1.25 3.594-1.25 4.844 0l14.375 14.375c1.25 1.25 1.25 3.594 0 4.844z"></path>
</svg>
