<?xml version="1.0" encoding="utf-8"?>
<!-- Generated by IcoMoon.io -->
<!DOCTYPE svg PUBLIC "-//W3C//DTD SVG 1.1//EN" "http://www.w3.org/Graphics/SVG/1.1/DTD/svg11.dtd">
<svg version="1.1" xmlns="http://www.w3.org/2000/svg" xmlns:xlink="http://www.w3.org/1999/xlink" width="80" height="80" viewBox="0 0 80 80">
<path d="M38.281 30c0-4.531 3.906-8.281 8.438-8.281s8.281 3.75 8.281 8.281-3.75 8.281-8.281 8.281-8.438-3.75-8.438-8.281zM25.469 8.75c-5.469 5.469-8.75 12.969-8.75 21.25s3.281 15.781 8.75 21.25l-4.688 4.688c-6.563-6.563-10.781-15.781-10.781-25.938s4.219-19.375 10.781-25.938zM56.719 66.719c3.594 0 6.563-3.125 6.563-6.719h6.719c0 7.344-5.938 13.281-13.281 13.281-1.875 0-3.75-0.313-5.469-1.094-4.531-2.344-7.188-5.781-9.219-11.875-1.094-3.281-2.969-4.844-5.625-6.875-2.969-2.188-6.563-5-9.531-10.469-2.344-4.219-3.594-8.75-3.594-12.969 0-13.125 10.313-23.281 23.438-23.281s23.281 10.156 23.281 23.281h-6.719c0-9.375-7.188-16.719-16.563-16.719s-16.719 7.344-16.719 16.719c0 3.125 0.938 6.719 2.656 9.844 2.344 4.375 5.156 6.406 7.813 8.438 3.125 2.344 6.25 4.844 7.969 10 1.719 5 3.281 6.563 5.625 7.813 0.625 0.313 1.719 0.625 2.656 0.625z"></path>
</svg>
