<?xml version="1.0" encoding="utf-8"?>
<!-- Generated by IcoMoon.io -->
<!DOCTYPE svg PUBLIC "-//W3C//DTD SVG 1.1//EN" "http://www.w3.org/Graphics/SVG/1.1/DTD/svg11.dtd">
<svg version="1.1" xmlns="http://www.w3.org/2000/svg" xmlns:xlink="http://www.w3.org/1999/xlink" width="80" height="80" viewBox="0 0 80 80">
<path d="M40 0c-22.091 0-40 17.909-40 40s17.909 40 40 40 40-17.909 40-40-17.909-40-40-40zM55 20c2.761 0 5 2.239 5 5s-2.239 5-5 5-5-2.239-5-5 2.239-5 5-5zM25 20c2.761 0 5 2.239 5 5s-2.239 5-5 5-5-2.239-5-5 2.239-5 5-5zM42.484 53.076c-0.098-0.088-0.194-0.179-0.288-0.273-1.464-1.464-2.196-3.383-2.197-5.302-0 1.919-0.732 3.838-2.197 5.302-0.094 0.094-0.19 0.185-0.288 0.273-6.76 6.134-22.515-0.144-22.515-8.076 4.844 3.125 8.629 0.765 12.197-2.803 2.929-2.929 7.678-2.929 10.607 0 1.464 1.464 2.196 3.383 2.197 5.302 0-1.919 0.732-3.838 2.197-5.302 2.929-2.929 7.678-2.929 10.607 0 3.568 3.568 7.353 5.928 12.196 2.803 0 7.932-15.756 14.21-22.516 8.076z"></path>
</svg>
