<?xml version="1.0" encoding="utf-8"?>
<!-- Generated by IcoMoon.io -->
<!DOCTYPE svg PUBLIC "-//W3C//DTD SVG 1.1//EN" "http://www.w3.org/Graphics/SVG/1.1/DTD/svg11.dtd">
<svg version="1.1" xmlns="http://www.w3.org/2000/svg" xmlns:xlink="http://www.w3.org/1999/xlink" width="80" height="80" viewBox="0 0 80 80">
<path d="M40 80c22.091 0 40-17.909 40-40s-17.909-40-40-40-40 17.909-40 40 17.909 40 40 40zM40 7.5c17.949 0 32.5 14.551 32.5 32.5s-14.551 32.5-32.5 32.5-32.5-14.551-32.5-32.5 14.551-32.5 32.5-32.5zM20 25c0-2.761 2.239-5 5-5s5 2.239 5 5-2.239 5-5 5-5-2.239-5-5zM50 25c0-2.761 2.239-5 5-5s5 2.239 5 5-2.239 5-5 5-5-2.239-5-5z"></path>
<path d="M52.803 42.197c-2.929-2.929-7.678-2.929-10.607 0s-2.929 7.678 0 10.607c0.094 0.094 0.19 0.185 0.288 0.273 6.76 6.134 22.516-0.144 22.516-8.076-4.844 3.125-8.629 0.765-12.197-2.803z"></path>
<path d="M27.197 42.197c2.929-2.929 7.678-2.929 10.607 0s2.929 7.678 0 10.607c-0.094 0.094-0.19 0.185-0.288 0.273-6.76 6.134-22.516-0.144-22.516-8.076 4.844 3.125 8.629 0.765 12.197-2.803z"></path>
</svg>
