<?xml version="1.0" encoding="utf-8"?>
<!-- Generated by IcoMoon.io -->
<!DOCTYPE svg PUBLIC "-//W3C//DTD SVG 1.1//EN" "http://www.w3.org/Graphics/SVG/1.1/DTD/svg11.dtd">
<svg version="1.1" xmlns="http://www.w3.org/2000/svg" xmlns:xlink="http://www.w3.org/1999/xlink" width="85" height="80" viewBox="0 0 85 80">
<path d="M50 5c19.33 0 35 15.67 35 35s-15.67 35-35 35v-7.5c7.346 0 14.251-2.86 19.445-8.055s8.055-12.1 8.055-19.445c0-7.345-2.86-14.251-8.055-19.445s-12.1-8.055-19.445-8.055c-7.345 0-14.251 2.86-19.445 8.055-3.995 3.995-6.608 9.004-7.602 14.445h14.547l-17.5 20-17.5-20h12.857c2.427-16.961 17.011-30 34.643-30zM65 35v10h-20v-25h10v15z"></path>
</svg>
