<?xml version="1.0" encoding="utf-8"?>
<!-- Generated by IcoMoon.io -->
<!DOCTYPE svg PUBLIC "-//W3C//DTD SVG 1.1//EN" "http://www.w3.org/Graphics/SVG/1.1/DTD/svg11.dtd">
<svg version="1.1" xmlns="http://www.w3.org/2000/svg" xmlns:xlink="http://www.w3.org/1999/xlink" width="80" height="80" viewBox="0 0 80 80">
<path d="M48.906 19.531c3.438 3.281 4.844 7.813 4.219 12.344l-0.156 1.406h-6.406l0.469-1.875c0.478-2.706-0.532-5.532-2.5-7.5-3.438-3.438-5-7.969-4.375-12.5l0.156-1.406h6.406l-0.313 2.031c-0.469 2.656 0.313 5.313 2.188 7.344zM62.188 19.531c3.438 3.281 5 7.813 4.375 12.344l-0.313 1.406h-6.25l0.313-1.875c0.469-2.656-0.313-5.313-2.188-7.344l-0.313-0.156c-3.438-3.438-5-7.969-4.375-12.5l0.313-1.406h6.25l-0.313 2.031c-0.469 2.656 0.313 5.313 2.188 7.344zM63.281 66.719v-20h-6.563v20h6.563zM50 66.719v-20h-6.719v20h6.719zM36.719 66.719v-20h-6.719v20h6.719zM23.281 66.719v-20h-6.563v20h6.563zM37.188 40h36.094v26.719c0 3.594-2.969 6.563-6.563 6.563h-53.438c-3.594 0-6.563-2.969-6.563-6.563v-26.719h10v-2.5c0-4.063 3.438-7.5 7.5-7.5 2.404 0 4.399 1.274 5.625 2.5l4.531 5.156c0.781 0.938 1.719 1.563 2.813 2.344zM16.719 20c0-3.75 2.813-6.719 6.563-6.719s6.719 2.969 6.719 6.719-2.969 6.719-6.719 6.719-6.563-2.969-6.563-6.719z"></path>
</svg>
