<?xml version="1.0" encoding="utf-8"?>
<!-- Generated by IcoMoon.io -->
<!DOCTYPE svg PUBLIC "-//W3C//DTD SVG 1.1//EN" "http://www.w3.org/Graphics/SVG/1.1/DTD/svg11.dtd">
<svg version="1.1" xmlns="http://www.w3.org/2000/svg" xmlns:xlink="http://www.w3.org/1999/xlink" width="80" height="80" viewBox="0 0 80 80">
<path d="M56.953 40c10.762-6.823 18.047-19.938 18.047-35 0-1.693-0.093-3.362-0.272-5h-69.456c-0.179 1.638-0.272 3.307-0.272 5 0 15.062 7.285 28.177 18.047 35-10.762 6.823-18.047 19.938-18.047 35 0 1.693 0.093 3.362 0.272 5h69.456c0.179-1.638 0.272-3.307 0.272-5 0-15.062-7.285-28.177-18.047-35zM12.5 75c0-14.603 6.263-26.985 17.5-31.071v-7.858c-11.237-4.085-17.5-16.468-17.5-31.071v0h55c0 14.603-6.263 26.986-17.5 31.071v7.858c11.237 4.085 17.5 16.468 17.5 31.071h-55zM48.408 52.312c-5.598-3.175-5.907-7.294-5.908-9.794v-5.018c0-2.5 0.297-6.634 5.918-9.818 3.008-1.747 5.61-4.402 7.582-7.683h-31.999c1.974 3.284 4.579 5.941 7.591 7.688 5.598 3.175 5.907 7.294 5.908 9.794v5.018c0 2.499-0.297 6.634-5.918 9.817-5.674 3.295-9.901 9.819-11.179 17.683h39.193c-1.278-7.868-5.51-14.394-11.188-17.688z"></path>
</svg>
