<?xml version="1.0" encoding="utf-8"?>
<!-- Generated by IcoMoon.io -->
<!DOCTYPE svg PUBLIC "-//W3C//DTD SVG 1.1//EN" "http://www.w3.org/Graphics/SVG/1.1/DTD/svg11.dtd">
<svg version="1.1" xmlns="http://www.w3.org/2000/svg" xmlns:xlink="http://www.w3.org/1999/xlink" width="80" height="80" viewBox="0 0 80 80">
<path d="M71.719 38.281v-3.281h-6.719v3.281h6.719zM71.719 30c2.656 0 5 2.344 5 5v3.281c0 2.656-2.344 5-5 5h-6.719v6.719h-5v-20h11.719zM41.719 35v-5h15v5h-5v15h-5v-15h-5zM23.281 35v-5h15v5h-5v15h-5v-15h-5zM15 36.719v-6.719h5v20h-5v-8.281h-6.719v8.281h-5v-20h5v6.719h6.719z"></path>
</svg>
