<?xml version="1.0" encoding="utf-8"?>
<!-- Generated by IcoMoon.io -->
<!DOCTYPE svg PUBLIC "-//W3C//DTD SVG 1.1//EN" "http://www.w3.org/Graphics/SVG/1.1/DTD/svg11.dtd">
<svg version="1.1" xmlns="http://www.w3.org/2000/svg" xmlns:xlink="http://www.w3.org/1999/xlink" width="80" height="80" viewBox="0 0 80 80">
<path d="M20.277 40c0-5.111 4.143-9.254 9.254-9.254s9.254 4.143 9.254 9.254c0 5.111-4.143 9.254-9.254 9.254s-9.254-4.143-9.254-9.254zM40 0c-22.092 0-40 17.909-40 40s17.908 40 40 40c22.091 0 40-17.909 40-40s-17.909-40-40-40zM29.64 74.944c-12.028-6.998-20.115-20.025-20.115-34.944s8.087-27.946 20.114-34.944c12.032 6.997 20.124 20.023 20.124 34.944s-8.092 27.947-20.124 34.944z"></path>
</svg>
