<?xml version="1.0" encoding="utf-8"?>
<!-- Generated by IcoMoon.io -->
<!DOCTYPE svg PUBLIC "-//W3C//DTD SVG 1.1//EN" "http://www.w3.org/Graphics/SVG/1.1/DTD/svg11.dtd">
<svg version="1.1" xmlns="http://www.w3.org/2000/svg" xmlns:xlink="http://www.w3.org/1999/xlink" width="80" height="80" viewBox="0 0 80 80">
<path d="M57.36 49.127h18.441c0.142-1.279 0.199-2.586 0.199-3.922 0-6.267-1.682-12.146-4.619-17.208 3.038-8.071 2.929-14.921-1.137-19.015-3.867-3.85-14.241-3.225-25.97 1.969-0.867-0.066-1.744-0.099-2.628-0.099-16.097 0-29.604 11.078-33.337 26.004 5.050-6.465 10.362-11.153 17.459-14.566-0.645 0.605-4.41 4.348-5.044 4.982-18.715 18.709-24.616 43.149-18.266 49.5 4.827 4.826 13.575 4.011 23.623-0.91 4.672 2.38 9.961 3.721 15.564 3.721 15.089 0 27.875-9.712 32.507-23.238h-18.583c-2.557 4.717-7.558 7.928-13.298 7.928s-10.741-3.211-13.298-7.928c-1.137-2.131-1.79-4.575-1.79-7.161v-0.056h30.177zM27.211 40.063c0.426-7.587 6.734-13.639 14.435-13.639s14.009 6.052 14.435 13.639h-28.87zM70.075 12.797c2.619 2.647 2.554 7.517 0.313 13.595-3.839-5.852-9.415-10.464-15.999-13.097 7.040-3.019 12.766-3.418 15.686-0.499zM7.303 75.567c-3.342-3.343-2.335-10.361 1.971-18.815 2.68 7.521 7.903 13.835 14.636 17.903-7.455 3.384-13.558 3.959-16.607 0.912z"></path>
</svg>
