<?xml version="1.0" encoding="utf-8"?>
<!-- Generated by IcoMoon.io -->
<!DOCTYPE svg PUBLIC "-//W3C//DTD SVG 1.1//EN" "http://www.w3.org/Graphics/SVG/1.1/DTD/svg11.dtd">
<svg version="1.1" xmlns="http://www.w3.org/2000/svg" xmlns:xlink="http://www.w3.org/1999/xlink" width="80" height="80" viewBox="0 0 80 80">
<path d="M74.991 10c0.003 0.003 0.006 0.006 0.009 0.009v59.982c-0.003 0.003-0.006 0.006-0.009 0.009h-69.982c-0.003-0.003-0.006-0.006-0.009-0.009v-59.982c0.003-0.003 0.006-0.006 0.009-0.009h69.982zM75 5h-70c-2.75 0-5 2.25-5 5v60c0 2.75 2.25 5 5 5h70c2.75 0 5-2.25 5-5v-60c0-2.75-2.25-5-5-5v0z"></path>
<path d="M65 22.5c0 4.142-3.358 7.5-7.5 7.5s-7.5-3.358-7.5-7.5 3.358-7.5 7.5-7.5 7.5 3.358 7.5 7.5z"></path>
<path d="M70 65h-60v-10l17.5-30 20 25h5l17.5-15z"></path>
</svg>
