<?xml version="1.0" encoding="utf-8"?>
<!-- Generated by IcoMoon.io -->
<!DOCTYPE svg PUBLIC "-//W3C//DTD SVG 1.1//EN" "http://www.w3.org/Graphics/SVG/1.1/DTD/svg11.dtd">
<svg version="1.1" xmlns="http://www.w3.org/2000/svg" xmlns:xlink="http://www.w3.org/1999/xlink" width="80" height="80" viewBox="0 0 80 80">
<path d="M66.719 60v-40h-53.438v40h53.438zM66.719 13.281c3.594 0 6.563 3.125 6.563 6.719v40c0 3.594-2.969 6.719-6.563 6.719h-53.438c-3.594 0-6.563-3.125-6.563-6.719v-40c0-3.594 2.969-6.719 6.563-6.719h53.438zM40 33.281v6.719h-6.719v-6.719h6.719zM26.719 33.281v6.719h-6.719v-6.719h6.719zM53.281 46.719v6.563h-6.563v-6.563h6.563zM53.281 33.281v6.719h-6.563v-6.719h6.563z"></path>
</svg>
