<?xml version="1.0" encoding="utf-8"?>
<!-- Generated by IcoMoon.io -->
<!DOCTYPE svg PUBLIC "-//W3C//DTD SVG 1.1//EN" "http://www.w3.org/Graphics/SVG/1.1/DTD/svg11.dtd">
<svg version="1.1" xmlns="http://www.w3.org/2000/svg" xmlns:xlink="http://www.w3.org/1999/xlink" width="80" height="80" viewBox="0 0 80 80">
<path d="M70 61.719v-38.438c-3.594-1.094-7.656-1.563-11.719-1.563-5.625 0-13.75 2.188-18.281 5v38.281c4.531-2.813 12.656-5 18.281-5 4.063 0 8.125 0.625 11.719 1.719zM58.281 15c6.907 0 14.18 1.725 18.438 5v48.594c0 0.781-0.938 1.719-1.719 1.719-0.313 0-0.469 0-0.781-0.156-4.688-2.5-10.469-3.438-15.938-3.438-5.625 0-13.75 2.188-18.281 5-4.844-3.594-11.719-5-18.281-5-4.844 0-11.406 1.406-15.938 3.594-0.313 0-0.469 0.156-0.781 0.156-0.781 0-1.719-0.781-1.719-1.563v-48.906c4.844-3.594 11.875-5 18.438-5s13.438 1.406 18.281 5c4.844-3.594 11.719-5 18.281-5z"></path>
</svg>
