<?xml version="1.0" encoding="utf-8"?>
<!-- Generated by IcoMoon.io -->
<!DOCTYPE svg PUBLIC "-//W3C//DTD SVG 1.1//EN" "http://www.w3.org/Graphics/SVG/1.1/DTD/svg11.dtd">
<svg version="1.1" xmlns="http://www.w3.org/2000/svg" xmlns:xlink="http://www.w3.org/1999/xlink" width="80" height="80" viewBox="0 0 80 80">
<path d="M39.844 30h10.156l-8.281 5.938 3.125 9.688-8.125-6.094-8.281 6.094 3.125-9.688-8.281-5.938h10.156l3.281-10zM66.719 6.719c3.594 0 6.563 2.813 6.563 6.563v16.719h-6.563v-16.719h-60v40h43.281v6.719h-6.719v6.719h6.719v6.563h-26.719v-6.563h6.719v-6.719h-23.281c-3.75 0-6.719-3.125-6.719-6.719v-40c0-3.75 2.969-6.563 6.719-6.563h60zM76.719 66.719v-23.438h-16.719v23.438h16.719zM76.719 36.719c1.875 0 3.281 1.406 3.281 3.281v30c0 1.875-1.406 3.281-3.281 3.281h-16.719c-1.875 0-3.281-1.406-3.281-3.281v-30c0-1.875 1.406-3.281 3.281-3.281h16.719z"></path>
</svg>
