<?xml version="1.0" encoding="utf-8"?>
<!-- Generated by IcoMoon.io -->
<!DOCTYPE svg PUBLIC "-//W3C//DTD SVG 1.1//EN" "http://www.w3.org/Graphics/SVG/1.1/DTD/svg11.dtd">
<svg version="1.1" xmlns="http://www.w3.org/2000/svg" xmlns:xlink="http://www.w3.org/1999/xlink" width="80" height="80" viewBox="0 0 80 80">
<path d="M61.249 58.751c-5.008 0-9.717-1.95-13.258-5.491l-7.991-7.991-7.99 7.99c-3.542 3.542-8.25 5.492-13.258 5.492s-9.718-1.95-13.26-5.492c-3.542-3.542-5.492-8.25-5.492-13.259s1.95-9.717 5.492-13.259c3.542-3.542 8.251-5.492 13.259-5.492s9.717 1.95 13.259 5.492l7.99 7.99 7.99-7.99c3.542-3.542 8.25-5.492 13.259-5.492s9.718 1.95 13.259 5.492c3.542 3.542 5.492 8.25 5.492 13.259s-1.95 9.717-5.492 13.259c-3.541 3.542-8.25 5.492-13.259 5.492zM53.259 47.991c2.135 2.134 4.972 3.309 7.99 3.309s5.856-1.175 7.99-3.31c2.134-2.135 3.31-4.972 3.31-7.99s-1.175-5.856-3.31-7.99c-2.134-2.134-4.972-3.31-7.99-3.31s-5.856 1.175-7.99 3.31l-7.99 7.99 7.99 7.991zM18.751 28.7c-3.018 0-5.856 1.175-7.99 3.31s-3.31 4.972-3.31 7.99c0 3.018 1.175 5.856 3.31 7.99s4.972 3.31 7.99 3.31c3.018 0 5.856-1.175 7.99-3.31l7.99-7.99-7.99-7.99c-2.134-2.134-4.972-3.31-7.99-3.31v0z"></path>
</svg>
