<?xml version="1.0" encoding="utf-8"?>
<!-- Generated by IcoMoon.io -->
<!DOCTYPE svg PUBLIC "-//W3C//DTD SVG 1.1//EN" "http://www.w3.org/Graphics/SVG/1.1/DTD/svg11.dtd">
<svg version="1.1" xmlns="http://www.w3.org/2000/svg" xmlns:xlink="http://www.w3.org/1999/xlink" width="80" height="80" viewBox="0 0 80 80">
<path d="M35 23.75c0-2.063 1.688-3.75 3.75-3.75h2.5c2.063 0 3.75 1.688 3.75 3.75v2.5c0 2.063-1.688 3.75-3.75 3.75h-2.5c-2.063 0-3.75-1.688-3.75-3.75v-2.5z"></path>
<path d="M50 60h-20v-5h5v-15h-5v-5h15v20h5z"></path>
<path d="M40 0c-22.091 0-40 17.909-40 40s17.909 40 40 40 40-17.909 40-40-17.909-40-40-40zM40 72.5c-17.949 0-32.5-14.551-32.5-32.5s14.551-32.5 32.5-32.5 32.5 14.551 32.5 32.5-14.551 32.5-32.5 32.5z"></path>
</svg>
