<?xml version="1.0" encoding="utf-8"?>
<!-- Generated by IcoMoon.io -->
<!DOCTYPE svg PUBLIC "-//W3C//DTD SVG 1.1//EN" "http://www.w3.org/Graphics/SVG/1.1/DTD/svg11.dtd">
<svg version="1.1" xmlns="http://www.w3.org/2000/svg" xmlns:xlink="http://www.w3.org/1999/xlink" width="80" height="80" viewBox="0 0 80 80">
<path d="M30 15h10v5h-10zM45 15h10v5h-10zM70 15v20h-15v-5h10v-10h-5v-5zM25 30h10v5h-10zM40 30h10v5h-10zM15 20v10h5v5h-10v-20h15v5zM30 45h10v5h-10zM45 45h10v5h-10zM70 45v20h-15v-5h10v-10h-5v-5zM25 60h10v5h-10zM40 60h10v5h-10zM15 50v10h5v5h-10v-20h15v5zM75 5h-70v70h70v-70zM80 0v0 80h-80v-80h80z"></path>
</svg>
