<?xml version="1.0" encoding="utf-8"?>
<!-- Generated by IcoMoon.io -->
<!DOCTYPE svg PUBLIC "-//W3C//DTD SVG 1.1//EN" "http://www.w3.org/Graphics/SVG/1.1/DTD/svg11.dtd">
<svg version="1.1" xmlns="http://www.w3.org/2000/svg" xmlns:xlink="http://www.w3.org/1999/xlink" width="80" height="80" viewBox="0 0 80 80">
<path d="M40 7.203c10.688 0 11.953 0.047 16.156 0.234 3.906 0.172 6.016 0.828 7.422 1.375 1.859 0.719 3.203 1.594 4.594 2.984 1.406 1.406 2.266 2.734 3 4.594 0.547 1.406 1.203 3.531 1.375 7.422 0.187 4.219 0.234 5.484 0.234 16.156s-0.047 11.953-0.234 16.156c-0.172 3.906-0.828 6.016-1.375 7.422-0.719 1.859-1.594 3.203-2.984 4.594-1.406 1.406-2.734 2.266-4.594 3-1.406 0.547-3.531 1.203-7.422 1.375-4.219 0.188-5.484 0.234-16.156 0.234s-11.953-0.047-16.156-0.234c-3.906-0.172-6.016-0.828-7.422-1.375-1.859-0.719-3.203-1.594-4.594-2.984-1.406-1.406-2.266-2.734-3-4.594-0.547-1.406-1.203-3.531-1.375-7.422-0.188-4.219-0.234-5.484-0.234-16.156s0.047-11.953 0.234-16.156c0.172-3.906 0.828-6.016 1.375-7.422 0.719-1.859 1.594-3.203 2.984-4.594 1.406-1.406 2.734-2.266 4.594-3 1.406-0.547 3.531-1.203 7.422-1.375 4.203-0.188 5.469-0.234 16.156-0.234zM40 0c-10.859 0-12.219 0.047-16.484 0.234-4.25 0.188-7.172 0.875-9.703 1.859-2.641 1.031-4.875 2.391-7.094 4.625-2.234 2.219-3.594 4.453-4.625 7.078-0.984 2.547-1.672 5.453-1.859 9.703-0.188 4.281-0.234 5.641-0.234 16.5s0.047 12.219 0.234 16.484c0.188 4.25 0.875 7.172 1.859 9.703 1.031 2.641 2.391 4.875 4.625 7.094 2.219 2.219 4.453 3.594 7.078 4.609 2.547 0.984 5.453 1.672 9.703 1.859 4.266 0.188 5.625 0.234 16.484 0.234s12.219-0.047 16.484-0.234c4.25-0.188 7.172-0.875 9.703-1.859 2.625-1.016 4.859-2.391 7.078-4.609s3.594-4.453 4.609-7.078c0.984-2.547 1.672-5.453 1.859-9.703 0.188-4.266 0.234-5.625 0.234-16.484s-0.047-12.219-0.234-16.484c-0.188-4.25-0.875-7.172-1.859-9.703-0.984-2.656-2.344-4.891-4.578-7.109-2.219-2.219-4.453-3.594-7.078-4.609-2.547-0.984-5.453-1.672-9.703-1.859-4.281-0.203-5.641-0.25-16.5-0.25v0z"></path>
<path d="M40 19.453c-11.344 0-20.547 9.203-20.547 20.547s9.203 20.547 20.547 20.547 20.547-9.203 20.547-20.547c0-11.344-9.203-20.547-20.547-20.547zM40 53.328c-7.359 0-13.328-5.969-13.328-13.328s5.969-13.328 13.328-13.328c7.359 0 13.328 5.969 13.328 13.328s-5.969 13.328-13.328 13.328z"></path>
<path d="M66.156 18.641c0 2.649-2.148 4.797-4.797 4.797s-4.797-2.148-4.797-4.797c0-2.649 2.148-4.797 4.797-4.797s4.797 2.148 4.797 4.797z"></path>
</svg>
