<?xml version="1.0" encoding="utf-8"?>
<!-- Generated by IcoMoon.io -->
<!DOCTYPE svg PUBLIC "-//W3C//DTD SVG 1.1//EN" "http://www.w3.org/Graphics/SVG/1.1/DTD/svg11.dtd">
<svg version="1.1" xmlns="http://www.w3.org/2000/svg" xmlns:xlink="http://www.w3.org/1999/xlink" width="80" height="80" viewBox="0 0 80 80">
<path d="M40 17.031l-7.656 7.5-4.688-4.688 12.344-12.344 18.906 18.906c8.125 8.125 9.844 20.156 5.313 30l-24.219-24.063v-15.313zM40 65.313v-16.094l-15.938-15.938c-2.656 3.438-4.063 7.656-4.063 12.031 0 10.749 9.25 20 20 20zM68.906 69.531l1.094 1.25-4.219 4.219-9.063-9.063c-4.844 3.906-10.781 5.938-16.719 5.938-6.875 0-13.75-2.656-18.906-7.813-9.688-9.844-10.313-25.156-1.875-35.625l-9.219-9.219 4.219-4.219c18.202 18.202 36.305 36.509 54.688 54.531z"></path>
</svg>
