<?xml version="1.0" encoding="utf-8"?>
<!-- Generated by IcoMoon.io -->
<!DOCTYPE svg PUBLIC "-//W3C//DTD SVG 1.1//EN" "http://www.w3.org/Graphics/SVG/1.1/DTD/svg11.dtd">
<svg version="1.1" xmlns="http://www.w3.org/2000/svg" xmlns:xlink="http://www.w3.org/1999/xlink" width="80" height="80" viewBox="0 0 80 80">
<path d="M20.782 21.615c2.565-2.566 6.719-2.566 9.282-0.002l0.611 0.615 7.899-7.903-0.615-0.616c-4.502-4.508-10.821-6.084-16.595-4.728-0.828-5.092-5.241-8.978-10.56-8.981-5.91 0-10.7 4.8-10.701 10.715 0 5.104 3.562 9.375 8.333 10.455-1.808 6.051-0.331 12.878 4.441 17.655l17.799 17.805 7.89-7.907-17.798-17.804c-2.553-2.556-2.558-6.729 0.014-9.304zM79.899 10.715c0.001-5.919-4.79-10.715-10.702-10.715-5.409 0-9.881 4.019-10.6 9.237-6.021-1.771-12.796-0.273-17.55 4.485l-17.8 17.805 7.899 7.904 17.794-17.801c2.573-2.575 6.718-2.571 9.272-0.014 2.562 2.565 2.562 6.728-0.003 9.293l-0.609 0.612 7.891 7.91 0.614-0.619c4.723-4.732 6.225-11.465 4.501-17.472 5.246-0.69 9.292-5.185 9.292-10.625zM70.802 58.677c1.414-5.817-0.154-12.213-4.696-16.758l-17.773-17.812-7.899 7.9 17.775 17.813c2.573 2.578 2.567 6.726 0.014 9.285-2.563 2.564-6.719 2.564-9.284-0.002l-0.607-0.609-7.89 7.91 0.604 0.604c4.806 4.812 11.689 6.284 17.763 4.413 0.987 4.897 5.307 8.578 10.489 8.578 5.907 0 10.701-4.793 10.701-10.713 0-5.406-3.998-9.879-9.198-10.61zM47.839 41.303l-17.776 17.812c-2.555 2.56-6.721 2.565-9.293-0.010-2.564-2.571-2.565-6.726-0.003-9.295l0.61-0.607-7.897-7.9-0.604 0.602c-4.591 4.594-6.137 11.081-4.645 16.952-4.719 1.114-8.231 5.362-8.231 10.429-0.001 5.918 4.792 10.713 10.702 10.713 5.086-0.003 9.343-3.548 10.433-8.311 5.836 1.449 12.265-0.102 16.824-4.668l17.773-17.809-7.892-7.908z"></path>
</svg>
