<?xml version="1.0" encoding="utf-8"?>
<!-- Generated by IcoMoon.io -->
<!DOCTYPE svg PUBLIC "-//W3C//DTD SVG 1.1//EN" "http://www.w3.org/Graphics/SVG/1.1/DTD/svg11.dtd">
<svg version="1.1" xmlns="http://www.w3.org/2000/svg" xmlns:xlink="http://www.w3.org/1999/xlink" width="80" height="80" viewBox="0 0 80 80">
<path d="M55 0c-13.807 0-25 11.193-25 25 0 1.565 0.145 3.095 0.42 4.58l-30.42 30.42v15c0 2.761 2.239 5 5 5h5v-5h10v-10h10v-10h10l6.488-6.488c2.657 0.962 5.523 1.488 8.512 1.488 13.807 0 25-11.193 25-25s-11.193-25-25-25zM62.49 25.010c-4.142 0-7.5-3.358-7.5-7.5s3.358-7.5 7.5-7.5 7.5 3.358 7.5 7.5-3.358 7.5-7.5 7.5z"></path>
</svg>
