<?xml version="1.0" encoding="utf-8"?>
<!-- Generated by IcoMoon.io -->
<!DOCTYPE svg PUBLIC "-//W3C//DTD SVG 1.1//EN" "http://www.w3.org/Graphics/SVG/1.1/DTD/svg11.dtd">
<svg version="1.1" xmlns="http://www.w3.org/2000/svg" xmlns:xlink="http://www.w3.org/1999/xlink" width="80" height="80" viewBox="0 0 80 80">
<path d="M78.292 24.55l-7.899-7.899c-1.937-1.937-5.107-5.107-7.044-7.044l-7.899-7.899c-1.937-1.937-5.387-2.279-7.666-0.759l-21.597 14.398c-2.279 1.52-3.142 4.768-1.917 7.218l5.507 11.014c0.168 0.336 0.363 0.695 0.577 1.067l-27.854 27.854-2.5 17.5h15v-5h10v-10h10v-10h10v-5.561c0.5 0.298 0.979 0.564 1.421 0.785l11.013 5.507c2.45 1.225 5.698 0.362 7.218-1.917l14.398-21.597c1.52-2.279 1.178-5.729-0.759-7.666zM11.768 66.768l-3.535-3.535 24.342-24.341 3.535 3.535-24.342 24.341zM71.642 33.107l-3.536 3.536c-0.972 0.972-2.563 0.972-3.535 0l-21.213-21.213c-0.972-0.972-0.972-2.563 0-3.535l3.536-3.536c0.972-0.972 2.563-0.972 3.535 0l21.213 21.213c0.972 0.972 0.972 2.563 0 3.535z"></path>
</svg>
