<?xml version="1.0" encoding="utf-8"?>
<!-- Generated by IcoMoon.io -->
<!DOCTYPE svg PUBLIC "-//W3C//DTD SVG 1.1//EN" "http://www.w3.org/Graphics/SVG/1.1/DTD/svg11.dtd">
<svg version="1.1" xmlns="http://www.w3.org/2000/svg" xmlns:xlink="http://www.w3.org/1999/xlink" width="80" height="80" viewBox="0 0 80 80">
<path d="M40 76.719l-13.281-13.438h26.563zM63.281 26.719v-6.719h-6.563v6.719h6.563zM63.281 36.719v-6.719h-6.563v6.719h6.563zM53.281 26.719v-6.719h-6.563v6.719h6.563zM53.281 36.719v-6.719h-6.563v6.719h6.563zM53.281 50v-6.719h-26.563v6.719h26.563zM23.281 26.719v-6.719h-6.563v6.719h6.563zM23.281 36.719v-6.719h-6.563v6.719h6.563zM26.719 30v6.719h6.563v-6.719h-6.563zM26.719 20v6.719h6.563v-6.719h-6.563zM36.719 30v6.719h6.563v-6.719h-6.563zM36.719 20v6.719h6.563v-6.719h-6.563zM66.719 10c3.594 0 6.563 3.125 6.563 6.719v33.281c0 3.594-2.969 6.719-6.563 6.719h-53.438c-3.594 0-6.563-3.125-6.563-6.719v-33.281c0-3.594 2.969-6.719 6.563-6.719h53.438z"></path>
</svg>
