<?xml version="1.0" encoding="utf-8"?>
<!-- Generated by IcoMoon.io -->
<!DOCTYPE svg PUBLIC "-//W3C//DTD SVG 1.1//EN" "http://www.w3.org/Graphics/SVG/1.1/DTD/svg11.dtd">
<svg version="1.1" xmlns="http://www.w3.org/2000/svg" xmlns:xlink="http://www.w3.org/1999/xlink" width="80" height="80" viewBox="0 0 80 80">
<path d="M63.281 33.281v-6.563h-6.563v6.563h6.563zM63.281 43.281v-6.563h-6.563v6.563h6.563zM53.281 33.281v-6.563h-6.563v6.563h6.563zM53.281 43.281v-6.563h-6.563v6.563h6.563zM53.281 56.719v-6.719h-26.563v6.719h26.563zM23.281 33.281v-6.563h-6.563v6.563h6.563zM23.281 43.281v-6.563h-6.563v6.563h6.563zM26.719 36.719v6.563h6.563v-6.563h-6.563zM26.719 26.719v6.563h6.563v-6.563h-6.563zM36.719 36.719v6.563h6.563v-6.563h-6.563zM36.719 26.719v6.563h6.563v-6.563h-6.563zM66.719 16.719c3.594 0 6.563 2.969 6.563 6.563v33.438c0 3.594-2.969 6.563-6.563 6.563h-53.438c-3.594 0-6.563-2.969-6.563-6.563v-33.438c0-3.594 2.969-6.563 6.563-6.563h53.438z"></path>
</svg>
