<?xml version="1.0" encoding="utf-8"?>
<!-- Generated by IcoMoon.io -->
<!DOCTYPE svg PUBLIC "-//W3C//DTD SVG 1.1//EN" "http://www.w3.org/Graphics/SVG/1.1/DTD/svg11.dtd">
<svg version="1.1" xmlns="http://www.w3.org/2000/svg" xmlns:xlink="http://www.w3.org/1999/xlink" width="90" height="80" viewBox="0 0 90 80">
<path d="M85 10h-80c-2.75 0-5 2.25-5 5v50c0 2.75 2.25 5 5 5h80c2.75 0 5-2.25 5-5v-50c0-2.75-2.25-5-5-5zM50 20h10v10h-10v-10zM65 35v10h-10v-10h10zM35 20h10v10h-10v-10zM50 35v10h-10v-10h10zM20 20h10v10h-10v-10zM35 35v10h-10v-10h10zM10 20h5v10h-5v-10zM10 35h10v10h-10v-10zM15 60h-5v-10h5v10zM60 60h-40v-10h40v10zM80 60h-15v-10h15v10zM80 45h-10v-10h10v10zM80 30h-15v-10h15v10z"></path>
</svg>
