<?xml version="1.0" encoding="utf-8"?>
<!-- Generated by IcoMoon.io -->
<!DOCTYPE svg PUBLIC "-//W3C//DTD SVG 1.1//EN" "http://www.w3.org/Graphics/SVG/1.1/DTD/svg11.dtd">
<svg version="1.1" xmlns="http://www.w3.org/2000/svg" xmlns:xlink="http://www.w3.org/1999/xlink" width="80" height="80" viewBox="0 0 80 80">
<path d="M54.531 46.719h11.25c0.469-2.188 0.938-4.375 0.938-6.719s-0.469-4.531-0.938-6.719h-11.25c0.313 2.188 0.469 4.375 0.469 6.719s-0.156 4.531-0.469 6.719zM48.594 65.156c6.094-2.031 11.406-6.406 14.531-11.875h-9.844c-1.094 4.219-2.656 8.125-4.688 11.875zM47.813 46.719c0.313-2.188 0.469-4.375 0.469-6.719s-0.156-4.531-0.469-6.719h-15.625c-0.313 2.188-0.469 4.375-0.469 6.719s0.156 4.531 0.469 6.719h15.625zM40 66.563c2.813-4.063 5-8.438 6.406-13.281h-12.813c1.406 4.844 3.594 9.219 6.406 13.281zM26.719 26.719c1.094-4.219 2.656-8.125 4.688-11.875-6.094 2.031-11.406 6.406-14.531 11.875h9.844zM16.875 53.281c3.125 5.469 8.438 9.844 14.531 11.875-2.031-3.75-3.594-7.656-4.688-11.875h-9.844zM14.219 46.719h11.25c-0.313-2.188-0.469-4.375-0.469-6.719s0.156-4.531 0.469-6.719h-11.25c-0.469 2.188-0.938 4.375-0.938 6.719s0.469 4.531 0.938 6.719zM40 13.438c-2.813 4.063-5 8.438-6.406 13.281h12.813c-1.406-4.844-3.594-9.219-6.406-13.281zM63.125 26.719c-3.125-5.469-8.438-9.844-14.531-11.875 2.031 3.75 3.594 7.656 4.688 11.875h9.844zM40 6.719c18.438 0 33.281 14.844 33.281 33.281s-14.844 33.281-33.281 33.281-33.281-14.844-33.281-33.281 14.844-33.281 33.281-33.281z"></path>
</svg>
