<?xml version="1.0" encoding="utf-8"?>
<!-- Generated by IcoMoon.io -->
<!DOCTYPE svg PUBLIC "-//W3C//DTD SVG 1.1//EN" "http://www.w3.org/Graphics/SVG/1.1/DTD/svg11.dtd">
<svg version="1.1" xmlns="http://www.w3.org/2000/svg" xmlns:xlink="http://www.w3.org/1999/xlink" width="80" height="80" viewBox="0 0 80 80">
<path d="M72.5 0h-65c-4.125 0-7.5 3.375-7.5 7.5v65c0 4.125 3.375 7.5 7.5 7.5h65c4.125 0 7.5-3.375 7.5-7.5v-65c0-4.125-3.375-7.5-7.5-7.5zM64.25 60.063l-27.219 8.906c-6.219 2.031-6.844 1.703-9.656-7l-6.875-21.297c-1.641-5.047-6.641-18.641-7.484-21.25-1.563-4.844-1.563-5.109 7.578-8.078 7.156-2.344 7.453-2.266 10.047 5.813 2.094 6.5 3.438 11.75 5.594 18.391l5.859 18.125 18.719-6.125c3.688-1.219 4.922-1.156 5.969 3.391l0.75 3.438c0.875 3.984-1.141 5-3.281 5.687z"></path>
</svg>
