<?xml version="1.0" encoding="utf-8"?>
<!-- Generated by IcoMoon.io -->
<!DOCTYPE svg PUBLIC "-//W3C//DTD SVG 1.1//EN" "http://www.w3.org/Graphics/SVG/1.1/DTD/svg11.dtd">
<svg version="1.1" xmlns="http://www.w3.org/2000/svg" xmlns:xlink="http://www.w3.org/1999/xlink" width="80" height="80" viewBox="0 0 80 80">
<path d="M40 63.281c1.875 0 3.281-1.406 3.281-3.281s-1.406-3.281-3.281-3.281-3.281 1.406-3.281 3.281 1.406 3.281 3.281 3.281zM13.281 16.719v36.563h53.438v-36.563h-53.438zM66.719 60h13.281c0 3.594-3.125 6.719-6.719 6.719h-66.563c-3.594 0-6.719-3.125-6.719-6.719h13.281c-3.594 0-6.563-3.125-6.563-6.719v-36.563c0-3.594 2.969-6.719 6.563-6.719h53.438c3.594 0 6.563 3.125 6.563 6.719v36.563c0 3.594-2.969 6.719-6.563 6.719z"></path>
</svg>
