<?xml version="1.0" encoding="utf-8"?>
<!-- Generated by IcoMoon.io -->
<!DOCTYPE svg PUBLIC "-//W3C//DTD SVG 1.1//EN" "http://www.w3.org/Graphics/SVG/1.1/DTD/svg11.dtd">
<svg version="1.1" xmlns="http://www.w3.org/2000/svg" xmlns:xlink="http://www.w3.org/1999/xlink" width="80" height="80" viewBox="0 0 80 80">
<path d="M35.281 59.859l-2.938-7.969c0 0-4.766 5.313-11.906 5.313-6.328 0-10.812-5.5-10.812-14.297 0-11.266 5.687-15.297 11.266-15.297 8.062 0 10.625 5.219 12.828 11.906l2.938 9.156c2.938 8.891 8.438 16.031 24.281 16.031 11.359 0 19.063-3.484 19.063-12.641 0-7.422-4.219-11.266-12.094-13.109l-5.859-1.281c-4.031-0.922-5.219-2.563-5.219-5.313 0-3.109 2.469-4.953 6.5-4.953 4.406 0 6.781 1.656 7.141 5.594l9.156-1.094c-0.734-8.25-6.422-11.641-15.766-11.641-8.25 0-16.312 3.109-16.312 13.109 0 6.234 3.031 10.172 10.625 12l6.234 1.469c4.672 1.094 6.234 3.031 6.234 5.688 0 3.391-3.297 4.766-9.531 4.766-9.25 0-13.109-4.859-15.297-11.547l-3.031-9.156c-3.828-11.922-9.969-16.313-22.156-16.313-13.469 0-20.625 8.516-20.625 23 0 13.922 7.141 21.437 19.984 21.437 10.344 0 15.297-4.859 15.297-4.859v0z"></path>
</svg>
