<?xml version="1.0" encoding="utf-8"?>
<!-- Generated by IcoMoon.io -->
<!DOCTYPE svg PUBLIC "-//W3C//DTD SVG 1.1//EN" "http://www.w3.org/Graphics/SVG/1.1/DTD/svg11.dtd">
<svg version="1.1" xmlns="http://www.w3.org/2000/svg" xmlns:xlink="http://www.w3.org/1999/xlink" width="80" height="80" viewBox="0 0 80 80">
<path d="M72.5 0h-65c-4.125 0-7.5 3.375-7.5 7.5v65c0 4.125 3.375 7.5 7.5 7.5h65c4.125 0 7.5-3.375 7.5-7.5v-65c0-4.125-3.375-7.5-7.5-7.5zM58.328 59.438c-13.875 0-18.688-6.25-21.25-14.031l-2.563-8.016c-1.922-5.859-4.172-10.422-11.219-10.422-4.891 0-9.859 3.531-9.859 13.391 0 7.703 3.922 12.516 9.469 12.516 6.25 0 10.422-4.656 10.422-4.656l2.563 6.969c0 0-4.328 4.25-13.391 4.25-11.25 0-17.5-6.563-17.5-18.75 0-12.672 6.25-20.125 18.047-20.125 10.672 0 16.031 3.844 19.406 14.266l2.641 8.016c1.922 5.859 5.297 10.109 13.391 10.109 5.453 0 8.344-1.203 8.344-4.172 0-2.328-1.359-4.016-5.453-4.969l-5.453-1.281c-6.656-1.609-9.297-5.047-9.297-10.5 0-8.734 7.062-11.469 14.266-11.469 8.172 0 13.156 2.969 13.797 10.188l-8.016 0.969c-0.328-3.453-2.406-4.891-6.25-4.891-3.531 0-5.688 1.609-5.688 4.328 0 2.406 1.047 3.844 4.563 4.656l5.125 1.125c6.891 1.609 10.578 4.969 10.578 11.469 0 7.984-6.734 11.031-16.672 11.031z"></path>
</svg>
