<?xml version="1.0" encoding="utf-8"?>
<!-- Generated by IcoMoon.io -->
<!DOCTYPE svg PUBLIC "-//W3C//DTD SVG 1.1//EN" "http://www.w3.org/Graphics/SVG/1.1/DTD/svg11.dtd">
<svg version="1.1" xmlns="http://www.w3.org/2000/svg" xmlns:xlink="http://www.w3.org/1999/xlink" width="80" height="80" viewBox="0 0 80 80">
<path d="M79.010 10.508c-8.652-6.557-21.967-10.471-35.618-10.471-16.884 0-30.643 5.895-37.747 16.173-3.337 4.827-5.182 10.544-5.485 16.99-0.27 5.74 0.694 12.088 2.866 18.918 7.412-22.218 28.111-39.617 51.974-39.617 0 0-22.33 5.878-36.369 24.078-0.009 0.011-0.195 0.241-0.517 0.68-2.819 3.772-5.276 8.060-7.115 12.916-3.115 7.409-5.999 17.574-5.999 29.827h10c0 0-1.518-9.549 1.122-20.53 4.366 0.59 8.27 0.883 11.785 0.883 9.194 0 15.732-1.989 20.577-6.26 4.341-3.826 6.734-8.968 9.268-14.411 3.869-8.313 8.254-17.735 20.989-25.012 0.729-0.417 1.2-1.171 1.254-2.009s-0.316-1.647-0.985-2.154z"></path>
</svg>
