<?xml version="1.0" encoding="utf-8"?>
<!-- Generated by IcoMoon.io -->
<!DOCTYPE svg PUBLIC "-//W3C//DTD SVG 1.1//EN" "http://www.w3.org/Graphics/SVG/1.1/DTD/svg11.dtd">
<svg version="1.1" xmlns="http://www.w3.org/2000/svg" xmlns:xlink="http://www.w3.org/1999/xlink" width="80" height="80" viewBox="0 0 80 80">
<path d="M46.719 70c0-12.969 10.313-23.281 23.281-23.281v6.563c-9.219 0-16.719 7.5-16.719 16.719h-6.563zM60 70c0-5.469 4.531-10 10-10v10h-10zM33.281 70c0-20.156 16.563-36.719 36.719-36.719v6.719c-16.563 0-30 13.438-30 30h-6.719zM33.281 10c0 12.969-10.313 23.281-23.281 23.281v-6.563c9.219 0 16.719-7.5 16.719-16.719h6.563zM46.719 10c0 20.156-16.406 36.719-36.719 36.719v-6.719c16.563 0 30-13.438 30-30h6.719zM20 10c0 5.469-4.531 10-10 10v-10h10z"></path>
</svg>
