<?xml version="1.0" encoding="utf-8"?>
<!-- Generated by IcoMoon.io -->
<!DOCTYPE svg PUBLIC "-//W3C//DTD SVG 1.1//EN" "http://www.w3.org/Graphics/SVG/1.1/DTD/svg11.dtd">
<svg version="1.1" xmlns="http://www.w3.org/2000/svg" xmlns:xlink="http://www.w3.org/1999/xlink" width="80" height="80" viewBox="0 0 80 80">
<path d="M51.25 38.594c5.469-3.281 11.875-5.313 18.75-5.313v6.719c-5 0-9.688 1.25-13.906 3.438zM66.406 53.75l-5.313-5.313c2.656-1.094 5.781-1.719 8.906-1.719v6.563c-1.25 0-2.5 0.156-3.594 0.469zM46.719 10c0 6.875-2.031 13.281-5.313 18.75l-4.844-4.844c2.188-4.219 3.438-8.906 3.438-13.906h6.719zM10 14.219l4.219-4.219 55.781 55.781-4.219 4.219-9.531-9.531c-1.875 2.656-2.969 5.938-2.969 9.531h-6.563c0-5.313 1.875-10.313 4.844-14.219l-4.844-4.688c-4.219 5.156-6.719 11.719-6.719 18.906h-6.719c0-9.063 3.281-17.344 8.75-23.75l-8.281-8.281c-6.406 5.469-14.688 8.75-23.75 8.75v-6.719c7.188 0 13.906-2.5 19.063-6.719l-4.844-4.844c-3.906 2.969-8.906 4.844-14.219 4.844v-6.563c3.594 0 6.875-1.094 9.531-2.969zM33.281 10c0 3.125-0.625 6.25-1.719 8.906l-5.313-5.313c0.313-1.094 0.469-2.344 0.469-3.594h6.563z"></path>
</svg>
