<?xml version="1.0" encoding="utf-8"?>
<!-- Generated by IcoMoon.io -->
<!DOCTYPE svg PUBLIC "-//W3C//DTD SVG 1.1//EN" "http://www.w3.org/Graphics/SVG/1.1/DTD/svg11.dtd">
<svg version="1.1" xmlns="http://www.w3.org/2000/svg" xmlns:xlink="http://www.w3.org/1999/xlink" width="80" height="80" viewBox="0 0 80 80">
<path d="M63.281 23.281v-6.563h-33.281v6.563h33.281zM50 50v-6.719h-20v6.719h20zM63.281 36.719v-6.719h-33.281v6.719h33.281zM66.719 6.719c3.594 0 6.563 2.969 6.563 6.563v40c0 3.594-2.969 6.719-6.563 6.719h-40c-3.594 0-6.719-3.125-6.719-6.719v-40c0-3.594 3.125-6.563 6.719-6.563h40zM13.281 20v46.719h46.719v6.563h-46.719c-3.594 0-6.563-2.969-6.563-6.563v-46.719h6.563z"></path>
</svg>
