<?xml version="1.0" encoding="utf-8"?>
<!-- Generated by IcoMoon.io -->
<!DOCTYPE svg PUBLIC "-//W3C//DTD SVG 1.1//EN" "http://www.w3.org/Graphics/SVG/1.1/DTD/svg11.dtd">
<svg version="1.1" xmlns="http://www.w3.org/2000/svg" xmlns:xlink="http://www.w3.org/1999/xlink" width="80" height="80" viewBox="0 0 80 80">
<path d="M41.768 1.768c-0.972-0.972-2.893-1.768-4.268-1.768h-30c-1.375 0-2.5 1.125-2.5 2.5v75c0 1.375 1.125 2.5 2.5 2.5h60c1.375 0 2.5-1.125 2.5-2.5v-45c0-1.375-0.795-3.295-1.768-4.268l-26.465-26.465zM65 75h-55v-70h27.434c0.228 0.038 0.657 0.215 0.845 0.35l26.372 26.371c0.135 0.188 0.312 0.617 0.35 0.845v42.434zM67.5 0h-15c-1.375 0-1.705 0.795-0.732 1.768l16.465 16.465c0.972 0.972 1.768 0.643 1.768-0.732v-15c0-1.375-1.125-2.5-2.5-2.5z"></path>
</svg>
