<?xml version="1.0" encoding="utf-8"?>
<!-- Generated by IcoMoon.io -->
<!DOCTYPE svg PUBLIC "-//W3C//DTD SVG 1.1//EN" "http://www.w3.org/Graphics/SVG/1.1/DTD/svg11.dtd">
<svg version="1.1" xmlns="http://www.w3.org/2000/svg" xmlns:xlink="http://www.w3.org/1999/xlink" width="80" height="80" viewBox="0 0 80 80">
<path d="M40 0c-22.091 0-40 17.909-40 40s17.909 40 40 40 40-17.909 40-40-17.909-40-40-40zM25 40c0-8.284 6.716-15 15-15s15 6.716 15 15-6.716 15-15 15-15-6.716-15-15zM72.342 53.397v0l-13.861-5.741c0.978-2.358 1.519-4.943 1.519-7.655s-0.541-5.297-1.519-7.655l13.861-5.741c1.712 4.127 2.658 8.651 2.658 13.397s-0.946 9.27-2.658 13.397v0zM53.397 7.658v0 0l-5.741 13.861c-2.358-0.978-4.943-1.519-7.655-1.519s-5.297 0.541-7.655 1.519l-5.741-13.861c4.127-1.711 8.651-2.658 13.397-2.658s9.27 0.946 13.397 2.658zM7.658 26.603l13.861 5.741c-0.978 2.358-1.519 4.943-1.519 7.655s0.541 5.297 1.519 7.655l-13.861 5.741c-1.711-4.127-2.658-8.651-2.658-13.397s0.946-9.27 2.658-13.397zM26.603 72.342l5.741-13.861c2.358 0.978 4.943 1.519 7.655 1.519s5.297-0.541 7.655-1.519l5.741 13.861c-4.127 1.711-8.651 2.658-13.397 2.658s-9.27-0.946-13.397-2.658z"></path>
</svg>
