<?xml version="1.0" encoding="utf-8"?>
<!-- Generated by IcoMoon.io -->
<!DOCTYPE svg PUBLIC "-//W3C//DTD SVG 1.1//EN" "http://www.w3.org/Graphics/SVG/1.1/DTD/svg11.dtd">
<svg version="1.1" xmlns="http://www.w3.org/2000/svg" xmlns:xlink="http://www.w3.org/1999/xlink" width="80" height="80" viewBox="0 0 80 80">
<path d="M66.822 71.676c-0.917 0-6.533-1.031-6.877-2.292-0.803-3.095-0.917-6.418-0.917-10.201v-42.264c0-6.304 1.261-9.971 1.261-9.971-0.115-0.573-0.688-1.834-1.375-1.834h-0.344c-0.344 0-4.355 2.522-8.023 2.522-2.98-0-4.835-2.636-8.274-2.636-14.461 0-21.245 11.743-21.245 28.362v0.865c0 0.344-0.229 0.688-0.573 0.688h-4.699c-0.573 0-1.719 3.209-1.719 4.699 0 0.459 0.115 0.687 0.344 0.687h6.075c0.344 0 0.573 0.459 0.573 0.802 0 10.2-0.115 20.258-0.115 20.258 0 1.605-0.115 5.157-0.802 8.023-0.344 1.261-5.616 2.292-6.991 2.292-0.573 0-0.573 2.751 0 3.324 4.699-0.229 7.794-0.573 12.493-0.573 4.355 0 7.679 0.344 12.264 0.573 0.229-0.688 0.229-3.324-0.344-3.324-0.917 0-6.533-1.031-6.877-2.292-0.802-3.095-0.802-6.418-0.917-10.201v-18.194c0-0.344 0.344-0.688 0.688-0.688h11.805c0.802-1.605 1.375-3.553 1.375-4.584 0-0.688 0-0.802-0.573-0.802h-12.722c-0.229 0-0.573-0.344-0.573-0.573v-4.127c0-10.201 4.178-19.183 11.17-19.183 4.951 0 9.271 3.208 9.271 15.463 0 0 0 0.001 0 0.001 0.016 0.315 0.025 0.57 0.025 0.738v34.126c0 1.605-0.115 5.157-0.802 8.023-0.344 1.261-5.616 2.292-6.992 2.292-0.573 0-0.573 2.751 0 3.324 4.699-0.229 7.794-0.573 12.493-0.573 4.355 0 7.679 0.344 12.263 0.573 0.229-0.687 0.229-3.324-0.344-3.324z"></path>
</svg>
