<?xml version="1.0" encoding="utf-8"?>
<!-- Generated by IcoMoon.io -->
<!DOCTYPE svg PUBLIC "-//W3C//DTD SVG 1.1//EN" "http://www.w3.org/Graphics/SVG/1.1/DTD/svg11.dtd">
<svg version="1.1" xmlns="http://www.w3.org/2000/svg" xmlns:xlink="http://www.w3.org/1999/xlink" width="80" height="80" viewBox="0 0 80 80">
<path d="M60 68.111c0-0.003 0-0.006 0-0.009l-0.027-34.106-9.96 0.484h-19.682v-1.679c0-6.37 0.453-12.733 1.347-15.212 0.617-1.715 1.765-3.261 3.414-4.597 1.611-1.305 3.217-1.966 4.774-1.966 1.31 0 2.399 0.225 3.235 0.668 1.174 0.669 2.322 1.794 3.412 3.345 2.887 4.102 4.062 5.192 4.695 5.654 1.078 0.789 2.384 1.188 3.88 1.188 1.458 0 2.731-0.545 3.784-1.618 1.045-1.065 1.574-2.397 1.574-3.958 0-1.676-0.697-3.453-2.070-5.283-1.343-1.788-3.415-3.261-6.159-4.378-2.681-1.091-5.698-1.644-8.967-1.644-4.743 0-9.063 1.14-12.84 3.389-3.783 2.253-6.684 5.387-8.623 9.316-1.796 3.641-1.667 10.524-1.776 16.774h-9.823v5.578h9.812v25.365c0 5.599-1.711 7.11-2.361 7.916-0.893 1.11-2.543 2.274-4.722 2.274h-3.020v4.388h30.104v-4.388h-0.524c-7.121 0-9.142-0.768-9.142-9.441 0-0.001 0-0.003 0-0.004l-0.003-26.11h10.953c5.813 0 7.148 0.269 7.453 0.385 0.368 0.14 0.844 0.378 1.022 0.714 0.068 0.132 0.406 1.954 0.406 6.482v19.584c0 4.567-0.557 6.086-0.895 6.594-0.723 1.109-1.595 1.724-4.27 1.789v4.394h22.938v-4.363c-7.157 0-7.938-0.767-7.938-7.526z"></path>
</svg>
