<?xml version="1.0" encoding="utf-8"?>
<!-- Generated by IcoMoon.io -->
<!DOCTYPE svg PUBLIC "-//W3C//DTD SVG 1.1//EN" "http://www.w3.org/Graphics/SVG/1.1/DTD/svg11.dtd">
<svg version="1.1" xmlns="http://www.w3.org/2000/svg" xmlns:xlink="http://www.w3.org/1999/xlink" width="80" height="80" viewBox="0 0 80 80">
<path d="M10 13.281h60v13.438h-60v-13.438zM43.281 40v-6.719h26.719v6.719h-26.719zM10 40v-6.719h26.719v6.719h-26.719zM63.281 66.719v-6.719h6.719v6.719h-6.719zM50 66.719v-6.719h6.719v6.719h-6.719zM36.719 66.719v-6.719h6.563v6.719h-6.563zM23.281 66.719v-6.719h6.719v6.719h-6.719zM10 66.719v-6.719h6.719v6.719h-6.719zM53.281 53.281v-6.563h16.719v6.563h-16.719zM31.719 53.281v-6.563h16.563v6.563h-16.563zM10 53.281v-6.563h16.719v6.563h-16.719z"></path>
</svg>
