<?xml version="1.0" encoding="utf-8"?>
<!-- Generated by IcoMoon.io -->
<!DOCTYPE svg PUBLIC "-//W3C//DTD SVG 1.1//EN" "http://www.w3.org/Graphics/SVG/1.1/DTD/svg11.dtd">
<svg version="1.1" xmlns="http://www.w3.org/2000/svg" xmlns:xlink="http://www.w3.org/1999/xlink" width="80" height="80" viewBox="0 0 80 80">
<path d="M65 31.719c4.531 0 8.281 3.75 8.281 8.281s-3.75 8.281-8.281 8.281c-3.438 0-6.406-2.031-7.656-5h-9.688c-1.25 2.969-4.219 5-7.656 5s-6.406-2.031-7.656-5h-9.688c-1.25 2.969-4.219 5-7.656 5-4.531 0-8.281-3.75-8.281-8.281s3.75-8.281 8.281-8.281c3.438 0 6.406 2.031 7.656 5h9.688c1.25-2.969 4.219-5 7.656-5s6.406 2.031 7.656 5h9.688c1.25-2.969 4.219-5 7.656-5z"></path>
</svg>
