<?xml version="1.0" encoding="utf-8"?>
<!-- Generated by IcoMoon.io -->
<!DOCTYPE svg PUBLIC "-//W3C//DTD SVG 1.1//EN" "http://www.w3.org/Graphics/SVG/1.1/DTD/svg11.dtd">
<svg version="1.1" xmlns="http://www.w3.org/2000/svg" xmlns:xlink="http://www.w3.org/1999/xlink" width="80" height="80" viewBox="0 0 80 80">
<path d="M53.281 20c3.75 0 6.719 2.969 6.719 6.719h4.375c0-6.094-5-11.094-11.094-11.094v4.375zM40 63.281c9.219 0 16.719-7.344 16.719-16.563s-7.5-16.719-16.719-16.719-16.719 7.5-16.719 16.719 7.5 16.563 16.719 16.563zM56.719 30h16.563v36.719c0 3.594-2.969 6.563-6.563 6.563h-53.438c-3.594 0-6.563-2.969-6.563-6.563v-40c0-3.594 2.969-6.719 6.563-6.719h10.625l6.094-6.719h20v10c3.75 0 6.719 2.969 6.719 6.719zM53.281 11.094v-4.375c11.094 0 20 8.906 20 20h-4.375c0-8.594-7.031-15.625-15.625-15.625zM29.375 46.719c0-5.938 4.688-10.781 10.625-10.781s10.625 4.844 10.625 10.781-4.688 10.625-10.625 10.625-10.625-4.688-10.625-10.625z"></path>
</svg>
