<?xml version="1.0" encoding="utf-8"?>
<!-- Generated by IcoMoon.io -->
<!DOCTYPE svg PUBLIC "-//W3C//DTD SVG 1.1//EN" "http://www.w3.org/Graphics/SVG/1.1/DTD/svg11.dtd">
<svg version="1.1" xmlns="http://www.w3.org/2000/svg" xmlns:xlink="http://www.w3.org/1999/xlink" width="80" height="80" viewBox="0 0 80 80">
<path d="M72.5 0h-65c-4.125 0-7.5 3.375-7.5 7.5v65c0 4.125 3.375 7.5 7.5 7.5h65c4.125 0 7.5-3.375 7.5-7.5v-65c0-4.125-3.375-7.5-7.5-7.5zM30 65h-10v-35h10v35zM25 25c-2.766 0-5-2.234-5-5s2.234-5 5-5c2.766 0 5 2.234 5 5s-2.234 5-5 5zM65 65h-10v-20c0-2.766-2.234-5-5-5s-5 2.234-5 5v20h-10v-35h10v6.203c2.063-2.828 5.219-6.203 8.75-6.203 6.219 0 11.25 5.594 11.25 12.5v22.5z"></path>
</svg>
