<?xml version="1.0" encoding="utf-8"?>
<!-- Generated by IcoMoon.io -->
<!DOCTYPE svg PUBLIC "-//W3C//DTD SVG 1.1//EN" "http://www.w3.org/Graphics/SVG/1.1/DTD/svg11.dtd">
<svg version="1.1" xmlns="http://www.w3.org/2000/svg" xmlns:xlink="http://www.w3.org/1999/xlink" width="80" height="80" viewBox="0 0 80 80">
<path d="M56.719 23.281c9.219 0 16.563 7.5 16.563 16.719s-7.344 16.719-16.563 16.719h-13.438v-6.406h13.438c5.625 0 10.313-4.688 10.313-10.313s-4.688-10.313-10.313-10.313h-13.438v-6.406h13.438zM26.719 43.281v-6.563h26.563v6.563h-26.563zM12.969 40c0 5.625 4.688 10.313 10.313 10.313h13.438v6.406h-13.438c-9.219 0-16.563-7.5-16.563-16.719s7.344-16.719 16.563-16.719h13.438v6.406h-13.438c-5.625 0-10.313 4.688-10.313 10.313z"></path>
</svg>
