<?xml version="1.0" encoding="utf-8"?>
<!-- Generated by IcoMoon.io -->
<!DOCTYPE svg PUBLIC "-//W3C//DTD SVG 1.1//EN" "http://www.w3.org/Graphics/SVG/1.1/DTD/svg11.dtd">
<svg version="1.1" xmlns="http://www.w3.org/2000/svg" xmlns:xlink="http://www.w3.org/1999/xlink" width="80" height="80" viewBox="0 0 80 80">
<path d="M30 30h13.836v7.092h0.198c1.925-3.453 6.637-7.092 13.66-7.092 14.605 0 17.306 9.092 17.306 20.917v24.083h-14.423v-21.35c0-5.092-0.104-11.643-7.502-11.643-7.512 0-8.658 5.546-8.658 11.273v21.72h-14.417v-45z"></path>
<path d="M5 30h15v45h-15v-45z"></path>
<path d="M20 17.5c0 4.142-3.358 7.5-7.5 7.5s-7.5-3.358-7.5-7.5c0-4.142 3.358-7.5 7.5-7.5s7.5 3.358 7.5 7.5z"></path>
</svg>
