<?xml version="1.0" encoding="utf-8"?>
<!-- Generated by IcoMoon.io -->
<!DOCTYPE svg PUBLIC "-//W3C//DTD SVG 1.1//EN" "http://www.w3.org/Graphics/SVG/1.1/DTD/svg11.dtd">
<svg version="1.1" xmlns="http://www.w3.org/2000/svg" xmlns:xlink="http://www.w3.org/1999/xlink" width="80" height="80" viewBox="0 0 80 80">
<path d="M50.156 34.219c1.875-1.875 3.125-4.531 3.125-7.5 0-7.344-5.938-13.438-13.281-13.438s-13.281 6.094-13.281 13.438h6.563c0-3.594 3.125-6.719 6.719-6.719s6.719 3.125 6.719 6.719c0 1.875-0.781 3.438-2.031 4.688l-4.063 4.219c-2.344 2.5-3.906 5.781-3.906 9.375v1.719h6.563c0-5 1.563-7.031 3.906-9.531zM43.281 60v-6.719h-6.563v6.719h6.563zM63.281 6.719c3.594 0 6.719 2.969 6.719 6.563v46.719c0 3.594-3.125 6.719-6.719 6.719h-13.281l-10 10-10-10h-13.281c-3.75 0-6.719-3.125-6.719-6.719v-46.719c0-3.594 2.969-6.563 6.719-6.563h46.563z"></path>
</svg>
