<?xml version="1.0" encoding="utf-8"?>
<!-- Generated by IcoMoon.io -->
<!DOCTYPE svg PUBLIC "-//W3C//DTD SVG 1.1//EN" "http://www.w3.org/Graphics/SVG/1.1/DTD/svg11.dtd">
<svg version="1.1" xmlns="http://www.w3.org/2000/svg" xmlns:xlink="http://www.w3.org/1999/xlink" width="80" height="80" viewBox="0 0 80 80">
<path d="M60 61.719c2.813 0 5-2.188 5-5s-2.188-5-5-5-5 2.188-5 5 2.188 5 5 5zM65 31.719h-8.281v8.281h14.844zM20 61.719c2.813 0 5-2.188 5-5s-2.188-5-5-5-5 2.188-5 5 2.188 5 5 5zM66.719 26.719l10 13.281v16.719h-6.719c0 5.469-4.531 10-10 10s-10-4.531-10-10h-20c0 5.469-4.531 10-10 10s-10-4.531-10-10h-6.719v-36.719c0-3.594 3.125-6.719 6.719-6.719h46.719v13.438h10z"></path>
</svg>
