<?xml version="1.0" encoding="utf-8"?>
<!-- Generated by IcoMoon.io -->
<!DOCTYPE svg PUBLIC "-//W3C//DTD SVG 1.1//EN" "http://www.w3.org/Graphics/SVG/1.1/DTD/svg11.dtd">
<svg version="1.1" xmlns="http://www.w3.org/2000/svg" xmlns:xlink="http://www.w3.org/1999/xlink" width="80" height="80" viewBox="0 0 80 80">
<path d="M54.219 58.438l-32.656-32.656c-2.969 3.906-4.844 8.906-4.844 14.219 0 12.969 10.313 23.281 23.281 23.281 5.313 0 10.313-1.875 14.219-4.844zM10 14.219l4.219-4.219 55.781 55.781-4.219 4.219-6.875-6.875c-4.375 3.594-9.688 6.094-15.625 6.719v6.875h-6.563v-6.875c-13.906-1.563-25-12.656-26.563-26.563h-6.875v-6.563h6.875c0.625-5.938 3.125-11.25 6.719-15.625zM69.844 36.719h6.875v6.563h-6.875c-0.469 3.75-1.563 7.5-3.281 10.625l-5-5c1.094-2.656 1.719-5.781 1.719-8.906 0-12.969-10.313-23.281-23.281-23.281-3.125 0-6.25 0.625-8.906 1.719l-5-5c3.281-1.719 6.875-2.813 10.625-3.281v-6.875h6.563v6.875c13.906 1.563 25 12.656 26.563 26.563z"></path>
</svg>
