<?xml version="1.0" encoding="utf-8"?>
<!-- Generated by IcoMoon.io -->
<!DOCTYPE svg PUBLIC "-//W3C//DTD SVG 1.1//EN" "http://www.w3.org/Graphics/SVG/1.1/DTD/svg11.dtd">
<svg version="1.1" xmlns="http://www.w3.org/2000/svg" xmlns:xlink="http://www.w3.org/1999/xlink" width="80" height="80" viewBox="0 0 80 80">
<path d="M18.281 23.281c2.813 0 5-2.188 5-5s-2.188-5-5-5-5 2.188-5 5 2.188 5 5 5zM71.406 38.594c1.25 1.25 1.875 2.813 1.875 4.688s-0.625 3.438-1.875 4.688l-23.438 23.438c-1.25 1.25-2.813 1.875-4.688 1.875s-3.438-0.625-4.688-1.875l-30-30c-1.25-1.25-1.875-2.813-1.875-4.688v-23.438c0-3.594 2.969-6.563 6.563-6.563h23.438c1.875 0 3.438 0.625 4.688 1.875z"></path>
</svg>
