<?xml version="1.0" encoding="utf-8"?>
<!-- Generated by IcoMoon.io -->
<!DOCTYPE svg PUBLIC "-//W3C//DTD SVG 1.1//EN" "http://www.w3.org/Graphics/SVG/1.1/DTD/svg11.dtd">
<svg version="1.1" xmlns="http://www.w3.org/2000/svg" xmlns:xlink="http://www.w3.org/1999/xlink" width="80" height="80" viewBox="0 0 80 80">
<path d="M39.063 38.281c9.246 9.139 18.482 18.289 27.656 27.5l-4.219 4.219-11.25-11.094c-5.625 8.281-11.25 14.375-11.25 14.375s-23.281-25.781-23.281-43.281c0-1.719 0.313-3.438 0.625-5.156l-10.625-10.625 4.219-4.219 27.813 27.813zM40 21.719c-2.5 0-4.531 1.094-6.094 2.813l-10.781-10.625c4.219-4.375 10.313-7.188 16.875-7.188 12.969 0 23.281 10.313 23.281 23.281 0 5.625-2.344 12.031-5.625 18.281l-12.031-12.188c1.719-1.563 2.656-3.594 2.656-6.094 0-4.531-3.75-8.281-8.281-8.281z"></path>
</svg>
