<?xml version="1.0" encoding="utf-8"?>
<!-- Generated by IcoMoon.io -->
<!DOCTYPE svg PUBLIC "-//W3C//DTD SVG 1.1//EN" "http://www.w3.org/Graphics/SVG/1.1/DTD/svg11.dtd">
<svg version="1.1" xmlns="http://www.w3.org/2000/svg" xmlns:xlink="http://www.w3.org/1999/xlink" width="80" height="80" viewBox="0 0 80 80">
<path d="M40 66.719c11.094 0 20-8.906 20-20s-8.906-20-20-20-20 8.906-20 20 8.906 20 20 20zM23.281 13.281c-1.875 0-3.281 1.563-3.281 3.438s1.406 3.281 3.281 3.281 3.438-1.406 3.438-3.281-1.563-3.438-3.438-3.438zM33.281 13.281c-1.875 0-3.281 1.563-3.281 3.438s1.406 3.281 3.281 3.281 3.438-1.406 3.438-3.281-1.563-3.438-3.438-3.438zM60 6.719c3.75 0 6.719 2.813 6.719 6.563v53.438c0 3.75-2.969 6.563-6.719 6.563h-40c-3.75 0-6.719-2.813-6.719-6.563v-53.438c0-3.75 2.969-6.563 6.719-6.563h40zM30.625 56.094l18.75-18.906c5.156 5.156 5.156 13.75 0 18.906s-13.594 5.156-18.75 0z"></path>
</svg>
