<?xml version="1.0" encoding="utf-8"?>
<!-- Generated by IcoMoon.io -->
<!DOCTYPE svg PUBLIC "-//W3C//DTD SVG 1.1//EN" "http://www.w3.org/Graphics/SVG/1.1/DTD/svg11.dtd">
<svg version="1.1" xmlns="http://www.w3.org/2000/svg" xmlns:xlink="http://www.w3.org/1999/xlink" width="80" height="80" viewBox="0 0 80 80">
<path d="M40 50c3.594 0 6.719-3.125 6.719-6.719s-3.125-6.563-6.719-6.563-6.719 2.969-6.719 6.563 3.125 6.719 6.719 6.719zM23.281 23.281c0 3.594 3.125 6.719 6.719 6.719s6.719-3.125 6.719-6.719-3.125-6.563-6.719-6.563-6.719 2.969-6.719 6.563zM40 6.719c11.875 0 22.656 5.156 30 13.281l-30 53.281-30-53.281c7.344-8.125 18.125-13.281 30-13.281z"></path>
</svg>
