<?xml version="1.0" encoding="utf-8"?>
<!-- Generated by IcoMoon.io -->
<!DOCTYPE svg PUBLIC "-//W3C//DTD SVG 1.1//EN" "http://www.w3.org/Graphics/SVG/1.1/DTD/svg11.dtd">
<svg version="1.1" xmlns="http://www.w3.org/2000/svg" xmlns:xlink="http://www.w3.org/1999/xlink" width="80" height="80" viewBox="0 0 80 80">
<path d="M66.719 60v-40h-53.438v40h53.438zM66.719 13.281c3.75 0 6.563 2.969 6.563 6.719v40c0 3.75-2.813 6.719-6.563 6.719h-53.438c-3.75 0-6.563-2.969-6.563-6.719v-40c0-3.75 2.813-6.719 6.563-6.719h53.438zM36.719 56.719v-3.438h-6.719v-6.563h13.281v-3.438h-10c-1.875 0-3.281-1.406-3.281-3.281v-10c0-1.875 1.406-3.281 3.281-3.281h3.438v-3.438h6.563v3.438h6.719v6.563h-13.281v3.438h10c1.875 0 3.281 1.406 3.281 3.281v10c0 1.875-1.406 3.281-3.281 3.281h-3.438v3.438h-6.563z"></path>
</svg>
