<?xml version="1.0" encoding="utf-8"?>
<!-- Generated by IcoMoon.io -->
<!DOCTYPE svg PUBLIC "-//W3C//DTD SVG 1.1//EN" "http://www.w3.org/Graphics/SVG/1.1/DTD/svg11.dtd">
<svg version="1.1" xmlns="http://www.w3.org/2000/svg" xmlns:xlink="http://www.w3.org/1999/xlink" width="80" height="80" viewBox="0 0 80 80">
<path d="M63.281 50v-6.719h-6.563v6.719h6.563zM63.281 63.281v-6.563h-6.563v6.563h6.563zM43.281 23.281v-6.563h-6.563v6.563h6.563zM43.281 36.719v-6.719h-6.563v6.719h6.563zM43.281 50v-6.719h-6.563v6.719h6.563zM43.281 63.281v-6.563h-6.563v6.563h6.563zM23.281 36.719v-6.719h-6.563v6.719h6.563zM23.281 50v-6.719h-6.563v6.719h6.563zM23.281 63.281v-6.563h-6.563v6.563h6.563zM50 36.719h20v33.281h-60v-46.719h20v-6.563l10-10 10 10v20z"></path>
</svg>
