<?xml version="1.0" encoding="utf-8"?>
<!-- Generated by IcoMoon.io -->
<!DOCTYPE svg PUBLIC "-//W3C//DTD SVG 1.1//EN" "http://www.w3.org/Graphics/SVG/1.1/DTD/svg11.dtd">
<svg version="1.1" xmlns="http://www.w3.org/2000/svg" xmlns:xlink="http://www.w3.org/1999/xlink" width="80" height="80" viewBox="0 0 80 80">
<path d="M40 43.281c9.219 0 16.719-7.344 16.719-16.563h-6.719c0 5.469-4.531 10-10 10s-10-4.531-10-10h-6.719c0 9.219 7.5 16.563 16.719 16.563zM40 10c-5.469 0-10 4.531-10 10h20c0-5.469-4.531-10-10-10zM63.281 20c3.594 0 6.719 3.125 6.719 6.719v40c0 3.594-3.125 6.563-6.719 6.563h-46.563c-3.594 0-6.719-2.969-6.719-6.563v-40c0-3.594 3.125-6.719 6.719-6.719h6.563c0-9.219 7.5-16.719 16.719-16.719s16.719 7.5 16.719 16.719h6.563z"></path>
</svg>
