<?xml version="1.0" encoding="utf-8"?>
<!-- Generated by IcoMoon.io -->
<!DOCTYPE svg PUBLIC "-//W3C//DTD SVG 1.1//EN" "http://www.w3.org/Graphics/SVG/1.1/DTD/svg11.dtd">
<svg version="1.1" xmlns="http://www.w3.org/2000/svg" xmlns:xlink="http://www.w3.org/1999/xlink" width="80" height="80" viewBox="0 0 80 80">
<path d="M40 63.281c12.969 0 23.281-10.313 23.281-23.281s-10.313-23.281-23.281-23.281-23.281 10.313-23.281 23.281 10.313 23.281 23.281 23.281zM69.844 36.719h6.875v6.563h-6.875c-1.563 13.906-12.656 25-26.563 26.563v6.875h-6.563v-6.875c-13.906-1.563-25-12.656-26.563-26.563h-6.875v-6.563h6.875c1.563-13.906 12.656-25 26.563-26.563v-6.875h6.563v6.875c13.906 1.563 25 12.656 26.563 26.563z"></path>
</svg>
