<?xml version="1.0" encoding="utf-8"?>
<!-- Generated by IcoMoon.io -->
<!DOCTYPE svg PUBLIC "-//W3C//DTD SVG 1.1//EN" "http://www.w3.org/Graphics/SVG/1.1/DTD/svg11.dtd">
<svg version="1.1" xmlns="http://www.w3.org/2000/svg" xmlns:xlink="http://www.w3.org/1999/xlink" width="80" height="80" viewBox="0 0 80 80">
<path d="M60 33.281c1.875 0 3.281-1.406 3.281-3.281s-1.406-3.281-3.281-3.281-3.281 1.406-3.281 3.281 1.406 3.281 3.281 3.281zM40 33.281v-16.563h-20v16.563h20zM65.938 24.063c1.563 1.563 2.344 3.594 2.344 5.938v31.719c0 4.531-3.75 8.281-8.281 8.281s-8.281-3.75-8.281-8.281v-16.719h-5v25h-33.438v-53.281c0-3.594 3.125-6.719 6.719-6.719h20c3.594 0 6.719 3.125 6.719 6.719v23.281h3.281c3.594 0 6.719 3.125 6.719 6.719v15c0 1.875 1.406 3.281 3.281 3.281s3.281-1.406 3.281-3.281v-24.063c-1.094 0.469-2.031 0.625-3.281 0.625-4.531 0-8.281-3.75-8.281-8.281 0-3.594 2.188-6.563 5.313-7.813l-7.031-7.031 3.594-3.438z"></path>
</svg>
