<?xml version="1.0" encoding="utf-8"?>
<!-- Generated by IcoMoon.io -->
<!DOCTYPE svg PUBLIC "-//W3C//DTD SVG 1.1//EN" "http://www.w3.org/Graphics/SVG/1.1/DTD/svg11.dtd">
<svg version="1.1" xmlns="http://www.w3.org/2000/svg" xmlns:xlink="http://www.w3.org/1999/xlink" width="80" height="80" viewBox="0 0 80 80">
<path d="M40 18.281c-4.531 0-8.281 3.906-8.281 8.438s3.75 8.281 8.281 8.281 8.281-3.75 8.281-8.281-3.75-8.438-8.281-8.438zM18.594 34.219c0-3.281 2.031-6.094 4.844-7.5-2.813-1.406-4.844-4.219-4.844-7.5 0-4.531 3.906-8.438 8.438-8.438 1.719 0 3.281 0.625 4.688 1.563v-0.625c0-4.531 3.75-8.438 8.281-8.438s8.281 3.906 8.281 8.438v0.625c1.406-0.938 2.969-1.563 4.688-1.563 4.531 0 8.438 3.906 8.438 8.438 0 3.281-2.031 6.094-4.844 7.5 2.813 1.406 4.844 4.219 4.844 7.5 0 4.531-3.906 8.281-8.438 8.281-1.719 0-3.281-0.469-4.688-1.406v0.625c0 4.531-3.75 8.281-8.281 8.281s-8.281-3.75-8.281-8.281v-0.625c-1.406 0.938-2.969 1.406-4.688 1.406-4.531 0-8.438-3.75-8.438-8.281zM40 73.281c-16.563 0-30-13.438-30-30 16.563 0 30 13.438 30 30zM40 73.281c0-16.563 13.438-30 30-30 0 16.563-13.438 30-30 30z"></path>
</svg>
