<?xml version="1.0" encoding="utf-8"?>
<!-- Generated by IcoMoon.io -->
<!DOCTYPE svg PUBLIC "-//W3C//DTD SVG 1.1//EN" "http://www.w3.org/Graphics/SVG/1.1/DTD/svg11.dtd">
<svg version="1.1" xmlns="http://www.w3.org/2000/svg" xmlns:xlink="http://www.w3.org/1999/xlink" width="80" height="80" viewBox="0 0 80 80">
<path d="M60 66.719v-33.438h-40v33.438h40zM29.688 20v6.719h20.625v-6.719c0-5.625-4.688-10.313-10.313-10.313s-10.313 4.688-10.313 10.313zM60 26.719c3.594 0 6.719 2.969 6.719 6.563v33.438c0 3.594-3.125 6.563-6.719 6.563h-40c-3.594 0-6.719-2.969-6.719-6.563v-33.438c0-3.594 3.125-6.563 6.719-6.563h3.281v-6.719c0-9.219 7.5-16.719 16.719-16.719s16.719 7.5 16.719 16.719v6.719h3.281zM40 56.719c-3.594 0-6.719-3.125-6.719-6.719s3.125-6.719 6.719-6.719 6.719 3.125 6.719 6.719-3.125 6.719-6.719 6.719z"></path>
</svg>
