<?xml version="1.0" encoding="utf-8"?>
<!-- Generated by IcoMoon.io -->
<!DOCTYPE svg PUBLIC "-//W3C//DTD SVG 1.1//EN" "http://www.w3.org/Graphics/SVG/1.1/DTD/svg11.dtd">
<svg version="1.1" xmlns="http://www.w3.org/2000/svg" xmlns:xlink="http://www.w3.org/1999/xlink" width="80" height="80" viewBox="0 0 80 80">
<path d="M50 36.719v-6.719c0-3.75-3.125-6.719-6.719-6.719h-13.281v6.719h13.281v6.719h-6.563c-3.594 0-6.719 2.813-6.719 6.563v13.438h20v-6.719h-13.281v-6.719h6.563c3.594 0 6.719-2.813 6.719-6.563zM63.281 10c3.594 0 6.719 3.125 6.719 6.719v46.563c0 3.594-3.125 6.719-6.719 6.719h-46.563c-3.594 0-6.719-3.125-6.719-6.719v-46.563c0-3.594 3.125-6.719 6.719-6.719h46.563z"></path>
</svg>
