<?xml version="1.0" encoding="utf-8"?>
<!-- Generated by IcoMoon.io -->
<!DOCTYPE svg PUBLIC "-//W3C//DTD SVG 1.1//EN" "http://www.w3.org/Graphics/SVG/1.1/DTD/svg11.dtd">
<svg version="1.1" xmlns="http://www.w3.org/2000/svg" xmlns:xlink="http://www.w3.org/1999/xlink" width="80" height="80" viewBox="0 0 80 80">
<path d="M50 35v-5c0-3.75-2.969-6.719-6.563-6.719h-13.438v6.719h13.438v6.719h-6.719v6.563h6.719v6.719h-13.438v6.719h13.438c3.594 0 6.563-2.969 6.563-6.719v-5c0-2.813-2.188-5-5-5 2.813 0 5-2.188 5-5zM63.438 10c3.594 0 6.563 3.125 6.563 6.719v46.563c0 3.594-2.969 6.719-6.563 6.719h-46.719c-3.594 0-6.719-3.125-6.719-6.719v-46.563c0-3.594 3.125-6.719 6.719-6.719h46.719z"></path>
</svg>
