<?xml version="1.0" encoding="utf-8"?>
<!-- Generated by IcoMoon.io -->
<!DOCTYPE svg PUBLIC "-//W3C//DTD SVG 1.1//EN" "http://www.w3.org/Graphics/SVG/1.1/DTD/svg11.dtd">
<svg version="1.1" xmlns="http://www.w3.org/2000/svg" xmlns:xlink="http://www.w3.org/1999/xlink" width="80" height="80" viewBox="0 0 80 80">
<path d="M69.506 12.994c-7.313-7.986-17.825-12.994-29.506-12.994-22.091 0-40 17.909-40 40h7.5c0-17.949 14.551-32.5 32.5-32.5 9.611 0 18.245 4.173 24.195 10.805l-11.695 11.695h27.5v-27.5l-10.494 10.494z"></path>
<path d="M72.5 40c0 17.949-14.551 32.5-32.5 32.5-9.611 0-18.245-4.173-24.195-10.805l11.695-11.695h-27.5v27.5l10.494-10.494c7.313 7.986 17.825 12.994 29.506 12.994 22.091 0 40-17.909 40-40h-7.5z"></path>
</svg>
