<?xml version="1.0" encoding="utf-8"?>
<!-- Generated by IcoMoon.io -->
<!DOCTYPE svg PUBLIC "-//W3C//DTD SVG 1.1//EN" "http://www.w3.org/Graphics/SVG/1.1/DTD/svg11.dtd">
<svg version="1.1" xmlns="http://www.w3.org/2000/svg" xmlns:xlink="http://www.w3.org/1999/xlink" width="80" height="80" viewBox="0 0 80 80">
<path d="M20 15l-10-10h-5v5l10 10zM25 0h5v10h-5zM45 25h10v5h-10zM50 10v-5h-5l-10 10 5 5zM0 25h10v5h-10zM25 45h5v10h-5zM5 45v5h5l10-10-5-5zM78.906 68.906l-49.697-49.697c-1.458-1.458-3.845-1.458-5.303 0l-4.697 4.697c-1.458 1.458-1.458 3.845 0 5.303l49.697 49.697c1.458 1.458 3.845 1.458 5.303 0l4.697-4.697c1.458-1.458 1.458-3.845 0-5.303zM37.5 42.5l-15-15 5-5 15 15-5 5z"></path>
</svg>
