<?xml version="1.0" encoding="utf-8"?>
<!-- Generated by IcoMoon.io -->
<!DOCTYPE svg PUBLIC "-//W3C//DTD SVG 1.1//EN" "http://www.w3.org/Graphics/SVG/1.1/DTD/svg11.dtd">
<svg version="1.1" xmlns="http://www.w3.org/2000/svg" xmlns:xlink="http://www.w3.org/1999/xlink" width="80" height="80" viewBox="0 0 80 80">
<path d="M70 0h-20l5 45c0 8.284-6.716 15-15 15s-15-6.716-15-15l5-45h-20l-5 45c0 19.33 15.67 35 35 35s35-15.67 35-35l-5-45zM60.771 65.771c-5.548 5.548-12.925 8.604-20.771 8.604s-15.223-3.056-20.771-8.604c-5.478-5.478-8.526-12.738-8.602-20.473l2.82-25.377h8.681l-2.752 24.766v0.312c0 5.509 2.145 10.689 6.041 14.584s9.075 6.041 14.584 6.041 10.689-2.145 14.584-6.041c3.896-3.895 6.041-9.075 6.041-14.584v-0.312l-0.034-0.31-2.717-24.457h8.681l2.82 25.376c-0.077 7.735-3.125 14.995-8.602 20.473z"></path>
</svg>
