<?xml version="1.0" encoding="utf-8"?>
<!-- Generated by IcoMoon.io -->
<!DOCTYPE svg PUBLIC "-//W3C//DTD SVG 1.1//EN" "http://www.w3.org/Graphics/SVG/1.1/DTD/svg11.dtd">
<svg version="1.1" xmlns="http://www.w3.org/2000/svg" xmlns:xlink="http://www.w3.org/1999/xlink" width="80" height="80" viewBox="0 0 80 80">
<path d="M40 0c-22.091 0-40 17.909-40 40s17.909 40 40 40 40-17.909 40-40-17.909-40-40-40zM20 20h40c0.714 0 1.407 0.153 2.043 0.442l-22.043 25.716-22.043-25.716c0.636-0.289 1.329-0.442 2.043-0.442zM15 55v-30c0-0.105 0.004-0.209 0.011-0.313l14.661 17.105-14.5 14.5c-0.113-0.417-0.172-0.85-0.172-1.292zM60 60h-40c-0.442 0-0.875-0.060-1.292-0.172l14.228-14.228 7.064 8.242 7.064-8.242 14.228 14.228c-0.417 0.113-0.85 0.172-1.292 0.172zM65 55c0 0.442-0.060 0.875-0.172 1.292l-14.5-14.5 14.661-17.105c0.007 0.104 0.011 0.208 0.011 0.313v30z"></path>
</svg>
