<?xml version="1.0" encoding="utf-8"?>
<!-- Generated by IcoMoon.io -->
<!DOCTYPE svg PUBLIC "-//W3C//DTD SVG 1.1//EN" "http://www.w3.org/Graphics/SVG/1.1/DTD/svg11.dtd">
<svg version="1.1" xmlns="http://www.w3.org/2000/svg" xmlns:xlink="http://www.w3.org/1999/xlink" width="80" height="80" viewBox="0 0 80 80">
<path d="M66.667 0h-53.332c-7.334 0-13.335 6.001-13.335 13.335v53.33c0 7.339 6.001 13.335 13.335 13.335h53.332c7.334 0 13.333-5.996 13.333-13.335v-53.33c0-7.334-5.999-13.335-13.333-13.335zM14.268 69.268l-6.036-6.035 20-20 2.286 2.285-16.25 23.75zM11.982 15.518l2.286-2.286 25.732 20.732 25.732-20.732 2.285 2.286-28.018 33.018-28.018-33.018zM65.732 69.268l-16.25-23.75 2.285-2.285 20 20-6.035 6.035z"></path>
</svg>
