<?xml version="1.0" encoding="utf-8"?>
<!-- Generated by IcoMoon.io -->
<!DOCTYPE svg PUBLIC "-//W3C//DTD SVG 1.1//EN" "http://www.w3.org/Graphics/SVG/1.1/DTD/svg11.dtd">
<svg version="1.1" xmlns="http://www.w3.org/2000/svg" xmlns:xlink="http://www.w3.org/1999/xlink" width="80" height="80" viewBox="0 0 80 80">
<path d="M66.667 0h-53.332c-7.334 0-13.335 6.001-13.335 13.335v53.33c0 7.339 6.001 13.335 13.335 13.335h53.332c7.334 0 13.333-5.996 13.333-13.335v-53.33c0-7.334-5.999-13.335-13.333-13.335zM66.667 10c0.624 0 1.215 0.182 1.72 0.495l-28.388 23.469-28.387-23.469c0.506-0.313 1.097-0.496 1.722-0.496h53.332zM13.335 70c-0.15 0-0.298-0.011-0.444-0.032l17.627-24.45-2.286-2.285-18.232 18.232v-47.745l30 36.281 30-36.281v47.745l-18.232-18.232-2.285 2.285 17.627 24.451c-0.145 0.020-0.293 0.032-0.442 0.032h-53.332z"></path>
</svg>
