<?xml version="1.0" encoding="utf-8"?>
<!-- Generated by IcoMoon.io -->
<!DOCTYPE svg PUBLIC "-//W3C//DTD SVG 1.1//EN" "http://www.w3.org/Graphics/SVG/1.1/DTD/svg11.dtd">
<svg version="1.1" xmlns="http://www.w3.org/2000/svg" xmlns:xlink="http://www.w3.org/1999/xlink" width="80" height="80" viewBox="0 0 80 80">
<path d="M20 7.5c0 4.142-3.358 7.5-7.5 7.5s-7.5-3.358-7.5-7.5c0-4.142 3.358-7.5 7.5-7.5s7.5 3.358 7.5 7.5z"></path>
<path d="M65 7.5c0 4.142-3.358 7.5-7.5 7.5s-7.5-3.358-7.5-7.5c0-4.142 3.358-7.5 7.5-7.5s7.5 3.358 7.5 7.5z"></path>
<path d="M20 20h-15c-2.761 0-5 2.239-5 5v25h5v30h6.25v-30h2.5v30h6.25v-30h5v-25c0-2.761-2.238-5-5-5z"></path>
<path d="M76.172 40l3.828-2.773-10.413-16.103c-0.462-0.702-1.247-1.124-2.087-1.124h-20c-0.84 0-1.624 0.422-2.087 1.124l-10.413 16.103 3.828 2.773 8.644-11.218 3.005 7.011-10.477 19.207h9.583l1.667 25h5v-25h2.5v25h5l1.667-25h9.583l-10.477-19.208 3.005-7.011 8.644 11.219z"></path>
</svg>
