<?xml version="1.0" encoding="utf-8"?>
<!-- Generated by IcoMoon.io -->
<!DOCTYPE svg PUBLIC "-//W3C//DTD SVG 1.1//EN" "http://www.w3.org/Graphics/SVG/1.1/DTD/svg11.dtd">
<svg version="1.1" xmlns="http://www.w3.org/2000/svg" xmlns:xlink="http://www.w3.org/1999/xlink" width="80" height="80" viewBox="0 0 80 80">
<path d="M56.719 56.719v-33.438h-33.438v33.438h33.438zM70 36.719h-6.719v6.563h6.719v6.719h-6.719v6.719c0 3.594-2.969 6.563-6.563 6.563h-6.719v6.719h-6.719v-6.719h-6.563v6.719h-6.719v-6.719h-6.719c-3.594 0-6.563-2.969-6.563-6.563v-6.719h-6.719v-6.719h6.719v-6.563h-6.719v-6.719h6.719v-6.719c0-3.594 2.969-6.563 6.563-6.563h6.719v-6.719h6.719v6.719h6.563v-6.719h6.719v6.719h6.719c3.594 0 6.563 2.969 6.563 6.563v6.719h6.719v6.719zM43.281 43.281v-6.563h-6.563v6.563h6.563zM50 30v20h-20v-20h20z"></path>
</svg>
