<?xml version="1.0" encoding="utf-8"?>
<!-- Generated by IcoMoon.io -->
<!DOCTYPE svg PUBLIC "-//W3C//DTD SVG 1.1//EN" "http://www.w3.org/Graphics/SVG/1.1/DTD/svg11.dtd">
<svg version="1.1" xmlns="http://www.w3.org/2000/svg" xmlns:xlink="http://www.w3.org/1999/xlink" width="80" height="80" viewBox="0 0 80 80">
<path d="M40 0c-22.091 0-40 17.909-40 40s17.909 40 40 40 40-17.909 40-40-17.909-40-40-40zM23.659 65.168c0.868-2.393 1.341-4.976 1.341-7.668 0-9.715-6.157-17.992-14.782-21.141 0.798-6.635 3.77-12.773 8.569-17.572 5.666-5.666 13.2-8.787 21.213-8.787s15.547 3.121 21.213 8.787c4.799 4.799 7.771 10.938 8.569 17.572-8.625 3.15-14.782 11.426-14.782 21.141 0 2.693 0.473 5.275 1.341 7.668-4.821 3.144-10.451 4.832-16.341 4.832s-11.52-1.688-16.341-4.832zM43.106 50.078c1.084 0.273 1.894 1.256 1.894 2.422v5c0 1.375-1.125 2.5-2.5 2.5h-5c-1.375 0-2.5-1.125-2.5-2.5v-5c0-1.166 0.81-2.149 1.894-2.422l1.856-35.078h2.5l1.856 35.078z"></path>
</svg>
