<?xml version="1.0" encoding="utf-8"?>
<!-- Generated by IcoMoon.io -->
<!DOCTYPE svg PUBLIC "-//W3C//DTD SVG 1.1//EN" "http://www.w3.org/Graphics/SVG/1.1/DTD/svg11.dtd">
<svg version="1.1" xmlns="http://www.w3.org/2000/svg" xmlns:xlink="http://www.w3.org/1999/xlink" width="80" height="80" viewBox="0 0 80 80">
<path d="M40 5c22.091 0 40 17.909 40 40 0 15.062-8.326 28.177-20.626 35h-38.749c-12.299-6.823-20.626-19.938-20.626-35 0-22.091 17.909-40 40-40zM62.65 67.65c6.050-6.050 9.382-14.094 9.382-22.65h-7.031v-5h6.644c-0.548-3.515-1.671-6.886-3.325-10h-8.318v-5h5.022c-0.737-0.919-1.528-1.804-2.373-2.65-3.611-3.611-7.933-6.253-12.65-7.797v5.446h-5v-6.644c-1.639-0.255-3.309-0.388-5-0.388s-3.361 0.132-5 0.388v6.644h-5v-5.446c-4.717 1.544-9.038 4.186-12.65 7.797-0.845 0.845-1.635 1.731-2.373 2.65h5.022v5h-8.318c-1.654 3.114-2.777 6.485-3.325 10h6.644v5h-7.031c0 8.556 3.332 16.6 9.382 22.65 0.837 0.837 1.713 1.619 2.622 2.35h15.028l2.857-40h4.286l2.857 40h15.028c0.909-0.731 1.785-1.514 2.622-2.35z"></path>
</svg>
