<?xml version="1.0" encoding="utf-8"?>
<!-- Generated by IcoMoon.io -->
<!DOCTYPE svg PUBLIC "-//W3C//DTD SVG 1.1//EN" "http://www.w3.org/Graphics/SVG/1.1/DTD/svg11.dtd">
<svg version="1.1" xmlns="http://www.w3.org/2000/svg" xmlns:xlink="http://www.w3.org/1999/xlink" width="80" height="80" viewBox="0 0 80 80">
<path d="M37.5 55c6.904 0 12.5-5.596 12.5-12.5v-30c0-6.904-5.596-12.5-12.5-12.5s-12.5 5.596-12.5 12.5v30c0 6.904 5.597 12.5 12.5 12.5zM55 35v7.5c0 9.665-7.835 17.5-17.5 17.5s-17.5-7.835-17.5-17.5v-7.5h-5v7.5c0 11.581 8.75 21.117 20 22.361v10.139h-10v5h25v-5h-10v-10.139c11.25-1.244 20-10.78 20-22.361v-7.5h-5z"></path>
</svg>
