<?xml version="1.0" encoding="utf-8"?>
<!-- Generated by IcoMoon.io -->
<!DOCTYPE svg PUBLIC "-//W3C//DTD SVG 1.1//EN" "http://www.w3.org/Graphics/SVG/1.1/DTD/svg11.dtd">
<svg version="1.1" xmlns="http://www.w3.org/2000/svg" xmlns:xlink="http://www.w3.org/1999/xlink" width="80" height="80" viewBox="0 0 80 80">
<path d="M14.219 10l55.781 55.781-4.219 4.219-13.906-13.906c-2.5 1.563-5.625 2.5-8.594 2.969v10.938h-6.563v-10.938c-10.938-1.563-20-10.938-20-22.344h5.625c0 10 8.438 16.875 17.656 16.875 2.656 0 5.313-0.625 7.656-1.719l-5.469-5.469c-0.625 0.156-1.406 0.313-2.188 0.313-5.469 0-10-4.531-10-10v-2.5l-20-20zM50 37.188l-20-19.844v-0.625c0-5.469 4.531-10 10-10s10 4.531 10 10v20.469zM63.281 36.719c0 3.906-1.094 7.656-2.969 10.938l-4.063-4.219c0.938-2.031 1.406-4.219 1.406-6.719h5.625z"></path>
</svg>
