<?xml version="1.0" encoding="utf-8"?>
<!-- Generated by IcoMoon.io -->
<!DOCTYPE svg PUBLIC "-//W3C//DTD SVG 1.1//EN" "http://www.w3.org/Graphics/SVG/1.1/DTD/svg11.dtd">
<svg version="1.1" xmlns="http://www.w3.org/2000/svg" xmlns:xlink="http://www.w3.org/1999/xlink" width="80" height="80" viewBox="0 0 80 80">
<path d="M57.656 36.719h5.625c0 11.406-9.063 20.781-20 22.344v10.938h-6.563v-10.938c-10.938-1.563-20-10.938-20-22.344h5.625c0 10 8.438 16.875 17.656 16.875s17.656-6.875 17.656-16.875zM35.938 16.406v20.625c0 2.188 1.875 3.906 4.063 3.906s3.906-1.719 3.906-3.906l0.156-20.625c0-2.188-1.875-4.063-4.063-4.063s-4.063 1.875-4.063 4.063zM40 46.719c-5.469 0-10-4.531-10-10v-20c0-5.469 4.531-10 10-10s10 4.531 10 10v20c0 5.469-4.531 10-10 10z"></path>
</svg>
