<?xml version="1.0" encoding="utf-8"?>
<!-- Generated by IcoMoon.io -->
<!DOCTYPE svg PUBLIC "-//W3C//DTD SVG 1.1//EN" "http://www.w3.org/Graphics/SVG/1.1/DTD/svg11.dtd">
<svg version="1.1" xmlns="http://www.w3.org/2000/svg" xmlns:xlink="http://www.w3.org/1999/xlink" width="80" height="80" viewBox="0 0 80 80">
<path d="M44.688 60.313c5.781-1.094 10.469-4.375 10.469-10.469 0-8.438-7.344-11.406-14.063-13.125s-8.75-3.594-8.75-6.406c0-3.125 2.969-5.469 7.969-5.469 5.313 0 7.188 2.5 7.344 6.25h6.563c-0.156-5.156-3.281-9.688-9.531-11.25v-6.563h-8.906v6.563c-5.781 1.25-10.313 4.844-10.313 10.625 0 6.875 5.625 10.156 13.906 12.188 7.5 1.719 8.906 4.375 8.906 7.188 0 2.031-1.406 5.313-7.969 5.313-6.094 0-8.594-2.813-8.906-6.25h-6.563c0.313 6.406 5.313 10 10.938 11.25v6.563h8.906v-6.406zM40 6.719c18.438 0 33.281 14.844 33.281 33.281s-14.844 33.281-33.281 33.281-33.281-14.844-33.281-33.281 14.844-33.281 33.281-33.281z"></path>
</svg>
