<?xml version="1.0" encoding="utf-8"?>
<!-- Generated by IcoMoon.io -->
<!DOCTYPE svg PUBLIC "-//W3C//DTD SVG 1.1//EN" "http://www.w3.org/Graphics/SVG/1.1/DTD/svg11.dtd">
<svg version="1.1" xmlns="http://www.w3.org/2000/svg" xmlns:xlink="http://www.w3.org/1999/xlink" width="80" height="80" viewBox="0 0 80 80">
<path d="M17.813 13.594l48.594 48.75-4.219 4.219-7.344-7.5c-2.031 1.875-5 3.125-8.125 3.75v7.188h-10v-7.188c-6.406-1.406-11.875-5.469-12.344-12.813h7.344c0.313 3.906 3.125 7.031 10 7.031 4.531 0 6.875-1.563 7.969-3.125l-11.719-11.563c-7.813-2.344-12.969-6.25-12.969-13.125l-11.406-11.406zM41.719 22.969c-2.031 0-3.75 0.313-5.156 0.938l-4.844-4.844c1.563-0.781 3.281-1.406 5-1.875v-7.188h10v7.344c7.031 1.719 10.469 6.875 10.625 12.656h-7.344c-0.156-4.219-2.344-7.031-8.281-7.031z"></path>
</svg>
