<?xml version="1.0" encoding="utf-8"?>
<!-- Generated by IcoMoon.io -->
<!DOCTYPE svg PUBLIC "-//W3C//DTD SVG 1.1//EN" "http://www.w3.org/Graphics/SVG/1.1/DTD/svg11.dtd">
<svg version="1.1" xmlns="http://www.w3.org/2000/svg" xmlns:xlink="http://www.w3.org/1999/xlink" width="80" height="80" viewBox="0 0 80 80">
<path d="M66.719 63.281v-40h-26.719v3.438c9.375 0 16.719 7.188 16.719 16.563s-7.344 16.719-16.719 16.719v-5.938c-5.938 0-10.625-4.844-10.625-10.781s4.688-10.625 10.625-10.625v21.406c5.938 0 10.625-4.844 10.625-10.781s-4.688-10.625-10.625-10.625v-5.938c-9.375 0-16.719 7.188-16.719 16.563s7.344 16.719 16.719 16.719v3.281h26.719zM66.719 16.719c3.594 0 6.563 2.969 6.563 6.563v40c0 3.594-2.969 6.719-6.563 6.719h-53.438c-3.594 0-6.563-3.125-6.563-6.719v-40c0-3.594 2.969-6.563 6.563-6.563h10.781l5.938-6.719h20l5.938 6.719h10.781z"></path>
</svg>
