<?xml version="1.0" encoding="utf-8"?>
<!-- Generated by IcoMoon.io -->
<!DOCTYPE svg PUBLIC "-//W3C//DTD SVG 1.1//EN" "http://www.w3.org/Graphics/SVG/1.1/DTD/svg11.dtd">
<svg version="1.1" xmlns="http://www.w3.org/2000/svg" xmlns:xlink="http://www.w3.org/1999/xlink" width="80" height="80" viewBox="0 0 80 80">
<path d="M63.281 56.719c5.469 0 10-4.531 10-10s-4.531-10-10-10-10 4.531-10 10 4.531 10 10 10zM26.094 50h-9.375v-6.719h9.375c-1.406-3.906-5.156-6.563-9.375-6.563-5.469 0-10 4.531-10 10s4.531 10 10 10c4.219 0 7.969-2.813 9.375-6.719zM64.844 30.156c8.594 0.625 15.156 7.656 15.156 16.563 0 9.375-7.344 16.563-16.719 16.563s-16.563-7.188-16.563-16.563c0-2.031 0.313-4.063 0.938-5.938l-9.219 9.219h-5.469c-1.563 7.656-8.125 13.281-16.25 13.281-9.375 0-16.719-7.188-16.719-16.563s7.344-16.719 16.719-16.719h38.594l-6.719-6.719h-11.875v-6.563h14.688z"></path>
</svg>
