<?xml version="1.0" encoding="utf-8"?>
<!-- Generated by IcoMoon.io -->
<!DOCTYPE svg PUBLIC "-//W3C//DTD SVG 1.1//EN" "http://www.w3.org/Graphics/SVG/1.1/DTD/svg11.dtd">
<svg version="1.1" xmlns="http://www.w3.org/2000/svg" xmlns:xlink="http://www.w3.org/1999/xlink" width="80" height="80" viewBox="0 0 80 80">
<path d="M60 55v-30h-5v30h-12.5l15 15 15-15z"></path>
<path d="M25 20v15h-15v-15h15zM30 15h-25v25h25v-25z"></path>
<path d="M5 50h7.5v5h-7.5v-5z"></path>
<path d="M15 50h7.5v5h-7.5v-5z"></path>
<path d="M25 50h5v7.5h-5v-7.5z"></path>
<path d="M5 67.5h5v7.5h-5v-7.5z"></path>
<path d="M12.5 70h7.5v5h-7.5v-5z"></path>
<path d="M22.5 70h7.5v5h-7.5v-5z"></path>
<path d="M5 57.5h5v7.5h-5v-7.5z"></path>
<path d="M25 60h5v7.5h-5v-7.5z"></path>
</svg>
