<?xml version="1.0" encoding="utf-8"?>
<!-- Generated by IcoMoon.io -->
<!DOCTYPE svg PUBLIC "-//W3C//DTD SVG 1.1//EN" "http://www.w3.org/Graphics/SVG/1.1/DTD/svg11.dtd">
<svg version="1.1" xmlns="http://www.w3.org/2000/svg" xmlns:xlink="http://www.w3.org/1999/xlink" width="80" height="80" viewBox="0 0 80 80">
<path d="M55 40v30h5v-30h12.5l-15-15-15 15z"></path>
<path d="M5 15h7.5v5h-7.5v-5z"></path>
<path d="M15 15h7.5v5h-7.5v-5z"></path>
<path d="M25 15h5v7.5h-5v-7.5z"></path>
<path d="M5 32.5h5v7.5h-5v-7.5z"></path>
<path d="M12.5 35h7.5v5h-7.5v-5z"></path>
<path d="M22.5 35h7.5v5h-7.5v-5z"></path>
<path d="M5 22.5h5v7.5h-5v-7.5z"></path>
<path d="M25 25h5v7.5h-5v-7.5z"></path>
<path d="M25 55v15h-15v-15h15zM30 50h-25v25h25v-25z"></path>
</svg>
