<?xml version="1.0" encoding="utf-8"?>
<!-- Generated by IcoMoon.io -->
<!DOCTYPE svg PUBLIC "-//W3C//DTD SVG 1.1//EN" "http://www.w3.org/Graphics/SVG/1.1/DTD/svg11.dtd">
<svg version="1.1" xmlns="http://www.w3.org/2000/svg" xmlns:xlink="http://www.w3.org/1999/xlink" width="80" height="80" viewBox="0 0 80 80">
<path d="M53.281 33.281l-13.281 13.438-13.281-13.438h6.563v-10h13.438v10h6.563zM63.281 50v-33.281h-46.719v33.281h13.438c0 5.469 4.531 10 10 10s10-4.531 10-10h13.281zM63.281 10c3.594 0 6.719 3.125 6.719 6.719v46.563c0 3.594-3.125 6.719-6.719 6.719h-46.719c-3.75 0-6.563-3.125-6.563-6.719v-46.563c0-3.594 2.813-6.719 6.563-6.719h46.719z"></path>
</svg>
