<?xml version="1.0" encoding="utf-8"?>
<!-- Generated by IcoMoon.io -->
<!DOCTYPE svg PUBLIC "-//W3C//DTD SVG 1.1//EN" "http://www.w3.org/Graphics/SVG/1.1/DTD/svg11.dtd">
<svg version="1.1" xmlns="http://www.w3.org/2000/svg" xmlns:xlink="http://www.w3.org/1999/xlink" width="80" height="80" viewBox="0 0 80 80">
<path d="M56.406 39.844l6.875-3.125-6.875-3.125-3.125-6.875-3.125 6.875-6.875 3.125 6.875 3.125 3.125 6.875zM37.5 50.781l9.219-4.063-9.219-4.219-4.219-9.219-4.063 9.219-9.219 4.219 9.219 4.063 4.063 9.219zM60 13.281h13.281v46.719c0 3.594-2.969 6.719-6.563 6.719h-53.438c-3.594 0-6.563-3.125-6.563-6.719v-40c0-3.594 2.969-6.719 6.563-6.719h3.438l6.563 10h10l-6.563-10h6.563l6.719 10h10l-6.719-10h6.719l6.719 10h10z"></path>
</svg>
