<?xml version="1.0" encoding="utf-8"?>
<!-- Generated by IcoMoon.io -->
<!DOCTYPE svg PUBLIC "-//W3C//DTD SVG 1.1//EN" "http://www.w3.org/Graphics/SVG/1.1/DTD/svg11.dtd">
<svg version="1.1" xmlns="http://www.w3.org/2000/svg" xmlns:xlink="http://www.w3.org/1999/xlink" width="80" height="80" viewBox="0 0 80 80">
<path d="M75 25h-15v-7.5c0-6.904-13.431-12.5-30-12.5s-30 5.596-30 12.5v50c0 6.904 13.431 12.5 30 12.5s30-5.596 30-12.5v-7.5h15c2.761 0 5-2.239 5-5v-25c0-2.761-2.239-5-5-5zM13.754 20.187c-2.89-0.952-4.641-1.972-5.579-2.687 0.938-0.715 2.689-1.735 5.579-2.687 4.527-1.491 10.296-2.313 16.246-2.313s11.719 0.821 16.246 2.313c2.89 0.952 4.641 1.972 5.579 2.687-0.938 0.715-2.689 1.735-5.579 2.687-4.527 1.491-10.296 2.313-16.246 2.313s-11.719-0.821-16.246-2.313zM70 50h-10v-15h10v15z"></path>
</svg>
