<?xml version="1.0" encoding="utf-8"?>
<!-- Generated by IcoMoon.io -->
<!DOCTYPE svg PUBLIC "-//W3C//DTD SVG 1.1//EN" "http://www.w3.org/Graphics/SVG/1.1/DTD/svg11.dtd">
<svg version="1.1" xmlns="http://www.w3.org/2000/svg" xmlns:xlink="http://www.w3.org/1999/xlink" width="80" height="80" viewBox="0 0 80 80">
<path d="M73.281 23.125l-10.156 11.406c3.594 5.781 6.094 12.813 6.875 20.469h-6.719c-0.625-5.469-2.344-10.625-4.844-15.156l-13.438 15.156-13.281-13.438-20 20-5-5 25-25 13.281 13.438 9.531-10.938c-5.625-6.563-13.438-10.781-22.5-10.781-7.813 0-15 3.125-20.625 8.125l-4.688-4.688c6.875-6.094 15.625-10 25.313-10 10.781 0 20.156 4.688 27.031 12.344l9.531-10.625z"></path>
</svg>
