<?xml version="1.0" encoding="utf-8"?>
<!-- Generated by IcoMoon.io -->
<!DOCTYPE svg PUBLIC "-//W3C//DTD SVG 1.1//EN" "http://www.w3.org/Graphics/SVG/1.1/DTD/svg11.dtd">
<svg version="1.1" xmlns="http://www.w3.org/2000/svg" xmlns:xlink="http://www.w3.org/1999/xlink" width="80" height="80" viewBox="0 0 80 80">
<path d="M26.719 50c0-5.469 4.531-10 10-10 1.094 0 2.188 0.313 3.281 0.625v-20.625h16.719v6.719h-10v23.438c0 5.469-4.531 9.844-10 9.844s-10-4.531-10-10zM70 63.281v-46.563h-60v46.563h60zM70 10c3.594 0 6.719 3.125 6.719 6.719v46.563c0 3.594-3.125 6.719-6.719 6.719h-60c-3.594 0-6.719-3.125-6.719-6.719v-46.563c0-3.594 3.125-6.719 6.719-6.719h60z"></path>
</svg>
