<?xml version="1.0" encoding="utf-8"?>
<!-- Generated by IcoMoon.io -->
<!DOCTYPE svg PUBLIC "-//W3C//DTD SVG 1.1//EN" "http://www.w3.org/Graphics/SVG/1.1/DTD/svg11.dtd">
<svg version="1.1" xmlns="http://www.w3.org/2000/svg" xmlns:xlink="http://www.w3.org/1999/xlink" width="80" height="80" viewBox="0 0 80 80">
<path d="M15 36.719c-2.813 0-5-2.188-5-5s2.188-5 5-5 5 2.188 5 5-2.188 5-5 5zM73.906 30.625c0 12.031-9.063 21.719-20.625 23.125v12.969h10v6.563h-53.281v-16.563h-3.281v-13.438c0-1.875 1.406-3.281 3.281-3.281h10c1.875 0 3.281 1.406 3.281 3.281v13.438h-3.281v10h26.719v-13.125c-11.094-1.875-19.531-11.406-19.531-22.969 0-12.969 10.469-23.438 23.438-23.438s23.281 10.469 23.281 23.438z"></path>
</svg>
