<?xml version="1.0" encoding="utf-8"?>
<!-- Generated by IcoMoon.io -->
<!DOCTYPE svg PUBLIC "-//W3C//DTD SVG 1.1//EN" "http://www.w3.org/Graphics/SVG/1.1/DTD/svg11.dtd">
<svg version="1.1" xmlns="http://www.w3.org/2000/svg" xmlns:xlink="http://www.w3.org/1999/xlink" width="80" height="80" viewBox="0 0 80 80">
<path d="M70 53.281v-5c0-2.813-2.188-5-5-5s-5 2.188-5 5v5h10zM73.281 53.281c1.875 0 3.438 1.563 3.438 3.438v13.281c0 1.875-1.563 3.281-3.438 3.281h-16.563c-1.875 0-3.438-1.406-3.438-3.281v-13.281c0-1.875 1.563-3.438 3.438-3.438v-5c0-4.531 3.75-8.281 8.281-8.281s8.281 3.75 8.281 8.281v5zM65 33.281c-8.281 0-15 6.719-15 15v0.938c-2.031 1.875-3.281 4.531-3.281 7.5v10h-43.438l63.438-63.438v30.156c-0.625 0-1.094-0.156-1.719-0.156z"></path>
</svg>
