<?xml version="1.0" encoding="utf-8"?>
<!-- Generated by IcoMoon.io -->
<!DOCTYPE svg PUBLIC "-//W3C//DTD SVG 1.1//EN" "http://www.w3.org/Graphics/SVG/1.1/DTD/svg11.dtd">
<svg version="1.1" xmlns="http://www.w3.org/2000/svg" xmlns:xlink="http://www.w3.org/1999/xlink" width="80" height="80" viewBox="0 0 80 80">
<path d="M16.719 43.281c6.719-6.719 15.625-9.844 24.375-9.531l-4.375 9.531c-4.844 0.625-9.688 2.969-13.438 6.719zM56.719 50c-1.25-1.25-2.656-2.344-4.063-3.281l1.875-9.688c3.125 1.563 6.094 3.594 8.75 6.25zM70 36.719c-4.063-4.063-8.75-7.188-13.75-9.219l1.719-9.375c6.875 2.5 13.281 6.406 18.75 11.875zM3.281 30c12.5-12.5 29.688-17.188 45.781-14.375l-3.906 8.906c-12.5-1.563-25.625 2.656-35.156 12.188zM52.969 16.719c0.938 0 1.719 0.625 1.719 1.563l-8.125 42.969v0.156c-0.625 2.969-3.438 5.313-6.563 5.313-3.75 0-6.719-2.969-6.719-6.719 0-1.094 0.313-2.344 0.781-3.281l17.344-38.75c0.246-0.737 0.713-1.25 1.563-1.25z"></path>
</svg>
