<?xml version="1.0" encoding="utf-8"?>
<!-- Generated by IcoMoon.io -->
<!DOCTYPE svg PUBLIC "-//W3C//DTD SVG 1.1//EN" "http://www.w3.org/Graphics/SVG/1.1/DTD/svg11.dtd">
<svg version="1.1" xmlns="http://www.w3.org/2000/svg" xmlns:xlink="http://www.w3.org/1999/xlink" width="80" height="80" viewBox="0 0 80 80">
<path d="M40 0c-22.091 0-40 17.909-40 40s17.908 40 40 40c22.091 0 40-17.909 40-40s-17.909-40-40-40zM50 60h-20v-5h20v5zM55 20c2.761 0 5 2.239 5 5s-2.239 5-5 5-5-2.239-5-5c0-2.761 2.239-5 5-5zM25 20c2.761 0 5 2.239 5 5s-2.239 5-5 5-5-2.239-5-5c0-2.761 2.239-5 5-5z"></path>
</svg>
