<?xml version="1.0" encoding="utf-8"?>
<!-- Generated by IcoMoon.io -->
<!DOCTYPE svg PUBLIC "-//W3C//DTD SVG 1.1//EN" "http://www.w3.org/Graphics/SVG/1.1/DTD/svg11.dtd">
<svg version="1.1" xmlns="http://www.w3.org/2000/svg" xmlns:xlink="http://www.w3.org/1999/xlink" width="80" height="80" viewBox="0 0 80 80">
<path d="M36.719 61.719l13.281-13.438-13.281-13.281-3.438 3.281 10 10-10 10zM33.281 16.719v6.563h13.438v-6.563h-13.438zM46.719 10c3.644 0 6.563 3.047 6.563 6.719v6.563h13.438c3.594 0 6.563 3.125 6.563 6.719v36.719c0 3.594-2.969 6.563-6.563 6.563h-53.438c-3.594 0-6.563-2.969-6.563-6.563v-36.719c0-3.594 2.969-6.719 6.563-6.719h13.438v-6.563c0-3.594 2.969-6.719 6.563-6.719h13.438z"></path>
</svg>
