<?xml version="1.0" encoding="utf-8"?>
<!-- Generated by IcoMoon.io -->
<!DOCTYPE svg PUBLIC "-//W3C//DTD SVG 1.1//EN" "http://www.w3.org/Graphics/SVG/1.1/DTD/svg11.dtd">
<svg version="1.1" xmlns="http://www.w3.org/2000/svg" xmlns:xlink="http://www.w3.org/1999/xlink" width="80" height="80" viewBox="0 0 80 80">
<path d="M29.688 20v4.063l-6.094-6.094c0.938-8.281 7.813-14.688 16.406-14.688 9.219 0 16.719 7.5 16.719 16.719v6.719h3.281c3.594 0 6.719 2.969 6.719 6.563v27.813l-34.531-34.375h18.125v-6.719c0-5.625-4.688-10.313-10.313-10.313s-10.313 4.688-10.313 10.313zM70 72.656l-4.063 4.063-3.75-3.75c-0.625 0.156-1.406 0.313-2.188 0.313h-40c-3.594 0-6.719-2.969-6.719-6.563v-33.438c0-2.5 1.563-4.688 3.594-5.781l-6.875-6.719 4.063-4.063z"></path>
</svg>
