<?xml version="1.0" encoding="utf-8"?>
<!-- Generated by IcoMoon.io -->
<!DOCTYPE svg PUBLIC "-//W3C//DTD SVG 1.1//EN" "http://www.w3.org/Graphics/SVG/1.1/DTD/svg11.dtd">
<svg version="1.1" xmlns="http://www.w3.org/2000/svg" xmlns:xlink="http://www.w3.org/1999/xlink" width="80" height="80" viewBox="0 0 80 80">
<path d="M61.094 56.406c3.594-4.531 5.625-10.313 5.625-16.406 0-14.688-12.031-26.719-26.719-26.719-6.094 0-11.875 2.031-16.406 5.625zM40 66.719c6.094 0 11.875-2.031 16.406-5.625l-37.5-37.5c-3.594 4.531-5.625 10.313-5.625 16.406 0 14.688 12.031 26.719 26.719 26.719zM40 6.719c18.438 0 33.281 14.844 33.281 33.281s-14.844 33.281-33.281 33.281-33.281-14.844-33.281-33.281 14.844-33.281 33.281-33.281z"></path>
</svg>
