<?xml version="1.0" encoding="utf-8"?>
<!-- Generated by IcoMoon.io -->
<!DOCTYPE svg PUBLIC "-//W3C//DTD SVG 1.1//EN" "http://www.w3.org/Graphics/SVG/1.1/DTD/svg11.dtd">
<svg version="1.1" xmlns="http://www.w3.org/2000/svg" xmlns:xlink="http://www.w3.org/1999/xlink" width="80" height="80" viewBox="0 0 80 80">
<path d="M40 73.281c-3.75 0-6.719-2.969-6.719-6.563h13.281c0 3.881-2.908 6.563-6.563 6.563zM60 36.719v16.563l6.719 6.719v3.281h-53.438v-3.281l6.719-6.719v-16.563c0-10.313 5.469-18.75 15-21.094v-2.344c0-2.813 2.188-5 5-5s5 2.188 5 5v2.344c9.531 2.344 15 10.938 15 21.094zM66.563 35c-0.469-8.906-5-16.563-11.719-21.406l4.688-4.688c7.969 6.094 13.281 15.469 13.75 26.094h-6.719zM25.313 13.594c-6.875 4.844-11.406 12.5-11.875 21.406h-6.719c0.469-10.625 5.781-20 13.75-26.094z"></path>
</svg>
