<?xml version="1.0" encoding="utf-8"?>
<!-- Generated by IcoMoon.io -->
<!DOCTYPE svg PUBLIC "-//W3C//DTD SVG 1.1//EN" "http://www.w3.org/Graphics/SVG/1.1/DTD/svg11.dtd">
<svg version="1.1" xmlns="http://www.w3.org/2000/svg" xmlns:xlink="http://www.w3.org/1999/xlink" width="80" height="80" viewBox="0 0 80 80">
<path d="M60 48.906l-29.844-31.406c0.781-0.313 1.563-0.781 2.344-1.094h0.156l0.938-0.469c0.469-0.156 0.938-0.156 1.406-0.313v-2.344c0-2.813 2.188-5 5-5s5 2.188 5 5v2.344c9.531 2.344 15 10.781 15 21.094v12.188zM40 73.281c-3.75 0-6.719-2.813-6.719-6.563h13.438c0 3.75-2.969 6.563-6.719 6.563zM26.094 20.469c14.628 15.112 29.323 30.156 43.906 45.313l-4.219 4.219-6.719-6.719h-45.781v-3.281l6.719-6.719v-16.719c0-4.219 0.938-8.125 2.656-11.406l-9.375-9.219 4.219-4.375z"></path>
</svg>
