<?xml version="1.0" encoding="utf-8"?>
<!-- Generated by IcoMoon.io -->
<!DOCTYPE svg PUBLIC "-//W3C//DTD SVG 1.1//EN" "http://www.w3.org/Graphics/SVG/1.1/DTD/svg11.dtd">
<svg version="1.1" xmlns="http://www.w3.org/2000/svg" xmlns:xlink="http://www.w3.org/1999/xlink" width="80" height="80" viewBox="0 0 80 80">
<path d="M40 7.5c-8.681 0-16.843 3.381-22.981 9.519s-9.519 14.3-9.519 22.981c0 8.681 3.381 16.843 9.519 22.981s14.3 9.519 22.981 9.519c8.681 0 16.843-3.381 22.981-9.519s9.519-14.3 9.519-22.981c0-8.681-3.381-16.842-9.519-22.981s-14.3-9.519-22.981-9.519zM40 0v0c22.091 0 40 17.909 40 40s-17.909 40-40 40c-22.091 0-40-17.909-40-40s17.909-40 40-40zM35 55h10v10h-10zM35 15h10v30h-10z"></path>
</svg>
