<?xml version="1.0" encoding="utf-8"?>
<!-- Generated by IcoMoon.io -->
<!DOCTYPE svg PUBLIC "-//W3C//DTD SVG 1.1//EN" "http://www.w3.org/Graphics/SVG/1.1/DTD/svg11.dtd">
<svg version="1.1" xmlns="http://www.w3.org/2000/svg" xmlns:xlink="http://www.w3.org/1999/xlink" width="80" height="80" viewBox="0 0 80 80">
<path d="M53.281 56.719v-20c0-8.281-5-15-13.281-15s-13.281 6.719-13.281 15v20h26.563zM60 53.281l6.719 6.719v3.281h-53.438v-3.281l6.719-6.719v-16.563c0-10.313 5.469-18.75 15-21.094v-2.344c0-2.813 2.188-5 5-5s5 2.188 5 5v2.344c9.531 2.344 15 10.938 15 21.094v16.563zM40 73.281c-3.594 0-6.719-2.969-6.719-6.563h13.438c0 3.594-3.125 6.563-6.719 6.563z"></path>
</svg>
