<?xml version="1.0" encoding="utf-8"?>
<!-- Generated by IcoMoon.io -->
<!DOCTYPE svg PUBLIC "-//W3C//DTD SVG 1.1//EN" "http://www.w3.org/Graphics/SVG/1.1/DTD/svg11.dtd">
<svg version="1.1" xmlns="http://www.w3.org/2000/svg" xmlns:xlink="http://www.w3.org/1999/xlink" width="80" height="80" viewBox="0 0 80 80">
<path d="M55 70h20l5-10v20h-30v-16.735c10.243-4.413 17.5-15.403 17.5-28.265 0-16.753-12.312-29.865-27.5-29.865s-27.5 13.112-27.5 29.865c0 12.861 7.257 23.852 17.5 28.265v16.735h-30v-20l5 10h20v-2.546c-14.659-5.192-25-17.766-25-32.454 0-19.33 17.909-35 40-35s40 15.67 40 35c0 14.688-10.341 27.262-25 32.454v2.546z"></path>
</svg>
