<?xml version="1.0" encoding="utf-8"?>
<!-- Generated by IcoMoon.io -->
<!DOCTYPE svg PUBLIC "-//W3C//DTD SVG 1.1//EN" "http://www.w3.org/Graphics/SVG/1.1/DTD/svg11.dtd">
<svg version="1.1" xmlns="http://www.w3.org/2000/svg" xmlns:xlink="http://www.w3.org/1999/xlink" width="80" height="80" viewBox="0 0 80 80">
<path d="M27.412 64.718c-4.709-1.177-7.332-4.92-7.341-10.474-0.002-1.775 0.126-2.627 0.569-3.768 1.087-2.8 3.963-4.912 7.748-5.689 1.884-0.387 2.464-0.802 2.464-1.763 0-0.302 0.224-1.2 0.498-1.996 1.245-3.618 3.549-6.634 6.012-7.867 2.577-1.291 3.878-1.582 6.996-1.566 4.428 0.024 6.637 0.984 9.726 4.229l1.699 1.785 1.522-0.527c7.367-2.55 14.711 1.79 15.304 9.043l0.162 1.984 1.451 0.52c4.143 1.485 6.091 4.602 5.738 9.184-0.231 2.997-1.632 5.389-3.852 6.577l-1.043 0.558-23.189 0.045c-17.82 0.034-23.484-0.029-24.464-0.273v0zM8.064 61.404c-2.826-0.71-5.821-3.348-7.225-6.365-0.797-1.711-0.839-1.963-0.839-4.991 0-2.88 0.068-3.342 0.702-4.772 1.337-3.014 3.898-5.192 7.112-6.048 0.678-0.181 1.316-0.469 1.416-0.64s0.213-1.107 0.249-2.077c0.224-6.031 3.968-11.345 9.196-13.051 2.825-0.922 6.529-1.008 9.601 0.291 0.974 0.412 0.865 0.5 2.925-2.355 1.218-1.688 3.524-3.476 5.539-4.545 2.175-1.154 4.437-1.686 7.142-1.679 7.56 0.020 14.075 5.017 16.485 12.644 0.77 2.437 0.731 3.119-0.177 3.139-0.396 0.009-1.532 0.239-2.523 0.512l-1.803 0.497-1.645-1.738c-4.638-4.901-12.206-5.96-18.64-2.609-2.57 1.339-4.636 3.261-6.196 5.766-1.112 1.786-2.53 5.117-2.53 5.945 0 0.587-0.45 0.88-2.37 1.545-5.945 2.061-9.415 6.819-9.412 12.908 0.001 2.216 0.541 4.928 1.291 6.481 0.283 0.585 0.44 1.142 0.35 1.237-0.23 0.243-7.626 0.161-8.648-0.096v0z"></path>
</svg>
