<?xml version="1.0" encoding="utf-8"?>
<!-- Generated by IcoMoon.io -->
<!DOCTYPE svg PUBLIC "-//W3C//DTD SVG 1.1//EN" "http://www.w3.org/Graphics/SVG/1.1/DTD/svg11.dtd">
<svg version="1.1" xmlns="http://www.w3.org/2000/svg" xmlns:xlink="http://www.w3.org/1999/xlink" width="80" height="80" viewBox="0 0 80 80">
<path d="M80 40v0 0c0 11.844-5.156 22.5-13.344 29.813-10.266 5-19.828 1.5-22.984-0.688 10.078-2.203 17.688-14.391 17.688-29.125s-7.609-26.922-17.688-29.141c3.172-2.188 12.734-5.688 22.984-0.688 8.188 7.328 13.344 17.984 13.344 29.828v0 0z"></path>
<path d="M26.828 17.453c-4.422 5.219-7.281 12.938-7.469 21.609 0 0.016 0 1.859 0 1.891 0.188 8.656 3.063 16.375 7.484 21.594 5.734 7.453 14.266 12.172 23.797 12.172 5.859 0 11.344-1.781 16.031-4.891-7.094 6.328-16.437 10.172-26.672 10.172-0.641 0-1.281-0.016-1.906-0.047-21.203-1-38.094-18.5-38.094-39.953 0-22.094 17.906-40 40-40 0.047 0 0.094 0 0.156 0 10.188 0.031 19.469 3.875 26.516 10.188-4.687-3.109-10.172-4.906-16.031-4.906-9.531 0-18.062 4.719-23.812 12.172z"></path>
</svg>
