<?xml version="1.0" encoding="utf-8"?>
<!-- Generated by IcoMoon.io -->
<!DOCTYPE svg PUBLIC "-//W3C//DTD SVG 1.1//EN" "http://www.w3.org/Graphics/SVG/1.1/DTD/svg11.dtd">
<svg version="1.1" xmlns="http://www.w3.org/2000/svg" xmlns:xlink="http://www.w3.org/1999/xlink" width="80" height="80" viewBox="0 0 80 80">
<path d="M72.5 65h-20c-0.988 0-1.883-0.582-2.285-1.485l-19.34-43.515h-23.375c-1.381 0-2.5-1.119-2.5-2.5s1.119-2.5 2.5-2.5h25c0.988 0 1.883 0.582 2.285 1.485l19.34 43.515h18.375c1.381 0 2.5 1.119 2.5 2.5s-1.119 2.5-2.5 2.5z"></path>
<path d="M72.5 20h-25c-1.381 0-2.5-1.119-2.5-2.5s1.119-2.5 2.5-2.5h25c1.381 0 2.5 1.119 2.5 2.5s-1.119 2.5-2.5 2.5z"></path>
</svg>
