<?xml version="1.0" encoding="utf-8"?>
<!-- Generated by IcoMoon.io -->
<!DOCTYPE svg PUBLIC "-//W3C//DTD SVG 1.1//EN" "http://www.w3.org/Graphics/SVG/1.1/DTD/svg11.dtd">
<svg version="1.1" xmlns="http://www.w3.org/2000/svg" xmlns:xlink="http://www.w3.org/1999/xlink" width="80" height="80" viewBox="0 0 80 80">
<path d="M55.938 60.625l4.688-4.688-9.688-9.688c1.406-2.344 2.344-5 2.344-7.969 0-8.281-6.719-15-15-15s-15 6.719-15 15 6.719 15 15 15c2.969 0 5.625-0.938 7.969-2.344zM66.719 13.281c3.594 0 6.563 3.125 6.563 6.719v40c0 3.594-2.969 6.719-6.563 6.719h-53.438c-3.594 0-6.563-3.125-6.563-6.719v-40c0-3.594 2.969-6.719 6.563-6.719h53.438zM38.281 30c4.531 0 8.438 3.75 8.438 8.281s-3.906 8.438-8.438 8.438-8.281-3.906-8.281-8.438 3.75-8.281 8.281-8.281z"></path>
</svg>
