<?xml version="1.0" encoding="utf-8"?>
<!-- Generated by IcoMoon.io -->
<!DOCTYPE svg PUBLIC "-//W3C//DTD SVG 1.1//EN" "http://www.w3.org/Graphics/SVG/1.1/DTD/svg11.dtd">
<svg version="1.1" xmlns="http://www.w3.org/2000/svg" xmlns:xlink="http://www.w3.org/1999/xlink" width="80" height="80" viewBox="0 0 80 80">
<path d="M63.281 10c3.594 0 6.719 3.125 6.719 6.719v20h-16.719l3.438-13.438-13.438 3.438v-16.719h20zM56.719 56.719l-3.438-13.438h16.719v20c0 3.594-3.125 6.719-6.719 6.719h-20v-16.719zM26.719 43.281l-3.438 13.438 13.438-3.438v16.719h-20c-3.594 0-6.719-3.125-6.719-6.719v-20h16.719zM10 16.719c0-3.594 3.125-6.719 6.719-6.719h20v16.719l-13.438-3.438 3.438 13.438h-16.719v-20z"></path>
</svg>
