<?xml version="1.0" encoding="utf-8"?>
<!-- Generated by IcoMoon.io -->
<!DOCTYPE svg PUBLIC "-//W3C//DTD SVG 1.1//EN" "http://www.w3.org/Graphics/SVG/1.1/DTD/svg11.dtd">
<svg version="1.1" xmlns="http://www.w3.org/2000/svg" xmlns:xlink="http://www.w3.org/1999/xlink" width="80" height="80" viewBox="0 0 80 80">
<path d="M80 45v-30h-15v-5c0-2.75-2.25-5-5-5h-55c-2.75 0-5 2.25-5 5v15c0 2.75 2.25 5 5 5h55c2.75 0 5-2.25 5-5v-5h10v20h-45v10h-2.5c-1.381 0-2.5 1.119-2.5 2.5v25c0 1.381 1.119 2.5 2.5 2.5h10c1.381 0 2.5-1.119 2.5-2.5v-25c0-1.381-1.119-2.5-2.5-2.5h-2.5v-5h45zM60 15h-55v-5h55v5z"></path>
</svg>
