<?xml version="1.0" encoding="utf-8"?>
<!-- Generated by IcoMoon.io -->
<!DOCTYPE svg PUBLIC "-//W3C//DTD SVG 1.1//EN" "http://www.w3.org/Graphics/SVG/1.1/DTD/svg11.dtd">
<svg version="1.1" xmlns="http://www.w3.org/2000/svg" xmlns:xlink="http://www.w3.org/1999/xlink" width="80" height="80" viewBox="0 0 80 80">
<path d="M58.281 40c2.813 0 5-2.188 5-5s-2.188-5-5-5-5 2.188-5 5 2.188 5 5 5zM48.281 26.719c2.813 0 5-2.188 5-5s-2.188-5-5-5-5 2.188-5 5 2.188 5 5 5zM31.719 26.719c2.813 0 5-2.188 5-5s-2.188-5-5-5-5 2.188-5 5 2.188 5 5 5zM21.719 40c2.813 0 5-2.188 5-5s-2.188-5-5-5-5 2.188-5 5 2.188 5 5 5zM40 10c16.563 0 30 12.031 30 26.719 0 9.219-7.5 16.563-16.719 16.563h-5.781c-2.813 0-5 2.188-5 5 0 1.25 0.469 2.344 1.25 3.281s1.25 2.188 1.25 3.438c0 2.813-2.188 5-5 5-16.563 0-30-13.438-30-30s13.438-30 30-30z"></path>
</svg>
