<?xml version="1.0" encoding="utf-8"?>
<!-- Generated by IcoMoon.io -->
<!DOCTYPE svg PUBLIC "-//W3C//DTD SVG 1.1//EN" "http://www.w3.org/Graphics/SVG/1.1/DTD/svg11.dtd">
<svg version="1.1" xmlns="http://www.w3.org/2000/svg" xmlns:xlink="http://www.w3.org/1999/xlink" width="80" height="80" viewBox="0 0 80 80">
<path d="M76.719 18.281v48.438c0 7.344-6.094 13.281-13.438 13.281h-24.219c-3.594 0-7.031-1.406-9.531-3.906l-26.25-26.719s4.219-4.063 4.375-4.063c0.781-0.625 1.719-0.938 2.656-0.938 0.781 0 1.406 0.156 2.031 0.469 0.156 0 14.375 8.125 14.375 8.125v-39.688c0-2.813 2.188-5 5-5s5 2.188 5 5v23.438h3.281v-31.719c0-2.813 2.188-5 5-5s5 2.188 5 5v31.719h3.281v-28.438c0-2.813 2.188-5 5-5s5 2.188 5 5v28.438h3.438v-18.438c0-2.813 2.188-5 5-5s5 2.188 5 5z"></path>
</svg>
