<?xml version="1.0" encoding="utf-8"?>
<!-- Generated by IcoMoon.io -->
<!DOCTYPE svg PUBLIC "-//W3C//DTD SVG 1.1//EN" "http://www.w3.org/Graphics/SVG/1.1/DTD/svg11.dtd">
<svg version="1.1" xmlns="http://www.w3.org/2000/svg" xmlns:xlink="http://www.w3.org/1999/xlink" width="80" height="80" viewBox="0 0 80 80">
<path d="M40 13.281c9.063 0 17.5 0.938 26.563 2.5l2.969 0.469 0.938 2.969c1.875 6.875 2.813 13.906 2.813 20.781s-0.938 13.906-2.813 20.781l-0.938 2.969-2.969 0.469c-9.063 1.563-17.5 2.5-26.563 2.5s-17.5-0.938-26.563-2.5l-2.969-0.469-0.938-2.969c-1.875-6.875-2.813-13.906-2.813-20.781s0.938-13.906 2.813-20.781l0.938-2.969 2.969-0.469c9.063-1.563 17.5-2.5 26.563-2.5zM40 20c-8.125 0-15.781 0.781-24.375 2.188-1.563 5.938-2.344 11.875-2.344 17.813s0.781 11.875 2.344 17.813c8.594 1.406 16.25 2.188 24.375 2.188s15.781-0.781 24.375-2.188c1.563-5.938 2.344-11.875 2.344-17.813s-0.781-11.875-2.344-17.813c-8.594-1.406-16.25-2.188-24.375-2.188z"></path>
</svg>
