<?xml version="1.0" encoding="utf-8"?>
<!-- Generated by IcoMoon.io -->
<!DOCTYPE svg PUBLIC "-//W3C//DTD SVG 1.1//EN" "http://www.w3.org/Graphics/SVG/1.1/DTD/svg11.dtd">
<svg version="1.1" xmlns="http://www.w3.org/2000/svg" xmlns:xlink="http://www.w3.org/1999/xlink" width="80" height="80" viewBox="0 0 80 80">
<path d="M21.875 66.719h36.25c-2.5-8.594-3.75-17.656-3.75-26.719s1.25-18.125 3.75-26.719h-36.25c2.5 8.594 3.75 17.656 3.75 26.719s-1.25 18.125-3.75 26.719zM66.406 70.469c0.156 0.313 0.313 0.625 0.313 0.938 0 1.094-0.938 1.875-2.188 1.875h-49.063c-1.406 0-2.188-0.781-2.188-1.875 0-0.313 0.156-0.625 0.313-0.938 3.594-9.844 5.469-20.156 5.469-30.469s-1.875-20.625-5.469-30.469c-0.156-0.313-0.313-0.625-0.313-0.938 0-1.094 0.781-1.875 2.188-1.875h49.063c1.406 0 2.188 0.781 2.188 1.875 0 0.313-0.156 0.625-0.313 0.938-3.594 9.844-5.469 20.156-5.469 30.469s1.875 20.625 5.469 30.469z"></path>
</svg>
