<?xml version="1.0" encoding="utf-8"?>
<!-- Generated by IcoMoon.io -->
<!DOCTYPE svg PUBLIC "-//W3C//DTD SVG 1.1//EN" "http://www.w3.org/Graphics/SVG/1.1/DTD/svg11.dtd">
<svg version="1.1" xmlns="http://www.w3.org/2000/svg" xmlns:xlink="http://www.w3.org/1999/xlink" width="80" height="80" viewBox="0 0 80 80">
<path d="M71.406 13.281c1.094 0 1.875 0.781 1.875 2.188v49.063c0 1.406-0.781 2.188-1.875 2.188-0.313 0-0.625-0.156-0.938-0.313-9.844-3.594-20.156-5.469-30.469-5.469s-20.625 1.875-30.469 5.469c-0.313 0.156-0.625 0.313-0.938 0.313-1.094 0-1.875-0.938-1.875-2.188v-49.063c0-1.406 0.781-2.188 1.875-2.188 0.313 0 0.625 0.156 0.938 0.313 9.844 3.594 20.156 5.469 30.469 5.469s20.625-1.875 30.469-5.469c0.313-0.156 0.625-0.313 0.938-0.313zM66.719 21.875c-8.594 2.656-17.656 3.75-26.719 3.75s-18.125-1.25-26.719-3.75v36.25c8.594-2.5 17.656-3.75 26.719-3.75s18.125 1.25 26.719 3.75v-36.25z"></path>
</svg>
