<?xml version="1.0" encoding="utf-8"?>
<!-- Generated by IcoMoon.io -->
<!DOCTYPE svg PUBLIC "-//W3C//DTD SVG 1.1//EN" "http://www.w3.org/Graphics/SVG/1.1/DTD/svg11.dtd">
<svg version="1.1" xmlns="http://www.w3.org/2000/svg" xmlns:xlink="http://www.w3.org/1999/xlink" width="80" height="80" viewBox="0 0 80 80">
<path d="M40 56.719c9.219 0 16.719-7.5 16.719-16.719 0-1.094-0.156-2.188-0.313-3.281h-7.031c0.313 1.094 0.625 2.188 0.625 3.281 0 5.469-4.531 10-10 10h-13.281c3.125 4.063 7.813 6.719 13.281 6.719zM40 23.281c-9.219 0-16.719 7.5-16.719 16.719 0 1.094 0.156 2.188 0.313 3.281h7.031c-0.313-1.094-0.625-2.188-0.625-3.281 0-5.469 4.531-10 10-10h13.281c-3.125-4.063-7.813-6.719-13.281-6.719zM66.719 13.281c3.594 0 6.563 3.125 6.563 6.719v40c0 3.594-2.969 6.719-6.563 6.719h-53.438c-3.594 0-6.563-3.125-6.563-6.719v-40c0-3.594 2.969-6.719 6.563-6.719h10.625l6.094-6.563h20l6.094 6.563h10.625z"></path>
</svg>
