<?xml version="1.0" encoding="utf-8"?>
<!-- Generated by IcoMoon.io -->
<!DOCTYPE svg PUBLIC "-//W3C//DTD SVG 1.1//EN" "http://www.w3.org/Graphics/SVG/1.1/DTD/svg11.dtd">
<svg version="1.1" xmlns="http://www.w3.org/2000/svg" xmlns:xlink="http://www.w3.org/1999/xlink" width="80" height="80" viewBox="0 0 80 80">
<path d="M55 10h-10v-5c0-2.75-2.25-5-5-5h-10c-2.75 0-5 2.25-5 5v5h-10v10h40v-10zM40 10h-10v-4.991c0.003-0.003 0.006-0.006 0.009-0.009h9.982c0.003 0.003 0.006 0.006 0.009 0.009v4.991zM65 25v-12.5c0-1.375-1.125-2.5-2.5-2.5h-5v5h2.5v10h-15l-15 15v20h-20v-45h2.5v-5h-5c-1.375 0-2.5 1.125-2.5 2.5v50c0 1.375 1.125 2.5 2.5 2.5h22.5v15h50v-55h-15zM45 32.071v7.929h-7.929l7.929-7.929zM75 75h-40v-30h15v-15h25v45z"></path>
</svg>
