<?xml version="1.0" encoding="utf-8"?>
<!-- Generated by IcoMoon.io -->
<!DOCTYPE svg PUBLIC "-//W3C//DTD SVG 1.1//EN" "http://www.w3.org/Graphics/SVG/1.1/DTD/svg11.dtd">
<svg version="1.1" xmlns="http://www.w3.org/2000/svg" xmlns:xlink="http://www.w3.org/1999/xlink" width="80" height="80" viewBox="0 0 80 80">
<path d="M72.656 24.109c-3.734 16.578-15.266 25.328-33.438 25.328h-6.047l-4.203 26.688h-5.063l-0.266 1.719c-0.172 1.141 0.703 2.156 1.844 2.156h12.938c1.531 0 2.828-1.109 3.078-2.625l0.125-0.656 2.438-15.453 0.156-0.844c0.234-1.516 1.547-2.625 3.078-2.625h1.922c12.531 0 22.344-5.094 25.219-19.813 1.078-5.594 0.672-10.344-1.781-13.875z"></path>
<path d="M64.922 6.031c-3.703-4.219-10.406-6.031-18.969-6.031h-24.859c-1.75 0-3.25 1.266-3.516 3l-10.359 65.656c-0.203 1.297 0.797 2.469 2.109 2.469h15.359l3.859-24.453-0.125 0.766c0.266-1.734 1.75-3 3.5-3h7.297c14.328 0 25.547-5.813 28.828-22.656 0.094-0.5 0.188-0.984 0.25-1.453 0.969-6.219 0-10.469-3.375-14.297z"></path>
</svg>
