<?xml version="1.0" encoding="utf-8"?>
<!-- Generated by IcoMoon.io -->
<!DOCTYPE svg PUBLIC "-//W3C//DTD SVG 1.1//EN" "http://www.w3.org/Graphics/SVG/1.1/DTD/svg11.dtd">
<svg version="1.1" xmlns="http://www.w3.org/2000/svg" xmlns:xlink="http://www.w3.org/1999/xlink" width="80" height="80" viewBox="0 0 80 80">
<path d="M79.545 22.804l-22.348-22.348c-0.729-0.729-1.691-0.565-2.137 0.365l-2.996 6.242 20.875 20.875 6.242-2.996c0.93-0.446 1.094-1.408 0.365-2.137z"></path>
<path d="M48.077 10.577l-20.577 1.715c-1.367 0.169-2.506 0.461-2.898 2.246-0 0.002-0.001 0.003-0.001 0.005-5.58 26.802-24.601 52.957-24.601 52.957l4.482 4.482 21.249-21.249c-0.468-0.979-0.731-2.075-0.731-3.233 0-4.142 3.358-7.5 7.5-7.5s7.5 3.358 7.5 7.5-3.358 7.5-7.5 7.5c-1.158 0-2.254-0.263-3.233-0.731l-21.249 21.249 4.482 4.482c0 0 26.155-19.021 52.957-24.601 0.002-0 0.003-0.001 0.005-0.001 1.785-0.391 2.077-1.53 2.246-2.898l1.715-20.577-21.346-21.346z"></path>
</svg>
