<?xml version="1.0" encoding="utf-8"?>
<!-- Generated by IcoMoon.io -->
<!DOCTYPE svg PUBLIC "-//W3C//DTD SVG 1.1//EN" "http://www.w3.org/Graphics/SVG/1.1/DTD/svg11.dtd">
<svg version="1.1" xmlns="http://www.w3.org/2000/svg" xmlns:xlink="http://www.w3.org/1999/xlink" width="80" height="80" viewBox="0 0 80 80">
<path d="M53.281 43.281c7.813 0 23.438 3.906 23.438 11.719v8.281h-20v-8.281c0-5-2.656-8.75-6.563-11.563 1.094-0.156 2.188-0.156 3.125-0.156zM26.719 43.281c7.813 0 23.281 3.906 23.281 11.719v8.281h-46.719v-8.281c0-7.813 15.625-11.719 23.438-11.719zM26.719 36.719c-5.469 0-10-4.531-10-10s4.531-10 10-10 9.844 4.531 9.844 10-4.375 10-9.844 10zM53.281 36.719c-5.469 0-10-4.531-10-10s4.531-10 10-10 10 4.531 10 10-4.531 10-10 10z"></path>
</svg>
