<?xml version="1.0" encoding="utf-8"?>
<!-- Generated by IcoMoon.io -->
<!DOCTYPE svg PUBLIC "-//W3C//DTD SVG 1.1//EN" "http://www.w3.org/Graphics/SVG/1.1/DTD/svg11.dtd">
<svg version="1.1" xmlns="http://www.w3.org/2000/svg" xmlns:xlink="http://www.w3.org/1999/xlink" width="80" height="80" viewBox="0 0 80 80">
<path d="M55 21.719c-3.594 0-6.719 2.969-6.719 6.563s3.125 6.719 6.719 6.719 6.719-3.125 6.719-6.719-3.125-6.563-6.719-6.563zM55 40c-6.406 0-11.719-5.313-11.719-11.719s5.313-11.563 11.719-11.563 11.719 5.156 11.719 11.563-5.313 11.719-11.719 11.719zM25 21.719c-3.594 0-6.719 2.969-6.719 6.563s3.125 6.719 6.719 6.719 6.719-3.125 6.719-6.719-3.125-6.563-6.719-6.563zM25 40c-6.406 0-11.719-5.313-11.719-11.719s5.313-11.563 11.719-11.563 11.719 5.156 11.719 11.563-5.313 11.719-11.719 11.719zM71.719 58.281v-4.063c0-1.875-8.594-5.938-16.719-5.938-3.594 0-7.031 0.938-10 1.875 1.094 1.25 1.719 2.5 1.719 4.063v4.063h25zM41.719 58.281v-4.063c0-1.875-8.594-5.938-16.719-5.938s-16.719 4.063-16.719 5.938v4.063h33.438zM55 43.281c7.188 0 21.719 3.75 21.719 10.938v9.063h-73.438v-9.063c0-7.188 14.531-10.938 21.719-10.938 4.063 0 10.156 1.25 15 3.438 4.844-2.188 10.938-3.438 15-3.438z"></path>
</svg>
