<?xml version="1.0" encoding="utf-8"?>
<!-- Generated by IcoMoon.io -->
<!DOCTYPE svg PUBLIC "-//W3C//DTD SVG 1.1//EN" "http://www.w3.org/Graphics/SVG/1.1/DTD/svg11.dtd">
<svg version="1.1" xmlns="http://www.w3.org/2000/svg" xmlns:xlink="http://www.w3.org/1999/xlink" width="80" height="80" viewBox="0 0 80 80">
<path d="M63.281 68.281c2.813 0 5-2.188 5-5s-2.188-5-5-5-5 2.188-5 5 2.188 5 5 5zM75.625 65l3.594 2.656c0.313 0.313 0.313 0.781 0.156 1.094l-3.281 5.781c-0.156 0.313-0.781 0.625-1.094 0.469l-4.063-1.719c-0.781 0.625-1.875 1.094-2.813 1.563l-0.625 4.531c0 0.469-0.469 0.625-0.938 0.625h-6.563c-0.469 0-0.938-0.156-0.938-0.625l-0.625-4.531c-1.094-0.469-1.875-0.938-2.813-1.563l-4.063 1.719c-0.469 0.156-0.938-0.156-1.094-0.469l-3.281-5.781c-0.156-0.313-0.156-0.781 0.156-1.094l3.594-2.656c0-0.469-0.156-1.094-0.156-1.719s0.156-1.094 0.156-1.563l-3.594-2.813c-0.313-0.313-0.313-0.781-0.156-1.094l3.281-5.781c0.156-0.313 0.781-0.469 1.094-0.313l4.063 1.719c0.938-0.625 1.875-1.25 2.813-1.719l0.625-4.375c0-0.469 0.469-0.625 0.938-0.625h6.563c0.469 0 0.938 0.156 0.938 0.625l0.625 4.375c1.094 0.469 1.875 1.094 2.813 1.719l4.063-1.719c0.469-0.156 0.938 0 1.094 0.313l3.281 5.781c0.156 0.313 0.156 0.781-0.156 1.094l-3.594 2.813c0.156 0.469 0.156 0.938 0.156 1.563s-0.156 1.25-0.156 1.719zM63.281 38.281c-13.75 0-25 11.25-25 25 0 1.094 0.156 2.344 0.313 3.438h-38.594l66.719-66.719-0.156 38.594c-1.094-0.156-2.188-0.313-3.281-0.313z"></path>
</svg>
