<?xml version="1.0" encoding="utf-8"?>
<!-- Generated by IcoMoon.io -->
<!DOCTYPE svg PUBLIC "-//W3C//DTD SVG 1.1//EN" "http://www.w3.org/Graphics/SVG/1.1/DTD/svg11.dtd">
<svg version="1.1" xmlns="http://www.w3.org/2000/svg" xmlns:xlink="http://www.w3.org/1999/xlink" width="80" height="80" viewBox="0 0 80 80">
<path d="M46.719 43.281v-13.281c0-3.594-3.125-6.719-6.719-6.719s-6.719 3.125-6.719 6.719v13.281c0 3.594 3.125 6.719 6.719 6.719s6.719-3.125 6.719-6.719zM66.719 16.719c3.594 0 6.563 2.969 6.563 6.563v40c0 3.594-2.969 6.719-6.563 6.719h-23.438v-7.031c9.375-1.563 16.719-9.844 16.719-19.688h-6.719c0 7.344-5.938 13.438-13.281 13.438s-13.281-6.094-13.281-13.438h-6.719c0 9.844 7.344 18.125 16.719 19.688v7.031h-23.438c-3.594 0-6.563-3.125-6.563-6.719v-40c0-3.594 2.969-6.563 6.563-6.563h10.625l6.094-6.719h20l6.094 6.719h10.625z"></path>
</svg>
