<?xml version="1.0" encoding="utf-8"?>
<!-- Generated by IcoMoon.io -->
<!DOCTYPE svg PUBLIC "-//W3C//DTD SVG 1.1//EN" "http://www.w3.org/Graphics/SVG/1.1/DTD/svg11.dtd">
<svg version="1.1" xmlns="http://www.w3.org/2000/svg" xmlns:xlink="http://www.w3.org/1999/xlink" width="80" height="80" viewBox="0 0 80 80">
<path d="M60 53.281v-2.969c0-6.719-13.281-10.313-20-10.313s-20 3.594-20 10.313v2.969h40zM40 17.656c-5 0-9.063 4.063-9.063 9.063s4.063 8.906 9.063 8.906 9.063-3.906 9.063-8.906-4.063-9.063-9.063-9.063zM63.281 6.719c3.594 0 6.719 2.969 6.719 6.563v46.719c0 3.594-3.125 6.719-6.719 6.719h-13.281l-10 10-10-10h-13.281c-3.75 0-6.719-3.125-6.719-6.719v-46.719c0-3.594 2.969-6.563 6.719-6.563h46.563z"></path>
</svg>
