<?xml version="1.0" encoding="utf-8"?>
<!-- Generated by IcoMoon.io -->
<!DOCTYPE svg PUBLIC "-//W3C//DTD SVG 1.1//EN" "http://www.w3.org/Graphics/SVG/1.1/DTD/svg11.dtd">
<svg version="1.1" xmlns="http://www.w3.org/2000/svg" xmlns:xlink="http://www.w3.org/1999/xlink" width="80" height="80" viewBox="0 0 80 80">
<path d="M40 43.281c8.906 0 26.719 4.531 26.719 13.438v10h-53.438v-10c0-8.906 17.813-13.438 26.719-13.438zM40 13.281c7.344 0 13.281 6.094 13.281 13.438s-5.938 13.281-13.281 13.281-13.281-5.938-13.281-13.281 5.938-13.438 13.281-13.438zM40 49.688c-9.844 0-20.313 4.844-20.313 7.031v3.594h40.625v-3.594c0-2.188-10.469-7.031-20.313-7.031zM40 19.688c-3.906 0-7.031 3.125-7.031 7.031s3.125 6.875 7.031 6.875 7.031-2.969 7.031-6.875-3.125-7.031-7.031-7.031z"></path>
</svg>
