<?xml version="1.0" encoding="utf-8"?>
<!-- Generated by IcoMoon.io -->
<!DOCTYPE svg PUBLIC "-//W3C//DTD SVG 1.1//EN" "http://www.w3.org/Graphics/SVG/1.1/DTD/svg11.dtd">
<svg version="1.1" xmlns="http://www.w3.org/2000/svg" xmlns:xlink="http://www.w3.org/1999/xlink" width="80" height="80" viewBox="0 0 80 80">
<path d="M40 46.719c5.625 0 10.469-2.813 13.281-7.188 0-4.375-8.906-6.875-13.281-6.875s-13.281 2.5-13.281 6.875c2.813 4.375 7.656 7.188 13.281 7.188zM40 13.281c-3.594 0-6.719 3.125-6.719 6.719 0 3.75 3.125 6.719 6.719 6.719s6.719-2.969 6.719-6.719c0-3.594-3.125-6.719-6.719-6.719zM40 6.719c12.813 0 23.281 10.469 23.281 23.281 0 17.5-23.281 43.281-23.281 43.281s-23.281-25.781-23.281-43.281c0-12.813 10.469-23.281 23.281-23.281z"></path>
</svg>
