<?xml version="1.0" encoding="utf-8"?>
<!-- Generated by IcoMoon.io -->
<!DOCTYPE svg PUBLIC "-//W3C//DTD SVG 1.1//EN" "http://www.w3.org/Graphics/SVG/1.1/DTD/svg11.dtd">
<svg version="1.1" xmlns="http://www.w3.org/2000/svg" xmlns:xlink="http://www.w3.org/1999/xlink" width="80" height="80" viewBox="0 0 80 80">
<path d="M57.813 49.531c4.375 4.375 9.844 9.063 8.75 15.938-0.938 3.438-3.438 6.875-7.813 7.813-2.5 0.469-10.156-1.406-18.438-1.406h-0.625c-8.281 0-15.938 1.875-18.438 1.406-4.375-0.938-6.875-4.375-7.813-7.813-0.938-6.719 4.375-11.563 8.75-15.938 2.969-3.438 5.313-6.25 8.281-9.688 1.563-1.875 3.438-3.594 5.781-4.375 0.313-0.156 0.781-0.313 1.094-0.313 0.938-0.156 1.719-0.156 2.656-0.156s1.875 0 2.656 0.156c0.313 0 0.781 0.156 1.094 0.313 2.344 0.781 4.219 2.5 5.781 4.375 2.969 3.438 5.313 6.25 8.281 9.688zM56.719 31.719c0-4.531 3.75-8.438 8.281-8.438s8.281 3.906 8.281 8.438-3.75 8.281-8.281 8.281-8.281-3.75-8.281-8.281zM41.719 18.281c0-4.531 3.75-8.281 8.281-8.281s8.281 3.75 8.281 8.281-3.75 8.438-8.281 8.438-8.281-3.906-8.281-8.438zM21.719 18.281c0-4.531 3.75-8.281 8.281-8.281s8.281 3.75 8.281 8.281-3.75 8.438-8.281 8.438-8.281-3.906-8.281-8.438zM6.719 31.719c0-4.531 3.75-8.438 8.281-8.438s8.281 3.906 8.281 8.438-3.75 8.281-8.281 8.281-8.281-3.75-8.281-8.281z"></path>
</svg>
