<?xml version="1.0" encoding="utf-8"?>
<!-- Generated by IcoMoon.io -->
<!DOCTYPE svg PUBLIC "-//W3C//DTD SVG 1.1//EN" "http://www.w3.org/Graphics/SVG/1.1/DTD/svg11.dtd">
<svg version="1.1" xmlns="http://www.w3.org/2000/svg" xmlns:xlink="http://www.w3.org/1999/xlink" width="80" height="80" viewBox="0 0 80 80">
<path d="M76.719 26.719c1.875 0 3.281 1.406 3.281 3.281v33.281c0 1.875-1.406 3.438-3.281 3.438h-0.625l-10-10h7.188v-23.438h-13.281v17.344l-6.719-6.719v-13.906c0-1.875 1.563-3.281 3.438-3.281h20zM13.281 20.938v35.781h35.781zM6.406 5.469c21.579 21.598 43.123 43.232 64.688 64.844l-4.219 4.219-7.813-7.813h-59.063v-10h6.719v-36.719c0-1.563 0.625-3.125 1.563-4.219l-6.094-6.094zM73.281 20h-43.906l-6.719-6.719h50.625v6.719z"></path>
</svg>
