<?xml version="1.0" encoding="utf-8"?>
<!-- Generated by IcoMoon.io -->
<!DOCTYPE svg PUBLIC "-//W3C//DTD SVG 1.1//EN" "http://www.w3.org/Graphics/SVG/1.1/DTD/svg11.dtd">
<svg version="1.1" xmlns="http://www.w3.org/2000/svg" xmlns:xlink="http://www.w3.org/1999/xlink" width="80" height="80" viewBox="0 0 80 80">
<path d="M64.063 13.281v-1.563c0-3.125-2.656-5.781-5.781-5.781s-5.625 2.656-5.625 5.781v1.563h11.406zM66.719 13.281c1.875 0 3.281 1.563 3.281 3.438v13.281c0 1.875-1.406 3.281-3.281 3.281h-16.719c-1.875 0-3.281-1.406-3.281-3.281v-13.281c0-1.875 1.406-3.438 3.281-3.438v-1.563c0-4.531 3.75-8.438 8.281-8.438s8.438 3.906 8.438 8.438v1.563zM66.719 51.719c1.875 0 3.281 1.406 3.281 3.281v11.719c0 1.875-1.406 3.281-3.281 3.281-31.25 0-56.719-25.469-56.719-56.719 0-1.875 1.406-3.281 3.281-3.281h11.719c1.875 0 3.281 1.406 3.281 3.281 0 4.219 0.625 8.125 1.875 11.875 0.313 1.094 0.156 2.5-0.781 3.438l-7.344 7.344c4.844 9.531 12.656 17.188 22.031 22.031l7.344-7.344c0.938-0.938 2.344-1.094 3.438-0.781 3.75 1.25 7.656 1.875 11.875 1.875z"></path>
</svg>
