<?xml version="1.0" encoding="utf-8"?>
<!-- Generated by IcoMoon.io -->
<!DOCTYPE svg PUBLIC "-//W3C//DTD SVG 1.1//EN" "http://www.w3.org/Graphics/SVG/1.1/DTD/svg11.dtd">
<svg version="1.1" xmlns="http://www.w3.org/2000/svg" xmlns:xlink="http://www.w3.org/1999/xlink" width="80" height="80" viewBox="0 0 80 80">
<path d="M63.281 3.281c3.594 0 6.719 3.125 6.719 6.719v60c0 3.594-3.125 6.719-6.719 6.719h-33.281c-3.594 0-6.719-3.125-6.719-6.719v-10h6.719v6.719h33.281v-53.438h-33.281v6.719h-6.719v-10c0-3.594 3.125-6.719 6.719-6.719h33.281zM26.719 46.719c3.594 0 6.563-3.125 6.563-6.719s-2.969-6.719-6.563-6.719-6.719 3.125-6.719 6.719 3.125 6.719 6.719 6.719zM39.375 41.719l3.594 2.969c0.313 0.313 0.625 0.625 0.313 0.938l-3.281 5.781c-0.313 0.313-0.625 0.313-0.938 0.313l-4.375-1.719c-0.938 0.625-2.031 1.406-2.969 1.719l-0.781 4.219c-0.313 0.313-0.625 0.781-0.938 0.781h-6.719c-0.313 0-0.938-0.469-0.625-0.781l-0.625-4.219c-0.938-0.313-2.031-1.094-2.969-1.719l-4.688 1.406c-0.313 0.313-0.781-0.156-1.094-0.469l-3.281-5.625c0-0.313 0-0.625 0.313-1.25l3.75-2.656v-3.438l-3.75-2.656c-0.313-0.313-0.625-0.625-0.313-0.938l3.281-5.781c0.313-0.313 0.781-0.313 1.094-0.313l4.219 1.719c0.938-0.625 2.188-1.406 3.125-1.719l0.625-4.219c0.313-0.313 0.625-0.781 0.938-0.781h6.719c0.625 0 0.938 0.469 0.938 0.781l0.781 4.219c0.938 0.313 2.031 1.094 2.969 1.719l4.375-1.406c0.313-0.313 0.625 0.156 0.938 0.469l3.281 5.625c0 0.313 0 0.625-0.313 0.938l-3.594 2.656v3.438z"></path>
</svg>
