<?xml version="1.0" encoding="utf-8"?>
<!-- Generated by IcoMoon.io -->
<!DOCTYPE svg PUBLIC "-//W3C//DTD SVG 1.1//EN" "http://www.w3.org/Graphics/SVG/1.1/DTD/svg11.dtd">
<svg version="1.1" xmlns="http://www.w3.org/2000/svg" xmlns:xlink="http://www.w3.org/1999/xlink" width="80" height="80" viewBox="0 0 80 80">
<path d="M31.719 36.719v-5c0-2.656-2.344-4.375-5-4.375s-5 1.719-5 4.375v5h10zM35.938 36.719c2.031 0 4.063 1.875 4.063 4.219v11.719c0 2.031-2.031 4.063-4.375 4.063h-18.281c-2.031 0-4.063-2.031-4.063-4.375v-11.719c0-2.031 2.031-3.906 4.063-3.906v-5c0-4.688 4.688-8.438 9.375-8.438s9.219 3.75 9.219 8.438v5zM63.281 3.281c3.594 0 6.719 3.125 6.719 6.719v60c0 3.594-3.125 6.719-6.719 6.719h-33.281c-3.594 0-6.719-3.125-6.719-6.719v-10h6.719v6.719h33.281v-53.438h-33.281v6.719h-6.719v-10c0-3.594 3.125-6.719 6.719-6.719h33.281z"></path>
</svg>
