<?xml version="1.0" encoding="utf-8"?>
<!-- Generated by IcoMoon.io -->
<!DOCTYPE svg PUBLIC "-//W3C//DTD SVG 1.1//EN" "http://www.w3.org/Graphics/SVG/1.1/DTD/svg11.dtd">
<svg version="1.1" xmlns="http://www.w3.org/2000/svg" xmlns:xlink="http://www.w3.org/1999/xlink" width="80" height="80" viewBox="0 0 80 80">
<path d="M46.719 66.719v-53.438h-33.438v53.438h33.438zM46.719 3.281c3.594 0 6.563 3.125 6.563 6.719v60c0 3.594-2.969 6.719-6.563 6.719h-33.438c-3.594 0-6.563-3.125-6.563-6.719v-60c0-3.594 2.969-6.719 6.563-6.719h33.438zM60 32.656c4.063 4.375 4.063 10.313 0 14.375l-3.281-3.438c1.719-2.344 1.719-5.313 0-7.656zM67.031 25.625c8.281 7.969 8.281 20.781 0 28.438l-3.438-3.438c5.938-6.406 5.938-15.625 0-21.563z"></path>
</svg>
