<?xml version="1.0" encoding="utf-8"?>
<!-- Generated by IcoMoon.io -->
<!DOCTYPE svg PUBLIC "-//W3C//DTD SVG 1.1//EN" "http://www.w3.org/Graphics/SVG/1.1/DTD/svg11.dtd">
<svg version="1.1" xmlns="http://www.w3.org/2000/svg" xmlns:xlink="http://www.w3.org/1999/xlink" width="80" height="80" viewBox="0 0 80 80">
<path d="M50 40c0-5.469-4.531-10-10-10v-6.719c9.219 0 16.719 7.5 16.719 16.719h-6.719zM63.281 40c0-12.969-10.313-23.281-23.281-23.281v-6.719c16.563 0 30 13.438 30 30h-6.719zM66.719 51.719c1.875 0 3.281 1.406 3.281 3.281v11.719c0 1.875-1.406 3.281-3.281 3.281-31.25 0-56.719-25.469-56.719-56.719 0-1.875 1.406-3.281 3.281-3.281h11.719c1.875 0 3.281 1.406 3.281 3.281 0 4.219 0.625 8.125 1.875 11.875 0.313 1.094 0.156 2.5-0.781 3.438l-7.344 7.344c4.844 9.531 12.656 17.188 22.031 22.031l7.344-7.344c0.938-0.938 2.344-1.094 3.438-0.781 3.75 1.25 7.656 1.875 11.875 1.875z"></path>
</svg>
