<?xml version="1.0" encoding="utf-8"?>
<!-- Generated by IcoMoon.io -->
<!DOCTYPE svg PUBLIC "-//W3C//DTD SVG 1.1//EN" "http://www.w3.org/Graphics/SVG/1.1/DTD/svg11.dtd">
<svg version="1.1" xmlns="http://www.w3.org/2000/svg" xmlns:xlink="http://www.w3.org/1999/xlink" width="80" height="80" viewBox="0 0 80 80">
<path d="M63.281 3.281c3.594 0 6.719 3.125 6.719 6.719v60c0 3.594-3.125 6.719-6.719 6.719h-33.281c-3.594 0-6.719-3.125-6.719-6.719v-10h6.719v6.719h33.281v-53.438h-33.281v6.719h-6.719v-10c0-3.594 3.125-6.719 6.719-6.719h33.281zM43.281 27.344l-13.281 13.281 13.281 13.438-3.281 3.281-13.281-13.281-13.438 13.281-3.281-3.281 13.281-13.438-13.281-13.281 3.281-3.281 13.438 13.281 13.281-13.281z"></path>
</svg>
