<?xml version="1.0" encoding="utf-8"?>
<!-- Generated by IcoMoon.io -->
<!DOCTYPE svg PUBLIC "-//W3C//DTD SVG 1.1//EN" "http://www.w3.org/Graphics/SVG/1.1/DTD/svg11.dtd">
<svg version="1.1" xmlns="http://www.w3.org/2000/svg" xmlns:xlink="http://www.w3.org/1999/xlink" width="80" height="80" viewBox="0 0 80 80">
<path d="M44.219 35.781l9.063 4.219-9.063 4.219-4.219 9.063-4.219-9.063-9.063-4.219 9.063-4.219 4.219-9.063zM56.719 33.281l-3.125-6.875-6.875-3.125 6.875-3.125 3.125-6.875 3.125 6.875 6.875 3.125-6.875 3.125zM63.438 33.281h6.563v30c0 3.594-2.969 6.719-6.563 6.719h-46.719c-3.594 0-6.719-3.125-6.719-6.719v-46.563c0-3.594 3.125-6.719 6.719-6.719h30v6.719h-30v46.563h46.719v-30z"></path>
</svg>
