<?xml version="1.0" encoding="utf-8"?>
<!-- Generated by IcoMoon.io -->
<!DOCTYPE svg PUBLIC "-//W3C//DTD SVG 1.1//EN" "http://www.w3.org/Graphics/SVG/1.1/DTD/svg11.dtd">
<svg version="1.1" xmlns="http://www.w3.org/2000/svg" xmlns:xlink="http://www.w3.org/1999/xlink" width="80" height="80" viewBox="0 0 80 80">
<path d="M10 63.281h33.281l-10.625-14.219-8.281 10.781-6.094-7.188zM3.281 36.719h46.719v33.281h-40c-3.594 0-6.719-3.125-6.719-6.719v-26.563zM16.719 10h6.563v6.719h-6.563v-6.719zM30 10h6.719v6.719h-6.719v-6.719zM10 10v6.719h-6.719c0-3.281 3.438-6.719 6.719-6.719zM56.719 63.281h6.563v6.719h-6.563v-6.719zM56.719 10h6.563v6.719h-6.563v-6.719zM3.281 23.281h6.719v6.719h-6.719v-6.719zM70 10c3.281 0 6.719 3.438 6.719 6.719h-6.719v-6.719zM70 23.281h6.719v6.719h-6.719v-6.719zM43.281 10h6.719v6.719h-6.719v-6.719zM76.719 63.281c0 3.281-3.438 6.719-6.719 6.719v-6.719h6.719zM70 36.719h6.719v6.563h-6.719v-6.563zM70 50h6.719v6.719h-6.719v-6.719z"></path>
</svg>
