<?xml version="1.0" encoding="utf-8"?>
<!-- Generated by IcoMoon.io -->
<!DOCTYPE svg PUBLIC "-//W3C//DTD SVG 1.1//EN" "http://www.w3.org/Graphics/SVG/1.1/DTD/svg11.dtd">
<svg version="1.1" xmlns="http://www.w3.org/2000/svg" xmlns:xlink="http://www.w3.org/1999/xlink" width="80" height="80" viewBox="0 0 80 80">
<path d="M40 56.719c9.219 0 16.719-7.5 16.719-16.719s-7.5-16.719-16.719-16.719-16.719 7.5-16.719 16.719 7.5 16.719 16.719 16.719zM30 6.719h20l6.094 6.563h10.625c3.594 0 6.563 3.125 6.563 6.719v40c0 3.594-2.969 6.719-6.563 6.719h-53.438c-3.594 0-6.563-3.125-6.563-6.719v-40c0-3.594 2.969-6.719 6.563-6.719h10.625zM29.375 40c0-5.938 4.688-10.625 10.625-10.625s10.625 4.688 10.625 10.625-4.688 10.625-10.625 10.625-10.625-4.688-10.625-10.625z"></path>
</svg>
