<?xml version="1.0" encoding="utf-8"?>
<!-- Generated by IcoMoon.io -->
<!DOCTYPE svg PUBLIC "-//W3C//DTD SVG 1.1//EN" "http://www.w3.org/Graphics/SVG/1.1/DTD/svg11.dtd">
<svg version="1.1" xmlns="http://www.w3.org/2000/svg" xmlns:xlink="http://www.w3.org/1999/xlink" width="80" height="80" viewBox="0 0 80 80">
<path d="M23.281 10v6.719h-6.563v-6.719h6.563zM36.719 10v6.719h-6.719v-6.719h6.719zM10 36.719v6.563h-6.719v-6.563h6.719zM10 10v6.719h-6.719c0-3.281 3.438-6.719 6.719-6.719zM63.281 63.281v6.719h-6.563v-6.719h6.563zM63.281 10v6.719h-6.563v-6.719h6.563zM50 63.281v6.719h-6.719v-6.719h6.719zM10 23.281v6.719h-6.719v-6.719h6.719zM10 70c-3.594 0-6.719-3.125-6.719-6.719v-13.281h33.438v20h-26.719zM70 10c3.281 0 6.719 3.438 6.719 6.719h-6.719v-6.719zM76.719 23.281v6.719h-6.719v-6.719h6.719zM50 10v6.719h-6.719v-6.719h6.719zM76.719 63.281c0 3.281-3.438 6.719-6.719 6.719v-6.719h6.719zM76.719 36.719v6.563h-6.719v-6.563h6.719zM76.719 50v6.719h-6.719v-6.719h6.719z"></path>
</svg>
