<?xml version="1.0" encoding="utf-8"?>
<!-- Generated by IcoMoon.io -->
<!DOCTYPE svg PUBLIC "-//W3C//DTD SVG 1.1//EN" "http://www.w3.org/Graphics/SVG/1.1/DTD/svg11.dtd">
<svg version="1.1" xmlns="http://www.w3.org/2000/svg" xmlns:xlink="http://www.w3.org/1999/xlink" width="80" height="80" viewBox="0 0 80 80">
<path d="M46.719 38.281v-10h3.281v10h-3.281zM13.281 20v46.719h46.719v6.563h-46.719c-3.594 0-6.563-2.969-6.563-6.563v-46.719h6.563zM30 31.719v-3.438h3.281v3.438h-3.281zM68.281 28.281v-5h-10v20h5v-6.563h5v-5h-5v-3.438h5zM55 38.281v-10c0-2.813-2.188-5-5-5h-8.281v20h8.281c2.813 0 5-2.188 5-5zM38.281 31.719v-3.438c0-2.813-2.188-5-5-5h-8.281v20h5v-6.563h3.281c2.813 0 5-2.188 5-5zM66.719 6.719c3.594 0 6.563 2.969 6.563 6.563v40c0 3.594-2.969 6.719-6.563 6.719h-40c-3.594 0-6.719-3.125-6.719-6.719v-40c0-3.594 3.125-6.563 6.719-6.563h40z"></path>
</svg>
