<?xml version="1.0" encoding="utf-8"?>
<!-- Generated by IcoMoon.io -->
<!DOCTYPE svg PUBLIC "-//W3C//DTD SVG 1.1//EN" "http://www.w3.org/Graphics/SVG/1.1/DTD/svg11.dtd">
<svg version="1.1" xmlns="http://www.w3.org/2000/svg" xmlns:xlink="http://www.w3.org/1999/xlink" width="80" height="80" viewBox="0 0 80 80">
<path d="M40 0c-22.063 0-40 17.938-40 40s17.938 40 40 40 40-17.938 40-40-17.938-40-40-40zM40 74.656c-3.578 0-7.016-0.547-10.266-1.547 1.406-2.297 3.531-6.078 4.313-9.078 0.422-1.625 2.156-8.234 2.156-8.234 1.125 2.156 4.438 3.984 7.938 3.984 10.453 0 17.984-9.609 17.984-21.563 0-11.453-9.344-20.016-21.359-20.016-14.953 0-22.891 10.047-22.891 20.969 0 5.078 2.703 11.406 7.031 13.422 0.656 0.313 1 0.172 1.156-0.469 0.109-0.484 0.703-2.828 0.969-3.937 0.078-0.344 0.047-0.656-0.234-1-1.437-1.734-2.578-4.938-2.578-7.906 0-7.641 5.781-15.047 15.641-15.047 8.516 0 14.469 5.797 14.469 14.094 0 9.375-4.734 15.875-10.891 15.875-3.406 0-5.953-2.813-5.125-6.266 0.984-4.125 2.875-8.563 2.875-11.531 0-2.656-1.422-4.875-4.391-4.875-3.484 0-6.266 3.594-6.266 8.422 0 3.063 1.031 5.141 1.031 5.141s-3.438 14.516-4.063 17.219c-0.703 3-0.422 7.203-0.125 9.938-12.891-5.031-22.031-17.563-22.031-32.25 0-19.141 15.516-34.656 34.656-34.656s34.656 15.516 34.656 34.656c0 19.141-15.516 34.656-34.656 34.656z"></path>
</svg>
