<?xml version="1.0" encoding="utf-8"?>
<!-- Generated by IcoMoon.io -->
<!DOCTYPE svg PUBLIC "-//W3C//DTD SVG 1.1//EN" "http://www.w3.org/Graphics/SVG/1.1/DTD/svg11.dtd">
<svg version="1.1" xmlns="http://www.w3.org/2000/svg" xmlns:xlink="http://www.w3.org/1999/xlink" width="80" height="80" viewBox="0 0 80 80">
<path d="M40 5.344c-19.141 0-34.656 15.516-34.656 34.656 0 14.688 9.141 27.219 22.031 32.266-0.297-2.734-0.578-6.953 0.125-9.938 0.625-2.703 4.063-17.219 4.063-17.219s-1.031-2.078-1.031-5.141c0-4.813 2.797-8.422 6.266-8.422 2.953 0 4.391 2.219 4.391 4.875 0 2.969-1.891 7.422-2.875 11.531-0.828 3.453 1.719 6.266 5.125 6.266 6.156 0 10.891-6.5 10.891-15.875 0-8.297-5.969-14.094-14.469-14.094-9.859 0-15.641 7.391-15.641 15.047 0 2.984 1.141 6.172 2.578 7.906 0.281 0.344 0.328 0.641 0.234 1-0.266 1.094-0.844 3.453-0.969 3.938-0.156 0.641-0.5 0.766-1.156 0.469-4.328-2.016-7.031-8.344-7.031-13.422 0-10.938 7.938-20.969 22.891-20.969 12.016 0 21.359 8.562 21.359 20.016 0 11.938-7.531 21.563-17.984 21.563-3.516 0-6.813-1.828-7.938-3.984 0 0-1.734 6.609-2.156 8.234-0.781 3.016-2.891 6.781-4.313 9.078 3.25 1 6.687 1.547 10.266 1.547 19.141 0 34.656-15.516 34.656-34.656 0-19.156-15.516-34.672-34.656-34.672z"></path>
</svg>
