<?xml version="1.0" encoding="utf-8"?>
<!-- Generated by IcoMoon.io -->
<!DOCTYPE svg PUBLIC "-//W3C//DTD SVG 1.1//EN" "http://www.w3.org/Graphics/SVG/1.1/DTD/svg11.dtd">
<svg version="1.1" xmlns="http://www.w3.org/2000/svg" xmlns:xlink="http://www.w3.org/1999/xlink" width="80" height="80" viewBox="0 0 80 80">
<path d="M80 40c0-22.091-17.909-40-40-40s-40 17.909-40 40c0 17.192 10.847 31.849 26.069 37.505l-1.069 2.495h30l-1.069-2.495c15.223-5.657 26.069-20.314 26.069-37.505zM38.030 49.596c-1.782-0.765-3.030-2.534-3.030-4.596 0-2.761 2.239-5 5-5s5 2.239 5 5c0 2.062-1.248 3.832-3.030 4.596l-1.97-4.596-1.97 4.596zM42.052 49.788c4.538-0.947 7.948-4.969 7.948-9.788 0-5.523-4.477-10-10-10s-10 4.477-10 10c0 4.82 3.411 8.838 7.95 9.783l-5.83 13.603c-7.127-3.059-12.12-10.139-12.12-18.387 0-11.046 8.954-20.938 20-20.938s20 9.892 20 20.938c0 8.247-4.993 15.328-12.12 18.387l-5.828-13.598zM53.785 77.165l-5.775-13.475c9.879-3.339 16.99-12.683 16.99-23.689 0-13.807-11.193-25-25-25s-25 11.193-25 25c0 11.006 7.112 20.35 16.99 23.689l-5.775 13.475c-12.468-5.351-21.202-17.737-21.202-32.165 0-19.323 15.664-35.925 34.987-35.925s34.987 16.602 34.987 35.925c0 14.428-8.734 26.814-21.202 32.165z"></path>
</svg>
