<?xml version="1.0" encoding="utf-8"?>
<!-- Generated by IcoMoon.io -->
<!DOCTYPE svg PUBLIC "-//W3C//DTD SVG 1.1//EN" "http://www.w3.org/Graphics/SVG/1.1/DTD/svg11.dtd">
<svg version="1.1" xmlns="http://www.w3.org/2000/svg" xmlns:xlink="http://www.w3.org/1999/xlink" width="80" height="80" viewBox="0 0 80 80">
<path d="M47.5 75h-12.5c-4.135 0-7.5-3.365-7.5-7.5 0-1.336 0.351-2.592 0.966-3.68-2.083-1.334-3.466-3.669-3.466-6.32 0-1.919 0.725-3.672 1.914-5-1.19-1.328-1.914-3.081-1.914-5 0-0.876 0.151-1.718 0.428-2.5h-17.928c-4.135 0-7.5-3.365-7.5-7.5s3.365-7.5 7.5-7.5h30.834l-7.331-13.751c-0.656-1.136-1.003-2.432-1.003-3.749 0-4.136 3.365-7.5 7.5-7.5 2.060 0 3.981 0.818 5.408 2.304 0.019 0.019 0.037 0.039 0.055 0.059l17.037 18.685v-3.547c0-1.381 1.119-2.5 2.5-2.5h15c1.381 0 2.5 1.119 2.5 2.5v50c0 1.381-1.119 2.5-2.5 2.5h-15c-1.381 0-2.5-1.119-2.5-2.5v-3.455l-11.382 5.691c-0.347 0.174-0.73 0.264-1.118 0.264zM67.5 70c1.381 0 2.5-1.119 2.5-2.5s-1.119-2.5-2.5-2.5-2.5 1.119-2.5 2.5 1.119 2.5 2.5 2.5zM46.91 70l13.090-6.545v-29.986l-20.716-22.72c-0.474-0.483-1.106-0.748-1.784-0.748-1.378 0-2.5 1.122-2.5 2.5 0 0.426 0.102 0.829 0.304 1.197 0.025 0.041 0.049 0.084 0.072 0.127l9.329 17.5c0.413 0.775 0.39 1.71-0.062 2.462s-1.265 1.214-2.144 1.214h-35c-1.378 0-2.5 1.122-2.5 2.5s1.122 2.5 2.5 2.5h25c1.381 0 2.5 1.119 2.5 2.5s-1.119 2.5-2.5 2.5c-1.378 0-2.5 1.122-2.5 2.5s1.122 2.5 2.5 2.5c1.381 0 2.5 1.119 2.5 2.5s-1.119 2.5-2.5 2.5c-1.378 0-2.5 1.122-2.5 2.5s1.122 2.5 2.5 2.5h2.5c1.381 0 2.5 1.119 2.5 2.5s-1.119 2.5-2.5 2.5c-1.378 0-2.5 1.122-2.5 2.5s1.122 2.5 2.5 2.5h11.91z"></path>
</svg>
