<?xml version="1.0" encoding="utf-8"?>
<!-- Generated by IcoMoon.io -->
<!DOCTYPE svg PUBLIC "-//W3C//DTD SVG 1.1//EN" "http://www.w3.org/Graphics/SVG/1.1/DTD/svg11.dtd">
<svg version="1.1" xmlns="http://www.w3.org/2000/svg" xmlns:xlink="http://www.w3.org/1999/xlink" width="80" height="80" viewBox="0 0 80 80">
<path d="M75 32.5v12.5c0 4.135-3.365 7.5-7.5 7.5-1.336 0-2.592-0.351-3.68-0.966-1.334 2.083-3.669 3.466-6.32 3.466-1.919 0-3.672-0.725-5-1.914-1.328 1.19-3.081 1.914-5 1.914-0.876 0-1.718-0.151-2.5-0.428v17.928c0 4.135-3.365 7.5-7.5 7.5s-7.5-3.365-7.5-7.5v-30.834l-13.751 7.331c-1.136 0.656-2.432 1.003-3.749 1.003-4.136 0-7.5-3.365-7.5-7.5 0-2.060 0.818-3.981 2.304-5.408 0.019-0.019 0.039-0.037 0.059-0.055l18.685-17.037h-3.547c-1.381 0-2.5-1.119-2.5-2.5v-15c0-1.381 1.119-2.5 2.5-2.5h50c1.381 0 2.5 1.119 2.5 2.5v15c0 1.381-1.119 2.5-2.5 2.5h-3.455l5.691 11.382c0.174 0.347 0.264 0.73 0.264 1.118zM70 12.5c0-1.381-1.119-2.5-2.5-2.5s-2.5 1.119-2.5 2.5 1.119 2.5 2.5 2.5 2.5-1.119 2.5-2.5zM70 33.090l-6.545-13.090h-29.986l-22.72 20.716c-0.483 0.474-0.748 1.106-0.748 1.784 0 1.378 1.122 2.5 2.5 2.5 0.426 0 0.829-0.102 1.197-0.304 0.041-0.025 0.084-0.049 0.127-0.072l17.5-9.329c0.775-0.413 1.71-0.39 2.462 0.063s1.214 1.265 1.214 2.143v35c0 1.378 1.122 2.5 2.5 2.5s2.5-1.122 2.5-2.5v-25c0-1.381 1.119-2.5 2.5-2.5s2.5 1.119 2.5 2.5c0 1.378 1.122 2.5 2.5 2.5s2.5-1.122 2.5-2.5c0-1.381 1.119-2.5 2.5-2.5s2.5 1.119 2.5 2.5c0 1.378 1.122 2.5 2.5 2.5s2.5-1.122 2.5-2.5v-2.5c0-1.381 1.119-2.5 2.5-2.5s2.5 1.119 2.5 2.5c0 1.378 1.122 2.5 2.5 2.5s2.5-1.122 2.5-2.5v-11.91z"></path>
</svg>
