<?xml version="1.0" encoding="utf-8"?>
<!-- Generated by IcoMoon.io -->
<!DOCTYPE svg PUBLIC "-//W3C//DTD SVG 1.1//EN" "http://www.w3.org/Graphics/SVG/1.1/DTD/svg11.dtd">
<svg version="1.1" xmlns="http://www.w3.org/2000/svg" xmlns:xlink="http://www.w3.org/1999/xlink" width="80" height="80" viewBox="0 0 80 80">
<path d="M46.719 18.281c0-4.531 3.75-8.281 8.281-8.281s8.281 3.75 8.281 8.281-3.75 8.438-8.281 8.438-8.281-3.906-8.281-8.438zM28.906 40c-1.875 0-2.656-0.469-3.906-1.25-0.625-0.469-1.406-0.781-2.5-1.25l10.781-10.781-3.281-3.438c-3.75-3.75-7.188-5-13.281-5v-8.281c8.281 0 13.125 1.563 18.281 6.719l21.406 21.25c-0.469 0.313-0.938 0.625-1.406 0.781-1.25 0.781-2.031 1.25-3.906 1.25s-2.5-0.469-3.75-1.25c-1.563-0.938-3.594-2.031-7.344-2.031s-5.781 1.094-7.344 2.031c-1.25 0.781-1.875 1.25-3.75 1.25zM73.281 55c-3.75 0-5.625-1.25-7.188-2.188-1.25-0.781-2.031-1.094-3.906-1.094s-2.5 0.313-3.75 1.094c-1.563 0.938-3.594 2.188-7.344 2.188s-5.625-1.25-7.188-2.188c-1.25-0.781-2.031-1.094-3.906-1.094s-2.5 0.313-3.75 1.094c-1.563 0.938-3.594 2.188-7.344 2.188s-5.625-1.25-7.188-2.188c-1.25-0.781-2.031-1.094-3.906-1.094s-2.5 0.313-3.75 1.094c-1.563 0.938-3.594 2.188-7.344 2.188v-6.719c1.875 0 2.5-0.313 3.75-1.094 1.563-0.938 3.594-2.188 7.344-2.188s5.625 1.25 7.188 2.188c1.25 0.781 2.031 1.094 3.906 1.094s2.5-0.313 3.75-1.094c1.563-0.938 3.594-2.188 7.344-2.188s5.625 1.25 7.188 2.188c1.25 0.781 2.031 1.094 3.906 1.094s2.5-0.313 3.75-1.094c1.563-0.938 3.594-2.188 7.344-2.188s5.625 1.25 7.188 2.188c1.25 0.781 2.031 1.094 3.906 1.094v6.719zM73.281 70c-3.75 0-5.625-1.25-7.188-2.188-1.25-0.781-2.031-1.094-3.906-1.094s-2.5 0.313-3.75 1.094c-1.563 0.938-3.594 2.188-7.344 2.188s-5.625-1.25-7.188-2.188c-1.25-0.781-2.031-1.094-3.906-1.094s-2.5 0.313-3.75 1.094c-1.563 0.938-3.594 2.188-7.344 2.188s-5.781-1.25-7.344-2.188c-1.25-0.781-1.875-1.094-3.75-1.094s-2.656 0.313-3.906 1.094c-1.563 0.938-3.438 2.188-7.188 2.188v-6.719c1.875 0 2.5-0.313 3.75-1.094 1.563-0.938 3.594-2.188 7.344-2.188s5.625 1.25 7.188 2.188c1.25 0.781 2.031 1.094 3.906 1.094s2.5-0.313 3.75-1.094c1.563-0.938 3.594-2.188 7.344-2.188s5.781 1.25 7.344 2.188c1.25 0.781 1.875 1.094 3.75 1.094s2.656-0.313 3.906-1.094c1.563-0.938 3.438-2.188 7.188-2.188s5.781 1.25 7.344 2.188c1.25 0.781 1.875 1.094 3.75 1.094v6.719z"></path>
</svg>
