<?xml version="1.0" encoding="utf-8"?>
<!-- Generated by IcoMoon.io -->
<!DOCTYPE svg PUBLIC "-//W3C//DTD SVG 1.1//EN" "http://www.w3.org/Graphics/SVG/1.1/DTD/svg11.dtd">
<svg version="1.1" xmlns="http://www.w3.org/2000/svg" xmlns:xlink="http://www.w3.org/1999/xlink" width="80" height="80" viewBox="0 0 80 80">
<path d="M10.938 8.281l3.281 3.438 55.781 55.781-4.219 4.219-25-25.156h-0.156l-0.625 0.156c-3.594 0-6.719-3.125-6.719-6.719l0.156-0.625-5.313-5.313c-0.938 1.875-1.406 3.75-1.406 5.938 0 5 2.656 9.219 6.563 11.563l-3.281 5.781c-5.938-3.438-10-10-10-17.344 0-4.063 1.094-7.656 3.125-10.781l-4.688-4.844c-3.125 4.375-5.156 9.688-5.156 15.625 0 9.844 5.313 18.438 13.281 23.125l-3.281 5.781c-10-5.781-16.563-16.563-16.563-28.906 0-7.656 2.5-14.844 6.875-20.469l-6.875-7.031zM40 13.281c-4.531 0-8.75 1.094-12.5 3.125l-4.844-4.844c5-3.125 10.938-4.844 17.344-4.844 18.438 0 33.281 14.844 33.281 33.281 0 6.406-1.719 12.344-4.844 17.344l-5-4.844c2.031-3.75 3.281-7.969 3.281-12.5 0-14.688-12.031-26.719-26.719-26.719zM58.594 47.5l-5.469-5.469c0.156-0.625 0.156-1.406 0.156-2.031 0-7.344-5.938-13.281-13.281-13.281-0.625 0-1.406 0-2.031 0.156l-5.469-5.469c2.344-0.938 4.844-1.406 7.5-1.406 11.094 0 20 8.906 20 20 0 2.656-0.469 5.156-1.406 7.5z"></path>
</svg>
