<?xml version="1.0" encoding="utf-8"?>
<!-- Generated by IcoMoon.io -->
<!DOCTYPE svg PUBLIC "-//W3C//DTD SVG 1.1//EN" "http://www.w3.org/Graphics/SVG/1.1/DTD/svg11.dtd">
<svg version="1.1" xmlns="http://www.w3.org/2000/svg" xmlns:xlink="http://www.w3.org/1999/xlink" width="80" height="80" viewBox="0 0 80 80">
<path d="M80 22.070l-7.071-7.070-13.965 13.965-7.93-7.93 13.965-13.965-7.070-7.070-13.965 13.965-8.965-8.965-6.768 6.768 40 40 6.767-6.767-8.965-8.965 13.965-13.965z"></path>
<path d="M62.034 52.64l-34.674-34.674c-7.486 8.977-15.978 22.848-10.109 34.782l-10.332 10.332c-2.431 2.431-2.431 6.408 0 8.839l1.161 1.161c2.431 2.431 6.408 2.431 8.839 0l10.332-10.332c11.935 5.87 25.806-2.622 34.783-10.109z"></path>
</svg>
