<?xml version="1.0" encoding="utf-8"?>
<!-- Generated by IcoMoon.io -->
<!DOCTYPE svg PUBLIC "-//W3C//DTD SVG 1.1//EN" "http://www.w3.org/Graphics/SVG/1.1/DTD/svg11.dtd">
<svg version="1.1" xmlns="http://www.w3.org/2000/svg" xmlns:xlink="http://www.w3.org/1999/xlink" width="100" height="80" viewBox="0 0 100 80">
<path d="M96.25 0h-30c-2.063 0-4.943 1.193-6.402 2.652l-37.197 37.197c-1.458 1.458-1.458 3.845 0 5.303l32.197 32.197c1.458 1.458 3.845 1.458 5.303 0l37.197-37.197c1.458-1.458 2.652-4.339 2.652-6.402v-30c0-2.063-1.688-3.75-3.75-3.75zM77.5 30c-4.142 0-7.5-3.358-7.5-7.5s3.358-7.5 7.5-7.5 7.5 3.358 7.5 7.5-3.358 7.5-7.5 7.5z"></path>
<path d="M10 42.5l42.5-42.5h-6.25c-2.063 0-4.943 1.193-6.402 2.652l-37.197 37.197c-1.458 1.458-1.458 3.845 0 5.303l32.197 32.197c1.458 1.458 3.845 1.458 5.303 0l2.348-2.348-32.5-32.5z"></path>
</svg>
