<?xml version="1.0" encoding="utf-8"?>
<!-- Generated by IcoMoon.io -->
<!DOCTYPE svg PUBLIC "-//W3C//DTD SVG 1.1//EN" "http://www.w3.org/Graphics/SVG/1.1/DTD/svg11.dtd">
<svg version="1.1" xmlns="http://www.w3.org/2000/svg" xmlns:xlink="http://www.w3.org/1999/xlink" width="80" height="80" viewBox="0 0 80 80">
<path d="M20 5h40v10h-40v-10z"></path>
<path d="M75 20h-70c-2.75 0-5 2.25-5 5v25c0 2.75 2.25 5 5 5h15v20h40v-20h15c2.75 0 5-2.25 5-5v-25c0-2.75-2.25-5-5-5zM10 35c-2.761 0-5-2.239-5-5s2.239-5 5-5 5 2.239 5 5-2.238 5-5 5zM55 70h-30v-25h30v25z"></path>
</svg>
