<?xml version="1.0" encoding="utf-8"?>
<!-- Generated by IcoMoon.io -->
<!DOCTYPE svg PUBLIC "-//W3C//DTD SVG 1.1//EN" "http://www.w3.org/Graphics/SVG/1.1/DTD/svg11.dtd">
<svg version="1.1" xmlns="http://www.w3.org/2000/svg" xmlns:xlink="http://www.w3.org/1999/xlink" width="80" height="80" viewBox="0 0 80 80">
<path d="M59.688 57.969c4.375-4.688 7.031-11.094 7.031-17.969 0-11.094-6.875-20.781-16.719-24.688v1.406c0 3.594-3.125 6.563-6.719 6.563h-6.563v6.719c0 1.875-1.563 3.281-3.438 3.281h-6.563v6.719h20c1.875 0 3.281 1.406 3.281 3.281v10h3.281c2.969 0 5.469 2.031 6.406 4.688zM36.719 66.406v-6.406c-3.594 0-6.719-3.125-6.719-6.719v-3.281l-15.938-15.938c-0.469 1.875-0.781 3.906-0.781 5.938 0 13.594 10.313 24.844 23.438 26.406zM40 6.719c18.438 0 33.281 14.844 33.281 33.281s-14.844 33.281-33.281 33.281-33.281-14.844-33.281-33.281 14.844-33.281 33.281-33.281z"></path>
</svg>
