<?xml version="1.0" encoding="utf-8"?>
<!-- Generated by IcoMoon.io -->
<!DOCTYPE svg PUBLIC "-//W3C//DTD SVG 1.1//EN" "http://www.w3.org/Graphics/SVG/1.1/DTD/svg11.dtd">
<svg version="1.1" xmlns="http://www.w3.org/2000/svg" xmlns:xlink="http://www.w3.org/1999/xlink" width="80" height="80" viewBox="0 0 80 80">
<path d="M25 5h-20v20h20v-20zM30 0v0 30h-30v-30h30zM10 10h10v10h-10zM75 5h-20v20h20v-20zM80 0v0 30h-30v-30h30zM60 10h10v10h-10zM25 55h-20v20h20v-20zM30 50v0 30h-30v-30h30zM10 60h10v10h-10zM35 0h5v5h-5zM40 5h5v5h-5zM35 10h5v5h-5zM40 15h5v5h-5zM35 20h5v5h-5zM40 25h5v5h-5zM35 30h5v5h-5zM35 40h5v5h-5zM40 45h5v5h-5zM35 50h5v5h-5zM40 55h5v5h-5zM35 60h5v5h-5zM40 65h5v5h-5zM35 70h5v5h-5zM40 75h5v5h-5zM75 40h5v5h-5zM5 40h5v5h-5zM10 35h5v5h-5zM0 35h5v5h-5zM20 35h5v5h-5zM25 40h5v5h-5zM30 35h5v5h-5zM45 40h5v5h-5zM50 35h5v5h-5zM55 40h5v5h-5zM60 35h5v5h-5zM65 40h5v5h-5zM70 35h5v5h-5zM75 50h5v5h-5zM45 50h5v5h-5zM50 45h5v5h-5zM55 50h5v5h-5zM65 50h5v5h-5zM70 45h5v5h-5zM75 60h5v5h-5zM45 60h5v5h-5zM50 55h5v5h-5zM60 55h5v5h-5zM65 60h5v5h-5zM70 55h5v5h-5zM75 70h5v5h-5zM50 65h5v5h-5zM55 70h5v5h-5zM60 65h5v5h-5zM65 70h5v5h-5zM50 75h5v5h-5zM60 75h5v5h-5zM70 75h5v5h-5z"></path>
</svg>
