<?xml version="1.0" encoding="utf-8"?>
<!-- Generated by IcoMoon.io -->
<!DOCTYPE svg PUBLIC "-//W3C//DTD SVG 1.1//EN" "http://www.w3.org/Graphics/SVG/1.1/DTD/svg11.dtd">
<svg version="1.1" xmlns="http://www.w3.org/2000/svg" xmlns:xlink="http://www.w3.org/1999/xlink" width="80" height="80" viewBox="0 0 80 80">
<path d="M80 60l-15 15-5-5 10-10-10-10 5-5zM43.281 33.281h10v6.719h-10v10h-6.563v-10h-10v-6.719h10v-10h6.563v10zM70 10c3.594 0 6.719 2.969 6.719 6.719v26.563h-6.719v-26.563h-60v40h50v6.563h-6.719v6.719h-26.563v-6.719h-16.719c-3.75 0-6.719-2.969-6.719-6.563v-40c0-3.75 2.969-6.719 6.719-6.719h60z"></path>
</svg>
