<?xml version="1.0" encoding="utf-8"?>
<!-- Generated by IcoMoon.io -->
<!DOCTYPE svg PUBLIC "-//W3C//DTD SVG 1.1//EN" "http://www.w3.org/Graphics/SVG/1.1/DTD/svg11.dtd">
<svg version="1.1" xmlns="http://www.w3.org/2000/svg" xmlns:xlink="http://www.w3.org/1999/xlink" width="80" height="80" viewBox="0 0 80 80">
<path d="M62.5 50c-9.665 0-17.5-7.835-17.5-17.5s7.835-17.5 17.5-17.5 17.5 7.835 17.5 17.5l0.078 2.5c0 19.33-15.67 35-35 35v-10c6.678 0 12.956-2.6 17.678-7.322 0.909-0.909 1.738-1.876 2.487-2.892-0.894 0.141-1.809 0.215-2.743 0.215zM17.5 50c-9.665 0-17.5-7.835-17.5-17.5s7.835-17.5 17.5-17.5 17.5 7.835 17.5 17.5l0.078 2.5c0 19.33-15.67 35-35 35v-10c6.678 0 12.956-2.6 17.678-7.322 0.909-0.909 1.739-1.876 2.487-2.892-0.894 0.141-1.809 0.215-2.743 0.215z"></path>
</svg>
