<?xml version="1.0" encoding="utf-8"?>
<!-- Generated by IcoMoon.io -->
<!DOCTYPE svg PUBLIC "-//W3C//DTD SVG 1.1//EN" "http://www.w3.org/Graphics/SVG/1.1/DTD/svg11.dtd">
<svg version="1.1" xmlns="http://www.w3.org/2000/svg" xmlns:xlink="http://www.w3.org/1999/xlink" width="80" height="80" viewBox="0 0 80 80">
<path d="M66.719 40v-13.281h-53.438v13.281h40v-6.719h6.719v6.719h6.719zM23.281 66.719c5.469 0 10-4.531 10-10s-4.531-10-10-10-10 4.531-10 10 4.531 10 10 10zM10.781 20.469l42.188-17.188 2.188 5.625-27.5 11.094h39.063c3.75 0 6.563 2.969 6.563 6.719v40c0 3.594-2.813 6.563-6.563 6.563h-53.438c-3.75 0-6.563-2.969-6.563-6.563v-40c0-2.813 1.563-5.313 4.063-6.25z"></path>
</svg>
