<?xml version="1.0" encoding="utf-8"?>
<!-- Generated by IcoMoon.io -->
<!DOCTYPE svg PUBLIC "-//W3C//DTD SVG 1.1//EN" "http://www.w3.org/Graphics/SVG/1.1/DTD/svg11.dtd">
<svg version="1.1" xmlns="http://www.w3.org/2000/svg" xmlns:xlink="http://www.w3.org/1999/xlink" width="80" height="80" viewBox="0 0 80 80">
<path d="M10 73.281v-66.563l5 5 5-5 5 5 5-5 5 5 5-5 5 5 5-5 5 5 5-5 5 5 5-5v66.563l-5-5-5 5-5-5-5 5-5-5-5 5-5-5-5 5-5-5-5 5-5-5zM60 30v-6.719h-40v6.719h40zM60 43.281v-6.563h-40v6.563h40zM60 56.719v-6.719h-40v6.719h40z"></path>
</svg>
