<?xml version="1.0" encoding="utf-8"?>
<!-- Generated by IcoMoon.io -->
<!DOCTYPE svg PUBLIC "-//W3C//DTD SVG 1.1//EN" "http://www.w3.org/Graphics/SVG/1.1/DTD/svg11.dtd">
<svg version="1.1" xmlns="http://www.w3.org/2000/svg" xmlns:xlink="http://www.w3.org/1999/xlink" width="80" height="80" viewBox="0 0 80 80">
<path d="M41.719 56.719v-2.5c0-5-10-7.5-15-7.5s-15 2.5-15 7.5v2.5h30zM26.719 25.781c-4.063 0-7.5 3.438-7.5 7.5s3.438 7.5 7.5 7.5 7.5-3.438 7.5-7.5-3.438-7.5-7.5-7.5zM46.719 16.719c1.875 0 3.281 1.406 3.281 3.281v40c0 1.875-1.406 3.281-3.281 3.281h-40c-1.875 0-3.438-1.406-3.438-3.281v-40c0-1.875 1.563-3.281 3.438-3.281h40zM56.719 63.281v-46.563h6.563v46.563h-6.563zM70 16.719h6.719v46.563h-6.719v-46.563z"></path>
</svg>
