<?xml version="1.0" encoding="utf-8"?>
<!-- Generated by IcoMoon.io -->
<!DOCTYPE svg PUBLIC "-//W3C//DTD SVG 1.1//EN" "http://www.w3.org/Graphics/SVG/1.1/DTD/svg11.dtd">
<svg version="1.1" xmlns="http://www.w3.org/2000/svg" xmlns:xlink="http://www.w3.org/1999/xlink" width="80" height="80" viewBox="0 0 80 80">
<path d="M66.875 6.719c12.969 13.438 12.969 33.594 0 46.563l-5.469-5.313c9.219-10.625 9.219-25.938 0-35.938zM55.938 17.813c6.719 7.344 6.719 17.5 0 24.219l-5.625-5.625c2.813-3.906 2.813-9.063 0-12.969zM30 50c8.906 0 26.719 4.375 26.719 13.281v6.719h-53.438v-6.719c0-8.906 17.813-13.281 26.719-13.281zM16.719 30c0-7.344 5.938-13.281 13.281-13.281s13.281 5.938 13.281 13.281-5.938 13.281-13.281 13.281-13.281-5.938-13.281-13.281z"></path>
</svg>
