<?xml version="1.0" encoding="utf-8"?>
<!-- Generated by IcoMoon.io -->
<!DOCTYPE svg PUBLIC "-//W3C//DTD SVG 1.1//EN" "http://www.w3.org/Graphics/SVG/1.1/DTD/svg11.dtd">
<svg version="1.1" xmlns="http://www.w3.org/2000/svg" xmlns:xlink="http://www.w3.org/1999/xlink" width="80" height="80" viewBox="0 0 80 80">
<path d="M20 50c0-2.761 2.239-5 5-5s5 2.239 5 5c0 2.761-2.239 5-5 5s-5-2.239-5-5zM50 50c0-2.761 2.239-5 5-5s5 2.239 5 5c0 2.761-2.239 5-5 5s-5-2.239-5-5zM50.243 60.686c1.288-1.015 3.154-0.793 4.169 0.495s0.793 3.155-0.495 4.169c-3.586 2.825-9.049 4.65-13.917 4.65s-10.332-1.825-13.918-4.65c-1.288-1.015-1.509-2.881-0.495-4.169s2.881-1.509 4.169-0.495c2.064 1.626 6.15 3.377 10.243 3.377s8.179-1.75 10.243-3.377zM80 40c0-5.523-4.477-10-10-10-3.759 0-7.031 2.076-8.738 5.142-5.14-2.812-11.403-4.629-18.225-5.047l5.967-13.4 11.421 3.297c1.028 2.917 3.806 5.009 7.075 5.009 4.142 0 7.5-3.358 7.5-7.5s-3.358-7.5-7.5-7.5c-2.856 0-5.339 1.597-6.606 3.946l-12.727-3.674c-1.424-0.411-2.933 0.291-3.535 1.645l-8.107 18.205c-6.651 0.468-12.755 2.267-17.784 5.018-1.708-3.066-4.982-5.141-8.741-5.141-5.523 0-10 4.477-10 10 0 4.087 2.453 7.598 5.967 9.149-0.63 1.877-0.967 3.836-0.967 5.851 0 13.807 15.67 25 35 25s35-11.193 35-25c0-2.015-0.336-3.974-0.966-5.85 3.513-1.551 5.966-5.063 5.966-9.15zM67.5 14.688c1.553 0 2.813 1.259 2.813 2.813s-1.259 2.813-2.813 2.813-2.813-1.259-2.813-2.813 1.259-2.813 2.813-2.813zM5 40c0-2.757 2.243-5 5-5 1.993 0 3.717 1.172 4.519 2.863-2.613 1.982-4.779 4.268-6.38 6.776-1.838-0.74-3.139-2.54-3.139-4.639zM40 74.063c-16.051 0-29.063-8.535-29.063-19.063s13.012-19.063 29.063-19.063c16.051 0 29.063 8.535 29.063 19.063s-13.012 19.063-29.063 19.063zM71.861 44.639c-1.602-2.509-3.767-4.795-6.38-6.776 0.803-1.691 2.526-2.863 4.519-2.863 2.757 0 5 2.243 5 5 0 2.099-1.301 3.9-3.139 4.639z"></path>
</svg>
