<?xml version="1.0" encoding="utf-8"?>
<!-- Generated by IcoMoon.io -->
<!DOCTYPE svg PUBLIC "-//W3C//DTD SVG 1.1//EN" "http://www.w3.org/Graphics/SVG/1.1/DTD/svg11.dtd">
<svg version="1.1" xmlns="http://www.w3.org/2000/svg" xmlns:xlink="http://www.w3.org/1999/xlink" width="80" height="80" viewBox="0 0 80 80">
<path d="M66.719 46.719v-20h-17.031l7.031 9.375-5.469 3.906c-3.756-5.098-7.55-10.159-11.25-15.313-3.7 5.154-7.494 10.214-11.25 15.313l-5.469-3.906 7.031-9.375h-17.031v20h53.438zM66.719 63.281v-6.563h-53.438v6.563h53.438zM30 13.281c-1.875 0-3.281 1.563-3.281 3.438s1.406 3.281 3.281 3.281 3.281-1.406 3.281-3.281-1.406-3.438-3.281-3.438zM50 13.281c-1.875 0-3.281 1.563-3.281 3.438s1.406 3.281 3.281 3.281 3.281-1.406 3.281-3.281-1.406-3.438-3.281-3.438zM66.719 20c3.75 0 6.563 2.969 6.563 6.719v36.563c0 3.75-2.813 6.719-6.563 6.719h-53.438c-3.75 0-6.563-2.969-6.563-6.719v-36.563c0-3.75 2.813-6.719 6.563-6.719h7.344c-0.313-1.094-0.625-2.188-0.625-3.281 0-5.469 4.531-10 10-10 3.438 0 6.406 1.719 8.281 4.375l1.719 2.344 1.719-2.344c1.875-2.656 4.844-4.375 8.281-4.375 5.469 0 10 4.531 10 10 0 1.094-0.313 2.188-0.625 3.281h7.344z"></path>
</svg>
