<?xml version="1.0" encoding="utf-8"?>
<!-- Generated by IcoMoon.io -->
<!DOCTYPE svg PUBLIC "-//W3C//DTD SVG 1.1//EN" "http://www.w3.org/Graphics/SVG/1.1/DTD/svg11.dtd">
<svg version="1.1" xmlns="http://www.w3.org/2000/svg" xmlns:xlink="http://www.w3.org/1999/xlink" width="80" height="80" viewBox="0 0 80 80">
<path d="M33.219 0.828c-18.844 3.172-33.219 19.563-33.219 39.313 0 9.813 3.563 18.797 9.438 25.75 13.953-6.75 23.719-22.031 23.781-39.828v-25.234z"></path>
<path d="M46.781 0.828c18.844 3.172 33.219 19.563 33.219 39.313 0 9.813-3.563 18.797-9.438 25.75-13.953-6.75-23.719-22.031-23.781-39.828v-25.234z"></path>
<path d="M39.859 50.203c-2.484 10.281-9.906 19.063-19.141 24.906 5.688 3.109 12.203 4.891 19.141 4.891s13.453-1.781 19.141-4.891c-9.234-5.844-16.656-14.625-19.141-24.906z"></path>
</svg>
