<?xml version="1.0" encoding="utf-8"?>
<!-- Generated by IcoMoon.io -->
<!DOCTYPE svg PUBLIC "-//W3C//DTD SVG 1.1//EN" "http://www.w3.org/Graphics/SVG/1.1/DTD/svg11.dtd">
<svg version="1.1" xmlns="http://www.w3.org/2000/svg" xmlns:xlink="http://www.w3.org/1999/xlink" width="80" height="80" viewBox="0 0 80 80">
<path d="M39.375 45.313c-0.28 0.112-1.094 0.375-1.094 0.625 0 0.313-0.313 0.469-0.313 0.469h-2.344l0.781-7.344h7.969v2.344h-5.781l-0.313 2.969s0.313 0 0.313-0.313 0.469-0.156 0.469-0.469 0.313 0 0.625 0h0.625c0.625 0 1.406 0.156 1.719 0.469s0.938 0.625 1.25 0.938c0.693 0.693 1.406 2.129 1.406 3.594 0 0.625 0 1.406-0.313 1.719s-0.469 1.094-1.094 1.719-0.938 0.625-1.25 0.938-1.406 0.313-2.031 0.313-1.406 0-1.719-0.313-0.938-0.313-1.563-0.625c-0.874-0.437-1.406-1.762-1.406-2.969h2.656c0 1.157 0.827 1.563 2.031 1.563 0.313 0 0.625 0 0.938-0.313l0.781-0.625s0.313-0.625 0.313-0.938v-2.031l-0.313-0.625-0.781-0.781s-0.625-0.313-0.938-0.313h-0.625zM40 16.719c14.688 0 26.719 11.875 26.719 26.563s-12.031 26.719-26.719 26.719-26.719-12.031-26.719-26.719h6.719c0 10.938 9.063 20 20 20s20-9.063 20-20-9.063-20-20-20v13.438l-16.719-16.719 16.719-16.719v13.438z"></path>
</svg>
