<?xml version="1.0" encoding="utf-8"?>
<!-- Generated by IcoMoon.io -->
<!DOCTYPE svg PUBLIC "-//W3C//DTD SVG 1.1//EN" "http://www.w3.org/Graphics/SVG/1.1/DTD/svg11.dtd">
<svg version="1.1" xmlns="http://www.w3.org/2000/svg" xmlns:xlink="http://www.w3.org/1999/xlink" width="80" height="80" viewBox="0 0 80 80">
<path d="M44.688 50.625c0 0.588 1.081 1.094 1.719 1.094 0.313 0 0.625 0 0.938-0.313l0.625-0.781s0.313-0.625 0.313-0.938v-6.719c0-0.313-0.313-0.625-0.313-0.938 0-0.365-1.181-1.094-1.563-1.094-0.313 0-0.781 0.156-1.094 0.469l-0.625 0.625s-0.313 0.625-0.313 0.938v6.719s0.313 0.625 0.313 0.938zM50.938 47.344c0 0.938 0 2.031-0.313 2.656l-0.938 2.031s-1.094 0.938-1.719 0.938-1.406 0.313-2.031 0.313c-1.582 0-2.523-0.715-3.594-1.25-0.625-0.313-0.625-1.094-0.938-2.031s-0.469-1.719-0.469-2.656v-2.344c0-0.938 0.156-2.031 0.469-2.656l0.938-2.031s1.094-0.938 1.719-0.938 1.25-0.313 1.875-0.313 1.406 0 2.031 0.313 1.094 0.625 1.719 0.938 0.625 1.094 0.938 2.031 0.313 1.719 0.313 2.656v2.344zM33.281 45c1.269 0 2.344-0.775 2.344-2.031v-0.625s-0.313-0.313-0.313-0.625-0.313-0.313-0.625-0.313h-1.719s-0.313 0.313-0.625 0.313-0.313 0.313-0.313 0.625v0.625h-3.438c0-1.546 1.378-3.594 2.813-3.594 0.313 0 1.25-0.313 1.563-0.313 1.355 0 2.755 0.44 3.75 0.938 0.791 0.396 1.25 1.892 1.25 2.969v1.094s-0.313 0.625-0.313 0.938-0.313 0.625-0.625 0.625-0.781 0.469-1.094 0.781c0.625 0.313 1.406 0.625 1.719 1.25s0.625 1.406 0.625 2.031 0 1.406-0.313 1.719-0.625 0.938-0.938 1.25-1.094 0.625-1.719 0.625-1.406 0.313-2.031 0.313-1.25 0-1.563-0.313-1.094-0.313-1.719-0.625c-0.872-0.436-1.406-2.111-1.406-3.281h2.813v0.625s0.313 0.313 0.313 0.625 0.313 0.313 0.625 0.313h1.719s0.313-0.313 0.625-0.313 0.313-0.313 0.313-0.625v-1.719s-0.313-0.313-0.313-0.625-0.313-0.313-0.625-0.313h-2.031v-2.344h1.25zM40 16.719c14.688 0 26.719 11.875 26.719 26.563s-12.031 26.719-26.719 26.719-26.719-12.031-26.719-26.719h6.719c0 10.938 9.063 20 20 20s20-9.063 20-20-9.063-20-20-20v13.438l-16.719-16.719 16.719-16.719v13.438z"></path>
</svg>
