<?xml version="1.0" encoding="utf-8"?>
<!-- Generated by IcoMoon.io -->
<!DOCTYPE svg PUBLIC "-//W3C//DTD SVG 1.1//EN" "http://www.w3.org/Graphics/SVG/1.1/DTD/svg11.dtd">
<svg version="1.1" xmlns="http://www.w3.org/2000/svg" xmlns:xlink="http://www.w3.org/1999/xlink" width="80" height="80" viewBox="0 0 80 80">
<path d="M40 26.719h5v14.063l11.719 7.031-2.5 4.063-14.219-8.594v-16.563zM43.281 10c16.563 0 30 13.438 30 30s-13.438 30-30 30c-8.281 0-15.625-3.281-21.094-8.75l4.688-4.844c4.219 4.219 10 6.875 16.406 6.875 12.969 0 23.438-10.313 23.438-23.281s-10.469-23.281-23.438-23.281-23.281 10.313-23.281 23.281h10l-13.438 13.438-0.313-0.469-12.969-12.969h10c0-16.563 13.438-30 30-30z"></path>
</svg>
