<?xml version="1.0" encoding="utf-8"?>
<!-- Generated by IcoMoon.io -->
<!DOCTYPE svg PUBLIC "-//W3C//DTD SVG 1.1//EN" "http://www.w3.org/Graphics/SVG/1.1/DTD/svg11.dtd">
<svg version="1.1" xmlns="http://www.w3.org/2000/svg" xmlns:xlink="http://www.w3.org/1999/xlink" width="80" height="80" viewBox="0 0 80 80">
<path d="M40 60c9.219 0 16.719-7.5 16.719-16.719s-7.5-16.563-16.719-16.563c-5.938 0-11.094 3.125-14.063 7.656l-4.219-4.375v13.281h13.281l-5.313-5.313c1.875-3.75 5.781-6.25 10.313-6.25 6.406 0 11.719 5.156 11.719 11.563s-5.313 11.719-11.719 11.719c-3.906 0-7.5-2.031-9.531-5h-5.781c2.5 5.938 8.438 10 15.313 10zM46.719 6.719l20 20v40c0 3.594-3.125 6.563-6.719 6.563h-40c-3.594 0-6.719-2.969-6.719-6.563l0.156-53.438c0-3.594 2.969-6.563 6.563-6.563h26.719z"></path>
</svg>
