<?xml version="1.0" encoding="utf-8"?>
<!-- Generated by IcoMoon.io -->
<!DOCTYPE svg PUBLIC "-//W3C//DTD SVG 1.1//EN" "http://www.w3.org/Graphics/SVG/1.1/DTD/svg11.dtd">
<svg version="1.1" xmlns="http://www.w3.org/2000/svg" xmlns:xlink="http://www.w3.org/1999/xlink" width="80" height="80" viewBox="0 0 80 80">
<path d="M56.25 51.563c1.875-2.5 2.969-5.313 3.438-8.281h6.719c-0.625 4.688-2.344 9.063-5.313 12.969zM43.281 59.688c2.969-0.469 5.781-1.563 8.281-3.438l4.844 4.844c-3.906 2.969-8.438 4.688-13.125 5.313v-6.719zM66.406 36.719h-6.719c-0.469-2.969-1.563-5.781-3.438-8.281l4.844-4.688c2.969 3.906 4.688 8.281 5.313 12.969zM51.875 18.438l-15.156 14.844v-12.969c-9.531 1.563-16.719 9.844-16.719 19.688s7.188 18.125 16.719 19.688v6.719c-13.125-1.563-23.438-12.813-23.438-26.406s10.313-24.844 23.438-26.406v-10.313z"></path>
</svg>
