<?xml version="1.0" encoding="utf-8"?>
<!-- Generated by IcoMoon.io -->
<!DOCTYPE svg PUBLIC "-//W3C//DTD SVG 1.1//EN" "http://www.w3.org/Graphics/SVG/1.1/DTD/svg11.dtd">
<svg version="1.1" xmlns="http://www.w3.org/2000/svg" xmlns:xlink="http://www.w3.org/1999/xlink" width="80" height="80" viewBox="0 0 80 80">
<path d="M64.531 22.188c11.719 11.719 11.719 30.625 0 42.344-5.781 5.938-13.594 8.75-21.25 8.75-5 0-9.844-1.25-14.375-3.75l5-4.844c2.969 1.406 6.094 2.031 9.375 2.031 5.938 0 12.031-2.344 16.563-6.875 9.063-9.063 9.063-23.906 0-32.969-4.531-4.531-10.625-6.875-16.563-6.875v10.781l-14.063-14.063 14.063-14.219v10.781c7.656 0 15.469 2.969 21.25 8.906zM12.344 42.969l12.188 12.188 12.188-12.188-12.188-12.188zM24.531 21.406l21.563 21.563-21.563 21.563-21.719-21.563z"></path>
</svg>
