<?xml version="1.0" encoding="utf-8"?>
<!-- Generated by IcoMoon.io -->
<!DOCTYPE svg PUBLIC "-//W3C//DTD SVG 1.1//EN" "http://www.w3.org/Graphics/SVG/1.1/DTD/svg11.dtd">
<svg version="1.1" xmlns="http://www.w3.org/2000/svg" xmlns:xlink="http://www.w3.org/1999/xlink" width="80" height="80" viewBox="0 0 80 80">
<path d="M43.281 13.594c13.125 1.563 23.438 12.813 23.438 26.406s-10.313 24.844-23.438 26.406v-6.719c9.531-1.563 16.719-9.844 16.719-19.688s-7.188-18.125-16.719-19.688v12.969l-15.156-14.844 15.156-15.156v10.313zM23.594 61.094l4.844-4.844c2.5 1.875 5.313 2.969 8.281 3.438v6.719c-4.688-0.625-9.219-2.344-13.125-5.313zM20.313 43.281c0.469 2.969 1.563 5.781 3.281 8.281l-4.688 4.688c-2.969-3.906-4.688-8.281-5.313-12.969h6.719zM23.75 28.438c-1.719 2.5-2.969 5.313-3.438 8.281h-6.719c0.625-4.688 2.5-9.063 5.469-12.969z"></path>
</svg>
