<?xml version="1.0" encoding="utf-8"?>
<!-- Generated by IcoMoon.io -->
<!DOCTYPE svg PUBLIC "-//W3C//DTD SVG 1.1//EN" "http://www.w3.org/Graphics/SVG/1.1/DTD/svg11.dtd">
<svg version="1.1" xmlns="http://www.w3.org/2000/svg" xmlns:xlink="http://www.w3.org/1999/xlink" width="80" height="80" viewBox="0 0 80 80">
<path d="M70 26.719v16.563h-6.719v-16.563c0-5.469-4.531-10-10-10h-16.563v-6.719h16.563c9.219 0 16.719 7.5 16.719 16.719zM10 70v-6.719h6.719v6.719h-6.719zM23.281 70v-6.719h6.719v6.719h-6.719zM36.719 70v-6.719h6.563v6.719h-6.563zM23.281 16.719v-6.719h6.719v6.719h-6.719zM10 16.719v-6.719h6.719v6.719h-6.719zM10 30v-6.719h6.719v6.719h-6.719zM10 56.719v-6.719h6.719v6.719h-6.719zM10 43.281v-6.563h6.719v6.563h-6.719zM63.281 56.719v-6.719h6.719v6.719h-6.719zM63.281 63.281h6.719v6.719h-6.719v-6.719z"></path>
</svg>
