<?xml version="1.0" encoding="utf-8"?>
<!-- Generated by IcoMoon.io -->
<!DOCTYPE svg PUBLIC "-//W3C//DTD SVG 1.1//EN" "http://www.w3.org/Graphics/SVG/1.1/DTD/svg11.dtd">
<svg version="1.1" xmlns="http://www.w3.org/2000/svg" xmlns:xlink="http://www.w3.org/1999/xlink" width="80" height="80" viewBox="0 0 80 80">
<path d="M50 60v-6.719h-6.719v6.719h6.719zM38.281 60v-6.719h-6.563v6.719h6.563zM26.719 60v-6.719h-6.719v6.719h6.719zM63.281 43.281c3.594 0 6.719 3.125 6.719 6.719v13.281c0 3.594-3.125 6.719-6.719 6.719h-46.563c-3.594 0-6.719-3.125-6.719-6.719v-13.281c0-3.594 3.125-6.719 6.719-6.719h33.281v-13.281h6.719v13.281h6.563zM64.375 22.344l-2.656 2.656c-2.344-2.344-5.469-3.281-8.438-3.281s-5.938 0.938-8.281 3.281l-2.656-2.656c2.969-2.969 6.875-4.688 10.938-4.688s8.125 1.719 11.094 4.688zM67.344 19.688c-4.063-3.594-9.063-5.625-14.063-5.625s-9.844 2.031-13.906 5.625l-2.656-2.656c4.688-4.688 10.625-7.031 16.563-7.031s12.031 2.344 16.719 7.031z"></path>
</svg>
