<?xml version="1.0" encoding="utf-8"?>
<!-- Generated by IcoMoon.io -->
<!DOCTYPE svg PUBLIC "-//W3C//DTD SVG 1.1//EN" "http://www.w3.org/Graphics/SVG/1.1/DTD/svg11.dtd">
<svg version="1.1" xmlns="http://www.w3.org/2000/svg" xmlns:xlink="http://www.w3.org/1999/xlink" width="80" height="80" viewBox="0 0 80 80">
<path d="M70 70l-10 10-10-10v-5l-23.594-23.594c-1.094 0.156-2.188 0.156-3.125 0.156v-7.188c5.469 0.156 12.031-2.813 15.625-6.719l4.688-5.156c1.189-1.189 3.149-2.5 5.469-2.5h0.156c4.063 0 7.5 3.438 7.5 7.5v19.219c0 2.813-1.25 5.313-3.125 7.188l-11.875-11.875v-7.656c-2.031 1.719-4.844 3.438-7.656 4.688l20.938 20.938h5zM50 3.281c3.594 0 6.719 3.125 6.719 6.719s-3.125 6.719-6.719 6.719-6.719-3.125-6.719-6.719 3.125-6.719 6.719-6.719zM28.281 48.281l8.438 8.438h-6.719l-11.719 11.563-5-5z"></path>
</svg>
