<?xml version="1.0" encoding="utf-8"?>
<!-- Generated by IcoMoon.io -->
<!DOCTYPE svg PUBLIC "-//W3C//DTD SVG 1.1//EN" "http://www.w3.org/Graphics/SVG/1.1/DTD/svg11.dtd">
<svg version="1.1" xmlns="http://www.w3.org/2000/svg" xmlns:xlink="http://www.w3.org/1999/xlink" width="80" height="80" viewBox="0 0 80 80">
<path d="M10.648 58.666c-5.875 0-10.648 4.792-10.648 10.631 0 5.871 4.773 10.61 10.648 10.61 5.896 0 10.664-4.738 10.664-10.61-0-5.839-4.767-10.631-10.664-10.631zM0.012 27.182v15.333c9.983 0 19.372 3.904 26.442 10.977 7.061 7.056 10.96 16.487 10.96 26.508h15.4c-0-29.127-23.694-52.818-52.802-52.818zM0.030 0v15.34c35.608 0 64.59 29.010 64.59 64.66h15.379c0-44.099-35.879-80-79.97-80z"></path>
</svg>
