<?xml version="1.0" encoding="utf-8"?>
<!-- Generated by IcoMoon.io -->
<!DOCTYPE svg PUBLIC "-//W3C//DTD SVG 1.1//EN" "http://www.w3.org/Graphics/SVG/1.1/DTD/svg11.dtd">
<svg version="1.1" xmlns="http://www.w3.org/2000/svg" xmlns:xlink="http://www.w3.org/1999/xlink" width="80" height="80" viewBox="0 0 80 80">
<path d="M72.5 0h-65c-4.125 0-7.5 3.375-7.5 7.5v65c0 4.125 3.375 7.5 7.5 7.5h65c4.125 0 7.5-3.375 7.5-7.5v-65c0-4.125-3.375-7.5-7.5-7.5zM21.797 64.938c-3.75 0-6.797-3.016-6.797-6.766 0-3.719 3.047-6.781 6.797-6.781 3.766 0 6.797 3.063 6.797 6.781 0 3.75-3.047 6.766-6.797 6.766zM38.859 65c0-6.391-2.484-12.406-6.984-16.906-4.516-4.516-10.5-7-16.875-7v-9.781c18.563 0 33.688 15.109 33.688 33.688h-9.828zM56.219 65c0-22.734-18.484-41.25-41.203-41.25v-9.781c28.125 0 51.016 22.906 51.016 51.031h-9.813z"></path>
</svg>
