<?xml version="1.0" encoding="utf-8"?>
<!-- Generated by IcoMoon.io -->
<!DOCTYPE svg PUBLIC "-//W3C//DTD SVG 1.1//EN" "http://www.w3.org/Graphics/SVG/1.1/DTD/svg11.dtd">
<svg version="1.1" xmlns="http://www.w3.org/2000/svg" xmlns:xlink="http://www.w3.org/1999/xlink" width="80" height="80" viewBox="0 0 80 80">
<path d="M56.719 6.719l10 10-10 10v-6.719h-26.719v-6.719h26.719v-6.563zM60 46.719v-10h-13.281v10h13.281zM36.719 66.719c1.875 0 3.281-1.563 3.281-3.438s-1.406-3.281-3.281-3.281-3.438 1.406-3.438 3.281 1.563 3.438 3.438 3.438zM66.719 56.719h6.563v6.563h-26.563c0 5.469-4.531 10-10 10s-10-4.531-10-10h-6.719c-3.594 0-6.719-2.969-6.719-6.563v-10h23.438v-10h-13.438v6.563l-10-10 10-10v6.719h36.719c3.594 0 6.719 3.125 6.719 6.719v20z"></path>
</svg>
