<?xml version="1.0" encoding="utf-8"?>
<!-- Generated by IcoMoon.io -->
<!DOCTYPE svg PUBLIC "-//W3C//DTD SVG 1.1//EN" "http://www.w3.org/Graphics/SVG/1.1/DTD/svg11.dtd">
<svg version="1.1" xmlns="http://www.w3.org/2000/svg" xmlns:xlink="http://www.w3.org/1999/xlink" width="80" height="80" viewBox="0 0 80 80">
<path d="M71.393 53.101c-5.21-8.141-14.147-11.724-19.962-8.003-0.502 0.322-0.964 0.688-1.386 1.092l-6.207-9.708 14.333-22.498c1.173-2.166 1.606-4.747 1.036-7.342-0.545-2.48-1.915-4.565-3.758-6.033l-0.959-0.61-16.99 26.571-16.99-26.571-0.959 0.61c-1.843 1.468-3.213 3.553-3.758 6.033-0.57 2.595-0.137 5.175 1.036 7.342l14.333 22.498-6.207 9.708c-0.423-0.405-0.884-0.771-1.386-1.092-5.815-3.721-14.752-0.138-19.962 8.003s-4.719 17.757 1.096 21.478c5.815 3.721 14.752 0.138 19.962-8.002l12.835-20.146 12.835 20.146c5.21 8.141 14.147 11.724 19.962 8.003s6.305-13.337 1.096-21.478zM18.348 62.534c-2.345 3.664-5.354 5.447-7.388 5.894-0 0-0 0-0 0-0.663 0.146-1.585 0.235-2.213-0.166-0.695-0.445-1.157-1.621-1.234-3.147-0.126-2.472 0.753-5.378 2.413-7.971 2.345-3.665 5.354-5.447 7.388-5.894 0.664-0.146 1.587-0.235 2.214 0.166 0.695 0.445 1.156 1.621 1.234 3.146 0.126 2.473-0.753 5.378-2.413 7.972zM37.5 40c-1.381 0-2.5-1.119-2.5-2.5s1.119-2.5 2.5-2.5 2.5 1.119 2.5 2.5-1.119 2.5-2.5 2.5zM67.488 65.115c-0.078 1.526-0.539 2.702-1.234 3.147-0.627 0.401-1.55 0.312-2.213 0.166 0 0 0 0-0 0-2.034-0.447-5.043-2.23-7.388-5.894-1.66-2.594-2.539-5.499-2.413-7.972 0.078-1.525 0.539-2.701 1.234-3.146 0.627-0.401 1.55-0.312 2.214-0.166 2.034 0.447 5.043 2.23 7.388 5.894 1.66 2.594 2.539 5.499 2.413 7.971z"></path>
</svg>
