<?xml version="1.0" encoding="utf-8"?>
<!-- Generated by IcoMoon.io -->
<!DOCTYPE svg PUBLIC "-//W3C//DTD SVG 1.1//EN" "http://www.w3.org/Graphics/SVG/1.1/DTD/svg11.dtd">
<svg version="1.1" xmlns="http://www.w3.org/2000/svg" xmlns:xlink="http://www.w3.org/1999/xlink" width="80" height="80" viewBox="0 0 80 80">
<path d="M25 71.563l4.531-4.375 12.656 12.656-2.188 0.156c-20.938 0-38.125-16.25-39.844-36.719h5c1.25 12.5 8.906 23.125 19.844 28.281zM49.375 70.625l21.25-21.25-40-40-21.25 21.25zM34.063 5.781l40.156 40.156c2.031 1.875 2.031 5 0 7.031l-21.25 21.25c-1.875 2.031-5 2.031-7.031 0l-40.156-40.156c-2.031-1.875-2.031-5 0-7.031l21.25-21.25c1.875-2.031 5-2.031 7.031 0zM55 8.438l-4.531 4.375-12.656-12.656 2.188-0.156c20.938 0 38.125 16.25 39.844 36.719h-5c-1.25-12.5-8.906-23.125-19.844-28.281z"></path>
</svg>
