<?xml version="1.0" encoding="utf-8"?>
<!-- Generated by IcoMoon.io -->
<!DOCTYPE svg PUBLIC "-//W3C//DTD SVG 1.1//EN" "http://www.w3.org/Graphics/SVG/1.1/DTD/svg11.dtd">
<svg version="1.1" xmlns="http://www.w3.org/2000/svg" xmlns:xlink="http://www.w3.org/1999/xlink" width="80" height="80" viewBox="0 0 80 80">
<path d="M55.938 8.281v1.719h11.406v-1.719c0-3.125-2.5-5.625-5.625-5.625s-5.781 2.5-5.781 5.625zM53.281 30c-1.875 0-3.281-1.406-3.281-3.281v-13.438c0-1.875 1.406-3.281 3.281-3.281v-1.719c0-4.531 3.906-8.281 8.438-8.281s8.281 3.75 8.281 8.281v1.719c1.875 0 3.281 1.406 3.281 3.281v13.438c0 1.875-1.406 3.281-3.281 3.281h-16.719zM28.281 68.281l4.375-4.375 12.656 12.656-2.188 0.156c-20.938 0-38.125-16.25-39.844-36.719h5c1.25 12.5 9.063 23.125 20 28.281zM77.5 42.5c2.031 1.875 2.031 5.156 0 7.188l-21.25 21.094c-1.875 2.031-5 2.031-7.031 0l-40-40c-2.031-1.875-2.031-5 0-7.031l21.094-21.25c1.875-2.031 5.156-2.031 7.188 0l8.125 8.125-4.688 4.688-7.031-6.875-18.906 18.75 37.813 37.813 18.75-18.906-7.344-7.344 4.688-4.688z"></path>
</svg>
