<?xml version="1.0" encoding="utf-8"?>
<!-- Generated by IcoMoon.io -->
<!DOCTYPE svg PUBLIC "-//W3C//DTD SVG 1.1//EN" "http://www.w3.org/Graphics/SVG/1.1/DTD/svg11.dtd">
<svg version="1.1" xmlns="http://www.w3.org/2000/svg" xmlns:xlink="http://www.w3.org/1999/xlink" width="80" height="80" viewBox="0 0 80 80">
<path d="M56.719 63.281v-46.563h-33.438v46.563h33.438zM56.719 3.281c3.594 0 6.563 3.125 6.563 6.719v60c0 3.594-2.969 6.719-6.563 6.719h-33.438c-3.594 0-6.563-3.125-6.563-6.719v-60c0-3.594 2.969-6.719 6.563-6.719h33.438zM35.938 33.281v3.438h8.125v-3.438c0-2.188-1.875-3.906-4.063-3.906s-4.063 1.719-4.063 3.906zM33.281 53.281c-1.875 0-3.281-1.406-3.281-3.281v-10c0-1.875 1.406-3.281 3.281-3.281v-3.438c0-3.594 2.969-6.563 6.719-6.563 3.594 0 6.719 2.813 6.719 6.563v3.438c1.875 0 3.281 1.406 3.281 3.281v10c0 1.875-1.406 3.281-3.281 3.281h-13.438z"></path>
</svg>
