<?xml version="1.0" encoding="utf-8"?>
<!-- Generated by IcoMoon.io -->
<!DOCTYPE svg PUBLIC "-//W3C//DTD SVG 1.1//EN" "http://www.w3.org/Graphics/SVG/1.1/DTD/svg11.dtd">
<svg version="1.1" xmlns="http://www.w3.org/2000/svg" xmlns:xlink="http://www.w3.org/1999/xlink" width="80" height="80" viewBox="0 0 80 80">
<path d="M31.719 46.719c8.281 0 15-6.719 15-15s-6.719-15-15-15-15 6.719-15 15 6.719 15 15 15zM51.719 46.719l16.563 16.563-5 5-16.563-16.563v-2.656l-0.938-0.938c-3.75 3.281-8.75 5.156-14.063 5.156-12.031 0-21.719-9.531-21.719-21.563s9.688-21.719 21.719-21.719 21.563 9.688 21.563 21.719c0 5.313-1.875 10.313-5.156 14.063l0.938 0.938h2.656z"></path>
</svg>
