<?xml version="1.0" encoding="utf-8"?>
<!-- Generated by IcoMoon.io -->
<!DOCTYPE svg PUBLIC "-//W3C//DTD SVG 1.1//EN" "http://www.w3.org/Graphics/SVG/1.1/DTD/svg11.dtd">
<svg version="1.1" xmlns="http://www.w3.org/2000/svg" xmlns:xlink="http://www.w3.org/1999/xlink" width="80" height="80" viewBox="0 0 80 80">
<path d="M38.747 80c-3.856 0-7.118-1.125-9.696-3.345-2.596-2.235-3.912-4.847-3.912-7.761 0-1.416 0.516-2.637 1.533-3.63 1.034-1.009 2.327-1.543 3.738-1.543 1.406 0 2.671 0.501 3.658 1.449 0.974 0.935 1.468 2.174 1.468 3.68 0 0.884-0.145 1.861-0.429 2.902-0.282 1.030-0.342 1.558-0.342 1.82 0 0.288 0.072 0.631 0.607 0.997 0.997 0.689 2.193 1.022 3.662 1.022 1.764 0 3.337-0.614 4.81-1.877 1.451-1.245 2.157-2.525 2.157-3.911 0-1.542-0.412-2.877-1.259-4.081-1.433-2.012-4.131-4.371-8.017-7.005-6.239-4.176-10.396-7.794-12.702-11.056-1.788-2.553-2.693-5.304-2.693-8.18 0-2.895 0.949-5.777 2.82-8.565 1.602-2.387 3.969-4.541 7.049-6.417-1.648-1.773-2.883-3.443-3.679-4.976-1.006-1.934-1.515-3.935-1.515-5.947 0-3.735 1.477-6.966 4.391-9.601 2.916-2.638 6.552-3.975 10.806-3.975 3.913 0 7.204 1.1 9.78 3.27 2.604 2.194 3.924 4.758 3.924 7.62 0 1.458-0.546 2.763-1.622 3.88l-0.022 0.022c-0.623 0.619-1.767 1.357-3.675 1.357-1.496 0-2.807-0.49-3.792-1.417-0.981-0.921-1.479-2.025-1.479-3.279 0-0.542 0.133-1.361 0.418-2.577 0.139-0.575 0.208-1.105 0.208-1.582 0-0.808-0.291-1.427-0.916-1.95-0.647-0.541-1.571-0.805-2.824-0.805-1.943 0-3.538 0.591-4.876 1.806-1.343 1.219-1.996 2.663-1.996 4.415 0 1.575 0.357 2.872 1.061 3.856 1.337 1.87 3.656 3.89 6.892 6.003 6.576 4.265 11.164 8.178 13.634 11.627 1.824 2.587 2.746 5.339 2.746 8.187 0 2.859-0.928 5.742-2.759 8.568-1.579 2.436-3.963 4.631-7.1 6.54 1.733 1.833 2.954 3.441 3.715 4.886 0.944 1.795 1.422 3.754 1.422 5.824 0 3.88-1.479 7.177-4.394 9.799-2.917 2.621-6.552 3.95-10.804 3.95zM34.876 27.84c-3.767 2.262-5.602 4.859-5.602 7.915 0 1.778 0.508 3.37 1.552 4.865 1.557 2.182 4.63 4.848 9.125 7.913 1.903 1.296 3.622 2.556 5.124 3.755 3.833-2.305 5.7-4.872 5.7-7.826 0-1.609-0.636-3.342-1.891-5.15-1.313-1.89-4.129-4.359-8.369-7.337-2.213-1.528-4.106-2.917-5.638-4.135z"></path>
</svg>
