<?xml version="1.0" encoding="utf-8"?>
<!-- Generated by IcoMoon.io -->
<!DOCTYPE svg PUBLIC "-//W3C//DTD SVG 1.1//EN" "http://www.w3.org/Graphics/SVG/1.1/DTD/svg11.dtd">
<svg version="1.1" xmlns="http://www.w3.org/2000/svg" xmlns:xlink="http://www.w3.org/1999/xlink" width="80" height="80" viewBox="0 0 80 80">
<path d="M30 30v20h20v-20h-20zM23.281 56.719v-33.438h33.438v33.438h-33.438zM50 16.719v-6.719h6.719v6.719h-6.719zM50 70v-6.719h6.719v6.719h-6.719zM63.281 56.719v-6.719h6.719v6.719h-6.719zM63.281 30v-6.719h6.719v6.719h-6.719zM63.281 70v-6.719h6.719c0 3.594-3.125 6.719-6.719 6.719zM63.281 43.281v-6.563h6.719v6.563h-6.719zM36.719 70v-6.719h6.563v6.719h-6.563zM30 10v6.719h-6.719v-6.719h6.719zM10 56.719v-6.719h6.719v6.719h-6.719zM16.719 70c-3.594 0-6.719-3.125-6.719-6.719h6.719v6.719zM63.281 10c3.594 0 6.719 3.125 6.719 6.719h-6.719v-6.719zM43.281 10v6.719h-6.563v-6.719h6.563zM10 30v-6.719h6.719v6.719h-6.719zM23.281 70v-6.719h6.719v6.719h-6.719zM10 43.281v-6.563h6.719v6.563h-6.719zM10 16.719c0-3.594 3.125-6.719 6.719-6.719v6.719h-6.719z"></path>
</svg>
