<?xml version="1.0" encoding="utf-8"?>
<!-- Generated by IcoMoon.io -->
<!DOCTYPE svg PUBLIC "-//W3C//DTD SVG 1.1//EN" "http://www.w3.org/Graphics/SVG/1.1/DTD/svg11.dtd">
<svg version="1.1" xmlns="http://www.w3.org/2000/svg" xmlns:xlink="http://www.w3.org/1999/xlink" width="80" height="80" viewBox="0 0 80 80">
<path d="M40 53.281c5 0 9.219-2.656 11.563-6.563h5.469c-2.656 6.875-9.219 11.563-17.031 11.563s-14.375-4.688-17.031-11.563h5.469c2.344 3.906 6.563 6.563 11.563 6.563zM40 66.719c14.688 0 26.719-12.031 26.719-26.719s-12.031-26.719-26.719-26.719-26.719 12.031-26.719 26.719 12.031 26.719 26.719 26.719zM40 6.719c18.438 0 33.281 14.844 33.281 33.281s-14.844 33.281-33.281 33.281-33.281-14.844-33.281-33.281 14.844-33.281 33.281-33.281zM23.281 31.719c0-2.813 2.188-5 5-5s5 2.188 5 5-2.188 5-5 5-5-2.188-5-5zM46.719 31.719c0-2.813 2.188-5 5-5s5 2.188 5 5-2.188 5-5 5-5-2.188-5-5z"></path>
</svg>
