<?xml version="1.0" encoding="utf-8"?>
<!-- Generated by IcoMoon.io -->
<!DOCTYPE svg PUBLIC "-//W3C//DTD SVG 1.1//EN" "http://www.w3.org/Graphics/SVG/1.1/DTD/svg11.dtd">
<svg version="1.1" xmlns="http://www.w3.org/2000/svg" xmlns:xlink="http://www.w3.org/1999/xlink" width="80" height="80" viewBox="0 0 80 80">
<path d="M70 63.438v-46.875h-60v46.875h60zM70 10c3.594 0 6.719 3.125 6.719 6.719v46.563c0 3.594-3.125 6.719-6.719 6.719h-60c-3.594 0-6.719-3.125-6.719-6.719v-46.563c0-3.594 3.125-6.719 6.719-6.719h60zM30 53.281c-5.469 0-10-4.531-10-10 0-5.156 3.906-9.375 8.906-9.844h0.625c1.875-3.906 5.781-6.719 10.469-6.719 5.938 0 10.781 4.375 11.563 10h0.156c4.531 0 8.281 3.75 8.281 8.281s-3.75 8.281-8.281 8.281h-21.719z"></path>
</svg>
