<?xml version="1.0" encoding="utf-8"?>
<!-- Generated by IcoMoon.io -->
<!DOCTYPE svg PUBLIC "-//W3C//DTD SVG 1.1//EN" "http://www.w3.org/Graphics/SVG/1.1/DTD/svg11.dtd">
<svg version="1.1" xmlns="http://www.w3.org/2000/svg" xmlns:xlink="http://www.w3.org/1999/xlink" width="80" height="80" viewBox="0 0 80 80">
<path d="M40 0c10.156 0 19.375 4.063 25.938 10.781l-4.688 4.688c-5.469-5.469-12.969-8.75-21.25-8.75s-15.781 3.281-21.25 8.75l-4.688-4.688c6.563-6.563 15.781-10.781 25.938-10.781zM23.438 20.156c4.219-4.219 10.156-6.875 16.563-6.875s12.344 2.656 16.563 6.875l-4.688 4.688c-2.969-2.969-7.344-4.844-11.875-4.844s-8.906 1.875-11.875 4.844zM40 50c3.594 0 6.719-3.125 6.719-6.719s-3.125-6.563-6.719-6.563-6.719 2.969-6.719 6.563 3.125 6.719 6.719 6.719zM50 30c1.875 0 3.281 1.406 3.281 3.281v40c0 1.875-1.406 3.438-3.281 3.438h-20c-1.875 0-3.281-1.563-3.281-3.438v-40c0-1.875 1.406-3.281 3.281-3.281h20z"></path>
</svg>
