<?xml version="1.0" encoding="utf-8"?>
<!-- Generated by IcoMoon.io -->
<!DOCTYPE svg PUBLIC "-//W3C//DTD SVG 1.1//EN" "http://www.w3.org/Graphics/SVG/1.1/DTD/svg11.dtd">
<svg version="1.1" xmlns="http://www.w3.org/2000/svg" xmlns:xlink="http://www.w3.org/1999/xlink" width="80" height="80" viewBox="0 0 80 80">
<path d="M40 10c16.563 0 30 13.438 30 30s-13.438 30-30 30c-6.875 0-13.281-2.344-18.281-6.25l4.688-4.688c3.906 2.656 8.594 4.219 13.594 4.219 12.969 0 23.281-10.313 23.281-23.281s-10.313-23.281-23.281-23.281-23.281 10.313-23.281 23.281h10l-13.438 13.281-13.281-13.281h10c0-16.563 13.438-30 30-30zM46.719 40c0 3.594-3.125 6.719-6.719 6.719s-6.719-3.125-6.719-6.719 3.125-6.719 6.719-6.719 6.719 3.125 6.719 6.719z"></path>
</svg>
