<?xml version="1.0" encoding="utf-8"?>
<!-- Generated by IcoMoon.io -->
<!DOCTYPE svg PUBLIC "-//W3C//DTD SVG 1.1//EN" "http://www.w3.org/Graphics/SVG/1.1/DTD/svg11.dtd">
<svg version="1.1" xmlns="http://www.w3.org/2000/svg" xmlns:xlink="http://www.w3.org/1999/xlink" width="80" height="80" viewBox="0 0 80 80">
<path d="M50 80v-6.719h6.719v6.719h-6.719zM55.156 14.844c6.875 4.844 11.563 12.813 11.563 21.875 0 14.688-12.031 26.563-26.719 26.563s-26.719-11.875-26.719-26.563c0-9.063 4.688-17.031 11.563-21.875l4.688 4.688c-5.781 3.594-9.531 10-9.531 17.188 0 11.094 8.906 20 20 20s20-8.906 20-20c0-7.188-3.906-13.594-9.688-17.031zM43.281 6.719v33.281h-6.563v-33.281h6.563zM36.719 80v-6.719h6.563v6.719h-6.563zM23.281 80v-6.719h6.719v6.719h-6.719z"></path>
</svg>
