<?xml version="1.0" encoding="utf-8"?>
<!-- Generated by IcoMoon.io -->
<!DOCTYPE svg PUBLIC "-//W3C//DTD SVG 1.1//EN" "http://www.w3.org/Graphics/SVG/1.1/DTD/svg11.dtd">
<svg version="1.1" xmlns="http://www.w3.org/2000/svg" xmlns:xlink="http://www.w3.org/1999/xlink" width="80" height="80" viewBox="0 0 80 80">
<path d="M63.281 33.281c0 11.406-9.063 20.938-20 22.5v10.938h-6.563v-10.938c-10.938-1.563-20-11.094-20-22.5h5.625c0 10 8.438 17.031 17.656 17.031s17.656-7.031 17.656-17.031h5.625zM50 80v-6.719h6.719v6.719h-6.719zM36.719 80v-6.719h6.563v6.719h-6.563zM40 43.281c-5.469 0-10-4.531-10-10v-20c0-5.469 4.531-10 10-10s10 4.531 10 10v20c0 5.469-4.531 10-10 10zM23.281 80v-6.719h6.719v6.719h-6.719z"></path>
</svg>
