<?xml version="1.0" encoding="utf-8"?>
<!-- Generated by IcoMoon.io -->
<!DOCTYPE svg PUBLIC "-//W3C//DTD SVG 1.1//EN" "http://www.w3.org/Graphics/SVG/1.1/DTD/svg11.dtd">
<svg version="1.1" xmlns="http://www.w3.org/2000/svg" xmlns:xlink="http://www.w3.org/1999/xlink" width="80" height="80" viewBox="0 0 80 80">
<path d="M51.719 50c2.813 0 5 2.188 5 5s-2.188 5-5 5-5-2.188-5-5 2.188-5 5-5zM58.281 33.281c2.813 0 5 2.188 5 5s-2.188 5-5 5-5-2.188-5-5 2.188-5 5-5zM40 70c16.563 0 30-13.438 30-30s-13.438-30-30-30-30 13.438-30 30 13.438 30 30 30zM40 3.281c20.156 0 36.719 16.563 36.719 36.719s-16.563 36.719-36.719 36.719-36.719-16.563-36.719-36.719 16.563-36.719 36.719-36.719zM28.281 50c2.813 0 5 2.188 5 5s-2.188 5-5 5-5-2.188-5-5 2.188-5 5-5zM50 21.719c0 2.813-2.188 5-5 5h-10c-2.813 0-5-2.188-5-5s2.188-5 5-5h10c2.813 0 5 2.188 5 5zM26.719 38.281c0 2.813-2.188 5-5 5s-5-2.188-5-5 2.188-5 5-5 5 2.188 5 5z"></path>
</svg>
