<?xml version="1.0" encoding="utf-8"?>
<!-- Generated by IcoMoon.io -->
<!DOCTYPE svg PUBLIC "-//W3C//DTD SVG 1.1//EN" "http://www.w3.org/Graphics/SVG/1.1/DTD/svg11.dtd">
<svg version="1.1" xmlns="http://www.w3.org/2000/svg" xmlns:xlink="http://www.w3.org/1999/xlink" width="80" height="80" viewBox="0 0 80 80">
<path d="M56.719 53.281v-6.563h20v6.563c0 4.375-2.813 7.969-6.719 9.375v14.063h-6.719v-14.063c-3.906-1.406-6.563-5-6.563-9.375zM43.281 6.719v13.281h6.719v20h-20v-20h6.719v-13.281c0-1.875 1.406-3.438 3.281-3.438s3.281 1.563 3.281 3.438zM70 20h6.719v20h-20v-20h6.563v-13.281c0-1.875 1.563-3.438 3.438-3.438s3.281 1.563 3.281 3.438v13.281zM3.281 53.281v-6.563h20v6.563c0 4.375-2.656 7.969-6.563 9.375v14.063h-6.719v-14.063c-3.906-1.406-6.719-5-6.719-9.375zM30 53.281v-6.563h20v6.563c0 4.375-2.813 7.969-6.719 9.375v14.063h-6.563v-14.063c-3.906-1.406-6.719-5-6.719-9.375zM16.719 6.719v13.281h6.563v20h-20v-20h6.719v-13.281c0-1.875 1.406-3.438 3.281-3.438s3.438 1.563 3.438 3.438z"></path>
</svg>
