<?xml version="1.0" encoding="utf-8"?>
<!-- Generated by IcoMoon.io -->
<!DOCTYPE svg PUBLIC "-//W3C//DTD SVG 1.1//EN" "http://www.w3.org/Graphics/SVG/1.1/DTD/svg11.dtd">
<svg version="1.1" xmlns="http://www.w3.org/2000/svg" xmlns:xlink="http://www.w3.org/1999/xlink" width="80" height="80" viewBox="0 0 80 80">
<path d="M40 30v20c5.469 0 10-4.531 10-10s-4.531-10-10-10zM26.719 53.281v-8.281l-5-5 5-5v-8.281h8.281l5-5 5 5h8.281v8.281l5 5-5 5v8.281h-8.281l-5 5-5-5h-8.281zM70 63.438v-46.875h-60v46.875h60zM70 10c3.594 0 6.719 3.125 6.719 6.719v46.563c0 3.594-3.125 6.719-6.719 6.719h-60c-3.594 0-6.719-3.125-6.719-6.719v-46.563c0-3.594 3.125-6.719 6.719-6.719h60z"></path>
</svg>
