<?xml version="1.0" encoding="utf-8"?>
<!-- Generated by IcoMoon.io -->
<!DOCTYPE svg PUBLIC "-//W3C//DTD SVG 1.1//EN" "http://www.w3.org/Graphics/SVG/1.1/DTD/svg11.dtd">
<svg version="1.1" xmlns="http://www.w3.org/2000/svg" xmlns:xlink="http://www.w3.org/1999/xlink" width="80" height="80" viewBox="0 0 80 80">
<path d="M40 51.719c6.406 0 11.719-5.313 11.719-11.719s-5.313-11.719-11.719-11.719-11.719 5.313-11.719 11.719 5.313 11.719 11.719 11.719zM64.844 43.281l7.031 5.469c0.625 0.469 0.781 1.406 0.313 2.188l-6.719 11.563c-0.469 0.781-1.25 0.938-2.031 0.625l-8.281-3.281c-1.719 1.25-3.594 2.5-5.625 3.281l-1.25 8.75c-0.156 0.781-0.781 1.406-1.563 1.406h-13.438c-0.781 0-1.406-0.625-1.563-1.406l-1.25-8.75c-2.031-0.781-3.906-1.875-5.625-3.281l-8.281 3.281c-0.781 0.313-1.563 0.156-2.031-0.625l-6.719-11.563c-0.469-0.781-0.313-1.719 0.313-2.188l7.031-5.469c-0.156-1.094-0.156-2.188-0.156-3.281s0-2.188 0.156-3.281l-7.031-5.469c-0.625-0.469-0.781-1.406-0.313-2.188l6.719-11.563c0.469-0.781 1.25-0.938 2.031-0.625l8.281 3.281c1.719-1.25 3.594-2.5 5.625-3.281l1.25-8.75c0.156-0.781 0.781-1.406 1.563-1.406h13.438c0.781 0 1.406 0.625 1.563 1.406l1.25 8.75c2.031 0.781 3.906 1.875 5.625 3.281l8.281-3.281c0.781-0.313 1.563-0.156 2.031 0.625l6.719 11.563c0.469 0.781 0.313 1.719-0.313 2.188l-7.031 5.469c0.156 1.094 0.156 2.188 0.156 3.281s0 2.188-0.156 3.281z"></path>
</svg>
