<?xml version="1.0" encoding="utf-8"?>
<!-- Generated by IcoMoon.io -->
<!DOCTYPE svg PUBLIC "-//W3C//DTD SVG 1.1//EN" "http://www.w3.org/Graphics/SVG/1.1/DTD/svg11.dtd">
<svg version="1.1" xmlns="http://www.w3.org/2000/svg" xmlns:xlink="http://www.w3.org/1999/xlink" width="80" height="80" viewBox="0 0 80 80">
<path d="M57.5 40c0-0.781 0-1.563-0.156-2.344l5-3.75c0.469-0.313 0.469-1.094 0.156-1.563l-4.688-8.125c-0.313-0.469-0.938-0.625-1.406-0.469l-5.781 2.344c-1.25-0.938-2.5-1.719-3.906-2.344l-0.938-6.094c-0.156-0.469-0.469-0.938-1.094-0.938h-9.375c-0.625 0-0.938 0.313-1.094 0.938l-0.938 6.25c-1.406 0.625-2.656 1.25-3.906 2.188l-5.781-2.344c-0.469-0.156-1.094 0.156-1.406 0.625l-4.688 7.969c-0.313 0.469-0.313 1.25 0.156 1.563l5 3.75c-0.156 0.781-0.156 1.563-0.156 2.344s0 1.563 0.156 2.344l-5 3.75c-0.469 0.313-0.469 1.094-0.156 1.563l4.688 8.125c0.313 0.469 0.938 0.625 1.406 0.469l5.781-2.344c1.25 0.938 2.5 1.719 3.906 2.344l0.938 6.094c0.156 0.469 0.469 0.938 1.094 0.938h9.375c0.625 0 0.938-0.313 1.094-0.938l0.938-6.25c1.406-0.625 2.656-1.25 3.906-2.188l5.781 2.344c0.469 0.156 1.094-0.156 1.406-0.625l4.688-7.969c0.313-0.469 0.313-1.25-0.156-1.563l-5-3.75c0.156-0.781 0.156-1.563 0.156-2.344zM63.281 10c3.75 0 6.719 3.125 6.719 6.719v46.563c0 3.594-2.969 6.719-6.719 6.719h-46.563c-3.75 0-6.719-3.125-6.719-6.719v-46.563c0-3.594 2.969-6.719 6.719-6.719h46.563zM40 33.281c3.594 0 6.719 3.125 6.719 6.719s-3.125 6.719-6.719 6.719-6.719-3.125-6.719-6.719 3.125-6.719 6.719-6.719z"></path>
</svg>
