<?xml version="1.0" encoding="utf-8"?>
<!-- Generated by IcoMoon.io -->
<!DOCTYPE svg PUBLIC "-//W3C//DTD SVG 1.1//EN" "http://www.w3.org/Graphics/SVG/1.1/DTD/svg11.dtd">
<svg version="1.1" xmlns="http://www.w3.org/2000/svg" xmlns:xlink="http://www.w3.org/1999/xlink" width="80" height="80" viewBox="0 0 80 80">
<path d="M40 3.281c20.156 0 36.719 16.563 36.719 36.719h-6.719c0-16.563-13.438-30-30-30s-30 13.438-30 30h-6.719c0-20.156 16.563-36.719 36.719-36.719zM43.281 47.656v10.938l11.406 11.406-4.688 4.688-10-10-10 10-4.688-4.688 11.406-11.406v-10.938c-2.969-1.25-5-4.219-5-7.656 0-4.531 3.75-8.281 8.281-8.281s8.281 3.75 8.281 8.281c0 3.438-2.031 6.406-5 7.656zM40 16.719c12.969 0 23.281 10.313 23.281 23.281h-6.563c0-9.219-7.5-16.719-16.719-16.719s-16.719 7.5-16.719 16.719h-6.563c0-12.969 10.313-23.281 23.281-23.281z"></path>
</svg>
