<?xml version="1.0" encoding="utf-8"?>
<!-- Generated by IcoMoon.io -->
<!DOCTYPE svg PUBLIC "-//W3C//DTD SVG 1.1//EN" "http://www.w3.org/Graphics/SVG/1.1/DTD/svg11.dtd">
<svg version="1.1" xmlns="http://www.w3.org/2000/svg" xmlns:xlink="http://www.w3.org/1999/xlink" width="80" height="80" viewBox="0 0 80 80">
<path d="M60 53.594c5.313 0 9.688 4.375 9.688 9.688s-4.375 9.844-9.688 9.844-9.688-4.531-9.688-9.844c0-0.781 0-1.563 0.156-2.188l-23.594-13.75c-1.875 1.719-4.219 2.656-6.875 2.656-5.469 0-10-4.531-10-10s4.531-10 10-10c2.656 0 5 0.938 6.875 2.656l23.438-13.594c-0.156-0.781-0.313-1.563-0.313-2.344 0-5.469 4.531-10 10-10s10 4.531 10 10-4.531 10-10 10c-2.656 0-5-1.094-6.875-2.813l-23.438 13.75c0.156 0.781 0.313 1.563 0.313 2.344s-0.156 1.563-0.313 2.344l23.75 13.75c1.719-1.563 4.063-2.5 6.563-2.5z"></path>
</svg>
