<?xml version="1.0" encoding="utf-8"?>
<!-- Generated by IcoMoon.io -->
<!DOCTYPE svg PUBLIC "-//W3C//DTD SVG 1.1//EN" "http://www.w3.org/Graphics/SVG/1.1/DTD/svg11.dtd">
<svg version="1.1" xmlns="http://www.w3.org/2000/svg" xmlns:xlink="http://www.w3.org/1999/xlink" width="80" height="80" viewBox="0 0 80 80">
<path d="M67.5 55c-3.528 0-6.712 1.464-8.985 3.815l-33.672-16.836c0.103-0.645 0.158-1.305 0.158-1.979s-0.055-1.334-0.158-1.979l33.672-16.836c2.273 2.351 5.457 3.815 8.985 3.815 6.904 0 12.5-5.596 12.5-12.5s-5.596-12.5-12.5-12.5-12.5 5.596-12.5 12.5c0 0.674 0.055 1.334 0.157 1.979l-33.672 16.836c-2.273-2.351-5.457-3.815-8.985-3.815-6.904 0-12.5 5.597-12.5 12.5s5.596 12.5 12.5 12.5c3.528 0 6.713-1.464 8.985-3.815l33.672 16.836c-0.103 0.645-0.157 1.305-0.157 1.979 0 6.904 5.596 12.5 12.5 12.5s12.5-5.596 12.5-12.5c0-6.903-5.596-12.5-12.5-12.5z"></path>
</svg>
