<?xml version="1.0" encoding="utf-8"?>
<!-- Generated by IcoMoon.io -->
<!DOCTYPE svg PUBLIC "-//W3C//DTD SVG 1.1//EN" "http://www.w3.org/Graphics/SVG/1.1/DTD/svg11.dtd">
<svg version="1.1" xmlns="http://www.w3.org/2000/svg" xmlns:xlink="http://www.w3.org/1999/xlink" width="80" height="80" viewBox="0 0 80 80">
<path d="M52.5 70h-25c-1.381 0-2.5-1.119-2.5-2.5v-27.5h-10c-1.011 0-1.923-0.609-2.31-1.543s-0.173-2.010 0.542-2.725l25-25c0.976-0.976 2.559-0.976 3.535 0l25 25c0.715 0.715 0.929 1.79 0.542 2.725s-1.298 1.543-2.31 1.543h-10v27.5c0 1.381-1.119 2.5-2.5 2.5zM30 65h20v-27.5c0-1.381 1.119-2.5 2.5-2.5h6.464l-18.964-18.965-18.964 18.965h6.464c1.381 0 2.5 1.119 2.5 2.5v27.5z"></path>
</svg>
