<?xml version="1.0" encoding="utf-8"?>
<!-- Generated by IcoMoon.io -->
<!DOCTYPE svg PUBLIC "-//W3C//DTD SVG 1.1//EN" "http://www.w3.org/Graphics/SVG/1.1/DTD/svg11.dtd">
<svg version="1.1" xmlns="http://www.w3.org/2000/svg" xmlns:xlink="http://www.w3.org/1999/xlink" width="80" height="80" viewBox="0 0 80 80">
<path d="M40 0c-22.091 0-40 17.909-40 40s17.909 40 40 40 40-17.909 40-40-17.909-40-40-40zM25 35c-2.761 0-5-3.358-5-7.5s2.239-7.5 5-7.5 5 3.358 5 7.5-2.239 7.5-5 7.5zM40 65c-5.523 0-10-4.477-10-10s4.477-10 10-10c5.523 0 10 4.477 10 10s-4.477 10-10 10zM55 35c-2.761 0-5-3.358-5-7.5s2.239-7.5 5-7.5 5 3.358 5 7.5-2.239 7.5-5 7.5z"></path>
</svg>
