<?xml version="1.0" encoding="utf-8"?>
<!-- Generated by IcoMoon.io -->
<!DOCTYPE svg PUBLIC "-//W3C//DTD SVG 1.1//EN" "http://www.w3.org/Graphics/SVG/1.1/DTD/svg11.dtd">
<svg version="1.1" xmlns="http://www.w3.org/2000/svg" xmlns:xlink="http://www.w3.org/1999/xlink" width="80" height="80" viewBox="0 0 80 80">
<path d="M40 50l18.281-13.281-18.281-10v23.281zM40 10v6.719h13.281v-6.719h-13.281zM60 16.719h16.719v36.563c0 3.75-2.969 6.719-6.719 6.719h-46.719c-3.75 0-6.563-2.969-6.563-6.719v-36.563h16.563v-6.719c0-3.75 2.969-6.719 6.719-6.719h13.281c3.75 0 6.719 2.969 6.719 6.719v6.719zM10 30v36.719h53.281c0 3.75-2.813 6.563-6.563 6.563h-46.719c-3.75 0-6.719-2.813-6.719-6.563v-36.719h6.719z"></path>
</svg>
