<?xml version="1.0" encoding="utf-8"?>
<!-- Generated by IcoMoon.io -->
<!DOCTYPE svg PUBLIC "-//W3C//DTD SVG 1.1//EN" "http://www.w3.org/Graphics/SVG/1.1/DTD/svg11.dtd">
<svg version="1.1" xmlns="http://www.w3.org/2000/svg" xmlns:xlink="http://www.w3.org/1999/xlink" width="80" height="80" viewBox="0 0 80 80">
<path d="M40 56.719c3.594 0 6.719-3.125 6.719-6.719s-3.125-6.719-6.719-6.719-6.719 3.125-6.719 6.719 3.125 6.719 6.719 6.719zM30 30h20l-10-14.688zM57.344 30h15.938c1.875 0 3.438 1.406 3.438 3.281-2.705 10.784-5.758 21.221-8.594 31.875-0.781 2.813-3.281 4.844-6.406 4.844h-43.438c-3.125 0-5.625-2.031-6.406-4.844l-8.438-30.938c-0.156-0.313-0.156-0.625-0.156-0.938 0-1.875 1.563-3.281 3.438-3.281h15.938l14.531-21.875c0.625-0.938 1.719-1.406 2.813-1.406s2.188 0.469 2.813 1.406z"></path>
</svg>
