<?xml version="1.0" encoding="utf-8"?>
<!-- Generated by IcoMoon.io -->
<!DOCTYPE svg PUBLIC "-//W3C//DTD SVG 1.1//EN" "http://www.w3.org/Graphics/SVG/1.1/DTD/svg11.dtd">
<svg version="1.1" xmlns="http://www.w3.org/2000/svg" xmlns:xlink="http://www.w3.org/1999/xlink" width="80" height="80" viewBox="0 0 80 80">
<path d="M56.719 60c3.594 0 6.563 3.125 6.563 6.719s-2.969 6.563-6.563 6.563-6.719-2.969-6.719-6.563 3.125-6.719 6.719-6.719zM3.281 6.719h10.938l3.125 6.563h49.375c1.875 0 3.281 1.563 3.281 3.438 0 0.625-0.156 1.094-0.469 1.563l-11.875 21.563c-1.094 2.031-3.281 3.438-5.781 3.438h-24.844l-2.969 5.469-0.156 0.469c0 0.469 0.313 0.781 0.781 0.781h38.594v6.719h-40c-3.594 0-6.563-3.125-6.563-6.719 0-1.094 0.313-2.188 0.781-3.125l4.531-8.281-12.031-25.313h-6.719v-6.563zM23.281 60c3.594 0 6.719 3.125 6.719 6.719s-3.125 6.563-6.719 6.563-6.563-2.969-6.563-6.563 2.969-6.719 6.563-6.719z"></path>
</svg>
