<?xml version="1.0" encoding="utf-8"?>
<!-- Generated by IcoMoon.io -->
<!DOCTYPE svg PUBLIC "-//W3C//DTD SVG 1.1//EN" "http://www.w3.org/Graphics/SVG/1.1/DTD/svg11.dtd">
<svg version="1.1" xmlns="http://www.w3.org/2000/svg" xmlns:xlink="http://www.w3.org/1999/xlink" width="80" height="80" viewBox="0 0 80 80">
<path d="M60 55h-7.929l-12.5-12.5 12.5-12.5h7.929v12.5l17.5-17.5-17.5-17.5v12.5h-10c-1.326 0-2.598 0.527-3.535 1.465l-13.965 13.964-13.965-13.965c-0.938-0.938-2.209-1.464-3.535-1.464h-15v10h12.929l12.5 12.5-12.5 12.5h-12.929v10h15c1.326 0 2.598-0.527 3.535-1.465l13.965-13.964 13.965 13.964c0.938 0.938 2.209 1.465 3.535 1.465h10v12.5l17.5-17.5-17.5-17.5v12.5z"></path>
</svg>
