<?xml version="1.0" encoding="utf-8"?>
<!-- Generated by IcoMoon.io -->
<!DOCTYPE svg PUBLIC "-//W3C//DTD SVG 1.1//EN" "http://www.w3.org/Graphics/SVG/1.1/DTD/svg11.dtd">
<svg version="1.1" xmlns="http://www.w3.org/2000/svg" xmlns:xlink="http://www.w3.org/1999/xlink" width="80" height="80" viewBox="0 0 80 80">
<path d="M51.719 48.281v8.75l-11.719 14.688-38.594-48.438c1.406-0.938 16.25-13.281 38.594-13.281s37.188 12.344 38.594 13.281l-6.875 8.75c-0.938-0.313-2.031-0.313-3.438-0.313-9.375 0-16.563 7.188-16.563 16.563zM73.281 53.281v-5c0-2.656-2.344-5-5-5s-5 2.344-5 5v5h10zM76.719 53.281c1.719 0 3.281 1.719 3.281 3.438v13.281c0 1.719-1.563 3.281-3.281 3.281h-16.719c-1.719 0-3.281-1.563-3.281-3.281v-13.281c0-1.719 1.563-3.438 3.281-3.438v-5c0-4.688 3.594-8.281 8.281-8.281s8.438 3.594 8.438 8.281v5z"></path>
</svg>
