<?xml version="1.0" encoding="utf-8"?>
<!-- Generated by IcoMoon.io -->
<!DOCTYPE svg PUBLIC "-//W3C//DTD SVG 1.1//EN" "http://www.w3.org/Graphics/SVG/1.1/DTD/svg11.dtd">
<svg version="1.1" xmlns="http://www.w3.org/2000/svg" xmlns:xlink="http://www.w3.org/1999/xlink" width="80" height="80" viewBox="0 0 80 80">
<path d="M56.719 50v-13.281h-6.719v13.281h6.719zM43.281 43.281v-6.563h-6.563v6.563h6.563zM43.281 63.281v-13.281h-6.563v13.281h6.563zM30 50v-13.281h-6.719v13.281h6.719zM56.719 63.281v-6.563h-6.719v6.563h6.719zM30 63.281v-6.563h-6.719v6.563h6.719zM66.563 13.281l0.156 53.438c0 3.594-3.125 6.563-6.719 6.563h-40c-3.594 0-6.719-2.969-6.719-6.563v-40l20-20h26.719c3.594 0 6.563 2.969 6.563 6.563z"></path>
</svg>
