<?xml version="1.0" encoding="utf-8"?>
<!-- Generated by IcoMoon.io -->
<!DOCTYPE svg PUBLIC "-//W3C//DTD SVG 1.1//EN" "http://www.w3.org/Graphics/SVG/1.1/DTD/svg11.dtd">
<svg version="1.1" xmlns="http://www.w3.org/2000/svg" xmlns:xlink="http://www.w3.org/1999/xlink" width="80" height="80" viewBox="0 0 80 80">
<path d="M33.609 70.156c-13.25 1.313-24.688-4.688-25.547-13.375-0.859-8.703 9.188-16.797 22.422-18.109 13.25-1.313 24.688 4.688 25.531 13.375 0.875 8.703-9.172 16.812-22.406 18.109zM60.094 41.297c-1.125-0.344-1.906-0.563-1.312-2.047 1.281-3.219 1.406-5.984 0.016-7.969-2.594-3.703-9.703-3.516-17.844-0.094 0 0-2.563 1.109-1.906-0.906 1.25-4.031 1.063-7.391-0.891-9.344-4.422-4.422-16.172 0.172-26.25 10.25-7.531 7.516-11.906 15.531-11.906 22.453 0 13.219 16.969 21.266 33.563 21.266 21.75 0 36.234-12.641 36.234-22.672 0-6.078-5.109-9.516-9.703-10.938z"></path>
<path d="M74.547 17.078c-5.25-5.828-13-8.047-20.156-6.531v0c-1.656 0.359-2.703 1.984-2.344 3.625 0.359 1.656 1.969 2.703 3.625 2.344 5.094-1.078 10.594 0.5 14.328 4.641s4.75 9.781 3.141 14.719v0c-0.516 1.609 0.359 3.328 1.969 3.859 1.609 0.516 3.328-0.359 3.859-1.969v-0.016c2.25-6.906 0.828-14.844-4.422-20.672z"></path>
<path d="M66.469 24.375c-2.563-2.844-6.344-3.922-9.813-3.172-1.422 0.297-2.328 1.719-2.031 3.141 0.313 1.422 1.719 2.328 3.125 2.016v0c1.703-0.359 3.547 0.172 4.797 1.547 1.25 1.391 1.594 3.281 1.047 4.938v0c-0.438 1.375 0.313 2.875 1.703 3.328 1.391 0.438 2.875-0.313 3.328-1.703 1.094-3.391 0.406-7.266-2.156-10.094z"></path>
<path d="M34.344 54.422c-0.469 0.797-1.484 1.172-2.281 0.844-0.797-0.313-1.031-1.219-0.578-1.984 0.469-0.766 1.453-1.141 2.234-0.844 0.781 0.281 1.063 1.172 0.625 1.984zM30.109 59.828c-1.281 2.047-4.031 2.938-6.094 2-2.031-0.922-2.641-3.297-1.359-5.297 1.266-1.984 3.922-2.875 5.969-2.016 2.078 0.891 2.75 3.25 1.484 5.313zM34.922 45.359c-6.297-1.641-13.422 1.5-16.156 7.047-2.797 5.656-0.094 11.953 6.266 14.016 6.594 2.125 14.375-1.141 17.078-7.234 2.672-5.984-0.656-12.125-7.188-13.828z"></path>
</svg>
