<?xml version="1.0" encoding="utf-8"?>
<!-- Generated by IcoMoon.io -->
<!DOCTYPE svg PUBLIC "-//W3C//DTD SVG 1.1//EN" "http://www.w3.org/Graphics/SVG/1.1/DTD/svg11.dtd">
<svg version="1.1" xmlns="http://www.w3.org/2000/svg" xmlns:xlink="http://www.w3.org/1999/xlink" width="80" height="80" viewBox="0 0 80 80">
<path d="M33.25 2.922c-0.125-0.078-0.266-0.141-0.391-0.203-0.141 0.031-0.266 0.047-0.406 0.078l0.797 0.125z"></path>
<path d="M2.875 32.891c-0.031 0.141-0.047 0.281-0.063 0.406 0.078 0.125 0.125 0.25 0.203 0.375l-0.141-0.781z"></path>
<path d="M77.094 47.078c0.031-0.141 0.047-0.281 0.078-0.422-0.078-0.125-0.125-0.25-0.203-0.375l0.125 0.797z"></path>
<path d="M46.25 76.797c0.125 0.078 0.266 0.141 0.391 0.203 0.141-0.031 0.281-0.047 0.422-0.063l-0.813-0.141z"></path>
<path d="M77.172 46.656c-0.031 0.141-0.047 0.281-0.078 0.422l-0.141-0.813c0.078 0.141 0.141 0.266 0.219 0.391 0.406-2.25 0.625-4.547 0.625-6.844 0-5.094-1-10.047-2.969-14.703-1.906-4.5-4.625-8.547-8.094-12.016s-7.516-6.188-12-8.094c-4.656-1.969-9.609-2.969-14.703-2.969-2.406 0-4.813 0.219-7.156 0.672 0 0-0.016 0-0.016 0 0.125 0.063 0.266 0.125 0.391 0.203l-0.797-0.125c0.141-0.031 0.266-0.047 0.406-0.078-3.219-1.703-6.828-2.625-10.484-2.625-5.969 0-11.594 2.328-15.813 6.547s-6.547 9.844-6.547 15.813c0 3.797 0.984 7.547 2.813 10.844 0.031-0.141 0.047-0.281 0.062-0.406l0.141 0.797c-0.078-0.125-0.141-0.25-0.203-0.375-0.375 2.141-0.563 4.328-0.563 6.516 0 5.094 1 10.047 2.969 14.703 1.906 4.5 4.625 8.531 8.094 12s7.516 6.188 12.016 8.094c4.656 1.969 9.609 2.969 14.703 2.969 2.219 0 4.437-0.203 6.609-0.594-0.125-0.078-0.25-0.141-0.391-0.203l0.813 0.141c-0.141 0.031-0.281 0.047-0.422 0.062 3.344 1.891 7.141 2.906 11 2.906 5.969 0 11.594-2.328 15.813-6.547s6.547-9.844 6.547-15.813c-0.016-3.797-1-7.547-2.844-10.875zM40.172 62.953c-13.422 0-19.422-6.594-19.422-11.547 0-2.531 1.875-4.313 4.453-4.313 5.75 0 4.25 8.25 14.969 8.25 5.484 0 8.516-2.984 8.516-6.031 0-1.828-0.906-3.859-4.516-4.75l-11.938-2.984c-9.609-2.406-11.359-7.609-11.359-12.5 0-10.141 9.547-13.953 18.516-13.953 8.266 0 18 4.563 18 10.656 0 2.609-2.266 4.125-4.844 4.125-4.906 0-4-6.781-13.875-6.781-4.906 0-7.609 2.219-7.609 5.391s3.875 4.188 7.234 4.953l8.844 1.969c9.672 2.156 12.125 7.813 12.125 13.125 0 8.234-6.328 14.391-19.094 14.391z"></path>
</svg>
