<?xml version="1.0" encoding="utf-8"?>
<!-- Generated by IcoMoon.io -->
<!DOCTYPE svg PUBLIC "-//W3C//DTD SVG 1.1//EN" "http://www.w3.org/Graphics/SVG/1.1/DTD/svg11.dtd">
<svg version="1.1" xmlns="http://www.w3.org/2000/svg" xmlns:xlink="http://www.w3.org/1999/xlink" width="80" height="80" viewBox="0 0 80 80">
<path d="M40 80c22.091 0 40-17.909 40-40s-17.909-40-40-40-40 17.909-40 40 17.909 40 40 40zM40 7.5c17.949 0 32.5 14.551 32.5 32.5s-14.551 32.5-32.5 32.5-32.5-14.551-32.5-32.5 14.551-32.5 32.5-32.5z"></path>
<path d="M50 52.5c0 6.904-4.477 12.5-10 12.5s-10-5.596-10-12.5c0-6.904 4.477-12.5 10-12.5s10 5.596 10 12.5z"></path>
<path d="M32.5 26.563c-0.64 0-1.28-0.244-1.768-0.732-1.51-1.51-4.954-1.51-6.465 0-0.976 0.976-2.559 0.976-3.535 0s-0.976-2.559 0-3.535c3.479-3.479 10.057-3.479 13.535 0 0.976 0.976 0.976 2.559 0 3.535-0.488 0.488-1.128 0.732-1.768 0.732z"></path>
<path d="M57.5 26.563c-0.64 0-1.28-0.244-1.768-0.732-1.51-1.51-4.954-1.51-6.465 0-0.976 0.976-2.559 0.976-3.535 0s-0.976-2.559 0-3.535c3.479-3.479 10.057-3.479 13.535 0 0.976 0.976 0.976 2.559 0 3.535-0.488 0.488-1.128 0.732-1.768 0.732z"></path>
</svg>
