<?xml version="1.0" encoding="utf-8"?>
<!-- Generated by IcoMoon.io -->
<!DOCTYPE svg PUBLIC "-//W3C//DTD SVG 1.1//EN" "http://www.w3.org/Graphics/SVG/1.1/DTD/svg11.dtd">
<svg version="1.1" xmlns="http://www.w3.org/2000/svg" xmlns:xlink="http://www.w3.org/1999/xlink" width="80" height="80" viewBox="0 0 80 80">
<path d="M40 0c-22.091 0-40 17.909-40 40s17.909 40 40 40 40-17.909 40-40-17.909-40-40-40zM24.268 25.83c-0.976 0.976-2.559 0.976-3.535 0s-0.976-2.559 0-3.535c3.479-3.479 10.057-3.479 13.535 0 0.976 0.976 0.976 2.559 0 3.535-0.488 0.488-1.128 0.732-1.768 0.732s-1.28-0.244-1.768-0.732c-1.51-1.51-4.954-1.51-6.465 0zM40 65c-5.523 0-10-5.596-10-12.5s4.477-12.5 10-12.5 10 5.596 10 12.5-4.477 12.5-10 12.5zM59.268 25.83c-0.488 0.488-1.128 0.732-1.768 0.732s-1.28-0.244-1.768-0.732c-1.51-1.51-4.954-1.51-6.465 0-0.976 0.976-2.559 0.976-3.535 0s-0.976-2.559 0-3.535c3.479-3.479 10.057-3.479 13.535 0 0.976 0.976 0.976 2.559 0 3.535z"></path>
</svg>
