<?xml version="1.0" encoding="utf-8"?>
<!-- Generated by IcoMoon.io -->
<!DOCTYPE svg PUBLIC "-//W3C//DTD SVG 1.1//EN" "http://www.w3.org/Graphics/SVG/1.1/DTD/svg11.dtd">
<svg version="1.1" xmlns="http://www.w3.org/2000/svg" xmlns:xlink="http://www.w3.org/1999/xlink" width="80" height="80" viewBox="0 0 80 80">
<path d="M73.281 40c0 17.188-13.125 31.406-29.844 33.125v-6.719c13.125-1.719 23.281-12.969 23.281-26.406s-10.156-24.688-23.281-26.406v-6.719c16.719 1.719 29.844 15.938 29.844 33.125zM18.906 65.781l4.688-4.688c3.75 2.813 8.281 4.688 13.125 5.313v6.719c-6.719-0.625-12.813-3.281-17.813-7.344zM13.594 43.281c0.625 4.844 2.5 9.375 5.313 12.969l-4.688 4.844c-4.063-5-6.719-11.094-7.344-17.813h6.719zM18.906 23.594c-2.813 3.75-4.688 8.281-5.313 13.125h-6.719c0.625-6.719 3.281-12.813 7.344-17.813zM36.719 13.594c-4.844 0.625-9.375 2.5-13.125 5.313l-4.688-4.688c5-4.063 11.094-6.719 17.813-7.344v6.719zM43.438 32.656l9.844 7.344c-6.691 4.976-13.356 9.977-20 15z"></path>
</svg>
