<?xml version="1.0" encoding="utf-8"?>
<!-- Generated by IcoMoon.io -->
<!DOCTYPE svg PUBLIC "-//W3C//DTD SVG 1.1//EN" "http://www.w3.org/Graphics/SVG/1.1/DTD/svg11.dtd">
<svg version="1.1" xmlns="http://www.w3.org/2000/svg" xmlns:xlink="http://www.w3.org/1999/xlink" width="80" height="80" viewBox="0 0 80 80">
<path d="M53.438 34.063c6.25 0 11.563 4.375 11.563 10.469v5.469h-5v-4.375c0-4.375-3.125-6.719-6.563-6.719h-5.156c-6.094 0-11.094-5.156-11.094-11.25s5-11.094 11.094-11.094v5c-3.438 0-6.094 2.344-6.094 5.781s2.656 6.719 6.094 6.719h5.156zM62.813 25.781c6.25 2.969 10.469 9.375 10.469 16.719v7.5h-5v-7.5c0-7.5-5.781-13.438-13.281-13.438v-5c3.438 0 6.094-2.813 6.094-6.25s-2.656-6.094-6.094-6.094v-5c6.094 0 11.094 5 11.094 11.094 0 3.125-1.25 5.938-3.281 7.969zM60 53.281h5v10h-5v-10zM68.281 53.281h5v10h-5v-10zM6.719 53.281h50v10h-50v-10z"></path>
</svg>
