<?xml version="1.0" encoding="utf-8"?>
<!-- Generated by IcoMoon.io -->
<!DOCTYPE svg PUBLIC "-//W3C//DTD SVG 1.1//EN" "http://www.w3.org/Graphics/SVG/1.1/DTD/svg11.dtd">
<svg version="1.1" xmlns="http://www.w3.org/2000/svg" xmlns:xlink="http://www.w3.org/1999/xlink" width="80" height="80" viewBox="0 0 80 80">
<path d="M30 36.719v-6.719h20v5.938l-12.031 14.063h12.031v6.719h-20v-6.094l12.031-13.906h-12.031zM40 66.719c12.969 0 23.281-10.469 23.281-23.438s-10.313-23.281-23.281-23.281-23.281 10.313-23.281 23.281 10.313 23.438 23.281 23.438zM40 13.281c16.563 0 30 13.438 30 30s-13.438 30-30 30-30-13.438-30-30 13.438-30 30-30zM73.281 19.063l-4.219 5.156-15.313-12.969 4.219-5zM26.25 11.25l-15.313 12.813-4.219-5 15.313-12.813z"></path>
</svg>
