<?xml version="1.0" encoding="utf-8"?>
<!-- Generated by IcoMoon.io -->
<!DOCTYPE svg PUBLIC "-//W3C//DTD SVG 1.1//EN" "http://www.w3.org/Graphics/SVG/1.1/DTD/svg11.dtd">
<svg version="1.1" xmlns="http://www.w3.org/2000/svg" xmlns:xlink="http://www.w3.org/1999/xlink" width="80" height="80" viewBox="0 0 80 80">
<path d="M25 60v-60h-10v60h-12.5l17.5 17.5 17.5-17.5h-12.5z"></path>
<path d="M72.5 35h-20c-0.922 0-1.769-0.508-2.204-1.32s-0.387-1.799 0.124-2.566l17.409-26.113h-15.329c-1.381 0-2.5-1.119-2.5-2.5s1.119-2.5 2.5-2.5h20c0.922 0 1.769 0.508 2.204 1.32s0.387 1.799-0.124 2.566l-17.409 26.113h15.329c1.381 0 2.5 1.119 2.5 2.5s-1.119 2.5-2.5 2.5z"></path>
<path d="M79.736 76.382l-15-30c-0.423-0.847-1.289-1.382-2.236-1.382s-1.813 0.535-2.236 1.382l-15 30c-0.617 1.235-0.117 2.737 1.118 3.354 0.359 0.179 0.74 0.265 1.116 0.265 0.917 0 1.8-0.507 2.238-1.383l4.309-8.618h16.91l4.309 8.618c0.617 1.235 2.119 1.735 3.354 1.118s1.735-2.119 1.118-3.354zM56.545 65l5.955-11.91 5.955 11.91h-11.91z"></path>
</svg>
