<?xml version="1.0" encoding="utf-8"?>
<!-- Generated by IcoMoon.io -->
<!DOCTYPE svg PUBLIC "-//W3C//DTD SVG 1.1//EN" "http://www.w3.org/Graphics/SVG/1.1/DTD/svg11.dtd">
<svg version="1.1" xmlns="http://www.w3.org/2000/svg" xmlns:xlink="http://www.w3.org/1999/xlink" width="80" height="80" viewBox="0 0 80 80">
<path d="M25 60v-60h-10v60h-12.5l17.5 17.5 17.5-17.5h-12.5z"></path>
<path d="M67.5 80c-1.381 0-2.5-1.119-2.5-2.5v-27.5h-2.5c-1.381 0-2.5-1.119-2.5-2.5s1.119-2.5 2.5-2.5h5c1.381 0 2.5 1.119 2.5 2.5v30c0 1.381-1.119 2.5-2.5 2.5z"></path>
<path d="M72.5 0h-15c-1.381 0-2.5 1.119-2.5 2.5v15c0 1.381 1.119 2.5 2.5 2.5h12.5v10h-12.5c-1.381 0-2.5 1.119-2.5 2.5s1.119 2.5 2.5 2.5h15c1.381 0 2.5-1.119 2.5-2.5v-30c0-1.381-1.119-2.5-2.5-2.5zM60 5h10v10h-10v-10z"></path>
</svg>
