<?xml version="1.0" encoding="utf-8"?>
<!-- Generated by IcoMoon.io -->
<!DOCTYPE svg PUBLIC "-//W3C//DTD SVG 1.1//EN" "http://www.w3.org/Graphics/SVG/1.1/DTD/svg11.dtd">
<svg version="1.1" xmlns="http://www.w3.org/2000/svg" xmlns:xlink="http://www.w3.org/1999/xlink" width="80" height="80" viewBox="0 0 80 80">
<path d="M69.684 40.172c-1.413 0-2.762 0.275-3.989 0.77-0.821-8.934-8.616-15.942-18.125-15.942-2.327 0-4.585 0.44-6.587 1.185-0.778 0.289-0.983 0.587-0.983 1.165v31.462c0 0.607 0.488 1.112 1.103 1.172 0.026 0.003 28.401 0.016 28.585 0.016 5.696 0 10.311-4.439 10.311-9.914s-4.62-9.914-10.316-9.914zM31.25 60h2.5l1.25-17.517-1.25-17.483h-2.5l-1.25 17.483zM23.75 60h-2.5l-1.25-12.715 1.25-12.285h2.5l1.25 12.5zM11.25 60h2.5l1.25-10-1.25-10h-2.5l-1.25 10zM1.25 55h2.5l1.25-5-1.25-5h-2.5l-1.25 5z"></path>
</svg>
