<?xml version="1.0" encoding="utf-8"?>
<!-- Generated by IcoMoon.io -->
<!DOCTYPE svg PUBLIC "-//W3C//DTD SVG 1.1//EN" "http://www.w3.org/Graphics/SVG/1.1/DTD/svg11.dtd">
<svg version="1.1" xmlns="http://www.w3.org/2000/svg" xmlns:xlink="http://www.w3.org/1999/xlink" width="80" height="80" viewBox="0 0 80 80">
<path d="M72.5 0h-65c-4.125 0-7.5 3.375-7.5 7.5v65c0 4.125 3.375 7.5 7.5 7.5h65c4.125 0 7.5-3.375 7.5-7.5v-65c0-4.125-3.375-7.5-7.5-7.5zM13.75 55h-2.5l-1.25-7.5 1.25-7.5h2.5l1.25 7.5-1.25 7.5zM23.75 55h-2.5l-1.25-10 1.25-10h2.5l1.25 10-1.25 10zM33.75 55h-2.5l-1.25-15 1.25-15h2.5l1.25 15-1.25 15zM64.469 55c-0.156 0-23.531-0.016-23.547-0.016-0.5-0.047-0.906-0.484-0.922-1v-26.969c0-0.5 0.172-0.75 0.813-1 1.656-0.641 3.516-1.016 5.438-1.016 7.828 0 14.25 6 14.937 13.672 1.016-0.422 2.125-0.656 3.281-0.656 4.688 0 8.5 3.813 8.5 8.5s-3.813 8.484-8.5 8.484z"></path>
</svg>
