<?xml version="1.0" encoding="utf-8"?>
<!-- Generated by IcoMoon.io -->
<!DOCTYPE svg PUBLIC "-//W3C//DTD SVG 1.1//EN" "http://www.w3.org/Graphics/SVG/1.1/DTD/svg11.dtd">
<svg version="1.1" xmlns="http://www.w3.org/2000/svg" xmlns:xlink="http://www.w3.org/1999/xlink" width="80" height="80" viewBox="0 0 80 80">
<path d="M51.563 32.031c-4.219 2.344-8.125 5.313-11.563 8.906-3.438-3.594-7.344-6.563-11.563-8.906 0.781-9.219 4.531-18.125 11.719-25.313 7.031 7.031 10.781 15.938 11.406 25.313zM6.719 33.281c14.87 0 26.835 8.472 33.281 18.281 6.453-9.819 18.415-18.281 33.281-18.281 0 17.656-11.094 32.656-26.719 38.281-2.188 0.781-4.219 1.25-6.563 1.719-2.344-0.313-4.531-0.938-6.563-1.719-15.625-5.625-26.719-20.625-26.719-38.281z"></path>
</svg>
