<?xml version="1.0" encoding="utf-8"?>
<!-- Generated by IcoMoon.io -->
<!DOCTYPE svg PUBLIC "-//W3C//DTD SVG 1.1//EN" "http://www.w3.org/Graphics/SVG/1.1/DTD/svg11.dtd">
<svg version="1.1" xmlns="http://www.w3.org/2000/svg" xmlns:xlink="http://www.w3.org/1999/xlink" width="80" height="80" viewBox="0 0 80 80">
<path d="M40 40c5.469 0 10 4.531 10 10s-4.531 10-10 10-10-4.531-10-10 4.531-10 10-10zM40 66.719c9.219 0 16.719-7.5 16.719-16.719s-7.5-16.719-16.719-16.719-16.719 7.5-16.719 16.719 7.5 16.719 16.719 16.719zM40 13.281c-3.75 0-6.719 3.125-6.719 6.719s2.969 6.719 6.719 6.719c3.594 0 6.719-3.125 6.719-6.719s-3.125-6.719-6.719-6.719zM56.719 6.719c3.594 0 6.563 2.969 6.563 6.563v53.438c0 3.594-2.969 6.563-6.563 6.563h-33.438c-3.594 0-6.563-2.969-6.563-6.563v-53.438c0-3.594 2.969-6.563 6.563-6.563h33.438z"></path>
</svg>
