<?xml version="1.0" encoding="utf-8"?>
<!-- Generated by IcoMoon.io -->
<!DOCTYPE svg PUBLIC "-//W3C//DTD SVG 1.1//EN" "http://www.w3.org/Graphics/SVG/1.1/DTD/svg11.dtd">
<svg version="1.1" xmlns="http://www.w3.org/2000/svg" xmlns:xlink="http://www.w3.org/1999/xlink" width="80" height="80" viewBox="0 0 80 80">
<path d="M20 16.719v53.281h33.281v6.719h-33.281c-3.75 0-6.719-3.125-6.719-6.719v-53.281h6.719zM38.281 41.719c0-4.531 3.906-8.438 8.438-8.438s8.281 3.906 8.281 8.438-3.75 8.281-8.281 8.281-8.438-3.75-8.438-8.281zM46.719 55c7.344 0 13.281-5.938 13.281-13.281s-5.938-13.438-13.281-13.438-13.438 6.094-13.438 13.438 6.094 13.281 13.438 13.281zM46.719 10c-3.594 0-6.719 2.969-6.719 6.719s3.125 6.563 6.719 6.563 6.563-2.813 6.563-6.563-2.969-6.719-6.563-6.719zM60.625 3.281c3.281 0 6.094 2.813 6.094 6.094v47.969c0 3.281-2.813 5.938-6.094 5.938h-27.969c-3.281 0-5.938-2.656-5.938-5.938v-47.969c0-3.281 2.656-6.094 5.938-6.094h27.969z"></path>
</svg>
