<?xml version="1.0" encoding="utf-8"?>
<!-- Generated by IcoMoon.io -->
<!DOCTYPE svg PUBLIC "-//W3C//DTD SVG 1.1//EN" "http://www.w3.org/Graphics/SVG/1.1/DTD/svg11.dtd">
<svg version="1.1" xmlns="http://www.w3.org/2000/svg" xmlns:xlink="http://www.w3.org/1999/xlink" width="80" height="80" viewBox="0 0 80 80">
<path d="M50 66.719v-26.719h-20v26.719h20zM49.531 33.438c2.031 0 3.75 1.719 3.75 3.75v32.344c0 2.031-1.719 3.75-3.75 3.75h-19.063c-2.031 0-3.75-1.719-3.75-3.75v-32.344c0-2.031 1.719-3.906 3.75-3.906zM40 3.281c10 0 19.219 4.219 25.781 10.781l-4.688 4.688c-5.469-5.469-12.813-8.75-21.094-8.75s-15.625 3.281-21.094 8.75l-4.688-4.688c6.563-6.563 15.781-10.781 25.781-10.781zM23.281 23.594c4.219-4.219 10.156-6.875 16.719-6.875s12.5 2.656 16.719 6.875l-4.844 4.688c-2.969-2.969-7.188-4.844-11.875-4.844s-8.906 1.875-11.875 4.844z"></path>
</svg>
