<?xml version="1.0" encoding="utf-8"?>
<!-- Generated by IcoMoon.io -->
<!DOCTYPE svg PUBLIC "-//W3C//DTD SVG 1.1//EN" "http://www.w3.org/Graphics/SVG/1.1/DTD/svg11.dtd">
<svg version="1.1" xmlns="http://www.w3.org/2000/svg" xmlns:xlink="http://www.w3.org/1999/xlink" width="80" height="80" viewBox="0 0 80 80">
<path d="M10 20h10v15h5v-30c0-2.75-2.25-5-5-5h-10c-2.75 0-5 2.25-5 5v30h5v-15zM10 5h10v10h-10v-10zM75 5v-5h-15c-2.75 0-5 2.25-5 5v25c0 2.75 2.25 5 5 5h15v-5h-15v-25h15zM50 12.5v-7.5c0-2.75-2.25-5-5-5h-15v35h15c2.75 0 5-2.25 5-5v-7.5c0-2.75-0.688-5-3.438-5 2.75 0 3.438-2.25 3.438-5zM45 30h-10v-10h10v10zM45 15h-10v-10h10v10zM65 45l-32.5 35-17.5-22.5 6.406-5.469 11.094 11.563 27.5-23.594z"></path>
</svg>
