<?xml version="1.0" encoding="utf-8"?>
<!-- Generated by IcoMoon.io -->
<!DOCTYPE svg PUBLIC "-//W3C//DTD SVG 1.1//EN" "http://www.w3.org/Graphics/SVG/1.1/DTD/svg11.dtd">
<svg version="1.1" xmlns="http://www.w3.org/2000/svg" xmlns:xlink="http://www.w3.org/1999/xlink" width="80" height="80" viewBox="0 0 80 80">
<path d="M37.5 5c-20.711 0-37.5 16.789-37.5 37.5s16.789 37.5 37.5 37.5c20.711 0 37.5-16.789 37.5-37.5s-16.789-37.5-37.5-37.5zM58.718 55c0.67-3.16 1.093-6.515 1.231-10h9.957c-0.261 3.453-1.064 6.806-2.397 10h-8.791zM16.282 30c-0.67 3.16-1.093 6.515-1.231 10h-9.957c0.261-3.453 1.064-6.806 2.397-10h8.791zM53.597 30c0.751 3.2 1.203 6.551 1.35 10h-14.947v-10h13.597zM40 25v-14.636c1.14 0.332 2.269 0.888 3.377 1.67 2.077 1.464 4.063 3.719 5.745 6.522 1.163 1.938 2.168 4.095 3.008 6.444h-12.13zM25.878 18.556c1.682-2.803 3.668-5.058 5.745-6.522 1.108-0.781 2.237-1.338 3.377-1.67v14.636h-12.13c0.84-2.349 1.845-4.506 3.007-6.444zM35 30v10h-14.946c0.147-3.449 0.599-6.8 1.35-10h13.597zM7.491 55c-1.333-3.194-2.136-6.547-2.397-10h9.957c0.138 3.485 0.561 6.84 1.231 10h-8.791zM20.054 45h14.946v10h-13.597c-0.751-3.2-1.203-6.551-1.35-10zM35 60v14.636c-1.14-0.332-2.269-0.888-3.377-1.67-2.077-1.464-4.064-3.72-5.745-6.522-1.163-1.938-2.168-4.095-3.008-6.444h12.13zM49.123 66.444c-1.682 2.803-3.669 5.058-5.745 6.522-1.108 0.781-2.237 1.338-3.377 1.67v-14.636h12.13c-0.84 2.349-1.845 4.506-3.008 6.444zM40 55v-10h14.946c-0.147 3.449-0.599 6.8-1.35 10h-13.596zM59.949 40c-0.138-3.485-0.561-6.84-1.231-10h8.791c1.332 3.194 2.136 6.547 2.397 10h-9.957zM64.895 25h-7.492c-1.456-4.591-3.467-8.617-5.884-11.83 3.323 1.589 6.333 3.72 8.962 6.349 1.678 1.678 3.153 3.511 4.414 5.481zM14.519 19.519c2.63-2.63 5.639-4.76 8.962-6.349-2.417 3.214-4.428 7.24-5.884 11.83h-7.492c1.261-1.97 2.736-3.803 4.414-5.481zM10.105 60h7.492c1.456 4.591 3.467 8.617 5.884 11.83-3.323-1.589-6.333-3.72-8.962-6.35-1.678-1.678-3.153-3.511-4.414-5.481zM60.481 65.481c-2.629 2.63-5.639 4.76-8.962 6.35 2.417-3.214 4.428-7.24 5.884-11.83h7.492c-1.261 1.97-2.736 3.803-4.414 5.481z"></path>
</svg>
