<?xml version="1.0" encoding="utf-8"?>
<!-- Generated by IcoMoon.io -->
<!DOCTYPE svg PUBLIC "-//W3C//DTD SVG 1.1//EN" "http://www.w3.org/Graphics/SVG/1.1/DTD/svg11.dtd">
<svg version="1.1" xmlns="http://www.w3.org/2000/svg" xmlns:xlink="http://www.w3.org/1999/xlink" width="80" height="80" viewBox="0 0 80 80">
<path d="M80 40c-0.1-5.224-1.233-10.431-3.326-15.192-2.086-4.766-5.114-9.083-8.831-12.65-3.715-3.57-8.121-6.392-12.889-8.254-4.766-1.869-9.89-2.762-14.953-2.654-5.063 0.1-10.104 1.201-14.714 3.231-4.613 2.023-8.792 4.959-12.245 8.561-3.455 3.6-6.184 7.868-7.983 12.484-1.806 4.614-2.666 9.572-2.558 14.474 0.1 4.903 1.169 9.777 3.135 14.235 1.96 4.461 4.803 8.502 8.29 11.84 3.485 3.34 7.615 5.977 12.079 7.712 4.462 1.743 9.254 2.57 13.995 2.463 4.743-0.101 9.45-1.137 13.756-3.040 4.309-1.897 8.212-4.647 11.435-8.019 3.225-3.37 5.769-7.362 7.442-11.674 1.018-2.614 1.709-5.344 2.074-8.109 0.097 0.006 0.195 0.009 0.294 0.009 2.761 0 5-2.238 5-5 0-0.14-0.007-0.279-0.019-0.417h0.019zM72.055 53.277c-1.834 4.156-4.491 7.922-7.748 11.030-3.255 3.11-7.109 5.561-11.269 7.171-4.158 1.615-8.616 2.379-13.038 2.272-4.422-0.101-8.797-1.073-12.798-2.85-4.004-1.771-7.632-4.335-10.625-7.477-2.995-3.14-5.354-6.857-6.9-10.864-1.552-4.007-2.283-8.298-2.177-12.559 0.102-4.262 1.041-8.47 2.754-12.32 1.708-3.852 4.18-7.341 7.207-10.22 3.026-2.88 6.604-5.146 10.459-6.629 3.855-1.489 7.979-2.188 12.080-2.082 4.102 0.102 8.143 1.009 11.841 2.659 3.699 1.645 7.051 4.024 9.814 6.936 2.765 2.911 4.938 6.351 6.359 10.054 1.426 3.702 2.092 7.661 1.986 11.601h0.019c-0.011 0.137-0.019 0.276-0.019 0.417 0 2.579 1.953 4.701 4.46 4.971-0.486 2.72-1.291 5.376-2.405 7.89z"></path>
</svg>
