<?xml version="1.0" encoding="utf-8"?>
<!-- Generated by IcoMoon.io -->
<!DOCTYPE svg PUBLIC "-//W3C//DTD SVG 1.1//EN" "http://www.w3.org/Graphics/SVG/1.1/DTD/svg11.dtd">
<svg version="1.1" xmlns="http://www.w3.org/2000/svg" xmlns:xlink="http://www.w3.org/1999/xlink" width="80" height="80" viewBox="0 0 80 80">
<path d="M80 30h-30l11.213-11.213c-5.666-5.666-13.2-8.787-21.213-8.787s-15.547 3.121-21.213 8.787c-5.666 5.666-8.787 13.2-8.787 21.213s3.121 15.547 8.787 21.213c5.666 5.666 13.2 8.787 21.213 8.787s15.547-3.121 21.213-8.787c0.473-0.473 0.927-0.96 1.364-1.458l7.525 6.585c-7.332 8.372-18.099 13.661-30.102 13.661-22.091 0-40-17.909-40-40s17.909-40 40-40c11.046 0 21.044 4.479 28.282 11.718l11.718-11.718v30z"></path>
</svg>
