<?xml version="1.0" encoding="utf-8"?>
<!-- Generated by IcoMoon.io -->
<!DOCTYPE svg PUBLIC "-//W3C//DTD SVG 1.1//EN" "http://www.w3.org/Graphics/SVG/1.1/DTD/svg11.dtd">
<svg version="1.1" xmlns="http://www.w3.org/2000/svg" xmlns:xlink="http://www.w3.org/1999/xlink" width="80" height="80" viewBox="0 0 80 80">
<path d="M40 23.679c-2.575 0-4.663-2.088-4.663-4.663v-13.989c0-2.575 2.088-4.663 4.663-4.663s4.663 2.088 4.663 4.663v13.989c0 2.575-2.088 4.663-4.663 4.663z"></path>
<path d="M40 77.887c-1.61 0-2.914-1.305-2.914-2.914v-13.989c0-1.61 1.305-2.914 2.914-2.914s2.914 1.305 2.914 2.914v13.989c0 1.61-1.305 2.914-2.914 2.914z"></path>
<path d="M29.512 26.2c-1.511 0-2.98-0.784-3.79-2.187l-6.995-12.115c-1.207-2.091-0.491-4.765 1.6-5.972s4.765-0.491 5.972 1.6l6.995 12.115c1.207 2.091 0.491 4.765-1.6 5.972-0.688 0.397-1.44 0.586-2.182 0.586z"></path>
<path d="M57.489 72.911c-0.906 0-1.788-0.47-2.274-1.312l-6.995-12.115c-0.724-1.254-0.295-2.859 0.96-3.583s2.859-0.295 3.583 0.96l6.995 12.115c0.724 1.255 0.294 2.859-0.96 3.583-0.413 0.238-0.864 0.352-1.309 0.352z"></path>
<path d="M21.824 33.589c-0.692 0-1.394-0.176-2.036-0.547l-12.115-6.995c-1.951-1.127-2.62-3.622-1.493-5.574s3.622-2.62 5.574-1.493l12.115 6.995c1.952 1.127 2.62 3.622 1.493 5.573-0.755 1.309-2.127 2.041-3.537 2.041z"></path>
<path d="M70.285 59.818c-0.396 0-0.797-0.101-1.164-0.313l-12.115-6.995c-1.115-0.644-1.497-2.070-0.853-3.185s2.070-1.497 3.185-0.853l12.115 6.995c1.115 0.644 1.497 2.070 0.853 3.185-0.432 0.748-1.216 1.166-2.021 1.166z"></path>
<path d="M19.016 43.789h-13.989c-2.093 0-3.789-1.696-3.789-3.789s1.696-3.789 3.789-3.789h13.989c2.093 0 3.789 1.696 3.789 3.789s-1.696 3.789-3.789 3.789z"></path>
<path d="M74.973 42.332c-0 0 0 0 0 0h-13.989c-1.288-0-2.332-1.044-2.332-2.332s1.044-2.332 2.332-2.332c0 0 0 0 0 0h13.989c1.288 0 2.332 1.044 2.332 2.332s-1.044 2.332-2.332 2.332z"></path>
<path d="M9.716 60.984c-1.209 0-2.384-0.627-3.032-1.749-0.966-1.673-0.393-3.812 1.28-4.777l12.115-6.995c1.673-0.966 3.812-0.393 4.777 1.28s0.393 3.812-1.28 4.777l-12.115 6.995c-0.551 0.318-1.152 0.469-1.745 0.469z"></path>
<path d="M58.174 31.84c-0.806 0-1.59-0.418-2.021-1.166-0.644-1.115-0.262-2.541 0.853-3.185l12.115-6.994c1.115-0.643 2.541-0.262 3.185 0.853s0.262 2.541-0.853 3.185l-12.115 6.994c-0.367 0.212-0.768 0.313-1.164 0.313z"></path>
<path d="M22.511 73.493c-0.544 0-1.095-0.139-1.6-0.43-1.533-0.885-2.059-2.846-1.173-4.379l6.995-12.115c0.885-1.533 2.846-2.059 4.379-1.174s2.059 2.846 1.173 4.379l-6.995 12.115c-0.594 1.029-1.671 1.603-2.779 1.603z"></path>
<path d="M50.49 24.16c-0.395 0-0.797-0.101-1.164-0.313-1.115-0.644-1.497-2.070-0.853-3.185l6.995-12.115c0.644-1.115 2.070-1.497 3.185-0.853s1.497 2.070 0.853 3.185l-6.995 12.115c-0.432 0.748-1.216 1.166-2.021 1.166z"></path>
</svg>
