<?xml version="1.0" encoding="utf-8"?>
<!-- Generated by IcoMoon.io -->
<!DOCTYPE svg PUBLIC "-//W3C//DTD SVG 1.1//EN" "http://www.w3.org/Graphics/SVG/1.1/DTD/svg11.dtd">
<svg version="1.1" xmlns="http://www.w3.org/2000/svg" xmlns:xlink="http://www.w3.org/1999/xlink" width="80" height="80" viewBox="0 0 80 80">
<path d="M30 10c0-5.523 4.477-10 10-10s10 4.477 10 10c0 5.523-4.477 10-10 10s-10-4.477-10-10zM61.796 40c0 0 0 0 0 0 0-4.531 3.673-8.204 8.204-8.204s8.204 3.673 8.204 8.204c0 0 0 0 0 0 0 4.531-3.673 8.204-8.204 8.204s-8.204-3.673-8.204-8.204zM53.783 61.213c0-4.104 3.327-7.43 7.43-7.43s7.43 3.327 7.43 7.43c0 4.104-3.327 7.43-7.43 7.43s-7.43-3.327-7.43-7.43zM33.27 70c0-3.717 3.013-6.73 6.73-6.73s6.73 3.013 6.73 6.73c0 3.717-3.013 6.73-6.73 6.73s-6.73-3.013-6.73-6.73zM12.692 61.213c0-3.366 2.729-6.095 6.095-6.095s6.095 2.729 6.095 6.095c0 3.366-2.729 6.095-6.095 6.095s-6.095-2.729-6.095-6.095zM4.48 40c0-3.049 2.472-5.52 5.52-5.52s5.52 2.472 5.52 5.52c0 3.049-2.472 5.52-5.52 5.52s-5.52-2.472-5.52-5.52zM13.787 18.787c0 0 0 0 0 0 0-2.761 2.239-5 5-5s5 2.239 5 5c0 0 0 0 0 0 0 2.761-2.239 5-5 5s-5-2.239-5-5zM70.271 18.787c0 5.002-4.055 9.057-9.058 9.057s-9.058-4.055-9.058-9.057c0-5.003 4.056-9.057 9.058-9.057s9.058 4.055 9.058 9.057z"></path>
</svg>
