<?xml version="1.0" encoding="utf-8"?>
<!-- Generated by IcoMoon.io -->
<!DOCTYPE svg PUBLIC "-//W3C//DTD SVG 1.1//EN" "http://www.w3.org/Graphics/SVG/1.1/DTD/svg11.dtd">
<svg version="1.1" xmlns="http://www.w3.org/2000/svg" xmlns:xlink="http://www.w3.org/1999/xlink" width="80" height="80" viewBox="0 0 80 80">
<path d="M0.003 40.126l-0.002 0c0 0 0.001 0.007 0.002 0.017 0.009 0.303 0.043 0.6 0.103 0.887 0.016 0.136 0.033 0.286 0.053 0.451 0.017 0.147 0.036 0.306 0.056 0.475 0.029 0.2 0.060 0.413 0.093 0.639 0.067 0.449 0.141 0.947 0.227 1.481 0.105 0.504 0.219 1.048 0.341 1.63 0.055 0.29 0.139 0.586 0.218 0.891 0.080 0.304 0.162 0.617 0.247 0.938 0.044 0.16 0.081 0.323 0.133 0.485s0.103 0.326 0.155 0.492c0.105 0.331 0.213 0.669 0.323 1.015 0.028 0.086 0.055 0.173 0.083 0.26 0.032 0.086 0.064 0.172 0.096 0.259 0.065 0.173 0.13 0.348 0.195 0.525 0.133 0.351 0.267 0.709 0.405 1.074 0.154 0.357 0.31 0.72 0.469 1.089 0.080 0.183 0.16 0.368 0.24 0.555 0.082 0.186 0.177 0.367 0.266 0.553 0.181 0.368 0.365 0.742 0.552 1.12 0.193 0.374 0.407 0.743 0.613 1.119 0.104 0.187 0.209 0.376 0.315 0.565 0.107 0.188 0.227 0.371 0.34 0.558 0.23 0.37 0.463 0.744 0.698 1.121 0.987 1.476 2.084 2.935 3.298 4.319 1.227 1.373 2.557 2.676 3.96 3.875 1.42 1.182 2.911 2.258 4.432 3.212 1.532 0.94 3.097 1.743 4.639 2.433 0.391 0.159 0.778 0.317 1.162 0.474 0.192 0.076 0.38 0.159 0.573 0.228 0.193 0.068 0.385 0.135 0.576 0.203 0.383 0.132 0.756 0.271 1.132 0.39 0.377 0.112 0.75 0.222 1.118 0.331 0.184 0.053 0.364 0.111 0.547 0.157s0.365 0.089 0.546 0.133c0.36 0.087 0.714 0.173 1.063 0.258 0.352 0.068 0.697 0.135 1.037 0.2 0.169 0.032 0.337 0.064 0.503 0.095 0.083 0.016 0.165 0.031 0.247 0.047 0.083 0.012 0.165 0.023 0.247 0.035 0.328 0.045 0.648 0.090 0.961 0.134 0.156 0.021 0.31 0.043 0.463 0.064 0.152 0.022 0.305 0.030 0.454 0.045 0.299 0.026 0.589 0.052 0.872 0.077s0.555 0.054 0.822 0.058c0.018 0.001 0.035 0.001 0.053 0.002 0.048 2.72 2.266 4.91 4.998 4.91 0.042 0 0.084-0.002 0.127-0.003v0.002c0 0 0.007-0.001 0.018-0.002 0.303-0.009 0.6-0.043 0.887-0.103 0.137-0.016 0.286-0.033 0.451-0.053 0.147-0.017 0.306-0.036 0.475-0.056 0.2-0.029 0.413-0.060 0.639-0.093 0.449-0.067 0.947-0.141 1.481-0.227 0.504-0.105 1.048-0.219 1.63-0.341 0.29-0.056 0.586-0.139 0.891-0.218 0.304-0.080 0.617-0.163 0.938-0.247 0.16-0.044 0.323-0.081 0.485-0.133s0.326-0.103 0.492-0.155c0.331-0.105 0.669-0.213 1.015-0.323 0.086-0.028 0.173-0.055 0.26-0.083 0.086-0.032 0.172-0.064 0.259-0.096 0.173-0.064 0.348-0.13 0.525-0.195 0.351-0.133 0.709-0.267 1.073-0.405 0.357-0.154 0.72-0.31 1.089-0.469 0.183-0.080 0.368-0.16 0.555-0.24 0.186-0.082 0.367-0.177 0.553-0.266 0.368-0.181 0.742-0.365 1.12-0.552 0.374-0.193 0.743-0.407 1.119-0.613 0.187-0.104 0.376-0.209 0.565-0.315 0.188-0.107 0.371-0.227 0.558-0.34 0.37-0.231 0.744-0.463 1.121-0.698 1.476-0.987 2.935-2.084 4.319-3.298 1.373-1.227 2.676-2.557 3.875-3.96 1.182-1.42 2.258-2.911 3.212-4.432 0.94-1.531 1.743-3.097 2.433-4.639 0.16-0.391 0.317-0.778 0.474-1.162 0.076-0.192 0.159-0.38 0.228-0.573 0.068-0.193 0.135-0.385 0.203-0.576 0.132-0.383 0.271-0.756 0.39-1.132 0.112-0.377 0.222-0.75 0.331-1.118 0.053-0.184 0.112-0.364 0.157-0.547 0.045-0.183 0.089-0.365 0.133-0.546 0.087-0.36 0.173-0.714 0.258-1.063 0.068-0.352 0.134-0.698 0.2-1.037 0.032-0.169 0.064-0.337 0.095-0.503 0.016-0.083 0.031-0.165 0.047-0.247 0.012-0.083 0.023-0.165 0.035-0.248 0.045-0.327 0.090-0.648 0.133-0.961 0.022-0.156 0.043-0.31 0.064-0.463 0.022-0.152 0.029-0.305 0.044-0.454 0.026-0.299 0.052-0.59 0.077-0.872s0.054-0.555 0.058-0.822c0.002-0.042 0.003-0.082 0.005-0.123 2.752-0.011 4.979-2.245 4.979-4.999 0-0.042-0.002-0.084-0.003-0.127h0.002c0 0-0.001-0.007-0.002-0.017-0.009-0.303-0.043-0.6-0.103-0.887-0.016-0.137-0.033-0.286-0.053-0.451-0.017-0.147-0.036-0.306-0.056-0.475-0.029-0.2-0.060-0.414-0.093-0.639-0.067-0.449-0.141-0.947-0.227-1.481-0.105-0.503-0.219-1.048-0.341-1.63-0.055-0.291-0.139-0.586-0.218-0.891-0.080-0.304-0.162-0.617-0.247-0.938-0.044-0.16-0.081-0.323-0.133-0.485s-0.103-0.326-0.155-0.492c-0.105-0.331-0.213-0.669-0.323-1.015-0.028-0.086-0.055-0.173-0.083-0.26-0.032-0.086-0.064-0.172-0.096-0.259-0.065-0.173-0.13-0.348-0.195-0.525-0.132-0.351-0.267-0.709-0.405-1.073-0.154-0.357-0.31-0.72-0.469-1.089-0.080-0.183-0.16-0.368-0.24-0.555-0.082-0.186-0.177-0.367-0.266-0.553-0.181-0.368-0.365-0.742-0.552-1.12-0.193-0.374-0.407-0.743-0.613-1.119-0.104-0.187-0.209-0.376-0.315-0.565-0.107-0.188-0.227-0.371-0.34-0.558-0.23-0.37-0.463-0.744-0.698-1.121-0.987-1.476-2.084-2.935-3.298-4.319-1.227-1.373-2.557-2.676-3.96-3.875-1.42-1.182-2.911-2.258-4.432-3.212-1.532-0.94-3.097-1.743-4.639-2.433-0.391-0.159-0.778-0.317-1.162-0.474-0.192-0.076-0.38-0.159-0.573-0.228-0.193-0.068-0.385-0.135-0.576-0.202-0.383-0.132-0.756-0.271-1.132-0.39-0.377-0.112-0.75-0.222-1.118-0.331-0.184-0.053-0.364-0.112-0.547-0.157-0.183-0.045-0.365-0.089-0.546-0.133-0.36-0.087-0.714-0.173-1.063-0.258-0.352-0.068-0.697-0.134-1.037-0.2-0.169-0.032-0.337-0.064-0.503-0.095-0.083-0.016-0.165-0.031-0.247-0.047-0.083-0.012-0.165-0.023-0.247-0.035-0.328-0.046-0.648-0.090-0.961-0.134-0.156-0.022-0.31-0.043-0.463-0.064-0.152-0.022-0.305-0.029-0.454-0.045-0.299-0.026-0.589-0.052-0.872-0.077s-0.555-0.054-0.822-0.058c-0.067-0.003-0.131-0.005-0.196-0.007-0.051-2.717-2.268-4.905-4.997-4.905-0.042 0-0.084 0.002-0.127 0.003l-0-0.002c0 0-0.007 0.001-0.017 0.002-0.303 0.009-0.6 0.043-0.887 0.103-0.137 0.016-0.286 0.033-0.451 0.053-0.147 0.017-0.306 0.036-0.475 0.056-0.2 0.029-0.413 0.060-0.639 0.093-0.449 0.067-0.947 0.141-1.481 0.227-0.504 0.105-1.048 0.219-1.63 0.341-0.29 0.056-0.586 0.139-0.891 0.218-0.304 0.080-0.617 0.163-0.938 0.247-0.16 0.044-0.323 0.081-0.485 0.133s-0.326 0.103-0.492 0.155c-0.331 0.105-0.669 0.213-1.015 0.323-0.086 0.028-0.173 0.055-0.26 0.083-0.086 0.032-0.172 0.064-0.259 0.096-0.173 0.064-0.348 0.13-0.525 0.195-0.351 0.133-0.709 0.268-1.073 0.405-0.357 0.154-0.72 0.31-1.089 0.469-0.183 0.080-0.368 0.16-0.555 0.24-0.186 0.082-0.367 0.177-0.553 0.266-0.368 0.181-0.742 0.365-1.12 0.552-0.374 0.193-0.743 0.407-1.119 0.613-0.187 0.104-0.376 0.209-0.565 0.315-0.188 0.107-0.371 0.227-0.558 0.34-0.37 0.231-0.744 0.463-1.121 0.698-1.476 0.987-2.935 2.084-4.319 3.298-1.373 1.227-2.676 2.557-3.875 3.96-1.182 1.42-2.258 2.911-3.212 4.432-0.94 1.531-1.743 3.097-2.433 4.639-0.16 0.391-0.317 0.778-0.474 1.162-0.076 0.192-0.159 0.38-0.228 0.573-0.068 0.193-0.135 0.385-0.202 0.576-0.132 0.383-0.271 0.756-0.39 1.132-0.112 0.377-0.222 0.75-0.331 1.118-0.053 0.184-0.112 0.364-0.158 0.547-0.045 0.183-0.089 0.365-0.133 0.546-0.087 0.36-0.173 0.714-0.258 1.063-0.068 0.352-0.134 0.697-0.2 1.037-0.032 0.169-0.064 0.337-0.095 0.503-0.016 0.083-0.031 0.165-0.047 0.247-0.012 0.083-0.023 0.165-0.035 0.248-0.045 0.327-0.090 0.648-0.133 0.961-0.022 0.156-0.043 0.31-0.064 0.463-0.022 0.152-0.029 0.305-0.044 0.454-0.026 0.299-0.052 0.59-0.077 0.872s-0.054 0.555-0.058 0.822c-0.002 0.043-0.003 0.084-0.005 0.127-2.686 0.087-4.836 2.289-4.836 4.996 0 0.042 0.002 0.084 0.003 0.126zM5.744 35.055c0.003-0.015 0.007-0.030 0.010-0.045 0.050-0.254 0.128-0.511 0.2-0.777s0.148-0.537 0.225-0.817c0.040-0.139 0.073-0.281 0.121-0.422 0.047-0.141 0.094-0.283 0.141-0.428 0.095-0.288 0.192-0.582 0.292-0.882 0.025-0.075 0.050-0.15 0.075-0.226 0.029-0.075 0.058-0.15 0.087-0.225 0.058-0.15 0.117-0.302 0.177-0.455 0.119-0.305 0.24-0.616 0.363-0.932 0.138-0.309 0.279-0.624 0.421-0.944 0.071-0.159 0.142-0.32 0.215-0.481s0.159-0.318 0.238-0.479c0.162-0.319 0.326-0.642 0.492-0.97 0.172-0.324 0.364-0.642 0.547-0.968 0.092-0.162 0.185-0.325 0.279-0.489 0.095-0.163 0.202-0.32 0.303-0.482 0.204-0.32 0.411-0.643 0.619-0.969 0.878-1.273 1.846-2.531 2.916-3.722 1.084-1.18 2.253-2.297 3.484-3.324 1.248-1.010 2.554-1.926 3.881-2.736 1.338-0.796 2.703-1.472 4.042-2.051 0.34-0.133 0.677-0.264 1.010-0.395 0.167-0.063 0.329-0.134 0.497-0.191 0.168-0.056 0.334-0.112 0.5-0.167 0.332-0.108 0.655-0.226 0.98-0.324 0.327-0.092 0.65-0.182 0.968-0.271 0.159-0.043 0.315-0.093 0.473-0.13 0.159-0.036 0.316-0.071 0.472-0.107 0.311-0.071 0.617-0.141 0.918-0.21 0.304-0.054 0.602-0.106 0.895-0.158 0.146-0.026 0.29-0.051 0.433-0.077 0.071-0.013 0.143-0.025 0.213-0.038 0.072-0.009 0.143-0.017 0.214-0.026 0.282-0.035 0.558-0.069 0.828-0.102 0.134-0.017 0.267-0.034 0.399-0.050 0.131-0.018 0.263-0.021 0.391-0.032 0.257-0.019 0.508-0.037 0.751-0.055s0.477-0.041 0.708-0.040c0.457-0.010 0.884-0.020 1.28-0.029 0.364 0.013 0.699 0.025 1.001 0.036 0.15 0.004 0.291 0.008 0.424 0.012 0.166 0.010 0.321 0.020 0.465 0.030 0.166 0.011 0.317 0.021 0.455 0.030 0.254 0.040 0.515 0.061 0.78 0.061 0.036 0 0.073-0.002 0.109-0.003 0.010 0.001 0.018 0.001 0.018 0.001v-0.002c2.433-0.061 4.434-1.858 4.809-4.2 0.042 0.009 0.083 0.018 0.126 0.028 0.254 0.050 0.511 0.128 0.777 0.2 0.265 0.073 0.537 0.148 0.817 0.225 0.139 0.040 0.281 0.073 0.422 0.121 0.141 0.047 0.284 0.094 0.428 0.142 0.287 0.095 0.582 0.192 0.882 0.292 0.075 0.025 0.15 0.050 0.226 0.075 0.075 0.029 0.15 0.058 0.225 0.087 0.15 0.058 0.302 0.117 0.455 0.177 0.305 0.119 0.616 0.24 0.932 0.363 0.309 0.138 0.624 0.279 0.944 0.421 0.159 0.071 0.319 0.142 0.481 0.215s0.318 0.159 0.479 0.239c0.319 0.162 0.642 0.326 0.97 0.492 0.324 0.172 0.643 0.364 0.968 0.547 0.162 0.092 0.325 0.185 0.489 0.279s0.32 0.202 0.482 0.303c0.32 0.204 0.643 0.411 0.969 0.619 1.273 0.878 2.531 1.846 3.722 2.916 1.18 1.084 2.297 2.253 3.324 3.484 1.010 1.248 1.926 2.554 2.736 3.881 0.797 1.338 1.472 2.703 2.052 4.042 0.133 0.34 0.264 0.677 0.395 1.010 0.063 0.167 0.134 0.329 0.191 0.497 0.056 0.168 0.112 0.334 0.167 0.5 0.108 0.332 0.226 0.655 0.324 0.98 0.092 0.327 0.182 0.65 0.271 0.968 0.043 0.159 0.093 0.315 0.13 0.473s0.072 0.316 0.107 0.472c0.071 0.311 0.141 0.617 0.21 0.918 0.054 0.304 0.106 0.602 0.158 0.895 0.026 0.146 0.051 0.29 0.077 0.433 0.013 0.071 0.025 0.142 0.038 0.213 0.009 0.072 0.017 0.143 0.026 0.214 0.035 0.282 0.069 0.558 0.102 0.828 0.017 0.134 0.034 0.267 0.050 0.398 0.018 0.131 0.021 0.263 0.032 0.391 0.019 0.257 0.037 0.508 0.055 0.751s0.041 0.477 0.040 0.708c0.010 0.457 0.020 0.884 0.029 1.28-0.013 0.364-0.025 0.699-0.036 1.001-0.004 0.15-0.008 0.291-0.012 0.424-0.010 0.166-0.020 0.321-0.030 0.465-0.011 0.166-0.021 0.317-0.030 0.455-0.039 0.254-0.060 0.515-0.060 0.78 0 0.037 0.002 0.073 0.003 0.109-0.001 0.010-0.001 0.018-0.001 0.018h0.002c0.060 2.404 1.815 4.385 4.116 4.795-0.005 0.023-0.010 0.046-0.015 0.069-0.050 0.254-0.127 0.511-0.2 0.777s-0.148 0.537-0.225 0.817c-0.040 0.139-0.073 0.281-0.121 0.422-0.047 0.141-0.094 0.283-0.141 0.428-0.095 0.288-0.193 0.582-0.292 0.882-0.025 0.075-0.050 0.15-0.075 0.226-0.029 0.075-0.058 0.15-0.087 0.225-0.058 0.15-0.117 0.302-0.177 0.455-0.119 0.305-0.24 0.616-0.363 0.932-0.138 0.309-0.279 0.624-0.421 0.944-0.071 0.159-0.142 0.32-0.215 0.481s-0.159 0.318-0.238 0.479c-0.162 0.319-0.326 0.642-0.492 0.97-0.172 0.324-0.364 0.643-0.547 0.968-0.092 0.162-0.185 0.325-0.279 0.489-0.095 0.163-0.202 0.32-0.303 0.482-0.204 0.32-0.411 0.643-0.619 0.969-0.878 1.273-1.846 2.531-2.916 3.722-1.084 1.18-2.253 2.297-3.484 3.324-1.248 1.010-2.554 1.926-3.881 2.736-1.338 0.796-2.703 1.472-4.042 2.051-0.34 0.133-0.677 0.264-1.010 0.395-0.167 0.063-0.329 0.134-0.497 0.191-0.168 0.056-0.334 0.112-0.5 0.167-0.332 0.108-0.655 0.226-0.98 0.324-0.327 0.092-0.65 0.182-0.968 0.271-0.159 0.043-0.315 0.093-0.473 0.13-0.159 0.036-0.316 0.071-0.472 0.107-0.311 0.071-0.617 0.141-0.918 0.21-0.304 0.054-0.602 0.106-0.895 0.158-0.146 0.026-0.29 0.051-0.433 0.077-0.071 0.013-0.142 0.025-0.213 0.038-0.072 0.009-0.143 0.017-0.214 0.026-0.282 0.035-0.558 0.069-0.828 0.102-0.134 0.017-0.267 0.034-0.399 0.050-0.131 0.018-0.263 0.021-0.391 0.032-0.257 0.019-0.508 0.037-0.751 0.055s-0.477 0.041-0.708 0.040c-0.457 0.010-0.884 0.020-1.28 0.029-0.364-0.013-0.699-0.025-1.001-0.036-0.15-0.004-0.291-0.008-0.424-0.012-0.166-0.010-0.321-0.020-0.465-0.030-0.166-0.011-0.317-0.021-0.455-0.030-0.254-0.040-0.515-0.061-0.78-0.061-0.036 0-0.073 0.002-0.109 0.003-0.010-0.001-0.017-0.001-0.017-0.001v0.002c-2.422 0.060-4.416 1.843-4.804 4.169-0.25-0.050-0.504-0.126-0.765-0.197-0.265-0.073-0.537-0.148-0.817-0.225-0.139-0.040-0.281-0.073-0.422-0.121s-0.284-0.094-0.428-0.142c-0.288-0.095-0.582-0.193-0.882-0.292-0.075-0.025-0.15-0.049-0.226-0.075-0.075-0.029-0.15-0.058-0.225-0.087-0.15-0.058-0.302-0.117-0.455-0.176-0.305-0.119-0.616-0.24-0.932-0.363-0.309-0.138-0.624-0.279-0.944-0.421-0.159-0.071-0.319-0.142-0.481-0.215s-0.318-0.159-0.479-0.239c-0.319-0.162-0.642-0.326-0.97-0.492-0.324-0.172-0.643-0.363-0.968-0.547-0.162-0.093-0.325-0.186-0.489-0.279-0.163-0.095-0.32-0.202-0.482-0.303-0.32-0.204-0.643-0.41-0.969-0.619-1.273-0.877-2.531-1.846-3.722-2.916-1.18-1.084-2.297-2.253-3.324-3.484-1.010-1.248-1.926-2.553-2.736-3.881-0.797-1.338-1.472-2.703-2.052-4.042-0.133-0.34-0.264-0.677-0.395-1.010-0.063-0.167-0.134-0.33-0.191-0.497-0.056-0.168-0.112-0.335-0.167-0.5-0.108-0.332-0.226-0.655-0.324-0.98-0.092-0.327-0.182-0.65-0.271-0.968-0.043-0.159-0.093-0.314-0.13-0.473s-0.072-0.316-0.107-0.472c-0.071-0.311-0.141-0.617-0.21-0.918-0.054-0.304-0.106-0.602-0.158-0.895-0.026-0.146-0.051-0.29-0.077-0.433-0.013-0.071-0.025-0.142-0.038-0.213-0.009-0.071-0.017-0.143-0.026-0.214-0.035-0.282-0.069-0.558-0.102-0.828-0.017-0.135-0.034-0.267-0.050-0.399-0.018-0.131-0.021-0.263-0.032-0.392-0.019-0.257-0.037-0.508-0.055-0.751s-0.041-0.477-0.040-0.708c-0.010-0.457-0.020-0.884-0.029-1.28 0.013-0.364 0.025-0.699 0.036-1.001 0.004-0.15 0.008-0.291 0.012-0.425 0.010-0.166 0.020-0.321 0.030-0.465 0.011-0.166 0.021-0.317 0.030-0.455 0.039-0.255 0.060-0.515 0.060-0.781 0-0.036-0.002-0.073-0.003-0.109 0.001-0.010 0.001-0.017 0.001-0.017h-0.002c-0.061-2.452-1.885-4.465-4.253-4.818z"></path>
</svg>
