<?xml version="1.0" encoding="utf-8"?>
<!-- Generated by IcoMoon.io -->
<!DOCTYPE svg PUBLIC "-//W3C//DTD SVG 1.1//EN" "http://www.w3.org/Graphics/SVG/1.1/DTD/svg11.dtd">
<svg version="1.1" xmlns="http://www.w3.org/2000/svg" xmlns:xlink="http://www.w3.org/1999/xlink" width="80" height="80" viewBox="0 0 80 80">
<path d="M40 0c-22.091 0-40 17.909-40 40s17.909 40 40 40 40-17.909 40-40-17.909-40-40-40zM40 20c11.046 0 20 8.954 20 20s-8.954 20-20 20-20-8.954-20-20 8.954-20 20-20zM63.865 63.865c-6.375 6.375-14.85 9.885-23.865 9.885s-17.49-3.511-23.865-9.885-9.885-14.85-9.885-23.865c0-9.015 3.511-17.49 9.885-23.865l5.303 5.303c0 0 0 0 0 0-10.235 10.235-10.235 26.888 0 37.123 4.958 4.958 11.55 7.688 18.562 7.688s13.603-2.73 18.562-7.688c10.235-10.235 10.235-26.888 0-37.123l5.303-5.303c6.375 6.375 9.885 14.85 9.885 23.865s-3.511 17.49-9.885 23.865z"></path>
</svg>
