<?xml version="1.0" encoding="utf-8"?>
<!-- Generated by IcoMoon.io -->
<!DOCTYPE svg PUBLIC "-//W3C//DTD SVG 1.1//EN" "http://www.w3.org/Graphics/SVG/1.1/DTD/svg11.dtd">
<svg version="1.1" xmlns="http://www.w3.org/2000/svg" xmlns:xlink="http://www.w3.org/1999/xlink" width="80" height="80" viewBox="0 0 80 80">
<path d="M15 40c0-0.952 0.055-1.89 0.159-2.814l-14.452-4.696c-0.462 2.433-0.707 4.943-0.707 7.51 0 11.502 4.857 21.869 12.629 29.166l8.928-12.289c-4.072-4.447-6.558-10.372-6.558-16.877zM65 40c0 6.505-2.485 12.43-6.558 16.877l8.928 12.289c7.773-7.297 12.629-17.664 12.629-29.166 0-2.567-0.245-5.077-0.707-7.51l-14.452 4.696c0.103 0.924 0.158 1.863 0.158 2.814zM45 15.501c7.182 1.458 13.246 5.995 16.754 12.174l14.451-4.695c-5.718-12.142-17.362-20.942-31.205-22.668v15.19zM18.246 27.674c3.508-6.178 9.572-10.716 16.754-12.174v-15.19c-13.843 1.726-25.487 10.526-31.205 22.668l14.451 4.695zM50.356 62.76c-3.155 1.438-6.662 2.24-10.356 2.24s-7.2-0.802-10.356-2.24l-8.929 12.29c5.719 3.154 12.292 4.95 19.285 4.95s13.566-1.796 19.285-4.95l-8.929-12.29z"></path>
</svg>
