<?xml version="1.0" encoding="utf-8"?>
<!-- Generated by IcoMoon.io -->
<!DOCTYPE svg PUBLIC "-//W3C//DTD SVG 1.1//EN" "http://www.w3.org/Graphics/SVG/1.1/DTD/svg11.dtd">
<svg version="1.1" xmlns="http://www.w3.org/2000/svg" xmlns:xlink="http://www.w3.org/1999/xlink" width="80" height="80" viewBox="0 0 80 80">
<path d="M30 10c0-5.523 4.477-10 10-10s10 4.477 10 10c0 5.523-4.477 10-10 10s-10-4.477-10-10zM51.213 18.787c0-5.523 4.477-10 10-10s10 4.477 10 10c0 5.523-4.477 10-10 10s-10-4.477-10-10zM65 40c0-2.761 2.239-5 5-5s5 2.239 5 5c0 2.761-2.239 5-5 5s-5-2.239-5-5zM56.213 61.213c0-2.761 2.239-5 5-5s5 2.239 5 5c0 2.761-2.239 5-5 5s-5-2.239-5-5zM35 70c0 0 0 0 0 0 0-2.761 2.239-5 5-5s5 2.239 5 5c0 0 0 0 0 0 0 2.761-2.239 5-5 5s-5-2.239-5-5zM13.787 61.213c0 0 0 0 0 0 0-2.761 2.239-5 5-5s5 2.239 5 5c0 0 0 0 0 0 0 2.761-2.239 5-5 5s-5-2.239-5-5zM11.287 18.787c0 0 0 0 0 0 0-4.142 3.358-7.5 7.5-7.5s7.5 3.358 7.5 7.5c0 0 0 0 0 0 0 4.142-3.358 7.5-7.5 7.5s-7.5-3.358-7.5-7.5zM4.375 40c0-3.107 2.518-5.625 5.625-5.625s5.625 2.518 5.625 5.625c0 3.107-2.518 5.625-5.625 5.625s-5.625-2.518-5.625-5.625z"></path>
</svg>
