<?xml version="1.0" encoding="utf-8"?>
<!-- Generated by IcoMoon.io -->
<!DOCTYPE svg PUBLIC "-//W3C//DTD SVG 1.1//EN" "http://www.w3.org/Graphics/SVG/1.1/DTD/svg11.dtd">
<svg version="1.1" xmlns="http://www.w3.org/2000/svg" xmlns:xlink="http://www.w3.org/1999/xlink" width="80" height="80" viewBox="0 0 80 80">
<path d="M40 0c-21.777 0-39.489 17.403-39.988 39.060 0.463-18.896 14.831-34.060 32.488-34.060 17.949 0 32.5 15.67 32.5 35 0 4.142 3.358 7.5 7.5 7.5s7.5-3.358 7.5-7.5c0-22.091-17.909-40-40-40zM40 80c21.777 0 39.489-17.403 39.988-39.060-0.462 18.896-14.831 34.060-32.488 34.060-17.949 0-32.5-15.67-32.5-35 0-4.142-3.358-7.5-7.5-7.5s-7.5 3.358-7.5 7.5c0 22.091 17.909 40 40 40z"></path>
</svg>
