<?xml version="1.0" encoding="utf-8"?>
<!-- Generated by IcoMoon.io -->
<!DOCTYPE svg PUBLIC "-//W3C//DTD SVG 1.1//EN" "http://www.w3.org/Graphics/SVG/1.1/DTD/svg11.dtd">
<svg version="1.1" xmlns="http://www.w3.org/2000/svg" xmlns:xlink="http://www.w3.org/1999/xlink" width="80" height="80" viewBox="0 0 80 80">
<path d="M40 80c-10.684 0-20.729-4.161-28.284-11.716s-11.716-17.6-11.716-28.284c0-7.565 2.124-14.932 6.141-21.304 3.906-6.195 9.427-11.201 15.965-14.477l3.359 6.706c-5.315 2.663-9.804 6.733-12.98 11.771-3.261 5.172-4.985 11.156-4.985 17.304 0 17.92 14.58 32.5 32.5 32.5s32.5-14.58 32.5-32.5c0-6.148-1.724-12.131-4.985-17.304-3.177-5.038-7.665-9.108-12.98-11.771l3.359-6.706c6.538 3.276 12.059 8.282 15.965 14.477 4.017 6.372 6.141 13.739 6.141 21.304 0 10.684-4.161 20.729-11.716 28.284s-17.6 11.716-28.284 11.716z"></path>
</svg>
