<?xml version="1.0" encoding="utf-8"?>
<!-- Generated by IcoMoon.io -->
<!DOCTYPE svg PUBLIC "-//W3C//DTD SVG 1.1//EN" "http://www.w3.org/Graphics/SVG/1.1/DTD/svg11.dtd">
<svg version="1.1" xmlns="http://www.w3.org/2000/svg" xmlns:xlink="http://www.w3.org/1999/xlink" width="80" height="80" viewBox="0 0 80 80">
<path d="M17.5 0c-8.284 0-15 7.835-15 17.5 0 8.275 4.924 15.208 11.54 17.031l-2.483 40.478c-0.168 2.745 1.944 4.99 4.694 4.99h2.5c2.75 0 4.862-2.246 4.694-4.99l-2.483-40.478c6.616-1.823 11.54-8.756 11.54-17.031 0-9.665-6.716-17.5-15-17.5zM67.917 0l-4.167 25h-3.125l-2.083-25h-2.083l-2.083 25h-3.125l-4.167-25h-2.083v32.5c0 1.381 1.119 2.5 2.5 2.5h6.511l-2.455 40.010c-0.168 2.745 1.944 4.99 4.694 4.99h2.5c2.75 0 4.862-2.246 4.694-4.99l-2.455-40.010h6.511c1.381 0 2.5-1.119 2.5-2.5v-32.5h-2.083z"></path>
</svg>
