<?xml version="1.0" encoding="utf-8"?>
<!-- Generated by IcoMoon.io -->
<!DOCTYPE svg PUBLIC "-//W3C//DTD SVG 1.1//EN" "http://www.w3.org/Graphics/SVG/1.1/DTD/svg11.dtd">
<svg version="1.1" xmlns="http://www.w3.org/2000/svg" xmlns:xlink="http://www.w3.org/1999/xlink" width="80" height="80" viewBox="0 0 80 80">
<path d="M40 0c-22 0-40 18-40 40s18 40 40 40 40-18 40-40-17.797-40-40-40zM58.406 57.797c-0.797 1.203-2.203 1.594-3.406 0.797-9.406-5.797-21.203-7-35.203-3.797-1.406 0.406-2.594-0.594-3-1.797-0.406-1.406 0.594-2.594 1.797-3 15.203-3.406 28.406-2 38.797 4.406 1.406 0.594 1.609 2.188 1.016 3.391zM63.203 46.797c-1 1.406-2.797 2-4.203 1-10.797-6.594-27.203-8.594-39.797-4.594-1.594 0.406-3.406-0.406-3.797-2-0.406-1.594 0.406-3.406 2-3.797 14.594-4.406 32.594-2.203 45 5.406 1.188 0.594 1.797 2.594 0.797 3.984zM63.594 35.594c-12.797-7.594-34.203-8.406-46.406-4.594-2 0.594-4-0.594-4.594-2.406-0.594-2 0.594-4 2.406-4.594 14.203-4.203 37.594-3.406 52.406 5.406 1.797 1 2.406 3.406 1.406 5.203-1.016 1.391-3.406 1.984-5.219 0.984z"></path>
</svg>
