<?xml version="1.0" encoding="utf-8"?>
<!-- Generated by IcoMoon.io -->
<!DOCTYPE svg PUBLIC "-//W3C//DTD SVG 1.1//EN" "http://www.w3.org/Graphics/SVG/1.1/DTD/svg11.dtd">
<svg version="1.1" xmlns="http://www.w3.org/2000/svg" xmlns:xlink="http://www.w3.org/1999/xlink" width="80" height="80" viewBox="0 0 80 80">
<path d="M22.5 30h-15c-1.375 0-2.5 1.125-2.5 2.5v45c0 1.375 1.125 2.5 2.5 2.5h15c1.375 0 2.5-1.125 2.5-2.5v-45c0-1.375-1.125-2.5-2.5-2.5zM22.5 75h-15v-20h15v20zM47.5 20h-15c-1.375 0-2.5 1.125-2.5 2.5v55c0 1.375 1.125 2.5 2.5 2.5h15c1.375 0 2.5-1.125 2.5-2.5v-55c0-1.375-1.125-2.5-2.5-2.5zM47.5 75h-15v-25h15v25zM72.5 10h-15c-1.375 0-2.5 1.125-2.5 2.5v65c0 1.375 1.125 2.5 2.5 2.5h15c1.375 0 2.5-1.125 2.5-2.5v-65c0-1.375-1.125-2.5-2.5-2.5zM72.5 75h-15v-30h15v30z"></path>
</svg>
