<?xml version="1.0" encoding="utf-8"?>
<!-- Generated by IcoMoon.io -->
<!DOCTYPE svg PUBLIC "-//W3C//DTD SVG 1.1//EN" "http://www.w3.org/Graphics/SVG/1.1/DTD/svg11.dtd">
<svg version="1.1" xmlns="http://www.w3.org/2000/svg" xmlns:xlink="http://www.w3.org/1999/xlink" width="80" height="80" viewBox="0 0 80 80">
<path d="M23.744 65.313c2.121 0 4.202-1.026 5.467-2.923 2.010-3.016 1.195-7.090-1.82-9.101l-5.162-3.441c0.883-0.241 1.812-0.372 2.772-0.372 5.812 0 10.523 4.711 10.523 10.523s-4.711 10.523-10.523 10.523c-5.657 0-10.269-4.463-10.512-10.060l5.621 3.748c1.119 0.746 2.383 1.103 3.634 1.103zM66.667 0c7.334 0 13.333 6.001 13.333 13.335v53.33c0 7.339-5.999 13.335-13.333 13.335h-53.332c-7.334 0-13.335-5.996-13.335-13.335v-15.862l9.479 6.319c-0.91 4.935 0.542 10.221 4.359 14.038 6.164 6.164 16.159 6.164 22.323 0 3.787-3.786 5.246-9.018 4.381-13.919l19.458-17.421c3.613-0.519 7.095-2.167 9.875-4.947 6.834-6.834 6.834-17.915 0-24.749s-17.915-6.834-24.749 0c-2.78 2.78-4.428 6.261-4.947 9.874v0l-15.992 24.237c-2.488 0.127-4.951 0.841-7.166 2.14l-17.021-11.347v-21.695c0-7.334 6.001-13.335 13.335-13.335h53.332zM70 22.5c0-6.904-5.596-12.5-12.5-12.5s-12.5 5.596-12.5 12.5 5.596 12.5 12.5 12.5 12.5-5.596 12.5-12.5zM50 22.5c0-4.142 3.358-7.5 7.5-7.5s7.5 3.358 7.5 7.5-3.358 7.5-7.5 7.5-7.5-3.358-7.5-7.5z"></path>
</svg>
