<?xml version="1.0" encoding="utf-8"?>
<!-- Generated by IcoMoon.io -->
<!DOCTYPE svg PUBLIC "-//W3C//DTD SVG 1.1//EN" "http://www.w3.org/Graphics/SVG/1.1/DTD/svg11.dtd">
<svg version="1.1" xmlns="http://www.w3.org/2000/svg" xmlns:xlink="http://www.w3.org/1999/xlink" width="80" height="80" viewBox="0 0 80 80">
<path d="M55 22.5c0-4.142 3.358-7.5 7.5-7.5s7.5 3.358 7.5 7.5c0 4.142-3.358 7.5-7.5 7.5s-7.5-3.358-7.5-7.5zM74.874 10.126c-6.834-6.834-17.915-6.834-24.749 0-2.78 2.78-4.428 6.261-4.947 9.874v0l-15.992 24.237c-2.149 0.11-4.279 0.658-6.247 1.642l-12.335-9.642c-2.855-2.232-6.98-1.727-9.212 1.129s-1.727 6.98 1.129 9.212l12.182 9.523c-1.325 5.217 0.053 10.98 4.135 15.062 6.165 6.164 16.159 6.164 22.323 0 3.786-3.786 5.246-9.018 4.381-13.919l19.457-17.421c3.613-0.519 7.095-2.167 9.875-4.947 6.834-6.834 6.834-17.915 0-24.749zM30 70.523c-5.812 0-10.523-4.711-10.523-10.523 0-0.056 0.003-0.11 0.004-0.166l5.228 4.086c1.2 0.938 2.624 1.392 4.037 1.392 1.95 0 3.881-0.866 5.175-2.521 2.232-2.855 1.727-6.98-1.129-9.212l-4.961-3.878c0.7-0.147 1.426-0.225 2.169-0.225 5.812 0 10.523 4.711 10.523 10.523s-4.711 10.523-10.523 10.523zM62.5 35c-6.904 0-12.5-5.596-12.5-12.5s5.596-12.5 12.5-12.5 12.5 5.596 12.5 12.5-5.596 12.5-12.5 12.5z"></path>
</svg>
