<?xml version="1.0" encoding="utf-8"?>
<!-- Generated by IcoMoon.io -->
<!DOCTYPE svg PUBLIC "-//W3C//DTD SVG 1.1//EN" "http://www.w3.org/Graphics/SVG/1.1/DTD/svg11.dtd">
<svg version="1.1" xmlns="http://www.w3.org/2000/svg" xmlns:xlink="http://www.w3.org/1999/xlink" width="80" height="80" viewBox="0 0 80 80">
<path d="M40 15.095v-5.095h10v-5c0-2.761-2.239-5-5-5h-15c-2.761 0-5 2.239-5 5v5h10v5.095c-16.781 1.276-30 15.297-30 32.405 0 17.949 14.551 32.5 32.5 32.5s32.5-14.551 32.5-32.5c0-17.108-13.219-31.129-30-32.405zM55.178 65.178c-4.722 4.722-11 7.322-17.678 7.322s-12.956-2.6-17.678-7.322c-4.722-4.722-7.322-11-7.322-17.678s2.6-12.956 7.322-17.678c4.534-4.534 10.504-7.111 16.884-7.308l-1.694 24.533c-0.145 2.054 0.974 2.953 2.487 2.953s2.633-0.899 2.487-2.953l-1.693-24.533c6.38 0.198 12.35 2.774 16.884 7.309 4.722 4.722 7.322 11 7.322 17.678s-2.6 12.956-7.322 17.678z"></path>
</svg>
