<?xml version="1.0" encoding="utf-8"?>
<!-- Generated by IcoMoon.io -->
<!DOCTYPE svg PUBLIC "-//W3C//DTD SVG 1.1//EN" "http://www.w3.org/Graphics/SVG/1.1/DTD/svg11.dtd">
<svg version="1.1" xmlns="http://www.w3.org/2000/svg" xmlns:xlink="http://www.w3.org/1999/xlink" width="80" height="80" viewBox="0 0 80 80">
<path d="M23.281 50c3.125-4.375 7.031-6.875 12.188-8.125l-5.313-5.313c-3.906 3.75-5.781 8.438-6.875 13.438zM7.969 5.781l65.781 65.781-4.219 4.219-9.063-9.063h-60.469v-6.719h13.281c-3.75 0-6.563-2.969-6.563-6.563v-33.438c0-2.031 0.781-3.594 2.188-4.844l-5.156-5.156zM73.281 53.438c0 2.5-1.406 4.688-3.438 5.781l-18.438-18.438 5.313-5-13.438-12.344v7.031c-0.625 0.156-1.094 0.156-1.719 0.313l-17.5-17.344h42.656c3.594 0 6.563 2.813 6.563 6.563v33.438zM70.781 60h9.219v6.719h-2.656z"></path>
</svg>
