<?xml version="1.0" encoding="utf-8"?>
<!-- Generated by IcoMoon.io -->
<!DOCTYPE svg PUBLIC "-//W3C//DTD SVG 1.1//EN" "http://www.w3.org/Graphics/SVG/1.1/DTD/svg11.dtd">
<svg version="1.1" xmlns="http://www.w3.org/2000/svg" xmlns:xlink="http://www.w3.org/1999/xlink" width="80" height="80" viewBox="0 0 80 80">
<path d="M38.281 20c0 5.938 2.5 11.406 6.406 15.313l-32.656 32.656c-1.25-1.25-2.031-2.813-2.031-4.688v-46.563c0-3.594 3.125-6.719 6.719-6.719h24.063c-1.563 2.969-2.5 6.406-2.5 10zM43.281 20c0-9.219 7.5-16.719 16.719-16.719s16.719 7.5 16.719 16.719-7.5 16.719-16.719 16.719-16.719-7.5-16.719-16.719zM41.875 47.813c5-3.75 11.406-6.094 18.125-6.094 3.438 0 6.875 0.625 10 1.719v19.844c0 3.594-3.125 6.719-6.719 6.719h-23.281v-18.281c0-1.563 0.781-2.969 1.875-3.906z"></path>
</svg>
