<?xml version="1.0" encoding="utf-8"?>
<!-- Generated by IcoMoon.io -->
<!DOCTYPE svg PUBLIC "-//W3C//DTD SVG 1.1//EN" "http://www.w3.org/Graphics/SVG/1.1/DTD/svg11.dtd">
<svg version="1.1" xmlns="http://www.w3.org/2000/svg" xmlns:xlink="http://www.w3.org/1999/xlink" width="80" height="80" viewBox="0 0 80 80">
<path d="M31.25 43.75c0 5.956 3.774 8.438 9.688 8.438 4.087 0 7.656-1.667 7.656-5.625 0-3.737-1.982-4.585-4.688-5.938-0.469-0.156-1.25-0.469-1.875-0.625h-32.031v-6.719h60v6.719h-12.969c0.156 0.313 0.469 0.781 0.625 1.094 0.625 1.563 1.094 3.438 1.094 5.469 0 7.227-4.717 10.857-10.469 12.5-2.188 0.625-4.531 0.938-7.188 0.938-1.563 0-3.281-0.156-4.844-0.469-3.424-0.685-6.344-1.633-8.75-3.438-3.568-2.676-6.094-6.236-6.094-12.344h9.844zM48.594 25c0-4.809-3.063-7.031-7.969-7.031-3.527 0-6.192 1.134-7.344 3.438-0.313 0.625-0.469 1.406-0.469 2.188 0 1.563 0.938 2.969 2.5 4.063 1.25 0.781 2.5 1.563 4.688 2.344h-15.313c-0.156-0.313-0.469-0.469-0.625-0.781-0.938-1.563-1.25-3.438-1.25-5.625 0-4.491 2.333-7.71 5-9.844 3.21-2.247 7.471-3.75 12.969-3.75 5.479 0 10.021 1.566 12.969 4.219 2.744 2.469 4.844 5.929 4.844 10.781h-10z"></path>
</svg>
