<?xml version="1.0" encoding="utf-8"?>
<!-- Generated by IcoMoon.io -->
<!DOCTYPE svg PUBLIC "-//W3C//DTD SVG 1.1//EN" "http://www.w3.org/Graphics/SVG/1.1/DTD/svg11.dtd">
<svg version="1.1" xmlns="http://www.w3.org/2000/svg" xmlns:xlink="http://www.w3.org/1999/xlink" width="80" height="80" viewBox="0 0 80 80">
<path d="M80 40v5h-18.321c2.149 3.009 3.321 6.46 3.321 10 0 5.537-2.864 10.861-7.858 14.607-4.637 3.478-10.725 5.393-17.142 5.393s-12.505-1.915-17.142-5.393c-4.994-3.745-7.858-9.069-7.858-14.607h10c0 5.42 6.869 10 15 10s15-4.58 15-10c0-5.42-6.869-10-15-10h-40v-5h23.4c-0.183-0.129-0.364-0.26-0.542-0.393-4.994-3.745-7.858-9.069-7.858-14.607s2.864-10.861 7.858-14.607c4.637-3.478 10.725-5.393 17.142-5.393s12.505 1.915 17.142 5.393c4.994 3.745 7.858 9.069 7.858 14.607h-10c0-5.42-6.869-10-15-10s-15 4.58-15 10c0 5.42 6.869 10 15 10 6.17 0 12.035 1.772 16.6 5h23.4z"></path>
</svg>
