<?xml version="1.0" encoding="utf-8"?>
<!-- Generated by IcoMoon.io -->
<!DOCTYPE svg PUBLIC "-//W3C//DTD SVG 1.1//EN" "http://www.w3.org/Graphics/SVG/1.1/DTD/svg11.dtd">
<svg version="1.1" xmlns="http://www.w3.org/2000/svg" xmlns:xlink="http://www.w3.org/1999/xlink" width="80" height="80" viewBox="0 0 80 80">
<path d="M66.563 0h-53.125c-7.391 0-13.438 6.047-13.438 13.438v53.125c0 7.391 6.047 13.438 13.438 13.438h53.125c7.391 0 13.438-6.047 13.438-13.438v-53.125c0-7.391-6.047-13.438-13.438-13.438zM40 25c-2.757 0-5 2.243-5 5v20c0 8.271-6.729 15-15 15s-15-6.729-15-15v-10h10v10c0 2.757 2.243 5 5 5s5-2.243 5-5v-20c0-8.271 6.729-15 15-15s15 6.729 15 13.906v4.844l-6.406 1.875-3.594-1.875v-4.844c0-1.663-2.243-3.906-5-3.906zM75 50c0 8.271-6.729 15-15 15s-15-6.729-15-16.094v-9.688l3.594 1.875 6.406-1.875v9.688c0 3.851 2.243 6.094 5 6.094s5-2.243 5-5v-10h10v10z"></path>
</svg>
