<?xml version="1.0" encoding="utf-8"?>
<!-- Generated by IcoMoon.io -->
<!DOCTYPE svg PUBLIC "-//W3C//DTD SVG 1.1//EN" "http://www.w3.org/Graphics/SVG/1.1/DTD/svg11.dtd">
<svg version="1.1" xmlns="http://www.w3.org/2000/svg" xmlns:xlink="http://www.w3.org/1999/xlink" width="80" height="80" viewBox="0 0 80 80">
<path d="M19.531 65.781v-21.094l11.563 27.813h-4.844c-3.594 0-6.719-3.125-6.719-6.719zM26.25 29.219c1.875 0 3.281-1.563 3.281-3.438s-1.406-3.281-3.281-3.281-3.281 1.406-3.281 3.281 1.406 3.438 3.281 3.438zM73.438 53.125c1.406 3.438-0.156 7.344-3.594 8.75l-24.531 10.156c-0.781 0.313-1.719 0.469-2.656 0.469-2.656 0-5-1.563-6.094-4.063l-16.563-40c-0.313-0.938-0.469-1.719-0.469-2.656 0-2.5 1.563-4.844 4.063-5.938l24.688-10.156c0.938-0.313 1.719-0.469 2.656-0.469 2.5 0 4.844 1.563 5.938 4.063zM8.438 65.469c-3.438-1.406-5-5.156-3.594-8.594l8.125-19.531v30z"></path>
</svg>
