<?xml version="1.0" encoding="utf-8"?>
<!-- Generated by IcoMoon.io -->
<!DOCTYPE svg PUBLIC "-//W3C//DTD SVG 1.1//EN" "http://www.w3.org/Graphics/SVG/1.1/DTD/svg11.dtd">
<svg version="1.1" xmlns="http://www.w3.org/2000/svg" xmlns:xlink="http://www.w3.org/1999/xlink" width="80" height="80" viewBox="0 0 80 80">
<path d="M60 52.969v-22.969c0-8.75-8.906-10-20-10-10 0-20 1.25-20 10v22.969c0 4.844 3.906 8.75 8.75 8.75l-3.75 3.75v1.25h5.625l5-5h9.375l5 5h5v-1.25l-3.75-3.75c4.844 0 8.75-3.906 8.75-8.75zM59.375 9.375c8.906 3.438 13.906 10.781 13.906 20.156v43.75h-66.563v-43.75c0-9.375 5-16.719 13.906-20.156 5.938-2.344 13.125-2.656 19.375-2.656s13.438 0.313 19.375 2.656zM23.438 30h33.281v16.719h-33.281v-16.719zM25 53.281c0-1.875 1.406-3.281 3.281-3.281s3.438 1.406 3.438 3.281-1.563 3.438-3.438 3.438-3.281-1.563-3.281-3.438zM48.281 53.281c0-1.875 1.563-3.281 3.438-3.281s3.281 1.406 3.281 3.281-1.406 3.438-3.281 3.438-3.438-1.563-3.438-3.438z"></path>
</svg>
