<?xml version="1.0" encoding="utf-8"?>
<!-- Generated by IcoMoon.io -->
<!DOCTYPE svg PUBLIC "-//W3C//DTD SVG 1.1//EN" "http://www.w3.org/Graphics/SVG/1.1/DTD/svg11.dtd">
<svg version="1.1" xmlns="http://www.w3.org/2000/svg" xmlns:xlink="http://www.w3.org/1999/xlink" width="80" height="80" viewBox="0 0 80 80">
<path d="M40 65c2.761 0 5 2.239 5 5v5c0 2.761-2.239 5-5 5s-5-2.239-5-5v-5c0-2.761 2.239-5 5-5zM40 15c-2.761 0-5-2.239-5-5v-5c0-2.761 2.239-5 5-5s5 2.239 5 5v5c0 2.761-2.239 5-5 5zM75 35c2.761 0 5 2.239 5 5s-2.239 5-5 5h-5c-2.762 0-5-2.239-5-5s2.238-5 5-5h5zM15 40c0 2.761-2.239 5-5 5h-5c-2.761 0-5-2.239-5-5s2.239-5 5-5h5c2.761 0 5 2.239 5 5zM64.749 57.678l3.536 3.536c1.953 1.952 1.953 5.118 0 7.071s-5.119 1.952-7.071 0l-3.536-3.536c-1.952-1.952-1.952-5.118 0-7.071s5.119-1.953 7.071 0zM15.251 22.322l-3.536-3.536c-1.953-1.953-1.953-5.118 0-7.071s5.118-1.953 7.071 0l3.536 3.536c1.953 1.953 1.953 5.118 0 7.071s-5.118 1.953-7.071 0zM64.749 22.322c-1.953 1.953-5.118 1.953-7.071 0s-1.952-5.118 0-7.071l3.536-3.535c1.953-1.953 5.118-1.953 7.071 0s1.953 5.118 0 7.071l-3.536 3.535zM15.251 57.678c1.952-1.952 5.119-1.952 7.071 0s1.953 5.119 0 7.071l-3.535 3.536c-1.953 1.953-5.118 1.953-7.071 0s-1.953-5.119 0-7.071l3.536-3.536z"></path>
<path d="M40 20c-11.046 0-20 8.954-20 20s8.954 20 20 20c11.045 0 20-8.955 20-20s-8.954-20-20-20zM40 52.5c-6.904 0-12.5-5.596-12.5-12.5s5.596-12.5 12.5-12.5 12.5 5.596 12.5 12.5-5.596 12.5-12.5 12.5z"></path>
</svg>
