<?xml version="1.0" encoding="utf-8"?>
<!-- Generated by IcoMoon.io -->
<!DOCTYPE svg PUBLIC "-//W3C//DTD SVG 1.1//EN" "http://www.w3.org/Graphics/SVG/1.1/DTD/svg11.dtd">
<svg version="1.1" xmlns="http://www.w3.org/2000/svg" xmlns:xlink="http://www.w3.org/1999/xlink" width="80" height="80" viewBox="0 0 80 80">
<path d="M30 43.281c2.188 0 5 0.313 7.969 0.938-6.875 3.75-7.969 8.75-7.969 11.563v7.5h-23.281v-8.281c0-7.813 15.469-11.719 23.281-11.719zM55 46.719c6.094 0 18.281 2.969 18.281 9.063v7.5h-36.563v-7.5c0-6.094 12.188-9.063 18.281-9.063zM30 36.719c-5.469 0-10-4.531-10-10s4.531-10 10-10 10 4.531 10 10-4.531 10-10 10zM55 40c-4.531 0-8.281-3.75-8.281-8.281s3.75-8.438 8.281-8.438 8.281 3.906 8.281 8.438-3.75 8.281-8.281 8.281z"></path>
</svg>
