<?xml version="1.0" encoding="utf-8"?>
<!-- Generated by IcoMoon.io -->
<!DOCTYPE svg PUBLIC "-//W3C//DTD SVG 1.1//EN" "http://www.w3.org/Graphics/SVG/1.1/DTD/svg11.dtd">
<svg version="1.1" xmlns="http://www.w3.org/2000/svg" xmlns:xlink="http://www.w3.org/1999/xlink" width="80" height="80" viewBox="0 0 80 80">
<path d="M15.158 65l4.5-15h20.685l4.5 15h8.877l-15-50h-17.44l-15 50h8.878zM27.158 25h5.685l4.5 15h-14.685l4.5-15zM55 65l12.5-20 12.5 20h-25z"></path>
<path d="M67.5 10h-5c-1.378 0-2.5-1.122-2.5-2.5s1.122-2.5 2.5-2.5h10c1.381 0 2.5-1.119 2.5-2.5s-1.119-2.5-2.5-2.5h-10c-4.136 0-7.5 3.365-7.5 7.5 0 1.919 0.726 3.672 1.916 5 1.374 1.533 3.368 2.5 5.584 2.5h5c1.378 0 2.5 1.122 2.5 2.5s-1.122 2.5-2.5 2.5h-10c-1.381 0-2.5 1.119-2.5 2.5s1.119 2.5 2.5 2.5h10c4.136 0 7.5-3.365 7.5-7.5 0-1.919-0.726-3.672-1.916-5-1.374-1.533-3.368-2.5-5.584-2.5z"></path>
</svg>
