<?xml version="1.0" encoding="utf-8"?>
<!-- Generated by IcoMoon.io -->
<!DOCTYPE svg PUBLIC "-//W3C//DTD SVG 1.1//EN" "http://www.w3.org/Graphics/SVG/1.1/DTD/svg11.dtd">
<svg version="1.1" xmlns="http://www.w3.org/2000/svg" xmlns:xlink="http://www.w3.org/1999/xlink" width="80" height="80" viewBox="0 0 80 80">
<path d="M40 33.281c3.594 0 6.719 3.125 6.719 6.719s-3.125 6.719-6.719 6.719-6.719-3.125-6.719-6.719 3.125-6.719 6.719-6.719zM58.906 58.906c5.156-5.156 7.813-12.031 7.813-18.906s-2.656-13.75-7.813-18.906l-4.844 4.844c3.906 3.906 5.938 8.906 5.938 14.063s-1.875 10.313-5.781 14.219zM40 53.281c7.344 0 13.281-5.938 13.281-13.281s-5.938-13.281-13.281-13.281-13.281 5.938-13.281 13.281 5.938 13.281 13.281 13.281zM25.938 54.063c-3.906-3.906-5.938-8.906-5.938-14.063s1.875-10.313 5.781-14.219l-4.688-4.688c-5.156 5.156-7.813 12.031-7.813 18.906s2.656 13.75 7.813 18.906zM66.719 13.281c3.594 0 6.563 3.125 6.563 6.719v40c0 3.594-2.969 6.719-6.563 6.719h-53.438c-3.594 0-6.563-3.125-6.563-6.719v-40c0-3.594 2.969-6.719 6.563-6.719h53.438z"></path>
</svg>
