<?xml version="1.0" encoding="utf-8"?>
<!-- Generated by IcoMoon.io -->
<!DOCTYPE svg PUBLIC "-//W3C//DTD SVG 1.1//EN" "http://www.w3.org/Graphics/SVG/1.1/DTD/svg11.dtd">
<svg version="1.1" xmlns="http://www.w3.org/2000/svg" xmlns:xlink="http://www.w3.org/1999/xlink" width="80" height="80" viewBox="0 0 80 80">
<path d="M72.5 32.5c-2.221 0-4.215 0.966-5.589 2.5h-14.84l10.494-10.494c2.056 0.114 4.149-0.614 5.72-2.184 2.929-2.929 2.929-7.678 0-10.607s-7.678-2.929-10.607 0c-1.57 1.57-2.298 3.664-2.184 5.72l-10.493 10.494v-14.84c1.534-1.373 2.5-3.368 2.5-5.589 0-4.142-3.358-7.5-7.5-7.5s-7.5 3.358-7.5 7.5c0 2.221 0.966 4.215 2.5 5.589v14.84l-10.494-10.494c0.114-2.056-0.614-4.149-2.184-5.72-2.929-2.929-7.678-2.929-10.607 0s-2.929 7.678 0 10.607c1.57 1.57 3.664 2.298 5.72 2.184l10.494 10.494h-14.84c-1.373-1.534-3.368-2.5-5.589-2.5-4.142 0-7.5 3.358-7.5 7.5s3.358 7.5 7.5 7.5c2.221 0 4.215-0.966 5.589-2.5h14.84l-10.494 10.494c-2.056-0.114-4.149 0.614-5.72 2.184-2.929 2.929-2.929 7.678 0 10.607s7.678 2.929 10.607 0c1.57-1.57 2.298-3.664 2.184-5.72l10.493-10.494v14.84c-1.534 1.373-2.5 3.368-2.5 5.589 0 4.142 3.358 7.5 7.5 7.5s7.5-3.358 7.5-7.5c0-2.221-0.966-4.215-2.5-5.589v-14.84l10.494 10.494c-0.114 2.056 0.614 4.149 2.184 5.72 2.929 2.929 7.678 2.929 10.607 0s2.929-7.678 0-10.607c-1.57-1.57-3.664-2.298-5.72-2.184l-10.494-10.493h14.84c1.373 1.534 3.368 2.5 5.589 2.5 4.142 0 7.5-3.358 7.5-7.5s-3.358-7.5-7.5-7.5z"></path>
</svg>
