<?xml version="1.0" encoding="utf-8"?>
<!-- Generated by IcoMoon.io -->
<!DOCTYPE svg PUBLIC "-//W3C//DTD SVG 1.1//EN" "http://www.w3.org/Graphics/SVG/1.1/DTD/svg11.dtd">
<svg version="1.1" xmlns="http://www.w3.org/2000/svg" xmlns:xlink="http://www.w3.org/1999/xlink" width="80" height="80" viewBox="0 0 80 80">
<path d="M60 13.281l13.281 13.438h-10v23.281c0 7.344-5.938 13.281-13.281 13.281s-13.281-5.938-13.281-13.281v-23.281c0-3.594-3.125-6.719-6.719-6.719s-6.719 3.125-6.719 6.719v23.281h10l-13.281 13.281-13.281-13.281h10v-23.281c0-7.344 5.938-13.438 13.281-13.438s13.281 6.094 13.281 13.438v23.281c0 3.594 3.125 6.719 6.719 6.719s6.719-3.125 6.719-6.719v-23.281h-10z"></path>
</svg>
