<?xml version="1.0" encoding="utf-8"?>
<!-- Generated by IcoMoon.io -->
<!DOCTYPE svg PUBLIC "-//W3C//DTD SVG 1.1//EN" "http://www.w3.org/Graphics/SVG/1.1/DTD/svg11.dtd">
<svg version="1.1" xmlns="http://www.w3.org/2000/svg" xmlns:xlink="http://www.w3.org/1999/xlink" width="80" height="80" viewBox="0 0 80 80">
<path d="M50 11.452v10.622c2.829 1.235 5.43 3.001 7.678 5.248 4.722 4.722 7.322 11 7.322 17.678s-2.6 12.956-7.322 17.678c-4.722 4.722-11 7.322-17.678 7.322s-12.956-2.6-17.678-7.322c-4.722-4.722-7.322-11-7.322-17.678s2.6-12.956 7.322-17.678c2.248-2.248 4.849-4.014 7.678-5.249v-10.622c-14.457 4.303-25 17.693-25 33.548 0 19.33 15.67 35 35 35s35-15.67 35-35c0-15.855-10.543-29.245-25-33.548zM35 0h10v40h-10z"></path>
</svg>
