<?xml version="1.0" encoding="utf-8"?>
<!-- Generated by IcoMoon.io -->
<!DOCTYPE svg PUBLIC "-//W3C//DTD SVG 1.1//EN" "http://www.w3.org/Graphics/SVG/1.1/DTD/svg11.dtd">
<svg version="1.1" xmlns="http://www.w3.org/2000/svg" xmlns:xlink="http://www.w3.org/1999/xlink" width="80" height="80" viewBox="0 0 80 80">
<path d="M66.719 13.281l-7.969 7.969c4.844 4.844 7.969 11.406 7.969 18.75 0 5.156-1.563 10-4.063 14.063l-5-4.844c1.406-2.813 2.344-5.938 2.344-9.219 0-5.469-2.344-10.469-5.938-14.063l-7.344 7.344v-20h20zM9.531 17.969l4.219-4.219 52.344 52.5-4.219 4.219-7.813-7.813c-2.344 1.406-4.844 2.5-7.5 3.125v-6.875c0.938-0.313 1.875-0.781 2.656-1.25l-26.875-26.875c-1.406 2.813-2.344 5.938-2.344 9.219 0 5.469 2.344 10.469 5.938 14.063l7.344-7.344v20h-20l7.969-7.969c-4.844-4.844-7.969-11.406-7.969-18.75 0-5.156 1.563-10 4.063-14.063zM33.281 21.094c-0.938 0.313-1.719 0.781-2.5 1.25l-4.844-5c2.344-1.406 4.688-2.5 7.344-3.125v6.875z"></path>
</svg>
