<?xml version="1.0" encoding="utf-8"?>
<!-- Generated by IcoMoon.io -->
<!DOCTYPE svg PUBLIC "-//W3C//DTD SVG 1.1//EN" "http://www.w3.org/Graphics/SVG/1.1/DTD/svg11.dtd">
<svg version="1.1" xmlns="http://www.w3.org/2000/svg" xmlns:xlink="http://www.w3.org/1999/xlink" width="80" height="80" viewBox="0 0 80 80">
<path d="M36.719 43.281v-20h6.563v20h-6.563zM70 13.281l-7.813 7.969c4.844 4.844 7.813 11.406 7.813 18.75 0 12.5-8.438 22.813-20 25.781v-6.875c7.813-2.656 13.281-10.156 13.281-18.906 0-5.469-2.188-10.469-5.781-14.063l-7.5 7.344v-20h20zM36.719 56.719v-6.719h6.563v6.719h-6.563zM10 40c0-12.5 8.438-22.813 20-25.781v6.875c-7.813 2.656-13.281 10.156-13.281 18.906 0 5.469 2.188 10.469 5.781 14.063l7.5-7.344v20h-20l7.813-7.969c-4.844-4.844-7.813-11.406-7.813-18.75z"></path>
</svg>
