<?xml version="1.0" encoding="utf-8"?>
<!-- Generated by IcoMoon.io -->
<!DOCTYPE svg PUBLIC "-//W3C//DTD SVG 1.1//EN" "http://www.w3.org/Graphics/SVG/1.1/DTD/svg11.dtd">
<svg version="1.1" xmlns="http://www.w3.org/2000/svg" xmlns:xlink="http://www.w3.org/1999/xlink" width="80" height="80" viewBox="0 0 80 80">
<path d="M56.719 70v-6.719h6.563v6.719h-6.563zM43.281 70v-6.719h6.719v6.719h-6.719zM70 43.281v-6.563h6.719v6.563h-6.719zM70 70v-6.719h6.719c0 3.594-3.125 6.719-6.719 6.719zM16.719 16.719v-6.719h6.563v6.719h-6.563zM16.719 70v-6.719h6.563v6.719h-6.563zM30 16.719v-6.719h6.719v6.719h-6.719zM70 56.719v-6.719h6.719v6.719h-6.719zM70 10c3.594 0 6.719 3.125 6.719 6.719v13.281h-33.438v-20h26.719zM10 70c-3.594 0-6.719-3.125-6.719-6.719h6.719v6.719zM3.281 56.719v-6.719h6.719v6.719h-6.719zM30 70v-6.719h6.719v6.719h-6.719zM3.281 16.719c0-3.594 3.125-6.719 6.719-6.719v6.719h-6.719zM3.281 43.281v-6.563h6.719v6.563h-6.719zM3.281 30v-6.719h6.719v6.719h-6.719z"></path>
</svg>
