<?xml version="1.0" encoding="utf-8"?>
<!-- Generated by IcoMoon.io -->
<!DOCTYPE svg PUBLIC "-//W3C//DTD SVG 1.1//EN" "http://www.w3.org/Graphics/SVG/1.1/DTD/svg11.dtd">
<svg version="1.1" xmlns="http://www.w3.org/2000/svg" xmlns:xlink="http://www.w3.org/1999/xlink" width="80" height="80" viewBox="0 0 80 80">
<path d="M0 5v70h80v-70h-80zM30 50v-15h20v15h-20zM50 55v15h-20v-15h20zM50 15v15h-20v-15h20zM25 15v15h-20v-15h20zM5 35h20v15h-20v-15zM55 35h20v15h-20v-15zM55 30v-15h20v15h-20zM5 55h20v15h-20v-15zM55 70v-15h20v15h-20z"></path>
</svg>
