<?xml version="1.0" encoding="utf-8"?>
<!-- Generated by IcoMoon.io -->
<!DOCTYPE svg PUBLIC "-//W3C//DTD SVG 1.1//EN" "http://www.w3.org/Graphics/SVG/1.1/DTD/svg11.dtd">
<svg version="1.1" xmlns="http://www.w3.org/2000/svg" xmlns:xlink="http://www.w3.org/1999/xlink" width="80" height="80" viewBox="0 0 80 80">
<path d="M0 15v55h80v-55h-80zM30 50v-10h20v10h-20zM50 55v10h-20v-10h20zM50 25v10h-20v-10h20zM25 25v10h-20v-10h20zM5 40h20v10h-20v-10zM55 40h20v10h-20v-10zM55 35v-10h20v10h-20zM5 55h20v10h-20v-10zM55 65v-10h20v10h-20z"></path>
</svg>
