<?xml version="1.0" encoding="utf-8"?>
<!-- Generated by IcoMoon.io -->
<!DOCTYPE svg PUBLIC "-//W3C//DTD SVG 1.1//EN" "http://www.w3.org/Graphics/SVG/1.1/DTD/svg11.dtd">
<svg version="1.1" xmlns="http://www.w3.org/2000/svg" xmlns:xlink="http://www.w3.org/1999/xlink" width="80" height="80" viewBox="0 0 80 80">
<path d="M56.719 3.438c3.594 0 6.563 2.969 6.563 6.563v56.719c0 3.594-2.969 6.563-6.563 6.563h-7.031c-0.313-4.688-1.406-9.063-3.125-13.281h10.156v-43.281h-33.438v20c-2.188-0.938-4.219-1.719-6.563-2.188v-24.531c0-3.594 2.969-6.719 6.563-6.719zM6.719 40c20.313 0 36.563 16.406 36.563 36.719h-6.563c0-16.563-13.438-30-30-30v-6.719zM6.719 66.719c5.469 0 10 4.531 10 10h-10v-10zM6.719 53.281c12.969 0 23.281 10.469 23.281 23.438h-6.719c0-9.219-7.344-16.719-16.563-16.719v-6.719z"></path>
</svg>
