<?xml version="1.0" encoding="utf-8"?>
<!-- Generated by IcoMoon.io -->
<!DOCTYPE svg PUBLIC "-//W3C//DTD SVG 1.1//EN" "http://www.w3.org/Graphics/SVG/1.1/DTD/svg11.dtd">
<svg version="1.1" xmlns="http://www.w3.org/2000/svg" xmlns:xlink="http://www.w3.org/1999/xlink" width="80" height="80" viewBox="0 0 80 80">
<path d="M80 35h-7.885c-2.159-13.925-13.19-24.956-27.115-27.115v-7.885h-10v7.885c-13.925 2.159-24.956 13.19-27.115 27.115h-7.885v10h7.885c2.159 13.925 13.19 24.956 27.115 27.115v7.885h10v-7.885c13.925-2.159 24.956-13.19 27.115-27.115h7.885v-10zM61.939 35h-7.794c-1.507-4.262-4.884-7.639-9.145-9.145v-7.794c8.4 1.913 15.026 8.54 16.939 16.939zM40 45c-2.761 0-5-2.239-5-5s2.239-5 5-5c2.761 0 5 2.239 5 5s-2.239 5-5 5zM35 18.061v7.794c-4.262 1.506-7.639 4.884-9.145 9.145h-7.794c1.913-8.399 8.54-15.026 16.939-16.939zM18.061 45h7.794c1.506 4.262 4.884 7.639 9.145 9.145v7.794c-8.399-1.913-15.026-8.54-16.939-16.939zM45 61.939v-7.794c4.262-1.507 7.639-4.884 9.145-9.145h7.794c-1.913 8.4-8.54 15.026-16.939 16.939z"></path>
</svg>
