<?xml version="1.0" encoding="utf-8"?>
<!-- Generated by IcoMoon.io -->
<!DOCTYPE svg PUBLIC "-//W3C//DTD SVG 1.1//EN" "http://www.w3.org/Graphics/SVG/1.1/DTD/svg11.dtd">
<svg version="1.1" xmlns="http://www.w3.org/2000/svg" xmlns:xlink="http://www.w3.org/1999/xlink" width="80" height="80" viewBox="0 0 80 80">
<path d="M40 0c-22.094 0-40 17.906-40 40s17.906 40 40 40 40-17.906 40-40-17.906-40-40-40zM59.656 27.422l-6.563 30.922c-0.453 2.203-1.781 2.719-3.625 1.703l-10-7.391-4.797 4.672c-0.563 0.547-1 1-2 1-1.297 0-1.078-0.484-1.516-1.719l-3.406-11.188-9.891-3.078c-2.141-0.656-2.156-2.125 0.484-3.172l38.531-14.875c1.75-0.797 3.453 0.422 2.781 3.125z"></path>
</svg>
