<?xml version="1.0" encoding="utf-8"?>
<!-- Generated by IcoMoon.io -->
<!DOCTYPE svg PUBLIC "-//W3C//DTD SVG 1.1//EN" "http://www.w3.org/Graphics/SVG/1.1/DTD/svg11.dtd">
<svg version="1.1" xmlns="http://www.w3.org/2000/svg" xmlns:xlink="http://www.w3.org/1999/xlink" width="80" height="80" viewBox="0 0 80 80">
<path d="M60 30v-6.719h-6.719v6.719h6.719zM60 43.281v-6.563h-6.719v6.563h6.719zM60 56.719v-6.719h-6.719v6.719h6.719zM26.719 30v-6.719h-6.719v6.719h6.719zM26.719 43.281v-6.563h-6.719v6.563h6.719zM26.719 56.719v-6.719h-6.719v6.719h6.719zM60 10h6.719v60h-6.719v-6.719h-6.719v6.719h-26.563v-6.719h-6.719v6.719h-6.719v-60h6.719v6.719h6.719v-6.719h26.563v6.719h6.719v-6.719z"></path>
</svg>
