<?xml version="1.0" encoding="utf-8"?>
<!-- Generated by IcoMoon.io -->
<!DOCTYPE svg PUBLIC "-//W3C//DTD SVG 1.1//EN" "http://www.w3.org/Graphics/SVG/1.1/DTD/svg11.dtd">
<svg version="1.1" xmlns="http://www.w3.org/2000/svg" xmlns:xlink="http://www.w3.org/1999/xlink" width="80" height="80" viewBox="0 0 80 80">
<path d="M63.281 10h13.438v40h-13.438v-40zM50 10c3.594 0 6.719 3.125 6.719 6.719v33.281c0 1.875-0.781 3.438-2.031 4.688l-21.875 22.031-3.594-3.594c-0.938-0.938-1.406-2.031-1.406-3.438v-1.094l3.281-15.313h-21.094c-3.594 0-6.719-2.969-6.719-6.563l0.156-0.313h-0.156v-6.406c0-0.938 0.156-1.719 0.469-2.5l10.156-23.438c0.938-2.344 3.281-4.063 6.094-4.063h30z"></path>
</svg>
