<?xml version="1.0" encoding="utf-8"?>
<!-- Generated by IcoMoon.io -->
<!DOCTYPE svg PUBLIC "-//W3C//DTD SVG 1.1//EN" "http://www.w3.org/Graphics/SVG/1.1/DTD/svg11.dtd">
<svg version="1.1" xmlns="http://www.w3.org/2000/svg" xmlns:xlink="http://www.w3.org/1999/xlink" width="80" height="80" viewBox="0 0 80 80">
<path d="M75 33.281c2.813 0 5 2.188 5 5v21.719c0 1.406-0.469 2.656-1.406 3.594l-16.563 16.406-2.656-2.656c-0.625-0.625-1.094-1.563-1.094-2.656 0.774-3.81 1.564-7.603 2.344-11.406h-17.344c-1.875 0-3.281-1.406-3.281-3.281v-4.219c0-0.625 0.156-1.094 0.313-1.719l7.656-17.656c0.781-1.719 2.5-3.125 4.531-3.125h22.5zM40 20v4.219c0 0.625-0.156 1.094-0.313 1.719l-7.656 17.656c-0.781 1.719-2.5 3.125-4.531 3.125h-22.5c-2.813 0-5-2.188-5-5v-21.719c0-1.406 0.469-2.656 1.406-3.594l16.563-16.406 2.656 2.656c0.625 0.625 1.094 1.563 1.094 2.656-0.774 3.81-1.564 7.603-2.344 11.406h17.344c1.875 0 3.281 1.406 3.281 3.281z"></path>
</svg>
