<?xml version="1.0" encoding="utf-8"?>
<!-- Generated by IcoMoon.io -->
<!DOCTYPE svg PUBLIC "-//W3C//DTD SVG 1.1//EN" "http://www.w3.org/Graphics/SVG/1.1/DTD/svg11.dtd">
<svg version="1.1" xmlns="http://www.w3.org/2000/svg" xmlns:xlink="http://www.w3.org/1999/xlink" width="80" height="80" viewBox="0 0 80 80">
<path d="M45 25l10 10-20 20-10-10zM78.244 23.242l-5.743-5.743-2.501 2.501c-1.28 1.28-3.048 2.071-5 2.071-3.905 0-7.071-3.166-7.071-7.071 0-1.953 0.792-3.722 2.073-5.001l2.499-2.499-5.744-5.743c-2.341-2.341-6.173-2.341-8.514 0l-46.487 46.487c-2.341 2.341-2.341 6.173 0 8.514l5.744 5.744 2.497-2.497c1.28-1.282 3.049-2.074 5.003-2.074 3.905 0 7.071 3.166 7.071 7.071 0 1.954-0.792 3.722-2.073 5.002l-2.499 2.499 5.743 5.744c2.341 2.341 6.172 2.341 8.514 0l46.488-46.487c2.341-2.342 2.341-6.173 0-8.514zM35 65l-20-20 30-30 20 20-30 30z"></path>
</svg>
