<?xml version="1.0" encoding="utf-8"?>
<!-- Generated by IcoMoon.io -->
<!DOCTYPE svg PUBLIC "-//W3C//DTD SVG 1.1//EN" "http://www.w3.org/Graphics/SVG/1.1/DTD/svg11.dtd">
<svg version="1.1" xmlns="http://www.w3.org/2000/svg" xmlns:xlink="http://www.w3.org/1999/xlink" width="80" height="80" viewBox="0 0 80 80">
<path d="M40 66.719c12.969 0 23.281-10.469 23.281-23.438s-10.313-23.281-23.281-23.281-23.281 10.313-23.281 23.281 10.313 23.438 23.281 23.438zM63.438 24.688c4.063 5.156 6.563 11.563 6.563 18.594 0 16.563-13.438 30-30 30s-30-13.438-30-30 13.438-30 30-30c7.031 0 13.594 2.656 18.75 6.719l4.688-4.844c1.719 1.406 3.281 2.969 4.688 4.688zM36.719 46.719v-20h6.563v20h-6.563zM50 3.281v6.719h-20v-6.719h20z"></path>
</svg>
