<?xml version="1.0" encoding="utf-8"?>
<!-- Generated by IcoMoon.io -->
<!DOCTYPE svg PUBLIC "-//W3C//DTD SVG 1.1//EN" "http://www.w3.org/Graphics/SVG/1.1/DTD/svg11.dtd">
<svg version="1.1" xmlns="http://www.w3.org/2000/svg" xmlns:xlink="http://www.w3.org/1999/xlink" width="80" height="80" viewBox="0 0 80 80">
<path d="M40 66.719c4.219 0 8.281-1.25 11.719-3.281l-31.875-31.875c-2.031 3.438-3.125 7.5-3.125 11.719 0 12.969 10.313 23.438 23.281 23.438zM10 13.281l59.219 59.219-4.219 4.219-8.438-8.438c-4.844 3.125-10.469 5-16.563 5-16.563 0-30-13.438-30-30 0-6.094 1.875-11.875 5-16.563l-9.219-9.219zM36.719 31.406v-4.688h6.563v11.406zM50 3.281v6.719h-20v-6.719h20zM63.438 15.156l4.688 4.688-4.688 4.844c4.063 5.156 6.563 11.563 6.563 18.594 0 6.094-1.875 11.875-5 16.563l-4.844-4.844c2.031-3.438 3.125-7.5 3.125-11.719 0-12.969-10.313-23.281-23.281-23.281-4.219 0-8.125 1.094-11.563 3.125l-5-4.844c4.688-3.125 10.469-5 16.563-5 7.031 0 13.594 2.5 18.75 6.563z"></path>
</svg>
