<?xml version="1.0" encoding="utf-8"?>
<!-- Generated by IcoMoon.io -->
<!DOCTYPE svg PUBLIC "-//W3C//DTD SVG 1.1//EN" "http://www.w3.org/Graphics/SVG/1.1/DTD/svg11.dtd">
<svg version="1.1" xmlns="http://www.w3.org/2000/svg" xmlns:xlink="http://www.w3.org/1999/xlink" width="80" height="80" viewBox="0 0 80 80">
<path d="M16.719 33.281h46.563l-5-15h-36.563zM58.281 50c2.813 0 5-2.188 5-5s-2.188-5-5-5-5 2.188-5 5 2.188 5 5 5zM21.719 50c2.813 0 5-2.188 5-5s-2.188-5-5-5-5 2.188-5 5 2.188 5 5 5zM63.125 16.719l6.875 20v26.563c0 1.875-1.406 3.438-3.281 3.438h-3.438c-1.875 0-3.281-1.563-3.281-3.438v-3.281h-40v3.281c0 1.875-1.406 3.438-3.281 3.438h-3.438c-1.875 0-3.281-1.563-3.281-3.438v-26.563l6.875-20c0.625-2.031 2.656-3.438 4.844-3.438h36.563c2.188 0 4.219 1.406 4.844 3.438z"></path>
</svg>
