<?xml version="1.0" encoding="utf-8"?>
<!-- Generated by IcoMoon.io -->
<!DOCTYPE svg PUBLIC "-//W3C//DTD SVG 1.1//EN" "http://www.w3.org/Graphics/SVG/1.1/DTD/svg11.dtd">
<svg version="1.1" xmlns="http://www.w3.org/2000/svg" xmlns:xlink="http://www.w3.org/1999/xlink" width="80" height="80" viewBox="0 0 80 80">
<path d="M58.438 34.844c-2.491 0-4.844 1.183-4.844 3.594 0 2.138 1.455 2.457 3.125 3.125 0.781 0.313 1.719 0.625 2.813 0.781 1.719 0.313 3.125 0.781 4.531 1.25s2.5 1.25 3.438 1.875 1.563 1.563 2.031 2.5 0.781 1.875 0.781 3.281c0 4.831-3.14 6.88-6.875 8.125-1.406 0.469-3.125 0.625-4.844 0.625-5.531 0-9.783-2.307-11.406-6.094-0.469-1.094-0.781-2.188-0.781-3.438h6.25c0 3.191 2.897 4.688 6.094 4.688 2.921 0 5.156-0.921 5.156-3.594 0-2.121-1.33-2.626-2.969-3.281-0.781-0.313-2.031-0.625-3.281-0.938-2.939-0.588-5.461-1.609-7.5-2.969-1.645-1.097-2.813-3.039-2.813-5.625 0-4.307 3.184-6.999 6.563-8.125 1.406-0.469 2.813-0.625 4.531-0.625 6.396 0 11.719 2.99 11.719 9.219h-6.563c0-2.034-1.282-3.485-2.969-3.906-0.625-0.156-1.406-0.469-2.188-0.469zM33.594 39.531c3.863 1.449 6.563 3.982 6.563 9.063 0 4-1.384 6.819-3.75 8.594-2.193 1.88-5.383 3.125-9.375 3.125-7.325 0-13.125-3.945-13.125-11.25h6.719c0 1.798 0.648 3.572 1.719 4.375 1.149 0.862 2.74 1.563 4.688 1.563 4.231 0 6.563-2.199 6.563-6.406 0-4.473-2.667-6.406-7.188-6.406h-4.063v-5.156h3.906c3.204 0 5.486-1.292 6.406-3.594 0.313-0.781 0.313-1.563 0.313-2.5 0-3.889-1.946-5.938-5.938-5.938-2.925 0-4.645 1.166-5.625 3.125-0.313 0.625-0.469 1.406-0.469 2.344h-6.563c0-5.365 3.586-8.434 7.5-10 1.563-0.469 3.281-0.781 5.156-0.781 7.611 0 12.5 3.669 12.5 11.25 0 4.451-2.872 7.061-5.938 8.594z"></path>
</svg>
