<?xml version="1.0" encoding="utf-8"?>
<!-- Generated by IcoMoon.io -->
<!DOCTYPE svg PUBLIC "-//W3C//DTD SVG 1.1//EN" "http://www.w3.org/Graphics/SVG/1.1/DTD/svg11.dtd">
<svg version="1.1" xmlns="http://www.w3.org/2000/svg" xmlns:xlink="http://www.w3.org/1999/xlink" width="80" height="80" viewBox="0 0 80 80">
<path d="M40 66.719c14.688 0 26.719-12.031 26.719-26.719s-12.031-26.719-26.719-26.719-26.719 12.031-26.719 26.719 12.031 26.719 26.719 26.719zM40 6.719c18.438 0 33.281 14.844 33.281 33.281s-14.844 33.281-33.281 33.281-33.281-14.844-33.281-33.281 14.844-33.281 33.281-33.281zM54.063 25.938c7.813 7.813 7.969 20.313 0.156 28.125s-20.469 7.813-28.281 0l14.063-14.063v-20c5.156 0 10.156 2.031 14.063 5.938z"></path>
</svg>
