<?xml version="1.0" encoding="utf-8"?>
<!-- Generated by IcoMoon.io -->
<!DOCTYPE svg PUBLIC "-//W3C//DTD SVG 1.1//EN" "http://www.w3.org/Graphics/SVG/1.1/DTD/svg11.dtd">
<svg version="1.1" xmlns="http://www.w3.org/2000/svg" xmlns:xlink="http://www.w3.org/1999/xlink" width="80" height="80" viewBox="0 0 80 80">
<path d="M42.969 44.063v-8.438c0-3.62-0.357-6.271-1.563-8.281-0.832-1.664-2.376-2.344-4.688-2.344-0.938 0-2.031 0.156-2.813 0.469-3.027 1.816-3.594 5.311-3.594 10.313v8.281c0 2.031 0 3.75 0.313 5.156s0.938 2.344 1.406 3.281c0.874 1.747 2.214 2.5 4.688 2.5 2.41 0 3.846-0.818 4.688-2.5 0.469-0.938 0.938-1.875 1.25-3.281s0.313-3.125 0.313-5.156zM23.75 36.719c0-10.018 3.232-17.031 12.969-17.031 4.052 0 7.476 1.309 9.375 3.75 2.377 3.056 3.438 7.587 3.438 13.281v6.406c0 9.986-3.069 17.188-12.813 17.188-9.702 0-12.969-7.2-12.969-17.188v-6.406zM68.125 34.844c-2.55 0-4.688 1.044-4.688 3.594 0 2.273 1.221 2.426 2.969 3.125 0.781 0.313 1.875 0.625 2.969 0.781 1.719 0.313 2.969 0.781 4.375 1.25s2.5 1.25 3.438 1.875 1.563 1.563 2.031 2.5 0.781 1.875 0.781 3.281c0 4.831-3.14 6.88-6.875 8.125-1.406 0.469-2.969 0.625-4.688 0.625-5.617 0-9.915-2.251-11.563-6.094-0.469-1.094-0.781-2.188-0.781-3.438h6.406c0 3.326 2.668 4.688 5.938 4.688 2.921 0 5.156-0.921 5.156-3.594 0-2.121-1.33-2.626-2.969-3.281-1.99-0.796-5.455-1.42-7.5-2.188-1.25-0.469-2.188-1.094-3.125-1.719-1.727-1.151-2.969-2.903-2.969-5.625 0-4.307 3.184-6.999 6.563-8.125 1.406-0.469 2.813-0.625 4.531-0.625 6.396 0 11.719 2.99 11.719 9.219h-6.563c0-1.918-1.226-3.51-2.813-3.906-0.625-0.156-1.563-0.469-2.344-0.469zM0 25.781l15.781-5.781h0.938v40h-6.719v-32.031l-10 3.438v-5.625z"></path>
</svg>
