<?xml version="1.0" encoding="utf-8"?>
<!-- Generated by IcoMoon.io -->
<!DOCTYPE svg PUBLIC "-//W3C//DTD SVG 1.1//EN" "http://www.w3.org/Graphics/SVG/1.1/DTD/svg11.dtd">
<svg version="1.1" xmlns="http://www.w3.org/2000/svg" xmlns:xlink="http://www.w3.org/1999/xlink" width="80" height="80" viewBox="0 0 80 80">
<path d="M76.719 26.719c0 3.594-3.125 6.563-6.719 6.563-0.625 0-1.25 0-1.719-0.156l-11.875 11.875c0.156 0.469 0.313 1.094 0.313 1.719 0 3.594-3.125 6.563-6.719 6.563s-6.719-2.969-6.719-6.563c0-0.625 0.156-1.25 0.313-1.719l-8.594-8.594c-0.469 0.156-1.094 0.313-1.719 0.313s-1.25-0.156-1.719-0.313l-15.156 15.156c0.156 0.469 0.313 1.094 0.313 1.719 0 3.594-3.125 6.719-6.719 6.719s-6.719-3.125-6.719-6.719 3.125-6.563 6.719-6.563c0.625 0 1.25 0 1.719 0.156l15.156-15.156c-0.156-0.469-0.156-1.094-0.156-1.719 0-3.594 2.969-6.719 6.563-6.719s6.719 3.125 6.719 6.719c0 0.625 0 1.25-0.156 1.719l8.438 8.438c0.469-0.156 1.094-0.156 1.719-0.156s1.25 0 1.719 0.156l11.875-11.719c-0.156-0.469-0.313-1.094-0.313-1.719 0-3.594 3.125-6.719 6.719-6.719s6.719 3.125 6.719 6.719z"></path>
</svg>
