<?xml version="1.0" encoding="utf-8"?>
<!-- Generated by IcoMoon.io -->
<!DOCTYPE svg PUBLIC "-//W3C//DTD SVG 1.1//EN" "http://www.w3.org/Graphics/SVG/1.1/DTD/svg11.dtd">
<svg version="1.1" xmlns="http://www.w3.org/2000/svg" xmlns:xlink="http://www.w3.org/1999/xlink" width="80" height="80" viewBox="0 0 80 80">
<path d="M10 40c0 8.75 5.469 16.25 13.281 18.906v6.875c-11.563-2.969-20-13.281-20-25.781s8.438-22.813 20-25.781v6.875c-7.813 2.656-13.281 10.156-13.281 18.906zM50 60c11.094 0 20-8.906 20-20s-8.906-20-20-20-20 8.906-20 20 8.906 20 20 20zM50 13.281c14.688 0 26.719 12.031 26.719 26.719s-12.031 26.719-26.719 26.719-26.719-12.031-26.719-26.719 12.031-26.719 26.719-26.719z"></path>
</svg>
