<?xml version="1.0" encoding="utf-8"?>
<!-- Generated by IcoMoon.io -->
<!DOCTYPE svg PUBLIC "-//W3C//DTD SVG 1.1//EN" "http://www.w3.org/Graphics/SVG/1.1/DTD/svg11.dtd">
<svg version="1.1" xmlns="http://www.w3.org/2000/svg" xmlns:xlink="http://www.w3.org/1999/xlink" width="80" height="80" viewBox="0 0 80 80">
<path d="M65.781 46.719c0.313-1.094 0.469-2.344 0.625-3.438h-23.125v3.438h22.5zM60.781 56.719c0.781-1.094 1.719-2.344 2.344-3.438h-19.844v3.438h17.5zM43.281 66.406c3.438-0.469 6.719-1.563 9.688-3.125h-9.688v3.125zM43.281 33.281v3.438h23.125c-0.156-1.094-0.313-2.344-0.625-3.438h-22.5zM43.281 23.281v3.438h19.844c-0.625-1.094-1.563-2.344-2.344-3.438h-17.5zM43.281 13.594v3.125h9.688c-2.969-1.563-6.25-2.656-9.688-3.125zM36.719 66.406v-52.813c-13.125 1.563-23.438 12.813-23.438 26.406s10.313 24.844 23.438 26.406zM40 6.719c18.438 0 33.281 14.844 33.281 33.281s-14.844 33.281-33.281 33.281-33.281-14.844-33.281-33.281 14.844-33.281 33.281-33.281z"></path>
</svg>
