<?xml version="1.0" encoding="utf-8"?>
<!-- Generated by IcoMoon.io -->
<!DOCTYPE svg PUBLIC "-//W3C//DTD SVG 1.1//EN" "http://www.w3.org/Graphics/SVG/1.1/DTD/svg11.dtd">
<svg version="1.1" xmlns="http://www.w3.org/2000/svg" xmlns:xlink="http://www.w3.org/1999/xlink" width="80" height="80" viewBox="0 0 80 80">
<path d="M62.813 52.969c1.719 0.781 2.969 2.5 2.969 4.531v0.625l-2.5 17.656c-0.313 2.5-2.344 4.219-4.844 4.219h-22.656c-1.406 0-2.5-0.469-3.438-1.406l-16.563-16.563 2.656-2.656c0.625-0.625 1.563-1.094 2.656-1.094 0.313 0 0.469 0.156 0.781 0.156l11.406 2.344v-35.781c0-2.813 2.188-5 5-5s5 2.188 5 5v20h2.656c0.625 0 1.094 0.156 1.719 0.313zM30 37.5c-4.063-2.656-6.719-7.344-6.719-12.5 0-8.281 6.719-15 15-15s15 6.719 15 15c0 5.156-2.5 9.844-6.563 12.5v-12.5c0-4.531-3.906-8.281-8.438-8.281s-8.281 3.75-8.281 8.281v12.5z"></path>
</svg>
