<?xml version="1.0" encoding="utf-8"?>
<!-- Generated by IcoMoon.io -->
<!DOCTYPE svg PUBLIC "-//W3C//DTD SVG 1.1//EN" "http://www.w3.org/Graphics/SVG/1.1/DTD/svg11.dtd">
<svg version="1.1" xmlns="http://www.w3.org/2000/svg" xmlns:xlink="http://www.w3.org/1999/xlink" width="80" height="80" viewBox="0 0 80 80">
<path d="M63.594 16.406c6.094 6.094 9.688 14.375 9.688 23.594 0 18.438-14.844 33.281-33.281 33.281s-33.281-14.844-33.281-33.281 14.844-33.281 33.281-33.281h3.281v27.5c2.031 1.094 3.438 3.281 3.438 5.781 0 3.594-3.125 6.719-6.719 6.719s-6.719-3.125-6.719-6.719c0-2.5 1.406-4.688 3.438-5.781v-7.031c-5.781 1.563-10 6.563-10 12.813 0 7.344 5.938 13.281 13.281 13.281s13.281-5.938 13.281-13.281c0-3.594-1.563-6.875-3.906-9.375l4.688-4.688c3.594 3.594 5.938 8.594 5.938 14.063 0 11.094-8.906 20-20 20s-20-8.906-20-20c0-9.844 7.188-18.125 16.719-19.688v-6.719c-13.125 1.563-23.438 12.813-23.438 26.406 0 14.688 12.031 26.719 26.719 26.719s26.719-12.031 26.719-26.719c0-7.344-2.969-14.063-7.813-18.906z"></path>
</svg>
