<?xml version="1.0" encoding="utf-8"?>
<!-- Generated by IcoMoon.io -->
<!DOCTYPE svg PUBLIC "-//W3C//DTD SVG 1.1//EN" "http://www.w3.org/Graphics/SVG/1.1/DTD/svg11.dtd">
<svg version="1.1" xmlns="http://www.w3.org/2000/svg" xmlns:xlink="http://www.w3.org/1999/xlink" width="80" height="80" viewBox="0 0 80 80">
<path d="M40 30c3.75 0 6.719-3.125 6.719-6.719 0-3.75-3.125-6.563-6.719-6.563-3.75 0-6.719 2.813-6.719 6.563 0 3.594 2.969 6.719 6.719 6.719zM40 46.719c3.75 0 6.719-3.125 6.719-6.719s-3.125-6.719-6.719-6.719c-3.75 0-6.719 3.125-6.719 6.719s2.969 6.719 6.719 6.719zM40 63.281c3.75 0 6.719-2.969 6.719-6.563s-3.125-6.719-6.719-6.719c-3.75 0-6.719 3.125-6.719 6.719s2.969 6.563 6.719 6.563zM66.719 33.281c0 6.25-4.219 11.406-10 12.969v3.75h10c0 6.25-4.219 11.25-10 12.813v3.906c0 1.875-1.563 3.281-3.438 3.281h-26.563c-1.875 0-3.438-1.406-3.438-3.281v-3.906c-5.781-1.563-10-6.563-10-12.813h10v-3.75c-5.781-1.563-10-6.719-10-12.969h10v-3.75c-5.781-1.563-10-6.563-10-12.813h10v-3.438c0-1.875 1.563-3.281 3.438-3.281h26.563c1.875 0 3.438 1.406 3.438 3.281v3.438h10c0 6.25-4.219 11.25-10 12.813v3.75h10z"></path>
</svg>
