<?xml version="1.0" encoding="utf-8"?>
<!-- Generated by IcoMoon.io -->
<!DOCTYPE svg PUBLIC "-//W3C//DTD SVG 1.1//EN" "http://www.w3.org/Graphics/SVG/1.1/DTD/svg11.dtd">
<svg version="1.1" xmlns="http://www.w3.org/2000/svg" xmlns:xlink="http://www.w3.org/1999/xlink" width="80" height="80" viewBox="0 0 80 80">
<path d="M55 56.719c2.813 0 5-2.188 5-5s-2.188-5-5-5-5 2.188-5 5 2.188 5 5 5zM43.281 33.281h16.719v-13.281h-16.719v13.281zM36.719 33.281v-13.281h-16.719v13.281h16.719zM25 56.719c2.813 0 5-2.188 5-5s-2.188-5-5-5-5 2.188-5 5 2.188 5 5 5zM40 6.719c14.688 0 26.719 1.563 26.719 13.281v31.719c0 6.406-5.313 11.563-11.719 11.563l5 5v1.719h-6.719l-6.563-6.719h-12.656l-6.563 6.719h-7.5v-1.719l5-5c-6.406 0-11.719-5.156-11.719-11.563v-31.719c0-11.719 13.438-13.281 26.719-13.281z"></path>
</svg>
