<?xml version="1.0" encoding="utf-8"?>
<!-- Generated by IcoMoon.io -->
<!DOCTYPE svg PUBLIC "-//W3C//DTD SVG 1.1//EN" "http://www.w3.org/Graphics/SVG/1.1/DTD/svg11.dtd">
<svg version="1.1" xmlns="http://www.w3.org/2000/svg" xmlns:xlink="http://www.w3.org/1999/xlink" width="80" height="80" viewBox="0 0 80 80">
<path d="M56.719 46.719v-16.719h-33.438v16.719h33.438zM40 61.719c2.813 0 5-2.188 5-5s-2.188-5-5-5-5 2.188-5 5 2.188 5 5 5zM63.281 56.406c0 5.625-2.969 10.313-8.594 10.313h0.313l5 5v1.563h-6.719l-6.563-6.563h-12.656l-6.563 6.563h-7.5v-1.563l5.313-5.313c-4.688-1.094-8.594-5.156-8.594-10v-28.125c0-9.219 9.375-11.25 19.844-11.563l2.656-5h-15.938v-5h33.438v5h-10.938l-2.5 5c11.406 0.313 20 2.188 20 11.563v28.125z"></path>
</svg>
