<?xml version="1.0" encoding="utf-8"?>
<!-- Generated by IcoMoon.io -->
<!DOCTYPE svg PUBLIC "-//W3C//DTD SVG 1.1//EN" "http://www.w3.org/Graphics/SVG/1.1/DTD/svg11.dtd">
<svg version="1.1" xmlns="http://www.w3.org/2000/svg" xmlns:xlink="http://www.w3.org/1999/xlink" width="80" height="80" viewBox="0 0 80 80">
<path d="M52.969 56.719h10.781l-5.469-14.531zM61.719 33.281l15 40h-6.719l-3.75-10h-15.781l-3.75 10h-6.719l15-40h6.719zM42.969 50.156l-2.656 6.875-10.313-10.313-16.719 16.563-4.688-4.688 17.031-16.719c-4.219-4.688-7.5-9.688-10-15.156h6.719c2.031 3.906 4.531 7.656 7.656 11.094 4.844-5.313 8.438-11.406 10.625-17.813h-37.344v-6.719h23.438v-6.563h6.563v6.563h23.438v6.719h-9.844c-2.5 7.813-6.563 15.313-12.344 21.719l-0.156 0.156z"></path>
</svg>
