<?xml version="1.0" encoding="utf-8"?>
<!-- Generated by IcoMoon.io -->
<!DOCTYPE svg PUBLIC "-//W3C//DTD SVG 1.1//EN" "http://www.w3.org/Graphics/SVG/1.1/DTD/svg11.dtd">
<svg version="1.1" xmlns="http://www.w3.org/2000/svg" xmlns:xlink="http://www.w3.org/1999/xlink" width="80" height="80" viewBox="0 0 80 80">
<path d="M19.219 29.688l-9.219 47.031h7.031l5.781-26.719 7.188 6.719v20h6.719v-25.156l-6.875-6.875 2.031-10c4.375 5.313 10.781 8.594 18.125 8.594v-6.563c-6.094 0-11.563-3.438-14.531-8.281l-3.125-5.313c-1.094-2.031-3.281-3.125-5.625-3.125-0.781 0-1.719 0.156-2.5 0.469l-17.5 7.188v15.625h6.563v-11.094l5.938-2.5zM31.719 18.281c-3.594 0-6.719-2.969-6.719-6.563s3.125-6.719 6.719-6.719 6.563 3.125 6.563 6.719-2.969 6.563-6.563 6.563zM65 65.781v-5.781l8.281 8.281-8.281 8.438v-5.938h-18.281v-5h18.281zM55 51.719h18.281v5h-18.281v5.781l-8.281-8.281 8.281-8.438v5.938z"></path>
</svg>
