<?xml version="1.0" encoding="utf-8"?>
<!-- Generated by IcoMoon.io -->
<!DOCTYPE svg PUBLIC "-//W3C//DTD SVG 1.1//EN" "http://www.w3.org/Graphics/SVG/1.1/DTD/svg11.dtd">
<svg version="1.1" xmlns="http://www.w3.org/2000/svg" xmlns:xlink="http://www.w3.org/1999/xlink" width="80" height="80" viewBox="0 0 80 80">
<path d="M76.25 60h-1.25v-16.25c0-4.825-3.925-8.75-8.75-8.75h-21.25v-10h1.25c2.063 0 3.75-1.688 3.75-3.75v-12.5c0-2.063-1.688-3.75-3.75-3.75h-12.5c-2.063 0-3.75 1.688-3.75 3.75v12.5c0 2.063 1.688 3.75 3.75 3.75h1.25v10h-21.25c-4.825 0-8.75 3.925-8.75 8.75v16.25h-1.25c-2.063 0-3.75 1.688-3.75 3.75v12.5c0 2.063 1.688 3.75 3.75 3.75h12.5c2.063 0 3.75-1.688 3.75-3.75v-12.5c0-2.063-1.688-3.75-3.75-3.75h-1.25v-15h20v15h-1.25c-2.063 0-3.75 1.688-3.75 3.75v12.5c0 2.063 1.688 3.75 3.75 3.75h12.5c2.063 0 3.75-1.688 3.75-3.75v-12.5c0-2.063-1.688-3.75-3.75-3.75h-1.25v-15h20v15h-1.25c-2.063 0-3.75 1.688-3.75 3.75v12.5c0 2.063 1.688 3.75 3.75 3.75h12.5c2.063 0 3.75-1.688 3.75-3.75v-12.5c0-2.063-1.688-3.75-3.75-3.75zM15 75h-10v-10h10v10zM45 75h-10v-10h10v10zM35 20v-10h10v10h-10zM75 75h-10v-10h10v10z"></path>
</svg>
