<?xml version="1.0" encoding="utf-8"?>
<!-- Generated by IcoMoon.io -->
<!DOCTYPE svg PUBLIC "-//W3C//DTD SVG 1.1//EN" "http://www.w3.org/Graphics/SVG/1.1/DTD/svg11.dtd">
<svg version="1.1" xmlns="http://www.w3.org/2000/svg" xmlns:xlink="http://www.w3.org/1999/xlink" width="80" height="80" viewBox="0 0 80 80">
<path d="M72.5 0h-65c-4.125 0-7.5 3.375-7.5 7.5v65c0 4.125 3.375 7.5 7.5 7.5h65c4.125 0 7.5-3.375 7.5-7.5v-65c0-4.125-3.375-7.5-7.5-7.5zM35 60c0 2.75-2.25 5-5 5h-10c-2.75 0-5-2.25-5-5v-40c0-2.75 2.25-5 5-5h10c2.75 0 5 2.25 5 5v40zM65 45c0 2.75-2.25 5-5 5h-10c-2.75 0-5-2.25-5-5v-25c0-2.75 2.25-5 5-5h10c2.75 0 5 2.25 5 5v25z"></path>
</svg>
