<?xml version="1.0" encoding="utf-8"?>
<!-- Generated by IcoMoon.io -->
<!DOCTYPE svg PUBLIC "-//W3C//DTD SVG 1.1//EN" "http://www.w3.org/Graphics/SVG/1.1/DTD/svg11.dtd">
<svg version="1.1" xmlns="http://www.w3.org/2000/svg" xmlns:xlink="http://www.w3.org/1999/xlink" width="80" height="80" viewBox="0 0 80 80">
<path d="M80 45l-10-20h-15v-10c0-2.75-2.25-5-5-5h-45c-2.75 0-5 2.25-5 5v40l5 5h6.341c-0.851 1.471-1.341 3.178-1.341 5 0 5.523 4.477 10 10 10s10-4.477 10-10c0-1.822-0.49-3.529-1.341-5h27.682c-0.851 1.471-1.341 3.178-1.341 5 0 5.523 4.477 10 10 10s10-4.477 10-10c0-1.822-0.49-3.529-1.341-5h6.341v-15zM55 45v-15h10.365l7.5 15h-17.865z"></path>
</svg>
