<?xml version="1.0" encoding="utf-8"?>
<!-- Generated by IcoMoon.io -->
<!DOCTYPE svg PUBLIC "-//W3C//DTD SVG 1.1//EN" "http://www.w3.org/Graphics/SVG/1.1/DTD/svg11.dtd">
<svg version="1.1" xmlns="http://www.w3.org/2000/svg" xmlns:xlink="http://www.w3.org/1999/xlink" width="80" height="80" viewBox="0 0 80 80">
<path d="M72.5 0h-65c-4.125 0-7.5 3.375-7.5 7.5v65c0 4.125 3.375 7.5 7.5 7.5h65c4.125 0 7.5-3.375 7.5-7.5v-65c0-4.125-3.375-7.5-7.5-7.5zM57.172 64.422c-2.359 1.109-4.5 1.891-6.406 2.344-1.906 0.438-3.984 0.672-6.203 0.672-2.531 0-4.016-0.313-5.953-0.953s-3.594-1.547-4.969-2.719c-1.375-1.188-2.313-2.438-2.844-3.766s-0.797-3.25-0.797-5.781v-19.359h-7.5v-7.813c2.172-0.703 4.688-1.719 6.219-3.031 1.547-1.313 2.797-2.891 3.719-4.734 0.938-1.844 1.578-4.188 1.938-7.031h7.844v12.75h12.781v9.859h-12.766v14.156c0 3.203-0.047 5.047 0.297 5.953s1.188 1.844 2.109 2.375c1.219 0.734 2.625 1.094 4.188 1.094 2.797 0 5.578-0.906 8.344-2.719v8.703z"></path>
</svg>
