<?xml version="1.0" encoding="utf-8"?>
<!-- Generated by IcoMoon.io -->
<!DOCTYPE svg PUBLIC "-//W3C//DTD SVG 1.1//EN" "http://www.w3.org/Graphics/SVG/1.1/DTD/svg11.dtd">
<svg version="1.1" xmlns="http://www.w3.org/2000/svg" xmlns:xlink="http://www.w3.org/1999/xlink" width="80" height="80" viewBox="0 0 80 80">
<path d="M45.003 35l-0 18.296c0 4.642-0.060 7.317 0.432 8.633 0.488 1.309 1.712 2.668 3.046 3.453 1.772 1.062 3.792 1.592 6.071 1.592 4.051 0 6.444-0.535 10.449-3.167v12.027c-3.414 1.606-6.396 2.546-9.166 3.197-2.773 0.644-5.77 0.969-8.989 0.969-3.658 0-5.817-0.46-8.626-1.379-2.809-0.927-5.208-2.25-7.189-3.948-1.988-1.713-3.361-3.532-4.129-5.456s-1.15-4.72-1.15-8.378v-28.055h-10.736v-11.329c3.141-1.019 6.653-2.483 8.889-4.387 2.246-1.91 4.044-4.196 5.399-6.871 1.359-2.668 2.293-6.071 2.803-10.197h12.897l-0 20h19.998v15h-19.998z"></path>
</svg>
