<?xml version="1.0" encoding="utf-8"?>
<!-- Generated by IcoMoon.io -->
<!DOCTYPE svg PUBLIC "-//W3C//DTD SVG 1.1//EN" "http://www.w3.org/Graphics/SVG/1.1/DTD/svg11.dtd">
<svg version="1.1" xmlns="http://www.w3.org/2000/svg" xmlns:xlink="http://www.w3.org/1999/xlink" width="80" height="80" viewBox="0 0 80 80">
<path d="M44.348 57.572c-6.402 2.978-12.356 2.947-16.355 2.658-4.77-0.345-8.606-1.65-10.292-2.792-1.039-0.704-2.452-0.431-3.155 0.608s-0.431 2.452 0.608 3.155c2.711 1.835 7.505 3.2 12.513 3.561 0.849 0.061 1.781 0.1 2.785 0.1 4.358 0 9.893-0.415 15.814-3.17 1.138-0.53 1.631-1.881 1.102-3.019s-1.881-1.631-3.019-1.102zM69.605 54.204c0.218-19.741 2.247-57.047-35.545-54.032-37.313 3.003-27.419 42.419-27.975 55.621-0.493 6.983-2.811 15.519-6.086 24.207h10.086c1.036-3.681 1.799-7.322 2.128-10.793 0.608 0.424 1.258 0.834 1.953 1.227 1.13 0.665 2.1 1.55 3.128 2.487 2.402 2.189 5.124 4.67 10.446 4.981 0.357 0.020 0.717 0.031 1.068 0.031 5.383 0 9.064-2.356 12.022-4.249 1.417-0.907 2.642-1.691 3.794-2.067 3.274-1.025 6.135-2.679 8.274-4.785 0.334-0.329 0.644-0.667 0.935-1.012 1.191 4.365 2.822 9.278 4.632 14.18h21.535c-5.17-7.986-10.503-15.81-10.395-25.796zM9.696 43.465c0-0.001 0-0.002-0-0.004-0.371-6.442 2.712-11.862 6.885-12.104s7.856 4.783 8.227 11.226c0 0.001 0 0.002 0 0.003 0.020 0.347 0.029 0.691 0.029 1.032-1.322 0.332-2.515 0.815-3.584 1.377-0.004-0.048-0.007-0.095-0.012-0.143 0-0.001 0-0.001 0-0.002-0.357-3.657-2.31-6.419-4.363-6.169s-3.428 3.418-3.071 7.075c0 0.001 0 0.001 0 0.002 0.156 1.594 0.615 3.018 1.253 4.097-0.159 0.125-0.608 0.454-1.125 0.832-0.388 0.284-0.861 0.63-1.431 1.049-1.553-2.039-2.618-4.967-2.808-8.273zM51.973 59.389c-0.148 3.405-4.602 6.609-8.717 7.894l-0.023 0.008c-1.711 0.555-3.237 1.531-4.852 2.565-2.713 1.736-5.519 3.532-9.572 3.532-0.266 0-0.539-0.008-0.807-0.023-3.712-0.217-5.449-1.799-7.647-3.803-1.16-1.057-2.359-2.15-3.904-3.057l-0.033-0.019c-3.336-1.883-5.407-4.225-5.54-6.265-0.066-1.014 0.386-1.892 1.342-2.609 2.081-1.56 3.475-2.58 4.397-3.255 1.024-0.749 1.333-0.975 1.563-1.193 0.164-0.155 0.341-0.327 0.532-0.513 1.91-1.857 5.106-4.966 10.012-4.966 3 0 6.32 1.156 9.857 3.43 1.666 1.084 3.116 1.585 4.952 2.219 1.262 0.436 2.693 0.93 4.609 1.75l0.031 0.013c1.788 0.735 3.898 2.075 3.802 4.292zM50.988 51.391c-0.344-0.173-0.701-0.338-1.074-0.491-1.727-0.739-3.112-1.24-4.26-1.64 0.634-1.242 1.028-2.791 1.064-4.472 0-0.001 0-0.002 0-0.002 0.088-4.092-1.976-7.414-4.609-7.42s-4.84 3.306-4.928 7.397c0 0.001 0 0.001 0 0.002-0.003 0.134-0.003 0.267-0.002 0.399-1.622-0.746-3.217-1.288-4.779-1.622-0.007-0.154-0.016-0.307-0.019-0.462 0-0.001 0-0.003 0-0.004-0.151-7.454 4.422-13.624 10.215-13.781s10.612 5.758 10.763 13.212c0 0.001 0 0.003 0 0.004 0.068 3.371-0.833 6.474-2.373 8.881z"></path>
</svg>
