<?xml version="1.0" encoding="utf-8"?>
<!-- Generated by IcoMoon.io -->
<!DOCTYPE svg PUBLIC "-//W3C//DTD SVG 1.1//EN" "http://www.w3.org/Graphics/SVG/1.1/DTD/svg11.dtd">
<svg version="1.1" xmlns="http://www.w3.org/2000/svg" xmlns:xlink="http://www.w3.org/1999/xlink" width="80" height="80" viewBox="0 0 80 80">
<path d="M17.031 16.719h45.938l-3.125-3.438h-40zM40 31.719l-18.281 18.281h11.563v6.719h13.438v-6.719h11.563zM68.438 17.344c0.938 1.094 1.563 2.813 1.563 4.375v41.563c0 3.594-3.125 6.719-6.719 6.719h-46.563c-3.75 0-6.719-3.125-6.719-6.719v-41.563c0-1.563 0.625-3.281 1.563-4.375l4.531-5.469c0.938-1.094 2.344-1.875 3.906-1.875h40c1.563 0 2.969 0.781 3.906 1.875z"></path>
</svg>
