<?xml version="1.0" encoding="utf-8"?>
<!-- Generated by IcoMoon.io -->
<!DOCTYPE svg PUBLIC "-//W3C//DTD SVG 1.1//EN" "http://www.w3.org/Graphics/SVG/1.1/DTD/svg11.dtd">
<svg version="1.1" xmlns="http://www.w3.org/2000/svg" xmlns:xlink="http://www.w3.org/1999/xlink" width="80" height="80" viewBox="0 0 80 80">
<path d="M30 36.25c0 2.063-1.688 3.75-3.75 3.75h-7.5c-2.063 0-3.75-1.688-3.75-3.75v-7.5c0-2.063 1.688-3.75 3.75-3.75h7.5c2.063 0 3.75 1.688 3.75 3.75v7.5z"></path>
<path d="M55 36.25c0 2.063-1.688 3.75-3.75 3.75h-7.5c-2.063 0-3.75-1.688-3.75-3.75v-7.5c0-2.063 1.688-3.75 3.75-3.75h7.5c2.063 0 3.75 1.688 3.75 3.75v7.5z"></path>
<path d="M30 61.25c0 2.063-1.688 3.75-3.75 3.75h-7.5c-2.063 0-3.75-1.688-3.75-3.75v-7.5c0-2.063 1.688-3.75 3.75-3.75h7.5c2.063 0 3.75 1.688 3.75 3.75v7.5z"></path>
<path d="M55 61.25c0 2.063-1.688 3.75-3.75 3.75h-7.5c-2.063 0-3.75-1.688-3.75-3.75v-7.5c0-2.063 1.688-3.75 3.75-3.75h7.5c2.063 0 3.75 1.688 3.75 3.75v7.5z"></path>
<path d="M71.256 12.5l8.744-8.743v-3.757h-3.756l-8.744 8.743-8.744-8.743h-3.756v3.757l8.744 8.743-8.744 8.743v3.757h3.756l8.744-8.743 8.744 8.743h3.756v-3.757z"></path>
<path d="M0 60h5v10h-5v-10z"></path>
<path d="M0 45h5v10h-5v-10z"></path>
<path d="M65 35h5v10h-5v-10z"></path>
<path d="M65 65h5v10h-5v-10z"></path>
<path d="M65 50h5v10h-5v-10z"></path>
<path d="M0 30h5v10h-5v-10z"></path>
<path d="M0 15h5v10h-5v-10z"></path>
<path d="M40 10h10v5h-10v-5z"></path>
<path d="M25 10h10v5h-10v-5z"></path>
<path d="M10 10h10v5h-10v-5z"></path>
<path d="M35 75h10v5h-10v-5z"></path>
<path d="M50 75h10v5h-10v-5z"></path>
<path d="M20 75h10v5h-10v-5z"></path>
<path d="M5 75h10v5h-10v-5z"></path>
</svg>
