<?xml version="1.0" encoding="utf-8"?>
<!-- Generated by IcoMoon.io -->
<!DOCTYPE svg PUBLIC "-//W3C//DTD SVG 1.1//EN" "http://www.w3.org/Graphics/SVG/1.1/DTD/svg11.dtd">
<svg version="1.1" xmlns="http://www.w3.org/2000/svg" xmlns:xlink="http://www.w3.org/1999/xlink" width="80" height="80" viewBox="0 0 80 80">
<path d="M60 5c8.271 0 15 6.729 15 15v15h-10v-15c0-2.757-2.243-5-5-5h-10c-2.757 0-5 2.243-5 5v15h1.25c2.063 0 3.75 1.688 3.75 3.75v37.5c0 2.063-1.688 3.75-3.75 3.75h-42.5c-2.063 0-3.75-1.688-3.75-3.75v-37.5c0-2.063 1.688-3.75 3.75-3.75h31.25v-15c0-8.271 6.729-15 15-15h10z"></path>
</svg>
