<?xml version="1.0" encoding="utf-8"?>
<!-- Generated by IcoMoon.io -->
<!DOCTYPE svg PUBLIC "-//W3C//DTD SVG 1.1//EN" "http://www.w3.org/Graphics/SVG/1.1/DTD/svg11.dtd">
<svg version="1.1" xmlns="http://www.w3.org/2000/svg" xmlns:xlink="http://www.w3.org/1999/xlink" width="80" height="80" viewBox="0 0 80 80">
<path d="M41.719 26.719v14.063l11.563 7.031-2.344 4.063-14.219-8.594v-16.563h5zM70 33.75h-22.656l9.219-9.375c-9.063-9.063-23.906-9.375-32.969-0.313s-9.063 23.438 0 32.5 23.906 9.063 32.969 0c4.531-4.531 6.719-9.688 6.719-16.25h6.719c0 6.563-2.813 15.156-8.75 20.938-11.719 11.563-30.781 11.563-42.5 0s-11.719-30.313 0-41.875 30.469-11.563 42.188 0l9.063-9.375v23.75z"></path>
</svg>
