<?xml version="1.0" encoding="utf-8"?>
<!-- Generated by IcoMoon.io -->
<!DOCTYPE svg PUBLIC "-//W3C//DTD SVG 1.1//EN" "http://www.w3.org/Graphics/SVG/1.1/DTD/svg11.dtd">
<svg version="1.1" xmlns="http://www.w3.org/2000/svg" xmlns:xlink="http://www.w3.org/1999/xlink" width="80" height="80" viewBox="0 0 80 80">
<path d="M50 23.281h13.281v13.438h-3.281v6.563c0 3.75-2.969 6.719-6.719 6.719h-10v10.156c2.344 1.25 4.063 3.75 4.063 6.563 0 4.063-3.281 7.344-7.344 7.344s-7.344-3.281-7.344-7.344c0-2.813 1.719-5.313 4.063-6.563v-10.156h-10c-3.75 0-6.719-2.969-6.719-6.719v-6.875c-2.344-1.25-4.063-3.594-4.063-6.406 0-4.063 3.281-7.344 7.344-7.344s7.344 3.281 7.344 7.344c0 2.813-1.563 5.156-3.906 6.406v6.875h10v-26.563h-6.719l10-13.438 10 13.438h-6.719v26.563h10v-6.563h-3.281v-13.438z"></path>
</svg>
