<?xml version="1.0" encoding="utf-8"?>
<!-- Generated by IcoMoon.io -->
<!DOCTYPE svg PUBLIC "-//W3C//DTD SVG 1.1//EN" "http://www.w3.org/Graphics/SVG/1.1/DTD/svg11.dtd">
<svg version="1.1" xmlns="http://www.w3.org/2000/svg" xmlns:xlink="http://www.w3.org/1999/xlink" width="80" height="80" viewBox="0 0 80 80">
<path d="M30 57.5c0-11.815 7.49-21.913 17.971-25.797 1.272-2.855 2.029-6.028 2.029-9.203 0-12.426 0-22.5-15-22.5s-15 10.074-15 22.5c0 7.739 4.492 15.477 10 18.581v4.123c-16.961 1.387-30 9.72-30 19.796h31.040c-0.677-2.385-1.040-4.901-1.040-7.5z"></path>
<path d="M57.5 35c-12.426 0-22.5 10.074-22.5 22.5s10.074 22.5 22.5 22.5c12.426 0 22.5-10.074 22.5-22.5s-10.074-22.5-22.5-22.5zM70 60h-10v10h-5v-10h-10v-5h10v-10h5v10h10v5z"></path>
</svg>
