<?xml version="1.0" encoding="utf-8"?>
<!-- Generated by IcoMoon.io -->
<!DOCTYPE svg PUBLIC "-//W3C//DTD SVG 1.1//EN" "http://www.w3.org/Graphics/SVG/1.1/DTD/svg11.dtd">
<svg version="1.1" xmlns="http://www.w3.org/2000/svg" xmlns:xlink="http://www.w3.org/1999/xlink" width="90" height="80" viewBox="0 0 90 80">
<path d="M60 60.204v-4.123c5.508-3.104 10-10.842 10-18.581 0-12.426 0-22.5-15-22.5s-15 10.074-15 22.5c0 7.739 4.492 15.477 10 18.581v4.123c-16.961 1.387-30 9.72-30 19.796h70c0-10.076-13.039-18.409-30-19.796z"></path>
<path d="M25.562 62.135c4.321-2.824 9.694-4.972 15.608-6.282-1.176-1.389-2.243-2.939-3.163-4.611-2.376-4.315-3.632-9.067-3.632-13.742 0-6.722 0-13.071 2.391-18.263 2.321-5.039 6.494-8.164 12.439-9.335-1.321-5.975-4.839-9.902-14.205-9.902-15 0-15 10.074-15 22.5 0 7.739 4.492 15.477 10 18.581v4.123c-16.961 1.387-30 9.72-30 19.796h21.797c1.134-1.009 2.39-1.967 3.765-2.865z"></path>
</svg>
