<?xml version="1.0" encoding="utf-8"?>
<!-- Generated by IcoMoon.io -->
<!DOCTYPE svg PUBLIC "-//W3C//DTD SVG 1.1//EN" "http://www.w3.org/Graphics/SVG/1.1/DTD/svg11.dtd">
<svg version="1.1" xmlns="http://www.w3.org/2000/svg" xmlns:xlink="http://www.w3.org/1999/xlink" width="80" height="80" viewBox="0 0 80 80">
<path d="M53.281 63.281v-46.563h-26.563v46.563h26.563zM55 10c2.813 0 5 2.188 5 5v50c0 2.813-2.188 5-5 5h-30c-2.813 0-5-2.188-5-5v-50c0-2.813 2.188-5 5-5h30zM63.281 56.719v-33.438h6.719v33.438h-6.719zM73.281 30h6.719v20h-6.719v-20zM10 56.719v-33.438h6.719v33.438h-6.719zM0 50v-20h6.719v20h-6.719z"></path>
</svg>
