<?xml version="1.0" encoding="utf-8"?>
<!-- Generated by IcoMoon.io -->
<!DOCTYPE svg PUBLIC "-//W3C//DTD SVG 1.1//EN" "http://www.w3.org/Graphics/SVG/1.1/DTD/svg11.dtd">
<svg version="1.1" xmlns="http://www.w3.org/2000/svg" xmlns:xlink="http://www.w3.org/1999/xlink" width="80" height="80" viewBox="0 0 80 80">
<path d="M30 22.5c0-6.904 5.596-12.5 12.5-12.5s12.5 5.596 12.5 12.5c0 6.904-5.596 12.5-12.5 12.5s-12.5-5.596-12.5-12.5zM0 22.5c0-6.904 5.596-12.5 12.5-12.5s12.5 5.596 12.5 12.5c0 6.904-5.596 12.5-12.5 12.5s-12.5-5.596-12.5-12.5zM60 47.5v-7.5c0-2.75-2.25-5-5-5h-50c-2.75 0-5 2.25-5 5v25c0 2.75 2.25 5 5 5h50c2.75 0 5-2.25 5-5v-7.5l20 12.5v-35l-20 12.5zM50 60h-40v-15h40v15z"></path>
</svg>
