<?xml version="1.0" encoding="utf-8"?>
<!-- Generated by IcoMoon.io -->
<!DOCTYPE svg PUBLIC "-//W3C//DTD SVG 1.1//EN" "http://www.w3.org/Graphics/SVG/1.1/DTD/svg11.dtd">
<svg version="1.1" xmlns="http://www.w3.org/2000/svg" xmlns:xlink="http://www.w3.org/1999/xlink" width="80" height="80" viewBox="0 0 80 80">
<path d="M65 40c2.813 0 5-2.188 5-5s-2.188-5-5-5-5 2.188-5 5 2.188 5 5 5zM51.719 50c2.813 0 5-2.188 5-5s-2.188-5-5-5-5 2.188-5 5 2.188 5 5 5zM36.719 43.281v-6.563h-10v-10h-6.719v10h-10v6.563h10v10h6.719v-10h10zM70 20c3.594 0 6.719 3.125 6.719 6.719v26.563c0 3.594-3.125 6.719-6.719 6.719h-60c-3.594 0-6.719-3.125-6.719-6.719v-26.563c0-3.594 3.125-6.719 6.719-6.719h60z"></path>
</svg>
