<?xml version="1.0" encoding="utf-8"?>
<!-- Generated by IcoMoon.io -->
<!DOCTYPE svg PUBLIC "-//W3C//DTD SVG 1.1//EN" "http://www.w3.org/Graphics/SVG/1.1/DTD/svg11.dtd">
<svg version="1.1" xmlns="http://www.w3.org/2000/svg" xmlns:xlink="http://www.w3.org/1999/xlink" width="80" height="80" viewBox="0 0 80 80">
<path d="M60 16.719h13.281v13.281h-13.281v-13.281zM60 63.281v-13.281h13.281v13.281h-13.281zM43.281 63.281v-13.281h13.438v13.281h-13.438zM26.719 63.281v-13.281h13.281v13.281h-13.281zM10 63.281v-13.281h13.281v13.281h-13.281zM60 46.719v-13.438h13.281v13.438h-13.281zM43.281 16.719h13.438v13.281h-13.438v-13.281zM26.719 30v-13.281h13.281v13.281h-13.281zM43.281 46.719v-13.438h13.438v13.438h-13.438zM26.719 46.719v-13.438h13.281v13.438h-13.281zM10 46.719v-13.438h13.281v13.438h-13.281zM10 30v-13.281h13.281v13.281h-13.281z"></path>
</svg>
