<?xml version="1.0" encoding="utf-8"?>
<!-- Generated by IcoMoon.io -->
<!DOCTYPE svg PUBLIC "-//W3C//DTD SVG 1.1//EN" "http://www.w3.org/Graphics/SVG/1.1/DTD/svg11.dtd">
<svg version="1.1" xmlns="http://www.w3.org/2000/svg" xmlns:xlink="http://www.w3.org/1999/xlink" width="80" height="80" viewBox="0 0 80 80">
<path d="M79.969 21.406c-0.359 7.781-5.797 18.453-16.313 31.984-10.875 14.125-20.078 21.203-27.609 21.203-4.656 0-8.609-4.297-11.828-12.906-2.156-7.891-4.297-15.781-6.453-23.672-2.391-8.609-4.953-12.906-7.703-12.906-0.594 0-2.688 1.266-6.281 3.766l-3.766-4.844c3.953-3.469 7.844-6.938 11.672-10.406 5.266-4.547 9.219-6.937 11.859-7.187 6.219-0.594 10.062 3.656 11.5 12.766 1.547 9.828 2.625 15.938 3.234 18.328 1.797 8.156 3.766 12.234 5.922 12.234 1.672 0 4.188-2.641 7.547-7.938 3.344-5.281 5.141-9.312 5.391-12.078 0.484-4.562-1.313-6.859-5.391-6.859-1.922 0-3.891 0.438-5.922 1.313 3.938-12.875 11.438-19.125 22.531-18.766 8.203 0.219 12.078 5.547 11.609 15.969z"></path>
</svg>
