<?xml version="1.0" encoding="utf-8"?>
<!-- Generated by IcoMoon.io -->
<!DOCTYPE svg PUBLIC "-//W3C//DTD SVG 1.1//EN" "http://www.w3.org/Graphics/SVG/1.1/DTD/svg11.dtd">
<svg version="1.1" xmlns="http://www.w3.org/2000/svg" xmlns:xlink="http://www.w3.org/1999/xlink" width="80" height="80" viewBox="0 0 80 80">
<path d="M72.5 0h-65c-4.125 0-7.5 3.375-7.5 7.5v65c0 4.125 3.375 7.5 7.5 7.5h65c4.125 0 7.5-3.375 7.5-7.5v-65c0-4.125-3.375-7.5-7.5-7.5zM67.313 26.563c-0.25 5.625-4.188 13.328-11.797 23.109-7.859 10.219-14.516 15.328-19.953 15.328-3.375 0-6.219-3.109-8.547-9.328-1.563-5.703-3.109-11.406-4.672-17.109-1.719-6.219-3.578-9.328-5.562-9.328-0.438 0-1.953 0.906-4.531 2.719l-2.719-3.5c2.859-2.5 5.672-5.016 8.437-7.516 3.813-3.281 6.656-5.016 8.562-5.188 4.5-0.438 7.266 2.641 8.313 9.219 1.125 7.109 1.906 11.516 2.344 13.25 1.297 5.891 2.719 8.828 4.281 8.828 1.203 0 3.031-1.906 5.453-5.734s3.719-6.734 3.891-8.734c0.344-3.297-0.953-4.953-3.891-4.953-1.391 0-2.813 0.313-4.281 0.953 2.844-9.297 8.266-13.828 16.281-13.563 5.938 0.172 8.734 4.016 8.391 11.547z"></path>
</svg>
