<?xml version="1.0" encoding="utf-8"?>
<!-- Generated by IcoMoon.io -->
<!DOCTYPE svg PUBLIC "-//W3C//DTD SVG 1.1//EN" "http://www.w3.org/Graphics/SVG/1.1/DTD/svg11.dtd">
<svg version="1.1" xmlns="http://www.w3.org/2000/svg" xmlns:xlink="http://www.w3.org/1999/xlink" width="80" height="80" viewBox="0 0 80 80">
<path d="M75.063 39.766c-2.063 0.469-4.047 0.688-5.844 0.688-10.094 0-17.859-7.047-17.859-19.313 0-6.016 2.328-9.125 5.609-9.125 3.125 0 5.203 2.797 5.203 8.484 0 3.234-0.859 6.781-1.5 8.875 0 0 3.109 5.422 11.609 3.766 1.813-4.016 2.781-9.203 2.781-13.75 0-12.25-6.25-19.391-17.703-19.391-11.781 0-18.672 9.047-18.672 20.984 0 11.828 5.531 21.969 14.641 26.594-3.828 7.672-8.703 14.422-13.797 19.516-9.219-11.156-17.563-26.031-20.984-55.078h-13.609c6.297 48.375 25.031 63.781 30 66.734 2.797 1.688 5.219 1.609 7.781 0.156 4.031-2.281 16.109-14.375 22.813-28.516 2.813 0 6.188-0.328 9.547-1.094v-9.531z"></path>
</svg>
