<?xml version="1.0" encoding="utf-8"?>
<!-- Generated by IcoMoon.io -->
<!DOCTYPE svg PUBLIC "-//W3C//DTD SVG 1.1//EN" "http://www.w3.org/Graphics/SVG/1.1/DTD/svg11.dtd">
<svg version="1.1" xmlns="http://www.w3.org/2000/svg" xmlns:xlink="http://www.w3.org/1999/xlink" width="80" height="80" viewBox="0 0 80 80">
<path d="M40 30c5.469 0 10 4.531 10 10s-4.531 10-10 10-10-4.531-10-10 4.531-10 10-10zM40 56.719c9.219 0 16.719-7.5 16.719-16.719s-7.5-16.719-16.719-16.719-16.719 7.5-16.719 16.719 7.5 16.719 16.719 16.719zM40 15c16.719 0 30.938 10.313 36.719 25-5.781 14.688-20 25-36.719 25s-30.938-10.313-36.719-25c5.781-14.688 20-25 36.719-25z"></path>
</svg>
