<?xml version="1.0" encoding="utf-8"?>
<!-- Generated by IcoMoon.io -->
<!DOCTYPE svg PUBLIC "-//W3C//DTD SVG 1.1//EN" "http://www.w3.org/Graphics/SVG/1.1/DTD/svg11.dtd">
<svg version="1.1" xmlns="http://www.w3.org/2000/svg" xmlns:xlink="http://www.w3.org/1999/xlink" width="80" height="80" viewBox="0 0 80 80">
<path d="M39.531 30h0.469c5.469 0 10 4.531 10 10v0.625zM25.156 32.656c-1.094 2.188-1.875 4.688-1.875 7.344 0 9.219 7.5 16.719 16.719 16.719 2.656 0 5.156-0.781 7.344-1.875l-5.156-5.156c-0.625 0.156-1.406 0.313-2.188 0.313-5.469 0-10-4.531-10-10 0-0.781 0.156-1.563 0.313-2.188zM6.719 14.219l4.219-4.219 59.063 59.063-4.219 4.219c-3.747-3.7-7.521-7.375-11.25-11.094-4.531 1.875-9.375 2.813-14.531 2.813-16.719 0-30.938-10.313-36.719-25 2.656-6.563 7.031-12.188 12.5-16.563-3.048-3.046-6.040-6.148-9.063-9.219zM40 23.281c-2.188 0-4.219 0.469-6.094 1.25l-7.188-7.188c4.063-1.563 8.594-2.344 13.281-2.344 16.719 0 30.781 10.313 36.563 25-2.5 6.25-6.406 11.563-11.406 15.781l-9.688-9.688c0.781-1.875 1.25-3.906 1.25-6.094 0-9.219-7.5-16.719-16.719-16.719z"></path>
</svg>
