<?xml version="1.0" encoding="utf-8"?>
<!-- Generated by IcoMoon.io -->
<!DOCTYPE svg PUBLIC "-//W3C//DTD SVG 1.1//EN" "http://www.w3.org/Graphics/SVG/1.1/DTD/svg11.dtd">
<svg version="1.1" xmlns="http://www.w3.org/2000/svg" xmlns:xlink="http://www.w3.org/1999/xlink" width="80" height="80" viewBox="0 0 80 80">
<path d="M72.5 0h-65c-4.125 0-7.5 3.375-7.5 7.5v65c0 4.125 3.375 7.5 7.5 7.5h65c4.125 0 7.5-3.375 7.5-7.5v-65c0-4.125-3.375-7.5-7.5-7.5zM64.797 56l-7.313 0.109c0 0-1.578 0.313-3.641-1.109-2.734-1.875-5.313-6.766-7.328-6.125-2.031 0.641-1.969 5.031-1.969 5.031s0.016 0.938-0.453 1.437c-0.5 0.547-1.5 0.656-1.5 0.656h-3.266c0 0-7.219 0.438-13.578-6.188-6.938-7.219-13.063-21.547-13.063-21.547s-0.359-0.938 0.031-1.391c0.437-0.516 1.609-0.547 1.609-0.547l7.828-0.047c0 0 0.734 0.125 1.266 0.516 0.438 0.313 0.672 0.922 0.672 0.922s1.266 3.203 2.938 6.094c3.266 5.641 4.797 6.875 5.906 6.281 1.609-0.875 1.125-7.984 1.125-7.984s0.031-2.578-0.813-3.719c-0.656-0.891-1.891-1.156-2.422-1.219-0.438-0.063 0.281-1.078 1.219-1.547 1.406-0.688 3.891-0.734 6.828-0.703 2.281 0.016 2.953 0.172 3.844 0.375 2.703 0.656 1.781 3.172 1.781 9.203 0 1.938-0.344 4.656 1.047 5.547 0.594 0.391 2.062 0.062 5.734-6.172 1.734-2.953 3.047-6.422 3.047-6.422s0.281-0.625 0.719-0.891c0.453-0.266 1.063-0.187 1.063-0.187l8.234-0.047c0 0 2.469-0.297 2.875 0.828 0.422 1.172-0.922 3.906-4.281 8.391-5.516 7.359-6.141 6.672-1.547 10.922 4.375 4.063 5.281 6.047 5.438 6.297 1.781 3-2.031 3.234-2.031 3.234z"></path>
</svg>
