<?xml version="1.0" encoding="utf-8"?>
<!-- Generated by IcoMoon.io -->
<!DOCTYPE svg PUBLIC "-//W3C//DTD SVG 1.1//EN" "http://www.w3.org/Graphics/SVG/1.1/DTD/svg11.dtd">
<svg version="1.1" xmlns="http://www.w3.org/2000/svg" xmlns:xlink="http://www.w3.org/1999/xlink" width="80" height="80" viewBox="0 0 80 80">
<path d="M61.719 50c6.406 0 11.563-5.313 11.563-11.719s-5.156-11.563-11.563-11.563-11.719 5.156-11.719 11.563 5.313 11.719 11.719 11.719zM18.281 50c6.406 0 11.719-5.313 11.719-11.719s-5.313-11.563-11.719-11.563-11.563 5.156-11.563 11.563 5.156 11.719 11.563 11.719zM61.719 20c10.156 0 18.281 8.125 18.281 18.281s-8.125 18.438-18.281 18.438h-43.438c-10.156 0-18.281-8.281-18.281-18.438s8.125-18.281 18.281-18.281 18.438 8.125 18.438 18.281c0 4.375-1.563 8.594-4.219 11.719h15c-2.656-3.125-4.219-7.344-4.219-11.719 0-10.156 8.281-18.281 18.438-18.281z"></path>
</svg>
