<?xml version="1.0" encoding="utf-8"?>
<!-- Generated by IcoMoon.io -->
<!DOCTYPE svg PUBLIC "-//W3C//DTD SVG 1.1//EN" "http://www.w3.org/Graphics/SVG/1.1/DTD/svg11.dtd">
<svg version="1.1" xmlns="http://www.w3.org/2000/svg" xmlns:xlink="http://www.w3.org/1999/xlink" width="80" height="80" viewBox="0 0 80 80">
<path d="M80 45h-15v15h-10v-15h-15v-10h15v-15h10v15h15v10z"></path>
<path d="M32.5 75c-0.651 0-1.29-0.254-1.768-0.732l-19.268-19.268h-8.965c-1.381 0-2.5-1.119-2.5-2.5v-25c0-1.381 1.119-2.5 2.5-2.5h8.965l19.268-19.268c0.715-0.715 1.79-0.929 2.725-0.542s1.543 1.299 1.543 2.31v65c0 1.011-0.609 1.923-1.543 2.31-0.309 0.128-0.634 0.19-0.956 0.19z"></path>
</svg>
