<?xml version="1.0" encoding="utf-8"?>
<!-- Generated by IcoMoon.io -->
<!DOCTYPE svg PUBLIC "-//W3C//DTD SVG 1.1//EN" "http://www.w3.org/Graphics/SVG/1.1/DTD/svg11.dtd">
<svg version="1.1" xmlns="http://www.w3.org/2000/svg" xmlns:xlink="http://www.w3.org/1999/xlink" width="80" height="80" viewBox="0 0 80 80">
<path d="M40 13.281v14.063l-7.031-7.031zM14.219 10l55.781 55.781-4.219 4.219-6.875-6.875c-3.594 2.813-7.656 5-12.188 6.094v-6.875c2.813-0.781 5.313-2.188 7.5-3.906l-14.219-14.219v22.5l-16.719-16.719h-13.281v-20h15.781l-15.781-15.781zM63.281 40c0-10.625-6.875-19.531-16.563-22.344v-6.875c13.438 2.969 23.281 15 23.281 29.219 0 5-1.25 9.844-3.438 13.906l-5-5.156c1.094-2.656 1.719-5.625 1.719-8.75zM55 40c0 0.781 0 1.406-0.156 2.031l-8.125-8.125v-7.344c5 2.5 8.281 7.5 8.281 13.438z"></path>
</svg>
