<?xml version="1.0" encoding="utf-8"?>
<!-- Generated by IcoMoon.io -->
<!DOCTYPE svg PUBLIC "-//W3C//DTD SVG 1.1//EN" "http://www.w3.org/Graphics/SVG/1.1/DTD/svg11.dtd">
<svg version="1.1" xmlns="http://www.w3.org/2000/svg" xmlns:xlink="http://www.w3.org/1999/xlink" width="80" height="80" viewBox="0 0 80 80">
<path d="M33.281 69.844v-6.563c-3.594 0-6.563-2.969-6.563-6.563v-3.438l-16.094-15.938c-0.469 1.875-0.625 3.906-0.625 5.938 0 13.594 10.156 25 23.281 26.563zM63.125 40h6.719c0.156 1.094 0.156 2.188 0.156 3.281 0 18.438-14.844 33.438-33.281 33.438s-33.438-15-33.438-33.438 15-33.281 33.438-33.281c3.438 0 6.875 0.625 10 1.563v8.438c0 3.594-3.125 6.719-6.719 6.719h-6.719v6.563c0 1.875-1.406 3.438-3.281 3.438h-6.719v6.563h20c1.875 0 3.438 1.563 3.438 3.438v10h3.281c2.969 0 5.469 1.875 6.406 4.531 4.375-4.688 6.875-11.094 6.875-17.969 0-1.094 0-2.188-0.156-3.281zM70.625 13.281v-1.563c0-3.125-2.5-5.781-5.625-5.781s-5.625 2.656-5.625 5.781v1.563h11.25zM73.281 13.281c1.875 0 3.438 1.563 3.438 3.438v13.281c0 1.875-1.563 3.281-3.438 3.281h-16.563c-1.875 0-3.438-1.406-3.438-3.281v-13.281c0-1.875 1.563-3.438 3.438-3.438v-1.563c0-4.531 3.75-8.438 8.281-8.438s8.281 3.906 8.281 8.438v1.563z"></path>
</svg>
