<?xml version="1.0" encoding="utf-8"?>
<!-- Generated by IcoMoon.io -->
<!DOCTYPE svg PUBLIC "-//W3C//DTD SVG 1.1//EN" "http://www.w3.org/Graphics/SVG/1.1/DTD/svg11.dtd">
<svg version="1.1" xmlns="http://www.w3.org/2000/svg" xmlns:xlink="http://www.w3.org/1999/xlink" width="80" height="80" viewBox="0 0 80 80">
<path d="M13.281 43.281v23.438h23.438v6.563h-23.438c-3.594 0-6.563-2.969-6.563-6.563v-23.438h6.563zM66.719 66.719v-23.438h6.563v23.438c0 3.594-2.969 6.563-6.563 6.563h-23.438v-6.563h23.438zM66.719 6.719c3.594 0 6.563 2.969 6.563 6.563v23.438h-6.563v-23.438h-23.438v-6.563h23.438zM56.719 28.281c0 2.813-2.188 5-5 5s-5-2.188-5-5 2.188-5 5-5 5 2.188 5 5zM33.281 43.281l10 12.344 6.719-8.906 10 13.281h-40zM13.281 13.281v23.438h-6.563v-23.438c0-3.594 2.969-6.563 6.563-6.563h23.438v6.563h-23.438z"></path>
</svg>
