<?xml version="1.0" encoding="utf-8"?>
<!-- Generated by IcoMoon.io -->
<!DOCTYPE svg PUBLIC "-//W3C//DTD SVG 1.1//EN" "http://www.w3.org/Graphics/SVG/1.1/DTD/svg11.dtd">
<svg version="1.1" xmlns="http://www.w3.org/2000/svg" xmlns:xlink="http://www.w3.org/1999/xlink" width="80" height="80" viewBox="0 0 80 80">
<path d="M40 7.248l33.524 66.815h-67.047l33.524-66.815zM40 0c-1.724 0-3.448 1.163-4.757 3.488l-34.146 68.056c-2.616 4.651-0.391 8.456 4.946 8.456h67.915c5.336 0 7.562-3.805 4.945-8.456h0l-34.146-68.056c-1.308-2.325-3.032-3.488-4.756-3.488v0z"></path>
<path d="M45 65c0 2.761-2.239 5-5 5s-5-2.239-5-5c0-2.761 2.239-5 5-5s5 2.239 5 5z"></path>
<path d="M40 55c-2.761 0-5-2.239-5-5v-15c0-2.761 2.239-5 5-5s5 2.239 5 5v15c0 2.761-2.239 5-5 5z"></path>
</svg>
