<?xml version="1.0" encoding="utf-8"?>
<!-- Generated by IcoMoon.io -->
<!DOCTYPE svg PUBLIC "-//W3C//DTD SVG 1.1//EN" "http://www.w3.org/Graphics/SVG/1.1/DTD/svg11.dtd">
<svg version="1.1" xmlns="http://www.w3.org/2000/svg" xmlns:xlink="http://www.w3.org/1999/xlink" width="80" height="80" viewBox="0 0 80 80">
<path d="M34.375 53.281h6.25l-10.625-30h-6.719l-10.625 30h6.406l2.344-6.563h10.625zM73.281 23.281h6.094l-6.875 30h-5.781l-5-20.313-5 20.313h-5.938l-0.313-1.406c-4.375 8.75-13.281 14.844-23.75 14.844-14.688 0-26.719-12.031-26.719-26.719s12.031-26.719 26.719-26.719c8.438 0 15.938 3.906 20.781 10h2.5l4.063 21.094 5-21.094h5.313l5 21.094zM22.813 42.188l3.906-12.188 3.75 12.188h-7.656z"></path>
</svg>
