<?xml version="1.0" encoding="utf-8"?>
<!-- Generated by IcoMoon.io -->
<!DOCTYPE svg PUBLIC "-//W3C//DTD SVG 1.1//EN" "http://www.w3.org/Graphics/SVG/1.1/DTD/svg11.dtd">
<svg version="1.1" xmlns="http://www.w3.org/2000/svg" xmlns:xlink="http://www.w3.org/1999/xlink" width="80" height="80" viewBox="0 0 80 80">
<path d="M57.5 60.469l4.688-4.531 5.938 5.938-4.688 4.688zM66.719 35h10v6.719h-10v-6.719zM50 21.094c5.938 3.438 10 9.844 10 17.188 0 11.094-8.906 20-20 20s-20-8.906-20-20c0-7.344 4.063-13.75 10-17.188v-16.094h20v16.094zM13.281 35v6.719h-10v-6.719h10zM36.719 74.844v-9.844h6.563v9.844h-6.563zM11.875 61.875l5.938-6.094 4.688 4.688-5.938 6.094z"></path>
</svg>
