<?xml version="1.0" encoding="utf-8"?>
<!-- Generated by IcoMoon.io -->
<!DOCTYPE svg PUBLIC "-//W3C//DTD SVG 1.1//EN" "http://www.w3.org/Graphics/SVG/1.1/DTD/svg11.dtd">
<svg version="1.1" xmlns="http://www.w3.org/2000/svg" xmlns:xlink="http://www.w3.org/1999/xlink" width="80" height="80" viewBox="0 0 80 80">
<path d="M11.875 61.875l5.938-6.094 4.688 4.688-5.938 6.094zM36.719 74.844v-9.844h6.563v9.844h-6.563zM40 18.281c11.094 0 20 8.906 20 20s-8.906 20-20 20-20-8.906-20-20 8.906-20 20-20zM66.719 35h10v6.719h-10v-6.719zM57.5 60.469l4.688-4.531 5.938 5.938-4.688 4.688zM68.125 14.844l-5.938 5.938-4.688-4.688 5.938-5.938zM43.281 1.875v9.844h-6.563v-9.844h6.563zM13.281 35v6.719h-10v-6.719h10zM22.5 16.094l-4.688 4.688-5.938-5.938 4.688-4.688z"></path>
</svg>
