<?xml version="1.0" encoding="utf-8"?>
<!-- Generated by IcoMoon.io -->
<!DOCTYPE svg PUBLIC "-//W3C//DTD SVG 1.1//EN" "http://www.w3.org/Graphics/SVG/1.1/DTD/svg11.dtd">
<svg version="1.1" xmlns="http://www.w3.org/2000/svg" xmlns:xlink="http://www.w3.org/1999/xlink" width="80" height="80" viewBox="0 0 80 80">
<path d="M55 20c-3.75 0-6.719-2.969-6.719-6.719s2.969-6.563 6.719-6.563 6.719 2.813 6.719 6.563-2.969 6.719-6.719 6.719zM25 20c-3.75 0-6.719-2.969-6.719-6.719s2.969-6.563 6.719-6.563 6.719 2.813 6.719 6.563-2.969 6.719-6.719 6.719zM60 73.281h-10v-20h-10l8.438-25.313c0.938-2.656 3.594-4.688 6.406-4.688h0.313c2.813 0 5.469 2.031 6.406 4.688l8.438 25.313h-10v20zM18.281 73.281v-25h-5v-18.281c0-3.594 3.125-6.719 6.719-6.719h10c3.594 0 6.719 3.125 6.719 6.719v18.281h-5v25h-13.438z"></path>
</svg>
