<?xml version="1.0" encoding="utf-8"?>
<!-- Generated by IcoMoon.io -->
<!DOCTYPE svg PUBLIC "-//W3C//DTD SVG 1.1//EN" "http://www.w3.org/Graphics/SVG/1.1/DTD/svg11.dtd">
<svg version="1.1" xmlns="http://www.w3.org/2000/svg" xmlns:xlink="http://www.w3.org/1999/xlink" width="80" height="80" viewBox="0 0 80 80">
<path d="M60 16.719c3.594 0 6.719 2.969 6.719 6.563v7.188c-3.906 1.406-6.719 5-6.719 9.375v6.875h-40v-6.875c0-4.375-2.813-7.969-6.719-9.375v-7.188c0-3.594 3.125-6.563 6.719-6.563h40zM70 33.281c3.594 0 6.719 3.125 6.719 6.719v16.719c0 3.594-3.125 6.563-6.719 6.563h-60c-3.594 0-6.719-2.969-6.719-6.563v-16.719c0-3.594 3.125-6.719 6.719-6.719s6.719 3.125 6.719 6.719v10h46.563v-10c0-3.594 3.125-6.719 6.719-6.719z"></path>
</svg>
