<?xml version="1.0" encoding="utf-8"?>
<!-- Generated by IcoMoon.io -->
<!DOCTYPE svg PUBLIC "-//W3C//DTD SVG 1.1//EN" "http://www.w3.org/Graphics/SVG/1.1/DTD/svg11.dtd">
<svg version="1.1" xmlns="http://www.w3.org/2000/svg" xmlns:xlink="http://www.w3.org/1999/xlink" width="80" height="80" viewBox="0 0 80 80">
<path d="M39.063 63.281c8.906 0 15.938-7.031 15.938-15.938 0-4.688-0.625-9.063-1.875-13.438-3.438 4.531-9.531 7.344-15.469 8.594s-9.375 4.844-9.375 10.313c0 5.781 4.844 10.469 10.781 10.469zM45 2.188c12.969 10.469 21.719 26.563 21.719 44.531 0 14.688-12.031 26.563-26.719 26.563s-26.719-11.875-26.719-26.563c0-11.25 4.063-21.719 10.781-29.688v1.25c0 6.875 5.156 12.344 12.031 12.344s11.406-5.469 11.406-12.344c0-7.188-2.5-16.094-2.5-16.094z"></path>
</svg>
