<?xml version="1.0" encoding="utf-8"?>
<!-- Generated by IcoMoon.io -->
<!DOCTYPE svg PUBLIC "-//W3C//DTD SVG 1.1//EN" "http://www.w3.org/Graphics/SVG/1.1/DTD/svg11.dtd">
<svg version="1.1" xmlns="http://www.w3.org/2000/svg" xmlns:xlink="http://www.w3.org/1999/xlink" width="80" height="80" viewBox="0 0 80 80">
<path d="M68.203 11.625c-7.484-7.5-17.438-11.625-28.047-11.625-21.844 0-39.625 17.781-39.625 39.641 0 6.984 1.828 13.813 5.297 19.813l-5.625 20.547 21.016-5.516c5.797 3.156 12.313 4.828 18.938 4.828h0.016c0 0 0 0 0 0 21.844 0 39.641-17.781 39.641-39.641 0-10.594-4.125-20.547-11.609-28.047zM40.172 72.625v0c-5.922 0-11.719-1.594-16.781-4.594l-1.203-0.719-12.469 3.266 3.328-12.156-0.781-1.25c-3.313-5.234-5.047-11.297-5.047-17.531 0-18.172 14.781-32.953 32.969-32.953 8.797 0 17.078 3.437 23.297 9.656 6.219 6.234 9.641 14.5 9.641 23.312-0.016 18.187-14.797 32.969-32.953 32.969zM58.234 47.938c-0.984-0.5-5.859-2.891-6.766-3.219s-1.563-0.5-2.234 0.5c-0.656 0.984-2.562 3.219-3.141 3.891-0.578 0.656-1.156 0.75-2.141 0.25s-4.188-1.547-7.969-4.922c-2.938-2.625-4.938-5.875-5.516-6.859s-0.063-1.531 0.438-2.016c0.453-0.438 0.984-1.156 1.484-1.734s0.656-0.984 0.984-1.656c0.328-0.656 0.172-1.234-0.078-1.734s-2.234-5.375-3.047-7.359c-0.797-1.938-1.625-1.672-2.234-1.703-0.578-0.031-1.234-0.031-1.891-0.031s-1.734 0.25-2.641 1.234c-0.906 0.984-3.469 3.391-3.469 8.266s3.547 9.578 4.047 10.25c0.5 0.656 6.984 10.672 16.922 14.953 2.359 1.016 4.203 1.625 5.641 2.094 2.375 0.75 4.531 0.641 6.234 0.391 1.906-0.281 5.859-2.391 6.688-4.703s0.828-4.297 0.578-4.703c-0.234-0.438-0.891-0.687-1.891-1.188z"></path>
</svg>
