<?xml version="1.0" encoding="utf-8"?>
<!-- Generated by IcoMoon.io -->
<!DOCTYPE svg PUBLIC "-//W3C//DTD SVG 1.1//EN" "http://www.w3.org/Graphics/SVG/1.1/DTD/svg11.dtd">
<svg version="1.1" xmlns="http://www.w3.org/2000/svg" xmlns:xlink="http://www.w3.org/1999/xlink" width="80" height="80" viewBox="0 0 80 80">
<path d="M40 10c18.438 0 33.281 14.844 33.281 33.281 0 12.344-6.563 23.125-16.563 28.906l-3.438-5.781c7.969-4.688 13.438-13.281 13.438-23.125 0-14.688-12.031-26.563-26.719-26.563s-26.719 11.875-26.719 26.563c0 9.844 5.313 18.438 13.281 23.125l-3.281 5.781c-10-5.781-16.563-16.563-16.563-28.906 0-18.438 14.844-33.281 33.281-33.281zM60 43.281c0 7.344-4.063 13.906-10 17.344l-3.281-5.781c3.906-2.344 6.563-6.563 6.563-11.563 0-7.344-5.938-13.281-13.281-13.281s-13.281 5.938-13.281 13.281c0 5 2.656 9.219 6.563 11.563l-3.281 5.781c-5.938-3.438-10-10-10-17.344 0-11.094 8.906-20 20-20s20 8.906 20 20zM40 36.719c3.594 0 6.719 2.969 6.719 6.563s-3.125 6.719-6.719 6.719-6.719-3.125-6.719-6.719 3.125-6.563 6.719-6.563z"></path>
</svg>
