<?xml version="1.0" encoding="utf-8"?>
<!-- Generated by IcoMoon.io -->
<!DOCTYPE svg PUBLIC "-//W3C//DTD SVG 1.1//EN" "http://www.w3.org/Graphics/SVG/1.1/DTD/svg11.dtd">
<svg version="1.1" xmlns="http://www.w3.org/2000/svg" xmlns:xlink="http://www.w3.org/1999/xlink" width="80" height="80" viewBox="0 0 80 80">
<path d="M73.281 53.281v-5c0-2.813-2.188-5-5-5s-5 2.188-5 5v5h10zM76.719 53.281c1.875 0 3.281 1.563 3.281 3.438v13.281c0 1.875-1.406 3.281-3.281 3.281h-16.719c-1.875 0-3.281-1.406-3.281-3.281v-13.281c0-1.875 1.406-3.438 3.281-3.438v-5c0-4.531 3.75-8.281 8.281-8.281s8.438 3.75 8.438 8.281v5zM68.281 31.719c-9.219 0-16.563 7.344-16.563 16.563v9.531l-11.719 15.469-40-53.281c11.094-8.438 25-13.281 40-13.281s28.906 4.844 40 13.281l-8.906 11.875c-0.938-0.156-1.875-0.156-2.813-0.156z"></path>
</svg>
