<?xml version="1.0" encoding="utf-8"?>
<!-- Generated by IcoMoon.io -->
<!DOCTYPE svg PUBLIC "-//W3C//DTD SVG 1.1//EN" "http://www.w3.org/Graphics/SVG/1.1/DTD/svg11.dtd">
<svg version="1.1" xmlns="http://www.w3.org/2000/svg" xmlns:xlink="http://www.w3.org/1999/xlink" width="80" height="80" viewBox="0 0 80 80">
<path d="M75.531 18.25c0 0.25-0.078 0.484-0.234 0.703-0.156 0.203-0.328 0.313-0.531 0.313-1.563 0.156-2.844 0.656-3.828 1.5-1 0.844-2.016 2.484-3.063 4.875l-16.125 36.359c-0.109 0.344-0.406 0.5-0.891 0.5-0.375 0-0.672-0.172-0.891-0.5l-9.047-18.906-10.406 18.906c-0.219 0.344-0.5 0.5-0.891 0.5-0.469 0-0.766-0.172-0.922-0.5l-15.828-36.344c-0.984-2.25-2.031-3.828-3.125-4.719s-2.625-1.453-4.578-1.656c-0.172 0-0.328-0.094-0.469-0.266-0.156-0.172-0.219-0.375-0.219-0.609 0-0.594 0.172-0.891 0.5-0.891 1.406 0 2.891 0.063 4.438 0.188 1.438 0.125 2.781 0.188 4.047 0.188 1.281 0 2.813-0.063 4.563-0.188 1.828-0.125 3.453-0.188 4.875-0.188 0.344 0 0.5 0.297 0.5 0.891s-0.109 0.875-0.313 0.875c-1.406 0.109-2.531 0.469-3.344 1.078s-1.219 1.406-1.219 2.406c0 0.5 0.172 1.141 0.5 1.891l13.078 29.563 7.438-14.031-6.922-14.516c-1.25-2.594-2.266-4.266-3.063-5.016s-2.016-1.203-3.641-1.375c-0.156 0-0.281-0.094-0.422-0.266s-0.203-0.375-0.203-0.609c0-0.594 0.141-0.891 0.438-0.891 1.406 0 2.703 0.063 3.891 0.188 1.141 0.125 2.344 0.188 3.641 0.188 1.266 0 2.594-0.063 4.016-0.188 1.453-0.125 2.891-0.188 4.297-0.188 0.344 0 0.5 0.297 0.5 0.891s-0.094 0.875-0.313 0.875c-2.828 0.188-4.234 1-4.234 2.406 0 0.625 0.328 1.609 0.984 2.938l4.578 9.297 4.562-8.5c0.625-1.203 0.953-2.219 0.953-3.031 0-1.938-1.406-2.969-4.234-3.094-0.25 0-0.375-0.297-0.375-0.875 0-0.219 0.062-0.406 0.188-0.594s0.25-0.281 0.375-0.281c1.016 0 2.25 0.063 3.734 0.188 1.406 0.125 2.578 0.188 3.484 0.188 0.656 0 1.609-0.063 2.875-0.156 1.594-0.141 2.938-0.219 4.016-0.219 0.25 0 0.375 0.25 0.375 0.75 0 0.672-0.234 1.016-0.688 1.016-1.641 0.172-2.969 0.625-3.969 1.359s-2.25 2.406-3.75 5.031l-6.109 11.188 8.219 16.75 12.141-28.234c0.422-1.031 0.625-1.984 0.625-2.844 0-2.062-1.406-3.156-4.234-3.297-0.25 0-0.375-0.297-0.375-0.875 0-0.594 0.188-0.891 0.563-0.891 1.031 0 2.25 0.063 3.672 0.188 1.313 0.125 2.406 0.188 3.281 0.188 0.938 0 2-0.063 3.219-0.188 1.266-0.125 2.406-0.188 3.422-0.188 0.313 0 0.469 0.25 0.469 0.75z"></path>
</svg>
