<?xml version="1.0" encoding="utf-8"?>
<!-- Generated by IcoMoon.io -->
<!DOCTYPE svg PUBLIC "-//W3C//DTD SVG 1.1//EN" "http://www.w3.org/Graphics/SVG/1.1/DTD/svg11.dtd">
<svg version="1.1" xmlns="http://www.w3.org/2000/svg" xmlns:xlink="http://www.w3.org/1999/xlink" width="80" height="80" viewBox="0 0 80 80">
<path d="M32.205 39.993c-3.727-1.915-7.35-2.887-10.772-2.887-0.465 0-0.934 0.014-1.402 0.055-4.366 0.361-8.353 1.513-10.918 2.408-0.68 0.25-1.378 0.514-2.096 0.805l-7.017 24.328c4.82-1.784 9.085-2.651 12.99-2.651 6.316 0 10.901 2.36 14.687 4.789 1.794-6.087 6.097-20.788 7.381-25.182-0.934-0.569-1.881-1.138-2.853-1.666zM41.277 46.177l-7.066 24.543c2.096 1.201 9.148 5.004 14.548 5.004 4.359 0 9.238-1.117 14.909-3.421l6.747-23.592c-4.581 1.478-8.975 2.228-13.083 2.228-7.496 0-12.743-2.43-16.054-4.762zM22.877 28.812c6.025 0.062 10.481 2.36 14.173 4.727l7.246-24.792c-1.527-0.875-5.532-3.054-8.426-3.797-1.905-0.444-3.908-0.673-6.032-0.673-4.047 0.076-8.468 1.090-13.507 3.109l-6.909 24.265c5.063-1.909 9.425-2.839 13.444-2.839 0.004 0 0.011 0 0.011 0zM80 15.478c-4.595 1.784-9.079 2.693-13.362 2.693-7.163 0-12.445-2.485-15.867-4.872l-7.184 24.862c4.824 3.102 10.023 4.678 15.478 4.678 4.449 0 9.058-1.069 13.708-3.179l-0.014-0.174 0.292-0.069 6.948-23.939z"></path>
</svg>
