<?xml version="1.0" encoding="utf-8"?>
<!-- Generated by IcoMoon.io -->
<!DOCTYPE svg PUBLIC "-//W3C//DTD SVG 1.1//EN" "http://www.w3.org/Graphics/SVG/1.1/DTD/svg11.dtd">
<svg version="1.1" xmlns="http://www.w3.org/2000/svg" xmlns:xlink="http://www.w3.org/1999/xlink" width="80" height="80" viewBox="0 0 80 80">
<path d="M40 80c22.091 0 40-17.909 40-40s-17.909-40-40-40-40 17.909-40 40 17.909 40 40 40zM40 7.5c17.949 0 32.5 14.551 32.5 32.5s-14.551 32.5-32.5 32.5-32.5-14.551-32.5-32.5 14.551-32.5 32.5-32.5zM42.402 55.549c10.957-2.165 19.462-7.152 22.535-13.796-1.692 13.122-12.619 23.247-25.848 23.247-9.316 0-17.489-5.022-22.101-12.574 5.501 4.301 15.198 5.141 25.413 3.123zM50 27.5c0-4.142 2.239-7.5 5-7.5s5 3.358 5 7.5c0 4.142-2.239 7.5-5 7.5s-5-3.358-5-7.5zM27.5 29.023c-3.265 0-6.042 1.223-7.072 2.93-0.277-0.458-0.428-2.514-0.428-3.027 0-2.427 3.358-4.395 7.5-4.395s7.5 1.968 7.5 4.395c0 0.514-0.152 2.569-0.428 3.027-1.030-1.707-3.806-2.93-7.072-2.93z"></path>
</svg>
