<?xml version="1.0" encoding="utf-8"?>
<!-- Generated by IcoMoon.io -->
<!DOCTYPE svg PUBLIC "-//W3C//DTD SVG 1.1//EN" "http://www.w3.org/Graphics/SVG/1.1/DTD/svg11.dtd">
<svg version="1.1" xmlns="http://www.w3.org/2000/svg" xmlns:xlink="http://www.w3.org/1999/xlink" width="80" height="80" viewBox="0 0 80 80">
<path d="M40 0c-22.091 0-40 17.908-40 40s17.908 40 40 40c22.091 0 40-17.909 40-40s-17.909-40-40-40zM55 20c2.761 0 5 3.358 5 7.5s-2.239 7.5-5 7.5-5-3.358-5-7.5 2.239-7.5 5-7.5zM27.5 24.38c4.66 0 7.969 1.745 7.969 4.475 0 0.578 0.298 3.359-0.013 3.875-1.158-1.92-4.282-3.296-7.955-3.296s-6.797 1.376-7.955 3.296c-0.311-0.516-0.013-3.297-0.013-3.875 0-2.73 3.309-4.475 7.969-4.475zM39.089 65c-9.316 0-17.489-5.022-22.101-12.574 5.501 4.302 15.198 5.141 25.413 3.123 10.957-2.165 19.462-7.152 22.535-13.796-1.692 13.122-12.619 23.248-25.848 23.248z"></path>
</svg>
