<?xml version="1.0" encoding="utf-8"?>
<!-- Generated by IcoMoon.io -->
<!DOCTYPE svg PUBLIC "-//W3C//DTD SVG 1.1//EN" "http://www.w3.org/Graphics/SVG/1.1/DTD/svg11.dtd">
<svg version="1.1" xmlns="http://www.w3.org/2000/svg" xmlns:xlink="http://www.w3.org/1999/xlink" width="80" height="80" viewBox="0 0 80 80">
<path d="M10 39.999c0 11.565 6.9 21.56 16.909 26.295l-14.311-38.186c-1.665 3.633-2.598 7.655-2.598 11.891zM60.252 38.526c0-3.612-1.332-6.112-2.473-8.058-1.52-2.408-2.947-4.445-2.947-6.853 0-2.685 2.091-5.186 5.038-5.186 0.133 0 0.259 0.016 0.389 0.024-5.337-4.763-12.448-7.672-20.258-7.672-10.481 0-19.702 5.238-25.066 13.169 0.704 0.022 1.368 0.035 1.931 0.035 3.137 0 7.995-0.371 7.995-0.371 1.616-0.092 1.807 2.221 0.192 2.408 0 0-1.626 0.185-3.434 0.277l10.925 31.649 6.566-19.176-4.674-12.473c-1.616-0.093-3.147-0.277-3.147-0.277-1.617-0.093-1.428-2.5 0.19-2.408 0 0 4.953 0.371 7.901 0.371 3.136 0 7.996-0.371 7.996-0.371 1.617-0.092 1.808 2.221 0.191 2.408 0 0-1.628 0.185-3.433 0.277l10.842 31.408 2.993-9.737c1.295-4.043 2.283-6.945 2.283-9.445zM40.527 42.555l-9.002 25.473c2.689 0.77 5.531 1.19 8.476 1.19 3.493 0 6.844-0.587 9.962-1.656-0.080-0.125-0.154-0.258-0.215-0.403l-9.221-24.605zM66.325 25.982c0.129 0.93 0.202 1.929 0.202 3.005 0 2.963-0.57 6.297-2.281 10.465l-9.163 25.803c8.919-5.065 14.917-14.476 14.917-25.255 0-5.080-1.333-9.856-3.675-14.017zM40 0c-22.091 0-40 17.909-40 40s17.909 40 40 40 40-17.909 40-40-17.909-40-40-40zM40 75c-19.33 0-35-15.67-35-35s15.67-35 35-35 35 15.67 35 35-15.67 35-35 35z"></path>
</svg>
