<?xml version="1.0" encoding="utf-8"?>
<!-- Generated by IcoMoon.io -->
<!DOCTYPE svg PUBLIC "-//W3C//DTD SVG 1.1//EN" "http://www.w3.org/Graphics/SVG/1.1/DTD/svg11.dtd">
<svg version="1.1" xmlns="http://www.w3.org/2000/svg" xmlns:xlink="http://www.w3.org/1999/xlink" width="80" height="80" viewBox="0 0 80 80">
<path d="M78.354 63.897l-35.981-30.841c1.676-3.148 2.626-6.741 2.626-10.556 0-12.426-10.074-22.5-22.5-22.5-2.273 0-4.467 0.338-6.535 0.965l12.999 12.999c1.945 1.945 1.945 5.127 0 7.071l-7.929 7.929c-1.945 1.945-5.127 1.945-7.071 0l-12.999-12.999c-0.627 2.068-0.965 4.262-0.965 6.535 0 12.426 10.074 22.5 22.5 22.5 3.815 0 7.408-0.951 10.556-2.627l30.841 35.981c1.79 2.088 4.845 2.205 6.789 0.261l7.929-7.929c1.944-1.944 1.827-5-0.261-6.789z"></path>
</svg>
