<?xml version="1.0" encoding="utf-8"?>
<!-- Generated by IcoMoon.io -->
<!DOCTYPE svg PUBLIC "-//W3C//DTD SVG 1.1//EN" "http://www.w3.org/Graphics/SVG/1.1/DTD/svg11.dtd">
<svg version="1.1" xmlns="http://www.w3.org/2000/svg" xmlns:xlink="http://www.w3.org/1999/xlink" width="80" height="80" viewBox="0 0 80 80">
<path d="M12.156 15.797c-0.688 0-1.281 0.25-1.578 0.719-0.297 0.5-0.25 1.125 0.063 1.766l7.797 13.5c0.016 0.031 0.016 0.047 0 0.063l-12.25 21.656c-0.313 0.641-0.297 1.281 0 1.766 0.297 0.469 0.813 0.781 1.5 0.781h11.531c1.719 0 2.563-1.172 3.141-2.234 0 0 11.984-21.203 12.453-22.031-0.047-0.078-7.938-13.828-7.938-13.828-0.578-1.016-1.438-2.156-3.219-2.156h-11.5z"></path>
<path d="M60.625 0c-1.719 0-2.469 1.078-3.094 2.203 0 0-24.859 44.078-25.672 45.531 0.047 0.078 16.391 30.078 16.391 30.078 0.578 1.016 1.453 2.203 3.219 2.203h11.531c0.687 0 1.234-0.266 1.531-0.734 0.313-0.5 0.297-1.141-0.031-1.781l-16.25-29.734c-0.016-0.031-0.016-0.047 0-0.078l25.547-45.172c0.313-0.641 0.328-1.281 0.031-1.781-0.297-0.469-0.844-0.734-1.531-0.734h-11.672z"></path>
</svg>
