<?xml version="1.0" encoding="utf-8"?>
<!-- Generated by IcoMoon.io -->
<!DOCTYPE svg PUBLIC "-//W3C//DTD SVG 1.1//EN" "http://www.w3.org/Graphics/SVG/1.1/DTD/svg11.dtd">
<svg version="1.1" xmlns="http://www.w3.org/2000/svg" xmlns:xlink="http://www.w3.org/1999/xlink" width="80" height="80" viewBox="0 0 80 80">
<path d="M72.5 0h-65c-4.125 0-7.5 3.375-7.5 7.5v65c0 4.125 3.375 7.5 7.5 7.5h65c4.125 0 7.5-3.375 7.5-7.5v-65c0-4.125-3.375-7.5-7.5-7.5zM24.422 52.031h-8.641c-0.516 0-0.906-0.234-1.125-0.594-0.234-0.375-0.234-0.844 0-1.328l9.188-16.219c0.016-0.016 0.016-0.031 0-0.047l-5.844-10.125c-0.234-0.484-0.281-0.953-0.047-1.328 0.219-0.359 0.656-0.547 1.188-0.547h8.656c1.328 0 1.984 0.859 2.406 1.625 0 0 5.906 10.313 5.953 10.375-0.344 0.625-9.344 16.516-9.344 16.516-0.469 0.813-1.094 1.672-2.391 1.672zM65.344 11.891l-19.156 33.875c-0.016 0.016-0.016 0.047 0 0.062l12.203 22.281c0.234 0.484 0.25 0.969 0.016 1.344-0.219 0.359-0.625 0.547-1.156 0.547h-8.641c-1.328 0-1.984-0.875-2.422-1.641 0 0-12.266-22.5-12.297-22.563 0.609-1.078 19.25-34.141 19.25-34.141 0.469-0.828 1.031-1.641 2.313-1.641h8.766c0.516 0 0.938 0.203 1.156 0.547 0.219 0.359 0.219 0.844-0.031 1.328z"></path>
</svg>
