<?xml version="1.0" encoding="utf-8"?>
<!-- Generated by IcoMoon.io -->
<!DOCTYPE svg PUBLIC "-//W3C//DTD SVG 1.1//EN" "http://www.w3.org/Graphics/SVG/1.1/DTD/svg11.dtd">
<svg version="1.1" xmlns="http://www.w3.org/2000/svg" xmlns:xlink="http://www.w3.org/1999/xlink" width="80" height="80" viewBox="0 0 80 80">
<path d="M40.094 5.438c-14.141 0-27.5-1.859-40.094-5.438 0 28.266 0 72.906 0 80 12.609-3.578 25.969-5.438 40.094-5.438 13.969 0 27.297 1.813 39.906 5.438 0-27.219 0-50.766 0-80-12.609 3.625-25.922 5.438-39.906 5.438zM62.25 12.266l-0.484 0.766c-0.453 0.719-0.859 1.328-1.422 2.188-0.75 1.125-2.156 3.359-3.844 6.234-0.469 0.797-1.047 1.75-1.641 2.781-1.141 1.922-2.422 4.094-3.438 5.812-0.422 0.734-0.844 1.484-1.281 2.234-1.125 1.953-2.281 3.969-3.391 5.906-1.141 2.016-2.266 4-3.391 5.969v1.984c0 2.75 0.062 5.75 0.156 8.422 0.047 1.219 0.094 3.391 0.156 5.687 0.062 2.734 0.125 5.563 0.203 7l0.016 0.438v0.047l-0.469-0.125c-0.188-0.047-0.359-0.094-0.547-0.141-0.563-0.125-1.172-0.219-1.766-0.281-0.359-0.031-0.734-0.047-1.109-0.047 0 0 0 0 0 0s0 0 0 0c-0.375 0-0.75 0.016-1.109 0.047-0.594 0.063-1.203 0.156-1.766 0.281-0.187 0.047-0.375 0.094-0.547 0.141l-0.469 0.125v-0.047l0.016-0.438c0.063-1.422 0.141-4.266 0.203-7 0.047-2.297 0.109-4.469 0.156-5.687 0.109-2.688 0.156-5.672 0.156-8.422v-1.984c-1.125-1.984-2.25-3.953-3.391-5.969-1.109-1.953-2.266-3.953-3.375-5.906-0.438-0.75-0.859-1.5-1.281-2.234-1-1.734-2.297-3.906-3.438-5.812-0.609-1.016-1.188-1.984-1.641-2.781-1.688-2.875-3.094-5.094-3.844-6.234-0.563-0.859-0.969-1.469-1.422-2.188l-0.484-0.766 0.875 0.25c1.109 0.313 2.25 0.469 3.469 0.469s2.391-0.156 3.484-0.469l0.266-0.078 0.141 0.234c2.156 3.891 7.953 13.422 11.422 19.125 1.188 1.969 2.141 3.516 2.609 4.313 0 0 0 0 0-0.016 0 0 0 0 0 0.016 0.469-0.781 1.422-2.344 2.609-4.313 3.469-5.688 9.266-15.219 11.422-19.125l0.141-0.234 0.266 0.078c1.094 0.313 2.266 0.469 3.484 0.469s2.359-0.156 3.469-0.469l0.828-0.25z"></path>
</svg>
