<?xml version="1.0" encoding="utf-8"?>
<!-- Generated by IcoMoon.io -->
<!DOCTYPE svg PUBLIC "-//W3C//DTD SVG 1.1//EN" "http://www.w3.org/Graphics/SVG/1.1/DTD/svg11.dtd">
<svg version="1.1" xmlns="http://www.w3.org/2000/svg" xmlns:xlink="http://www.w3.org/1999/xlink" width="80" height="80" viewBox="0 0 80 80">
<path d="M44.391 46.016v0c8.797-15.438 23.328-40.625 27.313-46.016-1.75 1.172-4.437 1.766-6.906 2.328l-3.734-2.328c-3 5.594-14.063 23.672-21.109 35.25-7.141-11.828-15.594-25.484-21.109-35.25-4.375 0.938-6.188 0.984-10.547 0v0 0c0 0 0 0 0 0v0c8.656 13.031 22.516 37.859 27.234 46.016v0l-0.641 33.984 5.063-2.328v-0.063l5.063 2.391-0.625-33.984z"></path>
</svg>
