<?xml version="1.0" encoding="utf-8"?>
<!-- Generated by IcoMoon.io -->
<!DOCTYPE svg PUBLIC "-//W3C//DTD SVG 1.1//EN" "http://www.w3.org/Graphics/SVG/1.1/DTD/svg11.dtd">
<svg version="1.1" xmlns="http://www.w3.org/2000/svg" xmlns:xlink="http://www.w3.org/1999/xlink" width="80" height="80" viewBox="0 0 80 80">
<path d="M47.568 51.052c-1.35 1.361-0.208 3.838-0.208 3.838l10.163 16.97c0 0 1.669 2.237 3.114 2.237 1.452 0 2.887-1.193 2.887-1.193l8.035-11.485c0 0 0.809-1.449 0.828-2.718 0.029-1.805-2.692-2.3-2.692-2.3l-19.023-6.109c-0 0-1.864-0.494-3.105 0.759zM46.604 42.499c0.973 1.651 3.658 1.17 3.658 1.17l18.98-5.547c0 0 2.586-1.052 2.956-2.455 0.363-1.403-0.427-3.095-0.427-3.095l-9.070-10.684c0 0-0.786-1.351-2.417-1.487-1.798-0.153-2.905 2.023-2.905 2.023l-10.724 16.876c0 0-0.948 1.681-0.051 3.199zM37.637 35.919c2.235-0.55 2.59-3.797 2.59-3.797l-0.152-27.021c0 0-0.337-3.333-1.835-4.237-2.349-1.425-3.045-0.681-3.718-0.582l-15.758 5.855c0 0-1.543 0.511-2.347 1.798-1.148 1.824 1.166 4.496 1.166 4.496l16.378 22.325c0 0 1.616 1.672 3.675 1.163zM33.746 46.855c0.056-2.084-2.502-3.336-2.502-3.336l-16.937-8.557c0 0-2.51-1.035-3.728-0.314-0.934 0.552-1.761 1.55-1.842 2.432l-1.103 13.579c0 0-0.165 2.353 0.445 3.423 0.864 1.519 3.705 0.461 3.705 0.461l19.773-4.37c0.768-0.516 2.115-0.563 2.19-3.319zM38.663 54.183c-1.697-0.872-3.728 0.934-3.728 0.934l-13.24 14.575c0 0-1.652 2.229-1.232 3.598 0.396 1.283 1.051 1.92 1.978 2.369l13.296 4.197c0 0 1.612 0.335 2.833-0.019 1.733-0.502 1.414-3.215 1.414-3.215l0.301-19.735c-0 0-0.068-1.901-1.621-2.705z"></path>
</svg>
