<?xml version="1.0" encoding="utf-8"?>
<!-- Generated by IcoMoon.io -->
<!DOCTYPE svg PUBLIC "-//W3C//DTD SVG 1.1//EN" "http://www.w3.org/Graphics/SVG/1.1/DTD/svg11.dtd">
<svg version="1.1" xmlns="http://www.w3.org/2000/svg" xmlns:xlink="http://www.w3.org/1999/xlink" width="80" height="80" viewBox="0 0 80 80">
<path d="M79.203 24c0 0-0.781-5.516-3.188-7.938-3.047-3.188-6.453-3.203-8.016-3.391-11.188-0.813-27.984-0.813-27.984-0.813h-0.031c0 0-16.797 0-27.984 0.813-1.563 0.188-4.969 0.203-8.016 3.391-2.406 2.422-3.172 7.938-3.172 7.938s-0.797 6.469-0.797 12.953v6.063c0 6.469 0.797 12.953 0.797 12.953s0.781 5.516 3.172 7.938c3.047 3.187 7.047 3.078 8.828 3.422 6.406 0.609 27.203 0.797 27.203 0.797s16.813-0.031 28-0.828c1.563-0.187 4.969-0.203 8.016-3.391 2.406-2.422 3.188-7.938 3.188-7.938s0.797-6.469 0.797-12.953v-6.063c-0.016-6.469-0.813-12.953-0.813-12.953zM31.734 50.375v-22.484l21.609 11.281-21.609 11.203z"></path>
</svg>
