<?xml version="1.0" encoding="utf-8"?>
<!-- Generated by IcoMoon.io -->
<!DOCTYPE svg PUBLIC "-//W3C//DTD SVG 1.1//EN" "http://www.w3.org/Graphics/SVG/1.1/DTD/svg11.dtd">
<svg version="1.1" xmlns="http://www.w3.org/2000/svg" xmlns:xlink="http://www.w3.org/1999/xlink" width="80" height="80" viewBox="0 0 80 80">
<path d="M56.719 46.719l16.563 16.563-4.844 5-16.719-16.719v-2.5l-0.938-0.938c-3.75 3.281-8.75 5.156-14.063 5.156-4.063 0-7.813-1.094-11.094-2.969l5-4.844c1.875 0.781 3.906 1.25 6.094 1.25 8.281 0 15-6.719 15-15s-6.719-15-15-15-15 6.719-15 15h11.563l-13.75 13.281-12.813-13.281h8.281c0-11.719 9.688-21.719 21.719-21.719s21.719 9.688 21.719 21.719c0 5.469-2.031 10.313-5.313 14.063l0.938 0.938h2.656z"></path>
</svg>
