<?xml version="1.0" encoding="utf-8"?>
<!-- Generated by IcoMoon.io -->
<!DOCTYPE svg PUBLIC "-//W3C//DTD SVG 1.1//EN" "http://www.w3.org/Graphics/SVG/1.1/DTD/svg11.dtd">
<svg version="1.1" xmlns="http://www.w3.org/2000/svg" xmlns:xlink="http://www.w3.org/1999/xlink" width="201" height="80" viewBox="0 0 201 80">
<path d="M26.876 13.234c0.016-0.068 0.027-0.116 0.030-0.141l0.081-0.591-3.699-0.021c-3.342-0.019-4.365 0.001-4.457 0.085-0.044 0.040-1.198 4.424-3.254 12.365-0.981 3.788-1.807 6.813-1.835 6.723s-1.202-4.414-2.609-9.608c-1.407-5.194-2.586-9.472-2.621-9.507-0.049-0.049-4.53-0.070-8.158-0.039-0.526 0.004-0.819-1.024 4.689 16.495 0.762 2.425 1.904 5.859 2.537 7.631 0.729 2.042 1.249 3.619 1.604 4.935 0.628 2.505 0.65 4.075 0.513 5.908-0.158 2.117-0.181 17.065-0.027 17.315 0.118 0.191 7.127 0.28 7.79 0.099 0.106-0.029 0.177-0.132 0.224-0.697 0.166-0.486 0.179-2.419 0.179-10.449v-10.256l0.449-1.415c0.293-0.926 1.031-3.359 1.64-5.408s1.345-4.501 1.636-5.451c2.643-8.619 5.167-17.096 5.234-17.579l0.054-0.395z"></path>
<path d="M66.103 25.676l-0.002 0.534-0.083 0.001-0.046 14.765-0.045 14.315-1.146 1.166c-1.283 1.306-2.311 1.805-3.241 1.571-1.013-0.254-0.988 0.141-1.072-16.779l-0.078-15.574h-7.368v0.535h-0.085v16.898c0 18.104-0.001 18.094 0.918 19.912 0.732 1.448 1.798 2.153 3.624 2.396h0c2.405 0.32 5-0.769 7.404-3.11l1.045-1.017v1.754c0 1.515 0.043 1.766 0.318 1.842 0.45 0.125 6.029 0.133 6.632 0.010l0.5-0.103v-0.518l0.085-0.017v-38.68l-7.359 0.098z"></path>
<path d="M47.413 33.307c-0.698-2.995-2.006-5.009-4.159-6.401-3.381-2.187-7.244-2.419-10.827-0.648-2.611 1.29-4.293 3.431-5.162 6.569-0.104 0.374-0.18 0.688-0.237 1.157-0.221 1.108-0.247 2.762-0.304 10.465-0.088 11.869 0.048 13.281 1.535 15.977 1.458 2.644 4.485 4.583 7.779 4.983 0.992 0.12 3.002-0.067 4.159-0.388 2.627-0.729 5.146-2.805 6.259-5.162 0.481-1.018 0.771-1.726 0.946-3.020 0.326-1.767 0.349-4.623 0.349-11.904-0-9.287-0.030-10.302-0.339-11.629zM39.011 57.5c-0.618 0.471-1.698 0.676-2.577 0.488-0.676-0.144-1.589-1.205-1.87-2.172-0.35-1.206-0.377-17.968-0.075-21.255 0.498-1.645 1.89-2.504 3.409-2.095 1.184 0.319 1.79 1.061 2.136 2.614 0.256 1.153 0.287 2.588 0.232 11.036-0.036 5.602-0.056 8.339-0.239 9.809-0.186 0.927-0.494 1.176-1.017 1.575z"></path>
<path d="M179.718 41.729h3.56l-0.057-3.225c-0.055-2.959-0.099-3.297-0.494-4.099-0.624-1.266-1.544-1.828-3.004-1.828-1.754 0-2.865 0.848-3.39 2.589-0.223 0.741-0.458 5.835-0.29 6.274 0.094 0.246 0.603 0.289 3.674 0.289z"></path>
<path d="M155.921 34.394c-0.475-0.957-1.358-1.428-2.385-1.391-0.799 0.029-1.684 0.365-2.538 1.016l-0.636 0.483v23.172l0.636 0.483c1.44 1.098 3.021 1.331 4.111 0.602 0.431-0.288 0.712-0.686 0.931-1.317 0.285-0.822 0.31-1.875 0.273-11.623-0.039-10.16-0.061-10.758-0.392-11.424z"></path>
<path d="M200.069 23.956c-0.709-8.503-1.274-11.263-3.027-14.808-2.323-4.695-5.679-7.171-10.459-7.715-3.696-0.42-17.603-1.013-30.472-1.299-22.28-0.495-58.911 0.458-63.589 1.654-2.162 0.553-3.783 1.493-5.47 3.172-2.957 2.942-4.718 7.162-5.426 13-1.617 13.329-1.651 29.432-0.093 43.243 0.67 5.941 2.050 9.8 4.641 12.981 1.617 1.985 4.403 3.672 6.895 4.175 1.749 0.353 10.502 0.844 23.25 1.302 1.899 0.068 6.927 0.186 11.174 0.261 8.852 0.157 25.127 0.064 34.431-0.197 6.26-0.176 17.672-0.638 19.805-0.803 0.6-0.046 1.99-0.135 3.089-0.197 3.694-0.209 6.043-0.982 8.25-2.716 2.856-2.244 5.067-6.39 6.001-11.253 0.884-4.601 1.476-12.795 1.595-22.098 0.1-7.773-0.033-11.967-0.595-18.704zM111.349 20.874l-4.139 0.051-0.182 44.152-3.588 0.045c-2.775 0.038-3.618-0.003-3.685-0.182-0.048-0.127-0.106-10.080-0.131-22.121l-0.045-21.894-8.085-0.102v-6.899l23.893 0.096 0.102 6.802-4.139 0.051zM136.736 46.181v18.987h-6.541v-1.999c0-1.504-0.057-1.999-0.233-1.999-0.128 0-0.721 0.496-1.317 1.101-1.294 1.314-2.826 2.372-4.134 2.862-2.708 1.013-5.28 0.422-6.376-1.465-1.003-1.727-1.022-2.113-1.022-20.026v-16.449h6.535l0.051 15.489c0.049 15.22 0.056 15.499 0.42 16.12 0.483 0.822 1.219 1.043 2.39 0.721 0.689-0.189 1.159-0.524 2.277-1.635l1.408-1.402v-29.293h6.541v18.987zM162.247 62.454c-0.576 1.283-1.86 2.54-2.913 2.85-2.747 0.811-4.951 0.15-7.495-2.243-0.789-0.743-1.524-1.346-1.635-1.346-0.134 0-0.204 0.582-0.204 1.726v1.726h-6.541v-51.238h6.541v8.358c0 4.597 0.061 8.358 0.136 8.358s0.765-0.61 1.533-1.351c1.768-1.706 3.246-2.453 5.122-2.595 3.345-0.253 5.338 1.468 6.251 5.4 0.285 1.226 0.312 2.627 0.312 13.99-0 13.842-0.002 13.9-1.107 16.364zM189.921 54.857c-0.058 1.424-0.231 3.058-0.386 3.634-0.91 3.372-3.331 5.76-6.831 6.74-4.712 1.319-9.899-0.842-11.969-4.985-1.162-2.326-1.204-2.79-1.204-14.155 0-9.267 0.033-10.404 0.329-11.668 0.84-3.577 2.921-5.892 6.445-7.177 1.021-0.372 2.087-0.563 3.151-0.585 3.803-0.078 7.577 1.967 9.159 5.297 1.067 2.247 1.199 3.208 1.306 9.539l0.096 5.678-13.945 0.096-0.051 3.816c-0.073 5.383 0.29 7.038 1.743 8.017 1.222 0.823 3.1 0.761 4.122-0.136 0.958-0.841 1.229-1.745 1.323-4.383l0.085-2.317h6.734l-0.108 2.589z"></path>
</svg>
